<svg xmlns="http://www.w3.org/2000/svg" viewBox="0 0 640 480" height="16" width="22"><path d="M-37.783 0h715.566v479.522H-37.783z" fill="#fff"/><path d="M0 .578v202.584h640V.578H0z" fill="#000001"/><path d="M94.686 190.528h473.447v106.706H94.686z" fill="#0061ff"/><path d="M640 51.627L320.373 480H640V51.627zM0 50.635V480h320.37L0 50.635z" fill="#e20000"/><path d="M487.564 190.631l-71.54-18.153 60.862-45.916-74.743 10.679 38.44-65.133-66.203 38.44 11.747-75.813-44.847 59.797-18.154-69.407-20.287 71.54-44.847-60.862 12.812 77.949-66.201-40.577 38.44 65.133-72.61-11.746 59.797 44.848-74.744 19.218h332.082z" fill="#ffd600"/></svg>