<svg xmlns="http://www.w3.org/2000/svg" xmlns:xlink="http://www.w3.org/1999/xlink" viewBox="0 0 640 480" height="16" width="22"><g fill-rule="evenodd" stroke-width="1pt"><path d="M0-.01h640.003v160.43H0z" fill="#00c4ff"/><path d="M0 159.763h640.003v160.43H0z" fill="#f5f5f5"/><path d="M0 319.536h640.003v160.43H0z" fill="#00c4ff"/></g><path d="M382.49 221.33c0 14.564-11.864 26.37-26.5 26.37s-26.498-11.806-26.498-26.37 11.864-26.37 26.5-26.37 26.498 11.806 26.498 26.37z" fill="#ffd600" fill-rule="evenodd" stroke="#000001" stroke-opacity=".387" stroke-width=".625" transform="matrix(1.6452 0 0 1.62 -265.894 -116.567)"/><path d="M364.43 195.28c-4.34-1.05-8.785.422-10.185.318-1.925 0-6.79-1.68-10.185 0m-5.35 4.892c4.305-3.01 9.115 1.086 10.394.315 3.492-2.294 6.736-1.868 10.08.21 2.155 1.272 5.914-3.71 10.29.315" fill="none" stroke="#000001" stroke-opacity=".387" stroke-width=".5" transform="matrix(1.2703 0 0 1.231 -130.873 -28.912)"/><path d="M333.88 205.63c2.275-1.855 9.694-1.925 17.324 2.414 1.155-.28 1.89-1.084.945-2.204-5.74-1.995-12.425-4.515-18.585-2.625-1.68 1.19-1.26 1.96.315 2.415z" fill="#efc000" fill-rule="evenodd" stroke="#000001" stroke-opacity=".387" stroke-width=".5" transform="matrix(1.2703 0 0 1.231 -130.873 -28.912)"/><path d="M333.88 205.63c2.275-1.855 9.694-1.925 17.324 2.414 1.155-.28 1.89-1.084.945-2.204-5.74-1.995-12.425-4.515-18.585-2.625-1.68 1.19-1.26 1.96.315 2.415z" fill="#efc000" fill-rule="evenodd" stroke="#000001" stroke-opacity=".387" stroke-width=".5" transform="matrix(-1.2703 0 0 1.231 768.984 -28.912)"/><path d="M330.84 211.83c7.525-4.83 17.464-2.31 21.63.315-6.09-1.155-6.196-1.68-10.606-1.785-3.115.106-7.7-.21-11.024 1.47z" fill="#f0bf00" fill-rule="evenodd" stroke="#000001" stroke-linejoin="round" stroke-opacity=".387" stroke-width=".625" transform="matrix(1.2703 0 0 1.231 -130.873 -28.912)"/><path d="M348.06 211.3c-3.675 7.665-10.08 7.77-14.594-.42" fill="none" stroke="#000001" stroke-opacity=".387" stroke-width=".625" transform="matrix(1.2703 0 0 1.231 -130.873 -28.912)"/><path d="M308.78 234.09c-1.383 1.514-4.77 2.413-7.564 2.01s-3.937-1.96-2.553-3.474c1.384-1.514 4.77-2.413 7.565-2.01s3.937 1.96 2.553 3.474z" fill-opacity=".368" fill-rule="evenodd"/><path d="M301.898 232.147c.143.353-.297.82-.984 1.045s-1.358.12-1.5-.23c-.144-.354.297-.822.983-1.046s1.36-.12 1.5.23z" fill="gold" fill-rule="evenodd"/><path d="M349.18 224.5c-4.24 7.127 1.537 2.1 2.475 4.164 1.65 1.913 3.3 1.462 4.276 0 .977-1.65 7.128 3.113 2.927-3.938" fill="none" stroke="#000001" stroke-opacity=".387" stroke-width=".625" transform="matrix(1.2703 0 0 1.231 -130.873 -28.912)"/><path d="M341.64 236.31c3.638-.413 9.753-3.188 11.93-.9 1.874-2.063 8.476.6 12.714.9-3.076 1.875-9.302.6-12.265 2.588-2.89-1.763-9.267-.15-12.38-2.588z" fill="none" stroke="#000001" stroke-linecap="round" stroke-linejoin="round" stroke-opacity=".387" stroke-width=".625" transform="matrix(1.2703 0 0 1.231 -130.873 -28.912)"/><path d="M347.5 239.58c5.514 2.25 6.752 1.913 12.716.225-1.238 3.264-4.398 3.95-6.19 3.826-1.857-.12-4.388.114-6.526-4.05z" fill="none" stroke="#000001" stroke-linejoin="round" stroke-opacity=".387" stroke-width=".625" transform="matrix(1.2703 0 0 1.231 -130.873 -28.912)"/><path d="M349.18 224.5c-4.24 7.127 1.537 2.1 2.475 4.164 1.65 1.913 3.3 1.462 4.276 0 .977-1.65 7.128 3.113 2.927-3.938" fill="none" stroke="#000001" stroke-opacity=".082" stroke-width=".625" transform="matrix(1.2703 0 0 1.231 -130.873 -28.912)"/><path d="M341.64 236.31c3.638-.413 9.753-3.188 11.93-.9 1.874-2.063 8.476.6 12.714.9-3.076 1.875-9.302.6-12.265 2.588-2.89-1.763-9.267-.15-12.38-2.588z" fill="#f0bf00" fill-rule="evenodd" stroke="#000001" stroke-linecap="round" stroke-linejoin="round" stroke-opacity=".082" stroke-width=".625" transform="matrix(1.2703 0 0 1.231 -130.873 -28.912)"/><path d="M347.5 239.58c5.514 2.25 6.752 1.913 12.716.225-1.238 3.264-4.398 3.95-6.19 3.826-1.857-.12-4.388.114-6.526-4.05z" fill="#f0bf00" fill-rule="evenodd" stroke="#000001" stroke-linejoin="round" stroke-opacity=".082" stroke-width=".625" transform="matrix(1.2703 0 0 1.231 -130.873 -28.912)"/><path d="M282.62 221.383h4.001-4.002zm-1.003 2.492h4.002-4.002zm-.857 2.354h4.43-4.43zm-1.281 2.218h4.43-4.43zm-1.145 2.356h5.287-5.287zm-.445 2.353h5.859-5.86zm-.56 2.631h5.573-5.574zm.45 2.633h5.432-5.432zm-.164 2.492h5.572-5.572zm.014 2.91h7.002-7.002zm.387 3.324h6.002-6.002zm.142 2.356h6.002-6.002zm1.002 3.185h6.002-6.002zm.14 2.772h6.003-6.002zm1.718 3.047h6.002-6.002zm1.716 2.494h6-6zm1.569 2.908h6.002-6.002zm1.861 2.772h6.002-6.002zm1.287 2.629h6.002-6.002zm2.715 3.195h6.002-6.002zm3.97 2.664h3.862-3.861z" fill="none" id="flag-ar-g1280" stroke="#000001" stroke-opacity=".173" stroke-width="1.25"/><path d="M330.84 211.83c7.525-4.83 17.464-2.31 21.63.315-6.09-1.155-6.196-1.68-10.606-1.785-3.115.106-7.7-.21-11.024 1.47z" fill="#f0bf00" fill-rule="evenodd" stroke="#000001" stroke-linejoin="round" stroke-opacity=".387" stroke-width=".625" transform="matrix(-1.2703 0 0 1.231 770.29 -29.23)"/><path d="M348.06 211.3c-3.675 7.665-10.08 7.77-14.594-.42" fill="none" stroke="#000001" stroke-opacity=".387" stroke-width=".625" transform="matrix(1.2703 0 0 1.231 -97.703 -29.548)"/><path d="M341.925 233.537c-1.43 1.45-4.93 2.31-7.815 1.924s-4.067-1.874-2.637-3.324c1.43-1.45 4.928-2.31 7.815-1.924s4.067 1.876 2.637 3.325z" fill-opacity=".368" fill-rule="evenodd"/><path d="M335.073 231.518c.142.352-.298.82-.985 1.045s-1.358.12-1.5-.232c-.144-.35.297-.82.983-1.044s1.36-.12 1.503.232z" fill="gold" fill-rule="evenodd"/><use transform="matrix(-1 0 0 1 639.52569 -.59971)" xlink:href="#flag-ar-g1280"/><g fill="gold" fill-rule="evenodd" id="flag-ar-g1169" stroke="#000001" stroke-linejoin="round" stroke-opacity=".388" stroke-width=".782"><path d="M316.056 290.83c-1.941 14.381-.788 58.567 3.858 56.798 5.144 1.607 5.822-43.285 5.35-56.559-.067-1.47-8.939-2.385-9.21-.24zM271.46 257.5c-13.224 4.895-19.51-.469-26.631 1.928-6.857 2.307-23.851 12.34-31.237 4.703-.288-6.07 9.371 1.05 27.256-11.092 8.377-5.633 13.68 1.471 30.115-4.463 1.405-.552 2.578 8.153.495 8.924zm4.083 9.04c-12.986 5.464-13.608 13.558-20.428 16.672-6.566 2.998-25.954 7.344-25.721 17.81 4.174 4.534 5.94-7.102 27.487-10.545 10.053-1.651 8.717-10.324 24.747-17.22 1.402-.559-4.04-7.577-6.087-6.716zm20.357 19.989c-5.645 12.58-13.998 13.178-17.215 19.785-3.098 6.362-7.594 25.147-18.394 24.915-4.676-4.047 7.332-5.752 10.898-26.63 1.71-9.74 10.659-8.441 17.785-23.97.577-1.36 7.815 3.92 6.926 5.901zm9.73 3.544c-5.128 12.787.37 18.909-2.144 25.796-2.42 6.632-12.871 23.043-5.032 30.244 6.261.314-1.03-9.087 11.602-26.35 5.862-8.086-1.439-13.266 4.78-29.157.577-1.359-8.399-2.546-9.207-.531z"/><path d="M272.583 257.272c-14.387 3.999-55.755 22.612-52.231 26.038.526 5.213 43.292-12.055 55.67-17.757 1.364-.645-1.3-8.896-3.44-8.283zm9.727 16.914c-11.935 8.754-43.61 40.563-39.05 42.529 2.43 4.68 35.908-26.36 45.336-36.003 1.033-1.078-4.52-7.846-6.287-6.527zm15.295 11.972c-7.586 12.502-24.342 53.607-19.352 53.738 4.087 3.427 22.813-37.634 27.732-50.03.53-1.378-7.267-5.58-8.38-3.708z"/></g><use transform="rotate(90 319.38731 241.91484)" xlink:href="#flag-ar-g1169"/><use transform="rotate(-90 319.51506 241.74294)" xlink:href="#flag-ar-g1169"/><use transform="rotate(180 319.48719 241.91493)" xlink:href="#flag-ar-g1169"/></svg>