<svg xmlns="http://www.w3.org/2000/svg" viewBox="0 0 640 480" height="16" width="22"><path d="M.1 0h640v480H.1z" fill="#3f9c35"/><path d="M.1 0h640v320H.1z" fill="#ed2939"/><path d="M.1 0h640v160H.1z" fill="#00b9e4"/><path d="M304 168a72 72 0 1 0 0 144 72 72 0 1 0 0-144z" fill="#fff"/><path d="M320 180a60 60 0 1 0 0 120 60 60 0 1 0 0-120z" fill="#ed2939"/><path d="M384 200l7.654 21.522 20.63-9.806-9.806 20.63L424 240l-21.522 7.654 9.806 20.63-20.63-9.806L384 280l-7.654-21.522-20.63 9.806 9.806-20.63L344 240l21.522-7.654-9.806-20.63 20.63 9.806L384 200z" fill="#fff"/></svg>