<svg xmlns="http://www.w3.org/2000/svg" xmlns:xlink="http://www.w3.org/1999/xlink" viewBox="0 0 640 480" height="16" width="22"><path d="M0 0h640v480H0z" fill="#d90f19"/><path d="M0 48h640v384H0z" fill="#171696"/><path d="M320 100a140 140 0 1 0 0 280 140 140 0 1 0 0-280z" fill="#fff"/><path d="M345.275 146.61s-.91-.076-1.747-.684l1.747.682" fill="#6f6"/><g fill="none"><path d="M345.277 146.61s-.911-.076-1.747-.684" stroke="#060" stroke-width=".38"/><path d="M325.6 161.652l.989.609 1.062.152s1.14 1.062 2.432 2.051c.986.836.986-.151.986-.151l.608 2.431h.835s-.23 1.593-.23 2.429l1.444-1.218 1.67 1.445s1.214-1.062 1.822-1.062c.608 0 .835-.61.835-.61h.075c-4.024-1.896-5.772-3.874-4.558-5.926 1.976-3.416 5.242-1.214 6.306-.76l14.736 7.901s.988-.605.303-1.214c-.761-.607-1.064-2.127-.834-2.733.225-.608 1.896 1.898 2.733 2.126.837.228 2.736.533 2.736.533l-.077-.761s2.43 1.672 2.43 2.508c0 0 1.747-.912 1.14-1.445-.606-.53 2.658 1.293 2.886 2.28l.684-.763c-.075 0 .23-2.432 1.065-3.57.76-1.14 1.596-1.444 1.596-1.444s.76-1.292 1.518-1.292c0 0-.758-.53-1.062-1.138-.38-.607-1.292-.91-1.292-.91s1.139-.835 1.444-1.218c.304-.456.608-.53.608-.53s-1.748-1.444-2.963-1.672c0 0-.074-1.974-1.593-2.126h.684s-1.14-2.125-2.204-2.202c0 0 .685-.76 1.292-.834 0 0-1.292-1.672-3.039-1.064l1.143-.456s-.836-.912-3.42-.457c0 0 .227-1.06-.91-1.899 0 0-.989.076-.989.838 0 0-.91-.838-2.05-.838-1.14 0 .379 1.216.379 1.216s-1.518-.987-2.43-.685c0 0 .378-1.745-.608-2.658 0 0-1.14.607-1.444 1.368l-.304-.761s-1.518 1.825-1.822 1.29c-.23-.3-.456-1.591-.456-1.591l-.91 1.367.152-1.9s-1.064.607-1.899 2.583c0 0-1.064.987-1.064 1.899 0 0-.834-.986-1.594 0-.684 1.064 0 .836 0 .836s-.304.379-1.064.532l.153.606s-.988-.53-1.747-.302l.379.91s-1.975.152-2.05-1.442c0 0-1.671-.836-1.9.076 0 0-1.368 0-1.216.758 0 0-.38-.76-1.064-.91-.76-.23-.152.985-.152.985s-.226-.911-1.138-1.368c-.91-.377-.153.837-.153.837s-1.214-.987-.605-1.747c0 0-1.14 1.064-.608 2.053l-.762.53s-.377-.377-.304-.685c.076-.305-1.29.912-1.29.912s-.837-1.975 0-1.975c.074 0-1.444-.077-1.67 1.672-.23 1.67 0 0 0 0s-.99.075-1.9.377c-.99.306.682.99.682.99s-1.442-.305-2.28.149l.534.684s-.532-.53-1.822-.074c-1.37.379.302.608.302.608s-1.366-.304-2.05 0c-.683.304.226.836.226.836s-2.504-.76-2.885-.532c-.379.228.836 1.444.836 1.444s-1.519.38-1.822 1.52l1.367.532s-.607.303-.912.91c-.302.609.912.306.912.306s-1.67 1.214-1.67 2.126c0 0 1.216.378 2.126-.533.912-.909.305-.605.305-.605l.075.605s1.746-.758 1.746-1.214c0-.379-.3.608-.3.608l1.747-.912 1.139.76"/><path d="M324.157 137.946l-.38-1.667s2.051 0 3.875.456l.684-1.596s1.822.835 2.432 1.441c0 0 3.568-.91 4.632-.53l-.455 1.672s3.267.226 4.33.607c.987.379-.457 1.217-.457 1.217s3.724.454 5.317 1.441c1.673.987 1.673 1.824.837 2.053l2.05 3.266s-3.267.379-3.876 1.216c-.606.836-1.215-.837-1.215-.837l-.606 2.28s-2.05-1.065-2.887-1.824c0 0-.99 1.217-.381 1.824 0 0-2.659 0-3.724-2.432 0 0-1.595-.227-1.595 1.216 0 0-1.824-2.05-2.28-2.66l-2.052.61s-.608-.837-1.366-1.066c-.836-.151-.229 1.065-.229 1.065l-1.217-1.444-1.213-1.445s-1.066 1.443-1.902 1.443c-.761 0-.761-.989-.609-1.673.228-.606-2.43-.759-2.658 0 0 0-.762-3.037 2.05-3.875l2.89-.76"/></g><g stroke-width=".38"><g fill="#d67c59" stroke="#000"><path d="M343.071 147.598s.455-1.064 1.291-.456c.76.607.986 3.267.986 3.267l-1.215.606s.685-.985-1.062-3.417zm-6.907 23.856s.606-.835-.228-2.66l1.215-.38s.455 1.443-.152 3.04h-.837m21.044-4.182l-2.887 1.749 1.444.684 3.494-2.052-2.054-.381m-38.668 11.32c-.761.608-.836 1.672-1.292 2.28-.377.606-1.518 1.44-1.593 2.353-.153.911-.228 1.519.15 2.736.454 1.214 2.354 6.608 1.594 10.713-.836 4.101-.53 5.848-.225 6.459.301.606 1.214 2.277 1.747 2.277 1.214-.152.683-.53 1.138-1.292 1.139-1.975 0-17.246-.532-21.5-.379-3.268-1.901-6.232-2.05-6.534-.152-.382-.456-1.368-.685-1.978-1.138-2.736-2.506-5.088-2.506-10.788 0 0-3.723.836-6.913-6.384-1.67-3.646-4.102-3.266-6.988-4.48l1.291-.838s2.432 1.218 3.647 1.218c1.216 0 .836-2.432.836-2.432l1.216-1.216v5.32c0 2.432 3.342 5.774 5.316 6.761 1.217.606 2.812-1.9 2.432-4.331-.38-2.43 0-5.696 0-5.696l1.672.985s-.608 1.064-.456 1.672c.227.609 1.063-.608 1.67-1.216 0 0 .152.152.76.152 0 0-1.215 2.05-1.822 3.115-.606.989-.606 4.864-.606 6.308s.531 4.785.531 5.848c0 .76 1.442 3.874 2.584 5.776.379.76 1.29 2.733 1.29 2.733.912 1.444.986 2.432 1.52 3.649.303.606.837 2.354 1.215 5.395.152.758.304 3.646.534 5.544.226 1.823 1.747.38 3.568-.911 1.823-1.367 1.823-4.635 1.823-4.635s1.444-1.217 1.216-.532c-.153.76.76 1.52.76 1.52-1.139 2.582-.455 2.279.684 2.203 1.139-.154 5.088-3.116 5.088-3.116.532-.153 2.888-.153 2.508 0-.456.23-1.064 1.368-1.064 1.368l2.582-.304c-.91.684-4.33 2.657-5.088 3.115-.837.533-4.936 2.509-6.684 3.191-1.747.76-5.167 2.432-5.318 4.178-.076 1.75.228 6.46 0 7.977-.151 1.519-.76 8.283-.76 8.283h-8.128s1.595-5.928-.077-7.522c-1.595-1.672-5.318-6.536-7.748-8.208-2.432-1.594 1.594-.378 1.594-.378v-1.672l3.722 4.485s6.456-5.699 0-13.448c-2.051-2.432-4.102-6.153-5.697-6.536-1.671-.456-2.507-.836-5.318 0-2.887.835-9.8.835-12.687-3.725l2.432-.379 2.05-.836s-.835 2.888 4.938 2.888c5.696 0 6.532 0 6.077-5.318l1.67-.837 1.217 1.218s-.836 2.887-.38 4.101c.38 1.215 2.432 2.052 4.027 3.267.684.532 1.216.608 1.671.608.683-.076.834-.076 1.747-.988 1.367-1.52 1.063-1.444 2.43-2.658 0 0 .685-1.064.837-1.217l.836 2.204z"/><path d="M319.752 174.568c.302-.302.911-1.444 1.443-2.432.911-1.518 1.976-2.43 3.19-4.33 1.138-1.748 1.595-4.33 1.138-6.152l1.063.608.078 2.887s1.444-1.218 2.052-1.52l.606.303s-4.558 4.712-8.812 12.31l-.76-1.67zm-39.954-15.8c.608 1.06 1.216 3.115 3.039 4.71l1.215-.38s-2.81-3.267-2.81-4.71l-1.444.38m7.138-1.83s.38 3.876-.607 5.319l1.216-.605s.833-2.66.605-4.104l-1.215-.606zm40.037-12.23s-.23 5.469.836 8.813l1.44-.455s-.226-.99.989-1.445c1.216-.38 4.102-1.595 5.544-2.811l-.453-1.215s-2.203 1.747-3.267 2.203c-.987.381-1.595.835-2.432.608-.836-.23-1.821-1.597-1.216-4.712zm16.098 25.528s-.379 3.876-.152 5.548l1.292.304s-.302-4.634.53-5.014l-1.67-.836m5.78 2.888s-1.445 2.508-3.114 2.736l2.657-.532s.762-.38 1.901-1.594l-1.445-.608"/></g><g fill="#338a00" stroke="#030"><path d="M325.606 161.65l.986.604 1.064.156s1.138 1.064 2.43 2.05c.986.835.986-.153.986-.153l.606 2.431h.836s-.228 1.596-.228 2.432l1.444-1.217 1.672 1.444s1.215-1.063 1.822-1.063.836-.607.836-.607h.077c-4.027-1.9-5.772-3.875-4.559-5.927 1.976-3.418 5.242-1.216 6.304-.758l14.738 7.899s.987-.607.304-1.217c-.762-.605-1.066-2.126-.837-2.733.228-.608 1.899 1.898 2.733 2.127.837.228 2.734.533 2.734.533l-.076-.76s2.432 1.67 2.432 2.507c0 0 1.747-.91 1.138-1.444-.606-.53 2.66 1.293 2.888 2.282l.682-.762c-.076 0 .23-2.432 1.064-3.572.761-1.136 1.596-1.442 1.596-1.442s.761-1.292 1.518-1.292c0 0-.762-.53-1.064-1.138-.38-.61-1.292-.912-1.292-.912s1.14-.836 1.445-1.216c.304-.455.608-.534.608-.534s-1.747-1.44-2.964-1.667c0 0-.075-1.978-1.595-2.128h.685s-1.138-2.128-2.203-2.203c0 0 .683-.76 1.291-.837 0 0-1.291-1.67-3.037-1.063l1.139-.453s-.836-.911-3.417-.456c0 0 .227-1.063-.911-1.9 0 0-.987.074-.987.835 0 0-.912-.835-2.05-.835s.38 1.217.38 1.217-1.52-.99-2.433-.684c0 0 .38-1.748-.608-2.661 0 0-1.136.608-1.443 1.368l-.302-.76s-1.52 1.825-1.822 1.292c-.228-.303-.456-1.594-.456-1.594l-.91 1.368.152-1.901s-1.064.608-1.899 2.582c0 0-1.064.989-1.064 1.898 0 0-.836-.986-1.595 0-.684 1.064 0 .838 0 .838s-.305.377-1.064.53l.152.606s-.987-.53-1.747-.302l.379.91s-1.976.154-2.05-1.44c0 0-1.672-.838-1.9.074l-1.216.76s-.38-.76-1.064-.91c-.761-.228-.152.986-.152.986s-.226-.91-1.138-1.368c-.91-.376-.151.838-.151.838s-1.215-.989-.607-1.747c0 0-1.138 1.063-.607 2.052l-.76.53s-.38-.379-.305-.684c.078-.304-1.29.911-1.29.911s-.838-1.974 0-1.974c.075 0-1.445-.077-1.671 1.672 0 0-.987.075-1.9.378-.985.304.685.988.685.988s-1.444-.304-2.28.152l.532.684s-.532-.532-1.823-.077c-1.368.38.304.608.304.608s-1.367-.304-2.051 0c-.684.305.228.836.228.836s-2.508-.76-2.887-.53c-.38.226.836 1.443.836 1.443s-1.52.38-1.823 1.52l1.367.53s-.605.303-.91.912c-.302.608.91.302.91.302s-1.67 1.218-1.67 2.128c0 0 1.216.379 2.127-.532.912-.91.304-.608.304-.608l.076.61s1.748-.76 1.748-1.214c0-.381-.303.604-.303.604l1.747-.91 1.14.76h0z"/><path d="M324.157 137.95l-.38-1.67 3.875.453.682-1.595s1.823.836 2.432 1.441c0 0 3.568-.91 4.634-.53l-.456 1.673s3.266.226 4.331.604c.987.381-.456 1.218-.456 1.218s3.723.456 5.32 1.443c1.67.986 1.67 1.824.836 2.05l2.048 3.267s-3.265.38-3.872 1.214c-.608.836-1.216-.834-1.216-.834l-.608 2.278s-2.05-1.064-2.885-1.823c0 0-.986 1.218-.38 1.824l-3.723-2.432s-1.597-.227-1.597 1.218c0 0-1.821-2.054-2.277-2.662l-2.053.608s-.605-.833-1.366-1.064c-.837-.149-.228 1.066-.228 1.066l-1.216-1.444-1.216-1.44s-1.064 1.44-1.899 1.44c-.761 0-.761-.985-.608-1.67.228-.608-2.432-.759-2.657 0 0 0-.762-3.04 2.05-3.873l2.885-.76zm-14.731 10.408l-1.292 1.218-.76-.38-1.519 1.671-.304-.914-.837 1.368-1.29-.455-.607.988-1.139-.23s-.987.914-1.596 1.142c-.606.153 0-1.367 0-1.367s-.91 1.52-1.595 1.52c-.605 0-.377-.685-.377-.685s-.38.986-1.14 1.139c-.684.077-.38-.759-.38-.759l-1.217.912v-.76l-.53-.228s.302-1.368.835-1.67c.53-.306-.532-1.214-.532-1.214l.53-.61s-1.52-.38-1.52-.074c0 0 .762-2.05 1.822-2.434l.079-2.278s1.063-.91 2.05-.988c1.063-.152-.303-1.748-.303-1.748l2.43-1.44.303-1.748 3.722.301.76-1.593 2.965.758 2.505-1.292 1.822 2.128 2.735.228s-.075 1.898-.075 2.432c0 0 3.264.985 3.646 1.291 0 0-.608 1.975-.608 2.355 0 0 2.28-.608 2.964-.456 0 0 .229 2.128.302 2.658 0 0 3.874 1.218 4.103 1.902 0 0-.836.53-1.292 1.213 0 0 .456 2.357.456 3.115l-.304.456s-1.14-1.064-2.052-1.216l-.761 1.672-1.367-.912-.835.076s-.684-.836-1.217-.836l-.076-.759-1.064.683s-1.67-.836-1.67-1.368c0-.456.076-1.217.076-1.217l-1.747 1.217s-.38-.91-.303-1.292c.076-.379-.684.913-.684.913s-.912-1.597-.836-1.9l-.228 1.291s-1.823-.604-2.05-1.822v-.002z"/><path d="M285.114 155.803s3.192 1.599 3.192 2.357c0 0 .836-1.672.379-2.28l1.216.836s.377-1.518-.077-1.976c-.382-.38 2.733-1.668 3.417.382 0 0 1.9-1.976-1.747-3.648 0 0-.302-1.216 1.9-.91 0 0-.152-.76-.684-1.065h2.128s-1.292-1.064-3.192-1.368c-1.821-.305-.684-.53-.76-.913-.152-.38 0-1.748 0-1.748s-1.064-.379-1.9.076l.304-.38s-1.976-.53-2.732-.075c0 0-1.14-.456-.988-1.672 0 0-1.14-.075-1.67 1.138 0 0-1.063 1.217-2.506 1.217-.303 0-1.367-.61-1.367-.61l-.913 2.129-1.443-.075.456.834s-2.203-.605-2.888 0c0 0 .837 1.294.608 2.203 0 0-1.747.306-2.127.61-.455.3.608.53.608.53s-1.976.607-2.432 1.216l.76.605-.911 1.22.761.148s-1.292.38-1.975.61c-.683.227 1.216.38 1.216.38l-.912.834 1.445.226s-1.14 3.04-1.216 4.485c0 0 1.748-2.128 2.203-2.278l-1.366 2.278s2.584-.834 2.811-1.217c.226-.456.454-.835.454-.835l.077 1.292s.987-1.368 1.14-1.9c.076-.53 1.594.532 1.594.532v-.761s1.368.456 1.822.532c.532.076.608-.228.608-.228l1.291-.152-.228 1.063s.91-.607 1.137-1.216c.152-.608.607 0 .607 0l.606-2.43h1.291zm-10.408 10.79l1.215 2.507c-.987.075-2.432 1.214-2.432 1.214.228 4.18-.834 3.952-.834 3.952.301.76-.194 2.17-.194 2.17l6.042-3.613.078-.38 7.14-3.344.227.38L288 168.34l1.443 3.797-1.442.836c.077 1.292 1.595 3.573 1.595 3.573l1.9-.455 2.05-.76s.077 1.138.077.761c0-.306 2.201-1.064 2.201-1.064l.987.987c.762-.074 2.127-1.9 2.127-1.9l1.596.609s.53-.912.53-1.595c0-.608 1.976-.608 1.976-.608l1.368.985 1.747-1.44s.531 1.063 1.216 1.213c.761.077 2.658 1.52 2.658 1.217 0-.302.836-1.976.836-1.976l3.19 1.293c-.454-1.444-1.517-3.19-1.517-3.19s1.517-1.214 1.215-1.519c-.303-.305-1.216 0-1.216 0l.911-1.823h-1.216l.38-.455-1.975-.834 1.062-2.128c-.456-.534-5.697-1.598-5.697-1.598l1.216-1.139s-.608-.911-1.216-.911-3.799.078-3.95-.225c-.078-.305-1.368-1.446-1.368-1.446l-1.976 1.446-.986-.305-1.747.684s0 .988-.23.304c-.226-.61-1.822-2.203-1.822-2.203-.304.53-2.354 2.961-2.354 2.961s-.304 1.293-.988.38c-.762-.911-2.355-1.898-2.584-1.14-.227.838-1.669 1.596-1.975 1.37-.302-.23-1.975-.076-2.127.379-.076.53-1.899 1.897-1.899 1.897-1.14-.53-2.964-.224-2.964-.224s-.53.834-.605 1.517l-3.722.987h.002v-.003zm34.339 30.77v-1.596l1.821 1.215 1.064-1.216 1.367 1.366.837-1.366v2.204l2.05-1.821 1.214.53v-1.748s1.445-2.432.836-2.885l1.216-.38s-2.05-2.052-2.658-2.433c-.607-.455-1.443-.455-1.443-.455s-1.595-1.597-2.659-2.05c-.987-.38-1.597.453-1.597.453s-.607-1.213-1.67-1.443c-.985-.226-.985.837-.985.837s-.762-.761-1.748-1.14c-.987-.453-.304.91-.304.91l-3.494-1.06.454 1.06-3.264-.831.377 1.215-2.277-.383-.152.992-3.267.605.608 1.063-2.052-.836v1.444l-2.279.835.836.761s-3.038 1.444-3.647 1.9c-.607.378 1.217 1.213 1.217 1.213l-3.268-.456 1.216 1.065-2.887 2.66 2.051 1.444-1.216 1.823 3.04.606 1.214 2.051 2.507-.456v2.278l3.646-2.885s2.66 2.354 2.888 1.671c.15-.607.15-2.658.15-2.658h1.292v-2.05l.986.834 1.672-2.432 2.201 3.04 1.67-3.874 2.433.38zm14.889-9.192l-.38-3.493-1.062 1.064.453-3.268-1.669-.304.606-3.19-1.215-.609.303-1.518 1.216-.912 2.203-2.128 5.087.08.607-1.672 3.648.608c.606.684 2.504-1.368 2.504-1.368h.763l.836 1.593s2.658-.381 3.872.456l-1.444 1.975 2.659.226 1.821.381 1.901-.608 2.432-.154.607.988h2.28l-.76.91 2.962 1.367-.606.61s1.67.606 2.886.606h.606s.608 1.442-.228 2.05c0 0 .836 2.052 2.658 2.433 1.822.38 1.822.38 2.05.834.23.38 0 2.432-2.05 2.432v2.054s-1.594 1.442-1.822 2.048l-1.216-.836s-1.061 1.217-1.061 2.053c0 0-2.66-3.496-3.648-3.649-1.064-.227-.836 1.976-.836 1.976l-2.886-2.43-.38 1.67-2.431-2.05-1.443.984-2.584-2.658-2.507.306.986-1.293h-3.037l-.606-2.658-.456 2.202-1.822-1.214-2.355 2.582s-.303-.306-.684-1.52c-.378-1.216-1.443 1.443-1.443 1.443l-.836-1.898-.986 1.898s-.836-1.443-1.672-1.898c-.76-.38-1.593 2.277-1.82 3.494zm.456 7.975l.15-1.213 4.33-1.673 3.648-1.366 1.821-.837.836 1.444 1.063-2.05 1.67 2.126.914-1.14 1.442 1.063h1.216l.227 1.598s3.04.226 3.266-.38c.229-.608.608 2.05.608 2.05l2.885.38.608 3.266s1.441 3.04.987 4.256c-.381 1.292-1.596-1.596-1.596-1.596s-.227 2.28-.456 2.888c-.15.605-3.872-.608-3.872-.608l-1.596 3.038s-1.67-2.432-2.43-2.432c-.837 0-.837 2.432-.837 2.432s-2.43-2.887-3.495-4.104c-.988-1.214-1.216 1.217-1.216 1.217s-1.595-2.66-1.595-3.42c0-.834-1.444-1.671-1.444-1.671s-2.509 2.888-4.332 3.648c0 0 .229-1.824-.378-2.432-.607-.608-2.432 1.215-2.432 1.215s-1.292-2.811 0-5.7z"/></g><g fill="none" stroke="#004b00"><path d="M344.445 150.86l.38 1.52s1.367-.305 2.279-.228c0 0-.228 1.216-.531 1.747 0 0 1.821-.303 2.658.227l-.38.912 2.128.912-1.976 1.595s3.189 1.138 3.799 2.052c0 0-2.05 1.442-2.355 1.368-.304-.154-.076.605.456 1.289l-1.747-.075s.683 1.596.606 2.203c-.076.608-2.888.454-2.888.454m10.936-4.097s.532-3.04-.301-3.799c0 0 1.973 1.672 3.265 1.747 1.368.078-.077-2.507-.077-2.507s1.899.987 2.811 1.215c.911.152-.685-1.9-.685-1.9s.531-.989 2.05-.077m-35.317-12.076s.074-.684-.23-1.064c-1.822-2.507 1.9 1.901 2.658 2.052m3.493-.003s1.216.91 1.824.91c.606 0-.38-2.431-.684-2.733-.304-.305 2.202.986 3.114 1.14.911.226 1.063-1.52 1.063-1.52s2.812.456 3.42.837m-19.526-.53s-.228-1.595-.302-2.279m-18.836 9.88c-.152-.306.762-1.673.381-2.28 0 0 .53.456 1.063.532.456.075.301-1.748.301-1.748l.608.227s1.597-.761 1.292-1.369c-.305-.606 1.063.91 1.063.91s.912-.91.912-1.289c0-.384 1.063.909 1.063.909s1.138-.228 1.138-.91c0-.684 1.444.226 1.444.226s.607-.834.532-1.368m-15.344 7.6s.683-1.594-.077-2.658m-18.381 7.668c.077-.758.456-2.81.077-3.114-.38-.302.761.305 1.67.533m7.212-.3c-.91-.913-1.443-1.368-2.884-1.368m-12.534 6.453c.228-.53.607-1.823.38-2.583m19.444 40.267l.987-2.052 1.216 2.887.834-1.824.304.608 1.822-1.975 1.976 2.964m31.68-12.838l1.293-2.582 1.747.912.836-2.508 1.822 1.14 1.064-2.356 2.05.53.151-1.67s1.443.834 1.823 1.441c.455.61 0-2.048 0-2.048l1.67.759s1.216-1.218-.455-1.901"/><path d="M338.822 180.877l1.822 2.66 1.518-1.747 1.368 2.96 1.748-1.063 2.505 1.444 1.14-.912 2.735 1.976 1.139-2.353 2.43.76 1.595-2.733m-65.63-7.144s1.064-1.827.684-2.662c-.456-.836 2.202 1.444 2.202 1.444s.607-1.824.228-2.658c-.456-.836 3.039 2.432 3.039 2.432s.608-2.811 0-3.42c-.608-.608 3.342.836 3.342.836s1.597-.455.988-1.291c-.608-.836 2.659 1.214 2.659 1.214s.759-2.049 0-2.811c-.837-.834 2.43.989 2.43.989l-1.216-2.205 2.658.152-.226-2.432m23.547 35.096l1.747-.836 1.52 1.52 1.67-2.658 2.05 1.974.304-1.974 2.204.913.455-1.218 2.43 1.294.227-1.824 1.215.38.228-1.217"/></g></g><path d="M291.797 285.874a54.318 54.318 0 0 1-4.635-10.103l32.892-28.948 32.895 28.87c-1.14 3.341-2.66 6.914-4.787 10.334l-.261.421a320.82 320.82 0 0 1-2.474-.953s-1.064.987-1.896 1.063c-1.14.152-2.128-.986-2.128-.986s-1.444 1.215-2.886.986c-1.444-.15-2.052-1.064-2.052-1.064s-1.519 1.216-2.584.988c-.986-.232-1.67-.915-1.67-.915s-.911 1.143-2.203.915c-1.214-.232-2.354-.915-2.354-.915s-1.896.834-3.114.987c-1.214.23-2.28-1.064-2.28-1.064s-1.594 1.064-2.202 1.064c-.608 0-2.885-1.064-2.885-1.064s-2.356.76-3.191.76c-.762 0-3.114-.984-3.114-.984s-2.202.604-3.19.604c-1.064 0-2.584-.604-2.584-.604s-1.819.835-2.81.604a10.289 10.289 0 0 1-1.898-.604s-1.976.835-3.268.604c-1.215-.225-2.657-1.06-2.657-1.06s-.229.608-2.584 1.06h-.076" fill="#9dc9e2"/><g stroke="#000"><path d="M320.058 213.544v33.277l-32.893 29.099c-3.188-9.269-3.416-17.55-3.416-21.12v-41.256h36.31" fill="#fff" stroke-width=".531"/><path d="M320.058 213.544v33.277l32.816 29.1c3.19-9.269 3.419-17.55 3.419-21.12v-41.256h-36.235" fill="#ffe682" stroke-width=".531"/><g stroke-width=".38"><path d="M298.838 278.96c2.472 1.34 1.635.918 6.761 2.733 4.179 1.446 9.039 2.128 16.103 2.128 6.181 0 9.66-.49 11.618-1.03 2.031-.583 2.511-1.403 2.511-1.403l-5.088 5.168s-20.455 1.102-24.158-1.292c-1.442-.762-4.558-3.267-7.747-6.306z" fill="#d67c59"/><path d="M328.846 269.313s6.534 3.721 0 10.864m-29.396-.836l9.42-8.968-1.064 12.005m4.936 1.062v-20.056m16.104 20.056v-21.273m-8.13 21.654v-22.867" fill="none" stroke-linecap="round"/><path d="M312.74 264.452l-4.254 1.368 4.255.456v-1.824m7.974-3.12l-4.48 1.671 4.48.152zm8.131 1.215l-4.481 1.674 4.481.226v-1.9zm2.659 9.655c-.228-.912 2.659-.834 2.659-.834s.837 3.037 0 4.936l-2.43-.456s.228-2.05-.228-3.646z" fill="#d90f19" stroke-linejoin="round"/><g fill="#fff"><path d="M300.891 278.123l7.977-7.75-.382 4.636s-4.1 2.658-4.1 4.557l-3.494-1.443m4.248 1.6s.836-2.433 3.114-3.647l-.228 4.862-2.885-1.217zm11.476-13.449s3.265-.456 5.698 0c0 0-.381 3.267 0 3.874 0 0-4.484-1.064-6.304.606 0 0-.608-3.039.607-4.48zm-6.914.836s3.267-.456 5.697 0c0 0-.608 3.648-.229 4.256 0 0-3.647-2.053-5.468-.383 0 0-1.216-2.505 0-3.873z" stroke-linejoin="round"/><path d="M309.47 271.358s3.267-.379 5.698 0c0 0-.38 3.268 0 3.876 0 0-4.254-.988-6.078.608 0 0-.836-3.04.38-4.484zm6.534-.604s4.71-.605 7.14-.226c0 0-.987 2.658.229 4.482 0 0-5.09-1.368-6.989.226-.002 0-1.595-3.04-.38-4.482zm-6.907 5.092l6.304.456s-.607 4.634-.228 5.241c0 0-5.088-1.217-6.079.455 0 0-1.67-4.253 0-6.152h.003zm7.138 0s5.467-.38 7.976 0c0 0-1.445 3.496.152 6.533 0 0-7.141-2.048-8.131-.38 0 0-1.667-4.253 0-6.153zm8.355-9.572s3.265-.456 5.698 0c0 0-.38 3.267 0 3.874 0 0-4.482-1.064-6.304.606-.002 0-.609-3.039.606-4.48zm0 4.48s3.265-.38 5.698 0c0 0-.38 3.267 0 3.875 0 0-4.482-.987-6.304.608 0 0-.609-3.039.606-4.482zm.381 4.712s3.265-.453 5.772 0c0 0-.836 5.09-.456 5.696 0 0-3.717-1.747-5.467-.224 0 0-1.062-4.027.152-5.472z" stroke-linecap="round" stroke-linejoin="round"/><path d="M331.729 275.846s1.061 3.873 2.43 4.33l-1.822 2.203s-2.203-1.595-2.432-3.416c0 0 1.443-1.673 1.824-3.116z"/></g></g><g stroke-width=".61"><path d="M348.013 286.33c-5.24 8.738-13.824 16.941-27.954 22.032-14.358-5.165-23.093-13.75-28.258-22.413l.075-.076c2.355-.458 2.584-1.064 2.584-1.064s1.442.837 2.658 1.064c1.292.227 3.266-.608 3.266-.608s.836.381 1.9.61c.985.226 2.809-.609 2.809-.609s1.519.61 2.582.61c.987 0 3.191-.609 3.191-.609s2.354.986 3.114.986c.836 0 3.19-.76 3.19-.76s2.28 1.065 2.887 1.065c.605 0 2.202-1.065 2.202-1.065s1.063 1.291 2.278 1.064c1.216-.152 3.114-.987 3.114-.987s1.14.685 2.355.912c1.29.228 2.203-.912 2.203-.912s.683.685 1.67.912c1.064.228 2.583-.988 2.583-.988s.606.912 2.05 1.064c1.445.228 2.889-.986 2.889-.986s.984 1.138 2.125.986c.836-.076 1.897-1.064 1.897-1.064s1.9.607 2.583.836" fill="#006ac8" stroke="none"/><path d="M346.722 288.308c-1.139.078-1.292-.684-1.292-.684s-1.516 1.294-2.961 1.065c-1.519-.226-2.203-1.215-2.203-1.215s-1.596 1.292-2.66 1.063c-1.062-.152-1.821-.912-1.821-.912s-.986 1.141-2.28.913c-1.29-.152-2.431-.912-2.431-.912s-2.05.838-3.343 1.064c-1.292.23-2.354-1.215-2.354-1.215s-2.963.988-3.57.988c-.684 0-2.812-.989-2.812-.989s-1.442.912-2.277.912c-.912 0-3.343-1.064-3.343-1.064s-2.28.608-3.344.608-2.658-.608-2.658-.608-1.976.836-3.04.61c-1.063-.23-1.899-.61-1.899-.61s-2.126.836-3.417.61c-1.291-.23-2.811-1.064-2.811-1.064s-.228.53-2.733 1.064h-.078" fill="none" stroke-width=".38"/><g fill="#006ac8" stroke-width=".455"><path d="M299.547 291.407s-.212.496-2.193.933a8.826 8.826 0 0 0-.538.118c.183-.034.332-.06.491-.094a9.206 9.206 0 0 1-.56.186c2.24 3.236 5.596 6.174 9.092 8.53 3.498 2.356 7.517 5.168 14.359 7.175 7.194-2.809 9.113-3.877 13.816-7.026 4.701-3.435 7.152-5.574 9.774-9.097-2.054 1.166-1.758 1.18-2.822 1.026-1.064-.225-1.845-1.003-1.845-1.003s-.97 1.158-2.263 1.004c-1.292-.225-2.426-1.003-2.426-1.003s-1.688 1.147-3.36 1.073c-1.292-.077-2.358-1.214-2.358-1.214s-2.964.98-3.57.98c-.685 0-2.8-.98-2.8-.98s-1.452.91-2.286.91c-.912 0-3.338-1.074-3.338-1.074s-2.273.608-3.336.608c-1.064 0-2.66-.606-2.66-.606s-1.895.834-3.034.606a10.614 10.614 0 0 1-1.914-.606s-2.117.834-3.406.607c-1.292-.226-2.823-1.05-2.823-1.05z"/><path d="M320.2 308.26c7.432-3.094 8.773-3.936 13.269-6.683-.784.02-3.064-.716-2.24-.95 0 0-.913.823-1.824.823-.836 0-3.267-1.06-3.267-1.06s-2.277.604-3.341.604-2.66-.604-2.66-.604-1.975.833-3.038.604c-1.064-.225-1.9-.604-1.9-.604s-2.202.833-3.417.604c-1.292-.225-2.812-1.062-2.812-1.062s-1.87.992-3.043 1.105c3.591 2.63 7.37 5.198 14.273 7.222z"/></g></g><g stroke-width=".509"><path d="M289.394 216.375c-.528-.013-1.159.296-2.13 1.177-1.534 1.384-2.086 2.812-.074 4.536l9.972 9.068c1.456 1.416 3.492 1.675 4.346 2.409l10.135 10.365c1.278 1.104 1.889 1.885 1.167 2.828-.8 1.55.056 1.76.24 1.808 1.387.312.633-.557.812-1.006-.017-.158.045-.314.057-.49.024-.35 1.098-1.4 2.055-1.773.479-.187.64.012.76.268.437.176.9-.479.256-1.169-.555-.772-1.421.482-2.399.187 0 0-1.474-.913-1.877-1.568-.861-.957-1.97-1.816-2.608-2.637-.675-.762-3.216-4.124-7.085-7.992-1.112-.727-.86-3.474-1.656-4.326-.067-.595-7.736-8.184-10.472-10.93-.552-.407-.973-.742-1.5-.755z" fill="#d67c59" stroke-width=".38"/><path d="M289.878 220.458l10.422 10.298" fill="none" stroke-width=".374"/><path d="M303.99 225.162c.161-.31.513-1.1.886-1.961.147-.341 2.951-4.812 4.349-4.943 0 0 8.718 6.343 8.725 6.426.03.342-3.782 6.043-4.114 5.61 0 0-10.214-4.288-9.846-5.132z" fill="#e8e8e6" stroke-width=".426"/><path d="M309.545 226.656c-1.195-.928-3.167-1.832-4.76-2.894l-.717 1.493c.576.645 7.831 4.017 9.022 4.667 0 0-1.38-1.584-3.546-3.267z" fill="#ccb8c8" stroke="none"/><path d="M304.78 223.571c.934.654 2.707 1.774 3.827 2.427 2.147 1.493 3.506 3.139 5.04 4.013" fill="none" stroke-width=".298"/><g stroke-width=".38"><path d="M287.115 250.743l19.851-24.568c.374-.341 2.214-.358 2.464 1.544l-18.802 25.623c.002 0-2.14-.212-3.512-2.6zm66.543.269c-.684.534-1.846.672-1.846.672-1.29-1.52-2.356-3.115-4.178-5.09l-19.828-24.387 2.05-1.974 17.851 20.892c.531.531 3.648 3.8 6.61 7.672.002 0 .26 1.517-.659 2.217z" fill="#d67c59"/><path d="M334.566 225.318l-3.192-3.798s-2.43.302-2.884 1.595c0 0-1.748 2.888-6.382 3.192 0 0 1.29 5.394 6.684 8.28 0 0 1.976-5.547 3.874-6.534 0 0 1.974-1.444 1.9-2.733z" fill="#e8e8e6"/><path d="M326.592 242.186c-.456-.153-.911 0-1.596.381-.606.381-1.366.227-1.292-.534.077-.683 0-.606.836-1.138 1.218-.684 2.811-.761 3.8-.38l-1.748 1.672m21.646-21.58c-.152-.53-.303-1.06.228-1.744.53-.608.53-1.673-.762-1.141s-1.747 1.976-.682 4.179l1.213-1.295z" fill="#d67c59"/><path d="M326.136 242.642l22.486-22.337 5.544 5.926s-1.139-.457-1.596-.154c-.379.304.456 1.444.456 1.444s-1.064-.38-1.518-.076c-.532.302 0 1.595 0 1.595s-.912-.683-1.368-.38c-.38.305 0 1.746 0 1.746s-1.215-.378-1.518-.076c-.304.304 0 1.596 0 1.596s-1.216-.608-1.823 0c-.606.607.303 1.444.303 1.444s-1.519-.608-2.127.303c-.607.912.076 1.747.076 1.747s-1.214-.606-1.518-.305c-.304.305 0 1.747 0 1.747s-1.063-.608-1.747.155c-.684.836.076 1.52.076 1.52s-.985-.61-1.52-.307c-.532.306.152 1.747.152 1.747s-.985-.684-1.67 0c-.684.761 0 1.518 0 1.518s-.837-.76-1.671 0c-.762.837 0 1.673 0 1.673s-1.215-.608-1.67 0c-.532.605.151 1.444.151 1.444s-.912-.532-1.518-.232c-.605.307 0 1.674 0 1.674s-.911-.988-1.29-.455c-.456.53.076 1.823.076 1.823s-.836-.988-1.292-.455c-.532.456.303 1.595.303 1.595s-1.519-.683-1.139-.683z" fill="#e8e8e6"/></g><path d="M347.327 222.13l-1.747 1.748.38 6.003s.38-1.747.91-.534c0 0 .152-1.442.532-1.213-.306-.155-.076-6.004-.075-6.004m-3.264 3.264l-1.291 1.214.456 6.003s.38-2.279.91-.456c0 0-.076-1.518-.076-2.051.002.38.002-4.71.002-4.71m-13.597 13.455l-1.216 1.29.305 3.647s.38-2.354.911-.532c0 0-.152-1.516-.152-2.05 0 .38.152-2.357.152-2.357" fill="#4d4d4d" stroke="none"/><g fill="none" stroke="#4d4d4d" stroke-width=".684"><path d="M328.944 223.803c.836.836 3.191 3.873 3.191 3.873m-2.124-2.2c-.151.457-.453 1.746-1.137 2.431m1.51-2.133c-.076.304-.076 1.292-1.137 2.28m1.519-1.816c-.152.53-.228.91-.607 1.29m.838-.835c0 .379-.227.456-.303.684m-2.504-2.133c-.304.302-2.508 1.746-3.723 2.202m3.11-1.366c-.303.306-1.671 1.368-2.431 1.673m2.208-.762c-.456.307-1.216 1.064-1.823 1.292m1.367-.38c-.303.379-.76.683-1.139.911"/><path d="M313.712 228.738c.247-.457.68-1.356 1.244-2.177.717-1.043 1.026-1.22 1.4-1.587" stroke-linecap="square"/></g></g></g><g stroke-width=".38"><path d="M240.374 289.98c1.139.531 0-3.722.377-5.318.456-1.67 3.723 4.103 5.32 4.864 1.671.835 11.85-4.028 11.85-4.028l2.431-4.558 1.291 3.722s2.81-3.268 3.647-4.482c.836-1.214 0 2.432-.836 3.647-.837 1.217 2.43 1.672 2.05 4.103-.38 2.432 3.266-1.672 3.266-1.672l9.419.837s1.593-5.7 4.1-8.966l.76 3.649 3.874-3.95c4.331 11.398 13.448 23.782 32.134 30.542 17.546-6.381 26.587-17.704 31.296-28.493l5.24 5.398s4.104-1.218 4.863-1.672c.835-.38 9.647 3.116 9.647 3.116s1.595.607 2.432 1.217c.834.606.226-2.66.226-2.66s4.482.834 4.101 3.266c0 0 .99-2.279 1.824-2.658.837-.38 2.81 2.051 3.268 2.886.38.761 10.028 1.976 11.394 2.81 0 0 1.064 1.218 1.064 2.054 0 0 2.051-.23 3.648-.23 0 0-1.216.605-1.216 1.9 0 1.216-.608 2.205-1.824 2.81-1.215.608 0 1.062 1.596 1.217 1.672.226 0 2.277-3.266 3.496 0 0-.76 1.822.608 2.428 0 0-2.813.23-3.268-.606 0 0-.985 1.898-.985 2.887 0 0-3.04-.99-3.875-1.444 0 0-1.216 1.214-.381 1.822 0 0-5.544-.607-6.608-2.658 0 0-1.976.606-1.596 1.291 0 0-3.874-2.657-5.088-2.657l-.837 1.364s-2.658-1.595-3.494-1.595c-.762 0-.152 1.215-.152 1.215l-3.721-2.28-1.443 2.28s-3.039-1.444-3.873-2.05c-.762-.608-.986 1.214-1.595 1.44 0 0-1.216-1.668-2.888-1.44 0 0-.606 2.049-.379 2.658 0 0-4.71-.987-5.544-1.217-.837-.227-.38.988 0 1.825 0 0-3.494-.988-4.255-1.598l-.228 1.598s-2.884-.23-3.492-.836l-1.824 2.504h-2.658l-.607 2.203s-5.088-1.44-5.545-.606c-.38.834.228 2.049.228 2.049l-4.482-.606-.378 1.821s-5.168-1.595-6.382-.836c0 0-1.595 1.672-2.66 2.052-.985.456 0-.608 0-.608l-1.594-2.202s-1.822.988-2.888.608c-.984-.459-4.252 1.593-5.317.985 0 0 0-1.444-.834-1.824-.761-.38-2.202-.38-2.813.608 0 0-.604-.836-1.668-2.43-.988-1.673-2.432.151-2.432.151l-.228-1.976-2.812-.23c-1.67-.227-2.05-1.671-2.05-1.671s-4.329.455-4.937.23l1.063-.99s-5.924 1.218-7.139.762c-1.291-.38 1.367-2.052 1.367-2.052s-5.47-1.364-6.533-1.594c-.986-.228-6.914.984-7.75.984-.836 0-1.215-1.368-1.215-1.368s-1.445 1.217-2.66 1.598c0 0-.986-2.43-.378-2.66 0 0-3.874 1.065-4.103 2.054 0 0-.985-1.596-.836-2.28 0 0-1.821 2.888-2.658 3.495-.836.608-.152-1.444-.152-1.444s-2.278 2.886-3.114 3.115v-2.052s-6.533 3.494-8.356 3.04c0 0 0-1.446.607-1.824l-4.102-.228c-.986-.15-2.202-.605-3.266-.835-.985-.153 1.444-1.215 3.116-.76 0 0-4.558-1.671-5.927-.836 0 0-.608-1.67 1.822-2.28 0 0-3.115-3.037-4.939-2.81 0 0 2.054-1.215 3.724-.609 0 0-1.899-5.164-3.115-5.772 0 0 4.33-.76 5.546-.15z" fill="#358b03" stroke="#060"/><g stroke="#000"><path d="M234.064 200.858l55.302-28.643c.264-1.48-.576-2.643-1.444-3.8-15.814 7.756-30.207 17.168-47.78 22.87-.988.381-9.724 4.026-14.206 9.422-1.422 1.425-1.526 3.528-1.526 3.528s.11 2.411.616 3.063c0 0 .132.663.958 1.192-.009 0 .51.254.87.125.401.075 1.055.07 1.967-1.527.913-1.52 3.876-5.014 5.242-6.232z" fill="#d67c59"/><path d="M278.58 172.522l7.14-3.42s2.432 1.823 2.202 3.875c0 0 .533 4.71 6.384 7.976 0 0-4.94 6.153-13.597 6.686 0 0 .993-8.121-.829-10.477 0 0-.304.29-.172-.112.258-.79-.176-3.5-1.284-4.097-.136-.075.087-.296.157-.432z" fill="#e8e8e6"/></g></g><path d="M286.935 173.507c-1.518.608-6.456 3.19-6.456 3.19m4.104-1.674c-.077.76-.532 2.583 0 3.875m-.686-3.644c0 .38-.607 1.748.077 3.572m-.832-3.19c-.152.76-.302 1.216 0 2.052m-.612-1.598c-.152.456 0 .685 0 .986m4.48-1.217c.228.607 2.279 3.798 3.495 5.09m-3.188-3.648c.229.607 1.368 2.81 2.202 3.648m-2.352-2.357c.303.76.911 2.128 1.519 2.887m-1.519-1.364c.152.608.456 1.368.911 1.902" fill="none" stroke="#4d4b4d" stroke-width=".608"/><g stroke="#000" stroke-width=".509"><path d="M336.703 159.138c-1.011.122-1.922.812-2.948 2.56-1.792 3.427-1.356 5.296 4.058 7.643h.002l20.312 9.948c4.072 1.979 5.537.147 7.834 1.146l40.091 20.422c3.44 1.504 5.365 1.984 4.87 3.763-.068 2.294.743 2.608 1.3 2.717.864.361 1.533.565 1.716-.433.132-.198-.11-.52-.365-.94-.256-.422-.527-.942-.461-1.537.066-.594.114-.873.312-1.187.198-.314.546-.66 1.206-1.386.33-.363.642-.523.938-.552.296-.028.578.072.846.23.37.215.692.466 1.024.7 1.336-.108.145-2.005-.782-2.726-2.017-.946-2.247 1.2-4.372.973 0 0-3.798-1.442-5.166-2.43-2.52-1.37-6.037-2.998-6.836-3.89-2.56-.48-21.828-11.318-32.743-16.758-1.171-.98-1.809-4.604-4.11-5.818-.675-.977-15.451-7.725-23.179-11.588-1.424-.532-2.536-.978-3.547-.857z" fill="#d67c59" stroke-width=".38"/><g fill="#ffa54b" transform="translate(40.47038 54.01166) scale(.74667)"><path d="M309.734 165.117c-.203.61-.712.203-.712.408-.405 2.135-.305 3.253-.813 4.475-.712 1.424-3.256 2.748-3.154 2.645-2.033.61-4.474 3.054-8.44.814-.205-.1-.407-.306-.61-.508 0 0 1.116 4.17-2.95 6.204-1.425.713-15.77 8.244-15.77 8.244s-1.527 2.748-.51 6.512c.103.61.305 1.118-.305 1.526-.916.71-2.646 2.748-3.662 6.004 0 0-3.053-1.324-3.053-3.256 0-1.934 1.22-2.95 1.526-4.378.304-1.32 1.117-4.68.712-5.698-.406-1.12-2.238-1.526-2.95-1.933-.61-.41-1.425.405-1.322 1.32.103 1.02.813.813 1.628 1.02 0 0-.916 1.93-.813 3.355l-9.257 4.783s1.22 1.626 1.627 2.34c.405.712 1.32 10.175 4.07 14.653 2.746 4.478 3.662 3.257 4.272 3.867.508.508 1.32 1.32 2.034 1.934.712.51 3.865.812 4.477-.915.712-1.63 1.22-2.647 3.154-4.174 1.933-1.523 5.9-5.39 5.9-7.122 0 0 2.34 6.716 2.033 12.313 0 0 8.546 1.732 16.177 1.933 7.632.105 11.497-1.524 11.497-1.524s1.018-6.41.608-7.632c0 0 1.22 4.172 2.137 5.596 1.018 1.727 2.135 5.288 4.373 5.493 2.137.1 3.97-2.135 4.17-3.05v-6.717h8.648c0-.1 3.867 1.424 5.087 1.22 1.22-.102 1.933-1.22.813-1.628l-.405-.303c1.117 0 2.543.71 2.543.71h4.27c.104-.102 0-.41-.102-.51-.305-1.22-2.544-2.24-4.17-2.95-1.63-.608-3.46-1.323-4.68-1.423-1.933-.206-3.257-.1-6.207.408-.814.1-3.866.405-5.8 1.32-.51.307-1.02.407-.813-.915.306-1.426.204-7.835-1.32-10.583-1.12-1.932-1.018-3.562-.814-5.188.104-1.63.204-7.226 0-8.855-.306-1.627-2.544-3.867-6.61-4.375-3.867-.51-7.124-3.664-7.326-6.207-.305-2.542.408-7.223.814-9.257" fill="#ad7c59" fill-opacity=".99"/><g fill="none"><path d="M292.444 153.627c-.712 3.253-.712 6.104-.61 9.257.103 2.135 1.12 4.577 2.035 6.715.61 1.426 1.425 3.052 2.746 3.867 3.563 2.34 6.92-.204 8.853-1.018.916-.308 2.34-1.626 2.747-2.442.508-1.22.303-2.135.812-4.475-.103.1.813-.408.712-.408.916-1.526.712-2.034 1.22-3.054.51-1.018-.608-2.136-1.83-1.93.608-1.934 1.018-4.073.404-5.905-.202-.608.51-2.235-.608-1.832-4.58 1.832-9.97 1.426-14.854 1.426-.406 0-.712-.815-1.32-.71-.104 0-.205.303-.308.505" fill="#b68a6a"/><path d="M292.034 155.347c-.508-.406-.61-1.32 0-3.256.712-1.928 0-2.033 1.12-3.152 1.12-1.12.813-1.63 1.525-1.932.71-.206 2.848-.206 3.56-.508.61-.308 1.526-.714 2.948-.916 1.526-.308 4.58-.206 6.003.608 1.527.812 2.545 2.85 3.46 3.56 1.02.71 1.63 3.662 1.427 7.94-.307 4.27-1.12 3.457-1.12 3.457s-1.222-2.034-2.238-.308c0 0 0-1.627.203-2.85.102-1.218-.61-3.457.102-4.984 0 0-5.8 1.832-8.75 1.73-3.052-.203-7.323-.917-7.527-1.627l-.714 2.237" fill="#000001"/><path d="M294.984 151.797c-.305-.61-1.832-2.85-.61-3.56 1.12-.613.407 2.744 1.936 3.457 0 0-.51 1.526-1.32.102z" fill="#fff" stroke="#fff"/><path d="M298.344 160.137c-.508 1.732-.712 2.138-.916 3.156m10.586 1.624c.204.61.404.303.914.405m.406-3.965c.51-.61 1.22-.303.813 1.223"/><path d="M292.444 157.697c.916.303 1.832.608 2.748 1.02 1.526.61.61 2.845.204 4.27-.204.715-1.02 1.934-.61 2.547.51.81 1.12.303 2.036.403 0-.303.61-.508.813-.508.712-.1 1.12.507 1.627.307.61-.308.51-1.224.306-1.73m-.104-4.479c.102-.403 1.018-.81 1.526-.915 2.136-.405 3.66-.712 5.393.51m-5.699 11.085c-1.73.408-3.56.71-5.188-.206m-.002-.804c.813-.408 1.12-.816 2.137-.308 0-.102 1.12-.406 1.12-.406.813 0 1.323.304 2.137.812m-5.494.302c.916-.306 3.358-.306 5.394.102"/><g stroke-width=".305"><path d="M292.344 160.137c.713-.1 1.526-.916 3.154.306 1.12.712-1.832 1.426-1.322 1.324-1.32.202-1.73-.508-1.828-1.122 0-.202-.204-.508 0-.508zm8.34.81c.712-1.426 1.832-1.12 2.85-.816 1.018.307.712.106 1.628.614-1.12.203-.814.303-1.63.71-.915.408-1.728.61-2.34.206-.204-.206-.712-.508-.712-.916 0 .1.102.203.204.203z" fill="#fff" stroke-linecap="round" stroke-linejoin="round" stroke-width=".304"/><path d="M293.764 161.357c.406 0 .712-.406.712-.814 0-.508-.306-.916-.712-.916-.507 0-.812.408-.812.916 0 .408.303.814.812.814zm8.65.2c.405 0 .712-.403.712-.916 0-.507-.407-.81-.813-.81-.405 0-.712.303-.712.81 0 .515.408.917.814.917z" fill="#000001"/></g></g><g id="flag-bz-a"><g fill="none"><path d="M345.854 213.657c-.608-.714-1.018-1.02-1.83-1.324-.61-.303-1.424-.71-2.036-1.016-.712-.408-1.73-.508-2.34-.916m.406 2.646c-.306-.203-.508-.304-.812-.51-.306-.1-.712-.1-1.02-.203-.102 0-.102-.204-.203-.204-.916-.102-1.832-.51-2.44-1.32m-62.775-9.363c.914.71 3.152 2.24 3.356 5.19.204 1.525 1.02 3.05 1.02 3.05m-13.126-7.83c.51 1.727.61 7.425 6.003 13.43m-4.983-21.37c-.408 1.12-.916 2.137.202 2.95m14.448 10.69c1.12-2.545 4.578-2.342 4.578-4.782"/><path d="M284.814 207.247c-.306-2.85-.916-4.475-.405-8.647.202-1.223.404-5.9 0-8.14 0 0 1.628 7.832-3.663 9.362m34.388 12.515c0-3.97.916-6.21.916-6.21 1.22-5.592-1.12-7.73-.203-9.154.812-1.22 2.035-3.766.407-8.854 0 0 2.847 10.483-4.478 10.483-7.425 0-7.12-2.748-7.12-2.748"/><path d="M284.404 190.457c0 2.135 0 8.447 9.055 8.447 2.745 0 5.697-1.933 7.323-3.256m2.242-2.751c-.306-1.934-.306-4.375-.306-6.92m-13.634-3.45c2.44-.308 4.376-.61 8.955-.61m.305-6.32c.51 2.24-.304 5.8 3.866 6.31m4.374-7.12c-.61 1.63-.61 3.256-.814 4.375m.204 2.755c1.73 0 4.985-1.12 9.054-.306m1.426 22.786c.813 1.63 1.018 3.765 3.56 6.207m-31.74-11.397c.204 1.324-1.73 5.698-.306 9.262 1.322 3.558 1.12 7.63-1.12 11.088m6.616-19.02c-.813 1.626-2.238 3.256-2.544 4.68m6.604-1.63c0 1.018-2.744 8.75-4.68 10.886 0 0 3.56 1.424 3.05 6.614m7.33-21.06c0 1.324-.204 1.63.916 2.44m2.444 0c1.32 1.628 5.492 6.514 4.576 9.26m-7.326-6.51c.306 1.018.306 6.31-.61 8.955m-2.13-.205c-1.12 0-2.746.814-3.052 2.747m8.742-3.057c1.118-.306 3.355 1.626 3.355 7.123m15.675-10.273c-2.136.61-3.052 1.732-2.44 1.12-1.12.915-2.138 1.525-2.138 1.525"/></g><path d="M289.794 197.987c.608 0 1.118-.408 1.118-.916 0-.41-.507-.815-1.118-.815-.51 0-1.02.405-1.02.816 0 .506.508.917 1.02.917zm23.1.31c.51 0 1.02-.405 1.02-.916 0-.504-.508-.81-1.02-.81-.607 0-1.118.306-1.118.81 0 .512.51.917 1.118.917z" fill="#000001" stroke-width=".305"/><path d="M280.544 239.807c1.22-7.937 4.985-14.55 5.086-15.162 0 0 3.865.816 10.58 1.424 6.612.71 8.444.407 11.496.2 2.95-.302 6.815-.81 6.815-.81s1.222 2.44 1.323 4.883c.305 5.188 2.236 27.677 2.44 33.68 0 0 .813 3.56.813 12.31 0 9.568 2.645 29 2.645 39.382l-2.644.51s-14.446 1.12-14.446-.814c0-2.134-.813-27.065 1.322-42.125 0 0-.508-2.95-1.322-5.496-.813-2.443-4.375-10.074-4.375-11.7 0 0-5.695 16.073-6 18.825-.305 2.543-1.12 38.357-1.63 41.312 0 0-8.24 6.308-9.36 6.92-1.117.51-9.053-3.36-9.257-4.375-.306-1.118.814-13.23 4.578-33.176 1.425-7.123.61-8.44.61-10.375 0-1.933.103-27.473 1.322-35.41z" fill="#e8e8e6"/><path d="M294.274 274.917c-.61 2.24-1.628 4.375-3.56 5.803m-2.75-53.633c-.304 1.322-2.238 7.325-7.122 10.887m14.242-9.767c-1.12 3.562-5.493 22.693-6.31 45.383m-.3 7.127c-.204 2.135-1.322 18.012-1.628 20.756m-.812 3.054c-.51 1.117-2.746 10.375-2.746 18.62m32.246-35.92c-.204 1.933-1.02 15.668 3.56 27.98m-18.51-85.98c-.305 2.237-.813 16.688-.813 17.806 0 1.117 1.63 2.747 2.442 3.054 0 0-1.628.51-1.933 6.003m-4.076-12.923c-.308 1.727-1.934 8.547-3.054 11.295m13.124-25.435s4.884 1.018 5.188 0c0 0 1.628 29.512 3.866 45.89m-11.184-42.13c0 1.934-.61 16.485-.61 16.485m2.44 2.135s1.93 2.745 1.425 4.066m-17.805-28.076c1.63.508 3.053.812 3.053.812m5.187 1.628c-.307.814-.61 4.58-.61 4.58m8.75 38.87c.61.814 1.425 1.936.814 4.377" fill="none"/><path d="M284.914 224.447s0-3.256 1.22-4.886c0 0 3.457.715 8.342 1.223 4.984.508 8.95.916 12.615.508 3.664-.405 7.43-1.32 7.43-1.32s1.016 4.783.505 5.495c0 0-3.968.814-8.34 1.016-4.478.304-11.903-.407-14.446-.81-3.36-.41-6.31-1.02-7.326-1.223z" fill="#d67c59"/><path d="M288.064 224.847l.608-4.883 1.02.1-.204 5.088zm22.08-4.07l.103 5.496 1.22-.206-.1-5.597zm-15.67 0l-.406 5.29h.713l.713-5.29z" fill="#fff"/><path d="M276.774 320.807c-.305 1.322-.812 3.154-1.018 5.496 0 .508-.507 3.256 1.018 3.356 1.12.102 1.425-2.85 1.425-2.85s-1.02 3.256.304 3.664c1.832.403 2.034-3.562 2.034-3.562-.204 1.12-1.425 3.97.306 4.27 1.83.308 2.34-3.866 2.34-3.866s-1.526 4.174.304 4.275c1.73.1 1.73-4.07 1.73-4.07s-.917 4.987 1.525 4.58c1.32-.204 1.628-1.935 1.933-2.952.406-1.524 1.322-3.457.204-6.612-.812-2.34-.507-2.95-.507-2.95s-2.85 2.137-5.087 3.56c-1.02.61-6.514-2.34-6.514-2.34zm29.71-4.38c-.508-.307-.406 1.832-.61 2.846-.102 1.02.205 3.257 3.664 3.055 3.355-.307 6.715-1.018 8.85-.51 2.138.61 5.29.712 7.022.712 1.73 0 2.85-.202 3.66-.51.714-.302 2.24.41 2.95.41.714 0 1.832-1.12 1.73-1.833-.102-1.324-1.32-1.324-3.053-1.424-1.628-.203-3.865-.51-4.983-.916-1.12-.408-3.154-1.527-5.698-2.035 0 0-4.883.205-5.898.205-1.02 0-7.022.303-7.634 0z" fill="#653024"/></g><g fill="#ad7c59" stroke-linecap="round"><path d="M255.714 189.847c-.507.306-1.12-2.035.406-2.95 0 0 .406-1.932 2.035-2.137 0 0 1.32-1.832 3.257-1.626 0 0 2.235-1.525 3.05-1.324.813.102 2.85 2.136 2.95 2.85.205.71 0 1.933-.51 2.442-.61.608-1.018-.102-1.12-.916 0 0 .408 1.524-.812 2.135-1.22.715-1.12.207-1.22-.61 0 0-.307 1.63-1.12 1.833-.813.305-1.32-.408-1.934-.408 0 0 1.02.816.307 1.426-.713.51-1.526.304-2.036-.1-.51-.51-1.12-1.833-3.257-.61z" stroke-linejoin="round"/><path d="M265.684 186.087c-.51-1.63-2.137-3.054-4.07-2.848m2.24 4.368c-.306-.408-.408-.816-.712-1.22-.916-1.528-2.85-1.424-4.477-1.832m2.439 4.582c-.61-.406-.813-1.222-1.425-1.524-1.02-.408-2.035-.916-3.256-.714"/></g></g><g transform="translate(40.4735 54.00917) scale(.74667)"><path d="M439.14 165.12c.712-.306.51.61.61.916.306 1.32.306 2.748.813 3.967.608 1.12.812 1.526 1.83 2.035 1.627.916 6.407 3.562 9.767 1.424.204-.1.508-.306.712-.508 0 0-1.22 4.172 2.95 6.207 1.32.71 15.668 8.242 15.668 8.242s1.525 2.748.61 6.512c-.205.61-.406 1.118.203 1.526 1.02.71 2.644 2.748 3.766 6.004 0 0 2.946-1.324 2.946-3.256 0-1.934-1.22-2.95-1.525-4.375-.2-1.324-1.016-4.682-.607-5.698.405-1.118 2.135-1.526 2.847-1.936.714-.41 1.526.405 1.322 1.32-.102 1.02-.812.817-1.628 1.02 0 0 1.02 1.93.814 3.355l9.358 4.783s-1.22 1.63-1.628 2.34c-.51.715-1.425 10.175-4.17 14.653-2.75 4.478-3.664 3.257-4.172 3.867-.61.508-1.424 1.324-2.137 1.934-.61.51-3.765.815-4.477-.915-.712-1.628-1.22-2.647-3.153-4.174-1.934-1.523-5.9-5.39-5.9-7.122 0 0-2.34 6.72-2.035 12.313 0 0-8.443 1.732-16.176 1.937-7.632.102-11.498-1.528-11.498-1.528s-1.018-6.41-.61-7.632c0 0-1.22 4.172-2.033 5.596-1.12 1.727-2.237 5.29-4.376 5.493-2.236.104-3.968-2.135-4.27-3.05v-6.717h-8.647c0-.1-3.766 1.424-5.087 1.223-1.22-.105-1.832-1.223-.813-1.63l.407-.304c-1.12 0-2.544.71-2.544.71h-4.272c0-.102.103-.41.103-.51.308-1.218 2.546-2.24 4.273-2.95 1.628-.608 3.356-1.323 4.578-1.423 1.934-.203 3.257-.1 6.207.408.812.1 3.967.408 5.798 1.322.508.304 1.118.405.813-.915-.305-1.426-1.22-5.598.307-8.346 1.018-1.933.916-3.56.813-5.19-.204-1.728-1.118-5.597-1.118-7.324 0-5.7 4.375-8.04 8.24-9.262 4.272-1.32 7.12-2.748 6.92-5.288-.104-2.646.608-7.02.202-9.058" fill="#653024"/><g fill="none"><path d="M456.34 153.63c.916 3.356 1.12 4.17 1.12 5.29 0 1.22-.51 1.425-.104 2.75.713 2.44-.712 5.087-2.44 7.936-.814 1.32-1.425 3.052-2.747 3.866-3.357 2.135-7.428-.408-9.564-1.327-1.117-.505-1.73-1.32-2.033-2.135-.407-1.22-.51-2.34-.813-3.967 0-.306.103-1.22-.61-.916-1.22-1.424-1.017-2.034-1.523-3.05-.51-1.022.916-2.14 2.034-1.935-.61-1.933-.915-4.072-.305-5.904.204-.608-.508-2.235.51-1.832 4.577 1.832 9.97 1.426 14.854 1.426.403 0 .71-.812 1.32-.71.097 0 .2.305.3.508" fill="#653024"/><path d="M456.75 155.35c.508-.406.204-2.34-.306-4.375-.203-1.017-1.018-1.424-2.136-2.542-1.12-1.122-1.525-1.122-2.236-1.424-.61-.207-2.034-.207-2.746-.51-.61-.307-2.238-.104-3.766.102-2.036.304-3.153.202-4.68 1.018-1.525.814-2.745 1.73-3.255 3.256-.406 1.118-1.12 2.542-.814 6.817.205 4.272 1.02 3.458 1.02 3.458s1.12-1.627 1.832-.61c0 0-.103-2.24-.305-3.56-.103-1.222 0-2.748.51-4.58 0 0 4.678 1.732 9.053 1.732 3.053 0 7.02-.306 7.123-1.017l.71 2.235z" fill="#000001"/><path d="M450.44 160.14c.61 1.732.104 1.222.408 2.34m-10.278 2.03c0 .812-.61.61-1.02.61"/><path d="M456.85 158.82c-.916-.713-2.645-.204-3.46.102-1.525.71-.712 2.24-.204 3.664.204.71 1.02 1.727.51 2.44-.406.813-.712.41-1.628.51.104-.307-.812 0-1.117 0-.61-.1-.915.404-1.425.203-.608-.305-.508-1.22-.306-1.73m.1-4.479c0-.403-1.32-.81-2.745-.915-2.238-.102-2.442.104-4.172 1.322m11.497 8.953c-.405-.608-1.018-.916-2.137-.405 0-.204-1.524-.406-1.524-.406-.813 0-1.322.302-2.137.71m5.588.611c-.916-.61-3.256-.2-5.596-.2m.206.81c1.73.512 3.46.816 5.188 0"/><g stroke-width=".305"><path d="M456.44 160.14c-.712-.1-1.018-.916-3.153.306-1.12.61 1.832 1.426 1.425 1.324 1.22.202 1.628-.508 1.73-1.122-.002-.203.202-.508-.002-.508zm-8.34.81c0-.816-1.83-1.12-2.847-.816-1.02.306-.61.105-1.526.613 1.02.203.712.303 1.526.71.914.408 1.12.814 2.34.206.305-.105.71-.508.812-.916-.1.1-.202.203-.305.203z" fill="#fff" stroke-linecap="round" stroke-linejoin="round"/><path d="M455.12 161.36a.802.802 0 0 1-.813-.814c0-.508.307-.916.813-.916.405 0 .712.408.712.916 0 .408-.307.814-.712.814zm-8.75.2c-.406 0-.712-.403-.712-.916 0-.508.403-.81.812-.81.41 0 .712.302.712.81 0 .514-.303.916-.812.916z" fill="#000001"/></g></g><use fill="#d67c59" transform="matrix(-1 0 0 1 748.816 0)" xlink:href="#flag-bz-a"/><g fill="#653024"><path d="M491.64 193.51c.508.206 1.934-2.033.508-3.05 0 0-.508-1.933-2.136-2.035 0 0-1.322-1.933-3.257-1.63 0 0-2.136-1.524-2.948-1.42-.916.2-2.95 2.236-3.053 2.95-.102.608 0 1.83.508 2.44.61.51 1.02-.104 1.12-1.02 0 0-.406 1.53.812 2.24 1.22.71 1.12.1 1.22-.71 0 0 .307 1.626 1.12 1.932.813.303 1.322-.408 1.935-.408 0 0-1.02.814-.306 1.323.713.61 1.525.303 2.035-.104.61-.405.305-1.728 2.44-.51z" stroke-linecap="round"/><path d="M482.49 189.75c.506-1.73 2.235-3.153 4.067-2.85m-2.137 4.38c.203-.41.305-.816.61-1.224.915-1.524 2.948-1.524 4.576-1.832m-2.546 4.476c.61-.408.814-1.118 1.426-1.42 1.018-.513 2.136-.917 3.256-.715" stroke-linecap="round" stroke-linejoin="round"/><path d="M482.31 186.77c-.896.716-1.837 1.798-1.906 2.28-.103.61-.008 1.828.5 2.44.55.46.95-.018 1.095-.782-.06.463-.072 1.465.843 2 1.22.71 1.118.095 1.22-.72 0 0 .31 1.636 1.124 1.94.813.305 1.325-.407 1.938-.407 0 0-1.026.805-.312 1.313.712.61 1.522.31 2.03-.094.61-.41.3-1.723 2.44-.5.266.105.803-.453 1.03-1.157l-7.688-5.53z" stroke="none"/><path d="M480.68 188.19c-1.502 2.582.5 4.132 1.164 2.62-.193 2.385 1.606 2.29 2.285 1.537.657 2.512 1.83 1.395 2.908 1.164-1.223 2.29 1.48 1.61 2.12 1.082.924-1.362 1.356-.277 2.036-.416l1.164-1.247m-7.977-5.7c-1.686.896-2.512 2.137-2.535 3.7m4.865-2.2c-1.687.896-2.512 2.137-2.535 3.7m5.405-1.75c-1.687.897-1.765 1.722-2.493 2.826"/></g></g></g><g fill="#ffe682"><path d="M320.058 335.49c17.093.154 27.197-6.077 32.742-9.8 12.99-8.736 15.725-9.04 17.853-8.89 2.431.231 5.998 1.065 6.153 3.193.228 3.267-5.09 4.71-8.13 4.71-3.114 0-11.243-2.052-11.243-2.052l-2.128 1.445c1.443.685 18.08 6.229 21.27.988 3.265-5.318 6.534-13.905 6.534-13.905s-3.647-6.533-11.776-6.533c-8.205 0-16.181 5.167-21.497 9.038-5.32 3.875-12.003 9.194-29.78 9.194-17.776 0-24.537-5.319-29.853-9.194-5.316-3.874-13.294-9.04-21.422-9.04-8.203 0-11.85 6.534-11.85 6.534s3.266 8.587 6.532 13.906c3.19 5.24 19.828-.305 21.27-.989l-2.051-1.445s-8.204 2.05-11.244 2.05c-3.115 0-8.432-1.442-8.204-4.708.152-2.128 3.721-2.964 6.152-3.192 2.128-.15 4.864.154 17.852 8.89 5.548 3.722 15.652 9.724 32.82 9.8"/><path d="M292.558 315.352s0-1.446-.23-3.571c-.303-2.735-1.898-3.42-3.188-3.038-.837.3-2.506 2.355-2.506 2.355v.076a24.165 24.165 0 0 0-2.356-1.443c.608-.685 4.102-2.811 4.937-2.811.762 0 11.243 4.254 14.584 7.14.837.762 1.445 5.472.987 6.989-5.62-1.443-9.266-3.57-12.23-5.622v-.076m-5.016 10.642s-2.28 2.277-2.354 6.457c-.076 4.938 3.495 5.168 5.85 5.09 2.811-.077 5.088-1.67 5.014-6.913 0 0-4.636-1.977-8.51-4.635m59.944-10.64s.076-1.446.304-3.571c.3-2.735 1.822-3.42 3.114-3.038.836.3 2.506 2.355 2.506 2.355v.076a24.052 24.052 0 0 1 2.353-1.443c-.606-.685-4.1-2.811-4.861-2.811-.834 0-11.317 4.254-14.66 7.14-.762.762-1.368 5.472-.987 6.989 5.697-1.443 9.266-3.57 12.231-5.622v-.076m5.01 10.642s2.28 2.277 2.355 6.457c.152 4.938-3.496 5.168-5.848 5.09-2.814-.077-5.015-1.67-5.015-6.913 0 0 4.635-1.977 8.51-4.635"/></g><path d="M282.605 322.648s-8.129 2.052-11.167 2.052c-3.114 0-8.432-1.442-8.204-4.71.153-2.128 3.723-2.962 6.154-3.19 1.822-.154 4.178.074 13.218 5.848m74.832 0s8.127 2.052 11.243 2.052c3.038 0 8.354-1.442 8.126-4.71-.15-2.128-3.72-2.962-6.152-3.19-1.824-.154-4.179.074-13.218 5.848m-64.879-7.22a72.002 72.002 0 0 1-2.432-1.822c-1.14-.838-2.28-1.598-3.495-2.432 0 0 1.67-2.128 2.506-2.356 1.292-.456 2.885.225 3.188 2.961.23 2.128.23 3.65.23 3.65m-5.545 21.428c1.446.837 3.04.761 4.028.685 2.812-.077 5.09-1.672 5.014-6.913 0 0 3.493 1.747 9.192 3.114 0 0 .91 1.14 1.062 3.418.23 1.901-1.064 3.95-2.581 3.8 0 0-7.978-1.444-12.838-2.277-2.812-.532-3.875-1.825-3.875-1.825m60.472-21.432c.834-.607 1.67-1.217 2.505-1.821 1.064-.838 2.202-1.598 3.417-2.432 0 0-1.67-2.128-2.505-2.356-1.291-.456-2.811.225-3.114 2.961a70.761 70.761 0 0 0-.305 3.65m5.542 21.428c-1.443.837-3.04.761-4.027.685-2.81-.077-5.013-1.672-5.013-6.913 0 0-3.494 1.747-9.118 3.114 0 0-.985 1.14-1.138 3.418-.151 1.901 1.14 3.95 2.584 3.8 0 0 8.051-1.444 12.838-2.277 2.81-.532 3.873-1.825 3.873-1.825" fill="#171696"/><g fill="none" stroke="#000" stroke-width=".531"><path d="M320.058 335.49c17.093.152 27.197-6.08 32.742-9.8 12.99-8.736 15.725-9.04 17.852-8.89 2.432.229 6.002 1.065 6.152 3.191.23 3.267-5.089 4.709-8.129 4.709-3.113 0-11.242-2.048-11.242-2.048l-2.127 1.444c1.444.684 18.078 6.23 21.268.986 3.268-5.318 6.533-13.904 6.533-13.904s-3.646-6.535-11.776-6.535c-8.203 0-16.18 5.168-21.497 9.042-5.317 3.876-12 9.193-29.778 9.193-17.776 0-24.536-5.319-29.852-9.192-5.318-3.875-13.296-9.043-21.422-9.043-8.204 0-11.85 6.536-11.85 6.536s3.265 8.584 6.532 13.903c3.19 5.241 19.828-.303 21.27-.986l-2.05-1.445s-8.206 2.048-11.242 2.048c-3.116 0-8.433-1.439-8.206-4.708.153-2.128 3.722-2.963 6.154-3.192 2.125-.151 4.86.154 17.85 8.889 5.548 3.724 15.65 9.726 32.818 9.802z"/><path d="M282.605 322.648s-8.13 2.052-11.166 2.052c-3.115 0-8.432-1.444-8.205-4.71.152-2.128 3.722-2.964 6.153-3.19 1.822-.154 4.178.074 13.218 5.848zm74.824 0s8.13 2.052 11.244 2.052c3.038 0 8.355-1.444 8.128-4.71-.152-2.128-3.72-2.964-6.151-3.19-1.824-.154-4.18.076-13.217 5.848zm-64.87-7.22a72.002 72.002 0 0 1-2.433-1.822c-1.137-.838-2.278-1.598-3.495-2.432 0 0 1.672-2.128 2.507-2.356 1.292-.456 2.886.225 3.188 2.964.232 2.124.232 3.646.232 3.646z"/><path d="M292.558 315.352s0-1.445-.23-3.571c-.302-2.735-1.898-3.42-3.188-3.038-.837.303-2.509 2.355-2.509 2.355v.076a24.797 24.797 0 0 0-2.354-1.443c.608-.685 4.101-2.811 4.938-2.811.762 0 11.243 4.254 14.585 7.142.836.762 1.444 5.47.987 6.99-5.622-1.447-9.268-3.573-12.233-5.622m-5.013 10.563s-2.278 2.277-2.355 6.457c-.076 4.936 3.495 5.166 5.85 5.09 2.811-.077 5.088-1.67 5.015-6.916 0 0-4.634-1.976-8.51-4.635z"/><path d="M289.445 327.128s-1.823 1.9-2.127 5.014c-.152 2.432 1.444 3.798 3.495 3.646 2.886-.15 4.027-4.1 2.658-6.304z"/><path d="M287.01 336.857c1.444.837 3.038.76 4.026.685 2.811-.078 5.088-1.672 5.016-6.915 0 0 3.494 1.747 9.192 3.115 0 0 .912 1.139 1.062 3.42.23 1.899-1.062 3.95-2.58 3.797 0 0-7.979-1.443-12.839-2.277-2.813-.534-3.877-1.824-3.877-1.824zm60.474-21.43c.836-.607 1.67-1.217 2.506-1.821 1.064-.838 2.203-1.598 3.42-2.432 0 0-1.67-2.128-2.508-2.356-1.29-.456-2.81.225-3.113 2.964a69.87 69.87 0 0 0-.304 3.646h0z"/><path d="M347.484 315.352s.076-1.445.304-3.571c.302-2.735 1.822-3.42 3.114-3.038.836.303 2.506 2.355 2.506 2.355v.076a24.797 24.797 0 0 1 2.354-1.443c-.608-.685-4.1-2.811-4.862-2.811-.836 0-11.317 4.254-14.66 7.142-.762.762-1.368 5.47-.987 6.99 5.697-1.447 9.266-3.573 12.231-5.622m5.01 10.563s2.28 2.277 2.355 6.457c.152 4.936-3.496 5.166-5.85 5.09-2.811-.077-5.013-1.67-5.013-6.916 0 0 4.633-1.976 8.508-4.635z"/><path d="M350.598 327.128s1.823 1.9 2.128 5.014c.228 2.432-1.446 3.798-3.496 3.646-2.887-.15-3.95-4.1-2.659-6.304z"/><path d="M353.024 336.857c-1.443.837-3.04.76-4.027.685-2.81-.078-5.011-1.672-5.011-6.915 0 0-3.496 1.747-9.116 3.115 0 0-.987 1.139-1.14 3.42-.152 1.899 1.14 3.95 2.584 3.797 0 0 8.052-1.443 12.836-2.277 2.812-.534 3.875-1.824 3.875-1.824z"/></g><path d="M304.64 335.11s2.506 1.825-.533 4.104m-6.987-5.321l7.673 3.344m-6.388-1.597l5.619 2.43m-3.64-3.87l4.253 1.9m30.84-.99s-2.583 1.825.456 4.104m6.989-5.321l-7.673 3.344m6.456-1.597l-5.621 2.43m3.574-3.87l-4.178 1.9" fill="none" stroke="#fff" stroke-width=".531"/><g stroke="#000"><path d="M274.6 311.74c.11.175.18.36.214.549.028.193.02.408-.023.645a1.824 1.824 0 0 1-.901 1.279c-.493.29-1.058.37-1.683.25a2.862 2.862 0 0 1-.846-.3 3.382 3.382 0 0 1-.69-.463c-.084.1-.172.194-.26.293l-.365-.069c.118-.736.233-1.471.356-2.206.119.023.244.045.37.072.022.284.069.543.129.781.057.24.157.466.288.691.124.205.281.384.477.53.19.143.426.246.706.297.21.041.398.048.57.022a.937.937 0 0 0 .708-.468 1.38 1.38 0 0 0 .157-.449 1.329 1.329 0 0 0-.082-.757c-.102-.25-.295-.457-.56-.627a39.55 39.55 0 0 0-.631-.39 8.823 8.823 0 0 1-.612-.393c-.333-.232-.581-.493-.73-.801-.152-.3-.192-.663-.11-1.088a1.59 1.59 0 0 1 .281-.65 1.76 1.76 0 0 1 .536-.482 1.964 1.964 0 0 1 .698-.252c.258-.042.518-.038.779.012.297.056.56.153.778.288.217.137.416.278.586.439l.246-.269c.123.022.243.045.367.07l-.368 2.13c-.123-.024-.247-.046-.371-.071a8.74 8.74 0 0 0-.09-.742 2.766 2.766 0 0 0-.214-.666 1.512 1.512 0 0 0-.4-.512c-.167-.14-.392-.234-.668-.287a1.072 1.072 0 0 0-.793.136.896.896 0 0 0-.435.613c-.052.275-.028.517.068.724.095.21.257.394.486.56.202.15.406.278.608.398.198.119.387.238.574.365.167.11.332.232.48.366.144.131.272.277.368.431m9.321 1.307a2.805 2.805 0 0 0-.361-.136 1.094 1.094 0 0 0-.433-.066c-.127.01-.26.104-.4.276a4.413 4.413 0 0 0-.445.68c-.456.826-.915 1.653-1.37 2.48a1.879 1.879 0 0 1-.656.714 1.954 1.954 0 0 1-.844.284 2.5 2.5 0 0 1-.85-.057 3.238 3.238 0 0 1-.735-.287 3.347 3.347 0 0 1-.856-.644 2.357 2.357 0 0 1-.483-.744 1.731 1.731 0 0 1-.121-.757 1.611 1.611 0 0 1 .201-.69l1.864-3.374a.703.703 0 0 0 .084-.266.56.56 0 0 0-.096-.276 1.165 1.165 0 0 0-.21-.237c-.096-.078-.17-.141-.24-.184l.158-.286c.806.444 1.606.887 2.412 1.329l-.159.284a2.414 2.414 0 0 0-.305-.12 1.504 1.504 0 0 0-.29-.082c-.11-.016-.202 0-.272.063a.704.704 0 0 0-.184.216c-.58 1.052-1.162 2.104-1.74 3.155a2.592 2.592 0 0 0-.21.508 1.382 1.382 0 0 0-.061.58c.022.209.104.403.233.597.132.194.358.379.674.552.296.165.575.26.829.279.253.015.48-.015.681-.104a1.546 1.546 0 0 0 .486-.326 1.971 1.971 0 0 0 .332-.439l1.292-2.342a3.62 3.62 0 0 0 .338-.77c.063-.212.064-.365.016-.474a1.174 1.174 0 0 0-.301-.372 2.76 2.76 0 0 0-.344-.273l.156-.283c.79.432 1.577.868 2.368 1.304l-.158.286m3.352 5.803c.102.208.16.435.165.677a1.46 1.46 0 0 1-.215.754c-.15.262-.338.456-.568.585a1.698 1.698 0 0 1-.728.216 2.285 2.285 0 0 1-.767-.071 3.136 3.136 0 0 1-.761-.31l-2.712-1.561.164-.284c.067.034.164.074.3.127.135.055.235.085.3.094a.42.42 0 0 0 .266-.05.554.554 0 0 0 .19-.209l2.339-4.06a.732.732 0 0 0 .094-.265.433.433 0 0 0-.088-.273 1.306 1.306 0 0 0-.219-.248c-.09-.078-.161-.141-.228-.184.053-.094.109-.188.163-.282.88.506 1.76 1.013 2.643 1.523.205.118.389.248.555.395.162.15.298.321.41.518.105.185.168.388.174.605a1.26 1.26 0 0 1-.18.672 1.404 1.404 0 0 1-.415.462 1.31 1.31 0 0 1-.538.227 1.98 1.98 0 0 1-.577.022 2.586 2.586 0 0 1-.618-.129l-.022.037c.155.116.315.26.483.437.168.183.301.374.393.575zm-.486-1.413a1.112 1.112 0 0 0 .424-.254 2.171 2.171 0 0 0 .336-.448c.177-.312.232-.606.161-.882-.067-.28-.29-.522-.66-.736a21.553 21.553 0 0 0-.656-.358l-1.254 2.174c.17.096.337.194.509.292.222.128.425.208.616.244a.99.99 0 0 0 .525-.034zm-.475 2.125a1.262 1.262 0 0 0 .134-1.018c-.102-.348-.368-.64-.793-.885a26.83 26.83 0 0 0-.437-.246c-.119-.064-.21-.11-.272-.143l-1.146 1.992a.483.483 0 0 0-.015.496c.088.165.254.315.501.456.399.232.773.296 1.12.187.346-.112.646-.386.907-.838zm14.708 3.358a2.688 2.688 0 0 0-.373-.099 1.112 1.112 0 0 0-.436-.022c-.125.022-.247.13-.372.314a4.562 4.562 0 0 0-.375.721l-1.116 2.606c-.141.331-.336.59-.58.777a2 2 0 0 1-.812.365 2.509 2.509 0 0 1-.852.024 3.19 3.19 0 0 1-.762-.208 3.383 3.383 0 0 1-.914-.558 2.42 2.42 0 0 1-.556-.693 1.731 1.731 0 0 1-.194-.74 1.62 1.62 0 0 1 .13-.709l1.519-3.542a.702.702 0 0 0 .06-.269.552.552 0 0 0-.123-.266 1.242 1.242 0 0 0-.235-.216c-.101-.068-.182-.124-.253-.16l.126-.299 2.531 1.084c-.045.1-.085.2-.13.298a2.684 2.684 0 0 0-.315-.09 1.795 1.795 0 0 0-.296-.052c-.112-.008-.201.02-.266.087a.742.742 0 0 0-.16.235l-1.417 3.312a2.638 2.638 0 0 0-.161.522 1.385 1.385 0 0 0 0 .587c.044.205.142.39.292.57.15.18.392.342.725.484.312.136.6.2.856.194.25-.01.475-.062.664-.172.18-.104.336-.224.454-.37.117-.143.214-.302.288-.47.35-.821.701-1.638 1.052-2.458.134-.314.222-.578.261-.798.038-.22.027-.372-.034-.473a1.149 1.149 0 0 0-.336-.34 2.894 2.894 0 0 0-.369-.24l.127-.297 2.484 1.064a9.607 9.607 0 0 0-.13.296m7.143 8.394l-2.803-.812.09-.313c.104.025.236.052.401.082.162.026.281.034.35.021a.63.63 0 0 0 .261-.137.554.554 0 0 0 .142-.25l1.317-4.558a1.072 1.072 0 0 0-.068-.018c-1.227 1.577-2.482 3.132-3.71 4.712-.073-.022-.145-.044-.223-.065-.149-2.016-.338-4.029-.487-6.042a.554.554 0 0 0-.059-.017c-.36 1.247-.721 2.492-1.08 3.74-.104.359-.16.637-.168.845-.01.203.024.356.092.467.048.081.168.177.359.294.189.118.313.184.376.206l-.091.313-2.563-.74c.03-.106.062-.21.091-.314.139.024.288.046.444.055a.787.787 0 0 0 .384-.046.693.693 0 0 0 .326-.319c.086-.159.188-.437.303-.836l.926-3.206c.053-.185.074-.34.064-.473a.738.738 0 0 0-.108-.343.954.954 0 0 0-.29-.274 1.586 1.586 0 0 0-.381-.183l.09-.313 2.16.625c.142 1.744.323 3.487.463 5.232.888-1.167 1.8-2.317 2.688-3.485.1-.13.195-.264.28-.414a2.202 2.202 0 0 0 .155-.297l2.068.6-.09.311a3 3 0 0 0-.327-.05 1.856 1.856 0 0 0-.305-.018.342.342 0 0 0-.258.12.728.728 0 0 0-.13.252l-1.306 4.518a.616.616 0 0 0-.023.274.496.496 0 0 0 .152.244c.047.046.135.1.264.163.132.067.234.11.315.138-.032.101-.063.207-.093.311m6.79-2.062c.172.154.315.34.413.562.098.223.134.481.096.776a1.568 1.568 0 0 1-.296.76 1.784 1.784 0 0 1-.588.482 2.37 2.37 0 0 1-.738.234 3.184 3.184 0 0 1-.823.008c-1.034-.13-2.068-.263-3.103-.392l.04-.324c.075.005.182.005.33 0 .142-.001.25-.012.313-.03a.406.406 0 0 0 .225-.15.562.562 0 0 0 .096-.264c.194-1.548.387-3.098.583-4.65a.754.754 0 0 0-.015-.28.443.443 0 0 0-.189-.218 1.292 1.292 0 0 0-.296-.143c-.114-.037-.203-.069-.28-.082l.04-.323 3.027.38c.232.03.452.08.667.154.205.074.398.177.576.317.167.13.307.293.397.49.09.2.12.427.09.688a1.35 1.35 0 0 1-.61 1.007 2.04 2.04 0 0 1-.524.244 2.65 2.65 0 0 1-.62.121l-.008.041c.187.048.39.117.616.216.22.102.418.224.58.375zm-.996-1.114a1.15 1.15 0 0 0 .295-.399 2.153 2.153 0 0 0 .135-.545c.045-.354-.019-.642-.191-.873-.172-.233-.468-.368-.895-.423a21.206 21.206 0 0 0-.368-.043l-.379-.036c-.105.83-.208 1.661-.314 2.49l.583.073a1.991 1.991 0 0 0 .665-.012c.186-.042.342-.119.468-.234zm.384 2.144a1.276 1.276 0 0 0-.27-.99c-.229-.283-.586-.449-1.072-.51a19.102 19.102 0 0 0-.499-.059 11.275 11.275 0 0 0-.308-.028l-.287 2.283a.486.486 0 0 0 .179.464c.144.116.358.192.64.226.456.06.824-.025 1.101-.262.278-.239.449-.607.515-1.122zm8.893 2.054h-1.783c-.388-.616-.75-1.133-1.062-1.583-.32-.445-.67-.894-1.04-1.371h-.676v2.068c0 .104.02.202.051.279.034.082.108.145.22.189.056.022.154.04.293.06.141.017.259.028.355.032v.328h-2.792v-.328c.072-.004.18-.017.326-.032a1.192 1.192 0 0 0 .293-.06.398.398 0 0 0 .204-.174.578.578 0 0 0 .059-.294v-4.715a.831.831 0 0 0-.045-.286c-.033-.081-.104-.144-.22-.187a1.732 1.732 0 0 0-.302-.077 2.358 2.358 0 0 0-.316-.043v-.326h3.05c.279 0 .54.024.787.082a2.2 2.2 0 0 1 .664.276c.192.124.35.278.461.478.115.198.173.436.173.717 0 .253-.04.472-.115.665a1.38 1.38 0 0 1-.347.501 1.96 1.96 0 0 1-.501.342 4.022 4.022 0 0 1-.647.248c.322.428.6.78.815 1.073.21.292.482.64.792 1.06a1.964 1.964 0 0 0 .698.623c.079.044.182.07.303.09.122.023.224.034.302.038v.326zm-2.45-4.858c0-.393-.12-.701-.344-.94-.225-.232-.552-.344-.972-.344h-.792v2.792h.61c.428 0 .79-.128 1.071-.404.281-.275.43-.637.43-1.104zm10.058 4.372l-2.74.21c-.008-.11-.015-.22-.024-.328.24-.032.44-.078.6-.138.152-.059.228-.119.223-.186-.002-.028-.011-.06-.017-.1a.36.36 0 0 0-.036-.106c-.215-.472-.441-.94-.658-1.414l-2.312.174c-.072.223-.128.41-.167.576-.043.166-.083.315-.114.452a2.786 2.786 0 0 0-.06.326 1.117 1.117 0 0 0-.008.204c.008.122.112.205.315.26.2.056.42.076.668.07l.024.328-2.48.188-.025-.327a1.553 1.553 0 0 0 .297-.077.965.965 0 0 0 .288-.139 1.14 1.14 0 0 0 .27-.285 1.456 1.456 0 0 0 .17-.385c.261-.842.572-1.783.888-2.832.314-1.048.616-1.979.86-2.797l.372-.027c.86 1.82 1.759 3.62 2.621 5.437.056.116.118.207.18.278a.921.921 0 0 0 .55.282c.117.022.212.03.291.027.01.112.018.223.026.332zm-2.85-2.457c-.39-.814-.8-1.624-1.192-2.442-.257.867-.534 1.728-.792 2.592zm12.221-5.143l-.333.09c-.128-.218-.328-.428-.597-.643-.27-.213-.504-.306-.695-.286a4.58 4.58 0 0 0-.336.063l-.438.11-1.068.292c.228.842.456 1.686.685 2.526.242-.068.488-.135.732-.2.219-.06.39-.128.5-.21a.836.836 0 0 0 .254-.294.951.951 0 0 0 .083-.352 1.83 1.83 0 0 0-.021-.466l.336-.091c.226.827.45 1.651.672 2.475l-.336.091a2.227 2.227 0 0 0-.211-.419 1.289 1.289 0 0 0-.272-.312.68.68 0 0 0-.396-.137 1.777 1.777 0 0 0-.512.077l-.732.2.588 2.166a.572.572 0 0 0 .133.247.445.445 0 0 0 .254.128c.053.012.157.008.313-.008.156-.007.277-.028.353-.045l.086.316-2.763.75-.086-.316c.09-.03.208-.074.353-.128.142-.056.237-.096.277-.13a.396.396 0 0 0 .15-.224.629.629 0 0 0-.013-.29l-1.232-4.54a.854.854 0 0 0-.119-.248c-.052-.064-.14-.104-.258-.125a1.889 1.889 0 0 0-.35-.016 1.837 1.837 0 0 0-.344.037l-.086-.316c1.668-.452 3.338-.904 5-1.356l.428 1.581m7.364-.557c.241.602.477 1.205.72 1.807l-4.652 2.246-.143-.296a6.62 6.62 0 0 0 .28-.171 1.04 1.04 0 0 0 .235-.18.394.394 0 0 0 .11-.247.605.605 0 0 0-.074-.289l-2.03-4.204a.728.728 0 0 0-.166-.226.396.396 0 0 0-.277-.077 1.24 1.24 0 0 0-.318.03 1.5 1.5 0 0 0-.313.082c-.045-.098-.096-.199-.14-.295l2.51-1.213.142.296a2.222 2.222 0 0 0-.282.185 1.7 1.7 0 0 0-.24.2.32.32 0 0 0-.111.263c0 .097.025.191.07.281l1.904 3.944c.087.18.162.318.232.408a.41.41 0 0 0 .242.174c.084.023.196.008.331-.044.136-.045.318-.122.545-.234.104-.048.208-.106.32-.164.11-.056.209-.124.301-.184.09-.068.168-.135.238-.204a.458.458 0 0 0 .128-.196c.05-.184.098-.436.124-.772.022-.328.034-.588.015-.776l.298-.143m3.48-6.46a3.256 3.256 0 0 1 1.14.586 4 4 0 0 1 .932 1.09c.264.448.425.894.5 1.342.073.448.046.875-.052 1.286a3.072 3.072 0 0 1-.521 1.098 3.037 3.037 0 0 1-.928.826 3.057 3.057 0 0 1-1.226.427 2.96 2.96 0 0 1-1.225-.104 3.147 3.147 0 0 1-1.118-.596 3.91 3.91 0 0 1-.898-1.048 3.864 3.864 0 0 1-.507-1.353 3.385 3.385 0 0 1 .047-1.28 3.084 3.084 0 0 1 .53-1.108c.248-.338.555-.607.92-.823.38-.224.778-.366 1.189-.42a2.99 2.99 0 0 1 1.218.075zm1.752 4.336a3.058 3.058 0 0 0-.153-1.011 5.364 5.364 0 0 0-.498-1.074 5.61 5.61 0 0 0-.739-.996 3.056 3.056 0 0 0-.824-.621 1.86 1.86 0 0 0-.865-.198 1.74 1.74 0 0 0-.872.262c-.318.188-.55.42-.685.701a2.026 2.026 0 0 0-.207.906c.006.312.062.64.183.989.12.352.279.698.481 1.042a5.75 5.75 0 0 0 .71.967c.246.265.522.47.808.621.286.15.57.215.868.22.296 0 .598-.085.904-.265a1.795 1.795 0 0 0 .656-.657 1.848 1.848 0 0 0 .233-.886zm8.193-4.448l-1.454 1.03c-.669-.277-1.267-.489-1.78-.674-.52-.184-1.067-.344-1.638-.518l-.556.391 1.196 1.688c.06.082.135.147.202.196.078.048.174.052.29.026a1.312 1.312 0 0 0 .274-.12c.127-.065.224-.125.306-.18l.19.268-2.278 1.615c-.064-.087-.126-.178-.19-.266.06-.045.14-.117.249-.213a1.217 1.217 0 0 0 .205-.221.38.38 0 0 0 .062-.258.578.578 0 0 0-.117-.274c-.911-1.283-1.819-2.567-2.726-3.847a.822.822 0 0 0-.202-.204c-.075-.05-.17-.061-.285-.028a2.388 2.388 0 0 0-.576.262l-.19-.268 2.486-1.762a3.546 3.546 0 0 1 .69-.387 2.107 2.107 0 0 1 .702-.161 1.366 1.366 0 0 1 .65.121c.211.095.396.259.556.486a1.68 1.68 0 0 1 .291.612c.05.201.053.4.011.605a1.984 1.984 0 0 1-.213.568 3.735 3.735 0 0 1-.387.575c.513.166.944.291 1.288.405.34.116.766.244 1.259.408a1.949 1.949 0 0 0 .931.103 1.024 1.024 0 0 0 .298-.101c.114-.05.204-.105.27-.144.06.089.126.178.187.268zm-4.804-2.546c-.23-.323-.508-.506-.826-.569-.32-.056-.654.038-.996.28l-.646.458a4280.312 4280.312 0 0 0 1.617 2.282l.5-.354c.35-.247.568-.564.636-.948.07-.39-.017-.772-.286-1.15zm10.248-1.56c.181.613.363 1.23.548 1.844l-5.145 1.907c-.038-.1-.078-.204-.114-.306.087-.037.202-.09.336-.167.136-.073.227-.122.264-.161a.456.456 0 0 0 .131-.24.574.574 0 0 0-.042-.284c-.545-1.465-1.086-2.928-1.63-4.395a.76.76 0 0 0-.143-.235c-.059-.06-.149-.09-.267-.102-.091-.01-.209 0-.349.019a1.665 1.665 0 0 0-.338.065c-.038-.1-.079-.204-.114-.306l4.795-1.78.544 1.475c-.108.043-.219.083-.325.123-.138-.202-.356-.381-.635-.556-.29-.179-.521-.24-.705-.198a2.62 2.62 0 0 0-.328.092c-.133.045-.273.092-.435.152l-.972.36c.298.808.601 1.62.9 2.427.232-.085.463-.173.7-.259.221-.082.381-.162.47-.246a.682.682 0 0 0 .194-.306 1.172 1.172 0 0 0 .04-.398 2.237 2.237 0 0 0-.056-.425l.328-.121.888 2.397c-.11.042-.221.081-.328.121a2.467 2.467 0 0 0-.256-.406 1.165 1.165 0 0 0-.285-.273.676.676 0 0 0-.387-.104 1.624 1.624 0 0 0-.476.116l-.702.261c.228.613.453 1.224.68 1.837.07.182.137.32.202.42a.422.422 0 0 0 .241.184.67.67 0 0 0 .348-.01c.139-.038.328-.098.569-.186.097-.038.222-.083.38-.14a2.736 2.736 0 0 0 .391-.168c.104-.055.216-.117.323-.19.105-.078.176-.146.201-.217.085-.187.151-.45.191-.784.04-.335.064-.574.052-.717.104-.041.208-.08.316-.12m5.525-4.526a3.18 3.18 0 0 1 .822.986c.214.406.36.857.427 1.369a3.786 3.786 0 0 1-.064 1.43 3.24 3.24 0 0 1-.551 1.164 3.038 3.038 0 0 1-.908.802 3.084 3.084 0 0 1-1.176.396 3 3 0 0 1-1.295-.087 2.953 2.953 0 0 1-1.09-.573 3.187 3.187 0 0 1-.791-.985 3.786 3.786 0 0 1-.42-1.317 3.864 3.864 0 0 1 .064-1.442 3.366 3.366 0 0 1 .548-1.159 3.094 3.094 0 0 1 2.09-1.21 3.16 3.16 0 0 1 1.259.079 3.011 3.011 0 0 1 1.085.548zm-.085 4.676a3.069 3.069 0 0 0 .259-.992 5.662 5.662 0 0 0-.042-1.181 5.432 5.432 0 0 0-.291-1.205 3 3 0 0 0-.509-.895 1.882 1.882 0 0 0-.72-.52 1.76 1.76 0 0 0-.904-.103c-.37.048-.675.17-.91.379a1.994 1.994 0 0 0-.544.752 3.219 3.219 0 0 0-.218.98 5.412 5.412 0 0 0 .034 1.147c.056.434.152.824.276 1.166.12.342.297.637.501.887.2.252.436.42.71.542.272.117.587.157.936.11a1.78 1.78 0 0 0 .858-.346 1.852 1.852 0 0 0 .564-.723z" fill="#000001" stroke-width=".522"/><path d="M356.294 213.544v41.254c0 8.204-1.138 40.876-36.236 53.564-35.17-12.688-36.31-45.356-36.31-53.564v-41.254z" fill="none" stroke-width=".759"/></g><path d="M315.258 106.292c-2.722.022-5.733 1.328-8.826 4.646v.002c7.44-2.184 10.722 2.75 13.826 5.898a123.43 123.43 0 0 0-26.792 2.98c-2.877-6.361-13.05-14.103-20.95-2.386 7.198-3.4 11.246 1.314 14.88 3.906a122.222 122.222 0 0 0-21.409 8.2c-.024-.048-.04-.112-.065-.16-2.968-5.672-18.416-12.593-22.052 3.064 7.612-7.897 15.184.837 19.7-1.676a123.28 123.28 0 0 0-19.541 12.698c-.032-.04-.06-.095-.091-.133-4.127-4.905-20.717-8.365-20.87 7.703 5.607-9.155 14.634-2.71 18.63-5.672a123.885 123.885 0 0 0-17.7 18.138c-.095-.104-.186-.235-.282-.328-4.6-4.47-21.456-6.262-19.987 9.74 4.784-9.929 14.837-3.81 18.271-7.763-.524.603-.798 1.364-.946 2.216a123.02 123.02 0 0 0-12.515 21.31c-5.677-3.039-22.32-.222-16.55 14.76l.003.003c1.894-10.845 13.244-7.656 15.469-12.383-.023.049-.029.104-.05.154a122.146 122.146 0 0 0-7.724 24.924c-6.996.17-18.404 6.792-10.13 18.52-.591-7.91 5.337-9.94 9.086-12.371a124.008 124.008 0 0 0-1.263 17.653c0 1.779.046 3.544.12 5.304-6.315 2.745-14.607 14.226-1.516 21.373-3.704-6.26-.322-10.486 2.032-14.091a122.447 122.447 0 0 0 4.492 22.646c-5.912 3.807-11.943 14.451.49 20.7-3.965-6.203-.61-10.57 1.619-14.28a122.549 122.549 0 0 0 10.112 21.367c-4.743 5.124-7.877 17.705 6.264 20.077-5.768-4.861-3.659-10.144-2.663-14.393a123.766 123.766 0 0 0 15.954 19.156c-4.468 5.333-6.934 18.333 7.48 19.766-6.942-5.094-3.671-11.448-3.413-15.948a123.472 123.472 0 0 0 22.951 16.276c-1.256 6.88 2.475 18.605 15.594 13.813-7.096-1.312-8.158-6.5-9.336-10.604A122.174 122.174 0 0 0 293.229 360c-.123 6.966 4.604 16.754 16.594 11.437-7.296-.848-8.633-6.114-10.117-10.16a123.811 123.811 0 0 0 20.773 1.757c1.347 0 2.685-.03 4.021-.074 1.52 6.822 9.614 16.251 19.826 6.678-7.746 1.726-10.637-3.703-13.584-7.035a122.518 122.518 0 0 0 26.852-5.273c4.212 5.605 14.445 10.65 20.408-1.297-5.8 3.721-10.056 1.079-13.653-1.063a122.628 122.628 0 0 0 20.414-10.048c5.258 4.284 20.037 6.136 19.82-9.004-3.837 6.612-9.572 5.367-13.992 5.19a123.786 123.786 0 0 0 19.521-16.825c6.189 3.31 18.94 3.322 18.088-10.713-3.522 6.77-9.3 5.798-13.72 5.82a123.395 123.395 0 0 0 14.483-21.26c6.888 1.172 19.475-3.22 13.5-16.324h-.002c-.835 7.384-6.319 8.647-10.414 10.175a122.158 122.158 0 0 0 8.669-25.591c6.88-1.49 16.398-9.472 6.834-19.638 1.408 6.422-2.203 9.454-5.399 11.976a123.962 123.962 0 0 0 1.427-18.794c0-.878-.016-1.753-.034-2.628 6.7-2.14 15.434-11.05 4.862-20.236 2.304 7.021-2.093 10.427-5.182 13.487a122.774 122.774 0 0 0-3.328-20.581c5.912-3.523 12.654-15.942-1.234-21.386 4.756 6.112 1.273 10.947-.556 14.964a122.326 122.326 0 0 0-8.596-20.784c4.995-4.844 8.79-17.581-5.437-20.432 5.665 5.092 3.285 10.359 2.166 14.596a123.544 123.544 0 0 0-12.882-17.773c2.645-6.48 1.423-18.669-12.386-16.685 5.837 2.4 6.505 6.758 6.784 10.666a123.78 123.78 0 0 0-15.846-13.464c1.907-6.6-1.552-20.078-15.43-14.88v.004c7.356 1.297 8.287 6.788 9.557 10.94a122.651 122.651 0 0 0-22.018-10.972c1.17-6.785-3.65-19.692-16.87-13.172 8.23.618 9.17 7.147 11.154 11.17a122.624 122.624 0 0 0-31.45-5.771c-1.062-4.64-5.625-10.755-11.594-10.706zm5.221 13.606c.611 0 1.22.015 1.828.024-4.136 2.48-7.696 10.645-16.591 8.367 9.582 10.825 20.102-1.519 21.263-8.214a119.667 119.667 0 0 1 30.834 5.748c-4.626 1.416-10.54 6.66-17.544 1.742 5.011 13.306 18.946 5.885 22.679.068a119.616 119.616 0 0 1 23.844 12.229c-4.825.27-11.765 6.187-18.771.138 3.62 13.65 18.08 7.816 22.485 2.427a120.636 120.636 0 0 1 17.965 15.862c.27.753.658 1.406 1.282 1.885-4.163-3.194-13.949 3.902-20.342-4.658.609 14.94 17.831 11.118 22.282 6.38a120.286 120.286 0 0 1 13.145 18.685c-4.192-2.386-13.353-.943-16.07-9.823-4.343 13.804 11.878 16.265 18.195 13.721a119.254 119.254 0 0 1 8.792 21.896c-3.937-2.787-12.588-3.277-13.648-12.167-6.53 12.458 7.94 17.784 14.893 16.8a120.008 120.008 0 0 1 3.375 23.2c-1.544-4.616-11.705-7.666-9.464-17.378-11.032 10.162 3.044 20.65 9.576 20.948.012.719.026 1.436.026 2.157 0 7.69-.731 15.207-2.112 22.495-.268.492-.452 1.008-.482 1.576.267-5.212-11.185-9.14-7.752-19.235-11.985 9 .903 20.816 7.38 21.792a119.156 119.156 0 0 1-9.539 26.773c-.283-4.79-7.144-11.423-1.37-18.932-13.84 4.574-6.345 19.1-.57 22.682a120.26 120.26 0 0 1-15.56 22.244c1.565-4.544-2.592-13.272 5.573-18.283-14.928-.645-12.7 16.399-8.386 21.364a120.584 120.584 0 0 1-20.763 17.5c1.032-4.69-1.702-12.728 6.118-17.052-13.798-1.224-13.559 13.409-10.199 19.66a119.478 119.478 0 0 1-22.374 10.62c-.725-.173-1.435-.202-2.136.02 5.01-1.585 4.682-13.606 15.412-13.969-12.856-8.06-19.483 8.562-17.92 14.76.054.212.154.439.235.66a119.648 119.648 0 0 1-27.024 5.052c4.32-2.157 8.432-10.163 17.193-7.29-9.151-11.869-21.038 1.112-21.93 7.529-1.272.04-2.546.068-3.828.068-7.699 0-15.228-.73-22.523-2.115-.403-.461-.867-.832-1.443-1.062 4.88 1.946 12.343-7.526 20.846-1.024-4.733-14.34-20.514-5.716-23.286.05a7.274 7.274 0 0 0-.422 1.14 119.2 119.2 0 0 1-28.995-10.732c-.016-.008-.027-.023-.044-.03 4.738 2.269 12.826-6.683 20.867.377-3.725-14.538-19.868-7.172-23.164-1.615a120.288 120.288 0 0 1-21.091-14.867c4.724.92 11.828.192 14.927 7.584 2.947-14.193-13.514-15.017-19.516-11.839a120.535 120.535 0 0 1-17.286-21.195c4.122 2.513 13.596.488 16.67 9.492 3.946-14.101-12.787-15.924-18.845-13.036a119.384 119.384 0 0 1-11.062-24.62c1.689 4.88 13.623 4.744 13.893 15.32 8.224-12.672-8.414-19.392-14.69-17.914a119.658 119.658 0 0 1-4.533-24.872c3.308 3.495 12.424 4.86 12.34 14.109 8.046-11.512-5.545-18.602-12.58-18.531a121.95 121.95 0 0 1-.1-4.654c0-6.297.488-12.481 1.423-18.516 1.741 4.477 8.675 9.617 4.625 17.61 12.822-7.073 2.561-20.08-3.774-22.435a119.154 119.154 0 0 1 5.506-19.253c1.521 4.229 3.58 9.291-.88 14.425 12.646-3.36 8.612-15.755 3.64-21.094a119.782 119.782 0 0 1 10.101-18.07c.287 4.224.352 9.038-4.849 12.456 12.772.159 12.6-12.216 9.495-18.836a120.682 120.682 0 0 1 14.734-15.766c-.202 4.624.238 10.552-6.181 13.906 12.925 1.456 13.81-11.36 11.216-18.172a120.228 120.228 0 0 1 15.47-10.53c-1.191 4.463-2.071 10.3-9.033 12.194 12.294 4.178 15.94-8.119 14.893-15.328a119.195 119.195 0 0 1 22.666-8.584c-3.628 3.17-5.907 11.602-14.96 10.74 11.45 9.436 20.037-5.318 19.7-11.9a120.512 120.512 0 0 1 26.245-2.884z" fill="#338a00" stroke="#075400" stroke-width=".398"/><path d="M247.13 293.55c-.228.987-.606 2.355-.76 4.104 0 .379-.378 2.43.76 2.506.836.076 1.064-2.128 1.064-2.128s-.761 2.431.228 2.736c1.368.3 1.518-2.66 1.518-2.66-.152.836-1.064 2.964.229 3.188 1.366.23 1.747-2.886 1.747-2.886s-1.14 3.116.227 3.192c1.291.074 1.291-3.04 1.291-3.04s-.684 3.724 1.14 3.42c.985-.152 1.216-1.444 1.443-2.204.303-1.138.987-2.581.152-4.937-.607-1.747-.379-2.203-.379-2.203s-2.128 1.596-3.798 2.659c-.762.455-4.864-1.747-4.864-1.747zm22.184-3.27c-.379-.23-.304 1.368-.456 2.125-.076.761.154 2.432 2.736 2.28 2.506-.228 5.015-.76 6.608-.38 1.597.456 3.95.532 5.244.532 1.292 0 2.128-.151 2.732-.381.534-.226 1.672.306 2.204.306.532 0 1.368-.836 1.29-1.368-.075-.99-.985-.99-2.28-1.064-1.214-.152-2.885-.38-3.72-.684-.835-.304-2.354-1.14-4.254-1.52 0 0-3.646.154-4.404.154-.761 0-5.243.226-5.7 0z" fill="#ad7d5a" stroke="#000" stroke-width=".38"/><path d="M257.084 295.678l-.152-3.495 1.443 1.218.38-2.66c.607-.152 1.595 1.064 1.595 1.064l-.152-2.658 2.202 2.43s-.152-2.051.606-3.267c0 0 1.67 1.444 1.67 3.116 0 1.446 1.445-2.052 1.445-2.052l1.216 3.876.985-1.445.836 3.037 1.822-2.659 1.443 3.116 3.267-.23.382 1.825 1.442-1.596 1.9 1.216s1.595-.456 2.43-.456c.837 0 1.824 1.063 1.824 1.063s.606-1.06 1.216-1.441c.606-.38 1.443.606 1.669 1.214l1.217-2.203s1.596 1.597 1.821 2.203c0 0 .229-1.822.609-2.432.38-.606.986.23 1.444.99l.986-3.267s1.064.225 1.822 1.442c.837 1.214.837-1.825.837-1.825s1.821 2.432 2.28 4.103m45.733-.608s.606-1.669 1.444-2.506c0 0 1.595 1.901 1.595 2.507 0 0 .456-.228 1.291-.833l1.216 1.213 1.444-.986 1.368 1.216 2.507-1.064.986 1.063 3.872-.454 1.446.605 1.367-1.744 1.292 1.365 2.05-2.049s.986.832 1.215 1.443c0 0 1.671-.837 2.051-1.443 0 0 1.595-.608 1.823.377 0 0 .985-.76.91-1.594-.077-.835 1.14-.227 1.519.837 0 0 .456-1.672 1.673-1.826 0 0 .834.989.605 2.813 0 0 1.822-1.443 2.66-1.595 0 0 .38 2.05-.228 3.875 0 0 1.9-3.116 2.28-2.052.151.606.606 2.66.151 4.101l1.671-1.064.608 2.054 1.821-.38m-85.355 6.186s1.368-2.277 2.202-2.886c0 0 1.823 1.445 2.43 3.267 0 0 .23-1.214.838-2.277 0 0 2.278 1.06 2.657 2.506 0 0 .837-1.444 1.444-1.822.607-.459 1.216 1.592 1.216 2.81 0 0 1.443-1.52 2.28-1.597 0 0 1.595.76 2.05 3.42 0 0 1.52-1.443 2.051-1.217 0 0 1.823 1.217 1.366 2.888-.226.91 1.824-1.062 4.33-1.67l2.204 1.67s2.05-2.735 2.658-3.648c0 0 1.672.608 1.672 1.596 0 0 .76-2.89 1.367-3.19.608-.38 1.443.91 1.443 1.747 0 0 .228-2.203 1.445-2.66 0 0 1.215.835 1.215 1.673 0 0 1.291-2.507 2.28-3.118" fill="none" stroke="#060" stroke-width=".38"/><path d="M257.084 295.678l-.152-3.495 1.443 1.218.38-2.66c.607-.155 1.595 1.064 1.595 1.064l-.152-2.661 2.202 2.432s-.152-2.052.606-3.269c0 0 1.67 1.445 1.67 3.116 0 1.447 1.445-2.052 1.445-2.052.38 1.217 1.216 3.875 1.216 3.875l.985-1.444.836 3.039 1.824-2.66 1.441 3.117 3.267-.23.381 1.822 1.443-1.593 1.899 1.215s1.596-.456 2.432-.456c.836 0 1.823 1.066 1.823 1.066s.606-1.066 1.215-1.448c.606-.378 1.445.608 1.67 1.216l1.217-2.203s1.594 1.597 1.821 2.203c0 0 .227-1.822.608-2.43.381-.609.986.228 1.443.988l.985-3.267s1.066.226 1.824 1.444c.834 1.214.834-1.823.834-1.823s1.821 2.43 2.277 4.101c0 0-12.577 4.319-21.448 3.138-10.441-1.39-19.04-3.365-19.04-3.365m86.228-.38s.607-1.671 1.445-2.508c0 0 1.595 1.902 1.595 2.509 0 0 .453-.227 1.29-.836l1.216 1.214 1.445-.985 1.368 1.213 2.505-1.064.987 1.064 3.873-.453 1.444.606 1.368-1.747 1.292 1.366 2.05-2.051s.986.835 1.215 1.445c0 0 1.671-.834 2.051-1.445 0 0 1.596-.606 1.823.38 0 0 .987-.76.912-1.594-.075-.835 1.139-.23 1.52.834 0 0 .454-1.67 1.669-1.822 0 0 .835.984.608 2.812 0 0 1.82-1.448 2.657-1.597 0 0 .381 2.05-.227 3.876 0 0 1.9-3.117 2.28-2.052.152.606.608 2.658.152 4.1l1.67-1.063.606 2.052 1.822-.38s-10.784 1.652-20.944.683c-10.161-.968-19.695-4.557-19.693-4.557m-7.51 7.542c.492-.304-3.394 7.996-12.82 8.438-13.115.614-24.325-5.928-24.325-5.928s1.368-2.28 2.202-2.888c0 0 1.822 1.444 2.43 3.266 0 0 .23-1.216.837-2.278 0 0 2.28 1.06 2.658 2.506 0 0 .837-1.443 1.445-1.821.607-.459 1.216 1.593 1.216 2.811 0 0 1.442-1.522 2.278-1.598 0 0 1.596.76 2.052 3.42 0 0 1.52-1.443 2.05-1.217 0 0 1.824 1.217 1.367 2.887-.227.914 1.823-1.06 4.33-1.67l2.203 1.67s2.05-2.733 2.658-3.648c0 0 1.672.61 1.672 1.598 0 0 .76-2.888 1.367-3.19.607-.38 1.443.91 1.443 1.748 0 0 .23-2.204 1.444-2.66 0 0 1.216.835 1.216 1.673-.003-.001 1.288-2.509 2.277-3.119z" fill="#5ac800"/></svg>