<svg xmlns="http://www.w3.org/2000/svg" viewBox="0 0 640 480" height="16" width="22"><path d="M0 160h640v160H0z" fill="#f5f5f5"/><path d="M441.031 179.326c-36.158.032-60.728 31.156-60.215 61.496.623 36.638 36.378 72.373 83.864 55.889-35.815-7.339-48.042-36.81-47.858-57.484.243-27.343 20.506-51.527 48.1-55.618-8.382-2.957-16.386-4.29-23.89-4.283zm45.131 22.293l-9.334 28.719-30.064-.065 24.44 17.737-9.366 28.58 24.433-17.764 24.286 17.735-9.348-28.717 24.37-17.61-30.19-.005-9.227-28.61z" fill="#ff1800"/><path d="M0 0h640v160H0z" fill="#000001"/><path d="M0 320h640v160H0z" fill="#107b00"/><path d="M.018 0L320 240.582 0 480V2.458L.016 0z" fill="red"/></svg>