<svg xmlns="http://www.w3.org/2000/svg" xmlns:xlink="http://www.w3.org/1999/xlink" viewBox="0 0 640 480" height="16" width="22"><path d="M0 0h640v480H0z" fill="#c60b1e"/><path d="M0 120h640v240H0z" fill="#ffc400"/><g stroke="#000" stroke-width=".39"><g transform="scale(.96)"><g stroke-width=".26"><path d="M167.99 222.24s-.51 0-.79-.16-1.13-.96-1.13-.96l-.68-.49-.62-.85s-.73-1.18-.4-2.09c.34-.91.91-1.23 1.42-1.5.51-.26 1.58-.59 1.58-.59s.85-.37 1.13-.42c.28-.06 1.3-.32 1.3-.32s.28-.16.56-.27c.29-.11.68-.11.91-.16.22-.06.79-.24 1.13-.26.52-.02 1.36.1 1.64.1.28 0 1.24.05 1.64.05.39 0 1.8-.11 2.2-.11.39 0 .68-.05 1.13 0 .45.06 1.24.32 1.47.43.23.11 1.58.59 2.09.75.51.16 1.75.37 2.32.64.56.27.91.72 1.19 1.1.28.37.34.78.45 1.05.11.26.11.84 0 1.11-.11.26-.51.81-.51.81l-.62 1.02-.79.64s-.57.54-1.02.48c-.45-.04-5.03-.86-7.97-.86-2.94 0-7.64.86-7.64.86z" fill="#ad1519" stroke-linejoin="round"/><g fill="#c8b100"><path d="M175.66 213.18a1.38 2.5 0 1 0 0 5 1.38 2.5 0 1 0 0-5z"/><path d="M175.68 213.38a.64 2.3 0 1 0 0 4.6.64 2.3 0 1 0 0-4.6z"/><path d="M175.68 212.17a.93.87 0 1 0 0 1.74.93.87 0 1 0 0-1.74z" stroke="none"/><path d="M176.96 212.74v.58h-2.53v-.58h.94v-1.32h-.62v-.57h.62v-.57h.6v.57h.62v.57h-.62v1.32h.99" stroke-width=".3"/><path d="M175.94 212.2a.93.87 0 1 1-.5 0" fill="none"/><path d="M175.68 222.08h-4.81l-.11-1.18-.23-1.23-.23-1.53c-1.33-1.75-2.55-2.9-2.96-2.65.1-.32.22-.56.47-.71 1.18-.7 3.61.98 5.44 3.74.16.25.32.5.46.75h3.97c.14-.25.3-.5.46-.75 1.82-2.76 4.26-4.44 5.43-3.74.26.15.37.39.47.71-.41-.24-1.62.9-2.96 2.65l-.23 1.53-.23 1.23-.1 1.18z"/><path d="M167.55 215.44c.91-.53 3.02 1.14 4.73 3.74m11.55-3.74c-.91-.53-3.01 1.14-4.73 3.74" fill="none"/></g><g fill="#c8b100" id="flag-es-a"><path d="M168.58 224.25c-.2-.57-.58-1.08-.58-1.08 1.95-.57 4.66-.93 7.67-.94 3.01.01 5.75.37 7.69.94 0 0-.22.38-.52.91-.17.3-.39.81-.38.81-1.75-.54-4.02-.81-6.8-.82-2.79.01-5.46.35-6.86.86.02 0-.1-.32-.23-.68h.01"/><path d="M175.67 226.73c2.43-.01 5.11-.38 6.1-.63.66-.2 1.05-.49.98-.84-.04-.16-.18-.3-.37-.38-1.46-.47-4.07-.8-6.71-.8-2.63 0-5.27.33-6.72.8-.19.08-.33.22-.37.38-.07.35.32.64.98.84.99.25 3.68.62 6.11.63zm7.81-4.65l-.59-.53s-.57.34-1.28.24c-.7-.11-.93-.97-.93-.97s-.79.67-1.44.62c-.65-.06-1.07-.62-1.07-.62s-.71.51-1.33.46c-.62-.06-1.21-.83-1.21-.83s-.63.8-1.25.86c-.62.05-1.13-.54-1.13-.54s-.28.59-1.07.72-1.47-.62-1.47-.62-.45.73-.99.92c-.54.18-1.24-.27-1.24-.27s-.12.27-.2.43c-.08.16-.31.19-.31.19l.18.47c1.93-.56 4.56-.91 7.53-.91 2.97 0 5.67.35 7.61.92l.2-.54z"/><path d="M175.69 219.49l.28.05c-.05.12-.06.24-.06.38 0 .58.5 1.05 1.12 1.05.49 0 .91-.31 1.06-.73.01.01.11-.38.15-.38.03 0 .03.41.05.41.07.53.55.89 1.1.89.62 0 1.11-.47 1.11-1.06 0-.04 0-.08-.01-.12l.35-.35.19.44c-.07.14-.1.29-.1.46 0 .56.47 1.01 1.06 1.01.37 0 .69-.18.88-.45l.23-.29v.36c0 .34.14.66.49.71 0 0 .38.03.91-.38.52-.41.8-.75.8-.75l.03.42s-.51.84-.97 1.1c-.25.15-.64.31-.95.25-.32-.05-.55-.31-.67-.61-.23.14-.51.22-.8.22-.63 0-1.2-.35-1.42-.86-.29.31-.69.5-1.16.5-.51 0-.97-.23-1.26-.58-.28.27-.67.43-1.09.43-.55 0-1.05-.28-1.33-.69-.29.41-.78.69-1.34.69-.42 0-.81-.16-1.09-.43-.29.35-.75.58-1.25.58-.48 0-.88-.19-1.17-.5-.22.51-.79.86-1.42.86-.29 0-.56-.08-.79-.22-.12.3-.35.56-.68.61-.3.06-.69-.1-.94-.25-.47-.26-1.02-1.1-1.02-1.1l.07-.42s.29.34.81.75.91.38.91.38c.34-.05.49-.37.49-.71v-.36l.22.29c.19.27.51.45.88.45.59 0 1.06-.45 1.06-1.01a.89.89 0 0 0-.1-.46l.19-.44.35.35c-.01.04-.01.08-.01.12 0 .59.49 1.06 1.11 1.06.55 0 1.03-.36 1.11-.89.01 0 .01-.41.04-.41.05 0 .14.39.16.38.14.42.56.73 1.06.73.61 0 1.11-.47 1.11-1.05 0-.14 0-.26-.05-.38l.29-.05z"/><path d="M175.67 222.23c-3.01.01-5.72.37-7.67.94-.13.04-.29-.06-.33-.17-.04-.13.05-.28.18-.32 1.95-.6 4.73-.98 7.82-.98s5.88.38 7.83.98c.13.04.22.19.18.32-.04.11-.2.21-.33.17-1.95-.57-4.67-.93-7.68-.94z" stroke-linejoin="round"/><path d="M165.43 221c-.01.01-.38-.48-.65-.73-.2-.18-.68-.33-.68-.33 0-.08.28-.28.58-.28.18 0 .35.07.45.2l.04-.2s.24.05.35.32c.12.29.05.72.05.72s-.05.2-.14.3zm1.89-.78l-.11.66-1.4.15-.21-.12.04-.23 1.06-.87.62.41"/><path d="M165.45 220.75c.12-.12.36-.09.53.06.18.15.24.38.12.5-.12.13-.36.1-.53-.06-.18-.15-.24-.38-.12-.5zm2.57.13c-.06-.18 0-.37.13-.42.14-.03.3.09.37.27.06.19 0 .38-.14.42-.13.04-.29-.08-.36-.27zm.65-.84l.51.48 1.22-.66.09-.21-.17-.17-1.4-.12-.25.68"/><path d="M170.08 217.76l-.67.64.86 1.14.23.09.17-.18.3-1.37-.89-.32"/><path d="M172.36 219.3l-.26.63-1.4-.13-.18-.16.1-.22 1.22-.64.52.52"/><path d="M170.51 219.18a.49.47 0 1 0 0 .94.49.47 0 1 0 0-.94zm2.36.77c-.03-.2.07-.37.21-.39.14-.02.28.13.3.33.03.19-.07.37-.21.38-.14.02-.28-.13-.3-.32zm.91-.71l.4.57 1.34-.42.14-.18-.15-.2-1.33-.39-.4.62"/><path d="M175.66 217.15l-.86.52.64 1.38.22.14.22-.14.64-1.38-.86-.52"/><path d="M177.55 219.24l-.39.57-1.34-.42-.14-.18.14-.2 1.34-.39.39.62"/><path d="M175.67 218.74a.49.47 0 1 0 0 .94.49.47 0 1 0 0-.94zm2.83 1.21c.02-.2-.08-.37-.22-.39-.14-.02-.28.13-.3.33-.02.19.07.37.21.38.14.02.28-.13.31-.32zm.49-.65l.26.63 1.4-.13.18-.16-.1-.22-1.22-.64-.52.52"/><path d="M181.27 217.76l.67.64-.86 1.14-.23.09-.17-.18-.3-1.37.89-.32"/><path d="M182.68 220.04l-.51.48-1.22-.66-.1-.21.19-.17 1.4-.12.24.68"/><path d="M180.85 219.18a.49.47 0 1 0 0 .94.49.47 0 1 0 0-.94zm2.49 1.7c.06-.18 0-.37-.13-.42-.14-.03-.3.09-.37.27-.06.19 0 .38.14.42.13.04.29-.08.36-.27zm2.39.12c.01.01.38-.48.66-.73.19-.18.67-.33.67-.33 0-.08-.28-.28-.58-.28-.18 0-.35.07-.45.2l-.04-.2s-.24.05-.36.32c-.11.29-.03.72-.03.72s.04.2.13.3zm-1.89-.78l.11.66 1.4.15.21-.12-.05-.23-1.05-.87-.62.41"/><path d="M185.74 220.75c-.11-.12-.35-.09-.53.06-.18.15-.24.38-.12.5.12.13.36.1.54-.06.18-.15.23-.38.11-.5z"/></g><g fill="none" id="flag-es-b"><path d="M168.05 224.3l.31-.5.65.13-.38.56-.58-.19" fill="#ad1519"/><path d="M170.85 223.81l-.69.11c-.18.02-.35-.09-.38-.26a.32.32 0 0 1 .27-.35l.7-.1.71-.11c.18-.02.34.09.37.25.02.17-.1.33-.27.35l-.71.11" fill="#058e6e"/><path d="M173.19 222.89a.44.41 0 1 0 0 .82.44.41 0 1 0 0-.82z" fill="#fff"/><path d="M175.7 223.48h-.96c-.18 0-.33-.14-.33-.31 0-.17.14-.31.32-.31h1.96c.19 0 .33.14.33.31 0 .17-.15.31-.33.31h-.99" fill="#ad1519"/><path d="M178.16 222.89a.44.41 0 1 0 0 .82.44.41 0 1 0 0-.82z" fill="#fff"/><path d="M180.5 223.81l.69.11c.18.02.35-.09.38-.26a.313.313 0 0 0-.27-.35l-.7-.1-.71-.11c-.18-.02-.35.09-.37.25a.3.3 0 0 0 .27.35l.71.11" fill="#058e6e"/><path d="M183.24 224.33l-.25-.53-.67.06.32.59.6-.12" fill="#ad1519"/><path d="M175.66 226.16c-2.43 0-4.63-.22-6.3-.65 1.67-.43 3.87-.69 6.3-.7 2.44 0 4.65.27 6.33.7-1.68.43-3.89.65-6.33.65z" fill="#ad1519" stroke-linejoin="round"/><path d="M176.8 226.08v-1.16m-.58 1.2l.01-1.23m-.43 1.25v-1.26" stroke-width=".01"/><path d="M175.44 226.15v-1.27" stroke-width=".02"/><path d="M175.09 226.15v-1.27" stroke-width=".03"/><path d="M174.77 226.15v-1.27m-.33 1.27v-1.27" stroke-width=".04"/><path d="M174.16 226.15v-1.27" stroke-width=".05"/><path d="M173.61 226.08l-.01-1.15m.27 1.17v-1.21" stroke-width=".06"/><path d="M173.1 226.03v-1.06m.26 1.09l-.01-1.13" stroke-width=".07"/><path d="M172.42 225.97v-.93m.23.94V225m.23 1.02V225" stroke-width=".08"/><path d="M172.19 225.96v-.9" stroke-width=".09"/><path d="M171.97 225.92v-.85" stroke-width=".1"/><path d="M171.73 225.89v-.78" stroke-width=".11"/><path d="M171.24 225.82l-.01-.62m.26.66v-.7m-.5.61v-.55" stroke-width=".12"/><path d="M170.76 225.73v-.46" stroke-width=".13"/><path d="M170.51 225.67v-.36" stroke-width=".14"/><path d="M170.26 225.64v-.27" stroke-width=".15"/><path d="M169.99 225.58v-.13" stroke-width=".18"/></g></g><g id="flag-es-c"><g fill="#005bbf"><path d="M191.28 330.68c-1.54 0-2.91-.33-3.93-.87-1-.51-2.36-.82-3.86-.82-1.51 0-2.9.32-3.91.83-1.01.53-2.4.86-3.92.86-1.54 0-2.92-.36-3.93-.9-1-.49-2.33-.79-3.79-.79-1.52 0-2.86.29-3.86.81-1.02.54-2.42.88-3.95.88v2.41c1.53 0 2.93-.35 3.95-.88 1-.52 2.34-.82 3.86-.82 1.45 0 2.79.31 3.79.8 1.01.53 2.39.9 3.93.9 1.52 0 2.91-.33 3.92-.86 1.01-.52 2.4-.84 3.91-.84 1.5 0 2.86.32 3.86.83 1.02.54 2.37.87 3.91.87z"/><path d="M191.28 333.09c-1.54 0-2.91-.33-3.93-.87-1-.51-2.36-.83-3.86-.83-1.51 0-2.9.32-3.91.84-1.01.53-2.4.86-3.92.86-1.54 0-2.92-.37-3.93-.9-1-.49-2.33-.8-3.79-.8-1.52 0-2.86.3-3.86.82-1.02.53-2.42.88-3.95.88v2.41c1.53 0 2.93-.35 3.95-.88 1-.52 2.34-.82 3.86-.82 1.45 0 2.79.31 3.79.8 1.01.54 2.39.9 3.93.9 1.52 0 2.91-.34 3.92-.86 1.01-.52 2.4-.84 3.91-.84 1.5 0 2.86.32 3.86.84 1.02.53 2.37.86 3.91.86l.02-2.41" fill="#ccc"/><path d="M191.28 335.5c-1.54 0-2.91-.33-3.93-.86-1-.52-2.36-.84-3.86-.84-1.51 0-2.9.32-3.91.84-1.01.52-2.4.86-3.92.86-1.54 0-2.92-.36-3.93-.9-1-.49-2.33-.8-3.79-.8-1.52 0-2.86.3-3.86.82-1.02.53-2.42.88-3.95.88v2.4c1.53 0 2.93-.34 3.95-.88 1-.51 2.34-.8 3.86-.8 1.45 0 2.79.3 3.79.79 1.01.54 2.39.89 3.93.89 1.52 0 2.91-.32 3.92-.85 1.01-.52 2.4-.83 3.91-.83 1.5 0 2.86.31 3.86.82 1.02.55 2.37.86 3.91.86l.02-2.4"/><path d="M191.26 340.32c-1.54 0-2.89-.33-3.91-.87-1-.51-2.36-.82-3.86-.82-1.51 0-2.9.31-3.91.83-1.01.52-2.4.86-3.92.86-1.54 0-2.92-.37-3.93-.9-1-.5-2.33-.79-3.79-.79-1.52 0-2.86.29-3.86.81-1.02.53-2.42.88-3.95.88v-2.4c1.53 0 2.93-.36 3.95-.9 1-.51 2.34-.8 3.86-.8 1.45 0 2.79.3 3.79.79 1.01.54 2.39.89 3.93.89 1.52 0 2.91-.32 3.92-.85 1.01-.52 2.4-.83 3.91-.83 1.5 0 2.86.31 3.86.82 1.02.55 2.39.86 3.93.86l-.02 2.42" fill="#ccc"/><path d="M191.26 342.73c-1.54 0-2.89-.33-3.91-.86-1-.52-2.36-.84-3.86-.84-1.51 0-2.9.32-3.91.84-1.01.52-2.4.86-3.92.86-1.54 0-2.92-.37-3.93-.9-1-.5-2.33-.8-3.79-.8-1.52 0-2.86.3-3.86.82-1.02.53-2.42.88-3.95.88v-2.39c1.53 0 2.93-.37 3.95-.9 1-.52 2.34-.81 3.86-.81 1.45 0 2.79.3 3.79.79 1.01.53 2.39.9 3.93.9 1.52 0 2.91-.34 3.92-.86 1.01-.52 2.4-.83 3.91-.83 1.5 0 2.86.31 3.86.82 1.02.54 2.38.87 3.93.87z"/></g><g fill="#c8b100"><path d="M166.92 320.78c.05.21.13.4.13.62 0 1.46-1.27 2.63-2.81 2.63h22.94c-1.55 0-2.81-1.17-2.81-2.63 0-.21.04-.41.09-.62-.13.05-.29.06-.44.06h-16.69c-.13 0-.29-.02-.41-.06z" stroke-linejoin="round"/><path d="M167.33 319.27h16.69c.57 0 1.02.35 1.02.78 0 .43-.45.79-1.02.79h-16.69c-.56 0-1.02-.36-1.02-.79 0-.43.46-.78 1.02-.78zm-3.06 10.59h22.87v-5.83h-22.87z"/></g><path d="M167.55 318.32h16.25v-79.63h-16.25z" fill="#ccc"/><path d="M179.13 238.8v79.46m1.83-79.46v79.46" fill="none"/><g fill="#c8b100"><path d="M164.58 232.37h22.29v-5.84h-22.29z"/><path d="M166.92 236.26a.91.91 0 0 1 .41-.07h16.69c.17 0 .32.03.46.08-.58-.19-.99-.71-.99-1.32 0-.61.45-1.14 1.03-1.33-.14.04-.33.08-.49.08h-16.7c-.17 0-.33-.01-.47-.06l.09.02c.6.18.94.71.94 1.29 0 .56-.38 1.13-.97 1.31z" stroke-linejoin="round"/><path d="M167.33 236.19h16.69c.57 0 1.02.35 1.02.78 0 .44-.45.79-1.02.79h-16.69c-.56 0-1.02-.35-1.02-.79 0-.43.46-.78 1.02-.78zm0-3.82h16.7c.57 0 1.03.3 1.03.66 0 .37-.46.67-1.03.67h-16.7c-.56 0-1.02-.3-1.02-.67 0-.36.46-.66 1.02-.66z"/></g></g><g fill="#ad1519" id="flag-es-d"><path d="M162.48 298.62c-2.26 1.3-3.8 2.64-3.55 3.31.12.61.84 1.07 1.87 1.75 1.62 1.13 2.6 3.14 1.83 4.07 1.34-1.08 2.19-2.69 2.19-4.49 0-1.87-.9-3.56-2.34-4.64z"/><path d="M200.4 268.47c-3.54-1.46-9.57-2.55-16.49-2.78-2.39.02-5.04.25-7.79.7-9.72 1.63-17.13 5.51-16.54 8.67.01.06.04.2.05.26 0 0-3.64-8.21-3.7-8.52-.65-3.51 7.56-7.82 18.35-9.62 3.39-.57 6.69-.79 9.56-.76 6.9 0 12.9.89 16.52 2.23l.04 9.82" stroke-linejoin="round"/><path d="M167.52 278.47c-4.51-.32-7.58-1.53-7.94-3.41-.28-1.5 1.25-3.17 3.97-4.68 1.21.14 2.58.3 4 .3l-.03 7.79m16.31-6.09c2.82.43 4.93 1.13 5.98 1.99l.1.17c.5 1.03-1.97 3.22-6.11 5.67l.03-7.83"/><path d="M157.42 293.83c-.43-1.28 3.97-3.86 10.18-6.14 2.84-1.01 5.18-2.07 8.09-3.35 8.63-3.82 15-8.2 14.22-9.79l-.09-.17c.46.38 1.18 8.24 1.18 8.24.78 1.46-5.05 5.78-13 9.58-2.54 1.22-7.91 3.2-10.44 4.09-4.54 1.57-9.04 4.54-8.63 5.64l-1.51-8.09z" stroke-linejoin="round"/></g><g stroke-width=".26"><path d="M324.85 220.42s-.74.78-1.28.89c-.53.1-1.21-.49-1.21-.49s-.48.51-1.08.64c-.59.14-1.41-.66-1.41-.66s-.57.8-1.07.99c-.51.18-1.13-.24-1.13-.24s-.23.39-.65.61c-.18.09-.48-.05-.48-.05l-.6-.38-.68-.72-.62-.24s-.28-.91-.31-1.07c-.02-.16-.08-.57-.08-.57-.13-.65.87-1.4 2.3-1.72.82-.19 1.54-.18 2.06-.02.57-.48 1.78-.82 3.2-.82 1.29 0 2.42.27 3.04.7.61-.43 1.74-.7 3.03-.7 1.42 0 2.62.34 3.19.82.53-.16 1.24-.17 2.07.02 1.42.32 2.43 1.07 2.3 1.72 0 0-.06.41-.08.57-.03.16-.32 1.07-.32 1.07l-.62.24-.68.72-.58.38s-.3.14-.48.05c-.43-.21-.66-.61-.66-.61s-.62.42-1.13.24c-.51-.19-1.07-.99-1.07-.99s-.82.8-1.42.66c-.59-.13-1.07-.64-1.07-.64s-.68.59-1.21.49c-.54-.11-1.27-.89-1.27-.89z" fill="#ad1519" stroke-width=".27"/><g fill="#c8b100"><path d="M324.82 214.24a1.38 1.96 0 1 0 0 3.92 1.38 1.96 0 1 0 0-3.92z"/><path d="M324.85 214.39a.63 1.81 0 1 0 0 3.62.63 1.81 0 1 0 0-3.62z"/><path d="M324.84 213.07a.93.88 0 1 0 0 1.76.93.88 0 1 0 0-1.76z" stroke="none"/><path d="M326.13 213.64v.58h-2.53v-.58h.94v-1.3h-.62v-.58h.62v-.58h.61v.58h.61v.58h-.61v1.3h.98" stroke-width=".3"/><path d="M325.11 213.12a.93.88 0 1 1-.51-.01" fill="none"/></g><g fill="none" stroke-width=".21"><path d="M314.41 219.99c-.13-.33-.22-.7-.22-1.08 0-1.59 1.26-2.88 2.83-2.88.5 0 .96.13 1.37.37" stroke-linecap="round" stroke-width=".26"/><path d="M319.48 217.93c-.15-.26-.29-.54-.29-.84 0-1.15 1.19-2.08 2.64-2.08.62 0 1.2.17 1.65.45m6.69 2.5c.15-.26.25-.57.25-.87 0-1.15-1.18-2.08-2.64-2.08-.62 0-1.19.17-1.64.45" stroke-width=".26"/><path d="M335.21 219.99c.13-.33.21-.7.21-1.08 0-1.59-1.26-2.88-2.82-2.88-.5 0-.97.13-1.38.37" stroke-linecap="round" stroke-width=".26"/><path d="M313.57 218.25a.45.43 0 1 0 0 .86.45.43 0 1 0 0-.86zm.17-1.58a.45.43 0 1 0 0 .86.45.43 0 1 0 0-.86zm1.02-1.2a.45.43 0 1 0 0 .86.45.43 0 1 0 0-.86zm1.35-.65a.45.43 0 1 0 0 .86.45.43 0 1 0 0-.86zm1.44.06a.45.43 0 1 0 0 .86.45.43 0 1 0 0-.86z"/><path d="M318.43 216.65a.45.43 0 1 0 0 .86.45.43 0 1 0 0-.86z" fill="#fff"/><path d="M318.68 215.15a.45.43 0 1 0 0 .86.45.43 0 1 0 0-.86zm1.13-.94a.45.43 0 1 0 0 .86.45.43 0 1 0 0-.86zm1.42-.45a.45.43 0 1 0 0 .86.45.43 0 1 0 0-.86zm1.44.05a.45.43 0 1 0 0 .86.45.43 0 1 0 0-.86zm4.27 0a.45.43 0 1 0 0 .86.45.43 0 1 0 0-.86zm1.45-.05a.45.43 0 1 0 0 .86.45.43 0 1 0 0-.86zm1.41.45a.45.43 0 1 0 0 .86.45.43 0 1 0 0-.86zm1.13.94a.45.43 0 1 0 0 .86.45.43 0 1 0 0-.86z"/><path d="M331.18 216.65a.45.43 0 1 0 0 .86.45.43 0 1 0 0-.86z" fill="#fff"/><path d="M332.06 214.88a.45.43 0 1 0 0 .86.45.43 0 1 0 0-.86zm1.45-.06a.45.43 0 1 0 0 .86.45.43 0 1 0 0-.86zm1.35.65a.45.43 0 1 0 0 .86.45.43 0 1 0 0-.86zm1.02 1.2a.45.43 0 1 0 0 .86.45.43 0 1 0 0-.86zm.17 1.58a.45.43 0 1 0 0 .86.45.43 0 1 0 0-.86z"/></g><use x="149.17" xlink:href="#flag-es-a"/><use x="149.17" xlink:href="#flag-es-b"/></g><use x="149.17" xlink:href="#flag-es-c"/><use transform="matrix(-1 0 0 1 500.57 0)" xlink:href="#flag-es-d"/><path d="M166.42 264.65c1.99-.72 3.29-1.58 2.66-3.14-.41-1-1.43-1.19-2.97-.63l-2.71.99 2.44 6.03c.27-.12.54-.24.81-.34.28-.1.57-.18.85-.26l-1.08-2.64zm-1.18-2.91l.69-.25c.57-.21 1.21.1 1.5.8.21.53.16 1.13-.5 1.55-.21.13-.46.23-.7.33l-.99-2.43m7.54-2.52c-.29.08-.57.16-.86.22-.29.05-.59.09-.88.12l1.41 6.28 4.38-.88c-.05-.12-.12-.26-.14-.38-.03-.14-.03-.28-.04-.41-.77.22-1.61.46-2.61.66l-1.26-5.61m8.78 5.41c.82-2.28 1.82-4.46 2.81-6.67-.18.03-.36.06-.54.07-.18.01-.37.01-.54 0-.53 1.61-1.18 3.21-1.87 4.8-.82-1.51-1.73-2.99-2.43-4.51-.34.04-.69.09-1.03.12-.34.02-.7.01-1.04.02 1.26 2.06 2.48 4.11 3.64 6.23.16-.03.32-.06.5-.08.16-.01.33.01.5.02m9.16-4.83c.15-.31.31-.6.48-.89-.24-.22-.96-.55-1.81-.63-1.79-.18-2.81.61-2.93 1.69-.26 2.26 3.31 2.07 3.14 3.57-.07.64-.75.9-1.48.83-.81-.08-1.41-.53-1.51-1.19l-.22-.02c-.12.39-.29.77-.48 1.15.53.34 1.21.53 1.85.59 1.83.19 3.22-.54 3.35-1.74.23-2.15-3.37-2.27-3.23-3.54.06-.53.47-.88 1.4-.79.67.07 1.08.43 1.26.95l.18.02m119.58 5.18c.62-2.33 1.41-4.58 2.19-6.87-.17.05-.35.09-.53.11-.17.03-.36.04-.54.05-.37 1.64-.88 3.29-1.42 4.94-.96-1.44-2-2.84-2.83-4.3-.34.07-.68.15-1.02.2-.34.05-.69.07-1.04.11 1.45 1.94 2.85 3.89 4.2 5.91.16-.04.32-.1.5-.12.16-.02.33-.02.49-.03m6.18-6.82c-.29.01-.59.04-.88.03-.3 0-.6-.04-.89-.06l-.12 6.41 4.49.08c-.03-.13-.06-.28-.06-.41 0-.13.04-.27.07-.4-.81.05-1.68.1-2.71.08l.1-5.73m7.04 1.05c.72.06 1.41.19 2.1.31-.01-.13-.03-.27-.02-.41.01-.13.06-.26.1-.39l-6.07-.5c.01.14.03.27.02.4-.01.14-.06.27-.1.4.62-.02 1.37-.02 2.21.05l-.53 5.77c.29 0 .59 0 .88.03.3.02.59.07.88.11l.53-5.77m2.49 6.32c.29.05.59.09.88.15.28.06.57.15.85.23l.72-2.94.08.01c.16.41.38.9.49 1.19l.9 2.22c.36.06.71.11 1.05.18.36.08.7.18 1.04.28l-.31-.67c-.48-1-.99-2.01-1.41-3.02 1.12.04 1.98-.36 2.2-1.26.15-.62-.1-1.11-.68-1.53-.44-.31-1.28-.47-1.83-.6l-2.44-.53-1.54 6.29m3.14-5.42c.71.16 1.59.27 1.59 1.07-.01.21-.03.35-.06.48-.23.94-.94 1.26-2.13.91l.6-2.46m8.42 7.35c-.05.69-.18 1.37-.31 2.1.3.14.61.27.9.44.3.16.57.34.86.52l.6-7.23c-.14-.06-.27-.12-.41-.19-.13-.07-.25-.15-.37-.24l-6.38 4.05c.17.08.35.16.51.25.17.09.31.19.47.28.54-.45 1.1-.82 1.74-1.3l2.39 1.31zm-1.81-1.66l2.13-1.37-.25 2.4-1.88-1.03" fill="#c8b100" stroke="none"/></g><path d="M239.664 175.411c6.374 0 12.058.95 15.754 2.41 2.112.96 4.953 1.66 8.064 2.083 2.37.317 4.617.374 6.576.23 2.62-.057 6.403.71 10.195 2.381 3.13 1.392 5.75 3.082 7.488 4.714l-1.507 1.344-.432 3.801-4.128 4.724-2.064 1.756-4.887 3.908-2.496.201-.758 2.16-31.594-3.705-31.699 3.705-.758-2.16-2.506-.201-4.877-3.908-2.064-1.756-4.128-4.724-.422-3.801-1.517-1.344c1.747-1.632 4.358-3.322 7.488-4.714 3.792-1.67 7.574-2.438 10.195-2.38 1.959.143 4.205.086 6.576-.231 3.11-.422 5.952-1.123 8.064-2.083 3.706-1.46 9.063-2.41 15.437-2.41z" fill="#ad1519" stroke-width=".25"/><g fill="#c8b100"><path d="M216.326 183.763l1.325 1.066 1.997-3.264c-2.16-1.325-3.648-3.629-3.648-6.25 0-.297.02-.585.058-.873.201-4.167 5.28-7.604 11.712-7.604 3.34 0 6.364.912 8.486 2.381.058-.643.115-1.2.202-1.785-2.333-1.364-5.376-2.19-8.688-2.19-7.402 0-13.19 4.215-13.47 9.188a9.074 9.074 0 0 0-.047.883c0 2.65 1.21 5.05 3.13 6.71l-1.057 1.738" stroke-width=".374"/><path d="M216.413 183.802c-2.525-1.892-4.1-4.455-4.1-7.277 0-3.245 2.132-6.144 5.357-8.074-1.987 1.603-3.196 3.677-3.37 5.981a9.074 9.074 0 0 0-.047.883c0 2.65 1.21 5.05 3.13 6.71l-.97 1.777" stroke-width=".374"/><path d="M194.122 187.094c-1.421-1.584-2.285-3.638-2.285-5.875 0-1.353.317-2.64.873-3.792 2.045-4.205 8.468-7.267 16.09-7.267 2.074 0 4.06.22 5.894.643-.403.442-.72.931-1.036 1.421a25.435 25.435 0 0 0-4.858-.46c-6.98 0-12.826 2.716-14.515 6.383a7.038 7.038 0 0 0-.701 3.072c0 2.227 1.046 4.224 2.678 5.587l-2.524 4.128-1.354-1.075z" stroke-width=".374"/><path d="M196.704 173.26c-1.834 1.162-3.226 2.583-3.994 4.167a8.695 8.695 0 0 0-.873 3.792c0 2.237.864 4.291 2.285 5.875l-1.536 2.487c-1.47-1.882-2.324-4.09-2.324-6.432 0-4.032 2.564-7.555 6.442-9.888zm43.334-8.84c1.69 0 3.15 1.113 3.495 2.62.22 1.325.365 2.832.393 4.435.01.173-.01.336-.01.5 0 .191.04.393.049.585.057 3.38.537 6.355 1.219 8.18l-5.146 4.934-5.212-4.935c.69-1.824 1.17-4.8 1.238-8.179 0-.192.038-.394.038-.586 0-.163-.01-.326-.01-.499.03-1.603.174-3.11.394-4.435.346-1.507 1.863-2.62 3.552-2.62z" stroke-width=".374"/><path d="M240.038 166.022c.874 0 1.613.557 1.796 1.335a27.78 27.78 0 0 1 .384 4.205c0 .153-.01.307-.01.46 0 .192.029.375.038.567.048 3.187.51 6 1.162 7.728l-3.398 3.216-3.399-3.216c.643-1.728 1.104-4.541 1.162-7.728 0-.192.038-.375.038-.567 0-.153-.01-.307-.01-.46.03-1.517.164-2.948.385-4.205.172-.778.979-1.335 1.852-1.335zm23.674 17.741l-1.334 1.066-1.997-3.264c2.17-1.325 3.657-3.629 3.657-6.25 0-.297-.019-.585-.057-.873-.202-4.167-5.28-7.604-11.712-7.604-3.35 0-6.365.912-8.487 2.381-.057-.643-.115-1.2-.21-1.785 2.342-1.364 5.375-2.19 8.697-2.19 7.401 0 13.19 4.215 13.469 9.188.028.298.048.586.048.883 0 2.65-1.22 5.05-3.14 6.71l1.066 1.738" stroke-width=".374"/><path d="M263.626 183.802c2.524-1.892 4.099-4.455 4.099-7.277 0-3.245-2.131-6.144-5.357-8.074 1.987 1.603 3.197 3.677 3.37 5.981.028.298.048.586.048.883 0 2.65-1.22 5.05-3.14 6.71l.98 1.777" stroke-width=".374"/><path d="M285.917 187.094c1.411-1.584 2.285-3.638 2.285-5.875 0-1.353-.317-2.64-.874-3.792-2.054-4.205-8.467-7.267-16.09-7.267-2.073 0-4.06.22-5.904.643.413.442.73.931 1.047 1.421a25.36 25.36 0 0 1 4.857-.46c6.98 0 12.816 2.716 14.506 6.383.451.931.7 1.978.7 3.072 0 2.227-1.046 4.224-2.678 5.587l2.525 4.128 1.363-1.075z" stroke-width=".374"/><path d="M283.334 173.26c1.834 1.162 3.226 2.583 3.994 4.167a8.695 8.695 0 0 1 .874 3.792c0 2.237-.874 4.291-2.285 5.875l1.536 2.487c1.469-1.882 2.313-4.09 2.313-6.432 0-4.032-2.563-7.555-6.432-9.888z" stroke-width=".374"/><path d="M240.048 156.576a4.253 4.032 0 1 0 0 8.064 4.253 4.032 0 1 0 0-8.064z" fill="#005bbf" stroke-width=".25"/><path d="M238.934 149.318v2.17h-2.323v2.208h2.323v6.346h-2.928c-.028.201-.21.355-.21.566 0 .557.114 1.094.335 1.574 0 .02.02.02.029.03h7.795c0-.01.02-.01.029-.03.211-.48.336-1.017.336-1.574 0-.211-.182-.365-.211-.566h-2.842v-6.346h2.323v-2.208h-2.323v-2.17z" stroke-width=".25"/></g><g fill="#fff" stroke-width=".374"><path d="M240.038 179.654a1.834 1.728 0 1 0 0 3.456 1.834 1.728 0 1 0 0-3.456z"/><path d="M240.038 176.256a1.834 1.728 0 1 0 0 3.456 1.834 1.728 0 1 0 0-3.456zm0-3.302a1.46 1.382 0 1 0 0 2.764 1.46 1.382 0 1 0 0-2.764zm0-2.9a1.056.998 0 1 0 0 1.997 1.056.998 0 1 0 0-1.997zm0-2.678a.845.797 0 1 0 0 1.594.845.797 0 1 0 0-1.594zm-49.056 22.349a1.056.998 0 1 0 0 1.997 1.056.998 0 1 0 0-1.997zm-1.44-2.545a1.056.998 0 1 0 0 1.998 1.056.998 0 1 0 0-1.997zm-.96-2.956a1.056.998 0 1 0 0 1.997 1.056.998 0 1 0 0-1.997zm-.124-3.168a1.056.998 0 1 0 0 1.997 1.056.998 0 1 0 0-1.997zm.777-3.11a1.056.998 0 1 0 0 1.996 1.056.998 0 1 0 0-1.996zm1.623-2.832a1.056.998 0 1 0 0 1.996 1.056.998 0 1 0 0-1.996zm2.16-2.334a1.056.998 0 1 0 0 1.998 1.056.998 0 1 0 0-1.997zm2.515-1.929a1.056.998 0 1 0 0 1.997 1.056.998 0 1 0 0-1.997zm2.995-1.584a1.056.998 0 1 0 0 1.997 1.056.998 0 1 0 0-1.997zm3.11-1.123a1.056.998 0 1 0 0 1.997 1.056.998 0 1 0 0-1.997zm3.476-.624a1.056.998 0 1 0 0 1.997 1.056.998 0 1 0 0-1.997zm3.302-.173a1.056.998 0 1 0 0 1.997 1.056.998 0 1 0 0-1.997zm3.235.115a1.056.998 0 1 0 0 1.997 1.056.998 0 1 0 0-1.997zm3.591 14.247a1.056.998 0 1 0 0 1.997 1.056.998 0 1 0 0-1.997zm-1.796-2.563a1.056.998 0 1 0 0 1.996 1.056.998 0 1 0 0-1.996zm-.95-2.784a1.056.998 0 1 0 0 1.996 1.056.998 0 1 0 0-1.996zm.115-3.053a1.056.998 0 1 0 0 1.997 1.056.998 0 1 0 0-1.997zm.663-3.072a1.056.998 0 1 0 0 1.997 1.056.998 0 1 0 0-1.997zm1.612-2.775a1.056.998 0 1 0 0 1.997 1.056.998 0 1 0 0-1.997zm2.458-1.929a1.056.998 0 1 0 0 1.997 1.056.998 0 1 0 0-1.997zm2.87-1.593a1.056.998 0 1 0 0 1.996 1.056.998 0 1 0 0-1.997zm3.178-.951a1.056.998 0 1 0 0 1.997 1.056.998 0 1 0 0-1.997zm3.293-.567a1.056.998 0 1 0 0 1.997 1.056.998 0 1 0 0-1.997zm3.235.048a1.056.998 0 1 0 0 1.997 1.056.998 0 1 0 0-1.997zm3.35.567a1.056.998 0 1 0 0 1.997 1.056.998 0 1 0 0-1.997zm3.11 1.075a1.056.998 0 1 0 0 1.997 1.056.998 0 1 0 0-1.997zm7.268 0a1.056.998 0 1 0 0 1.997 1.056.998 0 1 0 0-1.997zm3.11-1.075a1.056.998 0 1 0 0 1.997 1.056.998 0 1 0 0-1.997zm3.36-.567a1.056.998 0 1 0 0 1.997 1.056.998 0 1 0 0-1.997zm3.226-.048a1.056.998 0 1 0 0 1.997 1.056.998 0 1 0 0-1.997zm3.302.567a1.056.998 0 1 0 0 1.997 1.056.998 0 1 0 0-1.997zm3.168.951a1.056.998 0 1 0 0 1.996 1.056.998 0 1 0 0-1.997zm2.88 1.593a1.056.998 0 1 0 0 1.997 1.056.998 0 1 0 0-1.997zm2.448 1.929a1.056.998 0 1 0 0 1.997 1.056.998 0 1 0 0-1.997zm1.623 2.775a1.056.998 0 1 0 0 1.997 1.056.998 0 1 0 0-1.997zm.662 3.072a1.056.998 0 1 0 0 1.997 1.056.998 0 1 0 0-1.997zm.115 3.053a1.056.998 0 1 0 0 1.996 1.056.998 0 1 0 0-1.996zm-.96 2.784a1.056.998 0 1 0 0 1.996 1.056.998 0 1 0 0-1.996zm-1.785 2.563a1.056.998 0 1 0 0 1.997 1.056.998 0 1 0 0-1.997zm3.59-14.247a1.056.998 0 1 0 0 1.997 1.056.998 0 1 0 0-1.997zm3.235-.115a1.056.998 0 1 0 0 1.997 1.056.998 0 1 0 0-1.997zm3.303.173a1.056.998 0 1 0 0 1.997 1.056.998 0 1 0 0-1.997zm3.475.624a1.056.998 0 1 0 0 1.997 1.056.998 0 1 0 0-1.997zm3.11 1.123a1.056.998 0 1 0 0 1.997 1.056.998 0 1 0 0-1.997zm2.996 1.584a1.056.998 0 1 0 0 1.997 1.056.998 0 1 0 0-1.997zm2.505 1.929a1.056.998 0 1 0 0 1.998 1.056.998 0 1 0 0-1.997zm2.16 2.334a1.056.998 0 1 0 0 1.996 1.056.998 0 1 0 0-1.996zm1.623 2.832a1.056.998 0 1 0 0 1.996 1.056.998 0 1 0 0-1.996zm.777 3.11a1.056.998 0 1 0 0 1.997 1.056.998 0 1 0 0-1.997zm-.115 3.168a1.056.998 0 1 0 0 1.997 1.056.998 0 1 0 0-1.997zm-.96 2.956a1.056.998 0 1 0 0 1.998 1.056.998 0 1 0 0-1.997zm-1.44 2.545a1.056.998 0 1 0 0 1.997 1.056.998 0 1 0 0-1.997z"/></g><g fill="#c8b100" stroke-width=".374"><path d="M240.144 217.133c-11.77-.02-22.32-1.411-29.846-3.677-.548-.173-.836-.672-.807-1.2-.01-.5.279-.96.807-1.123 7.526-2.266 18.076-3.658 29.846-3.677 11.78.02 22.32 1.411 29.846 3.677.528.163.807.624.797 1.123.029.528-.259 1.027-.797 1.2-7.526 2.266-18.067 3.658-29.846 3.677"/><path d="M240.067 207.446c-11.913.03-22.608 1.517-30.134 3.84.624-.297.566-1.075-.211-3.072-.941-2.428-2.4-2.323-2.4-2.323 8.313-2.457 19.9-3.993 32.793-4.013 12.903.02 24.576 1.556 32.9 4.013 0 0-1.47-.105-2.41 2.323-.778 1.997-.835 2.775-.202 3.072-7.526-2.323-18.422-3.81-30.336-3.84"/><path d="M240.115 201.888c-12.893.02-24.48 1.555-32.793 4.013-.557.163-1.143-.048-1.325-.576a1.016 1.016 0 0 1 .672-1.296c8.361-2.563 20.237-4.176 33.446-4.205 13.22.029 25.143 1.642 33.504 4.205.557.163.855.768.672 1.296-.182.528-.768.739-1.325.576-8.323-2.458-19.948-3.994-32.85-4.013"/><path d="M240.192 191.789l1.18.211c-.182.48-.23 1.008-.23 1.565 0 2.467 2.122 4.464 4.724 4.464 2.092 0 3.878-1.296 4.483-3.082.077.048.451-1.613.653-1.593.163.019.144 1.728.21 1.699.298 2.246 2.362 3.773 4.676 3.773 2.602 0 4.714-1.997 4.714-4.464 0-.183-.01-.365-.039-.548l1.479-1.459.796 1.863c-.316.585-.441 1.248-.441 1.948 0 2.362 2.016 4.263 4.502 4.263 1.565 0 2.938-.749 3.744-1.891l.95-1.2-.009 1.468c0 1.488.634 2.813 2.074 3.053 0 0 1.66.096 3.868-1.632 2.199-1.728 3.408-3.158 3.408-3.158l.192 1.728s-1.824 2.832-3.81 3.984c-1.095.633-2.746 1.296-4.062 1.085-1.382-.23-2.38-1.344-2.89-2.63a6.687 6.687 0 0 1-3.407.93c-2.698 0-5.117-1.478-6.067-3.705-1.239 1.344-2.967 2.16-4.992 2.16-2.15 0-4.119-.97-5.348-2.458a6.91 6.91 0 0 1-4.684 1.795c-2.381 0-4.503-1.17-5.703-2.928-1.2 1.757-3.321 2.928-5.702 2.928-1.815 0-3.466-.681-4.675-1.795-1.23 1.488-3.207 2.458-5.357 2.458-2.026 0-3.744-.816-4.983-2.16-.96 2.227-3.379 3.705-6.067 3.705a6.66 6.66 0 0 1-3.408-.93c-.518 1.286-1.507 2.4-2.899 2.63-1.306.21-2.957-.452-4.051-1.085-1.997-1.152-3.821-3.984-3.821-3.984l.192-1.728s1.22 1.43 3.418 3.158c2.198 1.738 3.859 1.632 3.859 1.632 1.45-.24 2.073-1.565 2.073-3.053l-.01-1.468.951 1.2c.807 1.142 2.189 1.89 3.744 1.89 2.487 0 4.503-1.9 4.503-4.262 0-.7-.125-1.363-.442-1.948l.797-1.863 1.478 1.46a5.272 5.272 0 0 0-.038.547c0 2.467 2.112 4.464 4.713 4.464 2.324 0 4.378-1.527 4.685-3.773.058.029.048-1.68.211-1.7.192-.019.576 1.642.644 1.594.614 1.786 2.39 3.082 4.492 3.082 2.602 0 4.714-1.997 4.714-4.464 0-.557-.029-1.085-.23-1.565l1.238-.211"/><path d="M200.035 198.067a2.15 2.15 0 0 0-.691-1.017c-.758-.653-1.766-.759-2.266-.24a.966.966 0 0 0-.163.24s-1.065-1.997-2.313-2.67c-1.239-.671-3.35-.498-3.35-.498 0-1.536 1.247-2.775 2.87-2.775.95 0 1.843.394 2.38 1.066l.221-1.027s1.306.259 1.901 1.747-.058 3.648-.058 3.648.327-.922.816-1.546c.49-.614 1.738-1.286 2.39-1.593.644-.298 1.316-.759 1.316-.759s.029.173.048.586c.029.49-.01.797-.01.797 1.19-.164 2.583.038 3.677.46-.47.912-1.353 1.767-2.515 2.208 0 0 .422.346.797.72.326.327.422.47.422.47s-.816.126-1.219.183c-.413.048-1.766.269-2.582.211a15.105 15.105 0 0 1-1.67-.21"/><path d="M197.078 196.81c.5-.519 1.508-.413 2.266.24.768.643.98 1.593.49 2.102-.49.518-1.508.403-2.266-.24-.758-.653-.98-1.594-.49-2.102" fill="#ad1519"/><path d="M207.734 197.674c-.268-.797-.028-1.584.548-1.757.576-.183 1.267.317 1.536 1.113.268.797.028 1.584-.548 1.767-.576.173-1.257-.327-1.536-1.123" fill="#fff"/><path d="M217.075 193.786c-.317-.26-.566-.615-.643-1.037a1.68 1.68 0 0 1 .22-1.181s-.844-.422-1.756-.662c-.691-.183-1.91-.192-2.275-.192a39.417 39.417 0 0 0-1.104-.03s.067.164.269.529c.259.441.48.72.48.72-1.22.278-2.256 1.075-2.91 2.006.951.653 2.209 1.056 3.457.931 0 0-.115.327-.192.826-.058.413-.058.586-.058.586l1.027-.375c.336-.125 1.479-.528 2.064-.921.768-.519 1.421-1.2 1.421-1.2"/><path d="M216.653 183.984c1.017.643 1.9 1.718 2.208 2.909 0 0 .125-.24.681-.567.567-.316 1.047-.307 1.047-.307s-.163.931-.24 1.267c-.087.327-.087 1.325-.307 2.228a7.827 7.827 0 0 1-.605 1.612 1.903 1.903 0 0 0-1.517-.393 1.794 1.794 0 0 0-1.267.864s-.634-.557-1.162-1.325c-.528-.778-.893-1.709-1.085-1.997-.201-.288-.69-1.104-.69-1.104s.45-.173 1.094-.048c.643.115.844.307.844.307-.134-1.228.27-2.515.999-3.446"/><path d="M219.811 193.325a1.658 1.658 0 0 0-.403-2.208s.643-.682 1.411-1.21c.576-.393 1.728-.787 2.064-.912.346-.125 1.027-.384 1.027-.384s0 .173-.057.586c-.077.499-.192.835-.192.835 1.248-.134 2.515.278 3.465.94-.662.932-1.699 1.72-2.918 1.998 0 0 .22.268.48.71.202.374.269.538.269.538l-1.104-.03c-.365 0-1.584-.009-2.275-.191-.912-.24-1.767-.663-1.767-.663"/><path d="M218.275 190.454a2.083 1.978 0 1 0 0 3.956 2.083 1.978 0 1 0 0-3.956z" fill="#ad1519"/><path d="M228.25 193.7c-.106-.836.297-1.566.892-1.633.605-.067 1.181.547 1.287 1.383.105.825-.288 1.564-.893 1.632-.595.067-1.171-.548-1.286-1.383" fill="#fff"/><path d="M238.56 191.837a1.923 1.923 0 0 1-.509-1.277c0-.48.183-.931.49-1.267 0 0-.855-.643-1.815-1.075-.739-.336-2.092-.567-2.496-.644a827.43 827.43 0 0 1-1.228-.23s.038.192.192.643c.192.538.384.893.384.893-1.412.077-2.736.778-3.658 1.69.922.902 2.246 1.593 3.658 1.68 0 0-.192.345-.384.892a5.243 5.243 0 0 0-.192.644s.816-.154 1.228-.23c.404-.078 1.757-.308 2.496-.644a12.913 12.913 0 0 0 1.834-1.066"/><path d="M240.106 180.826c1.008.912 1.776 2.265 1.872 3.667 0 0 .182-.26.873-.509.701-.25 1.229-.154 1.229-.154s-.374 1.008-.528 1.364c-.163.355-.374 1.468-.806 2.428-.423.96-1.008 1.69-1.008 1.69a2.15 2.15 0 0 0-1.604-.72c-.652 0-1.219.288-1.603.72 0 0-.585-.73-1.008-1.69-.432-.96-.643-2.073-.806-2.428-.163-.356-.538-1.364-.538-1.364s.538-.096 1.229.154c.691.25.883.509.883.509.096-1.402.826-2.755 1.815-3.667"/><path d="M241.69 191.837a1.88 1.88 0 0 0 .508-1.277c0-.48-.182-.931-.49-1.267 0 0 .855-.643 1.825-1.075.73-.336 2.083-.567 2.496-.644l1.21-.23s-.02.192-.183.643c-.192.538-.384.893-.384.893 1.411.077 2.746.778 3.658 1.69-.912.902-2.237 1.593-3.658 1.68 0 0 .192.345.384.892.154.442.182.644.182.644l-1.21-.23c-.412-.078-1.766-.308-2.495-.644a12.64 12.64 0 0 1-1.843-1.066"/><path d="M240.134 188.582a2.083 1.978 0 1 0 0 3.956 2.083 1.978 0 1 0 0-3.956z" fill="#ad1519"/><path d="M252.077 193.7c.105-.836-.288-1.566-.893-1.633-.605-.067-1.18.547-1.286 1.383-.106.825.297 1.564.892 1.632.605.067 1.181-.548 1.287-1.383" fill="#fff"/><path d="M260.525 193.325a1.723 1.723 0 0 1-.24-1.181c.086-.422.317-.778.643-1.027 0 0-.643-.682-1.411-1.21-.586-.393-1.728-.787-2.074-.912-.336-.125-1.017-.384-1.017-.384s-.01.173.057.586c.077.499.183.835.183.835-1.239-.134-2.506.278-3.456.94.652.932 1.699 1.72 2.908 1.998 0 0-.22.268-.47.71a4.007 4.007 0 0 0-.269.538l1.095-.03c.364 0 1.593-.009 2.275-.191.912-.24 1.766-.663 1.766-.663"/><path d="M263.683 183.984c-1.017.643-1.9 1.718-2.217 2.909 0 0-.116-.24-.682-.567-.557-.316-1.046-.307-1.046-.307s.163.931.25 1.267c.086.327.086 1.325.297 2.228.22.892.614 1.612.614 1.612a1.89 1.89 0 0 1 1.507-.393 1.813 1.813 0 0 1 1.277.864s.634-.557 1.162-1.325c.518-.778.883-1.709 1.075-1.997.202-.288.691-1.104.691-1.104s-.451-.173-1.094-.048c-.643.115-.845.307-.845.307.144-1.228-.269-2.515-.989-3.446"/><path d="M263.251 193.786c.327-.26.576-.615.643-1.037.087-.423 0-.835-.21-1.181 0 0 .844-.422 1.756-.662.691-.183 1.91-.192 2.266-.192.374-.02 1.104-.03 1.104-.03s-.058.164-.27.529c-.249.441-.47.72-.47.72 1.21.278 2.247 1.075 2.91 2.006-.951.653-2.218 1.056-3.457.931 0 0 .106.327.183.826.057.413.057.586.057.586s-.681-.25-1.017-.375c-.346-.125-1.488-.528-2.074-.921-.758-.519-1.42-1.2-1.42-1.2"/><path d="M262.06 190.454a2.083 1.978 0 1 0 0 3.956 2.083 1.978 0 1 0 0-3.956z" fill="#ad1519"/><path d="M272.602 197.674c.268-.797.028-1.584-.548-1.757-.576-.183-1.267.317-1.545 1.113-.269.797-.029 1.584.547 1.767.576.173 1.267-.327 1.546-1.123" fill="#fff"/><path d="M280.291 198.067c.106-.355.346-.72.691-1.017.759-.653 1.776-.759 2.266-.24.067.067.134.163.173.24 0 0 1.056-1.997 2.304-2.67 1.248-.671 3.36-.498 3.36-.498 0-1.536-1.258-2.775-2.88-2.775-.95 0-1.843.394-2.371 1.066l-.221-1.027s-1.306.259-1.901 1.747.048 3.648.048 3.648-.317-.922-.806-1.546c-.49-.614-1.738-1.286-2.39-1.593-.654-.298-1.316-.759-1.316-.759s-.029.173-.058.586c-.019.49.02.797.02.797-1.2-.164-2.592.038-3.677.46.46.912 1.344 1.767 2.505 2.208 0 0-.412.346-.796.72-.317.327-.413.47-.413.47s.816.126 1.219.183c.413.048 1.766.269 2.573.211a14.807 14.807 0 0 0 1.67-.21"/><path d="M283.248 196.81c-.49-.519-1.507-.413-2.266.24-.758.643-.979 1.593-.49 2.102.49.518 1.508.403 2.266-.24.759-.653.98-1.594.49-2.102" fill="#ad1519"/></g><g fill="none"><path d="M240.115 215.587c-10.617-.01-20.227-1.238-27.533-3.13 7.306-1.89 16.916-3.043 27.533-3.062 10.627.02 20.285 1.171 27.59 3.063-7.305 1.89-16.963 3.12-27.59 3.13z" fill="#ad1519" stroke-linejoin="round" stroke-width=".374"/><path d="M247.718 215.309v-5.77m-2.899 5.962l.039-6.115m-2.15 6.192v-6.23" stroke-width=".048"/><path d="M240.912 215.654v-6.307" stroke-width=".086"/><path d="M239.194 215.654v-6.307" stroke-width=".134"/><path d="M237.58 215.654v-6.307" stroke-width=".173"/><path d="M235.978 215.654v-6.307" stroke-width=".221"/><path d="M234.547 215.654v-6.307" stroke-width=".269"/><path d="M231.82 215.309l-.038-5.731m1.335 5.808v-6" stroke-width=".317"/><path d="M229.306 215.05v-5.28m1.276 5.433l-.038-5.625" stroke-width=".355"/><path d="M225.936 214.752v-4.646m1.104 4.723v-4.877m1.142 5.03v-5.068" stroke-width=".403"/><path d="M224.755 214.714v-4.493" stroke-width=".442"/><path d="M223.651 214.483v-4.185" stroke-width=".49"/><path d="M222.47 214.378v-3.898" stroke-width=".538"/><path d="M220.051 214.032l-.038-3.091m1.277 3.245v-3.476" stroke-width=".576"/><path d="M218.813 213.773v-2.727" stroke-width=".605"/><path d="M217.67 213.552v-2.266" stroke-width=".653"/><path d="M216.432 213.245v-1.776" stroke-width=".701"/><path d="M215.155 213.1v-1.324" stroke-width=".739"/><path d="M213.811 212.794v-.644" stroke-width=".874"/><path d="M211.315 212.794c7.44-2.093 17.559-3.38 28.8-3.399 11.251.02 21.418 1.306 28.858 3.399" stroke-width=".374"/><path d="M208.051 208.474l1.171-1.527 3.236.413-2.583 1.882-1.824-.768" fill="#ad1519" stroke-width=".374"/><path d="M215.069 206.669c0-.557.47-.999 1.056-.999.585 0 1.056.442 1.056.999 0 .547-.47.998-1.056.998-.586 0-1.056-.451-1.056-.998" fill="#fff" stroke-width=".374"/><path d="M224.294 206.467l-2.265.26c-.586.067-1.123-.317-1.19-.865-.077-.547.335-1.046.921-1.104l2.275-.268 2.323-.27c.576-.066 1.104.318 1.172.865.067.547-.346 1.046-.922 1.113l-2.314.27" fill="#058e6e" stroke-width=".374"/><path d="M230.918 204.816c0-.557.47-.998 1.056-.998.576 0 1.056.441 1.056.998 0 .547-.48.998-1.056.998-.585 0-1.056-.45-1.056-.998" fill="#fff" stroke-width=".374"/><path d="M240.144 205.594h-3.158c-.576 0-1.066-.442-1.066-.99 0-.556.47-.998 1.056-.998h6.374c.586 0 1.056.442 1.056.999 0 .547-.49.989-1.065.989h-3.197" fill="#ad1519" stroke-width=".374"/><path d="M247.258 204.816c0-.557.48-.998 1.056-.998.585 0 1.056.441 1.056.998 0 .547-.47.998-1.056.998-.576 0-1.056-.45-1.056-.998" fill="#fff" stroke-width=".374"/><path d="M255.994 206.467l2.265.26c.576.067 1.123-.317 1.19-.865.068-.547-.345-1.046-.921-1.104l-2.275-.268-2.323-.27c-.586-.066-1.104.318-1.172.865-.076.547.346 1.046.922 1.113l2.314.27" fill="#058e6e" stroke-width=".374"/><path d="M263.107 206.669c0-.557.47-.999 1.056-.999.586 0 1.056.442 1.056.999 0 .547-.47.998-1.056.998-.585 0-1.056-.451-1.056-.998" fill="#fff" stroke-width=".374"/><path d="M272.227 208.474l-1.161-1.527-3.236.413 2.583 1.882 1.814-.768" fill="#ad1519" stroke-width=".374"/></g><g stroke-width=".52"><path d="M240.47 330.557c-12.556 0-25.008-3.072-35.472-8.199-7.708-3.82-12.825-11.52-12.825-20.342v-31.968h96.403v31.968c0 8.822-5.107 16.522-12.826 20.342-10.464 5.127-22.713 8.199-35.28 8.199z" fill="#ccc" stroke-width=".499"/><path d="M242.794 316.368c2.006.605 3.024 2.102 3.024 3.85 0 2.284-2.208 4.012-5.088 4.012-2.87 0-5.204-1.728-5.204-4.012 0-1.719.96-3.648 2.957-3.783 0 0-.057-.182-.23-.48-.211-.22-.615-.633-.615-.633s.759-.144 1.2.019c.442.173.74.451.74.451s.201-.413.499-.73c.288-.316.672-.508.672-.508s.441.364.585.614c.144.26.24.566.24.566s.404-.336.759-.47c.355-.144.806-.25.806-.25s-.125.442-.211.663c-.086.22-.134.691-.134.691" fill="#ffd691" stroke-width=".499"/><path d="M240.307 326.707s-3.82-2.573-5.472-2.918c-2.121-.451-4.502-.087-5.53-.144.03.029 1.239.893 1.767 1.42.528.529 2.294 1.585 3.293 1.834 3.091.778 5.942-.192 5.942-.192m1.095.231s2.438-2.554 5.001-2.9c3.024-.422 5.011.25 6.183.557.028 0-.97.47-1.498.835-.528.356-1.891 1.508-3.974 1.527-2.093.029-4.397-.221-4.772-.163-.384.057-.94.144-.94.144" fill="#058e6e" stroke-width=".499"/><path d="M240.662 323.789a4.854 4.854 0 0 1-1.555-3.571 4.82 4.82 0 0 1 1.565-3.562 4.877 4.877 0 0 1-.01 7.133" fill="#ad1519" stroke-width=".499"/><path d="M239.693 329.002s.585-1.46.643-2.717c.058-1.047-.144-2.083-.144-2.083h.768s.374 1.113.374 2.083c0 .979-.172 2.275-.172 2.275s-.528.077-.701.163c-.183.087-.768.279-.768.279" fill="#058e6e" stroke-width=".499"/><g fill="#c8b100" stroke-width=".499"><path d="M240.307 301.987c0 12.634-10.713 22.867-24.048 22.867-13.334 0-24.144-10.233-24.144-22.867v-32.016h48.192v32.016" fill="#ad1519"/><path d="M192.029 301.555c.144 6.74 2.832 11.76 5.5 15.043v-47.49h-5.433zm10.608 19.305c1.507.798 3.571 2.132 5.789 2.66l-.144-54.682h-5.645zm10.752 3.86c2.208.22 3.85.182 5.635 0v-55.882h-5.635zm10.598-1.2c2.208-.442 4.704-1.814 5.789-2.525v-52.157h-5.645zm11.031-7.45c2.352-2.092 4.56-6.835 5.366-12.25l.134-34.982h-5.635z"/></g><g transform="scale(.96)"><path d="M300.65 281.22v33.35c0 13.16-11.28 23.82-25.17 23.82-13.9 0-25.16-10.66-25.16-23.82v-33.35h50.33" fill="#ad1519"/><path d="M272.71 306.14c.05-.14.12-.27.19-.4l-4.26-4.74-1.67.72-3.06-3.39 1-1.46-5.34-5.99c-.07.02-.2.02-.27.04l.03 4.02 1.75.5v4.46l-1.75.48-.03 4.08c.84.26 1.48.88 1.74 1.67l3.21.01.51-1.67h4.72l.5 1.67zm-6.98-18.5v1.61h2.76v-1.61zm-7.3 20.37c.64 0 1.16-.49 1.16-1.1 0-.61-.52-1.11-1.16-1.11-.65 0-1.17.5-1.17 1.11 0 .61.52 1.1 1.17 1.1zm15.99-9.73l-1.76-.48v-4.46l1.76-.5-.01-1.92c-.85-.25-1.51-.87-1.79-1.67h-2.68l-.51 1.67h-4.71l-.51-1.67h-3.09c-.08.22-.17.42-.29.61l5.38 5.96 1.67-.71 3.06 3.4-1 1.45 4.18 4.64c.09-.04.18-.08.28-.12zm-7.25-1.39l-1.29 1.04 1.77 1.98 1.29-1.05zm8.004 36.186c-1.24-.065-2.255-.902-2.514-2.016-1.67-.23-3.25-.66-4.73-1.3l.84-1.43c1.29.55 2.66.91 4.08 1.11.31-.66.86-1.16 1.58-1.4l.01-5.62-1.76-.49v-4.46l1.76-.48v-7.64a.882.882 0 0 1-.2-.09l-3.98 4.42 1 1.44-3.06 3.4-1.67-.71-3.3 3.67c.57.87.55 2-.11 2.85a15.58 15.58 0 0 0 3.24 2.75l-.84 1.44c-1.42-.89-2.7-1.99-3.79-3.22-.87.26-1.86.11-2.6-.5-1.15-.93-1.29-2.56-.3-3.64l.14-.16c-.69-1.56-1.16-3.24-1.32-5l1.71.01c.14 1.5.51 2.93 1.09 4.27.49-.06 1-.01 1.46.16l3.32-3.68-1-1.45 3.06-3.4 1.67.72 3.99-4.43a2.15 2.15 0 0 1-.21-.46l-2.76.01-.5 1.67h-4.72l-.51-1.67-3.24-.01c-.27.76-.9 1.36-1.69 1.62l-.01 4.04-1.71-.01v-4.01c-1.1-.33-1.91-1.31-1.91-2.47 0-1.15.82-2.15 1.92-2.48l.01-4.05-1.76-.48v-4.46l1.76-.5v-4.05c-1.08-.35-1.84-1.32-1.84-2.45 0-1.43 1.22-2.58 2.73-2.58 1.22 0 2.25.74 2.61 1.78h3.09l.51-1.67h4.71l.51 1.67h2.68c.357-1.031 1.363-1.767 2.559-1.78l.071 8.37h-.85v2.61h.845l-.021 21.59h-.784v2.61h.78zm-5.914-18.306l-1.29-1.04-1.78 1.98 1.29 1.04zm-9.96-18.44h-1.69l-.01 2.61h1.7zm9.16 11.41v-1.6h-2.85v1.6zm-10.6 9.69l-1.76-.39-.25-4.45 1.75-.58v2.56c0 .99.09 1.92.26 2.86zm1.46-5.52l1.75.41s.09 2.87.05 2.22c-.04-.74.19 2.24.19 2.24l-1.76.58c-.18-.9-.24-1.84-.24-2.79zm10.81 16.93l.39-1.7c-1.52-.48-2.93-1.18-4.17-2.09l-1.26 1.11c1.48 1.15 3.19 2.08 5.04 2.68zm-.85 1.44l-1.3 1.22c-1.47-.54-2.86-1.26-4.12-2.11l.38-1.77c1.5 1.13 3.21 2.03 5.04 2.66z" fill="#c8b100" id="flag-es-e" stroke="#c8b100" stroke-width=".26"/><use transform="matrix(-1 0 0 1 550.43 0)" xlink:href="#flag-es-e"/><path d="M272.59 306.94c0-1.44 1.23-2.6 2.74-2.6 1.51 0 2.73 1.16 2.73 2.6 0 1.43-1.22 2.58-2.73 2.58s-2.74-1.15-2.74-2.58" fill="#058e6e" stroke="none"/></g><g fill="#c8b100" stroke-width=".46"><path d="M192.115 270h48.173v-53.491h-48.173z" fill="#ad1519" stroke-width=".499"/><path d="M208.646 228.874h-.883v-.884h-1.555v3.543h1.555v2.448h-3.331v7.094h1.776v14.199h-3.552v7.324h27.283v-7.324h-3.542v-14.199h1.776v-7.094h-3.331v-2.448h1.555v-3.543h-1.555v.884h-.893v-.884h-1.546v.884h-1.113v-.884h-1.556v3.543h1.556v2.448h-3.322v-7.767h1.766v-3.552h-1.766v.893h-.893v-.893h-1.555v.893h-.883v-.893h-1.776v3.552h1.776v7.767h-3.331v-2.448h1.555v-3.543h-1.555v.884h-.884v-.884h-1.776zm-5.99 33.724h27.283m-27.283-1.776h27.283m-27.283-1.776h27.283m-27.283-1.776h27.283m-27.283-1.996h27.283m-23.731-1.556h20.189m-20.189-1.776h20.189m-20.189-1.996h20.189m-20.189-1.767h20.189m-20.189-1.776h20.189m-20.189-1.776h20.189m-20.189-1.776h20.189m-21.965-1.776h23.74m-23.74-1.776h23.74m-23.74-1.776h23.74m-23.74-1.766h23.74m-20.409-1.776h17.079m-10.205-1.776h3.331m-3.331-1.776h3.331m-3.331-1.776h3.331m-3.331-1.776h3.331m-5.107-2.218h6.873m-11.97 7.546h3.542m-5.098-2.218h6.653m-6.653 32.611v-1.776m0-1.776v-1.776m-1.776 1.776v1.776m3.331 0v-1.776m1.767 3.552v-1.776m0-1.776v-1.776m0-1.996v-1.556m0-1.776v-1.996m-1.767 7.324v-1.996m-3.331 1.996v-1.996m6.874 0v1.996m1.555-1.996v-1.556m-5.098-1.776v1.776m3.543-1.776v1.776m3.33-1.776v1.776m-1.775-1.776v-1.996m1.776-1.767v1.767m0-5.319v1.776m-1.776-3.552v1.776m1.776-3.552v1.776m-3.331-1.776v1.776m-3.543-1.776v1.776m-1.555-3.552v1.776m3.322-1.776v1.776m3.33-1.776v1.776m1.777-3.552v1.776m-3.331-1.776v1.776m-3.543-1.776v1.776m-1.555-3.542v1.766m6.653-1.766v1.766m-3.331-5.318v1.776m15.312-1.776h-3.552m5.107-2.218h-6.663m6.663 32.611v-1.776m0-1.776v-1.776m1.776 1.776v1.776m-3.331 0v-1.776m-1.776 3.552v-1.776m0-1.776v-1.776m0-1.996v-1.556m0-1.776v-1.996m1.776 7.324v-1.996m3.33 1.996v-1.996m-6.882 0v1.996m-1.556-1.996v-1.556m5.108-1.776v1.776m-3.552-1.776v1.776m-3.322-1.776v1.776m1.766-1.776v-1.996m-1.766-1.767v1.767m0-5.319v1.776m1.766-3.552v1.776m-1.766-3.552v1.776m3.322-1.776v1.776m3.552-1.776v1.776m1.555-3.552v1.776m-3.331-1.776v1.776m-3.332-1.776v1.776m-1.766-3.552v1.776m3.322-1.776v1.776m3.552-1.776v1.776m1.555-3.542v1.766m-6.663-1.766v1.766m3.332-5.318v1.776m-6.874 17.961v-1.996m0-5.319v-1.776m0 5.328v-1.776m0-5.328V239.3m0-1.776v-1.766m0-3.552v-1.776m0-1.776v-1.776m-8.429 4.656h3.543m3.33-5.319h3.332m3.322 5.319h3.552" stroke-width=".442"/><path d="M220.848 262.598v-4.665c0-.883-.442-3.552-4.656-3.552-3.994 0-4.435 2.669-4.435 3.552v4.665z" stroke-width=".442"/><path d="M213.302 258.154l-2.217-.221c0-.883.22-2.218.893-2.66l1.996 1.556c-.22.22-.672.883-.672 1.325zm3.773-2.218l1.114-1.997c-.442-.22-1.335-.441-1.997-.441-.442 0-1.334.22-1.776.441l1.104 1.997zm2.218 2.218l2.217-.221c0-.883-.22-2.218-.883-2.66l-1.997 1.556c.221.22.663.883.663 1.325zm-6.433-7.757v-4.887c0-1.324-.882-2.438-2.438-2.438-1.555 0-2.438 1.114-2.438 2.438v4.887zm6.874 0v-4.887c0-1.324.893-2.438 2.448-2.438 1.546 0 2.439 1.114 2.439 2.438v4.887zm-8.428-11.981l.22-4.435h-4.214l.451 4.435zm6.662 0l.442-4.435h-4.215l.221 4.435zm3.322 0l-.442-4.435h4.435l-.441 4.435z" stroke-width=".442"/><path d="M219.293 262.598v-3.993c0-.672-.442-2.669-3.101-2.669-2.438 0-2.89 1.997-2.89 2.669v3.993zm-6.873-12.652v-4.215c0-1.104-.663-2.217-1.998-2.217-1.334 0-1.996 1.113-1.996 2.217v4.215zm7.766 0v-4.215c0-1.104.662-2.217 1.996-2.217 1.325 0 1.997 1.113 1.997 2.217v4.215z" fill="#0039f0" stroke="none"/></g><path d="M240.269 270h48.307v-53.491h-48.307z" fill="#ccc" stroke-width=".499"/><path d="M264.893 229.69l.048-.596.086-.326s-1.545.125-2.361-.106c-.816-.23-1.546-.566-2.304-1.2-.759-.652-1.056-1.056-1.604-1.132-1.305-.212-2.304.384-2.304.384s.98.355 1.71 1.257c.729.903 1.526 1.354 1.871 1.469.567.173 2.554.048 3.091.067.548.029 1.767.183 1.767.183z" fill="#db4446" stroke-width=".374"/><g fill="none" stroke-width=".39"><path d="M272.122 227.52s.01.691.076 1.344c.058.643-.21 1.19-.105 1.546.105.355.153.633.288.892.134.25.201.903.201.903s-.364-.269-.71-.519c-.336-.259-.576-.422-.576-.422l.096.989c.038.297.211.854.49 1.19.278.317.835.855 1.008 1.277.172.432.134 1.382.134 1.382s-.442-.72-.835-.854c-.375-.134-1.21-.595-1.21-.595s.759.758.759 1.488c0 .72-.308 1.536-.308 1.536s-.345-.653-.796-1.075a10.02 10.02 0 0 0-1.085-.864s.499 1.123.499 1.872c0 .758-.144 2.37-.144 2.37s-.374-.614-.758-.92c-.384-.298-.836-.558-.98-.75-.134-.201.461.615.519 1.114.067.49.307 2.256 1.843 4.502.902 1.316 2.294 3.62 5.28 2.861 2.986-.749 1.882-4.771 1.248-6.643-.624-1.872-.94-3.946-.902-4.675.038-.72.556-2.851.49-3.255-.068-.393-.231-1.92.134-3.148.384-1.277.7-1.776.912-2.304.201-.528.374-.826.441-1.287.067-.46.067-1.315.067-1.315s.557 1.018.701 1.382c.135.365.135 1.44.135 1.44s.105-1.075.94-1.603c.836-.528 1.805-1.085 2.045-1.382.24-.298.317-.49.317-.49s-.077 1.843-.595 2.563c-.346.47-1.7 2.007-1.7 2.007s.701-.269 1.181-.288c.49-.039.836 0 .836 0s-.596.46-1.354 1.574c-.768 1.114-.451 1.21-1.008 2.131-.557.922-1.008.96-1.709 1.517-1.037.835-.48 4.167-.345 4.666.144.49 1.948 4.57 1.987 5.558.029.989.201 3.197-1.536 4.608-1.114.912-2.947.922-3.37 1.181-.413.269-1.238 1.085-1.238 2.794 0 1.718.614 1.977 1.104 2.41.49.422 1.113.191 1.248.527.144.327.211.519.422.72.202.192.346.423.279.787-.077.365-.874 1.181-1.152 1.776-.279.586-.836 2.141-.836 2.372 0 .23-.067.95.173 1.315 0 0 .874 1.017.279 1.21-.384.134-.75-.24-.932-.193-.518.135-.796.452-.94.432-.346-.067-.346-.24-.384-.73-.03-.489-.01-.69-.164-.69-.21 0-.316.172-.355.432-.038.259-.038.854-.278.854-.24 0-.586-.432-.797-.528-.211-.096-.797-.192-.835-.46-.029-.26.345-.817.73-.922.383-.096.729-.288.489-.49-.25-.192-.49-.192-.73 0-.24.202-.758.038-.73-.26.04-.297.106-.662.068-.825-.029-.163-.451-.49.096-.787.566-.298.806.26 1.363.163.557-.096.826-.297 1.037-.624.211-.326.173-1.017-.211-1.44-.375-.432-.759-.499-.903-.768-.134-.259-.345-.883-.345-.883s.105 1.152.038 1.315c-.067.163-.038.855-.038.855s-.375-.432-.691-.759c-.308-.326-.624-1.315-.624-1.315s-.03.922-.03 1.286c0 .356.414.692.28.826-.145.125-.798-.691-.98-.826-.173-.134-.73-.556-.97-1.017-.24-.461-.422-1.114-.49-1.354-.066-.23-.182-1.257-.066-1.517.172-.384.45-1.084.45-1.084h-1.353c-.73 0-1.248-.221-1.526.268-.279.49-.144 1.479.201 2.765.356 1.277.557 1.901.461 2.131-.105.23-.557.759-.73.855-.182.105-.662.067-.873-.029-.202-.096-.547-.26-1.21-.26-.662 0-1.075.03-1.315-.028-.25-.067-.845-.365-1.123-.298-.278.068-.758.308-.624.692.211.585-.202.72-.49.69-.278-.038-.508-.134-.864-.23-.345-.105-.864 0-.796-.403.067-.393.21-.422.384-.71.172-.307.24-.5.038-.519-.24-.019-.49-.048-.672.106-.192.154-.49.49-.73.365-.25-.135-.441-.413-.441-1.037 0-.614-.653-1.152-.048-1.123.595.029 1.353.46 1.488.125.134-.336.057-.49-.269-.75-.326-.258-.73-.412-.298-.738.432-.336.538-.336.71-.519.164-.173.394-.758.702-.614.595.288.019.7.624 1.363.595.662.97.902 1.977.797.999-.106 1.277-.23 1.277-.519 0-.278-.086-.787-.115-.998-.02-.202.144-.95.144-.95s-.461.288-.605.566c-.125.278-.403.768-.403.768s-.106-.576-.077-1.046c.02-.279.115-.759.106-.855-.03-.259-.221-.902-.221-.902s-.154.7-.269.902c-.106.202-.154 1.027-.154 1.027s-.643-.556-.46-1.488c.124-.72-.116-1.67.105-1.977.211-.317.72-1.575 1.978-1.623 1.248-.048 2.217.048 2.659.03.432-.03 1.978-.318 1.978-.318s-2.852-1.459-3.495-1.9c-.653-.432-1.66-1.565-1.987-2.074-.326-.518-.624-1.517-.624-1.517s-.509.02-.98.279a4.93 4.93 0 0 0-1.19.95c-.268.307-.7 1.008-.7 1.008s.076-.902.076-1.18c0-.28-.057-.826-.057-.826s-.317 1.228-.97 1.69c-.653.47-1.411 1.103-1.411 1.103s.077-.681.077-.845c0-.153.163-.95.163-.95s-.46.691-1.162.826c-.71.124-1.737.105-1.824.537-.076.432.192 1.027.03 1.335-.164.307-.52.518-.52.518s-.402-.336-.758-.365c-.345-.029-.681.154-.681.154s-.298-.384-.183-.643c.106-.25.644-.634.519-.797-.144-.154-.576.057-.845.182-.269.135-.845.26-.787-.182.048-.432.192-.691.048-.999-.135-.307-.048-.508.173-.585.21-.077 1.075.019 1.161-.183.077-.201-.211-.46-.787-.585-.566-.135-.845-.47-.547-.749.307-.288.384-.365.518-.614.135-.26.192-.73.71-.49.51.23.404.797.951.97.538.182 1.814-.077 2.083-.23.269-.154 1.143-.798 1.44-.951.298-.144 1.546-1.075 1.546-1.075s-.73-.51-1.008-.768c-.269-.26-.749-.874-.999-1.008-.24-.125-1.44-.586-1.843-.615-.403-.019-1.651-.46-1.651-.46s.566-.183.758-.337c.183-.153.615-.537.836-.508.21.019.268.019.268.019s-1.161-.048-1.41-.125c-.24-.077-.951-.518-1.22-.518s-.806.105-.806.105.73-.46 1.324-.566c.596-.096 1.056-.077 1.056-.077s-.921-.26-1.142-.557c-.211-.317-.432-.768-.595-.979-.163-.202-.269-.538-.567-.566-.297-.03-.816.364-1.113.336-.298-.03-.519-.212-.547-.644-.02-.441 0-.288-.096-.518-.116-.23-.548-.768-.144-.893.412-.134 1.276.077 1.363-.077.077-.153-.461-.624-.816-.796-.355-.183-.922-.49-.624-.75.297-.249.595-.354.758-.585.163-.23.355-.873.71-.672.346.202.836 1.21 1.114 1.133.269-.077.288-.797.24-1.104-.057-.307 0-.845.269-.797.269.048.49.413.922.442.432.019 1.084-.106 1.027.201-.048.308-.298.682-.595 1.018-.288.346-.432 1.008-.24 1.44.192.442.681 1.142 1.113 1.42.432.28 1.248.49 1.767.817.508.336 1.708 1.286 2.112 1.392.403.105.816.307.816.307s.46-.202 1.084-.202c.624 0 2.055.096 2.602-.134.547-.23 1.248-.614 1.037-1.104-.221-.49-1.411-.922-1.306-1.306.106-.384.547-.412 1.277-.441.73-.02 1.728.134 1.92-.903.192-1.017.25-1.612-.778-1.843-1.036-.23-1.795-.259-1.987-.998-.192-.749-.374-.931-.163-1.133.22-.202.595-.307 1.354-.355.768-.058 1.632-.058 1.881-.24.24-.173.288-.663.586-.874.297-.201 1.469-.384 1.469-.384s1.401.682 2.688 1.642c1.161.864 2.208 2.14 2.208 2.14" fill="#ed72aa" stroke-width=".374"/><path d="M258.24 233.654s-.768.221-1.056.644c-.355.508-.326 1.027-.326 1.027s.652-.538 1.497-.317c.835.23.922.317 1.277.288.355-.029 1.22-.336 1.22-.336s-.711.826-.625 1.392c.077.557.183.816.163 1.104-.057.691-.576 1.546-.576 1.546s.298-.183 1.008-.336a4.419 4.419 0 0 0 1.68-.778c.375-.278.864-.98.864-.98s-.153.96 0 1.364c.164.422.221 1.603.221 1.603s.451-.403.816-.595c.183-.106.672-.365.864-.672.135-.211.307-1.018.307-1.018s.106.864.375 1.287c.269.403.672 1.67.672 1.67s.278-.825.576-1.161c.297-.336.653-.768.672-1.028.029-.259-.077-.816-.077-.816l.374.816m-10.953.586s.46-.797.893-1.056c.441-.25 1.036-.71 1.2-.768.153-.048.864-.442.864-.442m.95 4.964s1.046-.528 1.354-.72c.652-.384 1.113-1.076 1.113-1.076" stroke-width=".374"/><path d="M271.267 231.264s-.326-.46-.403-.624a5.273 5.273 0 0 1-.22-.46" stroke-width=".25"/><path d="M267.197 247.114s1.958 1.21 1.9 2.217c-.057.999-1.084 2.314-1.084 2.314" stroke-width=".374"/></g><path d="M262.128 226.79s-.163-.46-.192-.595a1.297 1.297 0 0 0-.115-.278s.845 0 .816.259c-.02.26-.269.26-.327.355-.048.106-.182.26-.182.26z" stroke-width=".25"/><path d="M265.978 225.456l-.058-.413s.74 0 1.085.25c.547.384.893.979.873 1.008-.096.086-.518-.26-.816-.355 0 0-.22.048-.432.048-.22 0-.326-.106-.355-.202-.029-.115.029-.288.029-.288z" stroke-width=".048"/><path d="M262.157 230.534l.317-.508.326.47-.643.038m.777-.019l.384-.509.413.461-.797.048m-.345-3.158l.787.278-.71.365-.077-.643m.951.259l.7.173-.566.441-.135-.614" stroke-width=".25"/><path d="M251.405 226.637s.46.326.816.384a6.4 6.4 0 0 0 .787.048c.048 0 .163-.519.106-.874-.192-1.152-1.248-1.411-1.248-1.411s.316.7.163 1.027c-.221.461-.624.826-.624.826zm-2.199.998s-.412-.739-1.276-.643c-.864.106-1.44.778-1.44.778s.96-.03 1.2.124c.355.23.46.826.46.826s.519-.307.682-.518c.154-.202.374-.567.374-.567zm-1.056 3.005s-.739.106-1.142.566c-.413.47-.346 1.344-.346 1.344s.48-.518.912-.518c.442 0 1.114.154 1.114.154s-.211-.538-.211-.768c0-.23-.327-.778-.327-.778zm2.468 9.715s-.404-.432-1.114-.307c-.71.134-1.171.931-1.171.931s.605-.163.96-.077c.345.077.595.432.595.432s.326-.278.432-.432c.106-.153.298-.547.298-.547zm-.816 2.851s-.596-.096-1.114.317c-.509.413-.538 1.2-.538 1.2s.49-.413.874-.355c.374.048.835.26.835.26s.077-.49.106-.615c.086-.365-.163-.807-.163-.807zm1.392 2.631s-.048.758.316 1.229c.384.49 1.085.566 1.085.566s-.23-.509-.269-.768c-.057-.384.327-.72.327-.72s-.355-.365-.701-.365c-.355 0-.758.058-.758.058zm7.046 6.758s-.49-.614-1.162-.595c-.681.029-1.392.662-1.392.662s.845-.067 1.066.212c.22.288.432.643.432.643s.384-.202.547-.336c.163-.125.509-.586.509-.586zm-2.083 2.698s-.893-.135-1.335.336c-.432.46-.403 1.305-.403 1.305s.538-.585 1.027-.537c.49.048 1.037.307 1.037.307s-.086-.509-.144-.749c-.048-.23-.182-.662-.182-.662zm1.929 2.851s-.441.614-.115 1.104c.327.49 1.008.72 1.008.72s-.25-.355-.134-.768c.086-.326.643-.768.643-.768zm11.904 1.162s-.777-.183-1.219.076c-.432.25-.787 1.335-.787 1.335s.71-.595 1.229-.519c.509.077.893.288.893.288s.076-.441.019-.748a2.31 2.31 0 0 0-.135-.432zm.384 2.87s-.595.614-.384 1.133c.221.518.596 1.056.596 1.056s-.02-.768.22-.98c.356-.307 1.008-.355 1.008-.355s-.518-.46-.681-.518c-.163-.048-.759-.336-.759-.336zm2.986.902s-.298.75.269 1.23c.566.498 1.065.546 1.065.546s-.441-.777-.307-1.18c.144-.432.519-.692.519-.692s-.71-.24-.816-.21c-.106.018-.73.306-.73.306z" fill="#db4446" stroke-width=".374"/><g fill="#c8b100" stroke-width=".26"><path d="M271.565 223.402l-.279.019a1.43 1.43 0 0 1-.25.336c-.249.24-.623.269-.825.067a.466.466 0 0 1-.134-.394.472.472 0 0 1-.49-.01c-.25-.143-.307-.48-.134-.758.029-.057.057-.134.105-.172l-.019-.308-.336.077-.096.183c-.211.24-.518.297-.672.163a.505.505 0 0 1-.125-.26c0 .01-.086.087-.163.106-.518.125-.72-1.008-.739-1.296l-.163.24s.153.672.077 1.248a6.743 6.743 0 0 1-.279 1.143c.71.182 1.786.768 2.851 1.584 1.066.816 1.901 1.708 2.247 2.323 0 0 .557-.307 1.133-.49.576-.182 1.305-.192 1.305-.192l.211-.201c-.307.048-1.516.096-1.497-.413 0-.077.067-.173.077-.173a.669.669 0 0 1-.288-.058c-.173-.124-.173-.412.019-.662l.173-.125.01-.326-.327.048c-.029.038-.106.086-.144.125-.26.22-.624.24-.826.028a.4.4 0 0 1-.105-.441.557.557 0 0 1-.432-.048c-.25-.144-.298-.5-.106-.768.086-.135.269-.298.298-.307l-.068-.288z" stroke-width=".25"/><path d="M269.405 224.064c.048-.067.144-.058.22 0 .077.058.097.154.058.202-.048.057-.144.057-.23-.01-.067-.048-.096-.144-.048-.192zm.912.758l-.317-.24c-.058-.038-.067-.115-.038-.153.038-.039.115-.039.172 0l.317.25.317.24c.048.038.077.115.038.153-.038.038-.115.038-.172 0l-.317-.25m-1.671-1.142l-.25-.144c-.066-.038-.095-.115-.066-.163.028-.048.105-.058.163-.02l.25.154.249.144c.058.029.086.106.067.154-.029.048-.105.057-.163.019l-.25-.144m-.998-.682c.048-.057.154-.057.23 0 .077.068.096.154.048.212-.048.048-.144.048-.22-.01-.077-.058-.096-.144-.058-.202zm3.677 2.525c.048-.048.029-.134-.048-.201-.077-.058-.183-.058-.23 0-.039.048-.02.144.057.201.077.058.173.058.22 0zm.547.634l.211.201c.048.048.125.068.173.03.038-.04.038-.106-.01-.154l-.201-.202-.211-.202c-.048-.048-.135-.067-.173-.028-.048.028-.039.105.01.153l.201.202m.912.777c.048-.057.029-.144-.048-.201-.077-.067-.173-.067-.22-.01-.049.058-.03.144.047.211.077.048.173.058.221 0z" fill="#000" stroke-width=".048"/><path d="M270.144 221.146l-.566.01-.106.834.058.135.144-.01.73-.49-.26-.48" stroke-width=".25"/><path d="M270.144 221.146l-.566.01-.106.834.058.135.144-.01.73-.49-.26-.48" stroke-width=".25"/><path d="M268.608 221.606l-.02.519.884.115.144-.067-.02-.144-.508-.682-.48.26" stroke-width=".25"/><path d="M270.432 222.643l-.47.26-.519-.682-.01-.144.135-.058.893.106-.029.518" stroke-width=".25"/><path d="M269.29 222a.276.276 0 0 1 .374-.086c.134.067.173.23.096.355a.276.276 0 0 1-.374.086.25.25 0 0 1-.096-.355zm-2.064-.864c-.02.01-.125-.442-.25-.682-.077-.182-.374-.412-.374-.412.028-.048.403-.183.835.086.365.298-.029.835-.029.835s-.086.135-.182.173z" stroke-width=".25"/><path d="M268.214 221.434l-.403.355-.653-.576.058-.077.029-.144.883-.067.086.509" stroke-width=".25"/><path d="M267.11 221.078c.048-.144.173-.22.27-.192.105.039.143.173.095.317-.048.144-.173.221-.278.192-.106-.038-.144-.173-.087-.317zm5.213 1.422l-.566-.058-.24.816.048.134.144.01.797-.394-.183-.509" stroke-width=".25"/><path d="M270.73 222.749l-.096.518.864.221.144-.038.01-.135-.414-.758-.508.192" stroke-width=".25"/><path d="M272.38 224.026l-.508.192-.403-.75.01-.143.143-.029.855.22-.096.51" stroke-width=".25"/><path d="M271.344 223.238a.283.283 0 0 1 .384-.038c.125.086.144.25.048.365-.096.115-.269.125-.394.038a.25.25 0 0 1-.038-.365zm2.87 1.028l.106.528-.835.288-.154-.039-.01-.134.346-.778.547.135" stroke-width=".25"/><path d="M274.07 225.792l-.537.125-.298-.797.039-.144.144-.02.816.337-.164.499" stroke-width=".25"/><path d="M272.611 224.314l-.173.499.816.326.154-.019.029-.134-.288-.797-.538.125" stroke-width=".25"/><path d="M273.514 225.245a.262.262 0 0 0 .019-.375.305.305 0 0 0-.394-.019c-.105.106-.115.269-.01.375a.282.282 0 0 0 .385.019zm1.324 1.728c0 .01.48.029.759.086.192.039.499.26.499.26.058-.039.115-.404-.269-.759-.374-.269-.845.211-.845.211s-.115.115-.144.202z" stroke-width=".25"/><path d="M274.32 226.118l-.278.442.73.49.086-.077.124-.039-.115-.844-.547.028" stroke-width=".25"/><path d="M274.915 227.069c.135-.067.202-.211.144-.298-.057-.086-.211-.096-.345-.019-.135.077-.192.211-.135.298.048.086.202.096.336.019z" stroke-width=".25"/></g><g stroke-width=".61" transform="scale(.96)"><path d="M250.43 262.71a16.26 18.3 0 1 0 0 36.6 16.26 18.3 0 1 0 0-36.6z" fill="#ad1519"/><path d="M250.44 267.55a11.44 13.42 0 1 0 0 26.84 11.44 13.42 0 1 0 0-26.84z" fill="#005bbf"/><g fill="#c8b100" id="flag-es-f" stroke-width=".34"><path d="M245.03 271.74s-1.35 1.48-1.35 2.86c0 1.39.57 2.54.57 2.54-.21-.55-.76-.94-1.41-.94-.83 0-1.5.63-1.5 1.42 0 .22.14.58.24.77l.49.99c.16-.37.54-.57.98-.57.59 0 1.08.45 1.08 1.01 0 .09-.01.17-.04.25l-1.22.01v1.03h1.09l-.81 1.61 1.07-.42.81.91.84-.91 1.07.42-.8-1.61h1.08v-1.03l-1.22-.01c-.02-.08-.02-.16-.02-.25 0-.56.47-1.01 1.06-1.01.44 0 .82.2.98.57l.49-.99c.1-.19.24-.55.24-.77 0-.79-.67-1.42-1.49-1.42-.66 0-1.21.39-1.41.94 0 0 .57-1.15.57-2.54 0-1.38-1.39-2.86-1.39-2.86z" stroke-linejoin="round"/><path d="M242.87 281.11h4.36v-1.03h-4.36z"/></g><use x="10.63" xlink:href="#flag-es-f"/><use x="5.31" y="9.14" xlink:href="#flag-es-f"/></g></g></g></svg>