<svg xmlns="http://www.w3.org/2000/svg" viewBox="0 0 640 480" height="16" width="22"><path d="M0 0v481.29h640V0H0z" fill="#006"/><path d="M240.434 0v146.729L0 26.514v107.615l52.602 26.3H0v160.43h52.602L0 347.16v107.617l240.434-120.216v146.728h160.431V334.563L640 454.13V346.516l-51.313-25.657H640V160.43h-51.305L640 134.778V27.16L400.865 146.727V0H240.434z" fill="#f5f5f5"/><path d="M272.521 0v192.516H0v96.257h272.521V481.29h96.256V288.773H640v-96.257H368.777V0zM640 45.098L409.334 160.43h71.746L640 80.969zM0 80.32v35.873l88.475 44.237h71.744zm160.219 240.54L0 400.968v35.873l231.965-115.983zm320.861 0L640 400.32v-35.873l-87.176-43.588z" fill="#c00"/></svg>