<svg xmlns="http://www.w3.org/2000/svg" viewBox="0 0 640 480" height="16" width="22"><path d="M0 0h640v240H0z" fill="#f5f5f5"/><path d="M0 240h640v240H0z" fill="#00ab39"/><g stroke="#000" stroke-width="1.388"><path d="M421.696 70.772c-.008.015-.014.033-.023.048.025-.014.047-.034.072-.048zm-.023.048c-40.283 22.275-76.34 45.452-111.784 74.988-17.01 14.859-12.208 26.704-12.867 40.048.548 8.958-1.936 17.292-7.445 22.314-12.608 2.549-25.226 5.113-37.832 7.663-1.208-3.489-2.407-6.972-3.614-10.459 1.153-5.35 5.576-7.982 14.891-4.626.734-6.88-4.802-9.681-11.277-12.072-2.225-1.732-4.988-3.062-4.627-9.013-1.088-13.468 20.523.964 20.723.964.201 0-.72-13.592-10.65-16.313-5.415-1.916-7.706-7.627-5.639-11.855 4.332-8.643 12.487.677 18.724 1.011-.235-5.64-1.841-9.662-6.7-14.216-2.615-1.61-9.038-2.82-9.205-5.518-.136-3.664 6.02-5.23 14.483-4.217-1.765-5.135-7.455-8.457-15.278-10.867l-4.626-8.049c-2.191-4.055-3.173-4.165 1.903-11.855 4.561-2.95 10.621-7.122 15.182-10.072-1.678-.202-3.36-.402-5.037-.603.67-5.499.747-7.349 2.024-16.482-4.893 6.687-11.007 5.491-16.506 8.241 0 0-15.676 2.783-20.723 9.446-.201 0-39.421-2-39.421-2-8.359 1.164-15.498 3.533-16.892 11.663-19.117 1.93-39.136.222-53.711 18.506 9.924-.47 18.61-2.833 29.759-1.398 0 0 9.5.18 11.47 10.24.201.403 3.23.411 3.23.411 1.207.938 2.406 1.88 3.613 2.819.47-1.274.929-2.558 1.398-3.831l3.229 2.216c.334-1.408.678-2.808 1.012-4.216 1.074.737 2.131 1.479 3.205 2.216.067-1.676.15-3.36.216-5.036l4.218 3.012v-6.626s15.57-.036 20.313 9.855c.202.202-43.694 8.068-86.097 4.434 4.091-2.012 8.175-4.036 12.266-6.048-15.46-3.143-29.996-5.985-43.64-16.699 5.15 19.383 31.755 42.15 37.206 42.048 0 .201-5.229-9.446-5.229-9.446 15.357.671 30.716 1.33 46.072 2 1.677 5.097.936 10.811 5.036 15.302 0 0-2.544 8.424 3.108 11.855.203.402 6.747-17.085 6.747-17.085s2.005 4.705 4.025 7.832c2.926-15.042 19.3-17.494 19.3-17.494s3.423 7.847 3.423 8.049c-5.117.74-11.482 11.17-8.049 16.891-3.431.065-9.523 10.167-7.638 15.687-2.885 2.87-10.069 6.698-8.241 18.723-5.656 1.212-9.004 11.559-7.253 22.53-8.751 8.146-6.603 23.099 1.205 29.156-3.24 2.884-5.236 5.102-5.229 8.65-3.081-1.144-5.922-.187-7.253 1.832-3.777-3.871-9.2-7.262-13.06-3.638-1-4.58-6.965-9.619-13.494-9.036.382-4.83-2.125-10.81-9.037-12.892 0 0-1.398-22.637-8.265-29.976-.673-4.107.393-6.9 6.049-10.265 5.646-3.012 6.846-5.348 6.434-13.88 2.226-5.703 3.917-11.517-3.012-15.47.208 6.783-1.874 10.049-4.627 13.06-3.29-.478-4.438 3.361-6.651 5.037-3.097-4.174 6.532-10.64-.602-19.927-.402-.404-4.98-12.124-16.29-11.856 5.376 3.148 7.65 8.444 7.639 13.88-3.566 10.058-5.377 17.832-1.807 29.373-4.698-7.039-7.363-20.42-11.253-22.747-3.41-.665-5.075-8.73-18.313-6.434 5.71 1.536 7.523 5.897 9.06 9.856-3.502 1.805-1.762 6.568.795 9.855-.485 7.722 4.14 12.234 11.06 15.108-1.14 10.528-2.282 21.038-3.422 31.566-2.748-.35-6.978 10.352-8.65 10.675-2.69 1.674-7.388 6.177-2 7.446-1.6 5.777-3.085 9.26-11.687 10.458 0 0 9.09 5.39 16.627-3.831 8.076-.203 5.42-9.833 9.325-14.073 0-.2 2.216-1.593 5.446-10.072 1.412 7.572 9.182 30.757 26.747 42.265 15.31 16.39 27.894 31.869 27.759 53.71 5.976-5.557 9.544-14.36 12.29-22.746 8.309-2.89 20.195-3.994 30.794-3.518-1.818 3.825-3.853 7.496-1.229 9.976-7.397 2.54-9.018 7.909-6.047 13.277-7.798 5.295-8.311 8.698-8.435 17.494-14.425 18.495-23.324 17.88-37.614 13.084-4.693-2.754-11.956-6.72-15.301-4.627-6.172-4.113-15.046-4.723-16.506 4.627 4.631-3.839 7.396-3.098 11.084.603-.742 1.878-1.361 3.749 1.397 4.82-1.207 1.34-2.406 2.683-3.614 4.023-6.641-1.021-15.57-.964-17.903 8.65 3.41-2.826 10.98-3.489 17.084-.794 1.14.402 2.281.801 3.422 1.204.134 1.542.276 3.084.41 4.626 0 0-9.047-1.396-11.47 13.278 8.481-9.023 14.481-6.65 14.481-6.65 3.269 4.784 15.3 4.064 23.952-3.808 12.154-6.794 15.697 2.97 23.542-3.422 6.505-4.851 14.201-1.625 19.494 4.025 6.103 2.289 12.492 4.173 17.518 0 0 0 6.14-3.918 12.265 2.41.067-7.136-4.989-10.926-11.855-11.061l-2.024-2.024c-6.438-1.342-13.672-.798-19.301-4.024 2.654-10.075 6.52-19.203 14.072-26.964 9.32-9.992 16.183-14.535 27.952-29.832-.454 8.645 6.17 18.257 9.662 27.037 0 0 7.03-11.223 8.049-20.337.2 0 8.808-4.48 12.481-8.29 7.754 4.81 20.392-3.85 28.555-11.011 5.03 1.904 8.85 1.767 14.699 0-4.695 9.553 2.715 18.415 14.481 22.12 1.088 8.434 9.607 10.2 22.53 10.265.545 4.963 8.242 5.638 8.242 5.638-4.864 2.267-7.4 4.539-7.23 9.663-4.984.034-8.76 1.288-10.072 7.036-6.844.117-13.819.642-19.71 4.024-6.305-.978-13.974-3.59-18.916-8.65-2.55-2.147-3.186-5.241-7.639-6.435-2.822-3.335-6.198-2.59-7.253.603-2.917-2.278-13.857-3.337-15.686 7.037 5.107-3.739 9.687-5.164 12.891-.603-1.745 3.166 4.254 4.978 9.446 6.24 3.683.229 10.215 3.584 12.265 9.254-4.75 1.44-11.949.966-16.699-2.627-4.222-3.533-9.925-3.112-13.06-.795-4.35-2.772-14.706 2.462-15.108 10.843 4.363-3.997 8.333-5.93 12.289-3.397-1.969.467-1.221.66-1.013 1.807 3.353 1.945 6.696 3.887 10.049 5.831-4.93 1.301-9.565 3.268-7.422 12.458 0 0 4.016-7.94 13.06-5.012.201-.2 1.247 2.836 3.832.796 3.914-4.454 12.863-6.448 20.723-7.23 6.307-.753 12.604-2.61 18.096.989 4.89-2.516 10.333-4.207 15.904-.193 6.572 2.079 11.37 9.74 19.71 6.24 4.148-2.87 9.245-3.016 14.483 2.82.063-7.358-5.451-9.825-13.278-11.47-1.81-1.074-3.61-2.155-5.421-3.228-5.03-.74-10.08.152-15.109-2.218 26.32-6.804 44.771-21.482 57.76-42.434 4.157 1.476 8.3 2.934 12.457 4.41 2.95.19 3.174 1.214 9.253 3.037.229-8.956-3.616-18.18-19.71-19.11l-21.133-8.047c-4.486-4.73-6.513-14.768-.796-20.723 5.597-4.983 6.574-4.387 10.266-10.458 4.489-.409 8.72 4.217 12.867 4.217 1.97 5.85 13.32 11.022 20.53 9.253 4.518 4 13.114 6.223 22.53 3.012 5.344 4.678 12.306 6.631 20.506 3.012 2.177 2.177 6.773 3.908 12.072 2.82.403 0 2.678 5.814 8.459 7.855-2.52 2.449-.971 13.082 1.613 16.89-1.764 4.09-2.319 8.45-.819 12.676-5.828 3.747-7.015 6.535-4.41 12.868-7.632 12.265-16.763 13.667-25.349 9.879-3.086-1.945-6.167-3.91-9.253-5.856-3.285-3.219-6.57-6.419-9.855-9.638-1.673-1.57-5.135-2.064-5.856 1.398 0 0-12.645-2.82-13.662 7.855 5.241-5.105 12.675-.61 12.675-.41 0 .202-1.77 1.406-.41 3.446.306-.255 9.232 3.331 17.18 6.747 4.319 1.637 5.268 2.149 7.157 3.157a340.807 340.807 0 0 0-7.156-3.157c-4.839-1.834-9.552-3.3-10.94-2.94-4.504-.42-9.28-.98-11.47 2.41-4.84 2.048-12.402 3.688-12.072 12.675 3.268-5.351 7.753-5.125 13.47-4.627-.134.403-.252.802-.386 1.205 6.207 2.827 5.03-.77 10.82-1.301 4.84-.444 11.7 1.29 15.325 2.506-4.56 1.341-10.76.778-13.687 4.024-.537 1.074-2.414.635-1.59 3.205 0 0-8.894-.23-11.277 12.072 9.043-5.79 15.896-5.614 16.096-5.614.201 0 2.82.602 2.82.602s10.86-7.253 11.06-7.253c.202 0 10.516-4.567 15.276.602 4.156 2.043 8.6 2.173 12.892-.409 8.456-3.678 16.371-3.936 24.145 1.23l7.035 4.215c1.006-.67 2.008-1.353 3.013-2.024 0 0 7.965-2.249 13.807 4.843-2.415-12.27-11.18-12.674-11.18-12.674-.671-.604-1.355-1.204-2.025-1.807-4.157-1.61-8.3-3.234-12.457-4.843-1.816-4.493-6.376-8.07-1.832-13.47 4.642-23.076 10.192-40.406 1.205-63.784 8.382 3.621 14.654 14.818 25.156 10.868 0-9.389-34.561-27.215-60.963-41.542 43.253-2.213 95.237-34.142 75.253-74.723 3.152-9.79 6.294-19.583 9.446-29.374 4.449 8.963 13.458 15.794 21.542 18.699-6.663-12.72-10.487-51.609-6.65-78.458-17.43 21.53-36.676 40.638-57.134 60.048 10.063 2.352 18.856.697 28.579-.506-2.75 5.633-5.42 11.283-8.169 16.916-26.581-15.566-57.79-3.884-58.024 16.892.91 24.227 30.864 27.67 48.144 19.228-3.425 22.09-54.192 13.952-54.192 13.952-18.04-6.218-35.172-5.153-54.12-5.012 3.937-12.113 25.8-22.864 42.457-18.12-23.32-26.147 3.296-58.609 35.397-68.603-34.988-11.54-4.86-38.213 21.326-57.325 0 0-75.306 31.692-82.169 31.59-21.42-1.609-15.581-26.962-7.421-40.602zM185.31 101.254c1.753.01 3.813.18 5.446.578 3.396.828 7.528 1.302 7.47 2.314-1.572 2.63-5.434 5.805-9.23 5.614-3.794-.19-5.987-2.466-7.252-8.169.388-.21 1.814-.346 3.566-.337zm316.988 89.35c4.938-.068 10.853 2.02 16.627 8.144-2.776 7.997-26.867 12.103-28.482.265-.488-3.579 4.639-8.312 11.855-8.41z" fill="#c8102e"/><path d="M210.186 171.15l3.653 5.313m-.166.168s0 7.14 1.495 7.307m-3.321 3.818c.165.167 3.82 6.31 3.82 6.31m-10.463 1.66c.166 0 4.65 5.15 4.65 5.15m3.895-3.995c0 .166 4.242 8.146 4.574 8.146m-10.129-2.657s1.494 9.631 2.822 9.3m-9.1 8.349l4.285 6.43m3.653-13.285s2.325 9.133 4.15 8.302m1.824-13.786c.166.166 4.322 6.149 5.484 5.318m-.996 2.324l3.985 7.972m-10.628-1.828c.166.333 3.321 9.467 3.321 9.467m-10.96-4.65s2.99 10.13 5.647 8.468m-6.809 4.983s.166 5.314 2.823 5.645m1.828-8.302c0 .166 2.656 3.82 2.656 3.82m4.933-10.14l2.207 3.497m4.816-9.963l3.322 4.15m-18.732-51.768c.166 4.484 7.277-1.579 10.1-5.399m-13.122 20.966s7.805-5.48 13.783-13.783m-16.275 26.902c5.48-1.494 15.563-13.689 17.556-20.165m-18.719 32.287c1.496.664 20.332-12.902 20.83-22.865m-21.327 33.327c0-.165 17.218-4.39 24.36-23.32m-25.284 37.649s27.494-16.487 28.989-28.61m185.653 56.295s-1.772 14.228-16.053 16.387m20.537 9.02c.166-.166 13.617-14.945 10.13-19.43m21.09 5.149s-.166 10.296-8.635 17.436m25.407-14.446s.333 12.454-4.981 17.436m20.424-9.964s-5.958 11.663-8.116 12.826m7.858 7.844s7.84 1.954 10.33-3.194m-8.298 20.112s7.248 1.309 10.569-5.665m-11.346 18.725s5.866 4.928 9.852-1.547m-94.034-94.412s-.665 25.242 34.872 30.389c39.69 10.96 58.454 5.148 60.78 49.653-1.495 16.938-3.6 36.07-15.888 28.762m-117.452-85.552s5.647 10.13 12.455 9.465c8.967-2.657 12.288 2.823 12.288 2.823m-48.987-2.159s14.946 7.307 27.731-4.484m-26.071-5.978c1.328 17.437-20.094 27.4-28.563 25.74m29.578 41.076c.167 0 11.605-6.866 9.281-11.683m-32.05 1.496c.332-.334 19.263-2.16 22.75-8.969m-31.552-18.932c0-.165 26.869.075 28.695 5.056m7.009-20.997s-26.239 44.837 22.252 44.837m-49.985-45.502s-5.647 16.774-13.617 22.419m-14.28-28.23s9.743 18.853-.056 28.152m-25.352-22.838c.166.332 3.154 26.736-3.489 34.208m-9.131-33.378s.995 16.772-3.986 22.75c-4.983 5.979 1.166 18.396 1.166 18.396m-60.53 8.063s3.566 6.256 8.549 4.097m-2.492-17.768s7.97 3.487 10.628 2.158m-1.992-30.389s-11.791 3.321-7.307 17.27c6.808 5.481 13.45 4.65 13.45 4.65m-29.392 37.364c-.166 0 1.328 10.96 8.967 2.657 5.314-11.125 22.086-42.512 25.906-53.306m7.805-5.147s-8.138-6.31-7.805 2.49c-.167 5.48 2.49 6.808 2.49 6.808.332 3.986 3.82 9.631 6.642 4.484 1.163-4.982-.83-7.14-.83-7.14m4.65-8.968c-7.306-.499-11.291 15.61 2.824 5.482m4.815-10.962s-1.825 2.492-4.65-.166c-1.494-2.656-6.807 11.958 2.492 12.455 1.66-4.318 6.809-5.48 6.809-5.48m4.318-13.783s-4.152 1.992-5.647 1.66c-4.982 1.163-3.986 12.788 2.324 12.123 2.159-2.49 4.484-5.978 4.484-5.978m-40.32-23.002c-.166 0-16.48 25.653 9.094 32.461m197.945-71.074s-9.964 8.47-.664 22.086c-30.888-.498-47.493 13.783-48.821 23.414-39.357-2.822-32.216 8.802-45.004 12.62-17.104-14.28-42.18-6.309-40.519 7.972-11.459-16.108-29.06-8.303-31.219-4.318-2.159 3.986-1.328-19.761-1.328-19.761s-11.459 5.148-19.431 14.614c.167-6.31 0-16.607 0-19.928-9.575 1.937-18.82 2.047-28.728 1.827m-25.906-7.307s14.28 7.971 31.884-2.823m-33.046-25.905s11.126 9.962 32.05 6.808m-25.075-29.725s2.49 8.137 26.404 8.635m-18.305-27.454s9.005 11.014 21.127 9.354m-13.45-25.076s3.487 5.978 16.772 6.974m-8.968-24.41s6.975 7.638 14.946 6.31m26.55-68.394s3.088-3.088 8.236-1.544m-10.466 17.845s-9.61-.344-8.923-4.118c.687-4.29 10.124-7.378 10.124-7.378s12.525-8.064 14.412-10.81m-56.622 43.925l12.183 23.336 5.833-8.751 3.09 6.005 4.975-8.75 8.58 5.49-3.261-10.638 7.206-.515s-1.888-5.147-8.408-6.177c1.716-1.372 7.722-5.319 7.722-5.319s-3.431-3.946-8.75-4.118c1.715-1.887 4.117-6.52 3.946-6.52-.172 0-5.32-1.201-5.32-1.201s12.183 3.946 21.62-1.544m-23.326-18.867c.172.172-.687 4.805-3.26 7.55m-43.753 5.32s7.536-2.075 13.176-.9c5.586 1.149 13.076 3.13 13.076 3.13s8.921-1.201 11.84-3.26m-56.796 6.005s-1.029 3.603-1.372 6.006c0 1.715-5.491 3.946-5.491 3.946m10.296-17.33s4.804 6.005 4.975 9.436c.172 3.432-3.602 6.006-3.602 6.006m-50.96 25.566l-4.977-8.064 4.461-1.544m90.371 120.844c-3.985-5.148 2.989-84.195 17.77-104.783-5.149 37.198 11.956 75.226 16.273 75.06m-78.96-97.149s6.726 2.574 20.675-8.47m18.848 26.739l10.005.124m300.33-62.08s-166.701 77.895-169.13 82.02c28.148-8.494 147.531-28.391 150.446-26.693-7.037 1.699-151.904 34.942-158.697 42.95 36.155-1.213 111.869 11.648 123.751 24.023-25.721-5.823-102.646-17.228-126.18-12.133 17.23 4.126 83.231 46.833 83.231 53.627-9.949-9.463-89.3-42.222-92.453-39.067 18.198 10.92 43.92 51.442 43.92 61.392-5.339-8.493-51.2-57.753-53.87-54.599 4.854 6.796 14.47 64.943 9.554 67.638 0-7.037-17.804-57.931-19.26-59.387-3.64.97-26.334 62.094-21.838 67.778-2.911-20.382.485-62.924 6.066-61.226-9.948 1.456-41.699 43.32-38.302 49.871.97-10.434 2.39-17.354 20.345-52.055-19.897 1.212-61.148 27.178-68.187 36.399 5.582-16.5 40.525-44.407 55.812-46.348m71.955-60.72c17.62-9.778 72.065-29.731 108.383-44.371m-142.58 96.987s12.01-.171 24.02-32.772c11.837-44.607 105.693-94.365 107.583-103.634M130.797 252.77s-2.787 5.939-6.22 7.655m19.683 1.345s-3.724 7.234-4.582 10.666m17.465-7.128s3.124 9.873.55 14.506m-36.425-40.137c-9.436 5.32 5.37 38.935 50.152 42.195m-7.206-18.187s-1.2 6.005 7.206 18.016c-2.402 13.383 10.175 23.9 15.151 25.616m-25.961-164.25c0-.172 1.372-3.603 1.372-3.603l1.53 3.967 2.462-.064 1.625-3.977 1.334 3.992h2.447l1.509-4.433 2.28 4.197 1.936.098 1.525-5.112 3.144 3.662 1.142-.442.979-5.113 3.106 3.576.89-.523 1.44-5.039 2.58 3.747 1.3-.423 1.205-4.236 2.398 3.893m-38.965 6.283l18.718-.278c5.955-.089 15.762-8.343 26.744-5.769m-84.912 46.091s3.088 6.692 7.379 2.917m-14.585 1.545s-6.006 16.128 1.201 19.902m-9.78-37.748s0 3.775 7.892-2.058m-32.441 86.816s6.348 1.888 5.319 6.692m-2.921-80.817s3.946 1.887 7.721-3.946m34.146 189.602c6.176-.343 7.506 2.446 13.126 2.446 6.474.197 12.782-2.446 21.019-4.677m53.018 14.929c-.172 0-2.917 5.833-.514 8.749m-87.51-8.235s9.78-8.065 14.927-3.088c4.977 1.716 7.721 1.372 7.721 1.372m-17.496-21.274s2.402 6.176-5.662 5.319m-2.402 8.922s5.147 3.261-.687 7.55m3.775 5.834s7.034 1.03 2.916 6.691m224.316-49.438s19.105 1.977 19.983 3.405c2.197-2.307 19.255-16.125-1.716-18.1-3.512 14.384-17.938 14.915-18.267 14.695zm-6.807 9.552c7.136 5.71 4.212 9.13 26.612-5.91m-36.823 13.048s10.54 11.31 18.226-2.416m-38.32 6.478l-14.273 7.466m-25.693 10.542s8.674-7.467 12.737-3.514c4.062 3.952 21.3-3.403 21.3-3.403m-27.56-25.474s2.966 5.928-2.744 6.697m-8.564 11.859s3.008 5.575-2.811 7.111m9.509 8.041s9.004.44 5.819 7.246m78.396-8.454s-4.941 4.172-1.317 8.895m73.015-38.87s5.709 2.745-1.098 7.467m-5.71 9.882s4.283 4.502 1.428 8.234m10.54 9.003s5.929 1.647 5.271 6.588m77.733-10.98s-4.941 3.623-2.305 8.345M429.74 236.347c11.86-1.427 28.876 24.924 37.55 30.085m51.873-67.412s6.006 5.243.721 17.893m10.414-38.065c1.67 1.3 8.126 4.745 12.39 12.72m4.097-52.171c0 .11-8.345 22.508-8.345 22.508m17.677-23.606s-1.647 19.982-4.062 24.045m-33.124 36.413c-2.775 7.997-26.864 12.09-28.48.251-.821-6.027 14.268-15.323 28.48-.25z" fill="none" stroke-linejoin="round"/><path d="M185.126 101.319l9.269 1.716s-6.524 8.75-9.269-1.716z" fill="#000001" stroke-linejoin="round"/></g></svg>