<svg xmlns="http://www.w3.org/2000/svg" xmlns:xlink="http://www.w3.org/1999/xlink" viewBox="0 0 640 480" height="16" width="22"><path d="M0 0h640v480H0z" fill="#f5f5f5"/><path d="M272 0v192H0v96h272v192h96V288h272v-96H368V0h-96z" fill="red"/><path style="mix-blend-mode:multiply" d="M146.848 373.155c1.023-16.824 3.969-31.155 3.969-31.155s-9.84 1.008-14.817 1.008c-4.902 0-14.814-1.008-14.814-1.008s2.946 14.331 3.969 31.155C108.33 372.129 94 369.186 94 369.186s1.008 7.407 1.008 14.814c0 7.41-1.008 14.814-1.008 14.814s14.331-2.943 31.155-3.969c-1.023 16.824-3.97 31.155-3.97 31.155s7.41-1.008 14.815-1.008c7.41 0 14.817 1.008 14.817 1.008s-2.946-14.331-3.97-31.155c16.822 1.026 31.153 3.969 31.153 3.969s-1.005-9.84-1.005-14.814c0-4.902 1.005-14.814 1.005-14.814s-14.331 2.943-31.152 3.969z" fill="red" id="flag-ge-a"/><use transform="translate(367.997 -288)" xlink:href="#flag-ge-a"/><use transform="translate(0 -288)" xlink:href="#flag-ge-a"/><use transform="translate(368.001)" xlink:href="#flag-ge-a"/></svg>