<svg xmlns="http://www.w3.org/2000/svg" xmlns:xlink="http://www.w3.org/1999/xlink" viewBox="0 0 640 480" height="16" width="22"><defs><linearGradient id="flag-gs-b"><stop offset="0" stop-color="#d5dfff"/><stop offset="1" stop-color="#fff"/></linearGradient><linearGradient id="flag-gs-a"><stop offset="0" stop-color="#474747"/><stop offset="1" stop-color="#f50"/></linearGradient><linearGradient gradientTransform="matrix(.74087 0 0 1.3286 40.513 .0061)" gradientUnits="userSpaceOnUse" id="flag-gs-746" x1="215.83" x2="228.97" y1="102.99" y2="102.99" xlink:href="#flag-gs-a"/><linearGradient gradientTransform="matrix(1.5101 0 0 .65184 40.513 .0061)" gradientUnits="userSpaceOnUse" id="flag-gs-747" x1="109.34" x2="110.94" y1="218.47" y2="173.45" xlink:href="#flag-gs-a"/><linearGradient gradientTransform="matrix(1.2315 0 0 .79928 40.513 .0061)" gradientUnits="userSpaceOnUse" id="flag-gs-748" x1="125.91" x2="126.02" y1="316.38" y2="337.23"><stop offset="0" stop-color="#b50000"/><stop offset="1" stop-color="#ffc500"/></linearGradient><linearGradient gradientTransform="matrix(2.5627 0 0 .38409 40.513 .0061)" gradientUnits="userSpaceOnUse" id="flag-gs-794" x1="117.6" x2="78.221" y1="1040.4" y2="1003.7" xlink:href="#flag-gs-b"/><linearGradient gradientTransform="matrix(.88634 0 0 1.1105 40.513 .0061)" gradientUnits="userSpaceOnUse" id="flag-gs-800" x1="264.72" x2="255.03" y1="245.98" y2="226.38" xlink:href="#flag-gs-b"/><linearGradient gradientTransform="matrix(.55904 0 0 1.7607 40.513 .0061)" gradientUnits="userSpaceOnUse" id="flag-gs-801" x1="407.87" x2="456.4" y1="149.38" y2="147.35" xlink:href="#flag-gs-b"/></defs><path d="M0 0h640v480H0z" fill="#012169"/><path d="M487.416 339.917s-2.663 7.026-4.182 7.026c-1.518 0-7.026-3.036-7.026-3.036s-3.99 6.462-6.081 6.836c-2.09.381-7.6-.946-7.6-.946s-5.317 0-5.508-.763c-.19-.755.191-2.273.191-2.273s-7.597 6.072-9.307 5.69c-1.71-.373-7.408-7.59-7.408-7.59l-.95 3.8-10.827-.382-9.498-6.081s-5.319 8.736-5.509 8.545c-.19-.19-9.307 2.09-9.307 2.09l-.57-1.709-6.079-3.608s4.749-6.646 4.749-6.836c0-.191-2.28-.954-2.28-.954l-3.418 2.853-7.029 4.555-7.028-3.227 3.04-5.7.38-4.18 5.508-8.355 67.433-65.538 33.242 61.357z" fill="#6a4c2d" stroke="#000" stroke-width="1.06"/><path d="M535.323 343.891l17.55-.636-7.471-3.688 66.881-2.52-9.45-3.6-8.371-11.344-34.657-2.607s-2.607-1.98-6.844-.993c-.175-2.695-3.418-6.208-3.418-6.208l-21.334-1.622-13.322 9.093 8.998 23.044z" fill="#fff" stroke="#000" stroke-width="1.06"/><path d="M121.32 150.76l2.22-7.56s3.89-6.56 3.89-9.46c0-2.89 2.9-6.33 2.9-6.33s8.89-2.56 10.78 2.89c9.57-14.46 20.8-.67 20.8-.67l3.11-3.67 6.34-7.78s9.01 8.45 9.12 9.89c.11 1.45 1.55.45 1.55.45l9.79-.78s4.64 3.64 3.67 10.56c3.45 2.04 6.56 14.01 6.56 14.01z" fill="url(#flag-gs-747)" stroke="#000" stroke-width="1.333" transform="translate(370.592 27.49696) scale(.79488)"/><path d="M535.33 218.84c1.344-.818 5.573-2.162 5.056-8.346-.516-6.184-5.874-6.907-8.863-6.7-2.996.206-5.675 2.781-5.675 2.781l-9.896-6.287s4.952-31.239 10.206-33.194c4.992-3.601 5.874-5.159 5.874-5.978 0-.826-1.852-2.893-1.852-2.893l-32.272-3.815-30.516 3.608s-2.368 3.609-2.058 5.056c.31 1.438.413 2.988 5.874 7.217 6.049 4.65 10.206 31.342 10.206 31.342s-8.553 4.221-9.07 3.704c-.516-.508-3.091-1.025-4.435-.818-1.335.206-5.77 2.472-5.77 8.346 0 5.882 4.435 9.284 4.435 9.284s29.172-3.402 33.504 4.634c4.229-9.69 31.954-6.287 35.253-7.94z" fill="#656263" stroke="#000" stroke-width="1.06"/><path d="M566.76 186.37s.326-3.395 2.743-5.008c2.424-1.614 18.568-2.425 22.447 0 3.871 2.424 5.326 14.371 5.326 14.371s2.424 4.197 2.583 7.266c.16 3.068.485 5.166.485 5.166s12.917 16.796 13.076 31.97c1.455 10.334 1.129 37.94-2.901 48.432-.167 13.084-5.652 21.637-5.652 21.637s1.288 2.257 1.129 4.682c-.167 2.424-1.455 4.682-1.455 4.682l18.886 9.363-6.939-2.583s7.106 5.977 6.94 5.819c-.16-.167-7.91-3.72-7.91-3.72l4.682 4.681c-.159-.159-11.462-5.166-11.462-5.166s5.326 5.007 5.008 4.848c-.326-.159-8.561-4.038-8.561-4.038s5.167 5.493 5.008 5.167c-.16-.326-7.425-3.227-7.425-3.227l.318 2.742s-5.81-.326-5.81-4.682c-2.91-1.613-4.84-3.879-4.84-3.879l-13.403-2.257-15.182-45.372 3.553-76.69.97-3.87z" fill="#000001" stroke="#000" stroke-linejoin="round" stroke-opacity=".979" stroke-width=".994"/><path d="M556.618 431.455s-7.774-16.35-11.645-16.581c-3.498-6.67 12.153-61.174 42.43-64.282 16.645 1.367 1.368 19.188-9.578 13.704 1.367 4.793 6.836 11.653 6.836 11.653s-21.66 9.363-28.043 55.506z" fill="#fb0" stroke="#000" stroke-width="1.052"/><path d="M452.393 433.84s6.439-18.616 10.341-18.847c3.911-.23-10.34-62.04-41.359-62.501-16.775 1.383-1.379 19.3 9.65 13.783-1.377 4.833-6.892 11.724-6.892 11.724s21.83 9.42 28.26 55.84z" fill="#fb0" stroke="#000" stroke-width="1.06"/><path d="M480.85 317.573c-.08-.152-7.703 2.392-2.766 10.69.373-3.21 3.807-5.158 3.807-5.158s-5.23 6.208.302 11.438c.676-4.936 3.816-6.502 3.816-6.502s-3.887 11.438.071 13.752c.453-4.563 3.362-6.574 3.362-6.574s-3.513 10.238-.373 12.551c.373-3.879 2.989-5.604 2.989-5.604s-1.566 10.62 2.543 11.367c.08-3.744 3.068-7.4 3.068-7.4s-1.35 8.664 5.08 9.045c.08-3.29 1.272-7.026 1.272-7.026s2.917 9.188 7.177 7.694c-.071-2.687.072-7.774 0-7.774-.08 0 2.687 8.744 7.774 7.106-.747-2.472.294-5.389.294-5.389s2.695 5.46 7.552 3.664c.826-1.645-.223-4.856-.223-4.856s7.098 7.328 9.268 2.917c2.17-4.412-5.683-5.906-5.683-5.906h5.31s-1.717-4.483-8.895-5.46c2.464-1.122 5.008-.295 5.008-.295s-1.494-5.612-8.823-6.208c2.845-.97 5.985-.294 5.985-.294s-.978-5.31-9.046-6.804c1.272-1.423 4.706-.97 4.706-.97s-3.211-5.008-6.876-4.714c-3.664.302-36.779-3.362-36.7-3.29z" fill="#00713d" stroke="#000" stroke-width="1.06"/><path d="M513.511 344.559s2.918 1.423 2.846 2.694m-1.121-5.007s3.736 2.615 3.665 4.554m-.381-5.906s2.996 1.868 3.139 4.785m1.868-3.584s1.502 3.21.978 3.807m2.019-2.09c.222 2.543-.23 2.766-.23 2.766m-36.629-18.839s3.513 2.242 3.22 5.381m-3.443-2.686s1.646 1.566 1.272 2.615m3.069-5.23s2.313 3.21 1.565 5.452m2.393-3.361s1.05 2.018.08 3.139m1.788-2.17s1.272 2.019.151 2.694m-1.566 3.959s3.283.747 3.736 3.211m-1.796-5.453s3.441.223 3.815 3.887m.747-5.158c.072 0 2.313 3.966 1.94 5.23m2.472-4.857s.89 3.816.222 5.008m2.616-3.513c0 .079.071 4.411.071 4.411m-4.404-10.388s2.162.818 2.011 2.916m0-4.864s2.767 1.573 2.473 4.562m.747-5.826s2.392 2.837 1.494 5.977m2.687-5.31s-.89 3.514-.525 4.937m3.068-2.544s-1.566 1.2-.747 2.695m-12.853 10.985s.517 2.695 0 3.14m-3.442-4.706s1.717 2.989 1.121 4.483m-4.785-4.634s1.947 2.242 1.868 4.038m-4.857-3.593s1.796 1.725 1.645 2.695m-3.211-.08s1.717 1.797 1.638 2.17" fill="none" stroke="#3ec26d" stroke-linecap="round" stroke-width=".994"/><path d="M457.123 222.068c8.243-.151 16.485-.294 24.728-.445 0 0 16.335 0 18.1 5.301 3.092-7.066 17.217-6.62 17.217-6.62 8.537-.295 17.074-.59 25.603-.883.151 20.603.294 41.206.445 61.81-5 23.981-22.368 40.912-41.5 48.122-22.814-7.36-37.233-26.637-41.938-48.568-.89-19.57-1.773-39.147-2.655-58.717z" fill="#fff" stroke="#000" stroke-width="1.06"/><path d="M465.93 221.837l36.016 95.974 32.534-98.064c-10.095.651-31.747-1.59-34.434 7.615-4.165-8.235-26.946-4.913-34.116-5.525z" fill="#006b00" stroke="#000" stroke-width="1.06"/><path d="M490.444 273.798c1.391.724 1.351-26.048 3.172-26.874.516-2.218.779-3.188 1.43-5.54-1.566-2.775-8.576-2.64-11.176-.279 1.169 3.736 1.685 4.984 1.685 4.984 3.514 5.683 2.814 28.314 4.889 27.71z" fill="#ffc900" stroke="#006b00" stroke-linecap="round" stroke-width=".548"/><path d="M480.794 66.882s2.552-2.892 2.663-3.585c.12-.694 11.566-1.157 18.386-13.877 3.815-6.707 0-2.776 0-2.776l-.23-3.238s4.745-4.51 3.012-6.939c-1.741-2.428-1.16 3.123-3.935 3.007-2.774-.116-1.272-6.013-1.272-6.013s-.23-.694-1.041-1.04c-1.16.115-.81 2.196-1.852 2.428-1.041.23-1.964-4.857-1.964-4.857s-1.732-2.313-3.243 4.972c.811 7.749 5.787 6.245 5.787 11.334 0 5.088-4.396 9.02-5.667 9.135-1.272.115-.811-4.279-.811-4.279s-.692-2.081-1.153-2.081c-.46 0 2.544-.463 2.083-6.245-1.041-6.939-1.852 1.62-3.704 1.272-1.852-.347-.461-6.36.23-7.054.692-.694-.81-3.585-4.857 3.816-.35 3.585-.81-.925-1.621-.694-1.383 2.891-1.153 4.973.81 7.633 2.894 2.66 4.746 5.32 4.627 6.707-.111 1.388-1.622 4.51-3.696 4.51-2.083 0 .111-3.816 0-5.089-.12-1.272-3.585-5.897-3.585-5.897s-2.433-3.932-2.202-4.047c.23-.117-.23-.694-1.383 3.353-1.16 4.048-2.552-2.66-2.552-2.66s-1.613 4.972 1.852 7.98c-2.654-.347-2.885.693-2.885.693 0 1.388 3.585 1.966 4.046 4.394.461 2.43-3.704 3.817-3.704 3.817s1.74 2.428 6.59-2.313c.119 3.007-1.845 5.088-1.845 5.088 1.614.733 2.886.655 3.116 2.545z" fill="#cdad56" stroke="#000" stroke-linejoin="round" stroke-width=".994"/><path d="M464.928 66.882s-2.162-3.21-2.257-3.841c-.103-.631-10.636.798-15.618-12.049-3.241-6.103 0-2.525 0-2.525l.196-2.947s-3.449-4.22-1.976-6.429c1.473-2.21.867 2.841 2.762 2.851 2.355-.105 1.08-5.472 1.08-5.472s.196-.63.884-.946c.98.105 1.385 3.27 2.267 3.481.882.21 2.71-3.725 3.283-4.535.81-.116.779-3.26 2.059 3.368-.684 7.05-6.526 5.683-6.526 10.313 0 4.63 3.728 8.207 4.809 8.313 1.08.105.691-3.893.691-3.893s.588-1.895.978-1.895c.397 0-3.434.736-3.037-4.526.883-4.925 2.838.318 4.412.001 1.574-.315-.183-5.209.27-5.956.104-.747 2.417-3.956 3.315 3.126.294 3.262 2.075-2.808 2.758-2.597 1.184 2.63-.517 6.143-2.186 8.564-2.456 2.42-3.569 5.071-3.465 6.334.095 1.262.675 2.832 2.448 2.832 1.764 0 .596-2.2.691-3.358.096-1.157 3.045-4.904 3.045-4.904.58-.925.095-2.653.707-3.452.962.01 1.36-1.325 2.337 2.358.986 3.683 2.162-2.42 2.162-2.42s1.375 4.525-1.574 7.26c2.258-.315 2.456.632 2.456.632 0 1.263-1.073 1.788-1.47 3.998a3.738 3.738 0 0 0 1.176 3.473s-1.47 2.21-5.596-2.105c-.103 2.736 1.574 4.63 1.574 4.63-1.383.667-2.456.596-2.655 2.316z" fill="#cdad56" stroke="#000" stroke-linejoin="round" stroke-width=".874"/><path d="M528.471 236.153c-2.154-1.955-2.408-.246-3.466-.684-.524-.214-.93-.7-1.383-1.144-.39-.406-.858-.573-1.375-.787-.199.58-.39 1.152-.588 1.733-.199.58.548 1.542.533 2.408-.152 1.288-.676 2.36-2.298 2.798.461-.914.724-.954.58-2.075-.063-.556-1.629-1.55-1.438-2.074.286-.85.779-1.828.413-2.679-.66.453-1.534.215-2.194.493-.564.246-.596 1.288-1.375 1.717-.795.373-2.551.19-4.022-.644.898-.676 1.638-.223 2.536-.898.445-.342.429-1.797.874-2.138.453-.342 1.526-.7 1.971-1.042-.405-.46-.381-1.184-.787-1.645-.397-.461-2.185-.366-2.59-.819-.812-.922-.653-2.13-1.463-3.044 2.09.747 1.788 1.764 2.313 1.685.985-.477 1.971-.564 2.488-.35.524.223 1.51 1.51 2.027 1.725.198-.58.484-1.312.675-1.892.199-.58-.874-1.582-.683-2.162.397-1.152 1.367-2.178 1.756-3.338.143 1.12.326 2.058.47 3.171.07.557 1.168.85 1.24 1.407.07.565-.573 1.852-.51 2.417.605-.12 1.471-.04 2.067-.16.604-.119 1.002-1.51 1.598-1.629 1.2-.238 2.067-.167 3.283.064-.898.834-1.59.779-2.154 1.542-.445.342.175 1.462-1.121 2.25-.485.285-1.765-.056-2.218.285.406.461.811.915 1.216 1.376.398.46 2.21.675 2.616 1.136.802.914 1.232 2.011 1.01 2.997zm-55.379.946c2.154-1.956 2.408-.247 3.473-.684.517-.222.922-.707 1.376-1.144.389-.406.858-.573 1.375-.795.198.58.397 1.16.588 1.74.199.58-.54 1.535-.525 2.401.143 1.296.668 2.36 2.29 2.806-.461-.914-.724-.962-.58-2.075.07-.556 1.629-1.55 1.438-2.082-.286-.843-.779-1.828-.413-2.679.667.461 1.534.223 2.201.493.557.254.597 1.296 1.368 1.725.803.373 2.56.19 4.022-.644-.898-.684-1.638-.223-2.536-.906-.445-.334-.421-1.797-.874-2.13-.445-.342-1.518-.708-1.972-1.05.406-.453.382-1.184.787-1.645.406-.453 2.194-.358 2.592-.819.81-.914.66-2.122 1.462-3.044-2.09.747-1.78 1.764-2.305 1.693-.994-.477-1.98-.573-2.496-.35-.516.215-1.51 1.502-2.027 1.725-.198-.58-.477-1.312-.675-1.892-.2-.58.882-1.582.683-2.162-.39-1.16-1.367-2.178-1.757-3.338-.143 1.112-.325 2.05-.468 3.171-.072.557-1.169.85-1.24 1.407-.064.556.58 1.852.508 2.409-.604-.12-1.47-.04-2.066-.151-.597-.128-.994-1.519-1.598-1.638-1.2-.238-2.059-.167-3.283.064.898.842 1.59.779 2.154 1.55.445.341-.175 1.462 1.12 2.25.486.285 1.773-.056 2.219.285-.406.453-.811.914-1.209 1.375-.405.462-2.217.676-2.615 1.13-.81.921-1.24 2.018-1.017 3.004z" fill="#ffc900"/><path d="M526.54 242.337c-1.956 1.518-14.555 4.706-14.69 15.651-.127 10.946 2.21 13.442-.127 13.72-4.547 0-5.199-12.194-5.071-17.599.135-5.405.262-4.57.262-4.57s3.116.826 2.861 3.465c-.262 2.631 3.116-6.518 1.948-9.006 2.075 2.075 4.809 1.248 4.809 1.105 0-.135-1.558-1.796-2.21-3.044-.652-1.248 2.337.691 2.337.691s.127-2.082-2.472-1.939c-3.378 0 .525-1.113.525-1.113s1.947 1.805 3.25-.135c-1.43-1.526-3.513-2.36-3.513-2.36s-1.82-3.459-4.284-4.15c-2.862-.7-2.472 1.24-5.723.97-.644 1.24-.644 1.383.652 1.796-2.21 1.526-1.042 4.57-1.042 4.57s3.514-1.518 3.379.97c-.128 2.496-2.075 2.083-3.379.557-1.168-.692-1.558.691-1.558.691l1.82 1.94s-3.505-.135-4.419 2.218c1.948-.136 2.989.42 2.989.42s-4.03 1.797-4.42 2.767c-.39.97-.516-1.105-.644-1.105-.135 0-3.902-1.39-3.902-1.39l-1.304 5.993s2.607 2.599 4.03 1.764c1.43-.826 4.03-3.322 5.588-2.63-4.547 3.465-9.093 8.449-11.565 9.148-.644-.556-2.854-2.774-3.768-1.669-.906 1.113-.255 2.496.914 2.36 1.168-.142-3.768 1.106-2.734 3.188 1.04 2.075.914 1.94 1.82 1.383.914-.556-.78-.691 2.6-1.661 3.377-.97 3.25-1.94 3.25-1.94s-.652 1.519-2.472 1.94c-1.82.413-3.243.413-2.854.97.39.548 1.169 1.518.907 2.074-.263.557 3.767-2.909 4.809-.135 2.726-.143 4.546-3.465 3.25-5.405.128 2.075 1.431 2.774.645 3.744-.78.97 6.112-3.188 2.734-5.683.906 2.074 1.041 3.743 1.041 3.743s1.558-.143 1.948-.699c.39-.549-.78 1.526-.263 1.94.517.42 2.99 2.774 1.948 4.435-.644-.97-.78-2.496-1.558-2.353-.78.135-4.03 2.496-5.978 2.631-1.947.135 2.337 7.21 2.337 7.21s-2.988-.422-3.378-.143c-.39.278-2.337-2.496-2.726-.827-.652 2.075.651 1.24.651 1.24s-1.693-.827-2.599.143c-.914.97-1.82 1.94-1.168 2.353.644.413 3.505.413 3.895.278.39-.135-3.251.278-3.506.692-.262.413-.779 1.94 0 2.496.78.556 2.727-.279 2.854-.692.135-.421.262 1.518.262 1.518s3.378.278 3.378-3.18c0-3.465.263 2.489.263 2.489s3.378.556 3.505-2.91c.135-3.457.39 2.361.39 2.361s2.21-.7 2.21-1.248c0-.556-.128 6.924-1.686 9.006-2.472-1.669-4.03 1.105-4.03 1.105s.127 4.014-.135 4.984c-.254.97 1.693-.548 1.82-.97.135-.413 2.472-1.518 2.6-1.796.135-.278.779-1.661.779-1.661s-.517 1.939-1.423 2.217c-.914.27-1.82 1.24-1.431 2.075.39.834 1.82 1.383 2.337 2.218.517.826 2.337-4.85 2.337-4.85l.135 1.249s2.337-.557 2.6-1.662c.254-1.112-2.473-2.082-.263-3.879 2.21-1.804 0 1.662 0 1.662s.779 2.63 1.296 2.63c.524 0 1.82-4.991.524-6.231-1.303-1.248 1.948 1.518 1.948 1.518s1.82-5.127-.128-5.818c-1.955-.692-2.861-.97-2.861-.97s1.041-1.383.517-1.518c-.517-.143 2.734 3.044 3.25 2.21.525-.827 1.304-3.323-2.463-4.706-3.776-1.383-.136-5.27-.136-5.27s2.345 2.774 4.03 1.248c1.686-1.519-.127-1.519-.127-1.519s4.801-3.052 4.936-4.578c-.914-.135-2.472.143-2.472.143s2.735-1.804 2.083-4.714c-1.041 1.527-2.472 1.527-2.472 1.527s2.345-2.353 1.947-4.571c-1.423 1.105-1.295 1.94-2.21 1.661-.906-.278-2.464-9.006 1.177-9.562 3.633-.549 1.685 4.3 1.812 4.3.135 0 5.461-2.218 0-5.818 1.304-.422 4.03 2.074 4.03 2.074s-1.168-6.096-7.018-2.353c1.43-1.526 2.344-2.495 3.513-2.217 1.168.278 5.326-.143 5.326-1.383-1.034-.835-3.243.413-4.42 0-1.168-.422 8.322-1.113 7.544-5.819z" fill="#ffc900" stroke="#006b00" stroke-linecap="round" stroke-linejoin="round" stroke-width=".548"/><path d="M481.3 118.54s12.25-6.43 18.37 1.54m4.9 12.24c-.31 0-4.29 3.98-5.21 3.98m13.48 8.88s11.32.92 18.67-10.41" fill="none" stroke="#006b00" stroke-linecap="round" stroke-width="1.25" transform="matrix(.42444 0 0 .4525 281.05672 192.29148)"/><path d="M525.08 141.81s.92 6.13 2.76 6.13c1.83 0-3.06 1.53-4.9.3 2.14 2.76 3.37 7.66 0 9.49" fill="none" stroke="#006b00" stroke-linecap="round" stroke-width="1.25" transform="matrix(.42444 0 0 .4525 281.05672 192.29148)"/><path d="M519.26 218.97s-3.98 4.28-8.88 4.59" fill="#e80000" stroke="#006b00" stroke-linecap="round" stroke-width="1.25" transform="matrix(.42444 0 0 .4525 281.05672 192.29148)"/><path d="M523.86 199.37s-2.45-12.24-.92-15.31c.92-3.98 4.9-5.51 7.96-10.71m-8.27 17.14s-3.06 7.35-16.53 4.9m20.21-23.27s.91 9.8-11.33 6.13m-3.68-50.21s-4.9 4.28-3.06 10.1" fill="none" stroke="#006b00" stroke-linecap="round" stroke-width="1.25" transform="matrix(.42444 0 0 .4525 281.05672 192.29148)"/><path d="M505.87 245.38s2.73-1.109 3.252-1.665c.518-.552 1.43-1.661 1.69-2.494.258-.828-1.821-2.077-.782-3.877.65-.832 1.558-.97 3.12 0 1.558.968-1.43-3.048-2.988-3.186-1.562-.14-2.602 1.108-2.988.83-.39-.276.127 1.11-.522 1.11-.65 0 1.299 1.107 1.171 1.802-.131.692 2.076 3.045 1.949 3.602-.132.552-3.252 3.738-3.901 3.878z" fill="#006b00"/><path d="M534.27 97.112c2.79-.636 3.24.07 2.75 2.449-1.31-.66-1.79-1.217-2.75-2.449z" fill="#ffc900" stroke="#ffc900" stroke-linecap="round" stroke-linejoin="round" stroke-width="1.25" transform="matrix(.42444 0 0 .4525 281.05672 192.29148)"/><path d="M514.71 233.52s-1.03 6.41 1.49 6.94c-.13-2.48.54-4.17 1.16-4.83-.54-.25-2.53-2.07-2.65-2.11zm-5.68-7.89c-2.32-.33-6.23 1.59-5.11 3.91 1.89-1.62 3.63.13 4.95-1.52.4-.46.29-1.81.16-2.39zm-.02-4.58s-3.65-.58-4.16 1.95c2.52-.32 3.27-.59 4.11-.06.24-.54.01-1.76.05-1.89z" fill="#e80000" stroke="#006b00" stroke-linejoin="round" stroke-width="1.25" transform="matrix(.42444 0 0 .4525 281.05672 192.29148)"/><path d="M493.54 184.94s2.19.82 2.81 3.06c1.74-1.08 2.57-5.83-2.81-3.06zm-5.42 5.45c.09-.04 4.59-2.77 5.05-.16-.95.95-1.37 1.57-2.11 1.78-.58 0-1.74-1.78-2.94-1.62zm-.45 8.85c.08-.04 2.89-2.52 3.97-.87 1.07 1.66-.87 1.57-.87 1.57s-.99-.45-3.1-.7zm-3.97-49.28c-.04 0-3.6-1.37-5.09 1.11 2.36.29 3.19 1.12 4.26 1.95-.29-1.04-.78-2.61.83-3.06zm-6.9 18.56s.16-4.17 2.14-5.87c1.12.62 1.45 1.61 2.2 2.85-1.49.33-3.48.42-4.34 3.02zm9.5-2.98s-3.92 1.82-2.64 3.81c1.28-1.37 2.69-.95 2.69-.99 0-.04 0-2.77-.05-2.82z" fill="#e80000" stroke="#006b00" stroke-linejoin="round" stroke-width="1.333" transform="matrix(.42444 0 0 .4525 281.05672 192.29148)"/><path d="M480.64 125.6c-1.41 1.58 1.74 5.01 5.04 4.51.83-3.72-4.21-5.66-5.04-4.51z" fill="#ffc900" stroke="#006b00" stroke-linejoin="round" stroke-width="1.333" transform="matrix(.42444 0 0 .4525 281.05672 192.29148)"/><path d="M485.044 245.873c-.293.792.87 1.905 1.545 1.593.271-.815-1.24-2.222-1.545-1.593z" fill="none"/><path d="M484.28 122.75s.62 2.94 3.47 2.15c-.45-2.27-2.44-3.97-2.44-3.97-.12.67.41 1.7-1.03 1.82zm1.9 8.52s1.57 1.69 4.67-1.78c-1.4.41-3.88-.83-3.88-.83s0 2.4-.79 2.61z" fill="#e80000" stroke="#006b00" stroke-linejoin="round" stroke-width="1.333" transform="matrix(.42444 0 0 .4525 281.05672 192.29148)"/><path d="M480.46 118.86c-1.4 1.57.59 3.76 3.89 3.27.83-3.72-3.06-4.42-3.89-3.27z" fill="#ffc900" stroke="#006b00" stroke-linejoin="round" stroke-width="1.333" transform="matrix(.42444 0 0 .4525 281.05672 192.29148)"/><path d="M144.62 266.62s7.04-2.01 10.78 1.01c3.73 3.01 3.73.28 3.73.28s5.46 2.01 7.04 1.58c1.58-.43-1.15.15 1-1.15 2.16-1.29-4.31.29-4.88-2.44-1.01-1.72.14-3.88-2.15-3.16-1.58-2.01 1-3.44.43-5.6-1.58 1.15-2.45-.43-3.74 2.44-3.01-.57-.43-4.74-3.73-5.17 0 3.02-2.44 3.16-2.59 4.89-1.43 1-7.75 4.74-5.89 7.32z" fill="url(#flag-gs-748)" transform="translate(370.592 27.49696) scale(.79488)"/><path d="M421.165 421.424c3.63-.875 23.295 4.348 30.878 12.471-1.613-14.475-5.621-25.563-5.621-25.563s-11.719-3.347-13.328-1.733c-2.359 2.48-9.445 9.928-11.929 14.825zm-5.995-66.866c-1.378.23-2.757 1.153-4.135 3.45-1.61 3.903-2.758 13.783-5.056 16.08-2.298 2.298-4.366 2.528-4.366 4.603 0 2.067.23 6.891 6.435 8.728 6.204.23 16.085-9.88 16.085-9.88s5.055-5.517 7.123-11.487c-11.949 4.134-20.451-6.9-16.086-11.494z" fill="#c01500" stroke="#000" stroke-width="1.06"/><path d="M587.984 419.118c-3.601-.866-23.489 4.325-31.016 12.4 1.597-14.387 5.58-25.42 5.58-25.42 1.39-.373 11.501-3.322 13.1-1.717 2.336 2.464 9.872 9.873 12.336 14.737zm5.572-66.475c1.367.23 1.852 2.027 2.973 4.316 1.59 3.879 3.235 9.538 5.516 11.82 2.281 2.289 4.332 5.667 4.332 7.726s-.477 4.833-6.637 6.661c-6.152.23-15.079-7.679-15.079-7.679s-5.016-5.476-7.066-11.422c11.86 4.118 19.538-6.47 15.96-11.422z" fill="#c01500" stroke="#000" stroke-width="1.052"/><path d="M408.277 408.793s12.408 8.497 12.639 12.408c33.321-49.41 118.342-64.807 166.821-3.45 6.439-8.505 13.1-11.255 13.1-11.255-51.008-66.643-152.577-58.368-192.56 2.297z" fill="#fb0" stroke="#000" stroke-width="1.06"/><g fill="#1e5aa6" stroke="#000" stroke-width="1.333"><path d="M534.687 219.763l4.857-.12-8.672 10.986 10.405 12.145-20.469 25.786 19.316 23.243c-2.122 5.206-4.586 9.943-7.87 14.228l-11.096-12.265 20.119-25.087-16.534-18.735zm-69.385 2.193l-5.207.12 9.714 10.516-10.286 12.837 21.39 23.25-17.694 23.704c2.123 5.206 5.167 10.985 8.442 15.262l10.524-13.299-21.62-24.053 15.841-20.118z" stroke-width="1.06"/><path d="M489.355 284.402l-7.63 10.175 27.287 31.572c4.817-2.432 8.601-5.206 12.726-8.553l-14.228-16.422 5.787-17.002 8.322 9.594-26.016 33.194c-4.356-1.852-9.173-4.745-13.53-8.33l13.76-17.456zm-8.442-15.842l4.976 6.248-3.243-8.442z" stroke-width="1.06"/><path d="M516.532 274.085c.103-.12 4.014-5.326 4.014-5.326l-1.518-2.075z" stroke-width="1.026"/></g><g fill="#000001"><text transform="matrix(.51563 -.60494 .60494 .51563 370.592 27.49696)" x="-328.344" y="362.397"><tspan x="-328.344" y="362.397"/></text><text transform="rotate(-45.394 218.18658 -429.29637) scale(.7949)" x="-292.335" y="384.266"><tspan x="-292.335" y="384.266"/></text><text transform="matrix(.60633 -.43292 .45125 .59951 370.592 27.49696)" x="-239.78" y="451.681"><tspan x="-239.78" y="451.681"/></text><text transform="matrix(.65851 -.44519 .44519 .65851 370.592 27.49696)" x="-188.526" y="429.958"><tspan x="-188.526" y="429.958"/></text><text transform="matrix(.71715 -.34282 .34282 .71715 370.592 27.49696)" x="-115.426" y="451.479"><tspan x="-115.426" y="451.479"/></text><text transform="rotate(-23.987 250.00905 -858.46526) scale(.79488)" x="-94.111" y="453.046"><tspan x="-94.111" y="453.046"/></text><text transform="rotate(-21.911 256.32778 -943.4894) scale(.79488)" x="-68.371" y="454.982"><tspan x="-68.371" y="454.982"/></text><text transform="matrix(.79214 -.066 .066 .79214 370.592 27.49696)" x="112.016" y="445.666"><tspan x="112.016" y="445.666"/></text><text transform="rotate(.862 -1651.87429 24808.79996) scale(.79489)" x="180.225" y="430.793"><tspan x="180.225" y="430.793"/></text><text transform="rotate(29.645 133.3427 713.9522) scale(.79488)" x="414.759" y="275.217"><tspan x="414.759" y="275.217"/></text><text transform="rotate(39.802 147.31831 525.59512) scale(.79488)" x="483.878" y="193.05"><tspan x="483.878" y="193.05"/></text><text transform="matrix(.76591 .14397 -.12345 .7566 370.592 27.49696)" x="309.116" y="414.028"><tspan x="309.116" y="414.028"/></text><text transform="matrix(.71689 -.1046 .10849 .775 370.592 27.49696)" x="105.058" y="459.272"><tspan x="105.058" y="459.272"/></text><text transform="matrix(.74555 -.27567 .27567 .74555 370.592 27.49696)" x="-45.708" y="455.835"><tspan x="-45.708" y="455.835"/></text><text transform="rotate(45.196 152.26589 458.94052) scale(.79488)" x="518.35" y="144.724"><tspan x="518.35" y="144.724"/></text><text transform="rotate(11.355 46.99079 1877.36387) scale(.79488)" x="271.188" y="388.298"><tspan x="271.188" y="388.298"/></text><text transform="matrix(.7812 -.14683 .14683 .7812 370.592 27.49696)" x="40.322" y="455.168"><tspan x="40.322" y="455.168"/></text><text transform="rotate(-5.941 450.37672 -3557.65938) scale(.79488)" x="94.429" y="448.079"><tspan x="94.429" y="448.079"/></text><text transform="rotate(-1.466 1263.05233 -14502.1082) scale(.79488)" x="155.088" y="437.607"><tspan x="155.088" y="437.607"/></text><text transform="rotate(29.498 133.07016 717.58973) scale(.79488)" x="405.134" y="276.665"><tspan x="405.134" y="276.665"/></text><text transform="matrix(.78963 .09116 -.09116 .78963 370.592 27.49696)" x="232.095" y="409.793"><tspan x="232.095" y="409.793"/></text><text transform="rotate(46.587 153.37594 444.15366) scale(.7949)" x="530.392" y="132.089"><tspan x="530.392" y="132.089"/></text><text transform="rotate(36.816 143.98788 570.50736) scale(.79488)" x="464.158" y="218.519"><tspan x="464.158" y="218.519"/></text><text transform="rotate(16.413 89.97058 1298.65857) scale(.79489)" x="313.725" y="361.961"><tspan x="313.725" y="361.961"/></text><text transform="rotate(47.66 154.16818 433.27569) scale(.79488)" x="513.704" y="123.248"><tspan x="513.704" y="123.248"/></text></g><path d="M574.034 187.22s4.8-4.11 8.219-4.229m-7.528 3.657c.111-.111 28.656-4.11 29.562-5.024m-29.451 5.254c.112-.119 31.963-2.742 31.963-2.742m-32.074 2.854s33.902-1.598 35.96.119m-36.079-.231s33.226.23 33.798 1.026m-33.679-1.026l31.962 2.623m-32.304-2.392c.112 0 32.535 2.853 35.73 6.963m1.709 5.818c-.111-.11-11.072-13.13-37.558-12.9m.119.23s18.378 1.256 24.196 7.647m-23.854-7.877s11.868-2.282 24.316 12.678" fill="none" stroke="#fff700" stroke-linecap="round" stroke-width="1.06"/><path d="M247.4 217.74s20.72.82 20.72 2.85c0 2.03-15.44 5.89-15.64 14.42-.2 8.53 11.78 9.14 12.59 19.9.81 10.77-9.34 12.39-11.37 15.24-2.04 1.42-6.91 16.65-6.3 25.59.61 8.94 3.25 39.2 7.92 45.3 3.66 2.84 9.14 11.98 15.03 9.14 5.89-2.85 1.83-13.2 1.22-16.05-.61-2.84 2.44-7.51 2.44-11.78s-2.24-7.72-2.03-8.73c.2-1.02 16.45 3.86 15.43 19.9-1.01 16.05-7.51 11.17-7.51 11.17s2.03 19.71-3.05 22.35c-9.14 4.87-15.84-1.02-15.84-1.02l.86 4.01-6.95-3.6s-8.94-12.8-10.97-18.49c-2.03-5.68-4.47-31.07-3.66-36.56.81-5.48 1.42-37.58 1.02-39.2-.41-1.63-2.03-28.44-1.02-32.5 1.02-4.06 7.31-21.94 7.11-21.94z" fill="url(#flag-gs-801)" stroke="#000" stroke-width="1.333" transform="translate(370.592 27.49696) scale(.79488)"/><path d="M549.488 196.377s11.462-11.136 18.083-9.848c3.386 0 .16 2.424.16 2.424s5.81.485 6.62 3.068c.16 1.129-2.75 1.455-2.75 1.455s2.425.485 2.584 2.583c.167 2.099-24.538.477-24.697.318z" fill="#ff7000" stroke="#000" stroke-width="1.06"/><path d="M550.132 195.892s12.272-1.613 17.44-6.78m-5.009 3.394s9.038-.326 9.038.97" fill="none" stroke="#000" stroke-width="1.06"/><path d="M594.693 324.575s7.75-1.78 9.848-4.522c1.296-.97 8.076 10.174-9.848 4.522z" fill="#fff" stroke="#000" stroke-linejoin="round" stroke-width=".994"/><path d="M592.594 260.476s.97 5.978-1.773 10.008c-1.454 1.613-5.818 4.364-5.818 6.303 0 1.932 1.614 4.515 1.296 6.78-.326 2.258-2.743 4.523-2.584 6.455 0 1.94 2.743 12.273 2.417 12.432m-7.742-61.349s-6.137 2.099-7.433 8.235" fill="none" stroke="#fff" stroke-linecap="round" stroke-width=".994"/><path d="M575.798 192.506s2.107 5.81 8.887.318c-4.364-5.97-8.887-.159-8.887-.318z" fill="#c75b00" stroke="#000" stroke-width="1.06"/><path d="M580.809 192.262c0 .312-.325.565-.727.565-.4 0-.726-.253-.726-.565 0-.312.325-.565.726-.565.402 0 .727.253.727.565z"/><path d="M520.355 179.017s12.861 13.918 21.184 13.767c1.51 4.086-3.784 7.886-5.898 9.698-4.237-1.36-8.068.246-17.9-11.852.611-7.718 2.765-11.311 2.614-11.613zm17.4-32.375c1.662-5.143 4.992-9.229 7.862-9.682-.756-3.935 6.057-21.327 25.873-27.988 1.208 8.927-8.473 17.702-8.473 17.702s29.195-4.992 35.094-12.408c-.605 3.33-6.503 24.053-37.67 23.902 11.804 11.2-3.776 20.126-10.437 17.4 12.257-9.38-3.473-14.976-12.249-8.926z" fill="#fff" stroke="#000" stroke-width="1.06"/><path d="M547.739 139.384c5.898-3.783 8.012-3.783 12.861-3.028-3.481.453-3.481.604-3.481.604s-.303.453 1.812 2.424c-2.417-.612-4.539-1.971-11.192 0z" fill="#cccccd" stroke="#ccc" stroke-width="1.06"/><path d="M545.466 136.96s11.653-6.2 18.155-10.437" fill="none" stroke="#000" stroke-width="1.06"/><path d="M535.482 202.466s16.04 4.388 17.853-18.608c-3.482-9.984-8.322-31.47-.906-37.67-6.812-4.69-14.22.151-14.22.151-.454 1.058-6.51 9.682 1.66 24.809-19.363-5.143-11.493 13.163-11.493 13.163.755-2.878 11.04-5.596 13.616 9.077 1.057 3.633-6.963 9.229-6.51 9.078z" fill="#00f" stroke="#000" stroke-width="1.06"/><path d="M553.486 184.009s16.947-9.078 16.486-30.404c-14.372.302-19.515 18.902-19.515 18.902z" fill="#00f" stroke="#000" stroke-width="1.06"/><path d="M477.543 182.952s-12.551 10.89-19.665 7.408c-5.294 3.18-11.496-2.417-11.496-2.417s7.26 26.772 33.283 7.409c-.453-5.898-1.82-11.947-2.122-12.4z" fill="#fff" stroke="#000" stroke-width="1.06"/><path d="M457.727 189.907c1.057-5.596 5.445-8.323 8.926-3.029 4.69.914 9.38-18.298-7.265-15.126 4.69-25.11-9.376-34.49-9.376-34.49s-4.991 27.837-2.723 32.98c2.27 5.142-3.327-9.531-21.33-13.617-.302 21.033 20.12 30.865 20.12 30.865s5.75 5.294 11.648 2.417z" fill="#00f" stroke="#000" stroke-width="1.06"/><path d="M459.388 171.6s-7.861 6.662-6.049 15.74m-5.898-16.645s-1.816 6.502 2.118 15.73m-3.329 2.123s3.631-5.898 11.497 1.66" fill="none" stroke="#000" stroke-width="1.06"/><path d="M447.743 147.699c0-.151-11.95 0-4.84 12.106-5.295 1.661-17.095-6.05-8.926-16.343-26.776-.604-37.668-13.457-37.668-25.261 7.867 8.171 26.625 4.84 33.281 9.832-8.169-7.559-6.505-18.004-6.505-18.004s22.843 6.812 26.927 27.082c-1.361 3.935-1.966 10.89-2.269 10.588z" fill="#fff" stroke="#000" stroke-width="1.06"/><path d="M429.367 127.509c4.408 4.483 15.735 5.826 21.484 10.818" fill="none" stroke="#000" stroke-width="1.06"/><path d="M434.582 140.744s9.377-1.209 12.095 2.114c-3.669 0-4.892-.906-10.192 1.065 1.495-.763 1.087-2.122 1.902-2.122.816 0-3.397-1.057-3.805-1.057z" fill="#cccccd" stroke="#ccc" stroke-width=".754"/><path d="M481.327 67.373s5.143-4.539 10.739-.454c-2.528 7.557-11.645 4.69-11.645 4.69s.302 3.782-.605 5.597c1.82 1.372 3.323 5.9 3.323 5.9s9.38-2.27 11.35 1.815c3.594-.496 6.201 0 6.201 0s7.265-1.815 9.833-1.815c2.575 0 10.739 2.118 11.494 3.63.763 1.513 3.481 11.65 5.301 11.497 1.813-.15-4.387 2.42-6.056-.15-1.662-2.573-1.209 3.327-1.209 3.327s5.143 5.446 5.747 6.656c.604 1.208-3.171 11.04-.302 17.853-2.52.23-2.718 2.87-2.718 2.87-.143 2.996-3.935 3.783-3.935 3.783l-.906-4.086-2.576 1.519 1.058-3.18s3.481-8.473 3.783-11.192c.302-2.726-3.18-7.567-5.898-7.567-2.726 0-4.69 8.624-4.69 8.624s-1.359 6.503-.906 7.107c.453.604-1.82-2.115-1.82-2.115s-1.208 3.935-2.114 5.143c-.906 1.208-2.878 1.661-2.878 1.661s-1.359-3.934-.906-5.444c.453-1.51 7.416-7.409 6.812-11.645-.612-4.237 0-3.18-.159-3.331-.15-.151-3.624-3.176-3.775-4.84-.151-1.665-4.54 2.118-10.286.907-1.765 3.075-1.972 10.737-1.972 10.737s-.604 9.229.605 10.294c1.216 1.057-3.021 3.322-3.021 3.322l-3.028 4.086s-1.058-2.567-1.058-2.416c0 .15-2.122 1.51-2.122 1.51l1.216-3.029c-.08-2.289 2.941-8.544 2.941-13.838 0-5.294.382-10.968.382-10.968s-5.596-.303-5.445 5.443c.15 5.755-1.36 6.057-1.057 7.718.302 1.662 1.812 6.352 1.359 7.719-.453 1.359-2.265 1.812-2.265 1.812l-.454.755s-5.596 2.576-5.444 3.633c.15 1.057-.152-3.029-.152-3.029l-.31-4.387s3.331-2.115 3.331-7.409-.763-6.049-.612-7.257c.151-1.216.914-5.604.763-6.057-.151-.454-3.172 1.21-4.086 1.21-.906 0 1.67-3.176 1.972-5.446.302-2.27-3.029 2.118-5.747-.454 1.264-2.793 3.171-3.63 3.473-5.748.302-2.118-2.114 1.815-4.236.303.174-2.03 2.273-3.782 2.273-3.782s-1.725-.212-2.424 0c-1.36-.454 1.518-2.573 1.669-5.598.15-3.025-1.67-4.236-1.67-4.387 0-.151-3.02-2.723-3.473-3.782-.453-1.059-.453-2.27-.453-2.27s-5 3.632-10.898-4.083c5.405-4.613 11.2-1.211 11.2-1.211s1.51-4.236 8.465-3.933c6.964.303 8.323 4.236 8.02 3.782z" fill="#923f00" stroke="#000" stroke-width="1.06"/><path d="M519.386 145.624c.119 0 12.845.382 12.972 7.186.127 6.796-3.903 5.04-4.03 5.04-.127 0-9.324-1.137-9.324-1.137z" fill="#00f" stroke="#000" stroke-width="1.06"/><path d="M507.033 143.732s15.874-.119 14.992 6.804c-.883 6.932-4.913 5.549-4.913 5.549l-7.686-.636z" fill="#fffeff" stroke="#000" stroke-width="1.06"/><path d="M498.09 142.977l9.198.755s5.54.755 5.293 6.05c-.254 5.293-5.675 5.42-5.675 5.42l-8.942-.508z" fill="#00f" stroke="#000" stroke-width="1.06"/><path d="M476.55 145.624c-.128 0-12.854.382-12.98 7.186-.12 6.796 3.91 5.04 4.037 5.04.127 0 9.324-1.137 9.324-1.137z" fill="#fff" stroke="#000" stroke-width="1.06"/><path d="M488.894 143.732s-15.874-.119-14.991 6.804c.882 6.932 4.912 5.549 4.912 5.549l7.686-.636z" fill="#00f" stroke="#000" stroke-width="1.06"/><path d="M497.844 142.977l-9.196.755s-5.549.755-5.294 6.05c.254 5.293 5.667 5.42 5.667 5.42l8.943-.508z" fill="#fff" stroke="#000" stroke-width="1.06"/><path d="M522.47 219.468s6.613-9.745 9.403-8.704c2.432.811.58 8.355-.58 9.054zm-45.332 1.742c-2.083-2.902-5.103-10.907-7.885-8.705-2.44.811-.58 8.354.58 9.054z" fill="#5e0043" stroke="#000" stroke-width="1.06"/><path d="M481.518 201.933s12.885 7.941 17.113 8.148c4.229.207 17.63-10.31 17.63-10.31" fill="none" stroke="#000" stroke-width="1.06"/><path d="M482.758 170.806l2.472-3.092L497.606 174l12.575-5.572 2.472 2.584-14.022 9.896z" fill="#5e0043" stroke="#000" stroke-width="1.06"/><path d="M472.933 170.639c1.001 1.264 8.998 10.985 10.445 19.03 1.438 8.044-.827-11.034-.827-11.034s9.896 4.85 10.206 7.941c.31 3.092 4.73-.206 4.944-.739l-28.655-18.608zm48.893-.556s-10.413 13.711-9.173 28.655c-2.146-7.154-.413-18.966-.413-18.966l-2.266 1.447s-2.369 10.103-5.365 11.645c-.501-1.2-.406-1.646-.406-1.646s-3.195 4.118-3.815 4.531c-.62.414.207 13.919.207 13.919s1.073 9.792 2.305 9.69c-1.407.683-3.132 1.756-3.132 1.756l-1.28-26.136 2.925-2.94s3.92-4.738 4.23-9.38c-1.702 1.446-3.61 1.86-3.61 1.86s-.516 6.597-2.058 7.52c-1.55.93-1.59 2.654-1.59 2.654l-.366-8.624z" fill="#474747" stroke="#474747" stroke-linejoin="round" stroke-width=".994"/><path d="M498.011 185.956l2.02 41.23" fill="none" stroke="#000" stroke-linecap="round" stroke-width=".994"/><path d="M472.655 205.645s4.737 2.79 6.494 11.24c15.46-1.137 20.309 4.332 20.309 4.332s12.678-6.08 18.56-4.952c2.06-4.324 7.933-9.896 7.933-9.896" fill="none" stroke="#000" stroke-width="1.06"/><path d="M466.184 165.234l31.827 20.826 28.664-19.276s5.977-3.299 5.46-5.668c-.508-2.376-2.575-1.446-3.608-1.033-1.026.413-30 20.93-30 20.93l-30.825-19.491s-2.265-.716-2.678.723c-.414 1.447.85 2.265 1.16 2.989z" fill="#b4b6b9" stroke="#000" stroke-width="1.06"/><path d="M523.106 159.829s-8.148-3.458-8.148-.461c0 2.988.23 3.298 1.542 5.222 1.304 1.916-1.001 3.148-1.001 3.148s-.31-.843-.771-2.154c-.461-1.304-4.841-2.226-5.223-3.76-.381-1.542.922-3.999-1.693-4.3-2.607-.31-5.143 1.073-5.683 4.07-.54 2.996-3.919 9.983-3.919 9.983l.461-15.898c5.739.406 16.39 1.662 24.586 2.608-2.457-.382.922.158.85 1.001-.23.692-1.08.763-1.001.54zm-28.815-3.999c-1.454 0-8.76.843-10.603 1.924-1.845 1.073 2.996 2.758 2.384 4.22-.612 1.463-.691 4.38-2.997 3.768-2.305-.62-10.063-4.459-10.293-5.762-.23-1.304-1.844-1.383-1.844-1.383s22.28-2.997 23.353-2.767z" fill="#474747" stroke="#474747" stroke-linejoin="round" stroke-width=".994"/><path d="M497.805 154.002l-.056 19.538m-14.991-42.558s-8.927 14.491-9.102 14.936" fill="none" stroke="#000" stroke-width="1.06"/><path d="M161.8 129.74s4.89 6.67 4.33 8.56c2 1.56 4.23 7.79 4.23 7.79" fill="url(#flag-gs-746)" stroke="#000" stroke-width="1.333" transform="translate(370.592 27.49696) scale(.79488)"/><path d="M514.227 129.742s-8.394 11.844-8.132 12.726" fill="none" stroke="#000" stroke-width="1.06"/><path d="M471.216 73.425c-.19.663-1.26.92-2.39.573-1.13-.346-1.89-1.163-1.7-1.826.19-.662 1.26-.918 2.39-.572 1.129.346 1.89 1.163 1.7 1.825zm3.394-.233c.19.662 1.26.918 2.39.572 1.129-.346 1.89-1.163 1.7-1.825-.19-.663-1.26-.919-2.39-.573-1.129.346-1.89 1.163-1.7 1.826z" fill="#000001"/><path d="M572.881 318.526s-3.116.589-3.013.875c.096.294-9.053.588-9.244.294-.199-.294-1.367 1.558-1.367 1.558l1.462-.875s2.234 2.33 2.918 2.139c.683-.191-.295.874-.096 1.073.19.19.875-.39.875-.39l15.118-.254z" fill="#ff7000" stroke="#000" stroke-linejoin="round" stroke-width="1.06"/><path d="M578.517 323.232l-12.353.358s-3.108 2.822-3.306 3.497c-.191.684 2.042.875 2.042.875l.684 2.337 1.558-.58s10.5 1.557 20.142-.589c4.865-1.701 5.715-3.744 2.305-4.984-3.402-1.24-10.977-.866-11.072-.914z" fill="#ff7000" stroke="#000" stroke-linejoin="round" stroke-width=".994"/><path d="M208.37 403.93l27.97-1.25-5.21-4.42 75.65-3.05-2.61-6.01-84.7 3.4 10.19 4.76-22.88.68.68 2.38-6-.23s6.68 2.6 6.91 3.74z" fill="url(#flag-gs-794)" stroke="#000" stroke-width="1.333" transform="translate(370.592 27.49696) scale(.79488)"/><path d="M239.73 249.42c-2.23-1.11-12-2.44-22.89 4.67l.45 25.11s15.99-8.67 23.77-6.67c-.45-7.78-.45-17.77-1.33-23.11z" fill="url(#flag-gs-800)" stroke="#000" stroke-width="1.333" transform="translate(370.592 27.49696) scale(.79488)"/><path d="M438.216 286.35l-52.427 52.048m75.793-51.667l-42.552 56.04m40.652-70.666l-56.798 68.765m-1.71-.953l5.509-6.455m63.825-26.787l-22.035 30.396m-.95 3.99l.57 11.582m32.479-35.333l-23.362 29.26m19.188-2.282l9.5-15.58m-5.891-3.036L468.61 338.59m7.98-25.071l-7.79 9.49m-2.282-23.361s-23.744 34.76-23.364 37.614m20.892-42.169c-.564.374-20.512 26.78-20.512 26.78m-1.14 8.354l-3.61 4.372m-4.558 6.653l-5.508 7.218" fill="none" stroke="#000" stroke-width="1.06"/><path d="M435.622 206.345s-1.609 5.055 0 7.583c1.608 2.528 11.719 22.98 11.719 22.98s6.896-8.505 9.424-8.736c2.528-.222 1.375 22.066 1.375 22.066s-4.133 3.903-6.661 3.673c-2.53-.23 6.2 8.735 5.97 16.318-.231 7.584-11.486 45.269-15.623 45.952-4.136.692 1.839-6.891 1.609-8.958-.23-2.067-1.38-.691-2.298-2.989-.92-2.297 1.379-5.747.919-8.044-.46-2.297-2.528-1.836-2.758-3.442-.23-1.613 1.38-2.066 1.15-3.91-.23-1.837-2.758-1.376-2.528-2.99.23-1.605.46-.913.23-3.902s-.69 2.067-3.217 2.297c-2.528.23-4.596 5.978-4.596 5.978s-5.056 7.122-10.111 3.903c2.987 6.438.69 9.196-.46 9.419-1.148.23.92 5.055-1.838 5.286-2.758.23 2.068 10.802-1.149 11.724 3.447 1.606.69 3.673.69 3.673s-7.965.667-6.205 11.033c-23.438-8.275-34.927-22.52-34.698-36.994.23-14.483 4.826-27.575 16.086-32.4 3.216-11.954 8.731-24.824 8.731-24.824s-.919-5.285-.23-8.727c.69-3.45 3.907-6.892 3.907-6.892s-.46-8.275-.23-12.408c.23-4.141 1.838-5.977 2.068-8.275.23-2.297-.689-14.021 1.609-16.088s6.663-1.836 8.961-3.211c2.298-1.383 5.286-3.911 8.273-3.68 2.987.23 5.515 2.297 5.515 2.297s11.26 0 11.95 4.363c.688 4.372-2.299 5.978-2.299 5.978s1.609 6.208-5.285 11.947z" fill="#8a9396" stroke="#2b2b2b" stroke-width="1.06"/><path d="M425.625 190.425c.36.666-.461 1.809-1.835 2.552-1.374.744-2.78.807-3.14.14-.361-.665.46-1.808 1.834-2.552s2.78-.807 3.14-.14z" fill="#cecfcf" stroke="#2b2b2b" stroke-width="1.06"/><path d="M423.717 191.586c0 .42-.382.76-.854.76-.471 0-.854-.34-.854-.76s.383-.761.854-.761c.472 0 .854.34.854.76z" fill="#000001"/><path d="M440.518 199.191s2.791 12.464-.546 21.064m1.405-26.517s5.445 7.202 4.742 16.16m-4.215-17.742c.176 0 4.566 3.863 4.39 6.495m-3.336-8.076s2.986 2.106 3.688 4.212" fill="none" stroke="#2b2b2b" stroke-width=".497"/><path d="M441.553 189.342s-10.715 17.392-9.31 28.282" fill="none" stroke="#000" stroke-width="1.06"/><path d="M442.255 188.818s-14.227 8.434-16.862 36.008" fill="none" stroke="#2b2b2b" stroke-width=".497"/><path d="M440.674 193.913l-5.62 4.213" fill="none" stroke="#000" stroke-width="1.06"/><path d="M420.124 226.408s7.904-32.845 21.956-37.59" fill="none" stroke="#2b2b2b" stroke-width=".497"/><path d="M447.524 237.472s7.556-9.482 9.312-9.133c1.757.35 1.225 21.955 1.225 21.955s-5.62 4.213-6.844 4.038c-1.233-.175 6.319 10.19 6.144 14.053-.175 3.863-.35 3.863-.35 3.863s0-2.28-1.756-5.97c-1.757-3.687-.708-7.908-12.121-17.216-2.811-5.795 5.62 3.513 7.375 2.106 1.757-1.399-3.16-13.52-2.985-13.696z" fill="#2b2b2b" stroke="#2b2b2b" stroke-width="1.06"/><path d="M434.097 184.057s-3.174.866-3.608 2.162c-.433 1.303-2.309 2.599-3.319 2.162-1.01-.43-2.887-2.02-2.887-2.02" fill="none" stroke="#2b2b2b" stroke-width="1.06"/><path d="M416.056 195.169s-4.763 4.761-2.453 5.342c2.31.572 4.763-3.752 4.763-3.752s0 7.36 2.02 6.2c2.021-1.153 7.938-5.334 7.938-5.334s2.02-.15 2.454 0c.433.143 5.485 4.467 8.804 2.886-1.876 4.904-4.041 5.484-4.041 5.484s-3.464 4.475-7.938 3.458c-4.474-1.01-5.63-2.885-5.63-2.885s-3.752.294-4.907-1.44c-1.154-1.732-1.587-2.742-1.587-2.742s-2.165 2.163-2.742 1.153c-.578-1.01 0-6.931 3.319-8.37z" fill="#2b2b2b" stroke="#2b2b2b" stroke-linejoin="round" stroke-width=".994"/><path d="M443.046 188.532s-8.804-2.6-11.835 1.733c-3.03 4.324-2.309 6.78-.722 7.21" fill="none" stroke="#2b2b2b" stroke-width="1.06"/><path d="M444.405 188.285c0 1.038-.744 1.88-1.66 1.88-.917 0-1.66-.842-1.66-1.88 0-1.038.743-1.88 1.66-1.88.916 0 1.66.842 1.66 1.88z" fill="#000001"/><path d="M418.78 210.749s3.591 5.524 7.872 7.042c4.28 1.518-2.97 2.83-7.25-.063-3.106-4.213-2.278-7.25-2.278-7.25s.829-.834 1.657.27zm30.724 32.59s-10.08-14.014-12.98-14.777c-2.9-.755 2.21-1.375 5.316 1.59 3.107 2.965-.828-4.833-.828-4.833z" fill="#2b2b2b" stroke="#2b2b2b" stroke-width="1.06"/><path d="M417.815 324.321c3.866-1.033 20.711 9.666 24.509 12.36 3.797 2.687 11.738.962 11.738.962s-3.664 2.21-5.939 2.766c-2.278.549 6.766.549 6.766.549s-21.54 5.938-43.426-5.588c-2.002-8.974 4.695-10.977 6.352-11.049z" fill="#2b2b2b" stroke="#2b2b2b" stroke-linejoin="round" stroke-width=".994"/><path d="M442.462 246.788s-2.83-.548-4.28-2.21c-1.45-1.653-3.522-5.73-5.662-7.455-2.14-1.725-12.841-7.591-16.707-7.178-3.867.413-5.04-.413-5.524-.898-.483-.485-2.07.206-1.795 2.21.277 2.003-2.969 6.422-1.795 8.489 1.174 2.074 6.697 10.492 7.802 10.77 1.104.279.414 4.905.414 4.905s4.902 4.968 6.145 5.246c1.242.278 2.485 1.176 2.347 2.345-.138 1.176-5.385 7.599-5.385 7.599s-5.661 2.965-5.73 4.626c-.07 1.654 1.38 5.103 5.868 6.208 4.487 1.105 16.57.207 17.19-.826.622-1.034 1.588-7.25 1.174-7.87-.414-.62-3.383-2.488-4.902-2.21-1.518.279-2.899 1.519-2.761 1.797.138.278-2.14 1.447-2.14.342s4.487-6.073 4.901-5.66c.415.413 6.766 1.033 7.94 4.213 1.173 3.172 1.173 5.453 4.487 5.111 3.314-.35 7.939-3.386 8.352-9.737.413-6.351-3.726-10.636-4.761-11.256-1.036-.62-4.488-2.694-4.764-3.656-.277-.97-.967-4.141-.414-4.905z" fill="#2b2b2b" stroke="#2b2b2b" stroke-width="1.06"/><path d="M382.743 274.824s10.701-2.766 13.462-2.695c2.762.064 13.187 4.897 16.225 7.87 3.037 2.964 9.25 10.007 13.324 9.387 4.073-.62 5.247-1.447 5.247-1.447l-1.588 3.037s-3.314.898-4.97.485c-1.658-.414-4.902-1.455-8.147-4.626-3.245-3.18-13.255-11.74-21.747-11.12-8.493.627-13.394 8.981-13.394 8.981s.07-4.077.414-4.976c.345-.898-1.795 1.932-1.795 1.932z" fill="#2b2b2b" stroke="#2b2b2b" stroke-width="1.06"/><path d="M422.164 283.107c.069.063 2.693.755 7.11.755 4.42 0 6.767-1.932 6.767-1.932l-.276-1.725.69-2.416s3.383 3.45 3.314 4.141c-.07.692-1.38.97-1.38.97l-.484-1.661-1.173 1.454s-6.421 5.103-9.942 4.348c-3.521-.763-6.766-3.036-5.869-3.593.898-.548 1.381-.341 1.243-.341zm-15.603 9.045s-3.866-.071-5.592.755c-1.726.827-2.347 1.868-3.521 1.725-1.173-.135-2.07-1.653-1.726-2.273.483-.97 2.762-2.21 7.111-1.868 4.35.35 3.728 1.661 3.728 1.661zm13.532 10.493c0-.207-.276-5.66-2.416-7.87-2.14-2.21-4.764-2.21-5.938-1.94-1.173.28 4.35 2.695 4.902 4.285.552 1.59 2.347 6.01 1.864 7.114-.483 1.097-1.38-3.108-4.764-4.284-3.383-1.176-8.077-.548-7.11.97.966 1.518 4.763.135 6.696 3.378 1.933 3.243 3.383 6.7 3.383 6.7l.622-2.352 1.725-.477.207-4.491z" fill="#2b2b2b" stroke="#2b2b2b" stroke-width="1.06"/><path d="M417.332 320.315l-3.522-7.043s-1.104-4.483-4.073-5.73c-2.968-1.24-6.904-1.034-6.973.484-.07 1.518 6.352 3.45 6.766 4.284.414.827.207 2.21-.345 2.274-.552.071-3.383-1.034-4.833-.692-1.45.35-2.278 2.21-4.419 1.662-2.14-.557-3.935-7.385-3.106-8.076.828-.692-1.588 1.24-2.071-.557-.484-1.796.69-7.384-.139-8.076-.828-.691-4.832-3.108-4.901-3.593-.07-.477.207-27.47 22.783-5.103-9.666-11.462-13.463-10.222-15.258-10.286-1.311 0-10.08.756-12.289 11.94-2.21 11.183-4.833 4.212-4.833 4.212s-.483 4.833 1.864 6.216c2.348 1.375-1.104 5.382-1.104 5.382s-4.212-10.286-3.59-14.777c-.829 3.593-.76 12.495 4.556 22.233 6.214 6.557 12.082 12.638 27.685 19.466 8.216-12.559 7.802-14.077 7.802-14.22z" fill="#2b2b2b" stroke="#2b2b2b" stroke-linejoin="round" stroke-width=".994"/><path d="M402.557 320.386s4.557.549 5.799 2.902c1.243 2.345 1.796 5.937 1.796 5.937.759-1.518 1.104-2.83 2.623-3.934 1.519-1.105 2.624-1.248 2.554-2.075-.069-.827-4.832-5.866-7.249-6.144-2.416-.278-6.628 2.623-6.628 2.623s-.759 1.105 1.105.691z" fill="#8a9396" stroke="#2b2b2b" stroke-linejoin="round" stroke-width=".994"/><g fill="none" stroke-linecap="round" stroke-width="1.25"><path d="M412.965 332.262s11.808 5.381 31.258 5.731" stroke="#8a9396" stroke-width=".994"/><path d="M452.385 277.447s-1.01 9.912-8.633 29.466" stroke="#2b2b2b" stroke-width=".994"/><path d="M450.867 283.544s-2.289 7.114-8.64 12.448" stroke="#2b2b2b" stroke-linecap="butt" stroke-width="1.06"/></g><g stroke-width="1.333"><path d="M0 0v25.562L317.137 228.63h39.92v-25.56L39.918 0zm357.056 0v25.56L39.92 228.63H0v-25.562L317.137 0h39.92z" fill="#fff"/><path d="M148.773 0v228.63h59.51V0zM0 76.21v76.21h357.056V76.21z" fill="#fff"/><path d="M0 91.452v45.726h357.056V91.452zM160.675.002v228.627h35.706V0h-35.705zM0 228.63l119.02-76.21h26.61L26.614 228.63zM0 0l119.02 76.21H92.405L0 17.042V.002zm211.425 76.21L330.445 0h26.61L238.038 76.21h-26.612zm145.63 152.42l-119.018-76.21h26.613l92.406 59.168v17.04z" fill="#c00"/></g></svg>