<svg xmlns="http://www.w3.org/2000/svg" viewBox="0 0 640 480" height="16" width="22"><path d="M0 0h640v480H0z" fill="#f5f5f5" fill-rule="evenodd"/><path d="M54.297 9.137c-28.585 0-37.158 22.69-54.3 22.69V72.82c17.142 0 25.712-22.69 54.284-22.69 42.857 0 57.144 31.843 114.291 31.843 28.572 0 42.857-31.842 71.43-31.842 42.856 0 57.142 31.842 114.281 31.842 28.571 0 42.858-31.842 71.43-31.842 42.857 0 57.142 31.842 114.281 31.842 28.571 0 42.856-31.842 71.428-31.842 11.009 0 20.129 2.107 28.578 5.23V14.363c-8.445-3.12-17.56-5.226-28.563-5.226-28.572 0-42.858 31.842-71.43 31.842-57.142 0-71.428-31.842-114.28-31.842-28.573 0-42.859 31.842-71.43 31.842-57.143 0-71.43-31.842-114.281-31.842-28.573 0-42.859 31.842-71.43 31.842-57.143 0-71.429-31.842-114.29-31.842zm0 79.607c-28.585-.002-37.158 22.688-54.3 22.688v40.994c17.142 0 25.712-22.692 54.284-22.692 42.857 0 57.144 31.844 114.291 31.844 28.572 0 42.857-31.844 71.43-31.844 42.856 0 57.142 31.844 114.281 31.844 28.571 0 42.858-31.844 71.43-31.844 42.857 0 57.142 31.844 114.281 31.844 28.571 0 42.856-31.844 71.428-31.844 11.009 0 20.129 2.11 28.578 5.233V93.97c-8.445-3.12-17.56-5.227-28.563-5.227-28.572 0-42.858 31.842-71.43 31.842-57.142 0-71.428-31.842-114.28-31.842-28.573 0-42.859 31.842-71.43 31.842-57.143 0-71.43-31.842-114.281-31.842-28.573 0-42.859 31.842-71.43 31.842-57.143 0-71.429-31.842-114.29-31.842zm0 79.604c-28.571 0-37.144 22.69-54.287 22.69v40.993c17.143 0 25.715-22.687 54.287-22.687 42.857 0 57.142 31.842 114.289 31.842 28.571 0 42.856-31.842 71.43-31.842 42.856 0 57.142 31.842 114.28 31.842 28.572 0 42.858-31.842 71.43-31.842 42.857 0 57.143 31.842 114.282 31.842 28.571 0 42.857-31.842 71.43-31.842 11.003 0 20.117 2.106 28.562 5.226v-40.996c-8.445-3.12-17.56-5.226-28.563-5.226-28.572 0-42.858 31.841-71.43 31.841-57.142 0-71.428-31.841-114.28-31.841-28.573 0-42.859 31.841-71.43 31.841-57.143 0-71.43-31.841-114.281-31.841-28.573 0-42.859 31.841-71.43 31.841-57.143 0-71.429-31.841-114.29-31.841zm0 79.601c-28.571 0-37.144 22.692-54.287 22.692v40.994c17.143 0 25.715-22.688 54.287-22.688 42.857 0 57.142 31.842 114.289 31.842 28.571 0 42.856-31.842 71.43-31.842 42.856 0 57.142 31.842 114.28 31.842 28.572 0 42.858-31.842 71.43-31.842 42.857 0 57.143 31.842 114.282 31.842 28.571 0 42.857-31.842 71.43-31.842 11.003 0 20.117 2.107 28.562 5.227v-40.996c-8.445-3.12-17.56-5.229-28.563-5.229-28.572 0-42.858 31.844-71.43 31.844-57.142 0-71.428-31.844-114.28-31.844-28.573 0-42.859 31.844-71.43 31.844-57.143 0-71.43-31.844-114.281-31.844-28.573 0-42.859 31.844-71.43 31.844-57.143 0-71.429-31.844-114.29-31.844zm0 79.604c-28.571 0-37.144 22.691-54.287 22.691v40.994c17.143.01 25.715-22.687 54.287-22.687 42.857 0 57.142 31.842 114.289 31.842 28.571 0 42.856-31.842 71.43-31.842 42.856 0 57.142 31.842 114.28 31.842 28.572 0 42.858-31.842 71.43-31.842 42.857 0 57.143 31.842 114.282 31.842 28.571 0 42.857-31.842 71.43-31.842 11.003 0 20.117 2.106 28.562 5.226v-40.996c-8.445-3.12-17.56-5.228-28.563-5.228-28.572 0-42.858 31.842-71.43 31.842-57.142 0-71.428-31.842-114.28-31.842-28.573 0-42.859 31.842-71.43 31.842-57.143 0-71.43-31.842-114.281-31.842-28.573 0-42.859 31.842-71.43 31.842-57.143 0-71.429-31.842-114.29-31.842zm0 79.613c-28.571 0-37.144 22.69-54.287 22.69v40.994c17.143 0 25.715-22.688 54.287-22.688 42.858 0 57.145 31.838 114.281 31.838 28.571 0 42.855-31.842 71.428-31.842 42.856 0 57.142 31.842 114.281 31.842 28.571 0 42.858-31.842 71.43-31.842 42.857 0 57.142 31.842 114.281 31.842 28.571 0 42.858-31.842 71.43-31.842 11.007 0 20.124 2.108 28.572 5.23v-40.995c-8.445-3.121-17.56-5.227-28.563-5.227-28.572 0-42.858 31.842-71.43 31.842-57.142 0-71.428-31.842-114.28-31.842-28.573 0-42.859 31.842-71.43 31.842-57.143 0-71.43-31.842-114.281-31.842-28.573 0-42.859 31.842-71.43 31.842-57.143 0-71.429-31.842-114.29-31.842z" fill="#000063" fill-rule="evenodd"/><path d="M0 .06h244.978V148.1H0z" fill="#000063" fill-rule="evenodd"/><g stroke-width="1.333"><path d="M0 .06v16.55l217.59 131.487h27.39v-16.55L27.39.06H0zm244.98 0v16.55L27.39 148.095H0v-16.55L217.59.06h27.39z" fill="#fff"/><path d="M102.075.06v148.035h40.83V.059zM0 49.403V98.75h244.98V49.404z" fill="#fff"/><path d="M0 59.273v29.608h244.98V59.274H0zM110.24.06v148.036h24.5V.059zM0 148.095L81.66 98.75h18.259l-81.66 49.345zM0 .059l81.66 49.345H63.401L0 11.094zm145.061 49.345L226.721.06h18.259l-81.66 49.345zm99.919 98.691L163.32 98.75h18.259l63.401 38.312v11.034z" fill="#c00"/></g><path d="M354.33 531.5l88.583 88.583 17.716-53.149v88.582l35.433-35.433-17.716 88.583 35.432-35.434-17.716 88.584 35.433-35.433-17.716 106.3 35.433-35.433-35.433 106.3 35.433-35.433-17.717 106.3-17.716 53.151-17.717 17.72-17.717-17.72-17.716-53.151-53.15-82.294 35.434 11.429-35.433-106.3 35.433 35.433-53.15-106.3 35.433 35.433-53.15-88.584 53.15 35.434-70.866-88.583 53.149 35.433-70.866-70.866 70.866 35.433-53.149-88.583z" fill="#006d00" fill-rule="evenodd" stroke="#fff" stroke-width="8.25" transform="matrix(.03237 -.2199 .22877 .03907 108.24563 215.19188)"/><path d="M378.96 560.02l63.952 95.497 17.716 53.15 8.859 45.205 8.858 78.811 9.315 70.866 8.401 141.74" fill="none" stroke="#000001" stroke-width="1.333" transform="matrix(.03237 -.2199 .22877 .03907 108.24563 215.19188)"/><path d="M425.2 903.54l63.665 70.866 50.749-88.583" fill="none" stroke="#000001" stroke-width="1.333" transform="matrix(.03237 -.2199 .22877 .03907 108.24563 215.19188)"/><path d="M417.08 814.96l70.579 88.583 50.75-88.583" fill="none" stroke="#000001" stroke-width="1.333" transform="matrix(.03237 -.2199 .22877 .03907 108.24563 215.19188)"/><path d="M407.48 752.44l70.867 80.235 45.948-88.583M372.05 637.8l88.583 70.866 25.831-70.866" fill="none" stroke="#000001" stroke-width="1.333" transform="matrix(.03237 -.2199 .22877 .03907 108.24563 215.19188)"/><path d="M360.62 602.36l82.296 53.149 10.515-53.149m-63.671 88.58l81.095 70.866 33.946-70.866" fill="none" stroke="#000001" stroke-width="1.333" transform="matrix(.03237 -.2199 .22877 .03907 108.24563 215.19188)"/><path d="M356.1 112.31l-3.428 325.674c0 17.14 15.499 17.14 17.14 0l-3.428-325.674H356.1z" fill="#a24300" fill-rule="evenodd" stroke="#fff" stroke-width="2.068"/><path d="M391.592 233.34l-10.786-11.835-2.662 11.957-4.686-17.315-4.381 8.718-.776-18.435-4.381 8.718-.776-18.435-4.382 8.718-2.494-21.674-4.382 8.718-2.495-21.674-4.381 8.718-2.495-21.674-1.248-10.837 2.19-4.36 5.63 2.12 9.067 8.597 18.134 17.194-11.258-4.238 18.134 17.194-11.257-4.238 18.134 17.194-11.258-4.238 16.415 13.955-11.258-4.238 16.415 13.955-11.258-4.238 12.506 15.075-12.977-7.477z" fill="#006d00" fill-rule="evenodd" stroke="#fff" stroke-width="1.779"/><path d="M391.592 233.34l-48.134-90.692m32.829 27.911l-25.953-14.954-5.325 23.914" fill="none" stroke="#000001" stroke-width=".287"/><path d="M383.163 183.516l-25.953-14.954-5.325 23.914" fill="none" stroke="#000001" stroke-width=".287"/><path d="M390.039 196.47l-25.954-14.953-5.325 23.913" fill="none" stroke="#000001" stroke-width=".287"/><path d="M395.196 206.188l-24.234-11.715-7.044 20.674" fill="none" stroke="#000001" stroke-width=".287"/><path d="M400.353 215.905L376.12 204.19l-7.044 20.674" fill="none" stroke="#000001" stroke-width=".287"/><path d="M401.602 226.741l-22.044-16.074-1.415 22.794" fill="none" stroke="#000001" stroke-width=".287"/><path d="M265.22 78.753l17.608 6.715-5.12-13.315 15.394 15.167-1.453-10.884 12.453 18.177-1.453-10.883 12.454 18.177-1.453-10.883 16.12 20.608-1.453-10.883 16.12 20.609-1.452-10.884 16.12 20.609 8.06 10.304.728 5.443-6.608.579-13.941-4.284-27.882-8.566 13.214-1.16-27.881-8.566 13.214-1.158-27.882-8.567 13.214-1.158-24.214-6.136 13.214-1.158-24.215-6.135 13.214-1.159-21.274-9.146 16.881 1.273z" fill="#006d00" fill-rule="evenodd" stroke="#fff" stroke-width="1.986"/><path d="M265.22 78.753l102.673 68.077m-48.43-12.272l33.762 2.546-10.24-26.63" fill="none" stroke="#000001" stroke-width=".321"/><path d="M304.795 124.832l33.763 2.545-10.24-26.63" fill="none" stroke="#000001" stroke-width=".321"/><path d="M290.13 115.108l33.762 2.545-10.24-26.63" fill="none" stroke="#000001" stroke-width=".321"/><path d="M279.129 107.814l30.095.114-6.573-24.199" fill="none" stroke="#000001" stroke-width=".321"/><path d="M268.128 100.52l30.095.114-6.572-24.198" fill="none" stroke="#000001" stroke-width=".321"/><path d="M260.067 90.217l30.822 5.556-13.18-23.62" fill="none" stroke="#000001" stroke-width=".321"/><path d="M469.886 101.499l-14.668 10.73 16.185 1.8-22.577 5.355 12.047 3.587-24.463 1.774 12.047 3.588-24.463 1.774 12.048 3.587-28.602 3.561 12.047 3.588-28.601 3.561 12.047 3.588-28.601 3.56-14.301 1.782-6.025-1.794 2.254-5.369 10.531-8.942 21.061-17.885-4.507 10.736 21.061-17.885-4.506 10.737 21.06-17.885-4.506 10.736 16.922-16.098-4.506 10.736 16.922-16.097-4.507 10.736 18.808-12.517-8.646 12.523z" fill="#006d00" fill-rule="evenodd" stroke="#fff" stroke-width="1.986"/><path d="M469.886 101.499l-115.88 50.041m33.846-32.195l-17.291 25.046 32.372 3.602" fill="none" stroke="#000001" stroke-width=".321"/><path d="M404.407 112.196l-17.29 25.047 32.372 3.601" fill="none" stroke="#000001" stroke-width=".321"/><path d="M420.96 105.048l-17.29 25.047 32.371 3.601" fill="none" stroke="#000001" stroke-width=".321"/><path d="M433.376 99.687l-13.152 23.26 28.233 5.387" fill="none" stroke="#000001" stroke-width=".321"/><path d="M445.791 94.325l-13.151 23.26 28.233 5.388" fill="none" stroke="#000001" stroke-width=".321"/><path d="M460.092 92.543l-19.176 21.466 30.487.02" fill="none" stroke="#000001" stroke-width=".321"/><path d="M467.523 209.85l-18.254-5.292 6.528 12.853-16.957-13.883 2.615 10.722-14.352-17.113 2.616 10.722-14.353-17.114 2.616 10.722-18.265-19.244 2.615 10.723-18.265-19.245 2.616 10.723-18.265-19.245-9.133-9.622-1.308-5.361 6.518-1.1 14.342 3.16 28.683 6.322-13.034 2.2 28.683 6.322-13.033 2.2 28.683 6.322-13.034 2.2 24.77 4.192-13.033 2.2 24.77 4.191-13.033 2.2 22.166 7.422-16.946.07z" fill="#006d00" fill-rule="evenodd" stroke="#fff" stroke-width="1.986"/><path d="M467.523 209.85l-109.546-59.654m49.542 8.383l-33.892.139 13.055 25.706" fill="none" stroke="#000001" stroke-width=".321"/><path d="M423.169 167.102l-33.893.14 13.056 25.705" fill="none" stroke="#000001" stroke-width=".321"/><path d="M438.817 175.623l-33.893.14 13.056 25.705" fill="none" stroke="#000001" stroke-width=".321"/><path d="M450.554 182.014l-29.98 2.27 9.143 23.575" fill="none" stroke="#000001" stroke-width=".321"/><path d="M462.29 188.406l-29.98 2.27 9.144 23.575" fill="none" stroke="#000001" stroke-width=".321"/><path d="M471.424 198.027l-31.288-3.091 15.66 22.475" fill="none" stroke="#000001" stroke-width=".321"/><path d="M277.316 216.193l9.163-12.807-13.974 2.016 17.264-9.8-11.037-.496 19.845-7.039-11.037-.496 19.846-7.04-11.037-.495 22.782-9.552-11.037-.496 22.782-9.551-11.037-.496 22.781-9.552 11.391-4.776 5.52.248-.355 5.272-6.227 10.295-12.452 20.591.708-10.543-12.453 20.59.708-10.543-12.453 20.59.708-10.542-9.517 18.078.708-10.543-9.516 18.079.708-10.544-12.099 15.32 3.644-13.056z" fill="#006d00" fill-rule="evenodd" stroke="#fff" stroke-width="1.779"/><path d="M277.316 216.193l82.214-70.332m-19.034 36.157l7.29-26.11-27.948 4.032" fill="none" stroke="#000001" stroke-width=".287"/><path d="M328.75 192.066l7.289-26.11-27.946 4.031" fill="none" stroke="#000001" stroke-width=".287"/><path d="M317.007 202.112l7.288-26.11-27.946 4.032" fill="none" stroke="#000001" stroke-width=".287"/><path d="M308.198 209.648l4.352-23.599-25.01 1.52" fill="none" stroke="#000001" stroke-width=".287"/><path d="M299.39 217.183l4.351-23.598-25.01 1.52" fill="none" stroke="#000001" stroke-width=".287"/><path d="M288 221.96l9.87-23.35-25.364 6.791" fill="none" stroke="#000001" stroke-width=".287"/><path d="M443.443 47.366L425.73 59.223l-2.905-12.713-10.454 17.58-1.874-8.462-8.539 18.032-1.2-8.302-6.625 18.483-3.788-8.912-6.645 22.487-3.788-8.912-6.646 22.487-3.788-8.912-6.645 22.488-3.323 11.244 1.894 4.457 7.111-2.332 12.328-9.12 24.655-18.237-14.222 4.662 24.655-18.237-14.221 4.662 24.654-18.238-14.221 4.663 24.635-14.233-16.81 4.052 26.549-13.782-16.136 4.211 19.459-15.454-16.83 8.056z" fill="#006d00" fill-rule="evenodd" stroke="#fff" stroke-width="1.978"/><path d="M436.553 53.76L410.96 75.787 361.4 140.27" fill="none" stroke="#000001" stroke-width=".32"/><path d="M400.085 113.312l-28.248 13.38-2.38-20.608" fill="none" stroke="#000001" stroke-width=".32"/><path d="M410.95 99.838l-28.678 13.279-2.38-20.608" fill="none" stroke="#000001" stroke-width=".32"/><path d="M421.167 86.213l-28.463 13.33-2.164-20.557" fill="none" stroke="#000001" stroke-width=".32"/><path d="M429.639 76.182l-26.502 9.783-3.074-16.762" fill="none" stroke="#000001" stroke-width=".32"/><path d="M439.404 66.46l-28.443 9.326-1.106-16.298" fill="none" stroke="#000001" stroke-width=".32"/><path d="M443.19 57.27l-26.3 13.456 5.079-20.408" fill="none" stroke="#000001" stroke-width=".32"/><path d="M347.456 25.141l7.91 18.056 10.2-9.543-1.758 19.683 6.736-6.378-3.665 19.21 6.066-6.544-5.573 18.738 8.644-5.905-7.987 22.163 8.644-5.905-7.987 22.163 8.644-5.905-7.987 22.163-3.993 11.081-4.322 2.953-4.65-5.177-4.98-13.305-9.958-26.611 9.301 10.353-9.958-26.611 9.301 10.353-9.958-26.611 9.3 10.353-12.372-23.186 11.88 10.992-14.28-23.658 11.208 10.826-7.215-21.907 9.466 14.417z" fill="#006d00" fill-rule="evenodd" stroke="#fff" stroke-width="1.978"/><path d="M349.45 33.685l8.457 30.263 3.121 77.226" fill="none" stroke="#000001" stroke-width=".32"/><path d="M344.398 100.836l15.973 24.077 14.545-16.513" fill="none" stroke="#000001" stroke-width=".32"/><path d="M343.31 84.47l16.403 24.184 14.545-16.513" fill="none" stroke="#000001" stroke-width=".32"/><path d="M342.869 68.267l16.187 24.131 14.33-16.567" fill="none" stroke="#000001" stroke-width=".32"/><path d="M341.733 55.912L358.4 76.138l12.802-12.921" fill="none" stroke="#000001" stroke-width=".32"/><path d="M339.305 43.241l18.603 20.706 10.84-13.408" fill="none" stroke="#000001" stroke-width=".32"/><path d="M341.657 33.704l14.265 23.27 8.06-19.688" fill="none" stroke="#000001" stroke-width=".32"/><g fill-rule="evenodd"><path d="M541.46 1173.3l-1.7-229.13-61.1-106.94c-15.277-52.618-7.754-78.079 16.973-79.776 24.728-1.698 49.224 13.579 84.868 15.276 35.645 1.697 28.856-59.408 81.474-57.71 52.618 1.697 144.28 32.25 222.36 37.342 78.078 5.092 118.81-27.158 208.77-30.553 89.97-3.395 113.73 42.435 118.82 42.435 5.09 0 30.55-18.672 56.01-22.066 25.46-3.395 33.95 10.184 33.95 10.184s-1.7 57.71-13.58 91.657c-11.88 33.948-54.32 89.961-56.01 89.961-1.7 0-15.28 249.52-15.28 251.21 0 1.7-675.55-6.79-675.55-11.88z" fill="#c00" stroke="#000001" stroke-width="1.333" transform="matrix(.12805 0 0 .11787 249.7125 195.17812)"/><g stroke="#000001" stroke-width="1.333"><path d="M531.5 584.65s-67.982-52.097-69.813-177.17c-1.053-71.929 34.38-124.02 122.96-124.02 124.02 0 301.18 53.149 301.18 53.149v17.717s-141.73-53.15-301.18-53.15c-70.866 0-106.3 52.087-106.3 105.24 0 88.583 70.867 178.23 70.867 178.23v141.73h-17.717v-141.73z" fill="#fff100" transform="matrix(-.12805 0 0 .11787 476.58469 236.94375)"/><path d="M478.35 549.21c0 9.785-7.932 17.717-17.717 17.717-9.785 0-17.717-7.932-17.717-17.717 0-9.785 7.932-17.717 17.717-17.717 9.785 0 17.717 7.932 17.717 17.717z" fill="#fff" transform="matrix(-.12805 0 0 .11787 474.5325 236.74312)"/><path d="M478.35 549.21c0 9.785-7.932 17.717-17.717 17.717-9.785 0-17.717-7.932-17.717-17.717 0-9.785 7.932-17.717 17.717-17.717 9.785 0 17.717 7.932 17.717 17.717z" fill="#fff" transform="matrix(-.12805 0 0 .11787 476.80125 231.96656)"/><path d="M478.35 549.21c0 9.785-7.932 17.717-17.717 17.717-9.785 0-17.717-7.932-17.717-17.717 0-9.785 7.932-17.717 17.717-17.717 9.785 0 17.717 7.932 17.717 17.717z" fill="#fff" transform="matrix(-.12805 0 0 .11787 477.98344 227.10281)"/><path d="M478.35 549.21c0 9.785-7.932 17.717-17.717 17.717-9.785 0-17.717-7.932-17.717-17.717 0-9.785 7.932-17.717 17.717-17.717 9.785 0 17.717 7.932 17.717 17.717z" fill="#fff" transform="matrix(-.12805 0 0 .11787 478.8525 221.90062)"/><path d="M478.35 549.21c0 9.785-7.932 17.717-17.717 17.717-9.785 0-17.717-7.932-17.717-17.717 0-9.785 7.932-17.717 17.717-17.717 9.785 0 17.717 7.932 17.717 17.717z" fill="#fff" transform="matrix(-.12805 0 0 .11787 478.63594 216.26063)"/><path d="M478.35 549.21c0 9.785-7.932 17.717-17.717 17.717-9.785 0-17.717-7.932-17.717-17.717 0-9.785 7.932-17.717 17.717-17.717 9.785 0 17.717 7.932 17.717 17.717z" fill="#fff" transform="matrix(-.12805 0 0 .11787 471.27188 240.945)"/><path d="M478.35 549.21c0 9.785-7.932 17.717-17.717 17.717-9.785 0-17.717-7.932-17.717-17.717 0-9.785 7.932-17.717 17.717-17.717 9.785 0 17.717 7.932 17.717 17.717z" fill="#fff" transform="matrix(-.12805 0 0 .11787 476.70656 210.93375)"/><path d="M478.35 549.21c0 9.785-7.932 17.717-17.717 17.717-9.785 0-17.717-7.932-17.717-17.717 0-9.785 7.932-17.717 17.717-17.717 9.785 0 17.717 7.932 17.717 17.717z" fill="#fff" transform="matrix(-.12805 0 0 .11787 472.57687 206.73281)"/><path d="M478.35 549.21c0 9.785-7.932 17.717-17.717 17.717-9.785 0-17.717-7.932-17.717-17.717 0-9.785 7.932-17.717 17.717-17.717 9.785 0 17.717 7.932 17.717 17.717z" fill="#fff" transform="matrix(-.12805 0 0 .11787 466.92563 203.9325)"/><path d="M478.35 549.21c0 9.785-7.932 17.717-17.717 17.717-9.785 0-17.717-7.932-17.717-17.717 0-9.785 7.932-17.717 17.717-17.717 9.785 0 17.717 7.932 17.717 17.717z" fill="#fff" transform="matrix(-.12805 0 0 .11787 461.27438 203.53125)"/><path d="M478.35 549.21c0 9.785-7.932 17.717-17.717 17.717-9.785 0-17.717-7.932-17.717-17.717 0-9.785 7.932-17.717 17.717-17.717 9.785 0 17.717 7.932 17.717 17.717z" fill="#fff" transform="matrix(-.12805 0 0 .11787 455.18906 203.73188)"/><path d="M478.35 549.21c0 9.785-7.932 17.717-17.717 17.717-9.785 0-17.717-7.932-17.717-17.717 0-9.785 7.932-17.717 17.717-17.717 9.785 0 17.717 7.932 17.717 17.717z" fill="#fff" transform="matrix(-.12805 0 0 .11787 449.10281 204.5325)"/><path d="M478.35 549.21c0 9.785-7.932 17.717-17.717 17.717-9.785 0-17.717-7.932-17.717-17.717 0-9.785 7.932-17.717 17.717-17.717 9.785 0 17.717 7.932 17.717 17.717z" fill="#fff" transform="matrix(-.12805 0 0 .11787 443.01563 205.33312)"/><path d="M478.35 549.21c0 9.785-7.932 17.717-17.717 17.717-9.785 0-17.717-7.932-17.717-17.717 0-9.785 7.932-17.717 17.717-17.717 9.785 0 17.717 7.932 17.717 17.717z" fill="#fff" transform="matrix(-.12805 0 0 .11787 436.49625 206.3325)"/><path d="M478.35 549.21c0 9.785-7.932 17.717-17.717 17.717-9.785 0-17.717-7.932-17.717-17.717 0-9.785 7.932-17.717 17.717-17.717 9.785 0 17.717 7.932 17.717 17.717z" fill="#fff" transform="matrix(-.12805 0 0 .11787 430.845 207.73406)"/></g><path d="M478.35 549.21c0 9.785-7.932 17.717-17.717 17.717-9.785 0-17.717-7.932-17.717-17.717 0-9.785 7.932-17.717 17.717-17.717 9.785 0 17.717 7.932 17.717 17.717z" fill="#fff" stroke="#000001" stroke-width="1.333" transform="matrix(.12805 0 0 .11787 251.76375 236.74312)"/><path d="M478.35 549.21c0 9.785-7.932 17.717-17.717 17.717-9.785 0-17.717-7.932-17.717-17.717 0-9.785 7.932-17.717 17.717-17.717 9.785 0 17.717 7.932 17.717 17.717z" fill="#fff" stroke="#000001" stroke-width="1.333" transform="matrix(.12805 0 0 .11787 249.495 231.9675)"/><path d="M478.35 549.21c0 9.785-7.932 17.717-17.717 17.717-9.785 0-17.717-7.932-17.717-17.717 0-9.785 7.932-17.717 17.717-17.717 9.785 0 17.717 7.932 17.717 17.717z" fill="#fff" stroke="#000001" stroke-width="1.333" transform="matrix(.12805 0 0 .11787 248.31281 227.10281)"/><path d="M478.35 549.21c0 9.785-7.932 17.717-17.717 17.717-9.785 0-17.717-7.932-17.717-17.717 0-9.785 7.932-17.717 17.717-17.717 9.785 0 17.717 7.932 17.717 17.717z" fill="#fff" stroke="#000001" stroke-width="1.333" transform="matrix(.12805 0 0 .11787 247.44375 221.90062)"/><path d="M478.35 549.21c0 9.785-7.932 17.717-17.717 17.717-9.785 0-17.717-7.932-17.717-17.717 0-9.785 7.932-17.717 17.717-17.717 9.785 0 17.717 7.932 17.717 17.717z" fill="#fff" stroke="#000001" stroke-width="1.333" transform="matrix(.12805 0 0 .11787 247.66125 216.26063)"/><path d="M478.35 549.21c0 9.785-7.932 17.717-17.717 17.717-9.785 0-17.717-7.932-17.717-17.717 0-9.785 7.932-17.717 17.717-17.717 9.785 0 17.717 7.932 17.717 17.717z" fill="#fff" stroke="#000001" stroke-width="1.333" transform="matrix(.12805 0 0 .11787 249.59062 210.93375)"/><path d="M478.35 549.21c0 9.785-7.932 17.717-17.717 17.717-9.785 0-17.717-7.932-17.717-17.717 0-9.785 7.932-17.717 17.717-17.717 9.785 0 17.717 7.932 17.717 17.717z" fill="#fff" stroke="#000001" stroke-width="1.333" transform="matrix(.12805 0 0 .11787 253.72031 206.73281)"/><path d="M478.35 549.21c0 9.785-7.932 17.717-17.717 17.717-9.785 0-17.717-7.932-17.717-17.717 0-9.785 7.932-17.717 17.717-17.717 9.785 0 17.717 7.932 17.717 17.717z" fill="#fff" stroke="#000001" stroke-width="1.333" transform="matrix(.12805 0 0 .11787 259.37063 203.93156)"/><path d="M478.35 549.21c0 9.785-7.932 17.717-17.717 17.717-9.785 0-17.717-7.932-17.717-17.717 0-9.785 7.932-17.717 17.717-17.717 9.785 0 17.717 7.932 17.717 17.717z" fill="#fff" stroke="#000001" stroke-width="1.333" transform="matrix(.12805 0 0 .11787 265.02188 203.53125)"/><path d="M478.35 549.21c0 9.785-7.932 17.717-17.717 17.717-9.785 0-17.717-7.932-17.717-17.717 0-9.785 7.932-17.717 17.717-17.717 9.785 0 17.717 7.932 17.717 17.717z" fill="#fff" stroke="#000001" stroke-width="1.333" transform="matrix(.12805 0 0 .11787 271.10719 203.73188)"/><path d="M478.35 549.21c0 9.785-7.932 17.717-17.717 17.717-9.785 0-17.717-7.932-17.717-17.717 0-9.785 7.932-17.717 17.717-17.717 9.785 0 17.717 7.932 17.717 17.717z" fill="#fff" stroke="#000001" stroke-width="1.333" transform="matrix(.12805 0 0 .11787 277.19437 204.5325)"/><path d="M478.35 549.21c0 9.785-7.932 17.717-17.717 17.717-9.785 0-17.717-7.932-17.717-17.717 0-9.785 7.932-17.717 17.717-17.717 9.785 0 17.717 7.932 17.717 17.717z" fill="#fff" stroke="#000001" stroke-width="1.333" transform="matrix(.12805 0 0 .11787 283.28062 205.33219)"/><path d="M478.35 549.21c0 9.785-7.932 17.717-17.717 17.717-9.785 0-17.717-7.932-17.717-17.717 0-9.785 7.932-17.717 17.717-17.717 9.785 0 17.717 7.932 17.717 17.717z" fill="#fff" stroke="#000001" stroke-width="1.333" transform="matrix(.12805 0 0 .11787 289.8 206.3325)"/><path d="M478.35 549.21c0 9.785-7.932 17.717-17.717 17.717-9.785 0-17.717-7.932-17.717-17.717 0-9.785 7.932-17.717 17.717-17.717 9.785 0 17.717 7.932 17.717 17.717z" fill="#fff" stroke="#000001" stroke-width="1.333" transform="matrix(.12805 0 0 .11787 295.45219 207.73406)"/><path d="M478.35 549.21c0 9.785-7.932 17.717-17.717 17.717-9.785 0-17.717-7.932-17.717-17.717 0-9.785 7.932-17.717 17.717-17.717 9.785 0 17.717 7.932 17.717 17.717z" fill="#fff" stroke="#000001" stroke-width="1.333" transform="matrix(.12805 0 0 .11787 255.02437 240.945)"/><path d="M531.5 584.65s-67.982-52.097-69.813-177.17c-1.053-71.929 34.38-124.02 122.96-124.02 124.02 0 301.18 53.149 301.18 53.149v17.717s-141.73-53.15-301.18-53.15c-70.866 0-106.3 52.087-106.3 105.24 0 88.583 70.867 178.23 70.867 178.23v141.73h-17.717v-141.73z" fill="#fff100" stroke="#000001" stroke-width="1.333" transform="matrix(.12805 0 0 .11787 249.7125 236.94375)"/><path d="M1240.2 531.5s15.35-35.433 70.86-35.433c37.79 0 70.87 35.433 70.87 70.866v70.866h35.43v-70.866c0-35.47 35.44-70.866 70.87-70.866 53.15 0 70.87 35.433 70.87 35.433s0-106.3-70.87-106.3c-53.15 0-70.87 35.433-70.87 35.433s17.72-53.15 17.72-106.3-35.43-88.583-35.43-88.583c0 6.79-35.44 35.433-35.44 88.583 0 53.149 17.72 106.3 17.72 106.3s-17.72-35.433-70.87-35.433c-70.86 0-70.86 106.3-70.86 106.3z" fill="#fff100" stroke="#000001" stroke-width="2.991" transform="matrix(.04268 0 0 .0449 280.71844 289.7475)"/><path d="M1240.2 531.5s15.35-35.433 70.86-35.433c37.79 0 70.87 35.433 70.87 70.866v70.866h35.43v-70.866c0-35.47 35.44-70.866 70.87-70.866 53.15 0 70.87 35.433 70.87 35.433s0-106.3-70.87-106.3c-53.15 0-70.87 35.433-70.87 35.433s17.72-53.15 17.72-106.3-35.43-88.583-35.43-88.583c0 6.79-35.44 35.433-35.44 88.583 0 53.149 17.72 106.3 17.72 106.3s-17.72-35.433-70.87-35.433c-70.86 0-70.86 106.3-70.86 106.3z" fill="#fff100" stroke="#000001" stroke-width="2.991" transform="matrix(.04268 0 0 .0449 326.09062 289.7475)"/><path d="M531.5 832.68V673.23s35.433 53.15 88.583 53.15c43.489 0 88.582-70.866 88.582-70.866s41.515 53.149 88.583 53.149c42.021 0 88.516-68.572 88.516-68.572s43.207 68.572 88.649 68.572c45.441 0 88.581-53.149 88.581-53.149s46.29 70.866 106.3 70.866c53.15 0 70.87-53.15 70.87-53.15v159.45h-708.66z" fill="#fff100" stroke="#000001" stroke-width="1.333" transform="matrix(.12805 0 0 .11787 249.7125 236.94375)"/><path d="M708.66 832.68V708.66s106.3 35.433 106.3 124.02z" fill="#fff100" stroke="#000001" stroke-width="1.333" transform="matrix(.12805 0 0 .11787 227.025 236.94375)"/><path d="M708.66 832.68V708.66s106.3 35.433 106.3 124.02z" fill="#fff100" stroke="#000001" stroke-width="1.333" transform="matrix(-.12805 0 0 .11787 499.26281 236.94375)"/><path d="M602.36 832.68c0-88.583 106.37-144.6 106.37-144.6s106.23 56.016 106.23 144.6z" fill="#fff100" stroke="#000001" stroke-width="1.333" transform="matrix(.12805 0 0 .11787 249.7125 236.94375)"/><path d="M602.36 832.68c0-88.583 106.37-144.6 106.37-144.6s106.23 56.016 106.23 144.6z" fill="#fff100" stroke="#000001" stroke-width="1.333" transform="matrix(.12805 0 0 .11787 295.08562 236.94375)"/><path d="M584.65 847.53c0-88.583 124.08-159.45 124.08-159.45s123.95 70.866 123.95 159.45z" fill="#fff100" stroke="#000001" stroke-width="1.333" transform="matrix(.12805 0 0 .11787 272.39812 235.19344)"/><path d="M1275.6 655.51c-35.43-17.716-166.02-35.433-376.28-35.433-210.26 0-350.1 17.717-385.53 35.433-35.434 17.717-35.434 53.149-.001 70.866 35.433 17.716 175.28 35.433 385.54 35.433 210.26 0 340.84-17.716 376.28-35.433 35.43-17.716 35.43-53.149 0-70.866z" fill="#fff" stroke="#000001" stroke-width="1.333" transform="matrix(.1266 0 0 .11787 249.27937 257.82656)"/><path d="M408.522 343.446c0 4.176-37.74 4.176-45.374 4.176-8.247 0-45.373 1.132-45.373-4.176 0-4.177 37.433-4.177 45.373-4.177 7.94 0 45.374.85 45.374 4.177z" fill="gray"/><path d="M322.31 328.446c0 1.365-1.017 2.47-2.27 2.47-1.253 0-2.268-1.105-2.268-2.47 0-1.365 1.015-2.473 2.269-2.473 1.252 0 2.269 1.107 2.269 2.473zm86.208 0c0 1.365-1.015 2.47-2.268 2.47s-2.27-1.105-2.27-2.47c0-1.365 1.017-2.473 2.27-2.473 1.253 0 2.268 1.107 2.268 2.473z" fill="#c00"/><path d="M367.683 327.124c0 1.365-2.032 2.471-4.538 2.471-2.506 0-4.537-1.106-4.537-2.471s2.031-2.471 4.537-2.471 4.538 1.106 4.538 2.47z" fill="#000001"/><path d="M389.447 327.124c0 1.365-1.524 2.471-3.403 2.471s-3.403-1.106-3.403-2.471 1.524-2.471 3.403-2.471c1.88 0 3.403 1.106 3.403 2.47zm-46.72 0c0 1.365-1.524 2.471-3.403 2.471-1.88 0-3.403-1.106-3.403-2.471s1.524-2.471 3.403-2.471c1.88 0 3.404 1.106 3.404 2.47z" fill="#006300"/><path d="M1257.9 496.06s35.44-53.15 70.87-53.15h35.43v35.433c0 53.15-53.15 70.867-53.15 70.867h141.74s-53.15-17.717-53.15-70.867V442.91h35.43c35.43 0 70.87 53.15 70.87 53.15V354.33s-35.44 53.15-70.87 53.15h-35.43v-35.433c0-53.15 53.15-70.867 53.15-70.867h-141.74s53.15 17.717 53.15 70.867v35.433h-35.43c-35.43 0-70.87-53.15-70.87-53.15z" fill="#fff100" stroke="#000001" stroke-width="2.188" transform="matrix(.07317 0 0 .06736 262.03125 279.30563)"/><path d="M1381.9 549.21l70.87.001s-53.15-17.717-53.15-70.867v-35.433h35.43c35.43 0 70.87 53.15 70.87 53.15v-141.73s-35.44 53.15-70.87 53.15h-35.43v-35.433c0-53.15 53.15-70.867 53.15-70.867h-70.87v248.03z" fill="#fff100" stroke="#000001" stroke-width="3.307" transform="matrix(.0366 0 0 .05894 267.21562 288.10688)"/><path d="M1381.9 549.21l70.87.001s-53.15-17.717-53.15-70.867v-35.433h35.43c35.43 0 70.87 53.15 70.87 53.15v-141.73s-35.44 53.15-70.87 53.15h-35.43v-35.433c0-53.15 53.15-70.867 53.15-70.867h-70.87v248.03z" fill="#fff100" stroke="#000001" stroke-width="3.307" transform="matrix(-.0366 0 0 .05894 459.07969 288.10688)"/><path d="M903.54 602.36c0 9.785-7.932 17.717-17.717 17.717-9.785 0-17.717-7.932-17.717-17.717 0-9.785 7.932-17.717 17.717-17.717 9.785 0 17.717 7.932 17.717 17.717z" fill="#fff" stroke="#000001" stroke-width="1.333" transform="matrix(.12805 0 0 .11787 249.7125 236.94375)"/><path d="M1257.9 496.06s35.44-53.15 70.87-53.15h35.43v35.433c0 53.15-53.15 70.867-53.15 70.867h141.74s-53.15-17.717-53.15-70.867V442.91h35.43c35.43 0 70.87 53.15 70.87 53.15V354.33s-35.44 53.15-70.87 53.15h-35.43v-35.433c0-53.15 53.15-70.867 53.15-70.867h-141.74s53.15 17.717 53.15 70.867v35.433h-35.43c-35.43 0-70.87-53.15-70.87-53.15z" fill="#fff100" stroke="#000001" stroke-width="2.188" transform="matrix(.07317 0 0 .06736 262.03125 235.45313)"/><path d="M903.54 602.36c0 9.785-7.932 17.717-17.717 17.717-9.785 0-17.717-7.932-17.717-17.717 0-9.785 7.932-17.717 17.717-17.717 9.785 0 17.717 7.932 17.717 17.717z" fill="#fff" stroke="#000001" stroke-width="1.333" transform="matrix(.12805 0 0 .11787 249.93 193.44)"/><path d="M850.39 655.51h70.866v53.15H850.39z" fill="#fff100" stroke="#000001" stroke-width="1.333" transform="matrix(.12805 0 0 .11787 249.7125 195.17812)"/><path d="M850.39 683.3h70.866v202.53H850.39z" fill="#fff100" stroke="#000001" stroke-width="1.333" transform="matrix(.12805 0 0 .11787 249.7125 195.17812)"/><path d="M478.35 549.21c0 9.785-7.932 17.717-17.717 17.717-9.785 0-17.717-7.932-17.717-17.717 0-9.785 7.932-17.717 17.717-17.717 9.785 0 17.717 7.932 17.717 17.717z" fill="#fff" stroke="#000001" stroke-width="1.333" transform="matrix(.12805 0 0 .11787 304.16062 230.67844)"/><path d="M478.35 549.21c0 9.785-7.932 17.717-17.717 17.717-9.785 0-17.717-7.932-17.717-17.717 0-9.785 7.932-17.717 17.717-17.717 9.785 0 17.717 7.932 17.717 17.717z" fill="#fff" stroke="#000001" stroke-width="1.333" transform="matrix(.12805 0 0 .11787 304.16062 225.27656)"/><path d="M478.35 549.21c0 9.785-7.932 17.717-17.717 17.717-9.785 0-17.717-7.932-17.717-17.717 0-9.785 7.932-17.717 17.717-17.717 9.785 0 17.717 7.932 17.717 17.717z" fill="#fff" stroke="#000001" stroke-width="1.333" transform="matrix(.12805 0 0 .11787 304.16062 220.2375)"/><path d="M478.35 549.21c0 9.785-7.932 17.717-17.717 17.717-9.785 0-17.717-7.932-17.717-17.717 0-9.785 7.932-17.717 17.717-17.717 9.785 0 17.717 7.932 17.717 17.717z" fill="#fff" stroke="#000001" stroke-width="1.333" transform="matrix(.12805 0 0 .11787 304.16062 215.03625)"/><path d="M367.964 335.14c0 .937-2.064 1.696-4.61 1.696-2.547 0-4.611-.76-4.611-1.697s2.064-1.697 4.61-1.697c2.548 0 4.611.759 4.611 1.696zm41.784 4.144c-.255.642-2.5.696-5.015.12-2.515-.577-4.348-1.567-4.093-2.209.256-.643 2.5-.696 5.015-.12 2.517.578 4.348 1.566 4.093 2.21zm-17.463-2.816c-.102.827-2.287 1.35-4.88 1.169-2.596-.182-4.618-.999-4.517-1.825.101-.827 2.287-1.35 4.88-1.17 2.596.181 4.618.999 4.517 1.826zm-76.753 2.816c.255.642 2.5.696 5.015.12 2.515-.577 4.348-1.567 4.093-2.209-.256-.643-2.5-.696-5.015-.12-2.517.578-4.348 1.566-4.093 2.21zm18.338-3.216c.101.826 2.287 1.35 4.88 1.169 2.596-.181 4.618-.999 4.517-1.826-.102-.827-2.287-1.35-4.882-1.169-2.594.181-4.616.999-4.515 1.825z" fill="#000001"/></g></svg>