<svg xmlns="http://www.w3.org/2000/svg" viewBox="0 0 640 480" height="16" width="22"><path d="M0 160h640v160H0z" fill="#f5f5f5"/><path d="M0 0h640v160H0z" fill="#ce1126"/><path d="M0 320h640v160H0z" fill="#000001"/><g fill="#007a3d"><path d="M390.991 210.528c-.977-.515-2.077-1.344-2.444-1.845-.55-.77-.227-.799 2.038-.184 4.064 1.1 6.683.671 9.28-1.529l2.296-1.932 2.698 1.373c1.483.75 3.06 1.268 3.516 1.15 1.168-.309 3.59-3.417 3.512-4.492-.095-1.332 1.028-1 1.57.46 1.077 2.856-.491 6.137-3.268 6.864-1.356.356-2.606.224-4.66-.49-2.519-.876-2.948-.866-4.213.101-2.832 2.172-6.78 2.376-10.323.526zm10.043-9.183c-.986-1.254-2.172-6-1.786-7.162.336-1.007.683-1.208 1.6-.921 1.609.505 1.98 1.612 1.74 5.368-.187 3.062-.64 3.866-1.554 2.715zm-118.274-3.407c-.324 2.294 4.073 8 6.058 9.035-1.349.605-3.025.333-4.262 1.011-6.916 6.916-32.176 31.542-36.788 37.43 13.664.271 28.817-.184 41.623-.771-.01-9.281 8.794-9.761 14.684-13.142 3.03 4.773 10.64 4.407 11.591 11.593 0 8.602.018 21.558.018 30.913H198.965c-2.05 9.067-10.235 15.985-21.64 13.139 3.528-3.685 9.47-4.953 11.597-10.045 1.794-11.15-3.584-18.037-7.063-24.363 5.753-2.092 6.625-2.614 12.473-6.545-4.103 12.473 10.672 11.103 21.642 10.818.368-4.236.154-9.236-3.096-9.854 4.198-1.524 4.895-2.046 11.597-7.73v16.804c26.076 0 54.205-.193 80.826-.193 0-5.26 1.394-13.708-2.768-13.708-3.977 0-.187 10.814-3.276 10.814H236.84c0-2.326-.06-7.189-.06-10.693 2.645-2.648 2.33-2.417 20.405-20.496 1.801-1.8 14.481-13.254 25.577-24.017zm156.017-.444c4.359 2.344 7.808 5.589 13.143 6.955-.619 2.207-2.584 3.083-3.101 5.41V257c5.961 1.314 7.217-2.063 10.052-3.863.774 7.546 5.58 14.943 5.41 20.865h-25.504v-76.508zm-34.008 25.25s9.28-7.835 9.28-8.136v41.141l6.681-.008c0-15.676-.205-31.573-.205-46.14 2.712-2.715 8.023-6.643 9.351-9.39v73.682c-18.823 0-53.942.023-58.584.023-.864-15.294-1.01-31.13 16.817-27.726v-6.24c-.543-1.065-1.524.259-1.751-1.128 2.832-2.833 3.79-3.557 11.457-10.249 0 8.076.14 27.15.14 27.15 1.874 0 5.523.007 6.756.007 0 0 .064-31.932.064-32.987zm-21.99 32.583c1.254 1.885 5.527 1.852 5.325-1.32-.718-2.616-6.333-1.62-5.325 1.322z"/><path d="M213.183 279.112a3.577 3.577 0 1 0 0 7.154 3.577 3.577 0 1 0 0-7.154zm110.403-81.542c4.359 2.344 7.808 5.588 13.143 6.954-.619 2.208-2.586 3.084-3.098 5.408v47.142c5.957 1.314 7.213-2.064 10.049-3.863.77 7.545 5.58 14.943 5.41 20.864h-25.507v-76.507z"/></g></svg>