<svg xmlns="http://www.w3.org/2000/svg" xmlns:xlink="http://www.w3.org/1999/xlink" viewBox="0 0 640 480" height="16" width="22"><path d="M0 0h640v160H0z" fill="#239f40"/><path d="M0 320h640v160H0z" fill="#da0000"/><g fill="none" id="flag-ir-a" stroke="#f5f5f5" stroke-width="2"><path d="M5.733 160h33.6m3.733 0h33.6M5.733 320h33.6m3.733 0h33.6" stroke-width="7.467"/><path d="M5.733 329.333h48.533M7.6 346.133V336.8h14.933v7.467h14.933V336.8h-9.333M13.2 344.267h3.733m37.333 0h-9.333V336.8h14.933m0-9.333v16.8H74.8v-16.8m-7.467 0v16.8m-61.6-208.534h48.533M7.6 152.533V143.2h14.933v7.467h14.933V143.2h-9.333M13.2 150.667h3.733m37.333 0h-9.333V143.2h14.933m0-9.333v16.8H74.8v-16.8m-7.467 0v16.8" stroke-width="3.733"/></g><use transform="translate(74.666)" xlink:href="#flag-ir-a"/><use transform="translate(149.332)" xlink:href="#flag-ir-a"/><use transform="translate(223.998)" xlink:href="#flag-ir-a"/><use transform="translate(298.664)" xlink:href="#flag-ir-a"/><use transform="translate(373.33)" xlink:href="#flag-ir-a"/><use transform="translate(447.996)" xlink:href="#flag-ir-a"/><use transform="translate(522.662)" xlink:href="#flag-ir-a"/><g fill="none" stroke="#f5f5f5" stroke-width="2"><path d="M603.061 160h33.6m-33.6 160h33.6" stroke-width="7.467"/><path d="M603.061 329.333h33.7" stroke-width="3.111"/><path d="M604.928 346.133V336.8h14.933v7.467h14.933V336.8h-9.333m-14.933 7.467h3.733" stroke-width="3.733"/><path d="M603.061 135.733h33.814" stroke-width="3.116"/><path d="M604.928 152.533V143.2h14.933v7.467h14.933V143.2h-9.333m-14.933 7.467h3.733" stroke-width="3.733"/></g><path d="M0 160h640v160H0z" fill="#f5f5f5"/><g fill="#da0000" transform="matrix(60 0 0 60 320 240)"><g id="flag-ir-b"><path d="M-.548.836A.912.912 0 0 0 .329-.722 1 1 0 0 1-.548.836"/><path d="M.618.661A.764.764 0 0 0 .422-.74 1 1 0 0 1 .618.661M0 1l-.05-1L0-.787a.31.31 0 0 0 .118.099V-.1l-.04.993zM-.02-.85L0-.831a.144.144 0 0 0 .252-.137A.136.136 0 0 1 0-.925"/></g><use transform="scale(-1 1)" xlink:href="#flag-ir-b"/></g></svg>