<svg xmlns="http://www.w3.org/2000/svg" viewBox="0 0 640 480" height="16" width="22"><path d="M0 .225v479.334h640V.225H0z" fill="#ffe900" fill-rule="evenodd"/><path d="M512.54 0L0 .21v329.13L512.54 0z" fill="#35a100" fill-rule="evenodd"/><path d="M640 136.896L122.316 479.832 640 479.58V136.896z" fill="#c70000" fill-rule="evenodd"/><path d="M548.709.225L0 354.995v124.972l91.855-.117L640 112.36V1.063l-91.291-.84z" fill="#000001" fill-rule="evenodd"/><path d="M431.779 146.831l-9.294-39.604 31.27 25.382 35.638-23.096-16.348 38.73 31.317 25.331-41.374-1.444-16.284 38.75-9.22-39.624-41.38-1.388zM173.736 314.56l-9.293-39.604 31.27 25.383 35.637-23.097-16.347 38.73 31.317 25.332-41.374-1.445-16.285 38.75-9.22-39.624-41.38-1.387z" fill="#fff" fill-rule="evenodd"/></svg>