<svg xmlns="http://www.w3.org/2000/svg" viewBox="0 0 640 480" height="16" width="22"><path d="M640 480H0V0h640z" fill="#f5f5f5"/><path d="M0 392.86v86.695h640v-86.696H0z" fill="#3e5698"/><path d="M0 107.215v265.56h640v-265.56H0z" fill="#c60000"/><path d="M0 .445v86.696h640V.445H0z" fill="#3e5698"/><path d="M303.284 240.018c0 59.496-49.799 107.726-111.227 107.726-61.43 0-111.226-48.231-111.226-107.726 0-59.496 49.799-107.726 111.226-107.726 61.43 0 111.227 48.23 111.227 107.726z" fill="#fff"/><path d="M160.111 253.611l-53.504-38.086 66.628-.271 21.225-62.231 19.845 62.024 66.63-.381-54.366 38.61 19.95 61.997-53.446-38.16-54.3 38.693z" fill="#c40000"/></svg>