<svg xmlns="http://www.w3.org/2000/svg" viewBox="0 0 640 480" height="16" width="22"><path d="M0 144h640v192H0z" fill="#f5f5f5"/><path d="M0 336h640v144H0z" fill="#009543"/><path d="M0 0h640v144H0z" fill="#00209f"/><path d="M319.621 152.91c-2 .044-3.955 1.67-4.865 2.543-6.156.83-11.786 3.328-16.203 7.617-5.43 5.272-8.89 13.037-9.979 22.93-1.116 10.143 1.663 21.453 4.569 30.443 1.93 6.058 4.313 11.958 7.04 17.698l-36.693 49.412-7.234-2.5-12.649 26.976s31.28 19.585 76.682 19.051c49.828-.592 76.902-19.955 76.902-19.955l-13.068-26.63-6.4 2.782-37.926-50.162c2.787-5.887 5.233-12.185 6.8-16.967 2.982-9.168 5.785-20.694 4.319-31.01-1.385-9.749-4.45-17.398-9.898-22.597-4.234-4.04-9.745-6.32-16.19-7.094-.734-.69-2.946-2.586-5.207-2.537zm5.525 10.627c4.42.693 7.733 2.296 10.348 4.791 3.683 3.515 6.264 9.238 7.5 17.936 1.131 7.962-1.201 18.794-4 27.412-1.93 5.932-3.607 9.86-4.662 12.205l-6.178-8.17-.068-19.117h8.27l-11.26-10.576zm-10.873.098l.18 24.738-10.219 10.707h8.272l-.07 18.563-6.975 8.773c-1-2.262-2.714-6.274-4.705-12.434-2.739-8.474-5.106-19.155-4.23-27.107.939-8.532 3.757-14.336 7.599-18.066 2.773-2.693 6.16-4.399 10.148-5.174zm64.217 125.71l2.028 2.952-5.715 8.482-5.903-7.56zm-118.03 2.766l2.397 7.377-7.007 1.475s4.058-8.116 4.61-8.852zm7.378.184l10.326 3.135 2.399 5.166-9.036 2.58-3.69-10.88zm94.424 3.318l2.95 3.137-8.667 6.824-5.348-6.64zm20.101 1.11l3.504 7.008-7.008 2.398-.552-3.32zm-95.531 1.105l10.326 2.215 2.951 4.426-9.037 3.504zm56.064 1.844l2.768 4.057-10.328 4.98-4.426-7.56zm-36.697 1.11l16.78.736 1.474 3.504-13.092 4.794zm60.858 1.656l5.347 7.195-11.433 2.95-2.215-3.872zm-102.54.185l1.477 5.902-8.851-3.503zm17.52 1.66l4.797 10.145-11.988-2.953-1.291-4.424zm65.838 2.582l6.271 7.377-13.832 2.211-2.765-4.424zm-45.55 1.477l5.902 9.22-14.016-2.029-1.477-3.873zm24.343 0l6.086 9.037-16.229.553-2.767-4.795z" fill="#000001"/></svg>