<svg xmlns="http://www.w3.org/2000/svg" viewBox="0 0 640 480" height="16" width="22"><path d="M0 0h640v480H0z" fill="#3b5aa3"/><path d="M0 467.085L640 0l-.027 86.916L0 480z" fill="#e2ae57"/><path d="M22.4 479.99l617.667-300.574L639.933 84 0 480.01z" fill="#f5f5f5"/><path d="M175.32 15.163l-6.314 102.79-27.01-65.552 10.361 69.775-41.83-56.378 27.42 64.338L83.012 87.52l42.765 53.546-62.102-27.52 54.392 41.19-67.65-8.95 63.93 25.34-100.35 9.18 100.59 6.723-63.742 26.207 66.972-9.062-54.195 40.018 62.891-27.595-42.896 53.99 54.573-41.318-27.036 62.889 43.684-54.69-11.824 68.173 27.478-63.7 6.212 100.63 9.69-100.38 23.692 64.088-9.032-69.057 43.468 54.738-28.561-63.93 54.55 44-43.37-54.93 64.834 26.995-57.38-41.902 69.879 11.78-66.896-25.694 104.05-6.46-104.05-9.691 68.486-22.828-70.972 8.914 58.638-41-66.091 26.586 45.644-55.334-55.582 43.408 26.746-66.412-43.146 56.474 9.267-70.43-25.665 66.455-9.587-102.79z" fill="#fff"/></svg>