<svg xmlns="http://www.w3.org/2000/svg" xmlns:xlink="http://www.w3.org/1999/xlink" viewBox="0 0 640 480" height="16" width="22"><path d="M0 0h640v480H0z" fill="#006233"/><path d="M320 25a155 155 0 1 0 0 310 155 155 0 1 0 0-310z" fill="#ffc400"/><path d="M243.425 11.216A150 150 0 0 0 170 140a150 150 0 0 0 150 150 150 150 0 0 0 150-150 150 150 0 0 0-73.433-128.784H243.425z" fill="#006233"/><g id="flag-mr-b" transform="matrix(5 0 0 5 320 140)"><path d="M0-12L-3.708-.587l5.706 1.854" fill="#ffc400" id="flag-mr-a"/><use transform="scale(-1 1)" xlink:href="#flag-mr-a"/></g><use transform="rotate(72 320 140)" xlink:href="#flag-mr-b"/><use transform="rotate(144 320 140)" xlink:href="#flag-mr-b"/><use transform="rotate(-144 320 140)" xlink:href="#flag-mr-b"/><use transform="rotate(-72 320 140)" xlink:href="#flag-mr-b"/></svg>