<svg xmlns="http://www.w3.org/2000/svg" viewBox="0 0 640 480" height="16" width="22"><path d="M0 0h640v150H0z" fill="#009a00" fill-rule="evenodd"/><path d="M0 149.963h720v15.016H0z" fill="#fff" fill-rule="evenodd"/><path d="M0 164.981h640v150H0z" fill="#000001" fill-rule="evenodd"/><path d="M0 314.981h720v15.017H0z" fill="#fff" fill-rule="evenodd"/><path d="M0 330h640v150H0z" fill="#ffca00" fill-rule="evenodd"/><path d="M0 0v480l315.019-240z" fill="red" fill-rule="evenodd"/><path d="M186.124 312.156l-48.028-35.161-47.966 35.17 18.601-56.542-48.272-34.749 59.525.22 18.128-56.647 18.184 56.681 59.477-.272-48.287 34.81z" fill="#ffca00" fill-rule="evenodd"/><path d="M96.41 272.723h34.598c2.784 3.123 8.995 4.397 14.91-.037 10.844-5.938 31.824.037 31.824.037l4.131-4.389-10.07-33.049-3.615-3.873s-7.745-4.647-22.463-3.098c-14.717 1.55-19.882-.516-19.882-.516s-12.909 1.55-16.523 3.357c-.397.321-4.132 4.13-4.132 4.13z" fill="#fff" fill-rule="evenodd" stroke="#000001" stroke-linecap="round" stroke-linejoin="round" stroke-width="1.034"/><path d="M103.382 264.205s33.048-4.131 42.602 8.52c-5.396 3.692-10.147 3.997-15.235.26.811-1.35 11.878-12.91 40.021-9.038" fill="none" stroke="#000001" stroke-linecap="round" stroke-linejoin="round" stroke-width="1.034"/><path d="M138.752 231.157l-.256 36.406m29.69-35.894l6.197 28.919" fill="none" stroke="#000001" stroke-width="1.102"/><path d="M109.66 231.216l-3.438 14.911" fill="none" stroke="#000001" stroke-linecap="round" stroke-linejoin="round" stroke-width="1.034"/><path d="M73.939 276.694l8.137 9.539c.955.57 1.804.534 2.652 0l12.059-14.47 5.064-6.27c.785-.929 1.035-1.965.966-2.894l9.681-8.604c.792.055 1.264.144 2.056.198-.936-.242-1.622-.698-.886-1.723l2.17-1.688 1.688 2.17s-2.41 3.135-2.652 3.135h-2.653l-5.065 4.583 2.215 1.957 3.332 9.136 4.101-2.895-2.653-9.405 5.788-6.27-2.171-3.376 1.447-1.93s20.033 12.612 27.75 9.236c.21.075.467-8.995.467-8.995s-20.74-2.17-21.223-6.27c-.483-4.1 4.583-4.582 4.583-4.582l-2.172-3.135.483-1.689 3.618 4.583 8.2-6.994 48.234 54.986c2.633-1.068 3.195-1.712 3.377-4.34-.069-.066-47.27-54.264-47.27-54.264l3.618-3.859c.712-.803.963-1.144.963-2.412l5.548-4.822c1.668.572 2.732 1.572 3.617 2.893l15.25-12.925c.402.404 1.622.805 2.451.353l25.208-24.203-27.474 19.41-.968-.724c0-.805.998-1.003 0-2.412-1.067-1.281-2.653 1.205-2.893 1.205-.242 0-3.978-1.32-4.796-2.992l-.27 4.44-6.993 6.512-5.306-.242-7.718 7.476-.964 2.894 1.206 2.413s-4.1 3.617-4.1 3.375c0-.24-.83-1.065-.865-1.171l3.517-3.17.482-2.17-1.172-1.832c-.357.258-4.857 4.968-5.098 4.485-.405-.447-13.025-14.71-13.025-14.71l.722-2.653-8.199-8.924c-2.99-1.031-7.717-1.205-8.682 5.306-.751 1.53-6.994.241-6.994.241l-3.377.724-19.052 27.01 10.612 12.782 21.705-27.493.645-7.789 4.553 5.093c1.52.195 2.966.213 4.342-.482l12.86 14.353-2.142 2.09c.724.804 1.222 1.317 1.946 2.121.724-.481 1.414-1.06 2.137-1.544.242.323.643.934.885 1.256-1.078.586-1.833 1.367-2.91 1.953-1.726-1.125-3.39-2.523-3.263-4.75l-7.236 6.028-.24 1.207-21.465 17.846-1.93.242-.482 5.546 13.988-11.575v-1.69l1.447 1.206 10.853-8.681s.723.965.482.965c-.24 0-9.647 8.68-9.647 8.68l-.24.966-1.689 1.447-.966-.724-13.021 11.576h-1.93l-7.235 7.236c-1.866.162-3.483.36-5.065 1.447l-12.96 11.443z" fill="#000001" fill-rule="evenodd" stroke="#000001" stroke-linecap="round" stroke-linejoin="round" stroke-width="1.034"/></svg>