<svg xmlns="http://www.w3.org/2000/svg" xmlns:xlink="http://www.w3.org/1999/xlink" viewBox="0 0 640 480" height="16" width="22"><path d="M0 0h640v240H0z" fill="#0038a8"/><path d="M0 240h640v240H0z" fill="#ce1126"/><path d="M416 240L0 480V0" fill="#f5f5f5"/><g fill="#fcd116" transform="translate(149.333 240) scale(5.33333)"><path d="M0-9A9 9 0 1 0 0 9 9 9 0 1 0 0-9z"/><g id="flag-ph-d"><g id="flag-ph-c"><g id="flag-ph-b"><path d="M-1 0l.062.062L0 0l-.938-.062z" transform="scale(19)"/><path d="M-.884.116l.05.05L0 0z" id="flag-ph-a" transform="scale(19.2381)"/><use transform="scale(1 -1)" xlink:href="#flag-ph-a"/></g><use transform="rotate(45)" xlink:href="#flag-ph-b"/></g><use transform="rotate(90)" xlink:href="#flag-ph-c"/></g><use transform="scale(-1)" xlink:href="#flag-ph-d"/><g transform="translate(-2.02)"><g id="flag-ph-f" transform="translate(37.962)"><path d="M5 0L1.618 1.176l-.073 3.58-2.163-2.854-3.427 1.037L-2 0z" id="flag-ph-e"/><use transform="scale(1 -1)" xlink:href="#flag-ph-e"/></g><use transform="rotate(120)" xlink:href="#flag-ph-f"/><use transform="rotate(-120)" xlink:href="#flag-ph-f"/></g></g></svg>