<svg xmlns="http://www.w3.org/2000/svg" viewBox="-15 -7.5 640 480"><path d="M-15-7.5h640v480H-15z" fill="#006"/><g stroke-width="1.333"><path d="M-15-7.5v25.562L302.137 221.13h39.92v-25.56L24.918-7.5zm357.056 0v25.56L24.92 221.13H-15v-25.562L302.137-7.5h39.92z" fill="#fff"/><path d="M133.773-7.5v228.63h59.51V-7.5zM-15 68.71v76.21h357.056V68.71z" fill="#fff"/><path d="M-15 83.952v45.726h357.056V83.952zm160.675-91.45v228.627h35.706V-7.5h-35.705zM-15 221.13l119.02-76.21h26.61L11.614 221.13zM-15-7.5l119.02 76.21H77.405L-15 9.542v-17.04zm211.425 76.21L315.445-7.5h26.61L223.038 68.71h-26.612zm145.63 152.42l-119.018-76.21h26.613l92.406 59.168v17.04z" fill="#c00"/></g><g fill="#f7e017" stroke="#000" stroke-width=".015"><path d="M434.99 258.185c-6.827 5.782-13.334 14.23-14.934 21.867-4.501 21.483-10.474 26.261-19.69 21.653 0 11.542 10.112 12.416 14.549 5.675 0 10.816 3.925 20.203 12.779 28.203 3.733 3.37 4.437 1.066 2.666-2.667-1.77-3.733-1.77-15.787-5.312-22.699 5.675 4.075 14.016 1.771 13.312-9.408-7.274 4.267-14.506 4.096-15.253-6.037-.917-11.883 3.712-29.141 11.883-36.587zm-8.64-85.44c.49-4.266-.427-8.64-3.542-11.392-6.016-5.29-11.904-3.541-16.298.726-6.571-3.542-10.048 9.024-17.494 6.912 1.238 4.074 3.2 5.845 6.912 4.437-3.904 3.541 0 7.808-4.608 12.053 8.342 2.667 12.779-1.941 12.416-9.941 3.2 2.837 8.15 2.667 10.816-.533-4.437-1.43-4.458-5.27-2.666-8.875 2.666-5.312 15.168-5.099 14.464 6.613z" stroke-width=".32"/><path d="M445.592 234.463c-9.408 4.97-26.602 2.837-28.202-9.408-1.6-12.246 10.282-17.75 13.482-19.328 4.971-2.496 8.875 1.941 7.275 7.104 5.504-1.942 6.741-8.342 4.075-12.054 7.274.534 14.016-4.97 16.853-12.778-2.56 2.432-9.515.789-15.232.426 1.77-1.941 1.75-5.738 1.216-7.701-6.016 6.187-14.72 3.35-26.24 21.27 1.77-6.209 5.141-18.625 7.104-26.795.192-.811.341-1.622.448-2.454.683-11.712-11.797-11.925-14.464-6.592 2.923 3.286 1.387 7.126.341 12.95-1.237 6.912-3.904 22.89-6.208 28.202-.704-8.341-6.208-8.874-7.274-12.949-1.6 1.067-2.475 3.904-2.134 5.845-1.962-2.133-8.704.534-11.178-2.666-2.667 5.312 1.6 10.645 6.037 12.949-2.581.17-3.2 3.285-6.037 3.285 3.818 4.438 7.722 6.208 12.245 6.571 4.523.363 7.893 2.048 10.645 7.53 4.438 8.897 21.334 14.657 37.248 6.593z" fill="#337321" stroke-width=".32"/><path d="M469.016 223.625c-5.312 14.72-19.861 25.195-26.432 26.795-11.178 2.71-33.962 13.781-40.064 19.477-.96-.213-1.856-.554-2.517-1.024-3.008-2.133-5.504-9.045-.17-14.912 16.682-15.616 34.602-8.874 45.78-19.52-9.407 4.971-26.602 2.838-28.202-9.408 10.112 2.667 28.395 2.838 42.923-12.778 1.941 2.154 7.616 8.896 8.682 11.37z" stroke-width=".32"/><path d="M434.99 258.185c-8.427 7.147-12.8 24.704-11.904 36.587.256 3.307 1.173 5.547 2.581 6.912.619-6.741 5.312-24.17 17.28-31.936 10.112-6.57 25.899-21.29 31.765-38.144-1.066-3.008-2.837-5.141-6.208-7.275-5.824 15.915-21.376 23.552-33.514 33.856z" fill="#337321" stroke-width=".32"/><path d="M463.598 216.799c-3.008 4.522-9.856 10.73-16.406 13.226 1.408-1.6 1.856-3.626 1.942-5.312-8.342 3.2-25.024 2.838-31.766.363 10.112 2.667 28.395 2.837 42.923-12.779 1.45 1.579 2.688 2.987 3.307 4.502z" fill="#316d3a" stroke-width=".32"/><path d="M399.832 253.961c-13.568 12.694-4.608 23.766.704 26.262-1.408 8.874 6.912 7.808 6.742 15.253 3.37-1.941 4.266-7.104 3.733-11.179 4.267 4.608 15.083-.533 17.387 7.979 1.429-9.408-5.846-18.795-14.891-17.92 3.733-3.37 1.6-8.875-1.941-10.283-.704 6.912-8.512 6.912-11.542 4.8-3.029-2.133-5.525-9.045-.192-14.912z" fill="#337321" stroke-width=".32"/><path d="M429.187 334.687c-1.472.853-1.365 2.752-.448 3.989 1.856 2.475-1.323 8.107 4.693 9.323 1.771.362 3.136-.726 3.819-2.752 1.856-5.59-4.075-6.208-4.608-8.875-.533-2.667-2.219-2.39-3.456-1.685z" stroke-width=".32"/><path d="M434.243 345.161c-1.984.918-3.733 2.219-2.923 8.598.32 2.645.171 9.045-2.133 9.13 1.408.704 4.437 1.472 5.675-.17 1.194 2.005 3.904 1.429 4.97-1.067 1.408 1.152 3.371-.79 3.371-2.475 1.237.79 3.733-.362 3.093-4.16 1.515.534 3.456-.533 4.16-1.514-2.218-.448-7.808-3.456-9.13-5.846-1.323-2.41-4.779-3.562-7.083-2.496z" stroke-width=".32"/><path d="M403.502 165.727c.896-1.323 1.898-2.56 3.008-3.648m30.741 27.136c1.557-.896 3.947-1.003 6.592-.832m-8.981 174.336c-.619-.896-.854-4.608-.406-6.87m5.376 5.803c-.981-.747-2.837-3.328-3.157-5.59m6.528 3.115c-1.237-.576-4.267-4.48-4.928-6.997m8.021 2.816c-1.472-.32-5.952-3.243-7.808-6.336" fill="none" stroke-width=".32"/><path d="M528.088 254.153c21.824 18.283 23.232 32.811 19.862 41.344-1.771-7.978-10.816-20.394-20.224-23.594z" stroke-width=".32"/><path d="M489.07 243.85h40.448v47.893c0 40.81-22.699 64.938-45.782 77.696-23.061-12.779-45.781-36.907-45.781-77.696v-47.894h28.395c.042 2.475.277 6.208 3.2 9.942 6.698-.662 14.272-5.675 19.52-9.942z" fill="#337321" stroke-width=".32"/><path d="M529.518 243.85v47.893c0 12.309-2.07 23.125-5.59 32.533l-40.17-73.707-40.171 73.707c-3.52-9.43-5.59-20.224-5.59-32.533v-47.894z" fill="#006ec7" stroke-width=".32"/><path d="M525.144 320.756c-.704 2.176-2.005 5.696-2.986 7.872l-38.4-71.381-38.4 71.381c-1.003-2.176-2.283-5.696-2.987-7.872l41.408-76.757z" stroke="none"/><path d="M501.998 347.017c1.066.534 3.029 1.515 3.904 1.878 2.133-4.267 2.474-10.283 1.77-15.616-2.304 5.866-10.112 5.674-12.245 9.216 1.301.661 2.517 1.514 3.563 2.261-2.667 2.667-8.896 7.125-12.438 8.192v-38.059c0-2.666-.896-4.885-.896-7.104v-7.872c0-1.77-.362-4.352-1.941-4.352-1.6 0-1.941 2.582-1.941 4.352v7.872c0 2.219-.896 4.8-.896 7.104v38.059c-1.942-5.675-9.6-3.733-13.142-9.408 1.387-.341 2.859-.448 4.267-.17-2.667-9.046-9.941-9.75-11.35-12.417 0 3.734-1.6 12.416.897 16.15.554-.662 1.386-1.366 2.41-1.963 3.008 6.57 16.576 6.592 19.776 17.408 2.56-3.99 11.798-8.597 18.262-15.53z" stroke-width=".32"/><path d="M483.736 315.359c3.008 0 12.587-.982 16.064-.982.896 0 1.643-1.344 1.643-3.008s-.725-3.008-1.643-3.008c-3.456 0-13.034-.981-16.064-.981-3.008 0-12.586.981-16.064.981-.896 0-1.642 1.344-1.642 3.008s.725 3.008 1.642 3.008c3.478 0 13.056.982 16.064.982z" stroke-width=".32"/><path d="M481.795 299.764a3.833 3.833 0 0 0-2.41-.832c-2.006 0-3.649 1.493-3.649 3.328 0 1.835 1.622 3.328 3.648 3.328 2.006 0 3.627-1.493 3.627-3.328 0-1.43 2.07-1.43 2.07 0 0 2.88-2.56 5.205-5.697 5.205-3.157 0-5.696-2.325-5.696-5.205s2.56-5.205 5.696-5.205c.939 0 1.835.213 2.624.576-.064.469-.213 1.365-.213 2.133zm-14.101 14.613c.896 0 1.621-1.344 1.621-3.008s-.725-3.008-1.621-3.008" stroke-width=".32"/><path d="M469.016 314.377c.896 0 1.622-1.344 1.622-3.008s-.726-3.008-1.622-3.008m8.768 6.635c1.088 0 1.963-1.621 1.963-3.627 0-2.005-.875-3.626-1.963-3.626m2.027 7.402c1.13 0 2.048-1.706 2.048-3.797 0-2.09-.917-3.797-2.048-3.797m6.827 7.637c1.152 0 2.069-1.728 2.069-3.84s-.939-3.84-2.07-3.84m2.134 7.573c1.13 0 2.048-1.664 2.048-3.712s-.917-3.712-2.048-3.712m9.536 6.763c.917 0 1.664-1.365 1.664-3.072s-.747-3.072-1.664-3.072M463.96 345.14c1.088-.661 2.411-1.259 3.798-1.579m32.298 1.942c-.32-.235-.682-.47-1.045-.747m2.987 2.261c2.474-2.666 4.544-5.674 5.696-9.13" stroke-width=".32"/><path d="M475.608 277.727c0-.875.704-1.238 1.536-1.856 1.003-.747 1.408-1.11 2.304-1.11h11.648c.854 0 1.067.214 1.067 1.024v15.808c0 .79-.192 1.024-1.067 1.024h-15.488v-15.061" fill="#fff" stroke-width=".32"/><path d="M488.216 294.004c1.536 0 1.259-.043 2.326-1.11 1.13-1.109 1.024-1.023 1.024-2.047V276.36c0-.746-.192-.96-.982-.96h-10.773c-.853 0-1.216.342-2.133 1.046-.768.576-1.408.938-1.408 1.749v15.808z" fill="#e5e5e5" stroke-width=".32"/><path d="M489.368 293.663c0 .789-.192 1.024-1.066 1.024h-11.648c-.875 0-1.046-.214-1.046-1.024v-15.83c0-.789.192-1.024 1.046-1.024h11.648c.874 0 1.066.214 1.066 1.024z" fill="#fff" stroke-width=".32"/><path d="M511.939 234.57c2.261 2.538 3.008 5.93 1.77 9.258h-3.37c1.408-4.267.533-8.32-5.504-8.853-9.024-.79-19.52 16.682-35.307 18.794-4.608-5.504-4.373-15.978 1.494-20.949-3.03-8.725-9.408-18.325-13.846-22.464-2.901-.47-6.25-.704-8.405-.576 2.304-4.97 8.875-10.197 14.208-12.33.853-1.26 1.792-2.475 2.645-3.563.534-6.827 33.003-3.627 39.915.618.021 7.659 3.03 33.152 6.4 40.064z" fill="#96877d" stroke-width=".32"/><path d="M472.6 239.241c-.768-11.818-5.546-21.568-12.266-28.202 3.2.896 9.749.896 14.186-2.304 5.846-3.904 21.12-10.731 26.71-7.808.448.981.704 3.2.362 4.608-1.322-3.542-16.064 1.941-20.224 3.626-3.989 1.856-5.76 4.352-4.352 9.942-2.304-1.942-1.514-3.819-3.904-5.227.96 2.304 1.75 6.464 2.027 9.835-.896-2.39-2.475-7.531-5.952-10.56 3.008 5.845 5.632 19.904 4.395 27.37 2.389 0 7.68-2.346 9.792-4.032-1.856 2.667-7.232 4.523-10.688 5.227-1.558 1.856-2.624 6.656-2.539 9.323-.235-3.286.79-11.286 2.453-11.798zm39.339-4.671c-2.944-3.265-8.427-5.035-15.424-3.137 1.067-.533 3.37-1.429 5.419-1.77-.256-1.856-1.942-9.856-2.219-11.798l1.963-.789c.981 4.8 2.218 10.283 3.008 12.501.618.171 2.048.448 3.285 1.067-.533-1.856-3.541-15.253-3.456-16.683l2.667-1.429c1.045 7.275 2.73 17.835 4.757 22.037z" fill="#000001" stroke="none"/><path d="M510.36 243.85c1.408-4.267.534-8.32-5.504-8.854-4.672-.405-9.749 4.139-15.744 8.853zm-39.21-38.23c-2.667.363-8.598-.17-11.627-1.152.17-.81.49-1.621.875-2.517-1.856 1.237-5.398 3.669-6.742 5.354 4.267.896 13.056 1.344 17.494-1.685z" fill="#96877d" stroke-width=".32"/><path d="M471.043 232.841c.981 2.838 1.621 5.568 1.707 8M463 197.47c-1.6 2.347-3.008 4.865-3.477 6.998 3.008.981 8.96 1.515 11.627 1.152" fill="none" stroke-width=".32"/><path d="M457.198 210.377c1.152.192 2.218.406 3.136.662 3.2.896 9.749.896 14.186-2.304 4.438-3.2 16.491-13.12 30.166-14.187" fill="none" stroke-width=".32"/><path d="M453.678 207.305c4.266.896 13.056 1.323 17.472-1.685 10.282-6.997 20.224-11.093 30.165-11.627" fill="none" stroke-width=".32"/><path d="M528.088 254.153c14.891 10.283 25.899 20.224 29.099 36.182 3.2 15.957 9.237 20.224 16.683 15.957-1.771 9.216-11.008 10.283-18.795 3.2.704 10.645-3.541 23.424-14.55 28.032-.703-6.379 3.52-11.435 2.305-16.683-.534-2.304-.704-7.637 2.304-10.112-5.846 1.942-15.083-1.77-15.958-10.474 6.742 3.2 15.424 3.733 18.795-4.8 3.35-8.491 1.941-23.04-19.883-41.302zm18.816-83.029c4.608-12.053 16.683-10.816 20.758-5.675 11.882-6.741 13.482 8.512 23.594 5.504-.17 2.838-3.541 5.504-7.274 5.312 3.904 3.542-1.6 8.875 6.741 12.054-7.104 3.541-17.024-.171-19.69-9.942-2.305 4.608-10.646 4.608-14.017.896 7.275-1.941 6.742-8.682 2.667-11.349-4.117-2.688-11.37-1.6-12.779 3.2zm-35.989 26.56c3.307 10.667 10.155 20.608 17.536 27.37 8.512 7.809 21.376 5.846 28.565-1.6.171 14.849-15.21 16-23.765 11.35-3.776-2.048-6.827-.981-3.2 2.304 5.504 4.97 17.536 8.661 31.744 11.712 24.832 5.312 15.979 25.024 8.704 24.832 2.09-.043 3.797-2.219.79-4.928-21.547-19.392-65.366-11.755-64.662-55.04-4.608 11.35-23.595 6.912-14.72-6.57 2.837 2.303 7.808 2.474 9.237-1.067 1.11-2.752.384-7.552-4.586-11.691.81-.064 2.581 0 2.389-2.048.213 1.195 1.301 2.965 4.096 2.368.79 1.259 1.643 2.09 2.773 1.643.214-.086.896-.427.619-1.686.213 2.39 3.008 3.222 4.48 3.051z" fill="#337321" stroke-width=".32"/><path d="M533.23 234.804c10.282 6.741 21.93 6.741 32.64-5.675 3.37-3.904 8.682-7.274 12.416-7.637 3.733-.363 3.541-3.904 6.378-4.608-1.77-.533-2.474-2.667-5.141-2.39 6.656-2.303 4.693-7.637 7.979-10.197-2.667.982-6.827-3.008-10.646 2.048.982-2.304-.362-5.056-1.322-6.122.362 2.666-5.227 3.2-6.294 9.941-.597 3.776-2.666 3.541-3.008-2.304-.256-4.288-2.304-16.15-4.778-22.165-2.475-6.038-3.051-14.315.32-15.552a6.567 6.567 0 0 0-2.091-2.176c-4.117-2.688-11.35-1.6-12.779 3.2-4.608 12.053 8.342 18.986 7.275 32.106-1.941-9.749-17.75-12.245-17.557-21.824-5.142 2.304-4.438 6.571-2.475 9.942-3.2-4.971-10.475 3.2-16.683-3.542-.704 8.875 7.104 12.246 13.483 12.587-3.2 5.675 1.067 10.475 5.312 12.053.17-9.941 20.544-5.866 20.757 11.179.171 14.507-15.445 15.744-23.786 11.136zm28.565 14.016c24.832 5.312 15.979 25.024 8.704 24.832-4.63-.107-9.045-3.99-9.323-7.36-5.312 2.837-3.904 8.427.171 10.645-11.179-1.322-15.872 6.038-16.15 14.102 2.049-3.734 8.257-3.99 10.56-3.2 2.305.789 8.257 1.237 10.646-1.43-1.963 1.686 1.237 5.59-1.515 8.598 9.323-.363 13.398-9.046 11.798-12.864 12.074-10.966 9.77-28.886-14.891-33.323zm-18.901 84.288c1.621 1.003 1.408 3.136.32 4.48-2.198 2.688 1.109 9.11-5.654 10.197-2.005.32-3.477-.96-4.138-3.242-1.835-6.315 4.821-6.742 5.525-9.707.725-2.944 2.581-2.581 3.947-1.728z" stroke-width=".32"/><path d="M536.792 344.564c2.176 1.11 4.054 2.645 2.902 9.728-.491 2.944-.598 10.09 1.984 10.283-1.622.725-5.014 1.429-6.336-.448-1.43 2.176-4.416 1.408-5.504-1.408-1.643 1.216-3.734-1.046-3.648-2.923-1.43.832-4.139-.555-3.286-4.779-1.706.534-3.84-.746-4.586-1.856 2.496-.405 8.853-3.52 10.453-6.144 1.579-2.602 5.483-3.733 8.021-2.453z" stroke-width=".32"/><path d="M535.32 364.148c.726-.96 1.152-5.12.747-7.659m-6.229 6.251c1.13-.79 3.306-3.584 3.754-6.101m-7.424 3.178c1.408-.597 4.95-4.821 5.803-7.616m-9.088 2.838c1.643-.278 6.784-3.35 8.981-6.742" fill="none" stroke-width=".32"/><path d="M506.627 213.705c-.299 18.176 7.253 27.392 17.728 33.366-3.883-2.326-2.197-10.304-7.445-12.886 1.237-.085 3.2 1.686 6.293.982-1.515-3.371-3.99-8.512-9.75-9.216 1.515-.171 4.8.362 6.913-.448-3.008-4.63-10.987-2.411-13.739-11.798zm-1.877-17.301c-.64-.213-1.174-.853-1.707-1.685-2.795.597-3.883-1.174-4.096-2.368.17 2.048-1.579 1.962-2.41 2.026 4.991 4.139 5.717 8.939 4.607 11.691-1.429 3.541-6.378 3.37-9.237 1.067-.363 7.53 9.408 10.026 12.95.533 0 1.6 2.047 1.43 2.58 3.541 2.518-4.074.598-9.941-2.687-14.805z" stroke-width=".32"/><path d="M489.155 160.393c-4.437-4.074-6.485-10.901-6.293-14.805.17-3.904 1.77-8.17 7.445-6.379-1.77 0-.533 3.542-2.39 3.904 1.515.534 3.542-.704 3.82-1.514.362 1.237 2.666.896 2.837 2.304.896-.704-.086-4.16-1.408-4.886.981-.533 1.514-3.285 1.066-4.608-.896.171-2.218 1.43-2.474 3.2.448-1.429-.086-4.97-2.582-5.504-.704.982-.896 3.371.086 4.694-2.304-.534-5.675.981-6.486 2.922.171-2.346.512-5.696 1.963-7.808.49-.704-.704-1.941-1.643-.256-1.728-3.37-6.336-5.141-8.384-3.456-2.048 1.686-4.778-.789-6.464 1.856-1.685 2.667-7.402 2.944-7.104 5.76.171 1.686-.234 4.288-1.066 5.227-2.048 2.304.981 3.99 1.514 6.037-.362-6.741 10.368-19.861 21.12-14.72-.981 1.686-1.834 5.056-2.133 9.131-.448 6.037.448 14.55 6.293 19.52z" fill="#337321" stroke-width=".32"/><path d="M492.334 139.273c-.064-1.6 2.709-3.669 6.421-3.626 4.48.042 7.936 4.117 11.52 3.733 3.584-.405 1.813 1.6 1.067 2.133-.747.534-1.195 1.323-.939 2.304.256.982-.192 1.622-1.643.704-3.2-2.005-6.378.79-10.602-.746-3.606-1.366-5.718-2.112-5.824-4.502z" fill="#c8102e" stroke-width=".32"/><path d="M474.072 181.15c-1.77-5.589-8.512-11.711-11.797-13.12l-.17-3.007c1.77-.704 6.037-4.075 7.978-5.952 13.312 6.378 31.403-2.667 39.744-12.054l3.2 1.942-1.6 2.133-1.685-.896c-2.048 2.475-9.664 9.643-11.968 11.157 3.093.79 7.338 1.323 8.512 1.259 7.445-5.333 13.29-10.112 16.128-10.475l2.389 3.2-2.133 1.515-1.686-.981c-7.978 6.57-17.024 20.928-20.586 30.506-4.95-1.066-22.699-.362-26.326-5.226z" fill="#96877d" stroke-width=".32"/><path d="M497.774 161.353c-1.152-.298-2.134-.618-2.752-.96-1.43 1.323-4.971 2.475-9.494 2.667" fill="none" stroke-width=".32"/><path d="M474.776 179.188c-1.194-6.613.704-13.93 4.075-16.15 7.36 4.886 19.968 4.886 27.413-.447" fill="none" stroke-width=".32"/><path d="M474.776 175.732c5.675-.17 18.006.79 21.014 1.237 3.008.448 8.064 1.686 7.36 3.2m-25.75-5.376l1.643-1.621-1.643-1.621-1.621 1.6z" fill="none" stroke-width=".32"/><path d="M481.262 141.77c-2.048-2.838-7.659-3.734-8.875.085-.533 1.685-1.323 3.456-2.667 4.266-1.322.79-1.024 3.222-.448 4.267 1.408 2.581.171 5.056 2.923 6.741 0-2.048 3.008-4.16 5.59-4.693 2.58-.533 6.463-2.837 6.997-5.419.554-2.602 1.45-4.736-3.52-5.248z" fill="#337321" stroke-width=".32"/><path d="M468.483 167.305h.704l.021 4.843c.15.043.299.128.427.213l4.181-2.41.363.618-4.203 2.432c.022.15.043.32.022.47l4.181 2.41-.363.619-4.224-2.39a1.01 1.01 0 0 1-.405.257v4.821h-.704v-4.843a1.599 1.599 0 0 1-.427-.213l-4.181 2.41-.363-.618 4.203-2.432c-.021-.15-.043-.32-.021-.47l-4.182-2.41.363-.619 4.203 2.411a1.01 1.01 0 0 1 .405-.256z" fill="#96877d" stroke-width=".32"/><path d="M474.798 179.167a8.343 8.343 0 0 1-5.974 2.474 8.394 8.394 0 0 1-8.405-8.405 8.394 8.394 0 0 1 8.405-8.405 8.386 8.386 0 0 1 6.678 3.306c-.427 1.067-.939 3.435-.982 4.502a5.743 5.743 0 0 0-5.717-5.163 5.74 5.74 0 0 0-5.739 5.739 5.74 5.74 0 0 0 5.739 5.738c2.645 0 4.95-1.856 5.61-4.309.022 1.11.065 3.648.385 4.523z" fill="#96877d" stroke-width=".32"/><path d="M465.283 187.167c-.533-.619-1.515-2.304-1.408-3.542.79-.085 2.304.448 3.008 1.152-.085-.896-.448-2.837-.256-3.733.981.363 3.008 1.515 3.733 2.837-.17-.896-.533-3.2-.17-4.608 1.066.619 2.837 2.304 3.2 3.456.085-1.77.704-4.693 1.237-5.418.79.789 2.048 1.514 2.837 2.581.171-1.43.896-3.115 1.942-3.541.789.896 2.048 2.922 2.304 5.226.789-.256 1.856-1.6 2.304-2.304.448.704.896 1.942.618 3.456.982-.896 2.134-2.133 2.39-3.2.704.534 2.048 1.856 2.389 3.286-.17-1.152-.085-3.2-.448-4.352 1.323.704 2.39 1.941 2.667 3.285.362-1.237 1.152-3.456 1.856-3.99.704 1.43 1.429 3.115 1.322 4.523.448-.896 1.152-2.474 1.856-2.837.619.981.534 3.115.363 4.267.619-.896 1.77-1.942 2.475-2.304.085.533.17 1.6 0 2.389.789-.448 2.133-2.837 2.581-4.075 1.237.619 2.475 2.752 2.581 3.819.896-.363 2.667-1.941 3.2-2.837 0 .618.278 2.304-.085 3.626.533-.533 1.067-1.6 1.323-2.048.362.896.085 3.008-.278 4.16.79-.704 1.963-1.152 2.667-1.152.085 1.515-.981 4.16-1.963 6.123-8.49-2.368-26.325-3.264-44.245-4.245z" fill="#337321" stroke-width=".32"/><path d="M494.979 140.19c-.043-.66 1.408-2.133 4.032-2.111 3.136.021 6.037 2.325 8.533 2.154 2.518-.17 1.28.662.747.875-.533.213-.832.555-.661.939.192.405-.128.661-1.152.298-2.24-.81-4.48.32-7.424-.298-2.539-.576-4.011-.875-4.075-1.856z" stroke="none"/><path d="M468.035 192.5c-2.667 3.2-5.312 2.667-5.845.619-.534-2.048 1.429-3.008.704-4.8-.704-1.771 1.152-2.582 2.048-1.771.896.79 3.733-1.77 4.97.896 1.238 2.667 2.219 4.523 1.515 5.59-.725 1.066-2.859.533-3.392-.534zm11.435-4.8c-.491-1.173 2.261-3.413 3.69-1.813 1.43 1.6 3.648-1.728 4.886.789 1.237 2.539 1.642 3.861 2.261 5.27.619 1.429-3.37 2.175-4.608.938.17.832-3.456 1.493-4.437-.896-.534-1.259-1.11-2.73-1.792-4.288zm18.453 1.472c-.661-1.237 2.581-3.008 4.267-.747.448-.938 3.648-1.109 3.861 1.6.213 2.71.32 4.31.405 5.376.086 1.067-1.941 2.048-3.413-.661-2.624.533-3.819-.939-4.117-2.475-.32-1.578-.64-2.346-1.003-3.093z" stroke-width=".32"/><path d="M469.763 187.401c-.405-.896 2.261-2.666 4.075-1.322 1.813 1.322 4.33-1.152 5.418 1.237 2.176 4.843 2.304 5.184 1.643 6.123-.661.938-3.499.576-4.224-.704-.128.896-2.581.746-3.861.042-1.451-.81-2.475-3.776-3.051-5.376zm18.667.214c-.619-1.366 3.541-2.582 5.376-.171.938-.853 2.965-.896 4.117 1.728 1.152 2.624 1.323 4.075.49 4.736-.597.47-2.751.832-3.455-.363-.982.619-3.99.086-4.651-1.6-.661-1.664-1.237-3.136-1.877-4.33zm17.664 2.624c-.086-1.238 2.176-1.814 3.008 0 .853 1.813 3.541.17 3.776 3.2.042.576-.32 2.794-1.152 3.861-.832 1.067-4.971 0-5.227-2.261-.277-2.283-.363-3.563-.405-4.8z" fill="#337321" stroke-width=".32"/><path d="M468.035 192.5c-.981-1.323-2.304-3.456-3.99-1.152m12.651 1.365c-.576-.746-1.322-2.005-1.6-2.965m10.603 3.157c-.619-.448-1.557-1.322-2.048-2.261m1.237-2.411c1.558.171 2.624 1.643 3.094 2.304.49.662 1.514 1.856 2.304 2.006m4.672 1.024c-.534-.854-1.067-1.6-1.195-2.219m.043-3.904c.533.747.938 1.365 1.237 2.09m7.979 5.185c-.704-1.323-1.814-2.624-2.752-3.051m2.41-1.835c.086 2.624 3.584 2.795 3.734 4.651m2.688-4.245c.362.661.49 1.322.533 2.432" fill="none" stroke-width=".32"/></g></svg>