<svg xmlns="http://www.w3.org/2000/svg" xmlns:xlink="http://www.w3.org/1999/xlink" viewBox="0 0 640 480" height="16" width="22"><path d="M0 0h640v480H0z" fill="#20603d"/><path d="M0 0h640v360H0z" fill="#fad201"/><path d="M0 0h640v240H0z" fill="#00a1de"/><g transform="translate(511 125.4) scale(.66667)"><g id="flag-rw-b"><path d="M116.1 0L35.692 4.7l76.452 25.35L33.26 13.776l67.286 44.273L28.56 21.915l53.535 60.18-60.18-53.534 36.135 71.986L13.777 33.26l16.272 78.884L4.7 35.692 0 116.1-1-1z" fill="#e5be01" id="flag-rw-a"/><use transform="scale(1 -1)" xlink:href="#flag-rw-a"/></g><use transform="scale(-1 1)" xlink:href="#flag-rw-b"/><path d="M0-34.3a34.3 34.3 0 1 0 0 68.6 34.3 34.3 0 1 0 0-68.6z" fill="#e5be01" stroke="#00a1de" stroke-width="3.4"/></g></svg>