<svg xmlns="http://www.w3.org/2000/svg" xmlns:xlink="http://www.w3.org/1999/xlink" viewBox="0 0 640 480" height="16" width="22"><path d="M0 240h640v240H0z" fill="#5eb6e4"/><path d="M0 0h640v240H0z" fill="#f5f5f5"/><g fill="none" stroke="#000" stroke-width=".933" transform="scale(.8)"><use transform="matrix(-1 0 0 1 800.15495 0)" xlink:href="#flag-sm-a"/><g id="flag-sm-a"><path d="M376.388-112.188a3.909 3.909 0 1 0 0 7.818 3.909 3.909 0 1 0 0-7.818zM338.47-98.057a5.081 5.081 0 1 0 0 10.162 5.081 5.081 0 1 0 0-10.162zm23.196-12.795a4.218 4.218 0 1 0 0 8.436 4.218 4.218 0 1 0 0-8.436zm-20.946 28.04a4.044 4.044 0 1 0 0 8.088 4.044 4.044 0 1 0 0-8.088zm6.15-24.954a4.885 4.885 0 1 0 0 9.77 4.885 4.885 0 1 0 0-9.77z" fill="#fff" transform="translate(0 250)"/><path d="M376.389 137.411a4.31 4.31 0 1 0 0 8.62 4.31 4.31 0 1 0 0-8.62zm-37.919 14.012a5.602 5.602 0 1 0 0 11.204 5.602 5.602 0 1 0 0-11.204zm23.196-12.706a4.65 4.65 0 1 0 0 9.3 4.65 4.65 0 1 0 0-9.3zm-20.948 28.056a4.458 4.458 0 1 0 0 8.916 4.458 4.458 0 1 0 0-8.916zm6.153-25.04a5.386 5.386 0 1 0 0 10.772 5.386 5.386 0 1 0 0-10.772z" stroke-width="1.09"/><path d="M392.488-117.984c-13.483 15.538-37.154 7.948-47.953 13.999-18.784 10.523 1.649 35.486 5.496 40.258l20.47-5.343c-7.515-6.013-22.587-16.226-18.048-24.525 4.652-8.51 29.37.124 40.18-18.04 2.274-3.82.532-7.126-.145-6.348z" fill="#000001" stroke-linecap="round" stroke-linejoin="round" transform="translate(0 250)"/><path d="M392.488-117.52c-13.483 15.543-36.39 8.095-47.186 14.146-18.785 10.524 2.431 34.875 6.279 39.649l17.681-5.345c-7.518-6.013-21.8-16.536-17.26-24.835 4.65-8.508 29.822-.03 40.631-18.195 2.274-3.82.532-6.197-.145-5.42z" fill="#f1bf31" stroke-linecap="round" stroke-linejoin="round" transform="translate(0 250)"/><path d="M393.711 133.678c-14.603 19.717-36.523 9.763-45.943 17.455-10.642 8.69 4.862 25.795 12.343 32.562l1.17-.43c-6.07-5.753-24.059-22.839-12.628-32.064 8.219-6.636 31.33 2.02 45.107-17.055z" fill="#000001" stroke-linecap="round" stroke-linejoin="round" stroke-width=".633"/><path d="M357.83-78.694a14.718 14.718 0 0 0-1.256 3.332c-6.242-7.435-10.917-15.14-5.999-21.505 4.478-5.795 15.453-3.173 26.877-7.187 5.233-1.552 10.37-4.315 14.744-9.494-.42 1.134-.856 2.506-1.338 3.88-11.596 14.764-34.753 7.689-39.167 15.761-2.604 4.763 1.095 10.259 6.138 15.213z" fill="#d99f31" stroke="none" stroke-linecap="round" stroke-linejoin="round" transform="translate(0 250)"/><path d="M352.11-80.02c1.303-.376 1.968-1.099 2.693-1.942.296.357.602.713.918 1.067-.499.662-1.07 1.31-1.925 1.76-1.035.542-2.168.68-3.23.68-.355-.476-.7-.96-1.036-1.445.86.086 1.827.098 2.58-.12zm-2.812-5.772c1.136-.178 1.594-.293 2.493-.8.156.343.33.687.518 1.03-.758.441-1.378.705-2.428.92-1.056.218-2.151.154-3.122-.008a22.97 22.97 0 0 1-.576-1.335c.949.183 2.175.341 3.116.194zm1.539-4.812c-2.073-.199-4.085-1.283-5.495-2.828.1-.413.23-.821.393-1.22.811 1.014 2.57 2.769 5.186 2.997a6.956 6.956 0 0 0-.084 1.05zm1.806-4.554c-1.482-.864-2.705-2.228-3.457-3.772a8.95 8.95 0 0 1 .867-.546c.55 1.167 1.583 2.742 3.389 3.643a6.53 6.53 0 0 0-.799.675zm3.983-6.15c.246 1.407.99 2.596 2.146 3.45-.383.08-.755.166-1.116.258a6.261 6.261 0 0 1-1.931-3.58c.296-.046.596-.088.901-.129zm7.098-.62c.37 1.046 1.113 1.968 2.092 2.707.11.081.165.184.182.286l-1.107.14c-1-.848-1.745-1.891-2.103-3.065l.936-.068zm6.924-.688a8.143 8.143 0 0 0 2.685 2.552 66.79 66.79 0 0 1-1.278.243 8.893 8.893 0 0 1-2.397-2.664c.33-.041.66-.085.99-.131zm6.187-1.26c.895.867 2.03 1.51 3.242 1.921-.43.165-.864.319-1.3.465-1.116-.511-2.14-1.218-2.95-2.118a35.61 35.61 0 0 0 1.008-.267zm6.23-2.394c.83.6 1.92.996 2.897 1.238-.33.231-.666.45-1.005.663-.997-.316-2.018-.786-2.797-1.458.302-.142.604-.29.904-.443zm4.591-2.906c.66.33 1.43.564 2.182.726-.238.264-.48.518-.727.765-.79-.205-1.579-.494-2.253-.895.268-.192.534-.391.798-.596z" fill="#000001" stroke="none" stroke-linecap="round" stroke-linejoin="round" transform="translate(0 250)"/><path d="M393.76 134.456c.044.954-.226 1.776-1.125 3.289-10.812 18.163-36.292 9.84-40.944 18.35-4.472 8.18 9.643 18.517 17.238 24.572a40.26 40.26 0 0 1-4.216 1.26l-1.327.718-1.967.621c-6.07-5.755-24.041-22.685-12.613-31.909 8.222-6.636 31.178 2.174 44.954-16.901z" stroke-linecap="round" stroke-linejoin="round" stroke-width=".604"/></g><path d="M400.079 166.697h-6.842s.81-6.522-.105-10.94c-.741-3.573-3.592-7.674-3.592-10.681 0-3.006 3.256-11.453 3.256-11.453h14.567s3.1 8.447 3.1 11.453c0 3.007-2.696 7.108-3.437 10.68-.915 4.42-.105 10.941-.105 10.941h-6.842z" fill="#000001"/><path d="M400.079 166.697h-6.842s1.053-6.511.204-10.94c-.691-3.604-3.125-6.401-3.446-10.057-.457-5.158 4.042-12.077 4.042-12.077h12.085s4.343 6.919 3.888 12.077c-.322 3.656-2.602 6.452-3.293 10.057-.849 4.429.204 10.94.204 10.94h-6.842z" fill="#f1bf31" stroke="none"/><path d="M389.977 144.401c.43-.146.886-.248 1.318-.248 1.501 0 2.095.98 2.095.98s3.932-.91 6.69-.91c2.757 0 6.69.91 6.69.91s.594-.98 2.095-.98c.38 0 .78.079 1.162.199.026.458.023.91-.015 1.348-.322 3.658-2.604 6.453-3.293 10.057-.42 2.19-.377 4.886-.224 7.055l-6.415 3.05-6.416-3.05c.153-2.17.198-4.866-.222-7.055-.691-3.604-3.124-6.399-3.448-10.057a9.117 9.117 0 0 1-.017-1.299z" fill="#d99f31" stroke="none"/><path d="M407.092 146.814c-.299.943-.778 2.453-1.194 3.975-.415 1.522-.768 3.054-.816 4.045-.19 3.87.473 8.07 1.242 11.863h-.278c-1.087-3.318-2.346-8.428-2.297-11.87.027-2.094 1.352-6.152 2.03-8.093.979-2.803.777-4.697.088-6.574-.691-1.885-1.87-3.754-2.839-6.494a.05.05 0 0 1 0-.043h1.298c.99 2.697 2.103 4.582 2.766 6.491.673 1.938.885 3.896 0 6.7zm-13.25 19.883c.774-3.826 1.418-7.972 1.243-11.863-.044-.988-.397-2.52-.816-4.044-.415-1.525-.897-3.034-1.194-3.975-.889-2.806-.18-6.133.746-8.75a28.76 28.76 0 0 1 2.016-4.442h1.347c-.413.678-4.643 7.827-2.796 13.112.676 1.941 2 5.999 2.03 8.091.047 3.437-1.216 8.557-2.3 11.871h-.275z" fill="#000001" stroke="none"/><path d="M400.079 166.697h-6.842s1.053-6.511.204-10.94c-.691-3.604-3.125-6.401-3.446-10.057-.457-5.158 4.042-12.077 4.042-12.077h12.085s4.343 6.919 3.888 12.077c-.322 3.656-2.602 6.452-3.293 10.057-.849 4.429.204 10.94.204 10.94h-6.842z"/><path d="M400 138.136a3.409 2.507 0 1 0 0 5.014 3.409 2.507 0 1 0 0-5.014z" fill="#fff" stroke-width=".915"/><path d="M400 137.756a3.835 2.735 0 1 0 0 5.47 3.835 2.735 0 1 0 0-5.47z" stroke-width="1.029"/><path d="M400 144.546a3.683 3.683 0 1 0 0 7.366 3.683 3.683 0 1 0 0-7.366z" fill="#fff" stroke-width=".915"/><path d="M400 144.086a4.143 4.143 0 1 0 0 8.286 4.143 4.143 0 1 0 0-8.286z" stroke-width="1.029"/><path d="M360.414 204.281s-1.057-1.065-1.378-1.935c-.255-.685-.279-1.855-.279-1.855l-3.787-6.069 8.507-8.089 16.177-4.64 20.395-1.458h.031l20.398 1.457 16.174 4.641 8.507 8.09-3.787 6.068s-.023 1.17-.278 1.855c-.322.87-1.379 1.935-1.379 1.935l-18.971-6.412-20.664-.926-20.692.926z" stroke-width=".904"/><path d="M360.873 203.597s-.758-.947-1.046-1.655c-.418-1.024-.364-2.814-.364-2.814l-4.493-4.705 8.507-8.089 16.174-4.64 20.43-1.458 20.426 1.457 16.177 4.641 8.504 8.09-4.49 4.704s.051 1.79-.366 2.814c-.287.708-1.047 1.655-1.047 1.655l-18.514-5.727-20.69-.928-20.693.928-18.515 5.727z" fill="#f1bf31"/><path d="M358.832 207.288a41.168 12.777 0 1 1 82.336 0 41.168 10.824 0 1 1-82.336 0z" fill="#000001"/><path d="M360.208 207.288a39.792 12.312 0 1 1 79.584 0 39.792 10.523 0 1 1-79.584 0z" fill="#f1bf31"/><path d="M400 199.02a36.785 9.395 0 1 0 0 18.79 36.785 9.395 0 1 0 0-18.79z" fill="#d99f31"/><path d="M436.52 209.676c-6.886 2.946-20.432 4.527-36.47 4.527-16.04 0-29.585-1.58-36.47-4.527" stroke-width="1.09"/><path d="M435.909 206.262c-7.056 2.688-20.282 4.033-35.859 4.031-15.578 0-28.802-1.344-35.858-4.032" stroke-width="1.01"/><path d="M432.459 203.885c-7.495 2.174-19.092 3.403-32.409 3.402-13.317 0-24.912-1.228-32.407-3.402"/><path d="M427.478 202.07c-7.231 1.427-16.78 2.213-27.428 2.213s-20.196-.786-27.428-2.213m46.47-1.752c-5.66.624-12.118.956-19.042.956-6.924 0-13.383-.332-19.042-.956"/><path d="M400 199.322a36.475 9.093 0 1 0 0 18.186 36.475 9.093 0 1 0 0-18.186z"/><path d="M354.757 192.762c-3.611-4.803-6.83-8.073-14.649-10.834 1.073-.864 2.971-1.649 4.795-2.097 2.975-.733 6.015-.335 7.97.689-1.552-5.555 1.429-11.094 1.429-11.094s4.817-.276 9.699 3.646c.16-6.727 2.132-9.92 2.132-9.92s5.07.243 10.257 5.396c.988-6.958 4.742-10.735 4.742-10.735s6.23 1.951 9.79 8.524c2.373-9.523 9.156-13.253 9.156-13.253s6.786 3.73 9.157 13.253c3.563-6.573 9.792-8.524 9.792-8.524s3.73 3.64 4.742 10.735c5.187-5.153 10.257-5.397 10.257-5.397s1.973 3.194 2.133 9.92c4.881-3.921 10.178-2.462 10.178-2.462s2.502 4.356.949 9.91c1.954-1.023 4.996-1.421 7.971-.688 1.823.448 3.72 1.233 4.794 2.097-7 2.541-11.191 6.031-14.804 10.834-3.378-6.902-21.455-14.493-45.169-14.493-23.71 0-41.943 7.591-45.321 14.493z" fill="#000001" stroke-linejoin="round"/><path d="M354.757 191.986c-3.088-4.84-7.545-8.382-12.17-10.172 1.074-.864 2.96-1.194 4.956-1.333 2.343-.162 4.292.166 5.946.95-1.554-5.551.969-11.23.969-11.23s4.966.02 9.848 3.941c.16-6.727 2.292-10.064 2.292-10.064s4.755.53 9.942 5.685c1.113-6.945 4.748-10.866 4.748-10.866s6.229 1.933 9.79 8.503c2.373-9.52 9-12.923 9-12.923s6.63 3.403 9.004 12.923c3.56-6.57 9.79-8.503 9.79-8.503s3.751 3.511 4.748 10.866c5.187-5.155 9.941-5.685 9.941-5.685s2.132 3.337 2.293 10.064c4.881-3.922 10.466-2.857 10.466-2.857s1.904 4.595.352 10.147c1.652-.785 3.601-1.113 5.942-.951 1.997.14 3.884.47 4.958 1.333-4.624 1.79-9.082 5.332-12.17 10.172-3.378-6.902-21.61-13.86-45.324-13.86-23.71 0-41.943 6.958-45.32 13.86z" fill="#f1bf31" stroke-linejoin="round"/><path d="M352.995 194.157c0-8.754 20.9-16.185 47.053-16.185 26.156 0 46.282 7.73 46.282 15.41 0 1.84-1.626 3.424-3.77 4.77a5.188 5.188 0 0 0 .31-1.763c0-7.68-16.666-13.905-42.822-13.905-26.153 0-42.82 6.225-42.82 13.905 0 .596.106 1.186.313 1.762-2.146-1.345-4.546-2.155-4.546-3.994z" fill="#000001"/><path d="M354.222 193.382c0-6.642 19.675-14.945 45.828-14.945 26.154 0 45.829 8.303 45.829 14.945 0 1.84-2.048 2.024-2.233 1.458-2.198-6.734-17.442-12.668-43.596-12.668-26.153 0-41.398 5.934-43.596 12.668-.185.566-2.232.382-2.232-1.458z" fill="#f1bf31" stroke-width=".904"/><path d="M399.577 172.094c.152-2.35.463-7.569.463-7.569.007-.052.073-.827.08-.774 0 0 .292 5.99.433 8.339.141 2.344.289 6.015.289 6.015a.04.04 0 0 1-.04.04l-1.503.007a.04.04 0 0 1-.04-.04s.167-3.674.318-6.018zm38.456 13.549a84.63 84.63 0 0 0 1.287-2.655c.753-1.655 2.11-4.304 2.11-4.304.019-.05-.044-.079-.07-.034 0 0-1.7 2.402-2.654 3.894a93.09 93.09 0 0 1-1.722 2.567zm-12.812-4.644c.228-.51 1.296-2.89 2.124-4.415.987-1.814 2.77-4.512 2.77-4.512.029-.045.09-.01.067.038 0 0-1.28 2.73-2.014 4.512-.719 1.74-1.714 4.512-1.714 4.512l-.66.009zm-11.599-2.087c.282-1.12.858-3.368 1.316-4.95a103.307 103.307 0 0 1 1.79-5.64.039.039 0 0 1 .075.019c-.424 2.255-.65 3.53-1.036 5.791a475.699 475.699 0 0 0-.802 4.95zm-39.31 2.244l-.57.004c-.038-.027-1.032-2.798-1.75-4.539-.736-1.78-2.015-4.51-2.015-4.51-.022-.05.038-.085.067-.039 0 0 1.783 2.698 2.77 4.512.829 1.524 1.895 3.904 2.123 4.415zm10.883-2.075c-.165-1.036-.53-3.337-.804-4.949-.384-2.26-.612-3.535-1.035-5.79-.01-.054.058-.07.075-.021a102.846 102.846 0 0 1 1.788 5.641c.46 1.582 1.035 3.832 1.318 4.951zm-23.187 6.623a85.031 85.031 0 0 1-1.317-2.716c-.755-1.655-2.109-4.304-2.109-4.304-.02-.05.043-.079.068-.034 0 0 1.699 2.402 2.654 3.894a95.684 95.684 0 0 0 1.76 2.621z" fill="#000001" stroke-linejoin="round" stroke-width=".45"/><g stroke-linecap="round" stroke-linejoin="round" stroke-width=".777"><path d="M361.605 197.422c-.337-1.906-1.985-3.44-3.256-3.217-1.268.223-3.072 2.123-2.736 4.027.335 1.905 2.717 3.29 3.988 3.069 1.27-.225 2.34-1.975 2.004-3.879z" fill="#d99f31" stroke-width=".719"/><path d="M359.49 195.078a2.393 2.393 0 0 1-3.027 3.62 2.868 2.868 0 0 1-.147-.528c-.291-1.652.971-3.144 2.07-3.338.08-.014.16-.02.24-.02.296 0 .59.094.864.266z" fill="#f1bf31" stroke="none"/><path d="M360.903 197.466c-.29-1.649-1.418-2.828-2.516-2.635-1.101.193-2.361 1.688-2.073 3.337.293 1.648 2.056 2.848 3.155 2.655 1.1-.193 1.725-1.709 1.434-3.357z"/><path d="M375.4 192.846l-.598-3.583-2.413-1.217s-2.593.704-4.209 1.279c-1.673.594-4.21 1.731-4.21 1.731l-.602 1.053.754 4.053 1.35 1.202 9.02-2.705.908-1.813z" fill="#d99f31"/><path d="M365.464 195.441l7.226-2.287.45-.748-.625-3.752-.26-.257-8.024 2.944.611 3.402z" fill="#f1bf31" stroke="none"/><path d="M365.464 195.441l7.226-2.287.45-.748-.475-3.001m2.555 3.441l-2.08-.442" stroke-width="1.09"/><path d="M385.724 189.003a1.502 1.502 0 0 1 1.367-1.628 1.502 1.502 0 1 1 .264 2.995 1.505 1.505 0 0 1-1.631-1.367zm-3.482 3.322a1.504 1.504 0 1 1 2.999-.259 1.504 1.504 0 0 1-2.999.26zm-3.554-2.668a1.502 1.502 0 0 1 1.366-1.627c.826-.073 1.406.54 1.478 1.366.073.828-.388 1.557-1.216 1.63a1.504 1.504 0 0 1-1.628-1.369zm3.03-3.322a1.504 1.504 0 1 1 2.997-.259 1.504 1.504 0 0 1-2.996.259z" fill="#f1bf31" stroke="none"/><path d="M385.814 189.398a1.503 1.503 0 0 1 2.818 0 1.504 1.504 0 0 1-2.818 0zm-4.005-2.668a1.502 1.502 0 0 0 2.816 0 1.504 1.504 0 0 0-2.816 0zm-3.032 3.322c.23.619.851 1.032 1.54.974.585-.052.988-.433 1.147-.945-.188-.633-.711-1.062-1.41-1a1.504 1.504 0 0 0-1.277.97zm3.556 2.667a1.501 1.501 0 0 0 2.816 0 1.505 1.505 0 0 0-2.816 0z" fill="#d99f31" stroke="none"/><path d="M385.724 189.003a1.502 1.502 0 0 1 1.367-1.628 1.502 1.502 0 1 1 .264 2.995 1.505 1.505 0 0 1-1.631-1.367zm-3.482 3.322a1.504 1.504 0 1 1 2.999-.259 1.504 1.504 0 0 1-2.999.26zm-3.554-2.668a1.502 1.502 0 0 1 1.366-1.627c.826-.073 1.406.54 1.478 1.366.073.828-.388 1.557-1.216 1.63a1.504 1.504 0 0 1-1.628-1.369zm3.03-3.322a1.504 1.504 0 1 1 2.997-.259 1.504 1.504 0 0 1-2.996.259z" stroke-width=".933"/><path d="M392.853 190.393V186.5l2.27-2.113h9.918l2.269 2.113v3.891l-2.272 1.965h-9.918z" fill="#d99f31" stroke="none"/><path d="M405.238 184.846l-.798.814v3.717l-.633.625-7.51-.054-.623-.624v-3.569l-.672-.909z" fill="#f1bf31" stroke="none"/><path d="M392.853 190.393V186.5l2.27-2.113h9.918l2.269 2.113v3.891l-2.272 1.965h-9.918z"/><path d="M393.463 190.23l2.211-.851m10.993.911l-2.227-.913m-9.05 2.728l.901-2.104m8.42 2.104l-.901-2.104m.63-4.34v3.716l-.63.624-7.512-.053-.624-.623v-3.717" stroke-width="1.09"/><path d="M414.374 189.003a1.5 1.5 0 0 0-1.366-1.628 1.502 1.502 0 1 0-.261 2.995 1.503 1.503 0 0 0 1.627-1.367zm3.483 3.322a1.504 1.504 0 1 0-2.999-.258 1.504 1.504 0 0 0 2.999.258zm3.554-2.668a1.502 1.502 0 0 0-1.366-1.627c-.826-.073-1.405.54-1.479 1.366-.072.828.39 1.557 1.217 1.63.827.07 1.556-.54 1.628-1.369zm-3.029-3.322a1.503 1.503 0 1 0-2.999-.261 1.503 1.503 0 0 0 2.999.26z" fill="#f1bf31" stroke="none"/><path d="M414.285 189.398a1.505 1.505 0 0 0-2.818 0 1.504 1.504 0 0 0 2.818 0zm1.19-2.668a1.504 1.504 0 0 0 2.816 0 1.504 1.504 0 0 0-2.817 0zm3.16 3.35c.159.513.562.894 1.15.946a1.503 1.503 0 0 0 1.537-.975 1.503 1.503 0 0 0-1.277-.97c-.698-.062-1.22.367-1.41 1zm-3.686 2.64a1.504 1.504 0 0 0 2.818 0 1.505 1.505 0 0 0-2.818-.003z" fill="#d99f31" stroke="none"/><path d="M414.374 189.003a1.5 1.5 0 0 0-1.366-1.628 1.502 1.502 0 1 0-.261 2.995 1.503 1.503 0 0 0 1.627-1.367zm3.483 3.322a1.504 1.504 0 1 0-2.999-.258 1.504 1.504 0 0 0 2.999.258zm3.554-2.668a1.502 1.502 0 0 0-1.366-1.627c-.826-.073-1.405.54-1.479 1.366-.072.828.39 1.557 1.217 1.63.827.07 1.556-.54 1.628-1.369zm-3.029-3.322a1.503 1.503 0 1 0-2.999-.261 1.503 1.503 0 0 0 2.999.26z" stroke-width=".933"/><path d="M424.7 192.846l.598-3.583 2.413-1.217s2.593.704 4.208 1.279c1.674.594 4.211 1.731 4.211 1.731l.602 1.053-.753 4.053-1.352 1.202-9.02-2.705-.907-1.813z" fill="#d99f31"/><path d="M434.635 195.441l-7.223-2.287-.453-.748.627-3.752.257-.257 8.027 2.944-.613 3.402z" fill="#f1bf31" stroke="none"/><path d="M434.635 195.441l-7.223-2.287-.453-.748.476-3.001m-1.885 4.952l1.861-1.202" stroke-width="1.09"/><path d="M438.405 197.422c.337-1.906 1.985-3.44 3.253-3.217 1.271.223 3.076 2.123 2.742 4.027-.337 1.905-2.72 3.29-3.991 3.069-1.269-.225-2.34-1.975-2.004-3.879z" fill="#d99f31" stroke-width=".719"/><path d="M439.953 196.626c0-.59.214-1.13.568-1.548.274-.172.568-.266.863-.266.08 0 .16.007.24.02 1.1.194 2.36 1.687 2.069 3.338-.032.182-.082.36-.147.53a2.394 2.394 0 0 1-3.593-2.074z" fill="#f1bf31" stroke="none"/><path d="M439.106 197.466c.29-1.649 1.419-2.828 2.517-2.635 1.1.193 2.363 1.688 2.072 3.337-.291 1.648-2.054 2.848-3.154 2.655-1.1-.193-1.726-1.709-1.435-3.357z"/><path d="M424.278 192.878l.652-3.893 2.562-1.27s2.777.755 4.508 1.37c1.79.635 4.508 1.844 4.508 1.844l.645 1.127-.805 4.352-1.45 1.289-9.66-2.899-.96-1.92zm-31.907-6.532l2.397-2.242h10.624l2.396 2.242.004 4.21-2.4 2.083h-10.625l-2.396-2.082v-4.211zm-16.55 6.532l-.652-3.893-2.562-1.27s-2.777.755-4.508 1.37c-1.79.635-4.508 1.844-4.508 1.844l-.643 1.127.803 4.352 1.45 1.289 9.66-2.899.96-1.92z" stroke-width=".833"/></g><g stroke-linecap="round" stroke-linejoin="round"><path d="M408.129 95.85c1.776 0 3.071 1.585 3.071 3.364 0 1.78-1.295 3.524-3.071 3.524-2.32 0-5.686-2.743-5.572-.56l.056 1.104 1.231 10.145c3.022.681-10.554.681-7.533 0l1.235-10.19.054-1.06c.11-2.18-3.34.561-5.57.561-1.778 0-3.071-1.744-3.071-3.524s1.293-3.364 3.07-3.364c1.75 0 3.684 1.631 4.923.864 1.95-1.202-.397-3.907-.397-5.73 0-1.775 1.745-3.225 3.524-3.225 1.778 0 3.524 1.45 3.524 3.225 0 1.823-2.363 4.449-.395 5.73 1.174.767 3.11-.864 4.921-.864z" fill="#d99f31" stroke-width=".952"/><path d="M397.49 91.508a2.576 2.576 0 0 1-.462-.81c.378-1.319 1.66-2.37 3.053-2.37.61 0 1.198.202 1.7.54-.106.36-.917.435-1.683 1.077-1.099.92-1.688 2.66-2.608 1.563zm.505 5.096c.142.198.219.41.219.631 0 1.1-1.9 1.99-4.244 1.99-1.964 0-3.616-.627-4.099-1.477a3.25 3.25 0 0 1 2.69-1.473c1.637 0 3.875 1.394 5.034.68.17-.105.3-.223.4-.351zm3.268.168c0-.513.243-.993.666-1.403-.106.626.02 1.183.637 1.585 1.096.715 3.336-.679 5.03-.679 1.078 0 2.09.574 2.666 1.432-.651 1.04-2.357 1.782-4.358 1.782-2.562 0-4.641-1.216-4.641-2.717z" fill="#f1bf31" stroke="none"/><path d="M407.596 96.276c1.659 0 3.158 1.356 3.158 3.016s-1.5 3.016-3.158 3.016c-1.659 0-5.737-2.903-5.64-.69l.054 1.182.698 9.783c2.824.636-8.083.636-5.261 0l.701-9.826.05-1.139c.098-2.211-4.104.69-5.635.69-1.658 0-3.158-1.356-3.158-3.016s1.5-3.016 3.158-3.016c1.635 0 3.874 1.391 5.033.679 1.821-1.123-.683-3.77-.683-5.471 0-1.659 1.506-3.156 3.166-3.156 1.662 0 3.167 1.497 3.167 3.156 0 1.7-2.516 4.273-.68 5.471 1.096.712 3.338-.679 5.03-.679z"/><path d="M400 108.387a7.901 7.901 0 1 0 0 15.802 7.901 7.901 0 1 0 0-15.802z" fill="#f1f1f2" stroke-width="1.703"/><path d="M401.46 121.283c.53-.663 1.115-1.504 1.358-2.288.18-.573.774-.304.646.184-.226.854-.746 1.747-1.254 2.45zm-8.695-4.654c.137-.115.292-.26.477-.408a4.87 4.87 0 0 1 .654-.45c.334-.225.102-.744-.305-.547-.428.208-.78.427-1.013.583zm-.05 1.172l.411.735c.577-.61 1.543-1.5 1.696-1.643.357-.338-.106-.728-.41-.51-.352.25-.86.635-1.22.967a30.44 30.44 0 0 0-.478.451zm.597 1.763l.513.598c1.213-.944 2.291-2.087 2.465-2.274.343-.372-.054-.876-.46-.507-.194.204-1.767 1.604-2.507 2.174l-.01.009zm10.783 1.333c.382-.433.797-1.037.934-1.736.05-.247.227-.365.404-.328.17.037.294.214.255.45-.14.843-.58 1.56-.993 2.04zm-6.057.772c1.108-1.267 1.915-2.349 2.644-3.565.11-.183.309-.229.456-.156.156.074.229.262.122.48a15.155 15.155 0 0 1-1.618 2.593c-.547.691-.952 1.165-.952 1.165zm-2.24-1.375c.74-.686 1.588-1.552 2.058-2.128.278-.34.882-.077.537.434a12.725 12.725 0 0 1-1.759 2.043z" fill="#000001" stroke="none"/><path d="M406.135 133.626h-6.057l-6.033-.002c-1.024 1.73-4.257 2.903-6.903 1.522-1.878-.982-2.263-3.212-2.263-3.212s5.062.185 5.09-4.294c0-4.539 2.607-7.504 6.355-7.055 1.636.195 2.743 1.02 3.754 1.938 1.013-.918 2.124-1.746 3.763-1.938 3.747-.445 6.349 2.516 6.349 7.02 0 4.516 5.088 4.333 5.088 4.333s-.383 2.226-2.262 3.208c-2.656 1.385-5.908.197-6.881-1.52z" fill="#d99f31"/><path d="M406.139 133.624h-.418c-1.121 1.04-2.884 2.095-5.641 2.705-2.76-.61-4.52-1.665-5.641-2.705h-.395s-4.24 3.006-7.213.752c-1.099-.831-1.33-1.977-1.33-1.977s5.088-.278 5.088-4.794c0-4.504 2.444-6.401 5.733-6.401 1.437 0 2.745.71 3.758 1.63 1.01-.92 2.321-1.63 3.758-1.63 3.289 0 5.733 1.897 5.733 6.4 0 4.517 5.087 4.795 5.087 4.795s-.233 1.146-1.33 1.977c-2.975 2.254-7.189-.752-7.189-.752z" fill="#d99f31" stroke="none"/><path d="M391.164 125.035c-.265.64.156 2.864.156 2.864s.138 2.02-1.451 3.556c-1.11 1.074-3.646 1.541-3.646 1.541m22.779-7.961c.266.64-.156 2.864-.156 2.864s-.137 2.02 1.45 3.556c1.108 1.074 3.646 1.541 3.646 1.541" stroke="#f1bf31" stroke-width=".904"/><path d="M399.982 135.868c-6.296-1.43-7.112-5.33-6.937-5.286.413.102 1.867 2.946 7.034 4.383 5.168-1.437 6.62-4.281 7.035-4.383.174-.044-.642 3.856-6.937 5.286h-.195zm-7.736-11.121c0-1.524 2.527-2.802 5.935-3.152a6.774 6.774 0 0 1 1.9 1.239 6.743 6.743 0 0 1 1.892-1.237c3.4.353 5.918 1.628 5.918 3.15 0 3.61-4.125 5.357-7.823 5.355-3.698 0-7.822-1.744-7.822-5.355z" fill="#f1bf31" stroke="none"/><path d="M406.139 133.624h-.418c-1.121 1.04-2.884 2.095-5.641 2.705-2.76-.61-4.52-1.665-5.641-2.705h-.395s-4.24 3.006-7.213.752c-1.099-.831-1.33-1.977-1.33-1.977s5.088-.278 5.088-4.794c0-4.504 2.444-6.401 5.733-6.401 1.437 0 2.745.71 3.758 1.63 1.01-.92 2.321-1.63 3.758-1.63 3.289 0 5.733 1.897 5.733 6.4 0 4.517 5.087 4.795 5.087 4.795s-.233 1.146-1.33 1.977c-2.975 2.254-7.189-.752-7.189-.752z"/><path d="M407.625 130.618s-.752 5.052-7.545 6.555c-6.796-1.503-7.548-6.555-7.548-6.555s.752 4.208 7.547 5.712c6.794-1.504 7.546-5.712 7.546-5.712z" fill="#000001"/></g></g><g stroke-linecap="round" stroke-linejoin="round" stroke-width=".933" transform="scale(.8)"><path d="M398.792 227.491c13.541-.237 71.818-10.008 71.818 70.925 0 77.305-70.56 108.048-70.56 108.048s-70.564-29.78-70.564-113.912c0-75.068 69.306-65.06 69.306-65.06z" fill="#a0cfeb"/><path d="M367.911 230.52h66.967m-75.913 3.712h84.12m-90.251 3.713h95.793m-100.444 3.715h104.632m-108.329 3.712h111.648m-114.663 3.712h117.374m-119.856 3.713h122.102m-124.169 3.712h126.052m-127.756 3.713H464.55m-130.752 3.714h132.08m-133.249 3.71h134.356m-135.3 3.713h136.22m-50.246 3.713h51.005m-137.726 0h51.354m51.984 3.711h35.002m-138.918 0h35.444m74.937 3.716h29.018m-139.824 0h29.234m87.872 3.712h23.08m-140.456 0h22.994m100.604 3.713h17.118m-140.856 0h17.094m111.114 3.71h12.8m-141.032 0h13.029m119.299 3.712h8.772m-141.027 0h8.481" fill="none" stroke="#4c819a" stroke-width=".777"/><use transform="translate(34.87158 -4.22177)" xlink:href="#flag-sm-b"/><use transform="translate(69.7424 .15582)" xlink:href="#flag-sm-b"/><path d="M421.681 348.386a28.545 28.545 0 0 1 13.953-3.619c8.237 0 15.66 3.474 20.89 9.036-20.586 37.015-56.473 52.66-56.473 52.66s-34.96-14.755-55.664-52.832c5.22-5.462 12.577-8.864 20.729-8.864a28.52 28.52 0 0 1 15.425 4.5c5.234-5.63 12.704-9.15 20.997-9.15 7.851 0 14.964 3.157 20.143 8.269z" fill="#94bb79"/><path d="M433.967 345.161c3.555.411 9.773 3.758 12.78 8.27-2.336 3.86-6.823 9.993-9.3 13.374-5.496-8.067-16.883-18.868-16.094-18.088.114.11.592-.277.731-.355 1.096-.611 2.119-1.166 3.122-1.639a28.482 28.482 0 0 1 6.357-1.669c.758-.025 1.553.008 2.404.107zm-24.18 50.77a123.41 123.41 0 0 1-9.738 4.63 122.488 122.488 0 0 1-9.738-4.63c-8.708-7.052-26.641-23.508-39.267-47.43a28.088 28.088 0 0 1 13.761-3.579c.41 0 2.106.494 3.347 1.077 7.936 3.73 17.757 14.435 14.138 16.483-2.656 1.498-10.255-.962-10.654 1.978-.15 1.113 14.096 8.939 22.192 15.83 6.636 5.65 17 14.796 15.959 15.64zm17.297-7.032c-9.063-8.897-29.447-26.996-46.503-39.676 4.727-5.062 11.265-8.408 18.583-9.007l.384.051c9.843 1.41 18.758 11.964 15.14 14.01-2.657 1.5-10.256-.96-10.654 1.98-.132.98 10.192 7.221 16.236 12.418 5.935 5.102 9.815 8.767 14.217 13.576a136.434 136.434 0 0 1-7.403 6.648z" fill="#658d5c"/><path d="M422.071 347.943c1.886 1.78 2.708 3.262 2.714 3.272.18.3-.021.992-.563.486 0 0-.75-.715-2.952-2.861-2.965-2.892-8.094-6.55-12.34-7.263-.407-.069-.583-.27-.533-.565.047-.297.305-.577.712-.511.077.012 6.345 1.194 12.962 7.442zm-34.874 5.554c.194.175.246.416.138.595-.114.186-.355.228-.558.08-3.586-2.547-5.336-3.614-7.415-4.918-.163-.104-.272-.277-.15-.46.082-.121.25-.2.41-.247.326-.093.818-.11 1.133.088 2.106 1.322 3.52 2.462 6.442 4.862z"/><path d="M421.681 348.386c4.13-2.305 8.889-4.084 13.953-4.084 8.277 0 15.733 3.636 20.966 9.366m-112.312-.225c5.227-5.682 12.624-9.295 20.828-9.295 5.68 0 10.972 2.27 15.425 5.118 5.235-5.629 12.705-9.767 20.999-9.767 7.85 0 14.964 3.775 20.142 8.887" fill="none" stroke="#000" stroke-width="1.244"/><g id="flag-sm-b"><path d="M356.655 300.398l-.017-7.225 7.749-3.024 7.75 2.093.016 8.156z"/><path d="M373.237 333.224l3.394 13.948a28.587 28.587 0 0 0-11.515-2.406l-.729-57.564 3.099.89v6.053l3.874.997v-5.994l5.271 1.387v9.841l-3.394 5.038v27.81z" fill="#fff"/><path d="M364.387 332.147v-44.943h-.001l-3.1 1.355v5.965l-3.874 1.545v-5.99l-5.27 2.237v9.532l3.788 4.542.09 27.393-3.877 14.082a28.528 28.528 0 0 1 12.244-3.089v-12.629z" fill="#bdbfc1"/><path d="M364.249 332.04l-8.23 1.744m-1.74 8.669l10.048-2.123 10.864 1.168m-11.224-5.225l-8.868 1.807m17.653-24.684l-8.364-1.735-8.483 2.589m16.847 3.098l-8.364-1.597-8.483 2.45m0-7.859l8.483-2.743 8.364 1.767m-16.847 12.726l8.483-2.263 8.364 1.488m-16.77 4.664l8.406-2.076 8.44 1.38m-16.847 4.602l8.407-1.892 8.52 1.271m-3.097-24.411v3.836m-3.1-.583v3.914m3.1.828v3.917m-7.903-4.282v3.914m0 4.11v3.912m-3.72 1.363v3.604m0-19.42v3.605m3.72-9.107v3.916m2.496-10.982l12.227 2.977m-12.227-2.977l-12.26 4.447" fill="none" stroke="#000" stroke-width="1.09"/><path d="M364.387 344.776v-57.572" fill="none" stroke="#000" stroke-width="1.244"/><path d="M370.586 334.677l-3.723-.513.004-11.781c0-1.45.88-2.336 1.674-2.336 1.406 0 2.045 1.584 2.045 2.957z"/><path d="M373.237 333.225l3.394 13.948a28.587 28.587 0 0 0-11.515-2.406 28.535 28.535 0 0 0-12.972 3.098l3.874-14.08-.09-27.393-3.784-4.543v-9.532l5.269-2.238v5.988l3.874-1.543v-5.965l3.1-1.356 3.099.89v6.053l3.874.997v-5.994l5.271 1.387v9.841l-3.394 5.038v27.81zm3.1 13.42c-3.409-1.41-7.302-2.186-11.22-2.186-4.472 0-8.864 1.011-12.647 2.821l3.848-13.413-.08-27.478a.976.976 0 0 0-.07-.196l-3.714-4.457v-9.214l4.649-1.975v5.521c0 .253.189.382.425.287l3.875-1.543c.08-.031.194-.2.194-.287v-5.764l2.812-1.23 2.766.797v5.817c0 .11.125.273.232.3l3.875.998c.218.056.388-.076.388-.299v-5.594l4.65 1.223v9.51l-3.34 4.956a1.03 1.03 0 0 0-.054.175v27.81l3.411 13.42zm1.215.455c.075.31-.756.02-1.046-.108a28.263 28.263 0 0 0-11.39-2.38c-4.618 0-8.98 1.105-12.832 3.063-.3.152-1.149.43-1.06.106l4.483-14.038-.087-27.239-3.714-4.458a.929.929 0 0 1-.071-.198v-9.532c0-.083.11-.251.186-.284l5.27-2.239c.239-.101.432.027.432.285v5.53l3.254-1.294v-5.756c0-.08.112-.251.187-.283l3.1-1.355a.853.853 0 0 1 .21-.015l3.097.891c.102.03.225.191.225.297v5.812l3.253.838v-5.593c0-.227.172-.357.39-.301l5.27 1.387c.108.027.23.19.23.299v9.842a.92.92 0 0 1-.051.172l-3.341 4.96v27.677l4.005 13.914zm-13.148-43.577l8.364 1.891m-8.364-1.89l-8.475 2.868" fill="none" stroke="#000"/><path d="M369.418 268.702c-.283-2.57-1.282-6.729-4.716-6.2.175 4.469 5.862 21.291-.637 22.453l-.218-.232c.085-7.639-7.55-15.975-6.063-22.627.98-4.378 4.292-6.745 8.704-6.745 8.045 0 9.159 9.999 3.279 13.503l-.349-.152z" stroke="#000"/><path d="M369.854 267.53c-.654-2.87-2.232-6.61-5.845-5.971l-.237.311c.166 4.805 6.19 19.418.457 22-.154-8.368-7.695-13.798-5.76-21.642.538-2.173 2.706-4.875 4.816-5.668.99-.374 2.117-.684 3.189-.663 7.258.15 9.141 7.672 3.38 11.634z" fill="#fff" stroke="#000"/><path d="M359.574 264.713c.62-1.698 2.653-3.42 4.466-3.635.377-.046.68.292.829.711l-.173-.004c-.208 0-.411.027-.615.075.01.31.036.633.074.966-.85.053-2.325.395-3.83 2.238-.695.855-1.065.504-.751-.35z"/><path d="M359.997 265.232l4.249-1.736m-3.927 3.268l4.201-1.813m-3.863 3.433l4.2-1.98m-3.392 3.523l3.785-1.955m-2.516 3.385l2.948-1.676m-.822 2.7l1.29-.717" stroke="#000" stroke-width="1.09"/><path d="M369.137 259.592c-2.228-3.283-7.832-1.437-9.277.644-.103.151-.473-.075-.68-.159a.475.475 0 0 1-.078-.038c.388-.645.872-1.297 1.425-1.884 2.714-1.734 7.436-2.083 9.337.982a.412.412 0 0 1-.135.586.427.427 0 0 1-.592-.13z"/></g><g stroke="#000"><path d="M446.259 240.532c3.264 2.153 14.81 8.644 16.519 45.635 3.33 72.097-58.017 114.162-58.017 114.162s77.622-33.05 77.622-114.226h0c0-34.173-13.567-71.19-40.476-71.19l-14.791.046-21.485 10.05c-1.125-1.569-3.271-2.59-5.35-2.59-2.076 0-4.225 1.021-5.35 2.59l-21.484-10.05-15.255-.047c-26.911 0-40.478 37.018-40.478 71.191h0c0 81.176 77.621 114.226 77.621 114.226s-61.347-42.066-58.016-114.162c1.709-36.991 13.255-43.482 16.519-45.635l18.13 6.048 22.915-13.412c1.495 1.599 3.04 2.735 5.4 2.733 2.36 0 3.682-.929 5.397-2.733l22.76 13.567z"/><path d="M431.453 214.144l-31.172 13.544-31.17-13.544-10.92.768c-26.91 0-40.477 37.018-40.477 71.191v0c0 81.175 77.62 114.226 77.62 114.226s-62.12-42.066-58.792-114.162c1.709-36.991 13.567-44.412 16.83-46.565l19.976 5.559 26.933-15.921 26.932 15.92 19.511-5.558c3.264 2.153 15.122 9.574 16.831 46.565 3.33 72.097-58.794 114.162-58.794 114.162s77.622-33.05 77.622-114.226h0c0-34.173-13.567-71.191-40.476-71.191z" fill="#d99f31"/><path d="M437.336 228.911c-3.716.438-6.318 2.93-6.45 6.735-.072 2.04.9 5.067 2.302 6.348l-.837.915c-1.655-1.514-2.868-4.887-2.782-7.31.15-4.267 3.146-7.24 7.616-7.764zm-74.51-1.076c4.47.523 7.467 3.497 7.616 7.763.085 2.424-1.128 5.797-2.782 7.311l-.837-.915c1.401-1.281 2.373-4.309 2.302-6.348-.133-3.805-2.734-6.297-6.451-6.735zm-8.735 7.447c-5.398 3.486-10.292 10.097-13.034 16.925-.152.358-.385.464-.621.378-.212-.076-.301-.382-.204-.683 2.586-7.178 7.435-13.664 13.534-18.186l.325 1.566zm7.2-12.852c-13.214 0-23.02 9.304-29.64 26.468-.15.32-.454.565-.783.449-.26-.094-.29-.466-.172-.802 6.622-17.49 16.726-27.2 30.595-27.2 6.037 0 11.227 1.487 15.67 4.752l.243 1.61c-4.459-3.628-9.737-5.277-15.913-5.277zm0 3.564c-11.53 0-20.518 9.719-26.182 24.018-.162.343-.395.524-.71.395-.246-.1-.272-.467-.148-.77 5.378-14.462 14.815-24.727 27.04-24.727 6.132 0 11.387 1.942 15.811 6.198l-.207 1.38c-4.334-4.454-9.53-6.494-15.604-6.494zm13.22 12.591c-2.302-6.87-6.057-9.514-13.379-9.514-9.654 0-17.603 8.772-22.856 22.038-.128.303-.353.481-.641.384-.25-.085-.289-.428-.177-.737 5.114-13.48 13.317-23.08 23.674-23.08 7.686 0 11.79 3.16 14.015 9.848l-.637 1.061zm51.046.093l-.67-.957c2.2-6.8 6.29-10.022 14-10.046 12.427.058 21.967 14.06 26.928 32.333.1.36.033.748-.289.812-.315.06-.567-.179-.658-.52-4.973-18.034-14.437-31.17-25.904-31.23-7.38.022-11.117 2.691-13.41 9.608zm43.388 21.765c.104.411.066.758-.297.847-.294.075-.562-.148-.66-.585-4.77-20.384-14.975-34.364-29.18-34.364-6.111 0-11.324 1.522-15.64 5.964l-.198-1.43c4.428-4.272 9.694-5.694 15.838-5.694 15.123 0 25.642 14.935 30.137 35.262zm3.827.535c.075.386-.055.749-.387.803-.317.052-.574-.22-.649-.592-4.693-22.305-15.788-38.723-33.15-38.723-6.105 0-11.33 2.098-15.726 5.755l.166-1.607c4.422-3.405 9.577-5.311 15.56-5.311 18.292 0 29.686 17.306 34.183 39.672zm-31.65-28.224c9.511 1.162 18.057 12.304 21.672 26.985.085.374 0 .744-.32.829-.31.085-.583-.115-.716-.594-4.113-15.828-12.263-24.675-20.761-25.757l.124-1.463z" stroke="none"/><path d="M419.351 240.512c-.732-.866-2.93-3.989-2.93-10.27m-.293 8.365c-.684-.916-2.325-3.61-2.325-8.365m-.86 6.482c-.582-.892-1.76-3.114-1.76-6.482m-1.35 4.644c-.4-.797-1.117-2.524-1.117-4.644m-27.504 10.27c.732-.866 2.93-3.989 2.93-10.27m.293 8.365c.684-.916 2.325-3.61 2.325-8.365m.865 6.48c.58-.894 1.755-3.115 1.755-6.48m1.35 4.645c.4-.798 1.117-2.525 1.117-4.645" fill="none"/><path d="M400.282 223.041a6.199 6.199 0 1 0 0 12.398 6.199 6.199 0 1 0 0-12.398z" fill="#d99f31" stroke="none"/><path d="M394.135 227.779c.66-2.803 3.141-4.89 6.146-4.89a6.354 6.354 0 0 1 5.847 3.868m.33 4.062a6.38 6.38 0 0 1-6.177 4.77 6.353 6.353 0 0 1-5.928-4.072m7.562 1.628a4.235 4.235 0 0 1-5.864-3.744m7.874 1.995a4.239 4.239 0 0 1-2.01 1.749m-1.192-1.899a2.057 2.057 0 0 1-2.487-1.798m-2.112-1.24c.125-.555.368-.89.47-1.045" fill="none"/><path d="M394.135 227.779c0-2.917 2.558-5.359 6.146-5.359 2.738 0 5.847 1.925 5.847 4.337m.33 4.062c0 2.695-3.214 5.079-6.177 5.079-2.703 0-5.928-1.965-5.928-4.381" fill="none"/><path d="M423.345 242.22c3.266 4.331 8.31 7.071 13.965 7.071 7.398 0 13.03-4.597 13.03-11.945-.168-3.893-2.797-8.702-9.016-8.702-4.04 0-7.47 3.896-7.47 7.936 0 2.234.428 3.584 1.8 5.264-5.536-1.78-9.199-4.73-9.199-11.011 0-6.44 4.271-11.055 11.269-11.636 23.385-1.943 37.675 24.015 40.428 59.894 3.924 51.177-23.678 91.974-65.637 115.27-5.857 3.252-10.45 5.852-12.44 6.693l-.026 6.366c15.975-6.107 34.496-17.892 46.046-28.442 21.993-20.09 42.974-54.078 39.79-99.852-2.01-28.906-11.012-48.293-22.062-57.87-18.892-16.381-44.651-9.839-44.651 9.577 0 4.24 1.667 8.225 4.173 11.387zm-46.592 0c-3.266 4.331-8.31 7.071-13.967 7.071-7.396 0-13.028-4.597-13.028-11.945.169-3.893 2.797-8.702 9.016-8.702 4.04 0 7.47 3.896 7.47 7.936 0 2.234-.427 3.584-1.8 5.264 5.535-1.78 9.199-4.73 9.199-11.011 0-6.44-4.271-11.055-11.269-11.636-23.385-1.943-37.674 24.015-40.428 59.894-3.924 51.177 23.678 91.974 65.637 115.27 5.857 3.252 10.45 5.852 12.44 6.693l.026 6.366c-15.975-6.107-34.496-17.892-46.046-28.442-21.993-20.09-42.974-54.078-39.79-99.852 2.01-28.906 11.012-48.293 22.062-57.87 18.892-16.381 44.651-9.839 44.651 9.577 0 4.24-1.666 8.225-4.173 11.387z"/><path d="M400.048 406.956c-15.975-6.107-34.496-18.669-46.047-29.218-21.992-20.09-41.578-53.303-38.395-99.078 2.012-28.905 10.55-47.207 21.598-56.785 18.893-16.378 43.258-8.922 43.258 8.96 0 9.839-7.986 17.837-17.831 17.837-5.961 0-12.255-4.836-11.632-12.1a7.317 7.317 0 0 1 14.625.32c0 2.233-1.463 4.386-3.039 5.73 6.223-.223 11.677-5.507 11.677-11.788 0-6.44-4.891-11.829-11.889-12.41-23.385-1.943-38.497 24.632-41.047 60.668-3.624 51.205 24.297 92.596 66.256 115.89 5.883 3.266 10.493 5.255 12.466 6.084 1.974-.829 6.582-2.818 12.466-6.084 41.959-23.294 69.88-64.685 66.255-115.89-2.55-36.036-17.661-62.611-41.046-60.668-6.999.581-11.887 5.97-11.887 12.41 0 6.281 5.452 11.566 11.677 11.788-1.576-1.344-3.042-3.497-3.042-5.73a7.316 7.316 0 0 1 7.317-7.316 7.319 7.319 0 0 1 7.311 6.995c.622 7.265-5.673 12.101-11.634 12.101-9.845 0-17.83-7.999-17.83-17.838 0-17.881 24.365-25.337 43.257-8.96 11.05 9.58 19.588 27.882 21.597 56.786 3.184 45.775-16.403 78.987-38.395 99.078-11.55 10.55-30.071 23.111-46.046 29.218z" fill="#f1bf31"/></g></g><g stroke="#000" stroke-linecap="round" stroke-linejoin="round" stroke-width=".933"><path d="M241.954 286.214s-2.627-1.06-3.79-1.642c-2.02-1.01-6.573-6.613-11.66-9.564-7.806-4.53-15.363-3.362-22.266-6.327 1.547 7.229 6.417 13.758 14.481 17.216 6.625 2.842 17.313.4 18.476.496 1.163.098 4.855 1.523 4.855 1.523l-.096-1.702zm-28.176 9.021l.07-.211c4.27-.581 8.27-1.55 12.425-2.603 9.204-2.332 13.516-.438 20.974 4.667.467.32 1.02.765 1.555.966 1.209.457 1.985.138 3.153.138l.106.022 1.749 1.367c.133.104.053.195-.073.222-1.523.314-3.603.31-5.197.165-2.405-.22-7.356 5.481-14.402 5.481-8.928 0-14.795-3.952-20.36-10.214z" stroke-width=".746"/><path d="M253.042 299.453c-1.393.05-2.879.05-4.254.28-4.106.692-8.17 5.165-14.415 5.344-8.308.24-13.554-3.674-19.233-9.259 8.262-1.242 14.649-6.012 23.174-3.33 4.37 1.375 9.507 6.88 13.61 6.091l1.118.874z" fill="#658d5c" stroke-width=".746"/><path d="M247.902 298.357s-7.288 1.197-11.828 1.21c-7.332.016-18.554-3.04-18.554-3.04s11.189 3.385 18.554 3.534c4.53.092 11.828-.96 11.828-.96z" stroke-width=".36"/><path d="M227.63 210.14c.06-.23.016-.507-.128-.85-.146-.356-.371-.735-.61-1.137-.25-.42-.514-.862-.723-1.322-.211-.468-.374-.97-.407-1.493l1.133-.324c.081.634.463 1.45.895 2.091.215.319.432.582.617.747a.888.888 0 0 0 .216.158c.027.013.342.357.342.357l-.938 2.093c-.07.157-.483.01-.397-.32z" fill="none" stroke-width=".622"/><path d="M270.452 311.157c-.037-1.52.264-.954 1.902-.286.349.141.091.483-.208.67-.978.61-1.842 1.906-2.257 1.616-1.126-.788-.417-.816.563-2z" stroke-width=".622"/><path d="M231.326 203.949c-4.82 12.255-6.447 33.955-4.78 43.809 5.126 30.294 30.077 58.694 52.917 63.284 19.864 3.993 31.973 12.893 39.881 22.386 5.17 6.204 7.929 9.021 15.35 21.376 2.713 4.515-1.927 5.428-3.84 1.684-5.223-10.212-8.036-14.75-15.232-22.778-7.727-8.62-19.094-16.36-37.646-20.064-22.124-4.416-48.04-32.867-53.165-63.16-1.669-9.855-.21-33.383 4.85-45.82l1.666-.717" stroke-width=".746"/><path d="M264.232 309.867c-3.442.378-5.769 5.374-9.222 8.518-6.359 5.788-16.548 6.365-23.044 2.5-.273-.163-.41-.525-.103-.596 8.077-1.832 9.131-12.855 25.969-11.77 1.973.127 2.807.531 4.788.531l1.612.817zm-12.786-51.252l.111.055c.085 4.923 3.819 11.639 4.734 17.054.79 4.664-.349 8.563-2.136 12.908-.447 1.083-1.495 3.259-1.536 4.325-.039.993.584 1.912 1.11 2.734.185.29 1.3 1.753 1.185 2.037-4.461-3.864-1.837-1.345-3.694-4.907-.957-1.837-2.098-3.505-3.047-5.355-5.008-9.769-5.1-20.851 3.273-28.85zm32.199 53.361c-2.191-.708-4.422-1.58-5.625-3.823-2.02-3.765-1.587-6.807-3.66-10.703-3.929-7.39-11.495-8.185-15.314-15.036-.774 6.304-1.62 15.722 8.194 22.458 3.455 2.37 8.724 2.915 9.993 3.867 1.271.952 2.035 2.312 2.035 2.312l4.377.925z" stroke-width=".746"/><path d="M279.395 310.824c-.72-.767-1.53-1.54-2.385-2.16-2.003-1.448-6.34-1.584-9.614-3.984-4.573-3.354-6.943-6.471-8.214-11.999-.77-3.352-.178-6.03-.02-8.818 4.12 5.983 11.275 6.546 15.104 13.703 2.327 4.35 2.018 10.963 6.787 13.608l-1.658-.35z" fill="#658d5c" stroke-width=".746"/><path d="M240.284 277.918s-.273.328-.656 1.422c-.171.491.906 1.971.819 1.458-.22-1.256.398-2.14.398-2.14z" stroke-width=".622"/><path d="M241.954 286.214s-2.627-.566-3.79-1.145c-2.02-1.012-6.492-6.877-11.66-9.812-7.408-4.208-13.86-3.329-21.15-5.46 2.069 7.778 6.022 12.431 13.365 15.728 6.576 2.952 17.313.4 18.476.495 1.163.098 4.855 1.648 4.855 1.648l-.096-1.454z" fill="#658d5c" stroke-width=".746"/><path d="M252.382 295.126c-.325-2.314-2.955-5.644-4.056-7.798-1.612-3.158-2.823-6.605-3.184-10.146-.777-7.63.973-11.746 5.995-17.4.036 1.658.259 2.24.76 3.78 2.1 6.474 5.042 11.824 4.089 18.862-.47 3.465-3.3 8.398-3.429 10.516-.066 1.096.553 2.384 1.1 3.308l-1.275-1.122z" fill="#466343" stroke-width=".746"/><path d="M233.537 274.493c-5.389-8.958-18.028-4.943-26.31-12.465-4.02-3.65-5.815-9.145-6.617-14.371-.24-1.557-.904-7.726-.542-8.923.066-.223.29-.276.464-.107 2.745 2.685 5.498 4.419 8.677 6.572 7.55 5.11 10.65 9.908 14.542 17.878 5.097 10.436 9.716 4.488 9.786 11.416z" stroke-width=".746"/><path d="M250.344 262.482s-1.71 8.961-1.452 14.725c.266 5.889 2.877 14.84 2.877 14.84h-.497s-2.707-8.946-2.874-14.84c-.167-5.79 1.946-14.725 1.946-14.725z" stroke-width=".36"/><path d="M225.571 268.81c-2.903-.921-6.228-1.48-9.762-2.332-3.312-.797-6.016-2.606-8.541-4.881-3.92-3.535-5.216-8.274-5.98-13.359a38.992 38.992 0 0 1-.354-8.497c.316.556.716 1.106 1.24 1.48 2.57 1.843 5.25 3.129 7.826 4.99 2.25 1.625 3.85 2.698 5.695 4.778a43.355 43.355 0 0 1 5.923 8.586c1.294 2.453 2.403 5.329 4.076 7.554z" fill="#658d5c" stroke-width=".746"/><path d="M225.694 267.129c.867 1.156 4.366 2.658 5.638 2.82l1.237 3.087h0c-1.817-2.127-4.213-3.343-6.999-4.227z" fill="#a48253" stroke-width=".746"/><path d="M217.568 240.298a3.534 3.534 0 1 0 0 7.068 3.534 3.534 0 1 0 0-7.068z" fill="#d99f31" stroke-width=".746"/><path d="M217.568 240.057a3.775 3.775 0 1 0 0 7.55 3.775 3.775 0 1 0 0-7.55z" fill="none" stroke-width=".995"/><path d="M228.01 242.264s1.65-6.14 3.203-9.941c3.672-8.997 10.04-9.335 13.286-16.46 1.859 4.81 3.343 10.995.096 17.931-3.747 8.013-13.335 12.715-13.335 12.715l-3.25-4.245z" stroke-width=".746"/><path d="M244.47 217.478c4.785 13.065-1.533 22.471-13.136 28.958l-3.056-4.224c1.994-8.39 3.426-12.522 9.836-18.483 2.535-2.357 4.756-3.123 6.356-6.25z" fill="#466343" stroke-width=".746"/><path d="M230.97 204.533c-4.777 12.556-6.19 33.552-4.545 43.267 5.14 30.366 30.022 58.871 52.988 63.486 19.805 3.98 31.645 12.9 39.8 22.116a100.115 100.115 0 0 1 9.412 12.473c2.176 3.407 4.04 7.125 5.87 10.066.295.475-2.176 1.497-2.437 1.075-1.935-3.128-3.714-7.072-5.943-10.685-2.537-4.11-6.893-8.314-10.682-12.787-8.063-9.52-18.8-16.674-37.409-20.388-22-4.392-47.61-32.495-52.722-62.712-1.66-9.816-.437-32.6 3.937-44.627l1.73-1.284z" fill="#a48253" stroke-width=".746"/><path d="M228.575 263.946c-.987-.946-2.407-1.848-3.355-2.833-8.822-9.156-6.505-25.15 3.17-32.961.33-.265.579-.14.625.249.389 3.222.89 6.255 2.183 9.805 2.952 8.107 3.433 12.757.75 19.66-1.636 4.207.005 7.918.005 7.918l-3.378-1.838z" stroke-width=".746"/><path d="M259.683 303.37c-5.644-1.93-11.474-1.413-16.168-6.284-5.417-5.62-6.59-14.312-5.174-19.332.07-.244.259-.443.411-.255 1.203 1.473 1.84 2.533 3.422 3.698 5.654 4.172 12.596 6.261 14.993 12.633.478 1.268.636 2.596 1.082 3.874 1.527 4.377 4.032 5.7 7.66 8.089l-6.226-2.423z" stroke-width=".498"/><path d="M264.094 305.693c-5.281-4.478-14.798-2.87-20.465-8.945-4.161-4.46-5.915-11.493-4.883-17.592 5.03 4.481 10.878 5.712 15.452 10.744 5.384 5.923.8 9.898 10.935 15.662l-1.04.13z" fill="#658d5c" stroke-width=".746"/><path d="M235.892 273.555l.015-.137c1.313-1.564.402-6.26-.028-8.141-.742-3.245-.834-6.033-.294-9.337.623-3.816 2.712-7.26 4.854-10.42.955-1.406 4.056-5.805 4.378-7.398.026-.136.171-.126.231.004 1.182 2.58 1.8 5.718 2.278 8.506.666 3.903.875 7.45-.48 11.89-1.213 3.973-2.843 6.544-5.34 9.217-1.056 1.13-3.54 3.619-3.905 4.964-.066.246-.488 2.037-.395 3.347l-1.314-2.495z" stroke-width=".746"/><path d="M227.151 222.2s.168.025.876-.45c.707-.473 1.564-1.289 1.928-2.307.363-1.017 2.914-9.49 6.32-14.734 3.977-6.127 8.108-8.875 13.118-13.371.787 4.855.902 12.768-3.203 19.118-3.759 5.814-13.29 9.955-14.394 10.387-1.105.432-3 .751-4.087 2.196-.616.815-1.04 2.405-1.04 2.405l.482-3.244z" stroke-width=".758"/><path d="M225.954 223.01s-.414-.02-.95-.774c-.532-.757-1.068-1.922-1.068-3.12 0-2.533 2.402-10.114 1.21-15.853-2.274-10.953-5.715-15.345-6.245-19.41-.211-1.62-9.156 11.065-6.437 22.837 1.349 5.834 8.13 12.355 9.081 13.212.952.857 2.251 1.968 2.872 3.68.64 1.767.504 3.776.504 3.776l1.033-4.348zm5.249-18.84c.643-1.569 1.706-3.427 2.69-4.25 2.418-2.02 9.192-7.05 11.506-10.718 5.15-8.166 4.11-18.223 3.573-19.975-4.467 3.884-8.543 6.445-13.096 12.874-3.975 5.61-4.844 16.584-5.15 18.664-.335 2.27-1.343 4.724-1.343 4.724l1.82-1.32z" stroke-width=".746"/><path d="M227.198 223.976l.18-1.578c1.225-.469 2.316-1.69 2.81-2.872 2.135-5.108 3.436-10.3 6.434-15.017 3.892-6.123 8.06-8.505 12.268-11.869.196 5.412 1.15 11.112-3.16 18.204-2.448 4.026-9.584 8.016-14.025 9.768-1.987.785-3.408 1.422-4.507 3.364z" fill="#658d5c" stroke-width=".758"/><path d="M208.892 213.186c6.809 5.67 8.75 8.322 10.753 17.094.235 1.027 1.539 5.467 1.815 6.015.656 1.305 2.013 1.923 2.848 2.994.091.118.318 2.429.353 2.733.021.184-.12.179-.225.085-1.06-.969-1.616-2.486-2.852-3.393-1.063-.78-4.654-1.546-6.204-2.186-3.957-1.632-7.184-4.687-9.476-8.265-3.025-4.722-3.367-11.152-2.64-16.564.168-1.243.336-2.739.776-3.917.062-.162.158-.125.24.005 1.614 2.513 2.65 3.764 4.612 5.399z" stroke-width=".746"/><path d="M223.994 239.511l.188 1.605c-3.233-4.374-4.314-3.081-8.783-4.932-3.89-1.609-7.047-4.61-9.308-8.126-3.375-5.249-3.312-13.015-1.887-18.934 1.812 3.573 8.903 7.156 11.624 11.616 1.75 2.868 2.837 6.277 3.706 9.508.433 1.616.923 4.873 1.591 6.209.498.999 2.007 2.332 2.869 3.054zm12.299 34.131c1.206-1.842.15-6.51-.236-8.622-.595-3.27-.638-6.093-.104-9.393.87-5.393 4.283-9.005 7.298-13.376.595-.862 1.188-1.734 1.654-2.674 3.465 9.754 4.437 19.717-3.114 27.909-1.14 1.236-3.88 3.62-4.3 5.12-.226.805-.304 1.659-.368 2.49l-.83-1.454z" fill="#658d5c" stroke-width=".746"/><path d="M265.052 308.372s-.427.68-2.432.68l.994.975c.2-.063.406-.117.617-.16 1.917-.395 2.507-.337 3.754.146" fill="#a48253" stroke-width=".746"/><path d="M262.62 309.051c-2.005 0-8.275-1.041-13.292.27-7.564 1.976-10.687 9.052-16.373 11.567 8.638 3.72 14.96 2.804 22.147-2.945 2.896-2.316 4.738-6.734 8.512-7.916z" fill="#466343" stroke-width=".746"/><path d="M272.38 311.102s-.68.396-.88.575c-.464.416-1.074.721-1.263 1.06l-.737-.068c.458-.382.943-1.035 1.204-1.352.153-.184.003-.885.003-.885l1.673.67z" fill="#a48253" stroke-width=".622"/><path d="M230.046 204.46c1.358-3.844 1.327-8.12 2.087-12.111 1.601-8.414 3.991-11.149 10.07-16.777 1.936-1.792 3.92-3.096 6.025-4.688.341 2.42.5 4.452.254 6.882-1.195 11.888-6.258 14.694-14.748 21.965-1.646 1.408-2.07 3.381-3.688 4.728z" fill="#658d5c" stroke="none"/><path d="M230.369 203.454c.221-.323.434-.51.549-.456.091.043.104.231.049.494a6.07 6.07 0 0 1-.92.968c.117-.332.224-.667.322-1.006z" fill="#a48253" stroke="none"/><path d="M230.046 204.46c1.358-3.844 1.327-8.12 2.087-12.111 1.601-8.414 3.991-11.149 10.07-16.777 1.936-1.792 3.92-3.096 6.025-4.688.341 2.42.5 4.452.254 6.882-1.195 11.888-6.258 14.694-14.748 21.965-1.646 1.408-2.07 3.381-3.688 4.728z" fill="none" stroke-width=".746"/><path d="M230.58 204.893s.305-.932.765-2.121c.46-1.19.342.318.342.318l-.27 1.296-.838.507z" stroke="none"/><path d="M225.645 223.168l-.621 1.995c-.35-2.596-1.442-3.752-3.312-5.445-8.145-7.368-11.625-16.04-8.208-26.18 1.196-3.544 2.348-5.5 4.867-8.264 1.591 2.726 2.362 4.357 3.465 7.316 2.794 7.507 3.909 11.752 2.8 20.351-.391 3.038-1.848 6.737.168 9.438.221.294.488.638.84.789z" fill="#658d5c" stroke="none"/><path d="M225.645 223.168l-.621 1.995c-.35-2.596-1.442-3.752-3.312-5.445-8.145-7.368-11.625-16.04-8.208-26.18 1.196-3.544 2.348-5.5 4.867-8.264 1.591 2.726 2.362 4.357 3.465 7.316 2.794 7.507 3.909 11.752 2.8 20.351-.391 3.038-1.848 6.737.168 9.438.221.294.488.638.84.789z" fill="none" stroke-width=".746"/><path d="M225.412 227.577s.197-1.972-.11-3.17c-.15-.597-.546-1.478-.546-1.478s.98.499 1.205.455c.224-.041-.549 4.193-.549 4.193zm3.326-19.312c-.47.191-1.914-1.844-2.09-3.22-.165-1.31-.703-.763-.64.276.119 1.934 2.431 4.005 2.11 5.235.436-1.057.641-1.82.62-2.291z" fill="#a48253" stroke="none"/><path d="M228.738 208.265c-.47.191-1.914-1.844-2.09-3.22-.165-1.31-.703-.763-.64.276.119 1.934 2.183 3.653 1.863 4.88" fill="none" stroke-width=".622"/><path d="M225.154 199.277a3.533 3.533 0 1 0 0 7.065 3.533 3.533 0 1 0 0-7.065z" fill="#d99f31" stroke="none"/><path d="M225.365 202.47c-.957-.67-1.377-1.724-.937-2.353.44-.628 1.573-.595 2.531.076.958.671 1.377 1.724.937 2.352-.44.63-1.573.595-2.531-.075z" fill="#f1bf31" stroke="none"/><path d="M243.17 271.878a3.658 3.658 0 1 0 0 7.315 3.658 3.658 0 1 0 0-7.315z" fill="#d99f31" stroke="none"/><path d="M243.17 271.691a3.844 3.844 0 1 0 0 7.688 3.844 3.844 0 1 0 0-7.688z" fill="none" stroke-width="1.12"/><path d="M334.24 357.85c-1.986.505-3.546-2.16-3.03-2.748.474-.542 1.48-.57 2.45-.099 1.734.848 1.634 2.58.58 2.847z" fill="#a48253" stroke="none"/><path d="M334.24 357.85c-1.986.505-3.546-2.16-3.03-2.748.474-.542 1.48-.57 2.45-.099 1.734.848 1.634 2.58.58 2.847z" fill="none" stroke-width=".746"/><path d="M229.95 204.942c2.515-7.327 3.917-12.478 8.081-19.636 2.832-4.867 8.387-11.755 8.387-11.755s-5.231 7.067-7.945 11.968c-3.836 6.928-4.696 9.91-7.757 18.766l-.766.657zm-11.91-16.285s-.92 11.51.527 18.635c1.301 6.402 5.819 15.706 5.819 15.706s.253.187-1.055-3.261c-1.344-3.542-3.056-7.459-4.144-12.465-1.545-7.107-1.148-18.615-1.148-18.615zm-10.76 29.903s1.522 3.984 2.828 6.365c3.585 6.537 6.66 9.958 12.778 14.218l.18-.55c-5.899-4.187-8.672-7.531-12.463-13.668-1.47-2.382-3.324-6.364-3.324-6.364zm21.905 2.674s7.325-6.763 11.07-12.052c3.31-4.677 7.283-12.968 7.283-12.968s-3.628 8.393-6.84 13.099c-3.608 5.283-10.522 11.921-10.522 11.921h-.991zm7.178 53.001c1.394-3.357 3.49-7.98 5.055-13.305 1.963-6.682 3.129-9.938 3.354-17.542-.113 7.592-.923 10.217-2.53 16.542-1.369 5.384-3.243 10.109-4.636 13.464l-1.243.841zm-4.171-33.701s5.518-4.825 7.983-9.143c3.249-5.693 3.795-10.263 3.795-10.263s-.052 4.595-3.3 10.287c-2.465 4.32-8.259 9.83-8.259 9.83l-.219-.71zm-6.288 27.374s-4.76-3.016-7.37-5.215c-10.126-8.53-16.47-20.026-16.47-20.026s5.798 12.139 16.098 20.522c2.737 2.228 7.742 5.339 7.742 5.339v-.62z" stroke-width=".36"/><path d="M226.56 269.13s-.911-.389-.436-1.257" fill="none" stroke-width=".746"/><path d="M262.912 303.996c-4.468-2.809-10.756-6.993-16.422-12.813-1.94-1.994-4.732-5.335-4.732-5.335s2.266 3.536 4.113 5.46c5.051 5.256 11.99 10.19 16.458 12.999l.583-.311zm15.462 5.367s-8.404-6.03-12.185-11.291c-2.057-2.86-3.055-4.628-4.447-7.866 1.671 3.244 2.804 5.003 5.068 7.866 3.786 4.788 11.564 10.547 11.564 10.547v.744zm-41.614 10.805c12.358-1.718 17.165-8.938 27.691-10.578-1.11.058-.906-.377-1.915-.164-9.282 1.958-14.958 8.98-25.776 10.742z" stroke-width=".36"/><path d="M251.84 302.11a3.658 3.658 0 1 0 0 7.315 3.658 3.658 0 1 0 0-7.315z" fill="#d99f31" stroke="none"/><path d="M251.84 301.923a3.844 3.844 0 1 0 0 7.688 3.844 3.844 0 1 0 0-7.688z" fill="none" stroke-width="1.119"/><path d="M264.638 307.465s.344.194.555.434c.213.239.291.524.145.707 0 0 .084.21.358.408.367.268.85.247 1.384.33.68.11 1.156.202 1.637.344.484.14 1.09.392 1.09.392l-2.74-1.366-2.429-1.25z" fill="#a48253" stroke="none"/><path d="M238.206 286.04s-6.821-1.79-15.537-5.042c-8.716-3.254-14.59-8.697-14.59-8.697s5.874 4.947 14.59 8.2c8.716 3.254 15.537 4.794 15.537 4.794v.744z" stroke-width=".36"/><path d="M267.75 312.074a3.906 3.906 0 1 0 0 7.81 3.906 3.906 0 1 0 0-7.81z" fill="#d99f31" stroke-width=".995"/><path d="M267.746 312.322a3.658 3.658 0 1 0 0 7.315 3.658 3.658 0 1 0 0-7.315z" fill="none" stroke-width=".746"/><path d="M231.676 266.04s.415 1.27.74 2.061c.24.587.668 1.482.668 1.482s-.894.191-.894.091-.698-3.619-.698-3.619l.184-.015z" fill="#a48253" stroke="none"/><path d="M231.205 266.78c-1.321-2.024-4.13-4.275-5.718-5.924-2.73-2.835-4.425-6.085-5.048-9.993-1.47-9.237 1.216-15.45 7.957-21.694.425 6.48 4.13 11.853 4.915 18.324 1.124 9.282-4.782 11.031-.68 20.115l-1.426-.829z" fill="#658d5c" stroke="none"/><path d="M230.31 264.936s.078.4.19.897c.263.318.5.635.704.946l1.17.68-.625-2.134-1.44-.389z" fill="#a48253" stroke="none"/><path d="M231.205 266.78c-1.321-2.024-4.13-4.275-5.718-5.924-2.73-2.835-4.425-6.085-5.048-9.993-1.47-9.237 1.216-15.45 7.957-21.694.425 6.48 4.13 11.853 4.915 18.324 1.124 9.282-4.782 11.031-.68 20.115" fill="none" stroke-width=".746"/><path d="M231.197 264.86c-2.685-4.037-3.21-6.01-4.344-10.172-2.135-7.815-2.148-17.306-.14-20.773-2.008 3.467-2.421 12.91-.48 20.78 1.094 4.435 1.963 6.749 4.452 10.833l.512-.667z" stroke-width=".36"/><path d="M230.87 266.309c-.655-.766.183-2.024.937-.914" fill="none" stroke-width=".746"/></g><g stroke="#000" stroke-linecap="round" stroke-linejoin="round" stroke-width=".933"><path d="M411.734 206.144a.505.505 0 0 1 .032-.214s.237-.347.48-.917c.245-.58.49-1.377.505-2.268l1.327.273c-1.106 3.951-1.151 5.352-1.151 5.352-.01.332-.387.383-.485.066l-.708-2.292z" stroke-width=".622"/><path d="M415.3 220.25c1.058-.695 1.413-2.489 1.48-3.65.117-2.083-1.618-3.926-1.708-5.856-.057-1.238 1.013-1.366 1.216-2.33.18-.863-3.17-3.886-2.266-6.268.646-1.703 2.003-.865 2.522-2.646.546-1.886-1.148-4.58 1.03-5.847 1.057-.616 2.61.28 3.07-1.37.47-1.68.097-5.017 2.516-5.253 3.209-.314 3.705 6.256 4.295 6.718.613.48 1.434-.4 2.308-.054 2.357.939-.167 5.287-.977 6.738 5.978.244.511 3.962-.407 5.614.254.603 1.784.827 2.035 1.746.164.605-.29 1.136-.708 1.506-1.34 1.183-3.337 1.627-4.79 2.583l-.2.143c-.05.547 1.465 2.146-.576 2.824-3.813 1.27-6.24 2.101-7.71 5.952-.395 1.033-.533 4.204-.606 3.878l-.525-4.428z" stroke-width=".746"/><path d="M415.878 223.26l-.662-2.911c.18-.097.332-.241.478-.38.776-.746 1.146-2.808 1.206-3.843.13-2.247-1.502-3.536-1.583-5.405-.041-.97 1.035-1.317 1.21-2.236.22-1.169-3.006-3.996-2.16-6.207.575-1.498 1.968-.724 2.531-2.676.49-1.7-.98-4.734.859-5.752 1.11-.613 2.707.372 3.244-1.595.407-1.487.093-4.024 2.195-4.235 2.856-.286 3.285 5.451 4.028 6.021.824.631 1.478-.188 2.27.122 1.194.466.9 2.114.631 3.064-.31 1.104-.849 2.015-1.305 3.041-.09.205-.092.397.15.489.75.284 1.391.164 1.652 1.149.354 1.337-1.7 2.799-2.156 3.859-.354.825 1.033 1.034 1.214 2.128.257 1.543-4.922 3.272-5.318 3.996-.047 1.011 1.297 2.058-.336 2.605-4.101 1.373-8.196 3.956-8.148 8.765z" fill="#658d5c" stroke-width=".746"/><path d="M415.518 220.688s5.223-9.298 6.733-15.9c1.043-4.569 1.503-11.966 1.503-11.966s-.226 7.37-1.131 11.952c-1.379 6.965-6.776 16.79-6.776 16.79l-.329-.876z" stroke-width=".36"/><path d="M415.686 229.518a.488.488 0 0 1 .065-.212s1.02-1.073 1.626-1.76a2.49 2.49 0 0 0 .472-.85c.085-.254.111-.44.111-.44.024-.164.167-.254.324-.2l1.736.572c.238.078.269.294.065.439-.011.006-1.334.943-1.812 1.515-1.057 1.26-1.334 1.735-1.76 3.035-.099.3-.428.277-.48-.037l-.347-2.062z" stroke-width=".622"/><path d="M416.278 231.54c.437-1.337.733-1.84 1.804-3.117.505-.602 1.86-1.56 1.86-1.56l-1.736-.573s-.112.82-.642 1.422a87.115 87.115 0 0 1-1.633 1.765l.347 2.062z" fill="#a48253" stroke-width=".622"/><path d="M409.355 197.88s2.181 4.347 4.058 11.031c3.87 13.8 4.372 31.72 2.704 41.575-5.126 30.294-32.53 58.62-54.652 63.037-18.554 3.702-29.498 11.61-37.275 20.188-6.047 6.988-8.384 11.154-13.867 22.325-1.688 3.438-7.212 4.113-4.837-.728 4.299-7.592 8.382-14.605 14.679-22.07 8.187-9.253 19.95-18.328 39.812-22.32 22.84-4.59 49.154-32.867 54.28-63.16 1.667-9.855 1.154-31.335-4.415-45.154l-.487-4.724" stroke-width=".746"/><path d="M397.804 192.267s-6.438-.244-3.342-5.12c-2.947-1.45-6.5-4.075-2.698-6.243-.17-.739-2.418-1.448-2.249-3.19.099-1 1.366-1.46 1.475-1.891-.418-.789-3.356-4.561-2.338-5.687 1.563-1.728 4.94.353 6.478 1.28.382-.234.949-.71 1.329-.963 2.244-1.487 2.393 2.11 3.008 3.259.282.526 2.053-.9 3.249-.268 2.068 1.093 1.155 3.763 1.674 5.565.518-.057 1.263-.479 1.78-.513 3.353-.225 1.537 5.675 1.394 7.53 5.329-.768 1.23 4.7 1.525 9.396.082 1.297-.32 4.162-1.32 3.061-3.154-3.473-11.92-2.523-9.965-6.216z" stroke-width=".677"/><path d="M397.06 211.622c-1.154-.093-3.656-.447-4.149-1.54-.779-1.735 1.247-2.33 1.148-2.462-.71-.944-3.996-1.548-4.015-2.87-.013-.929 1.539-1.593 1.264-2.439-.375-1.157-2.59-2.919-1.73-4.205 1.04-1.557 3.227.534 4.281.521.502-.006 1.212-1.118 2.173-1.135 1.416-.023 2.278 2.731 2.813 2.656.591-.08.953-.894 1.535-1.067 1.773-.534 2.28 1.383 2.697 2.632.826 2.469 1.716-.461 3.05.12 3.372 1.471 1.983 8.074 2.961 8.867.59.476 1.694.417 2.128 1.09.924 1.435-.344 4.334.367 6.93.288 1.05 3.565 4.1 3.565 4.1s.508 3.055.425 2.895c-1.477-2.84-1.797-3.515-4.44-5.534-2.54-1.94-6.4-.402-7.29-1.418-.99-1.133.154-2.167-.36-2.663-.197-.188-3.179.12-3.627.076-2.12-.213-4.064-2.141-2.797-4.554z" stroke-width=".782"/><path d="M414.811 222.558l.342 1.902c-5.436-7.777-9.873-4.688-11.039-5.951-.887-.962.244-1.655-.48-2.409-.766-.799-5.335.892-6.692-2.656-.283-.738.725-1.957.215-2.056-1.156-.227-2.714-.195-3.507-1.241-.331-.437-.616-1.035-.183-1.507.224-.244.488-.451.675-.729.707-1.05-3.589-1.86-3.602-3.423-.008-.896 1.17-1.22.737-2.323-.377-.965-1.68-2.563-1.015-3.613.808-1.272 2.618.33 3.627.446.495.056 1.335-1.11 2.153-1.133 1.3-.038 1.855 2.378 2.85 2.28.97-.096 2.071-1.604 3.133-.294.739.914.722 3.582 2.454 2.81.414-.185 1.03-.69 1.494-.489 2.772 1.2 2.064 5.654 2.754 8.024.37 1.273 1.692.992 2.166 1.78.229.381.42.824.458 1.271.034.385-.026.763-.078 1.142-.214 1.536-.07 2.917.321 4.422.308 1.199 1.995 3.421 3.217 3.747z" fill="#658d5c" stroke-width=".782"/><path d="M416.07 246.272l.273-.224c.958-.017 1.621-1.999 1.91-2.756 1.2-3.148-.957-8.37 2.677-8.353.186-1.302.453-4.5 1.636-5.353.86-.619 1.701.16 2.522-.084.608-1.226.897-3.552 2.643-3.879.553-.103 1.714.796 1.907.698.476-.239 1.041-2.734 2.438-3.111.862-.233 1.675.657 1.988.457.512-.328 1.007-.863 1.432-1.316 1.822-1.947 4.094-1.98 4.033.616-.021.925-.613 2.231-.943 3.075-.113.286 1.146.885 1.337 1.252.644 1.228-1.62 2.685-2.128 3.652.035.162 1.2.395 1.374.639 1.508 2.11-2.857 4.422-3.962 5.719-.435.51 1.06 1.645.852 2.528-.835 3.543-6.292 2.239-7.5 2.789-.42.193-.548 2.09-.903 2.571-1.536 2.077-7.62-.46-9.003.84-1.259 1.187-1.677 3.208-2.478 4.65-.173.314-.507.218-.479-.11l.374-4.3z" stroke-width=".746"/><path d="M416.43 246.424c1.127-.055 1.83-2.106 2.17-2.999.443-1.163.641-2.322.686-3.56.068-1.8-1.22-4.965 1.576-4.536 0 0 .59-4.22 1.798-5.194.789-.633 2.195-.274 2.536-.525.806-.595.493-3.168 2.232-3.497.673-.128 1.88.538 2.394.283.643-.32.873-2.25 2.104-2.58.77-.204 1.79.626 2.29.312 1.06-.66 1.867-2.754 3.366-2.333 1.691.473 1.095 3.04.665 4.092-.308.753.548 1.026.852 1.578.568 1.038-1.32 2.688-1.557 3.603-.09.34.743.756.952.98 1.258 1.342-1.982 3.718-2.852 4.46-.26.221-.822.663-.853 1.017-.067.754.745 1.303.536 2.222-.711 3.12-5.053 2.2-6.759 2.77-.688.228-.788 1.625-1.213 2.208-1.365 1.874-7.349.064-8.954 1.53-.96.877-1.735 2.386-2.264 3.567l.295-3.399z" fill="#658d5c" stroke-width=".746"/><path d="M417.326 245.622c.19-.052 7.254-5.676 11.222-9.986 3.25-3.53 7.566-9.697 7.566-9.697s-4.265 6.289-7.441 9.945c-4.017 4.622-11.156 10.801-11.345 10.855-.19.053-.191-1.064 0-1.117z" stroke-width=".36"/><path d="M418.955 227.555c-1.662-.966-1.415-6.139 1.017-8.486 2.045-1.975 7.765 3.84 5.99 6.245-.982 1.331-5.255 3.26-7.007 2.241z" stroke-width=".746"/><path d="M425.999 224.423c-1.028.846-3.417-.259-4.63-1.471-1.11-1.113-1.785-2.816-1.12-3.601 1.31-1.555 4.96-3.787 6.715-2.316 1.746 1.464-.033 6.623-.965 7.388z" stroke-width=".746"/><path d="M425.662 225.093c-.933 1.264-5.01 2.894-6.52 2.016-1.313-.764-1.298-5.47 1.087-7.773 1.505-1.452 7.114 3.481 5.433 5.757z" fill="#a48253" stroke-width=".746"/><path d="M426.598 217.445c1.456 1.221.047 5.963-.839 6.69-.752.62-2.89-.207-4.129-1.446-1.126-1.128-1.662-2.704-1.225-3.222 1.347-1.597 4.739-3.243 6.193-2.022z" fill="#d99f31" stroke-width=".872"/><path d="M395 229.437c-.465-1.434-2.675-2.422-2.907-4.148-.105-.784.754-2.118.682-2.35-.38-1.246-2.46-2.852-1.395-4.402 1.374-2 3.33.065 4.96.538.266-.101.356-.997.992-1.166 2.493-.663 4.664 3.387 5.32 3.633 1.932.733 3.45-2.688 4.5 4.787.827-.198 1.951-.402 2.45.448 2.056 3.523.856 11.115 4.965 13.154l.133.27c-.056.298-.19 2.542-.792 1.81-1.039-1.259-1.856-3.05-3.665-3.367-1.908-.334-10.242 2.681-10.466-1.104-.027-.447.578-1.06.378-1.494-.476-1.043-5.482-.678-6.008-3.476-.205-1.098.567-2.098.853-3.133z" stroke-width=".69"/><path d="M414.062 241.549c-3.064-4.756-4.435-2.962-9.089-2.611-1.061.079-4.641.229-4.578-1.564.019-.51.406-.644.088-1.259-.676-1.315-4.87-1.075-5.502-3.51-.326-1.262.366-2.961.19-3.437-.585-1.582-3.19-3.062-2.415-5.135.103-.276.255-.53.305-.826.156-.915-1.714-3.011-.882-4.362.967-1.57 2.656-.33 3.942.252.92.418.687-.396 1.296-.597 1.062-.353 2.387.663 3.098 1.343.398.384 1.659 1.888 1.98 2.037.75.349 2.026-.048 2.897.258.782.276 1.312 3.559 1.43 4.396l.151.105c.712-.154 1.762-.148 2.19.547 1.942 3.169.988 10.735 5.156 13.032l-.257 1.33z" fill="#658d5c" stroke-width=".69"/><path d="M413.822 241.33s-5.534-9.154-10.312-13.942c-3.047-3.053-8.513-7.063-8.513-7.063s5.517 4.184 8.513 7.408c4.36 4.689 9.196 13.597 9.196 13.597h1.116z" stroke-width=".36"/><path d="M407.907 255.426c.247.117.774.026 1.103.114 2.439.666-1.051 7.738-1.25 9.29-.05.414.215 1.751.189 1.84l-.532 3.01c-.095.313.058-2.994-.422-3.818-.85-1.462-3.531-.673-4.908-.886-2.277-.35-.5-2.297-1.489-2.692-1.633-.653-5.04.28-5.445-2.151-.151-.907.447-1.877.386-2.653-1.171-1.355-4.178-1.658-3.83-4.038.12-.825 1.323-1.701 1.29-2.236-.041-.647-2.52-2.465-1.929-3.788.363-.81 1.062-.812 1.128-1.284.07-.489-2.01-3.61-.26-4.454 2.097-1.012 3.83 1.355 5.342 1.465.765.057 1.442-1.196 2.599-.938 1.221.272 1.357 1.908 1.914 2.817.54.02 1.07-.558 1.669-.62 2.558-.267 2.162 3.83 2.82 5.24.08.172.85-.293 1.166-.168.535.207.733.803.81 1.325.226 1.535-.594 3.176-.35 4.625zm16.208 6.139c.48 4.83-6.068.073-9.669 1.992-1.074.57-3.587 2.495-3.405 2.033l.907-2.283c.299-.253 1.264-.256 1.603-.41.78-.356 1.849-1.591 2.565-2.932.992-1.858.315-3.96.918-5.325.924-2.088 2.37-.168 2.992-.62 1.153-.835 1.347-5.058 4.163-5.101.742-.012.727.131 1.24.379.586-.854.776-1.904 1.914-2.259.822-.257 1.383.475 2.143.468.545-.427 2.656-3.964 4.386-3.55 1.946.467.773 3.927.627 5.195.214.236.483.23.823.686 1.34 1.792-.759 3.705-1.48 5.116.19.423.731.398.85.936.48 2.188-3.676 2.457-4.105 3.042 0 .203.32.436.284.895-.211 2.68-6.42 1.964-6.756 1.738zm-42.045 15.931c.122-.916-1.793-2.304-.989-3.562.653-1.02 2.143-.492 2.742-1.017.517-1.622-.341-3.808 1.91-4.311 1.142-.254 1.77.903 2.14 1.784.14.327.646 2.349.842 2.418.422.152 1.54-.647 2.1-.568 1.525.22.322 3.073.786 3.879.325.566 1.137.12 1.656.297 1.538.529.343 3.088.343 4.181 0 .67 1.108.874 1.2 2.01.161 2.037-1.56 2.257-2.538 3.573-.136.184-.17.274-.015.462 1.686 2.055.73 3.056-1.135 4.413-2.197 1.596-5.58 2.613-4.338 6.025 0 0-1.111 2.28-1.231 1.521-.176-1.116.365-2.256.056-3.47-.33-1.295-4.29-2.999-4.448-4.395-.113-.985 1.03-1.133 1.12-2.02.103-1.008-3.436-1.938-3.022-3.936.224-1.08 1.375-1.397 1.879-2.27-.082-.848-4.028-3.863-.563-4.649.436-.1 1.13-.093 1.505-.365z" stroke-width=".746"/><path d="M385.4 298.333c.135-.984.254-2.313.003-3.278-.362-1.395-3.437-3.15-3.573-4.36-.088-.77.5-.972.623-1.935.167-1.299-3.03-2.13-2.652-3.917.23-1.094 1.598-1.617 1.468-2.59-.071-.54-1.691-1.878-1.346-3.269.281-1.124 1.5-.676 2.208-1.242.776-.618-1.522-2.504-.789-3.64.581-.9 2.171-.506 2.621-1.144.467-.66-.374-3.413 1.84-3.926 1.752-.406 2.108 3.353 2.851 3.9.703.518 1.021-.41 2.12-.261 1.084.148.249 2.794.677 3.591.463.865 1.2.178 1.949.445 1.209.432.016 2.997.016 3.889 0 .932.985.93 1.073 2.033.143 1.792-1.561 2.246-2.463 3.35-.25.304-.271.587.005.884 1.623 1.749.479 2.8-1.1 3.939-2.45 1.772-5.331 2.752-4.097 6.321l-1.434 1.21z" fill="#658d5c" stroke-width=".746"/><path d="M424.846 269.652c1.22-.314 2.894-1.503 4.072-.563 2.232 1.784-1.656 4.907-2.374 6.578-.013.61 1.242.817 1.16 2.044-.142 2.158-3.017 1.698-4.369 2.469-.107.389.495.726.495 1.11 0 3.054-4.613 1.901-6.372 2.473-.56.18.384 1.798-1.616 2.555-.864.325-2.1-.017-2.975-.172-1.061-.187-2.143-.406-3.228-.347-.446.025-.905.143-1.354.104-.192-.017-.33-.11-.257-.328l5.04-14.868c.108-.319 2.297.51 2.785.51.543 0 1.077-1.14 1.456-1.485 1.315-1.201 1.95.505 3.048.512.8.003 3.053-4.472 4.49-.592z" stroke-width=".746"/><path d="M399.864 272.075c-.04-.628-1.303 1.284-1.303 1.284s.898.885 1.51 1.41c.753.65 2.018 1.563 2.018 1.563l.121-.942s-2.234-1.561-2.346-3.315z" stroke-width=".622"/><path d="M398.522 266.014c.343.485.128 1.14-.106 1.626-.257.537-.408.858-.76 1.324-1.149 1.523-3.701 2.884-4.854 2.093-1.05-.72-3.196-7.024-1.516-8.11 1.597-1.034 5.742.95 7.236 3.067z" stroke-width=".746"/><path d="M392.456 268.823c.498-.754 1.226-1.327 1.937-1.869 1.012-.774 3.584-2.142 4.72-1.046 1.49 1.44 2.208 5.792.477 7.303-2.28 1.994-5.97-.302-7.408-2.275-.495-.679-.136-1.492.274-2.113z" stroke-width=".746"/><path d="M394.634 267.347c1.558-1.157 3.328-1.8 3.997-1.096 1.798 1.896 1.888 5.523.64 6.583-1.257 1.066-4.18.981-6.7-2.204-.533-.673.49-2.114 2.063-3.283z" fill="#a48253" stroke-width=".746"/><path d="M398.117 265.805c.842 1.548-3.75 5.867-5.283 4.844-1.063-.708-2.511-6.143-1.468-7.084 1.474-1.33 6.02.894 6.75 2.24z" fill="#d99f31" stroke-width=".872"/><path d="M409.63 285.552c2.297-.111 4.494.909 5.882.407 2.068-.744.806-2.353 1.803-2.443.996-.092 6.026.277 6.02-2.226 0-.482-.404-.67-.223-1.213.18-.543 3.965-.36 4.1-2.382.087-1.289-1.087-1.303-.906-2.084.18-.78 4.234-4.615 2.214-6.202-1.39-1.094-3.67.815-3.884.257-.28-.727-.343-1.336-1.266-1.422-1.333-.123-2.139 2-3.009 2-.872 0-1.269-.872-2.163-.792-1.17.103-1.345 1.889-2.342 1.889-.997 0-2.551-.554-2.551-.554l-5.04 14.868s.832-.078 1.365-.103z" fill="#466343" stroke-width=".746"/><path d="M412.1 279.691s4.732-1.792 7.512-3.413c2.658-1.55 6.398-4.573 6.398-4.573m-13.91 7.986s4.732-1.543 7.512-3.164c2.658-1.552 6.398-4.822 6.398-4.822" fill="none" stroke-width=".498"/><path d="M381.838 303.222s1.873-.454 2.624-.454c.75 0 1.194.364 1.194.364l.853-1.566s-2.549.302-3.304.234l-1.367 1.422z" stroke-width=".622"/><path d="M370.534 320.038c-1.488-1.816 3.45-6.524 5.286-5.192 1.316.956 2.97 5.052 1.66 6.274-1.462 1.36-5.763.362-6.946-1.082z" fill="none" stroke-width=".746"/><path d="M368.26 314.054l-.55-.037c-.963-1.202-1.313-1.25-2.725-1.635-.449-.123-.511-.596-.027-.726l1.708-.448c.27-.07.995.576 1.2.729.327.242 1.984.598 1.376 1.184l-.983.933z" stroke-width=".622"/><path d="M367.884 312.982c.697-1.05 5.028-1.299 7.553.927 1.553 1.37.304 3.304-1.17 4.551-1.458 1.236-3.666 2.256-4.573 1.463-2.573-2.25-2.65-5.678-1.81-6.94z" fill="none" stroke-width=".746"/><path d="M410.486 266.506s2.094-2.18 3.78-3.028c3.275-1.65 8.596 1.005 9.386-.489.403-.76-.206-1.317.302-1.52.507-.202 6.313.949 6.543-1.676.044-.473-.604-.712-.101-1.217.505-.505 4.17-.75 3.804-2.483-.116-.555-.914-.712-.71-1.266.203-.557 2.95-3.168 1.778-4.769-.342-.467-1.206-.376-1.142-.947.205-1.774.802-4.516-.664-4.66-1.574-.152-3.415 3.05-4.03 3.173-.762.153-1.217-.599-1.98-.355-1.265.405-1.468 2.28-1.976 2.28-.506 0-.468-.523-1.283-.506-2.486.052-2.695 4.041-3.94 5.021-.708.558-1.127-.194-1.826-.05-1.723.354-1.215 4.663-2.128 6.034-.914 1.37-2.89 2.99-3.296 3.195-.407.203-1.204.201-1.204.201l-1.313 3.062z" fill="#658d5c" stroke-width=".746"/><path d="M364.123 311.995s1.578.53 2.625.587c.704.038 1.805-.101 1.805-.101s-.433.091-.9-.24c-.153-.108-1.234-1.066-1.234-1.066l-2.296.82z" fill="#a48253" stroke-width=".622"/><path d="M368.318 313.312c1.163-1.318 4.529-1.176 6.997 1 1.225 1.081.415 2.705-1.041 3.991-1.467 1.294-3.331 2.015-3.962 1.465-2.466-2.156-2.847-5.49-1.994-6.456z" fill="#a48253" stroke-width=".746"/><path d="M370.814 319.917c-.553-.631.33-2.566 1.506-3.626 1.042-.94 2.738-1.583 3.105-1.19 1.439 1.546 2.912 4.294 1.77 5.656-1.147 1.368-5.136.583-6.381-.84z" fill="#d99f31" stroke-width=".872"/><path d="M412.678 208.363s.042-1.417 1.16-5.41a2.166 2.166 0 0 1 .722-1.081l-2.085-.286s.532.505.522 1.164c-.026 1.864-1.028 3.32-1.028 3.32l.71 2.293z" fill="#a48253" stroke-width=".622"/><path d="M410.366 204.091s-1.355-3.962-2.513-5.407c-1.225-1.533-2.106-1.855-4.332-2.566-1.968-.63-5.043-1.136-5.173-2.68-.13-1.542.05-1.25-.51-1.398-1.808-.475-4.067-1.073-3.635-2.862.432-1.79 1.098-2.07.324-2.445-1.143-.552-4.148-2.301-3.79-3.832.358-1.533 1.695-1.554 1.132-2.494-.405-.672-1.854-1.41-1.738-2.635.08-.836 1.138-1.107 1.107-1.851-.032-.746-2.872-4.051-1.201-5.432 1.523-1.257 4.213.99 4.9 1.274.69.284 1.482-1.174 2.49-.934 1.296.309 1.364 2.248 1.745 2.936.7 1.254 2.13-.377 3.25.224 1.865 1.004 1.215 4.453 1.719 5.151.501.698 1.88-.417 2.858.121 1.522.84.22 5.877.32 6.704.099.83 1.205.117 1.837.609 1.68 1.308-.366 5.28-.042 8.63.111 1.158.389 2.957.389 2.957l.863 5.93z" fill="#658d5c" stroke-width=".677"/><path d="M397.515 319.3c.529.909 1.489 1.535 1.933 2.469.629 1.312.04 2.646-1.544 2.548-.686-.042-1.317-.571-1.975-.625-.532-.041-2.053 1.993-3.528 1.927-2.01-.088-2.968-2.541-4.194-3.795-.977-.206-1.694 1.232-2.78 1.036-2.228-.402-2.12-3.94-2.89-5.498-.614-.456-1.543.51-2.778-.364-1.91-1.348-.91-5.587-2.959-6.773-1.804-1.045-5.619-.353-5.287-.527l2.126-1.105c.133-.07.54.125.673.152 3.485.694 8.15.122 11.722.122 1.713 0 1.437 1.384 1.713 1.667l.138.02c1.778.124 3.901-.006 5.418 1.115 1.835 1.363.098 2.58.092 2.886l.082.04.389.131 1.198.352c.928.298 1.968.71 2.59 1.5.908 1.153-.11 1.69-.139 2.723z" stroke-width=".746"/><path d="M373.753 308.954c.769.486 11.029.163 12.407.163 1.49 0 1.003 1.177 1.51 1.62.619.281 7.665.047 6.06 2.71-.184.306-.425.582-.58.902l.035.296c.72.596 3.218.643 4.306 2.044.648.838-1.07 2.181-.334 2.711 1.412 1.015 4.57 5.532-1.161 4.176-1.379-.327-3.011 3.517-6.01.077-.363-.419-1.209-1.639-1.556-1.88-.838-.577-1.903.767-2.93.599-1.889-.311-2.006-3.623-2.686-5.012-.937-.654-1.72.125-2.839-.664-2.534-1.79.572-7.927-7.63-7.01l1.408-.732z" fill="#466343" stroke-width=".746"/><path d="M373.005 309.125s7.723 1.564 12.16 3.8c4.073 2.053 9.536 6.77 9.536 6.77s-5.325-5.012-9.411-7.142c-4.23-2.202-11.666-3.676-11.666-3.676l-.62.248z" stroke-width=".36"/><path d="M392.89 300.97c2.004 1.855-1.026 8.035-3.3 7.648-3.624-.617-5.615-4.71-4.932-6.455.73-1.868 6.068-3.197 8.232-1.193z" stroke-width=".746"/><path d="M389.278 307.99c-1.024-.734-.63-3.335.276-4.906.83-1.44 2.012-2.343 2.915-2.06 2.57.802 5.067 4.182 4.105 6.242-.945 2.03-6.276 1.453-7.296.724z" fill="none" stroke-width=".746"/><path d="M392.722 301.152c1.84 1.704-1.082 7.317-3.09 6.975-3.454-.589-4.698-4.145-4.279-5.61.43-1.513 5.325-3.257 7.369-1.365z" fill="#a48253" stroke-width=".746"/><path d="M404.74 305.4c-.33.434-1.02 1.243-1.742 1.237-3.074-.03-2.86-2.655-4.475-4.398-.541-.132-.941.506-2 .265-1.387-.317-1.471-3.852-3.549-4.574-1.05-.364-3.975-.38-5.6 1.146l2.907-2.262c2.81 1.102 5.34-4.877 8.558-4.083.914.225.943.822 2 .729 2.349-.208 4.737-1.75 7.564-.816 1.691.558-.506 2.824 1.632 2.565 1.375-.168 3.425-.161 3.833 1.548.225.938-.26 1.363-.156 2.043.277.216 5.439 2.011 2.707 3.393.433 1.213 2.507 2.026 1.41 3.512-1.03 1.397-3.225-.153-3.833.425-.25.241-.24.909-.461 1.185-.91 1.13-3.307-1.167-4.33-1.383-1.014 3.449-2.855 1.824-4.466-.533z" stroke-width=".746"/><path d="M393.163 297.94c2.133.6 2.191 3.891 3.42 4.199 1.23.307 1.198-.34 1.967-.163.711.163 1.43 4.31 4.867 3.882.875-.11 1.314-1.04 1.314-1.04s1.258 2.062 2.58 2.247c1.902.268 1.357-1.445 1.84-1.501.773-.09 2.194 1.55 3.615 1.55.8 0 .686-1.366 1.53-1.366.847 0 2.516.806 3.204-.184.898-1.292-1.195-2.807-1.347-3.27-.155-.46.594-.472.516-.917-.291-1.643-2.958-1.906-3.19-2.486-.23-.577.373-1.174.147-2.074-.382-1.532-2.555-1.585-3.538-1.367-2.277.507-.213-1.922-1.836-2.606-2.794-1.179-6.858 1.053-7.896.616-.698-.294-.964-.381-1.56-.485-2.517-.437-4.837 3.234-6.427 4l.794.965z" fill="#658d5c" stroke-width=".746"/><path d="M392.374 296.795s7.718-.475 12.248 1.101c3.919 1.364 9.09 5.53 9.09 5.53s-5.572-4.1-9.718-5.304c-4.46-1.294-11.893-.585-11.893-.585l.273-.742zm-6.818.541s1.476-9.824 1.349-16.138c-.077-3.795-.801-9.698-.801-9.698s1.015 6.12 1.173 10.071c.234 5.87-1.102 15.02-1.102 15.02l-.619.745z" stroke-width=".36"/><path d="M378.096 296.976c.141.42 1.57.834 1.44 2.425-.156 1.95-3.094 1.35-4.461 2.267-.517.349.612 2.023.02 2.817-1.062 1.417-4.668.572-4.93.924-.484.648 1.175 2.432-.573 3.415-2.431 1.367-7.562-.794-10.329 1.658-.163.146-1.24 1.355-1.28 1.367-1.582.417-5.778 1.282-5.288 1.076 2.462-1.04 6.42-2.053 7.194-3.745.662-1.442.161-4.165.432-5.723.402-2.329 2.113-1.392 2.676-2.131.455-.598-.392-3.844 1.448-5.373 1.293-1.073 2.68-.336 3.86-1.187 1.235-.886-.63-3.851 1.808-4.695 1.465-.507 2.988 1.13 3.32 1.058.912-.196 1.98-2.942 3.83-2.573 1.841.367 1.02 2.796.94 3.92 3.089.384 1.418 2.68-.107 4.5z" stroke-width=".746"/><path d="M353.134 312.691s6.566-2.744 7.102-4.12c.826-2.112-.075-5.31 1.075-6.074.749-.5 1.5-.25 1.991-.96.493-.71-.146-4.156 1.628-5.548 1.111-.87 2.113-.09 3.467-1.041 1.458-1.029-.384-3.568 1.845-4.403 1.313-.492 2.632 1.114 3.286.943 1.257-.327 1.921-2.829 3.765-2.562 1.483.215.758 1.725.663 3.153-.055.82 1.232.44 1.615 1.59.28.837-.864 2.636-1.63 3.305-.437.382 1.33 1.053 1.225 2.242-.155 1.71-3.453 1.829-4.218 2.103-.988.352-.097 1.83-.768 2.69-1.073 1.375-3.823.521-4.314 1.177-.448.6.549 2.144-.713 3.092-1.312.983-6.412.36-7.24.666-2.458.905-4.46 1.848-4.46 1.848l-4.32 1.9z" fill="#658d5c" stroke-width=".746"/><path d="M360.167 308.834s7.178-5.163 10.849-9.779c2.024-2.546 4.699-6.415 4.699-6.415s-2.59 4.011-4.576 6.663c-3.623 4.835-10.853 10.36-10.853 10.36l-.119-.83zm53.644-45.93c2.76-1.491 7.769-4.073 11.86-7.805 2.752-2.512 6.34-7.148 6.34-7.148s-3.563 4.875-6.34 7.52c-4.176 3.977-9.473 6.808-12.232 8.3l.372-.867z" stroke-width=".36"/><path d="M407.95 266.611l-.633 2.106c0-2.908-.114-4.294-3.559-4.11-.534.026-1.083.085-1.613 0-1.75-.274-.402-1.325-.959-2.126-.68-.977-5.289-.1-5.665-2.409-.145-.893.851-1.956.12-2.658-1.105-1.059-3.86-1.977-3.566-3.92.123-.798 1.193-1.378 1.039-2.122-.207-.992-2.187-2.716-1.703-3.806.385-.868 1.091-.588 1.158-1.408.076-.916-1.526-3.2-.098-3.895 1.883-.916 3.159.872 4.775 1.003.938.076 1.573-1.04 2.552-.822 1.266.28 1.274 2.318 2.088 2.736.299.15 1.195-.608 1.617-.657 2.268-.26 1.753 4.138 2.525 5.168.28.372.879 0 1.284.128 1.419.442-.101 5.25.484 5.893.199.22.92.097 1.235.184 1.185.333.357 3.39.162 4.142-.44 1.686-1.964 5-1.243 6.571z" fill="#466343" stroke-width=".746"/><path d="M407.862 266.272s-2.197-8.748-5.316-13.45c-2.583-3.893-8.243-8.693-8.243-8.693s5.414 4.836 7.87 8.694c3.012 4.727 5.067 13.449 5.067 13.449h.622zm4.773-45.717s-5.194-8.437-9.659-12.825c-3.644-3.585-10.386-7.994-10.386-7.994s6.425 4.536 9.89 8.132c4.235 4.395 9.164 12.687 9.164 12.687h.991z" stroke-width=".36"/><path d="M410.371 200.366c.866 2.166 2.106 5.516 2.932 8.644 3.872 14.67 4.229 31.62 2.571 41.414-5.105 30.164-32.531 58.228-54.482 62.61-18.637 3.72-29.653 11.796-37.477 20.428-3.71 4.09-6.671 8.172-8.963 12.062-2.274 3.855-3.766 7.161-5.784 10.483a.914.914 0 0 1-.113.045 3.766 3.766 0 0 1-.526.13 11.02 11.02 0 0 1-1.538.17c-.544.024-1.026 0-1.316-.07l-.07-.018c.284-.44.567-.868.844-1.324 1.925-3.172 3.598-6.265 5.798-9.94 2.194-3.66 4.79-7.524 8.321-11.516 8.14-9.202 19.71-18.103 39.483-22.077 23.018-4.626 49.302-33.17 54.45-63.586 1.675-9.905 1.639-27.009-4.655-45.541l.525-1.914z" fill="#a48253" stroke-width=".746"/><path d="M409.475 198.597c-1.908-4.865-3.252-7.54-6.016-11.974-3.57-5.73-10.822-13.505-10.822-13.505s6.862 7.807 10.237 13.481c3.571 6.003 5.207 9.697 7.257 16.375l-.656-4.377z" stroke-width=".36"/><path d="M410.587 203.267s-.292-.727-.443-1.206c-.316-.992-.57-2.61-.57-2.61s.47 1.134.784 1.88c.275.657.716 1.961.716 1.961z" fill="#a48253" stroke="none"/><path d="M411.502 253.602c-1.422-1.182-5.32-4.776-5.32-6.613 0-2.189 2.044-1.812 2.535-2.133-.088-.887-3.087-3.076-1.884-5.05.793-1.302 2.595-.937 3.262-1.468.51-1.395-1.47-5.016.118-6.98.94-1.163 1.668-.294 2.11-.4.088-.611.07-1.235.14-1.847.12-1.083.512-2.158 1.77-2.222 1.763-.092 2.96 2.17 3.8 3.413.187-.108 1.105-.237 1.3-.334 2.168-1.06 1.382 5.666 1.443 6.703.505-.017 1.53-.3 1.979-.037 2.322 1.37-2.293 8.574-2.784 10.269-.205.704 2.436.138.408 2.697-1.182 1.494-2.69 2.815-3.996 4.201l-4.88-.2z" stroke-width=".746"/><path d="M412.238 259.18c.882-2.325.569-4.59-1.184-5.86-1.877-1.358-4.38-4.585-4.377-6.454.006-2.21 2.2-.864 2.303-1.908.076-.78-2.886-3.117-1.83-4.834.688-1.117 2.52-.987 2.984-1.547.77-.932-1.141-5.065.372-6.99.832-1.058 1.477.067 2.031-.323.537-.38-.324-3.54 1.713-3.632 1.962-.087 3.405 3.203 3.72 3.102.634-.205 1.388-.867 2.102-.19.696.66.479 6.276.479 6.276s1.333-.13 1.76.133c1.774 1.091-1.412 7.466-2.309 9.214-.765 1.491 1.477 1.679.327 3.21-1.891 2.524-5.672 5.552-6.27 9.264" fill="#658d5c" stroke-width=".746"/><path d="M414.422 257.54s1.42-9.137 1.814-13.958c.322-3.953-.556-10.459-.556-10.459s.506 6.259.184 10.212c-.393 4.82-2.51 16.285-2.51 16.285l1.068-2.08z" stroke-width=".36"/><path d="M393.648 291.492c.795-2.043-1.547-8.035.22-9.084 1.01-.601 1.649.528 2.632-.44 1.257-1.243-.71-5.922 1.59-7.402 1.335-.859 2.393.379 3.679-.788.853-.777.891-3.908 3.061-4.451 1.442-.36 2.104.621 3.382.797 1.083.148 4.759-4.975 7.044-3.75 2.394 1.283.275 4-.207 5.822-.253.952 1.785.817 1.594 2.411-.174 1.457-1.84 2.917-1.841 3.53 0 .652 1.684 1.095 1.752 2.314.134 2.37-3.686 2.704-4.97 3.713-.673.528.867 2.23-.083 3.798-1.007 1.666-5.294.497-6.007.854-.58.293-.013 3.116-.736 4.117-1.174 1.629-6.772.1-8.845.44-2.775.454-3.988 1.023-5.733 3.096l3.468-4.977z" stroke-width=".746"/><path d="M390.126 294.765s2.187-1.133 2.975-2.397c.775-1.248.875-1.695.845-3.667-.018-1.198-1.061-5.32.113-5.975.965-.539 1.5.516 2.703-.62 1.466-1.385-.685-6.179 1.404-7.473 1.259-.78 2.396.6 3.851-.703.993-.888.824-3.877 2.78-4.366 1.225-.308 2.2.648 3.36.803 1.417.191 4.647-4.52 6.672-3.418.887.484 1.15 1.163.987 2.136-.176 1.05-.771 1.977-.999 3-.293 1.32 1.493 1.204 1.332 2.598-.152 1.323-1.722 2.592-1.722 3.451 0 .94 1.416 1.551 1.508 2.708.172 2.192-4.413 2.235-4.783 3.438-.367 1.191.525 2.085-.342 3.49-.937 1.515-4.163.175-5.423.69-1.052.426-.415 2.803-1.053 3.755-1.76 2.626-10.28-1.062-13.78 3.75l-.43-1.202z" fill="#658d5c" stroke-width=".746"/><path d="M390.38 295.069s9.059-7.709 14.029-13.42c3.827-4.395 8.996-11.933 8.996-11.933s-4.825 7.631-8.5 12.058c-4.49 5.407-12.793 12.692-12.793 12.692l-1.731.603z" stroke-width=".36"/><path d="M389.57 295.273l1.485-.43s-.544.64-.764.837c-.186.166-.674.622-.674.622l-.047-1.03z" fill="#a48253" stroke="none"/><path d="M389.496 307.811c-.734-.527-.545-2.936.382-4.543.84-1.455 2.143-2.16 2.683-1.908 1.984.931 4.47 4.05 3.677 5.748-.787 1.686-5.77 1.397-6.742.703z" fill="#d99f31" stroke-width=".872"/><path d="M413.315 203.669c-1.883-.65-3.17-4.133-2.387-7.222.778-3.059 8.585-1.813 7.744 1.83-.664 2.875-3.759 5.943-5.357 5.392z" stroke-width=".746"/><path d="M418.46 197.171c-.279 1.834-2.695 2.039-3.813 1.81-1.19-.238-3.434-1.502-3.171-3.02.557-3.223 3.158-5.708 4.69-5.465 1.677.265 2.74 3.722 2.293 6.675z" stroke-width=".746"/><path d="M413.478 203.076c-1.586-.246-2.827-3.52-2.067-6.506.71-2.803 7.386-1.03 6.78 1.596-.663 2.872-3.163 5.149-4.713 4.91z" fill="#a48253" stroke-width=".746"/><path d="M416.107 190.987c1.303.206 2.685 3.141 2.231 6.128-.217 1.443-2.468 1.363-3.618 1.13-1.239-.25-3.324-1.08-3.126-2.222.55-3.186 3.314-5.227 4.513-5.036z" fill="#d99f31" stroke-width=".872"/><path d="M305.814 357.363c-.616-.907.794-3.693 3.746-3.357 1.294.148.668 2.021-.938 3.143-1.127.784-2.191 1.122-2.808.214z" fill="none" stroke-width=".746"/><path d="M305.814 357.363c-.616-.907.281-2.857 3.251-2.983 1.067-.047 1.163 1.647-.443 2.769-1.127.784-2.191 1.122-2.808.214z" fill="#a48253" stroke-width=".746"/></g><path d="M321.363 341.731c6.152-.072 10.777-.657 16.038-1.695-1.241 4.218-3.723 12.243 6.195 12.243 7.217 0 14.878-4.34 22.318-.523 16.248 8.333 28.517 2.382 38.435-8.776 0 0-7.333 1.567-14.878 1.24 0 0 5.652-4.817 6.199-11.16-4.96 3.72-9.92 4.263-14.88 4.263-4.958 0-8.129-2.995-14.622-4.02.366-2.244.758-4.53 1.343-7.68.637-3.44-.311-6.233-5.316-6.821-10.891-1.279-21.44 5.004-40.713 5.306-19.405-.302-32.706-6.585-43.6-5.306-5.004.588-5.952 3.38-5.314 6.82a324.57 324.57 0 0 1 1.34 7.681c-6.491 1.025-9.663 4.02-14.619 4.02-4.964 0-9.921-.543-14.881-4.262.546 6.342 6.199 11.159 6.199 11.159-7.545.327-14.879-1.24-14.879-1.24 9.92 11.158 22.188 17.11 38.436 8.776 7.44-3.817 15.1.523 22.318.523 9.918 0 7.437-8.025 6.196-12.243 5.629 1.11 11.86 1.723 18.683 1.723v-.028z" fill="#fff"/><path d="M270.164 341.84c-.72.334-1.091-.13-.279-.544.577-.296 3.065-1.38 4.864-1.733a.124.124 0 0 1 .146.106l.065.48c.01.062-.04.128-.101.138-1.693.301-4.09 1.273-4.695 1.554zm.415 2.358c-.72.333-1.093-.13-.279-.545.575-.294 3.19-1.58 4.99-1.934.05-.01.122.03.14.078l.18.479c.029.078-.013.15-.094.166-1.694.299-4.334 1.476-4.937 1.756zm25.852 4.313c-3.091-.32-6.742-1.257-10.618-1.797-4.907-.684-9.173-.43-14.281 1.885-.281.128-.43.141-.54.145-.095.003-.24-.022-.27-.165-.023-.11.052-.212.12-.279.078-.078.195-.149.336-.222 4.754-2.43 9.728-2.867 14.72-2.187 3.869.526 7.555 1.336 10.64 1.655 1.735.18 3.717-.112 4.37-1.157.17-.273.662.317.501.573-.987 1.58-3.294 1.724-4.978 1.55zm-26.886-8.835a1.09 1.09 0 0 1-.347.084c-.078 0-.203-.02-.243-.137-.037-.108.034-.202.086-.257a.981.981 0 0 1 .28-.183c1.87-.86 2.355-1.011 5.094-1.74.23-.062.402.074.442.25a.356.356 0 0 1-.284.427c-2.138.509-3.18.84-5.028 1.556zm-.422-2.399a.862.862 0 0 1-.327.073c-.086-.003-.192-.036-.23-.139-.04-.098.007-.195.06-.257a.715.715 0 0 1 .256-.183c1.887-.832 2.641-1.102 5.27-1.6a.402.402 0 0 1 .462.236c.068.174-.018.373-.257.419-2.568.486-3.477.753-5.234 1.451zm27.314 7.205c-2.11-.217-4.511-.689-7.056-1.104a.394.394 0 0 1-.334-.464.393.393 0 0 1 .464-.332c2.528.412 4.915.882 7.01 1.1a5.005 5.005 0 0 0 2.343-.303.39.39 0 0 1 .522.228.39.39 0 0 1-.228.521c-.81.32-1.732.457-2.72.354zm-11.1 4.2c-4.211-.656-9.404.055-13.425 2.058a1.289 1.289 0 0 1-.455.13c-.098.008-.245.005-.308-.108a.203.203 0 0 1-.006-.178.408.408 0 0 1 .094-.134c.08-.083.21-.173.38-.262 5.927-2.873 10.452-2.682 13.977-2.281 3.779.427 7.094 1.247 10.71 1.52.315.023.4.305.482.55.075.225.212.64-.919.518-3.579-.38-6.855-1.24-10.53-1.813zm11.066-2.384c-4-.415-9.312-1.78-14.404-2.006-.262-.012-.428-.188-.429-.39 0-.209.169-.376.436-.364 5.11.227 10.482 1.444 14.498 1.86 1.483.154 3.105-.14 3.884-.838.234-.21.837.58.613.78-1.034.926-2.993 1.124-4.598.958zm-25.386.086c-.721.334-1.092-.13-.28-.545.658-.337 4.274-2.046 6.203-2.174a.49.49 0 0 1 .517.332c.062.208-.055.425-.341.445-1.734.115-5.407 1.621-6.1 1.942zm98.897-4.544c.72.334 1.092-.13.279-.544-.577-.296-3.063-1.38-4.863-1.733a.125.125 0 0 0-.147.106l-.065.48a.13.13 0 0 0 .1.138c1.694.301 4.09 1.273 4.696 1.554zm-.415 2.358c.72.333 1.091-.13.279-.545-.575-.294-3.191-1.58-4.99-1.934-.05-.01-.121.03-.14.078l-.18.479c-.03.078.011.15.094.166 1.693.299 4.334 1.476 4.937 1.756zm-25.852 4.313c3.09-.32 6.742-1.257 10.618-1.797 4.905-.684 9.174-.43 14.281 1.885.28.128.43.141.54.145.095.003.24-.022.27-.165.023-.11-.052-.212-.12-.279a1.386 1.386 0 0 0-.338-.222c-4.752-2.43-9.728-2.867-14.718-2.187-3.87.526-7.555 1.336-10.64 1.655-1.735.18-3.717-.112-4.37-1.157-.17-.273-.662.317-.501.573.987 1.58 3.294 1.724 4.978 1.55zm26.887-8.835c.129.05.254.082.347.084.078 0 .202-.02.242-.137.037-.108-.033-.202-.086-.257a.968.968 0 0 0-.279-.183c-1.87-.86-2.355-1.011-5.095-1.74-.232-.062-.403.074-.442.25a.356.356 0 0 0 .284.427c2.138.509 3.18.84 5.029 1.556zm.42-2.399a.86.86 0 0 0 .328.073c.087-.003.192-.036.23-.139.04-.098-.007-.195-.06-.257a.711.711 0 0 0-.256-.183c-1.887-.832-2.641-1.102-5.27-1.6a.402.402 0 0 0-.462.236c-.068.174.018.373.256.419 2.57.486 3.48.753 5.235 1.451zm-27.313 7.205c2.11-.217 4.511-.689 7.056-1.104.266-.044.364-.273.334-.464a.393.393 0 0 0-.464-.332c-2.528.412-4.915.882-7.01 1.1a5.004 5.004 0 0 1-2.343-.303.389.389 0 0 0-.521.228.39.39 0 0 0 .227.521c.81.32 1.732.457 2.72.354zm11.1 4.2c4.211-.656 9.405.055 13.425 2.058.177.088.336.118.455.13.098.008.245.005.308-.108a.204.204 0 0 0 .006-.178.426.426 0 0 0-.093-.134 1.564 1.564 0 0 0-.382-.262c-5.927-2.873-10.451-2.682-13.976-2.281-3.779.427-7.094 1.247-10.708 1.52-.316.023-.402.305-.484.55-.075.225-.212.64.919.518 3.579-.38 6.855-1.24 10.53-1.813zm-11.066-2.384c4-.415 9.312-1.78 14.403-2.006.262-.012.429-.188.43-.39 0-.209-.17-.376-.436-.364-5.108.227-10.482 1.444-14.498 1.86-1.483.154-3.105-.14-3.884-.838-.234-.21-.835.58-.612.78 1.033.926 2.993 1.124 4.597.958zm25.386.086c.721.334 1.093-.13.28-.545-.66-.337-4.275-2.046-6.205-2.174a.49.49 0 0 0-.515.332c-.062.208.055.425.34.445 1.735.115 5.408 1.621 6.1 1.942z"/><g stroke="#000" stroke-linecap="round" stroke-linejoin="round"><path d="M320.032 341.863c-8.275 0-13.684-1.265-21.077-2.602-17.212-3.115-20.954-.748-20.954 2.23 0 .955.884 1.238 1.521.95.326-.147.595-.695.595-.695-.606-.007-1.004-.248-.876-1 .368-2.174 4.838-3.164 19.714-.742 7.416 1.206 12.808 2.23 21.084 2.23l-.007-.372zm.013 0c8.276 0 13.684-1.265 21.078-2.602 17.212-3.115 20.954-.748 20.954 2.23 0 .955-.884 1.238-1.521.95-.326-.147-.595-.695-.595-.695.606-.007 1.003-.248.875-1-.367-2.174-4.837-3.164-19.713-.742-7.417 1.206-12.809 2.23-21.085 2.23l.007-.372z" stroke-width=".746"/><path d="M273.9 333.432c-2.728.437-5.23 1.369-7.786 2.372-6.966 2.736-14.959 2.317-21.15-2.086.432 3.129 1.804 5.853 3.81 8.244.49.581 1.994 2.07 1.994 2.07.25.26.206.426-.15.436-4.742.202-9.049.141-13.712-.73 11.01 12.108 22.069 15.121 37.144 7.796 7.922-3.847 14.52.497 22.432.497 8.391 0 7.601-5.493 5.754-11.7l1.007.11c1.35 3.812 3.471 13.218-6.761 12.457-7.887-.585-14.2-4.603-22.147-.813-12.235 5.837-21.077 5.754-31.723-2.145-2.171-1.61-5.669-4.505-7.16-6.713-.363-.536 0-.857.546-.69 4.041 1.255 10.16 1.259 13.275 1.177-2.522-2.537-5.359-7.244-5.236-10.621.017-.437.224-.52.595-.33 5.767 2.988 7.931 4.189 14.657 4.189 3.96 0 12.051-4.473 14.46-4.01l.15.49z" stroke-width=".8"/><path d="M366.178 333.432c2.726.437 5.228 1.369 7.786 2.372 6.966 2.736 14.96 2.317 21.15-2.086-.432 3.129-1.806 5.853-3.812 8.244-.489.581-1.991 2.07-1.991 2.07-.251.26-.207.426.149.436 4.74.202 9.049.141 13.712-.73-11.011 12.108-22.069 15.121-37.146 7.796-7.92-3.847-14.518.497-22.43.497-8.391 0-7.6-5.493-5.754-11.7l-1.005.11c-1.352 3.812-3.473 13.218 6.76 12.457 7.886-.585 14.2-4.603 22.146-.813 12.236 5.837 21.077 5.754 31.723-2.145 2.171-1.61 5.67-4.505 7.16-6.713.365-.536-.004-.857-.545-.69-4.042 1.255-10.161 1.259-13.276 1.177 2.52-2.537 5.359-7.244 5.236-10.621-.016-.437-.224-.52-.595-.33-5.767 2.988-7.931 4.189-14.657 4.189-3.962 0-12.05-4.473-14.46-4.01l-.15.49z" stroke-width=".746"/><path d="M319.578 324.12c-9.46.068-17.44-1.654-24.1-3.156-5.52-1.245-11.947-2.67-17.607-1.917-4.122.552-5.805 2.373-5.1 6.529.876 5.165 1.647 10.374 2.586 15.524.541 2.971 2.124 3.37 4.917 2.876 4.02-.71 16.917-3.594 19.814.069 2.78 3.513.071 6.046-3.799 6.11-.541.009-.367-.368-.184-.368 3.702 0 6.308-2.143 3.916-5.428-2.52-3.462-14.585-.924-19.498.224-3.125.73-5.203.327-5.778-3.508-.792-5.288-1.279-8.92-2.955-15.757-2.834-11.556 17.79-6.203 23.732-4.822 8.1 1.88 14.861 3.09 24.467 3.377 9.625-.288 16.386-1.497 24.486-3.377 5.94-1.38 26.565-6.734 23.733 4.822-1.677 6.837-2.164 10.47-2.957 15.757-.574 3.835-2.653 4.237-5.777 3.508-4.914-1.148-16.979-3.686-19.499-.224-2.392 3.285.214 5.428 3.917 5.428.183 0 .357.377-.185.369-3.868-.065-6.58-2.598-3.798-6.111 2.896-3.663 15.793-.78 19.814-.069 2.792.494 4.376.095 4.917-2.876.937-5.15 1.71-10.359 2.587-15.524.704-4.156-.979-5.977-5.104-6.529-5.659-.752-12.085.672-17.605 1.917-6.659 1.502-14.639 3.225-24.1 3.156h-.84z" stroke-width=".8"/></g><path d="M289.225 333.78c-1.296-.11-3.38-.226-3.38-.226l-.756-10.306 2.504.299.52 8.041c.255.015 1.38.09 2.128.172a61.18 61.18 0 0 1 2.228.309l.157 2.07s-2.1-.247-3.401-.358zm5.407.578l-.564-9.938 2.523.387.564 9.937zm7.616-4.615l.857.147c1.277.217 1.375-.223 1.367-.76-.013-.648-.314-1.046-1.605-1.267l-.656-.112.037 1.992zm.091 3.95l1.194.204c1.39.237 1.73-.02 1.716-.718-.015-.8-.497-1.28-1.999-1.535l-.954-.163.042 2.212zm1.467 2.213l-4-.683-.18-9.817 3.596.613c2.468.42 3.8 1.503 3.835 3.368.013.78-.427 1.298-.909 1.577.695.387 1.681 1.274 1.706 2.575.034 1.824-1.074 2.873-4.049 2.367zm9.418 1.347a101.604 101.604 0 0 1-3.471-.424l-.098-4.946-.097-4.965 5.698.591.018.977.02.991-3.186-.33.04 2.038 3.348.347.037 1.844-3.348-.347.039 2.096c.254.04 1.4.216 2.17.284.865.078 2.285.108 2.285.108l.038 1.97s-2.159-.108-3.493-.234zm8.31-5.071c1.33-.023 1.914-.59 1.897-1.495-.017-.951-.429-1.35-1.634-1.328l-1.116.018.049 2.819.804-.014zm5.57 5.134c-1.965-.064-3.023-1.05-4.06-2.212l-1.096-1.229c-.156.013-.324.016-.493.02l-.65.011.059 3.464-2.464.04-.171-9.909 3.825-.066c2.196-.039 3.815.947 3.855 3.151.019 1.074-.475 2.028-1.48 2.648l.952.994c.535.555 1.133.924 2.181 1.177l-.458 1.911zm.089-7.969l-.012-1.96 8.761-1.209.012 1.962-3.124.43.047 7.91-2.515.346-.046-7.91zm14.105-1.991c-.3 1.077-.619 2.148-.943 3.219.687-.07 1.408-.193 2.07-.39a116.05 116.05 0 0 1-.863-2.879l-.264.05zm2.681 7.197l-.973-2.66c-.517.19-1.073.302-1.633.386-.565.085-1.133.143-1.672.226l-1.064 3.052-2.548.476 3.08-8.5-1.078.203-.02-1.958a142.77 142.77 0 0 0 6.69-1.256l.09 1.945-1.087.204 2.838 7.39-2.623.492zm6.661-.633c-1.618.028-2.474-.25-3.21-.644l.689-1.837c.918.307 1.452.435 2.526.416 1.18-.021 1.759-.392 1.767-.928.007-.359-.267-.61-.734-.837-.467-.228-1.09-.415-1.713-.658-1.249-.487-2.533-1.203-2.503-2.912.035-1.94 2.201-2.93 3.94-2.96 1.563-.028 2.44.292 3.2.613l-.632 1.78c-.769-.209-1.541-.388-2.53-.37-.976.017-1.546.523-1.553.886-.005.28.27.505.751.732.473.223 1.108.43 1.74.696 1.27.53 2.574 1.302 2.546 2.907-.04 2.207-2.256 3.082-4.284 3.116z"/></svg>