<svg xmlns="http://www.w3.org/2000/svg" viewBox="0 0 640 480" height="16" width="22"><path d="M0 0h640v240H284.442z" fill="#ed2939"/><path d="M0 480h640V240H284.442z" fill="#002395"/><path d="M0 0l320 240L0 480z" fill="#f5f5f5"/><path d="M161.548 181.095l.098-3.715s-1.995-3.178.32-6.594c0 0-4.92-2.602-3.774-6.678 0 0-4.45-1.137-4.122-6.03 0 0-4.802-.332-5.3-4.42 0 0-4.802.79-6.915-3.193 0 0-4.684.916-6.006-2.368 0 0-4.553 1.578-7.256-2.283 0 0-4.807 1.944-6.823-1.7-1.988 3.63-6.797 1.7-6.797 1.7-2.67 3.847-7.256 2.25-7.256 2.25-1.275 3.297-5.947 2.362-5.947 2.362-2.106 3.984-6.903 3.192-6.903 3.192-.47 4.075-5.265 4.408-5.265 4.408.378 4.905-4.064 6.019-4.064 6.019 1.172 4.074-3.742 6.67-3.742 6.67 2.375 3.434.4 6.587.4 6.587l-.112 3.426 79.476.368" fill="#ff0"/><path d="M161.548 181.095l.098-3.715s-1.995-3.178.321-6.593c0 0-4.92-2.603-3.776-6.678 0 0-4.45-1.138-4.121-6.031 0 0-4.802-.333-5.299-4.42 0 0-4.803.79-6.916-3.193 0 0-4.684.916-6.006-2.368 0 0-4.553 1.578-7.255-2.283 0 0-4.809 1.943-6.825-1.7-1.988 3.63-6.797 1.7-6.797 1.7-2.67 3.847-7.254 2.25-7.254 2.25-1.277 3.296-5.948 2.362-5.948 2.362-2.106 3.984-6.902 3.19-6.902 3.19-.472 4.077-5.266 4.41-5.266 4.41.378 4.905-4.063 6.017-4.063 6.017 1.17 4.076-3.743 6.672-3.743 6.672 2.375 3.434.4 6.586.4 6.586l-.112 3.428 79.477.366z" fill="none" stroke="#000001" stroke-width=".311"/><path d="M159.7 176.453c-12.484-1.248-26.858-4.212-37.953 2.035-7.44-4.382-17.796-4.114-26.614-3.257-4.789.857-10.422.857-15.428 1.674l-.784.11c-9.081.604-17.318-2.078-25.209-5.604 2.506 14.22 5.287 28.792 6.654 43.68 2.977 22.048-10.435 40.559-4.934 62.339 3.285 10.45 14.78 16.528 25.3 17.732 10.187.6 20.727 2.27 30.155 4.316 1.792.373 3.918 1.205 5.156 1.74 2.597 1.085 4.5 2.682 6.169 4.39 5.691-5.928 14.033-7.576 22.263-8.446 14.832-1.733 33.118-.79 42.197-14.224v-.76c4.934-7.43 4.28-18.764 2.14-27.183-.144-2.937-.929-5.526-1.354-8.325-9.061-23.927-1.302-50.835 2.597-74.95-4.763 2.603-10.075 3.832-15.374 5.134-4.227.562-8.937.307-13.215.078l-1.772-.478" fill="red"/><path d="M178.335 245.123c-.058 1.575.792 2.812 1.1 4.27 1.734 10.459 3.408 24.312-7.36 30.801-11.914 7.573-27.538 4.33-41.323 8.338-2.754.766-6.548 3.298-8.485 5.09-1.243-.818-2.493-2.074-4.096-2.813-11.344-6.03-26.09-4.01-38.894-7.267-6.431-2.034-13.136-7.043-14.766-13.625-4.187-17.265 5.843-31.983 4.659-49.112-.766-13.081-2.965-25.64-5.987-37.903 10.01 4.663 21.596 5.442 32.85 3.206 8.334-1.166 18.037-1.19 25.849 2.334 4.305-1.851 9.342-2.682 13.981-3.192 8.82.857 18.299 2.452 27.38 2.388 6.066-.315 11.575-2.068 16.847-4.403-3.127 20.27-9.133 41.502-1.76 61.888" fill="#80cfe1"/><path d="M160.333 249.163l-.097-19.06h2.348l-29.14-18.819-.053-9.778h2.813l-14.57-10.431-14.498 10.426h2.807l.052 9.771-28.983 18.792 2.316.013.098 19.047 76.9.052" fill="#fff"/><path d="M160.333 249.163l-.097-19.06h2.348l-29.14-18.817-.052-9.778h2.813l-14.57-10.433-14.499 10.427h2.807l.053 9.77-28.984 18.793 2.317.012.097 19.047 76.9.054.006-.015z" fill="none" stroke="#000001" stroke-width="1.335"/><path d="M169.297 274.198l.007 5.965-93.876-.105-.04-5.94 93.916.08" fill="#fff"/><path d="M169.297 274.198l.006 5.964-93.876-.104-.04-5.94 93.917.08h-.006z" fill="none" stroke="#000001" stroke-width="1.335"/><path d="M81.662 273.844l-.079-20.185 3.8-.008-.208 20.421.228-20.257-5.475-.156v-4.331l83.9.093.039 4.29h-5.175l.097 20.44-.183-20.44h3.853l.086 20.21" fill="#fff"/><path d="M81.662 273.843l-.079-20.185 3.8-.008-.208 20.42.229-20.255-5.476-.157v-4.33l83.9.091.038 4.292h-5.175l.098 20.44-.183-20.44h3.853l.086 20.21" fill="none" stroke="#000001" stroke-width="1.335"/><path d="M99.696 268.869l-.06-14.076H88.372l.066 14.062 11.259.014" fill="none" stroke="#000001" stroke-width="1.335"/><path d="M91.442 257.726l.032 8.177h5.156l-.026-8.177h-5.162m63.324 11.186l-.064-14.062-11.228-.013.052 14.075h11.24" fill="none" stroke="#000001" stroke-width="1.335"/><path d="M146.512 257.78l.06 8.15h5.147l-.045-8.15h-5.162m8.168-11.787l-.064-14.076h-11.242l.04 14.076h11.272-.006z" fill="none" stroke="#000001" stroke-width="1.335"/><path d="M146.426 234.872l.032 8.163h5.15l-.007-8.163h-5.174M99.6 245.94l-.079-14.05-11.246-.013.053 14.056H99.6z" fill="none" stroke="#000001" stroke-width="1.335"/><path d="M91.345 234.819l.026 8.15 5.162.012-.039-8.162h-5.149m28.642 11.142l-.052-14.05-11.253-.013.046 14.062h11.26" fill="none" stroke="#000001" stroke-width="1.335"/><path d="M111.744 234.84l.026 8.15 5.155.026-.032-8.176h-5.149m23.956 11.153l-.078-14.076-11.247-.013.053 14.061 11.272.027" fill="none" stroke="#000001" stroke-width="1.335"/><path d="M127.446 234.851l.039 8.177h5.155l-.025-8.177h-5.169" fill="none" stroke="#000001" stroke-width="1.335"/><path d="M138.494 241.673l.125 32.45-32.6-.053-.118-32.422 32.587.025" fill="#fff"/><path d="M138.494 241.674l.125 32.448-32.6-.053-.118-32.421 32.587.026zm-32.79 9.262l32.823.026m-28.728 23.15l-.111-22.931m24.959 22.942l-.11-22.918m15.855-23.349l-18.358-13.403-20.628-.026-18.213 13.377 57.2.051m-37.402-24.529l.032 8.177 17.35.012-.032-8.176-17.35-.013" fill="none" stroke="#000001" stroke-width="1.335"/><path d="M117.698 205.357l.026 4.074h7.97l-.028-4.074h-7.968m3.944-11.336l9.65 6.82-19.228-.024 9.578-6.796" fill="none" stroke="#000001" stroke-width="1.335"/><path d="M160.656 189.401c2.74-.065 3.448 11.29 3.454 16.915 2.355.66 7.575 3.944 9.885 6.913l-26.484-.04c2.278-2.93 7.459-6.227 9.795-6.887 0-5.631.576-16.979 3.35-16.914" fill="#fff"/><path d="M160.656 189.4c2.74-.064 3.448 11.29 3.454 16.915 2.355.661 7.577 3.945 9.886 6.913l-26.484-.038c2.276-2.93 7.458-6.227 9.794-6.888 0-5.631.576-16.98 3.35-16.914m-53.233 53.188h2.376l-.695 1.275s1.146 1.472.02 3.159l.622 1.17h-2.29l.622-1.111s-1.172-1.956.052-3.218l-.707-1.275m4.837 0h2.375l-.688 1.275s1.146 1.433.008 3.159l.615 1.17h-2.284l.615-1.111s-1.145-1.956.059-3.218l-.7-1.275m5.288 0h2.369l-.707 1.275s1.158 1.472.019 3.159l.622 1.198-2.27-.026.609-1.113s-1.159-1.942.045-3.218l-.693-1.275zm5.954.022h2.388l-.7 1.29s1.145 1.444.007 3.138l.64 1.19h-2.303l.616-1.112s-1.146-1.968.078-3.218l-.72-1.288zm5.299 0h2.368l-.7 1.29s1.152 1.444.013 3.131l.628 1.197h-2.284l.595-1.112s-1.15-1.955.092-3.218l-.713-1.288m5.266.01l2.37-.012-.702 1.288s1.172 1.446.033 3.14l.596 1.19h-2.29l.615-1.112s-1.145-1.955.078-3.218l-.7-1.275" fill="none" stroke="#000001" stroke-width="1.335"/><path d="M122.351 315.715c12.208.04 27.223-2.452 34.256-6.088l15.447-1.369.307 18.845c-13.085 7.214-43.297 8.764-49.945 8.711-6.654.053-37.239-1.523-50.383-8.763l.17-18.857 15.48 1.393c7.033 3.618 22.505 6.128 34.7 6.128h-.033" fill="#ff0"/><path d="M122.352 315.715c12.208.04 27.222-2.453 34.255-6.089l15.447-1.367.307 18.844c-13.085 7.214-43.297 8.764-49.944 8.711-6.655.053-37.24-1.523-50.384-8.763l.17-18.857 15.48 1.393c7.033 3.617 22.505 6.128 34.7 6.128h-.032" fill="none" stroke="#000001" stroke-width=".311"/><path d="M32.266 235.334l13.609 4.331-4.116 22.03-12.881 2s-2.172-11.583 3.388-28.373" fill="#ff0"/><path d="M32.266 235.334l13.609 4.33-4.116 22.03-12.882 2.001s-2.172-11.584 3.39-28.373z" fill="none" stroke="#000001" stroke-width=".311"/><path d="M41.756 261.455l-12.875 2.243 8.145-11.584 4.73 9.34" fill="#7e7e7e"/><path d="M41.756 261.455l-12.875 2.243 8.145-11.584 4.73 9.34" fill="none" stroke="#000001" stroke-width=".311"/><path d="M24.13 251.204l13.118.948c.294 11.113 1.641 53.523 52.293 55.825l-1.577 15.43c-61.655.64-66.34-52.019-63.834-72.203" fill="#ff0"/><path d="M24.13 251.204l13.118.948c.294 11.113 1.642 53.523 52.293 55.825l-1.577 15.43c-61.655.64-66.34-52.019-63.834-72.203zm48.15 75.364l15.458-3.375" fill="none" stroke="#000001" stroke-width=".311"/><path d="M211.362 235.495l-13.556 4.291 4.3 21.997 12.907 2.073s2.074-11.577-3.65-28.373" fill="#ff0"/><path d="M211.363 235.496l-13.556 4.29 4.299 21.997 12.907 2.073s2.075-11.577-3.65-28.373z" fill="none" stroke="#000001" stroke-width=".311"/><path d="M202.098 261.551l12.908 2.316-8.256-11.59-4.652 9.274" fill="#7e7e7e"/><path d="M202.098 261.552l12.908 2.315-8.256-11.59-4.652 9.275" fill="none" stroke="#000001" stroke-width=".311"/><path d="M219.649 251.377l-13.136.896c-.19 11.1-1.16 53.528-51.81 55.778l1.72 15.417c61.642.712 65.883-51.921 63.226-72.099" fill="#ff0"/><path d="M219.649 251.376l-13.137.897c-.19 11.1-1.157 53.528-51.81 55.778l1.721 15.417c61.643.711 65.883-51.92 63.226-72.098v.005zm-47.493 75.267l-15.498-3.385" fill="none" stroke="#000001" stroke-width=".311"/><path d="M114.15 325c-.346.222-.817.28-1.36.254l-2.446-.124.209-3.054 2.428.13c.477.032.856.125 1.092.269.49.255.706.726.66 1.38-.032.562-.229.929-.589 1.143m-4.108 4.81l.242-3.723 2.853.197c.922.071 1.609-.17 2.074-.642.483-.458.733-1.06.765-1.74.059-.792-.144-1.438-.615-1.917-.451-.457-1.093-.699-1.897-.778l-4.076-.254-.563 8.764 1.21.079m8.884-7.32l2.983.033c.43.039.772.092 1.02.209.458.215.675.647.675 1.275 0 .59-.171.982-.505 1.218-.32.215-.784.313-1.34.313l-2.866-.033.026-3.015m-.046 7.764l.026-3.741 2.8.039c.498 0 .863.04 1.12.163.412.19.614.59.634 1.138l.072 1.472c.019.353.026.57.046.713.038.105.058.215.11.295h1.505l-.026-.19c-.17-.092-.307-.268-.366-.537-.052-.17-.078-.425-.091-.746l-.027-1.17c-.018-.53-.111-.896-.314-1.1a1.568 1.568 0 0 0-.791-.562c.418-.221.732-.476.962-.791.216-.347.327-.785.327-1.32 0-1.008-.412-1.695-1.25-2.067-.451-.203-1.027-.308-1.708-.321l-4.206-.04-.033 8.79h1.21m9.338-1.858c-.536-.653-.825-1.472-.89-2.439-.058-1.217.178-2.145.733-2.774.562-.68 1.289-1.006 2.238-1.06.955-.051 1.74.256 2.322.857.596.59.936 1.407.995 2.428.032.98-.137 1.85-.59 2.615-.444.778-1.183 1.217-2.275 1.243-1.14.06-1.99-.209-2.533-.87m-1.439-5.534c-.562.87-.792 1.878-.733 3.095.085 1.314.49 2.4 1.256 3.218.85.818 1.977 1.229 3.363 1.15 1.485-.065 2.604-.627 3.363-1.66.615-.935.91-2.022.844-3.362-.085-1.198-.431-2.173-1.08-2.898-.818-.975-2.015-1.406-3.637-1.34-1.53.097-2.657.66-3.382 1.797m41.318-12.646c.844-.144 1.577-.104 2.245.124.981.308 1.642 1.034 2.054 2.146l-1.21.169c-.262-.6-.635-1.013-1.139-1.242-.49-.216-1.106-.269-1.812-.163a2.822 2.822 0 0 0-1.95 1.197c-.457.706-.595 1.648-.392 2.852.17.993.536 1.837 1.138 2.4.556.575 1.374.778 2.44.628.798-.132 1.44-.45 1.892-1.002.47-.522.608-1.314.45-2.334l-2.82.431-.143-.967 3.925-.602.765 4.65-.778.118-.484-1.073c-.328.485-.654.857-.942 1.073-.484.38-1.139.622-1.956.74-1.06.163-2.028-.028-2.905-.59-.962-.713-1.584-1.772-1.818-3.244-.256-1.444-.027-2.681.64-3.656.635-.941 1.557-1.49 2.8-1.669m8.878-.663l2.813-1.02c.386-.144.72-.19 1.008-.156.516.037.896.346 1.112.96.203.524.203.981-.026 1.303-.243.333-.621.575-1.172.777l-2.642.949-1.093-2.813m2.813 7.267l-1.374-3.525 2.617-.942c.491-.158.832-.243 1.087-.216.464.058.817.34 1.052.876l.596 1.341c.131.333.236.536.32.629.04.117.125.189.19.267l1.42-.522-.079-.19c-.209 0-.412-.118-.562-.348-.11-.163-.216-.398-.366-.673l-.465-1.1c-.209-.477-.425-.77-.674-.947a2.245 2.245 0 0 0-.935-.255c.287-.334.496-.668.575-1.06.085-.4.047-.843-.143-1.34-.36-.936-1.021-1.446-1.95-1.512-.49-.039-1.053.066-1.7.294l-3.952 1.407 3.192 8.267 1.158-.426m10.281-4.38l-5.017-7.32 5.508-3.512.609.884-4.515 2.883 1.544 2.237 4.168-2.681.569.857-4.168 2.681 1.701 2.466 4.593-2.937.609.864-5.607 3.578m4.402-12.947l1.44-1.583c.667-.707 1.373-1.027 2.146-.936.772.066 1.556.471 2.393 1.204.23.176.432.405.642.66.366.478.582.897.72 1.315.117.525.092 1.002-.092 1.46-.11.228-.308.496-.602.817l-1.446 1.57-5.201-4.52m7.603 3.447c1.02-1.125 1.242-2.335.647-3.702a6.251 6.251 0 0 0-1.61-2.087c-.922-.818-1.884-1.236-2.898-1.314-1.125-.085-2.08.32-2.911 1.228l-2.454 2.63 6.765 5.9 2.454-2.642m5.247-6.832l-7.785-4.572.634-1.007 7.799 4.547-.642 1.045m3.046-5.321l-8.406-3.363 2.48-5.913 1.02.393-2.022 4.873 2.531.994 1.891-4.487.969.4-1.871 4.48 2.833 1.151 2.073-4.931 1.021.384-2.525 6.019m3.865-10.326l-8.845-1.955.294-1.367 8.171-2.76-7.176-1.584.261-1.072 8.846 1.903-.282 1.328-8.184 2.82 7.177 1.55-.255 1.137m-.705-11.228l.11-1.112c.511.014.942-.066 1.27-.24.64-.348 1.014-1.008 1.111-1.984.04-.456.02-.857-.084-1.235-.19-.732-.602-1.138-1.263-1.204-.49-.053-.843.066-1.1.334-.228.307-.47.752-.653 1.38l-.406 1.158c-.262.758-.503 1.281-.766 1.575-.418.55-1.007.741-1.76.688-.804-.085-1.458-.405-1.922-1.02-.478-.563-.675-1.367-.557-2.363.079-.907.38-1.673.916-2.287.497-.563 1.27-.832 2.257-.728l-.092 1.112c-.483 0-.87.085-1.15.281-.51.282-.792.877-.877 1.747-.073.72.026 1.204.3 1.57.275.308.622.504 1.027.536.432.039.773-.098 1.008-.43.17-.23.373-.727.648-1.532l.4-1.217c.196-.562.43-.993.705-1.3.491-.51 1.133-.727 1.937-.667.981.103 1.682.51 2.04 1.256.354.752.492 1.582.407 2.524-.112 1.065-.458 1.903-1.099 2.465-.641.576-1.44.772-2.407.694m-183.364-.538l.203 1.099c-.491.097-.883.294-1.172.549-.515.484-.693 1.21-.515 2.198a3.75 3.75 0 0 0 .418 1.158c.393.667.903.935 1.55.83.479-.085.792-.267.943-.608.143-.334.248-.843.28-1.498l.06-1.237c.038-.764.124-1.365.294-1.7.268-.602.772-.975 1.525-1.098.804-.145 1.511.038 2.118.497.616.425 1.022 1.164 1.172 2.144.19.897.105 1.702-.248 2.427-.34.707-.995 1.138-1.996 1.321l-.197-1.11c.465-.171.812-.335 1.04-.563.394-.439.512-1.074.36-1.943-.116-.707-.36-1.165-.725-1.393-.36-.269-.72-.374-1.113-.307-.438.065-.725.307-.862.7-.086.26-.151.803-.21 1.634l-.06 1.282c-.032.602-.123 1.1-.326 1.44-.321.627-.864 1.012-1.655 1.137-1.001.17-1.774-.06-2.323-.7-.563-.629-.91-1.38-1.086-2.316-.197-1.111-.052-1.974.393-2.667.45-.713 1.164-1.125 2.133-1.263m-.56 11.58l8.65-2.603 2.015 6.09-1.054.332-1.649-5.003-2.63.792 1.525 4.624-1.008.32-1.511-4.636-2.93.875 1.674 5.115-1.034.295-2.048-6.2m3.837 10.562l7.956-4.22.85 1.486-5.47 5.782 7.988-1.367.825 1.472-7.936 4.192-.562-.975 4.684-2.466c.17-.098.432-.241.811-.444.373-.17.792-.4 1.21-.615l-7.955 1.354-.582-1.033 5.43-5.763-.263.131c-.168.098-.464.242-.862.47a6.543 6.543 0 0 1-.877.471l-4.671 2.505-.576-.993m14.821 11.725c-.4-.092-.792-.32-1.177-.72l-1.682-1.734 2.264-2.073 1.694 1.728c.328.32.536.633.648.902.157.516 0 .988-.478 1.432-.432.4-.863.562-1.269.464m-6.392.804l2.774-2.544 1.97 1.995c.634.648 1.282.942 1.962.93a2.768 2.768 0 0 0 1.812-.792c.59-.523.87-1.138.87-1.798-.006-.642-.3-1.243-.843-1.806l-2.827-2.885-6.581 6.043.85.857m7.953 7.062l4.769-7.477 5.64 3.428-.59.89-4.63-2.773-1.434 2.263 4.259 2.582-.55.857-4.265-2.57-1.622 2.53 4.69 2.82-.562.883-5.705-3.434m14.111-1.44l2.865.91c.406.124.7.281.896.458.367.347.465.844.25 1.445-.177.523-.445.864-.864 1.008a2.942 2.942 0 0 1-1.394-.105l-2.702-.863.95-2.852m-2.474 7.345l1.19-3.564 2.67.87c.478.124.825.294.994.47.328.295.426.732.263 1.275l-.4 1.42c-.091.346-.137.575-.177.68 0 .112 0 .23.02.308l1.406.457.086-.202c-.15-.118-.236-.333-.23-.601.034-.165.08-.426.17-.728l.34-1.138c.139-.497.191-.869.067-1.137a1.799 1.799 0 0 0-.576-.778c.444-.079.83-.216 1.158-.46.307-.267.569-.64.726-1.162.32-.95.144-1.741-.562-2.343-.354-.313-.858-.581-1.519-.83l-4.003-1.236-2.8 8.339 1.17.36" fill="#009fc5"/><path d="M73.58 164.602c1.033-2.493 10.612-9.288 42.04-6.312 0 0 5.313 3.244 8.434 2.826 1.78-.23-1.047.11-3.37-1.819-2.368-1.93-2.872-5.885 2.54-5.781 5.383.137 25.54 1.275 25.92 3.086.353 1.832-10.658 2.597-14.753 2.493-4.116-.11-3.638 1.968.457 1.812 12.797-.459 26.766-4.965 41.518 5.467 1.76 1.269-4.45 1.472-9.251-.569 0 0-13.013.674-18.64-.248 0 0-4.324 3.518-9.957 3.172.733 1.825-2.08 8.635-19.79 3.512-2.925.897-13.582 2.682-12.417-.483-2.807 0-7.727.902-8.46-.694-.706-1.57 8.662-3.944 10.305-5.644 0 0-19.818.19-23.573-1.178 0 0-11.69 2.623-11.004.346" fill="#bc715f"/><path d="M79.931 192.345c.426-.575.596-1.609 1.498-1.583 1.964.524 3.298 4.114 5.712 1.785.857-.189 1.184.975 1.89 1.113.452 1.995 2.055-.406 3.252-.269 2.56-1.138 5.725-1.406 8.754-.844.091 1.956-1.44 4.115-3.363 5.227.04 1.969 1.826 3.232 1.793 5.213-.308.74-.053 1.903-1.172 2.145-1.42-.255-2.82-.405-3.997-1.197-.144-.144-.262-.425-.562-.333-.144.66.89 1.315 1.295 1.987-.713 1.217-1.897.105-2.892.118-.294.7-.013 1.584-.733 2.035-1.256-.04-1.511-1.407-2.283-2.086-.792.856.556 1.367.746 2.046-.484 2.577-.418 5.096-2.997 6.783l-1.726.858c-.472-1.296-.178-3.258-.492-4.613-1.02 1.663-1.818 3.115-3.317 4.52-1.753-.576-2.774-2.642-3.159-4.356-.733-1.995-.314-4.382 1.263-5.827-.537-1.047-2.376-.804-2.637-2.295-2.755-1.794-4.279 3.139-6.058.575-.576-2.394.111-5.37 1.845-7.156-.387-.981-1.67-.725-2.429-1.288-1.732-1.472-4.231-3.028-4.108-5.685 4.744-1.79 10.416-.477 13.864 3.127" fill="#008737"/><path d="M82.392 192.077c-.11 2.17 1.466.588 2.637 1.902-.916-.36-1.584 1.583-2.48.47l-.562.538c.327.745.962.844.3 1.661-.98.372-1.176-.857-1.635-1.34-.079-.216.15-.622-.209-.766-.556.47-1.138.64-1.904.562-.209-.418-.615-.967-.202-1.288.751-1.014 1.916.366 2.486-.347.09-.628-.459-1.392.255-1.825.49.085 1.118-.182 1.322.433m5.86 1.783c.06.42-.215 1.007.335 1.303.712-.387 1.472-.094 1.884.614-.007.379.11.876-.386 1.06l-1.113-.21c.079-.216-.275-.353-.412-.562-.49-.15-.779.247-1.144.49.274.418.91.647.758 1.184-.654.654-.975-.562-1.694-.256-.491-.189.176-1.209-.595-1.516-.916 0-.308 1.503-1.48.916-.418-.472-.83-1.107-.378-1.635.49-.329 1.322-.244 1.74.181.712-.79.784-3.844 2.492-1.569m-7.314 3.148c.477.687-.106 1.622.503 2.388.956-1.785 1.877.385 3.016.216.347.424.118 1.014.183 1.498-1.406.372-3.1.817-4.344-.308l-.347.399c.74.687 1.44 1.465.851 2.615-1.053.23-2.683.256-3.213-.83-.274-.895.642-1.543-.327-2.263-.7.87-.667 2.035-2.126 1.243-.903-.497-1.17-1.523-.719-2.387.941-1.485 2.59.047 3.611-.68.144-1.276-.328-2.388.844-3.094 1.001-.177 1.465.575 2.074 1.203" fill="#ff0"/><path d="M84.94 197.793c-.471 2.171-2.107-.112-2.872-.204 1.02-1.81 1.661.591 2.871.204m5.095 2.363c-1.138.32-.962-1.1-1.525-1.655l.44-.399c.412.497.725 1.394 1.085 2.054" fill="#fff"/><path d="M88.497 199.716c.327.752-.74 1.354.17 1.903.288-.241.641-.575.792-.713.778.23 1.681.367 2.224 1.138.583 1.597-1.033 1.557-1.95 2.002l-.91-.04c.217-.444-.391-.634-.541-.94-.42-.106-.766.025-1.002.378.203 1.014 1.44 1.806.163 2.708-1.079-.072-2.754.346-2.656-1.144-.405-.844 1.1-2.146-.51-2.198-.53 1.138-1.112 2.236-2.493 1.158l.17-1.622c1.322.038 2.886.267 3.481-1.21.38-1.073-.66-2.06.268-2.911 1.349-.308 2.107.595 2.794 1.49" fill="#ff0"/><path d="M87.53 202.155c.34.805-.576.858-1.008 1.256-.581.046-.987-.184-1.34-.575-.263-.975.463-1.074 1.02-1.46.647-.267.915.485 1.328.779"/><path d="M86.735 202.682c-.145.19-.347.131-.563.183l-.203-.974c.431.038.994.176.766.79" fill="#fff"/></svg>