<svg xmlns="http://www.w3.org/2000/svg" viewBox="0 0 640 480" height="16" width="22"><path d="M0 320.025h640v79.988H0z" fill="#ffe700"/><path d="M0 240h640v79.988H0z" fill="#000001"/><path d="M0 160.012h640v79.989H0z" fill="#de3908"/><path d="M0 80.023h640v79.989H0z" fill="#ffe700"/><path d="M0 0h640v79.988H0z" fill="#000001"/><path d="M394.728 239.997c0 41.272-33.457 74.728-74.728 74.728-41.27 0-74.728-33.456-74.728-74.728 0-41.271 33.456-74.728 74.728-74.728 41.272 0 74.728 33.457 74.728 74.728z" fill="#fffdff" stroke="#000001" stroke-width=".924"/><path d="M306.815 182.71l-4.852-8.936c1.873-1.872 5.022-3.319 10.043-3.319 0 .34-.511 9.788-.511 9.788l-4.68 2.467z" fill="#de3108" stroke="#000001" stroke-width=".924"/><path d="M311.493 180.332l.682-9.872s10.042-.596 15.49 5.957c.083-.085-5.363 7.66-5.363 7.66z" fill="#ffe700" stroke="#000001" stroke-width=".924"/><path d="M322.475 183.99l4.936-7.66c3.319 3.49 4.68 5.958 5.192 9.704.084.084-7.83 1.956-7.83 1.871 0-.085-2.213-3.83-2.297-3.915z" fill="#de3108" stroke="#000001" stroke-width=".924"/><path d="M309.284 310.456s9.277-10.639 27.32-8.34c-2.724-4.425-11.49-3.915-11.49-3.915s-2.723-20.681-.596-21.703c2.127-1.022 11.149.086 11.149.086 1.19 0 3.234-3.234 1.618-5.277-1.618-2.043-6.384-9.872-4.426-11.405 1.957-1.532 12.595.851 12.595.851l-30.042-38.467s-3.064-14.468 3.064-21.447c7.404-6.128 6.638-12.766 6.383-12.682-1.022-6.723-11.234-11.574-18.128-5.361-4.085 4.936-1.362 8.68-1.362 8.68s-10.724 2.894-11.15 4.766c-.425 1.873 12.086-.34 12.086-.34l-1.19 8.597s-24.342 22.127-5.703 41.276c.17-.085.596-.851.596-.851s6.553 8.085 13.445 9.872c6.47 6.64 5.874 5.617 5.874 5.617s1.276 10.468.084 12.511c-1.616-.51-18.126-1.106-20.596-.17-2.212.681-10.723.255-8.595 14.128 1.617-3.745 3.064-7.064 3.064-7.064s-.256 5.02 1.787 6.809c-.34-5.279 1.957-8.851 1.957-8.851s.426 5.787 1.703 6.637c1.277.851 1.277-9.362 8.34-8.51 7.064.85 12.17.596 12.17.596s2.384 20 1.618 21.872c-5.108-1.19-17.277.51-18.043 3.574 7.148-.425 10.469.426 10.469.426s-5.787 5.107-4 8.085z" fill="#000001" stroke="#000001" stroke-linecap="round" stroke-linejoin="round" stroke-width=".866"/><path d="M312.15 201.327s-17.712 19.522-10.07 34.46c.407-2.083.23-3.392.484-3.307-.425-.255 2.197 1.798 1.997 1.398.057-1.08-.799-3.394-.799-3.394l2.397.598-1.398-2.595 3.395.399s-1.199-3.195-.798-3.195c.398 0 2.794.199 2.794.199-5.036-9.039-.285-16.545 1.997-24.563z" fill="#9ca69c" stroke="#9ca69c" stroke-linecap="round" stroke-linejoin="round" stroke-width=".866"/><path d="M318.303 184.582s.938 6.723-2.723 8.68c-.596.426-2.893 1.191-2.553 2.555.426 1.872 1.446 1.53 2.894 1.19 3.829-.68 8.255-8.85 2.382-12.425z" fill="#9ca69c" stroke="#9ca69c" stroke-width=".924"/><path d="M311.754 190.372a1.447 1.447 0 1 1-2.894 0 1.447 1.447 0 0 1 2.894 0z" fill="#fff"/><path d="M306.048 195.986c-.936.766-5.872 5.873-1.022 7.744 5.022-1.361 3.66-2.297 4.766-3.403.029-2.298-2.496-2.894-3.744-4.34z" fill="#de3108" stroke="#000001" stroke-width=".924"/><path d="M316.77 244.247c-.256 1.106-1.362 5.192.17 8.34 4.256-1.787 6.213-1.276 7.66-.34-3.488-2.808-4.851-4-7.83-8z" fill="#9ca69c" stroke="#9ca69c" stroke-linecap="round" stroke-linejoin="round" stroke-width=".866"/><path d="M324.093 263.566l.255 9.532s3.32.596 4.852 0c1.532-.596-.086-6.638-5.107-9.532z" fill="#fff" stroke="#fff" stroke-linecap="round" stroke-linejoin="round" stroke-width=".866"/><path d="M348.175 264.755s-6.128-14.808-21.788-18.553c-15.66-3.746-13.617-20.426-12.34-21.448.681-1.446 1.191-3.659 5.702-1.53 4.511 2.128 25.278 12.595 28.256 13.106 2.978.51.426 28.766.17 28.425z" fill="#9ca69c" stroke="#000001" stroke-width=".924"/><path d="M333.282 246.118c-.255.17 20.936 12.511 14.552 23.15 6.044-4 4.086-10.978 4.086-10.978s4.936 12.85-7.064 19.148c1.277 1.106 2.128.85 2.128.85l-2.044 2.044s-.935 1.531 7.15-2.384c-2.213 1.788-2.382 3.064-2.382 3.064s.595 1.702 5.872-2.893c-4.256 4.595-5.192 6.978-5.192 6.893 11.49-1.022 36.51-38.383-7.915-49.447 2.384 2.47 2.043 2.128 2.043 2.128z" fill="#de3108" stroke="#000001" stroke-linejoin="round" stroke-width=".866"/><path d="M334.217 242.46c2.894 2.043 3.914 2.723 4.256 3.745-2.639-.595-5.022-.425-5.022-.425s-5.702-5.447-6.724-5.873c-.765 0-5.19-2.809-5.19-2.809-2.213-1.106-4.256-8.765 3.915-6.553 8.424 4 9.616 4.34 9.616 4.34l10.043 3.15 5.787 6.469s-10.297-5.108-11.574-5.193c2.808 2.298 4.425 5.447 4.425 5.447-3.263-.937-6.099-1.787-9.532-2.297z" fill="#fff" stroke="#000001" stroke-linecap="round" stroke-linejoin="round" stroke-width=".866"/><path d="M294.137 196.753s9.872-2.383 11.064-2.044" fill="none" stroke="#fff" stroke-linecap="round" stroke-width=".866"/><path d="M0 400.012h640v79.989H0z" fill="#de3908"/></svg>