<svg xmlns="http://www.w3.org/2000/svg" xmlns:xlink="http://www.w3.org/1999/xlink" viewBox="0 0 640 480" height="16" width="22"><path d="M0 320h640v160H0z" fill="#1eb53a"/><path d="M0 0h640v160H0z" fill="#0099b5"/><path d="M0 153.6h640v172.8H0z" fill="#ce1126"/><path d="M0 163.2h640v153.6H0z" fill="#f5f5f5"/><path d="M134.4 19.2a57.6 57.6 0 0 0 0 115.2 57.6 57.6 0 0 0 9.577-.867 57.6 57.6 0 0 1 .043-113.467 57.6 57.6 0 0 0-9.62-.867z" fill="#fff"/><g fill="#fff" transform="matrix(1.92 0 0 1.92 261.12 122.88)"><g id="flag-uz-e"><g id="flag-uz-d"><g id="flag-uz-c"><g id="flag-uz-b"><path d="M0-6L-1.854-.294 1 .633" id="flag-uz-a"/><use transform="scale(-1 1)" xlink:href="#flag-uz-a"/></g><use transform="rotate(72)" xlink:href="#flag-uz-b"/></g><use transform="rotate(-72)" xlink:href="#flag-uz-b"/><use transform="rotate(144)" xlink:href="#flag-uz-c"/></g><use y="-24" xlink:href="#flag-uz-d"/><use y="-48" xlink:href="#flag-uz-d"/></g><use x="24" xlink:href="#flag-uz-e"/><use x="48" xlink:href="#flag-uz-e"/><use x="-48" xlink:href="#flag-uz-d"/><use x="-24" xlink:href="#flag-uz-d"/><use x="-24" y="-24" xlink:href="#flag-uz-d"/></g></svg>