<svg xmlns="http://www.w3.org/2000/svg" xmlns:xlink="http://www.w3.org/1999/xlink" viewBox="0 0 640 480" height="16" width="22"><defs><clipPath id="flag-bi-a"><path d="M-90.533 0h682.67v512h-682.67z" fill-opacity=".67"/></clipPath></defs><g clip-path="url(#flag-bi-a)" fill-rule="evenodd" transform="translate(84.875) scale(.9375)"><path d="M-178 0l428.8 256L-178 512zm857.6 0L250.8 256l428.8 256z" fill="#00cf00"/><path d="M-178 0l428.8 256L679.6 0zm0 512l428.8-256 428.8 256z" fill="red"/><path d="M-178 0v47.702l285.62 170.52A148.258 148.258 0 0 0 102.75 256c0 13.057 1.697 25.716 4.87 37.777L-178.001 464.3v47.702H-98.1l247.748-147.91c26.469 24.779 62.035 39.958 101.154 39.958 39.118 0 74.686-15.178 101.154-39.956L599.7 512.002h79.902V464.3L393.983 293.78a148.258 148.258 0 0 0 4.871-37.78 148.26 148.26 0 0 0-4.87-37.78L679.6 47.703V0h-79.902l-247.74 147.904c-26.468-24.78-62.037-39.956-101.156-39.956-39.12 0-74.687 15.178-101.156 39.958L-98.098 0H-178z" fill="#f5f5f5"/><path d="M215.443 311.784l-19.25.322-9.948 16.442-9.92-16.47-19.22-.41 9.303-16.824-9.245-16.875 19.222-.332 9.977-16.457 9.918 16.496 19.222.41-9.333 16.817z" fill="red" id="flag-bi-b" stroke="#00de00" stroke-width="3.901"/><use transform="translate(64.5 -111.622)" xlink:href="#flag-bi-b"/><use transform="translate(130.57)" xlink:href="#flag-bi-b"/></g></svg>