<svg xmlns="http://www.w3.org/2000/svg" viewBox="0 0 640 480" height="16" width="22"><path d="M0 0h640v480H0z" fill="#229e45"/><path d="M321.406 435.935l301.483-195.67-303.308-196.2L17.11 240.734l304.296 195.2z" fill="#f8e509"/><path d="M452.77 240.005c0 70.328-57.103 127.34-127.544 127.34-70.442 0-127.544-57.012-127.544-127.34s57.104-127.34 127.544-127.34c70.442 0 127.545 57.012 127.545 127.34z" fill="#2b49a3"/><path d="M283.3 252.597l-3.942-2.274-4.093 2.025.917-4.548-3.162-3.334 4.52-.53 2.124-4.08 1.894 4.22 4.46.81-3.345 3.132m47.023 93.135l-1.656-.956-1.72.85.386-1.91-1.33-1.4 1.9-.223.893-1.715.795 1.772 1.874.34-1.407 1.316m-3.158-52.824l-1.955-1.128-2.03 1.004.454-2.257-1.568-1.654 2.243-.264 1.053-2.024.94 2.094 2.212.402-1.66 1.553m31.03 29.137l-1.954-1.13-2.03 1.006.454-2.257-1.57-1.653 2.244-.263 1.053-2.025.94 2.093 2.21.402-1.658 1.554m18.403 2.273l-1.955-1.13-2.032 1.006.455-2.257-1.568-1.653 2.242-.263 1.054-2.025.94 2.093 2.213.402-1.66 1.554m19.61 28.137l-2.33-1.395-2.418 1.24.542-2.786-1.87-2.044 2.673-.324 1.255-2.5 1.12 2.586 2.635.496-1.977 1.918m.227-8.631l-2.554-1.395-2.652 1.24.594-2.786-2.05-2.043 2.93-.325 1.376-2.5 1.227 2.586 2.89.496-2.167 1.92m39.468-36.733l-1.955-1.13-2.03 1.006.454-2.257-1.567-1.655 2.243-.262 1.053-2.024.94 2.092 2.21.402-1.658 1.553m-28.476 27.395l-2.03-1.173-2.108 1.044.472-2.344-1.63-1.718 2.33-.274 1.093-2.103.976 2.177 2.296.417-1.723 1.615m-9.702 2.601l-2.178-1.26-2.264 1.122.507-2.522-1.748-1.848 2.5-.294 1.174-2.262 1.048 2.34 2.466.45-1.85 1.735m21.595-.245l-2.63-1.518-2.733 1.35.612-3.035-2.11-2.226 3.017-.354 1.417-2.724 1.264 2.817 2.978.54-2.233 2.09m-167.155-40.41l-1.648-.952-1.714.847.384-1.902-1.323-1.394 1.89-.222.89-1.706.792 1.765 1.864.34-1.4 1.31m69.482 10.81l-2.63-1.518-2.734 1.352.612-3.037-2.11-2.225 3.018-.353 1.417-2.724 1.264 2.817 2.98.54-2.234 2.09m25.935 3.068l-2.63-1.52-2.733 1.353.61-3.036-2.11-2.225 3.018-.353 1.417-2.724 1.265 2.817 2.977.54-2.233 2.09m-86.543 28.419l-2.63-1.518-2.734 1.352.612-3.038-2.11-2.225 3.017-.354 1.417-2.724 1.265 2.817 2.977.54-2.233 2.09m5.622-10.871l-2.63-1.52-2.733 1.353.61-3.037-2.11-2.225 3.02-.354 1.416-2.722 1.265 2.817 2.978.54-2.233 2.09m-41.463 3.067l-2.63-1.518-2.734 1.352.61-3.037-2.11-2.225 3.02-.354 1.416-2.723 1.264 2.818 2.978.54-2.233 2.09m.419 3.057l-2.63-1.518-2.734 1.352.61-3.037-2.11-2.225 3.02-.354 1.416-2.723 1.264 2.818 2.978.54-2.233 2.09m200.14 15.164l-2.144-1.135-2.227 1.01.5-2.27-1.72-1.666 2.46-.265 1.154-2.038 1.03 2.108 2.426.404-1.82 1.563m-199.38-9.818l-2.63-1.518-2.734 1.352.61-3.037-2.11-2.225 3.02-.354 1.416-2.723 1.264 2.818 2.978.54-2.233 2.09m143.052-44.18l-2.74-1.582-2.85 1.408.64-3.164-2.2-2.32 3.145-.368 1.477-2.838 1.318 2.936 3.103.563-2.327 2.18m7.652-31.011l-3.48-2.007-3.616 1.788.81-4.017-2.794-2.944 3.994-.47 1.875-3.603 1.673 3.728 3.94.715-2.955 2.766M237.786 278.08l-3.94-2.275-4.094 2.025.916-4.548-3.16-3.334 4.52-.53 2.123-4.08 1.894 4.22 4.46.81-3.345 3.132m-12.03-47.98l-3.94-2.274-4.094 2.025.916-4.548-3.16-3.333 4.52-.53 2.122-4.08 1.894 4.22 4.46.81-3.345 3.13m105.867 44.09l-3.94-2.273-4.093 2.025.916-4.55-3.162-3.332 4.522-.53 2.123-4.08 1.894 4.22 4.46.81-3.346 3.13m88.51 30.46l-3.342-1.928-3.472 1.718.777-3.858-2.68-2.827 3.833-.45 1.8-3.46 1.607 3.58 3.783.686-2.837 2.657m-85.793 16.315l-3.404-1.964-3.536 1.748.792-3.93-2.73-2.88 3.904-.457 1.834-3.523 1.636 3.645 3.853.7-2.89 2.705m37.381 38.53l-3.94-2.274-4.092 2.025.916-4.55-3.16-3.332 4.52-.53 2.122-4.08 1.894 4.22 4.46.81-3.345 3.13M283.3 316.274L279.357 314l-4.093 2.025.917-4.55-3.162-3.332 4.52-.53 2.124-4.08 1.894 4.22 4.46.81-3.345 3.13" fill="#ffffef"/><path d="M444.368 285.817c1.944-5.083 4.45-12.75 5.783-19.786-67.742-59.508-143.26-89.993-238.68-83.72-3.422 6.558-6.16 13.423-8.47 20.853 113.063-10.786 195.936 39.27 241.37 82.654z" fill="#fff"/><path d="M223.45 184.13c-1.136-.03-2.144.128-3.024.475-.664.254-1.278.66-1.844 1.211a6.649 6.649 0 0 0-1.346 1.883c-.452.96-.696 2.15-.736 3.58h.002c-.061 2.23.503 4 1.693 5.309 1.192 1.3 2.824 1.98 4.9 2.035 2.05.057 3.704-.535 4.964-1.775 1.262-1.247 1.92-3.006 1.98-5.266.061-2.281-.508-4.08-1.713-5.394-1.195-1.313-2.82-1.997-4.877-2.057zm9.765.362l-.162 14.018v.002l2.818.033.068-5.854.57.008c.649.007 1.122.068 1.419.178.297.106.577.304.842.594.262.284.75.974 1.46 2.072l2.002 3.072 3.372.041-1.672-2.753c-.662-1.098-1.19-1.863-1.586-2.293-.386-.433-.885-.83-1.49-1.194 1.227-.165 2.154-.585 2.777-1.26.624-.68.944-1.545.957-2.597.009-.83-.185-1.565-.584-2.215-.4-.65-.936-1.104-1.613-1.361-.67-.263-1.75-.402-3.245-.42zm15.789.696l-.707 14 5.295.269c1.042.052 1.878-.004 2.51-.17.844-.226 1.525-.563 2.035-1.016.68-.599 1.217-1.396 1.617-2.396.328-.822.522-1.808.58-2.96.066-1.312-.03-2.418-.29-3.325-.26-.914-.665-1.696-1.218-2.342a4.68 4.68 0 0 0-2.037-1.394c-.6-.21-1.479-.347-2.639-.407zm15.488.863l-1.305 13.959 10.573.998.219-2.354-7.764-.73.353-3.8 6.98.657.22-2.351-6.979-.657.291-3.095 7.502.707.219-2.362zm-41.072.488c1.162.032 2.082.454 2.758 1.264.683.809 1.002 2.016.959 3.62-.044 1.627-.439 2.837-1.184 3.634-.739.788-1.673 1.168-2.795 1.138-1.123-.03-2.04-.463-2.748-1.3-.707-.843-1.039-2.057-.996-3.643.043-1.612.43-2.807 1.162-3.584.733-.783 1.682-1.159 2.844-1.129zm12.598.36l2.199.025c1.142.012 1.826.038 2.056.072.456.081.808.27 1.051.567.252.289.373.67.37 1.142-.008.421-.106.77-.3 1.049-.192.279-.46.472-.796.584-.338.112-1.183.157-2.536.14l-2.085-.023v-.002zm15.689.785l1.264.068c1.149.057 1.916.14 2.306.25.52.141.943.38 1.27.723.326.344.57.806.73 1.396.16.59.216 1.425.16 2.508-.056 1.083-.193 1.933-.416 2.553-.22.615-.49 1.05-.81 1.31-.31.258-.7.433-1.16.526-.353.07-.923.089-1.71.047l-2.103-.106.467-9.273zm27.623.097l-2.033 13.867 2.592.383 1.6-10.916 1.132 11.32 2.686.399 4.343-10.512-1.6 10.918 2.59.381 2.034-13.869-4.19-.617-3.859 9.092-1.123-9.827zm24.742 6.903l-2.248 9.838 7.455 1.716.38-1.66-5.475-1.26.613-2.675 4.918 1.13.383-1.654-4.926-1.137.504-2.18 5.287 1.218.377-1.663zm16.819 1.906l-3.26 13.63 2.74.66 1.23-5.142 1.788.432c1.24.3 2.203.462 2.888.49.506.01 1.03-.089 1.57-.3a3.831 3.831 0 0 0 1.481-1.07c.44-.497.757-1.165.957-2 .258-1.086.21-2.03-.15-2.84-.36-.815-.905-1.417-1.635-1.81-.473-.257-1.545-.588-3.21-.99zm2.195 2.963h.002l1.324.318c.99.238 1.637.427 1.95.57a1.94 1.94 0 0 1 .956.872c.213.39.261.834.141 1.33a1.85 1.85 0 0 1-1.58 1.447c-.398.056-1.137-.049-2.219-.309l-1.5-.361zm12.16 1.334l-4.64 13.219h.003l2.66.943 1.938-5.522.535.194c.613.217 1.041.425 1.287.627.247.196.45.474.608.834.158.355.397 1.163.719 2.433l.914 3.557 3.18 1.127-.706-3.15c-.275-1.254-.525-2.148-.763-2.684-.228-.534-.575-1.07-1.032-1.61 1.215.24 2.228.14 3.034-.298.808-.443 1.388-1.16 1.736-2.153.276-.78.324-1.544.154-2.287-.17-.743-.532-1.343-1.092-1.806-.55-.465-1.53-.948-2.937-1.446zm1.867 3.183l2.076.737c1.077.38 1.718.624 1.924.73.405.226.678.515.813.875.145.355.137.756-.018 1.201-.138.396-.343.697-.615.897-.273.202-.588.3-.943.295-.355-.003-1.17-.232-2.446-.684l-1.967-.695zm16.2 4.145a6.243 6.243 0 0 0-.72.03c-.704.066-1.407.288-2.103.665a6.58 6.58 0 0 0-1.806 1.45c-.691.795-1.25 1.877-1.674 3.24l.002.002c-.662 2.13-.598 3.987.195 5.57.794 1.576 2.182 2.675 4.164 3.295 1.958.613 3.712.494 5.26-.358 1.55-.858 2.66-2.367 3.33-4.529.677-2.178.614-4.063-.19-5.656-.795-1.591-2.175-2.695-4.14-3.309-.814-.255-1.586-.389-2.318-.4zm.048 2.543a3.954 3.954 0 0 1 1.592.183c1.11.346 1.883 1.001 2.315 1.963.439.967.419 2.215-.057 3.75-.482 1.552-1.19 2.61-2.121 3.172-.926.56-1.923.67-2.996.336-1.073-.337-1.838-1.004-2.293-2-.454-1.005-.445-2.263.025-3.777.48-1.54 1.174-2.583 2.088-3.131a3.45 3.45 0 0 1 1.447-.496zm14.998 4.236c-1.32 0-2.513.363-3.57 1.09-1.06.73-1.926 1.741-2.59 3.04a8.61 8.61 0 0 0-.976 3.702 5.911 5.911 0 0 0 .974 3.47c.686 1.045 1.677 1.9 2.977 2.573a9.355 9.355 0 0 0 3.316.987c1.202.126 2.193.068 2.983-.17l2.545-4.963-5.4-2.795-1.08 2.1 2.87 1.486-.808 1.582c-.533.1-1.114.115-1.754.049a4.865 4.865 0 0 1-1.73-.506c-1.065-.551-1.732-1.365-2.009-2.438-.275-1.082-.03-2.362.73-3.842.705-1.37 1.556-2.236 2.556-2.6 1.009-.364 2.057-.262 3.154.305.72.375 1.231.863 1.527 1.47.307.6.39 1.254.25 1.956l2.729.82c.34-1.274.24-2.458-.3-3.554-.526-1.1-1.56-2.046-3.103-2.846-1.186-.61-2.283-.918-3.29-.916zm12.362 5.676l-6.416 12.45h.002l2.504 1.3 2.677-5.197.506.263c.576.298.974.566 1.188.8.217.227.381.532.486.91.108.371.234 1.207.379 2.511l.414 3.649 2.992 1.554-.262-3.215c-.099-1.279-.228-2.2-.386-2.763a6.52 6.52 0 0 0-.8-1.74c1.172.407 2.184.45 3.044.128.864-.328 1.535-.958 2.015-1.892.378-.737.538-1.482.471-2.242-.067-.76-.346-1.408-.836-1.94-.48-.54-1.383-1.15-2.709-1.84zm1.41 3.396l1.951 1.014c1.018.528 1.619.858 1.809.992.37.278.598.607.685.98.092.373.033.766-.183 1.186-.193.375-.439.645-.735.805a1.503 1.503 0 0 1-.972.16c-.353-.054-1.13-.39-2.33-1.015l-1.852-.961h-.002zm13.375 4.989l-7.276 11.963 9.065 5.556 1.226-2.015-6.656-4.08 1.977-3.256 5.984 3.666 1.225-2.016-5.983-3.668 1.616-2.65 6.43 3.941 1.23-2.025zm13.586 9.398a3.656 3.656 0 0 0-1.635.342 3.619 3.619 0 0 0-1.56 1.379c-.58.944-.708 1.968-.385 3.078.232.79.891 1.742 1.978 2.86.847.872 1.378 1.44 1.598 1.712.322.403.5.757.539 1.059a1.25 1.25 0 0 1-.19.869c-.269.44-.706.7-1.306.785-.588.084-1.268-.114-2.043-.596-.728-.452-1.193-.997-1.4-1.634-.198-.632-.125-1.388.22-2.26l-2.472-1.22v.001c-.668 1.43-.814 2.744-.44 3.944.377 1.194 1.318 2.256 2.816 3.189 1.033.639 1.983 1.036 2.848 1.176.871.138 1.682.024 2.428-.336a4.158 4.158 0 0 0 1.75-1.567c.463-.756.696-1.483.69-2.19a3.861 3.861 0 0 0-.563-2.028c-.372-.643-1.059-1.465-2.053-2.465-.996-1.003-1.566-1.725-1.71-2.168-.115-.35-.081-.663.09-.945.192-.31.469-.48.839-.504.57-.042 1.201.153 1.898.586.674.42 1.098.867 1.266 1.35.177.475.124 1.052-.15 1.728l2.462 1.385c.637-1.118.778-2.24.428-3.366-.345-1.122-1.262-2.146-2.754-3.072-.91-.567-1.776-.914-2.594-1.041a4.482 4.482 0 0 0-.595-.05zm11.726 7.81a3.623 3.623 0 0 0-1.646.274 3.613 3.613 0 0 0-1.611 1.319c-.62.92-.79 1.938-.51 3.06.2.798.82 1.776 1.86 2.936.81.904 1.318 1.497 1.528 1.777.303.415.47.774.497 1.074a1.27 1.27 0 0 1-.225.863c-.29.428-.736.675-1.336.735-.592.06-1.266-.165-2.016-.68-.71-.48-1.156-1.042-1.336-1.687-.17-.64-.07-1.392.31-2.25l-2.419-1.325.002.006c-.725 1.402-.922 2.711-.6 3.924.327 1.207 1.226 2.309 2.688 3.301 1.004.683 1.937 1.114 2.797 1.291.867.172 1.677.09 2.437-.24a4.11 4.11 0 0 0 1.813-1.494c.494-.733.754-1.454.777-2.16a3.852 3.852 0 0 0-.482-2.05c-.346-.656-.997-1.506-1.95-2.546-.957-1.041-1.495-1.785-1.625-2.235-.098-.353-.057-.666.13-.943a1.01 1.01 0 0 1 .857-.469c.572-.019 1.197.204 1.873.664.66.447 1.064.912 1.21 1.397.158.483.082 1.058-.218 1.723l2.404 1.484c.682-1.092.87-2.206.565-3.344-.3-1.136-1.176-2.198-2.63-3.185-.885-.603-1.74-.986-2.55-1.143-.202-.04-.4-.065-.594-.076zm11.051 8.833a5.45 5.45 0 0 0-1.08.127 6.609 6.609 0 0 0-2.146.861c-.894.564-1.739 1.436-2.536 2.62h-.002c-1.245 1.846-1.717 3.644-1.414 5.39.308 1.74 1.323 3.193 3.041 4.361 1.7 1.154 3.411 1.547 5.139 1.182 1.73-.372 3.225-1.496 4.488-3.37 1.275-1.891 1.76-3.714 1.45-5.472-.306-1.754-1.31-3.21-3.014-4.365-.941-.64-1.877-1.053-2.807-1.237a5.45 5.45 0 0 0-1.119-.097zm.379 2.65c.764-.027 1.507.207 2.229.697.962.654 1.512 1.504 1.65 2.551.143 1.052-.235 2.242-1.13 3.572-.908 1.348-1.89 2.156-2.944 2.426-1.047.265-2.035.081-2.967-.55-.93-.634-1.47-1.492-1.62-2.579-.143-1.092.226-2.293 1.112-3.609h-.002c.902-1.334 1.867-2.135 2.9-2.395.26-.066.517-.104.772-.113z" fill="#309e3a"/></svg>