<svg xmlns="http://www.w3.org/2000/svg" xmlns:xlink="http://www.w3.org/1999/xlink" viewBox="0 0 640 480" height="16" width="22"><path d="M0 0h640v480H0z" fill="#006b3f"/><path d="M260 0v180H0v40h260v260h40V220h340v-40H300V0h-40z" fill="#fcd116"/><path d="M340 0v260H0v40h340v180h40V300h260v-40H380V0h-40z" fill="#fff"/><path d="M300 0v220H0v40h300v220h40V260h300v-40H340V0h-40z"/><g fill="#006b3f" transform="matrix(.8 0 0 .8 320 240)"><path d="M0-150a150 150 0 1 0 0 300 150 150 0 1 0 0-300z" fill="#d41c30"/><g id="flag-dm-a"><path d="M-4.81-118.41L0-132.13l4.37 13.5 14.65.22-11.59 8.85 5.25 15.05L0-103.8l-12.46 8.85 4.81-14.61-11.37-8.63z" id="flag-dm-b" stroke="#000"/><use transform="scale(-1)" xlink:href="#flag-dm-b"/></g><use transform="rotate(36)" xlink:href="#flag-dm-a"/><use transform="rotate(72)" xlink:href="#flag-dm-a"/><use transform="rotate(108)" xlink:href="#flag-dm-a"/><use transform="rotate(144)" xlink:href="#flag-dm-a"/><path d="M641.436 62.25a8.968 44.2 0 1 0 0 88.4 8.968 44.2 0 1 0 0-88.4z" stroke="#000" stroke-width=".65" transform="matrix(.99461 -.10368 .07012 .99746 -625 0)"/><path d="M650.177 62.9a9.485 44.2 0 1 0 0 88.398 9.485 44.2 0 1 0 0-88.398z" stroke="#000" stroke-width=".67" transform="matrix(.99464 -.10342 .07017 .99743 -625 0)"/><path d="M646.12 61.254a7.59 48.855 0 1 0 0 97.71 7.59 48.855 0 1 0 0-97.71z" stroke="#000" stroke-width=".63" transform="matrix(.99446 -.10509 .06995 .99758 -625 0)"/><path d="M-44.212 62.565c7.657-.32 4.332-4.416 8.2-6.596 3.864-2.177 9.365-.737 11.015 1.986 1.65 2.722.327 5.397 2.45 5.433 2.127.037 59.93-2.387 62.01-.105 2.086 2.28 2.429 6.776.27 8.524-2.16 1.77-75.234 2.588-77.75.738-2.517-1.824-6.202-9.53-6.193-9.98z" fill="#9c4a00" stroke="#000" stroke-width=".657"/><path d="M-3.376 68.195c-.14 5.775 8.403 4.14 8.52 8.963-.257 5.114-14.324.313-14.46-9.04.585-9.345 14.354-13.963 14.524-8.625.127 4.435-8.446 2.927-8.585 8.703z" fill="#fcd116" stroke="#000" stroke-width=".633"/><path d="M1.664 68.26c-.14 5.776 8.404 4.14 8.52 8.964-.257 5.113-14.324.312-14.46-9.042.585-9.345 14.354-13.962 14.525-8.625.126 4.435-8.447 2.928-8.586 8.703z" fill="#fcd116" stroke="#000" stroke-width=".633"/><path d="M7.072 68.058c-.14 5.775 8.403 4.14 8.52 8.963-.257 5.114-14.324.313-14.46-9.042.586-9.344 14.355-13.962 14.525-8.624.127 4.435-8.447 2.927-8.585 8.703z" fill="#fcd116" stroke="#000" stroke-width=".633"/><path d="M12.112 68.124c-.14 5.776 8.404 4.14 8.52 8.964-.256 5.113-14.323.312-14.46-9.042.585-9.345 14.354-13.962 14.524-8.625.127 4.435-8.446 2.928-8.585 8.703z" fill="#fcd116" stroke="#000" stroke-width=".633"/><path d="M662.44 52.476a4.877 4.95 0 1 0 0 9.902 4.877 4.95 0 1 0 0-9.902z" fill="#9c4a00" stroke="#000" stroke-width=".565" transform="matrix(.99999 .01506 -.0201 .99998 -625 0)"/><path d="M616.195 133.373a4.366 9.595 0 1 0 0 19.19 4.366 9.595 0 1 0 0-19.19z" stroke="#000" stroke-width=".722" transform="matrix(.98881 -.14992 .10635 .99433 -625 0)"/><path d="M611.954 123.266a4.366 9.595 0 1 0 0 19.19 4.366 9.595 0 1 0 0-19.19z" stroke="#000" stroke-width=".722" transform="matrix(.98881 -.14992 .10635 .99433 -625 0)"/><path d="M619.72 127.393a4.203 10.584 0 1 0 0 21.168 4.203 10.584 0 1 0 0-21.168z" stroke="#000" stroke-width=".744" transform="matrix(.98773 -.15619 .10567 .9944 -625 0)"/><path d="M617.957 117.38a4.202 9.924 0 1 0 0 19.848 4.202 9.924 0 1 0 0-19.848z" stroke="#000" stroke-width=".72" transform="matrix(.98826 -.15277 .10598 .99437 -625 0)"/><path d="M611.698 113.423a4.202 9.924 0 1 0 0 19.848 4.202 9.924 0 1 0 0-19.848z" stroke="#000" stroke-width=".72" transform="matrix(.98826 -.15277 .10598 .99437 -625 0)"/><path d="M-14.733-52.686S-29.39-39.966-27.744-5.542C-25.9 29.078 4.65 45.352 4.65 45.352s7.786-9.827 6.882-37.644C9.348-32.96-5.077-50.93-5.077-50.93z" fill="#9461c9" stroke="#000" stroke-width=".575"/><path d="M623.455 135.046a4.366 9.595 0 1 0 0 19.19 4.366 9.595 0 1 0 0-19.19z" stroke="#000" stroke-width=".722" transform="matrix(.98881 -.14992 .10635 .99433 -625 0)"/><path d="M629.803 127.568a4.202 9.924 0 1 0 0 19.848 4.202 9.924 0 1 0 0-19.848z" stroke="#000" stroke-width=".72" transform="matrix(.98826 -.15277 .10598 .99437 -625 0)"/><path d="M624.537 123.333a4.202 9.924 0 1 0 0 19.848 4.202 9.924 0 1 0 0-19.848z" stroke="#000" stroke-width=".72" transform="matrix(.98826 -.15277 .10598 .99437 -625 0)"/><path d="M645.948 23.397a4.366 9.595 0 1 0 0 19.19 4.366 9.595 0 1 0 0-19.19z" stroke="#000" stroke-width=".722" transform="matrix(.99996 .02994 -.07257 .99736 -625 0)"/><path d="M638.688 21.724a4.366 9.595 0 1 0 0 19.19 4.366 9.595 0 1 0 0-19.19z" stroke="#000" stroke-width=".722" transform="matrix(.99996 .02994 -.07257 .99736 -625 0)"/><path d="M634.447 11.618a4.366 9.595 0 1 0 0 19.19 4.366 9.595 0 1 0 0-19.19z" stroke="#000" stroke-width=".722" transform="matrix(.99996 .02994 -.07257 .99736 -625 0)"/><path d="M642.143 15.9a4.203 10.584 0 1 0 0 21.168 4.203 10.584 0 1 0 0-21.168z" stroke="#000" stroke-width=".744" transform="matrix(.99997 .02235 -.07325 .99731 -625 0)"/><path d="M652.258 16a4.202 9.924 0 1 0 0 19.848 4.202 9.924 0 1 0 0-19.848z" stroke="#000" stroke-width=".72" transform="matrix(.99997 .02581 -.07294 .99734 -625 0)"/><path d="M646.992 11.765a4.202 9.924 0 1 0 0 19.848 4.202 9.924 0 1 0 0-19.848z" stroke="#000" stroke-width=".72" transform="matrix(.99997 .02581 -.07294 .99734 -625 0)"/><path d="M640.412 5.81a4.202 9.924 0 1 0 0 19.848 4.202 9.924 0 1 0 0-19.848z" stroke="#000" stroke-width=".72" transform="matrix(.99997 .02581 -.07294 .99734 -625 0)"/><path d="M634.153 1.854a4.202 9.924 0 1 0 0 19.848 4.202 9.924 0 1 0 0-19.848z" stroke="#000" stroke-width=".72" transform="matrix(.99997 .02581 -.07294 .99734 -625 0)"/><path d="M587.277 199.324a12.362 37.965 0 1 0 0 75.93 12.362 37.965 0 1 0 0-75.93z" fill="#d41c30" stroke="#000" stroke-width=".277" transform="matrix(.93282 -.36034 .39413 .9199 -625 0)"/><path d="M6.92-33.97a5.394 4.762 1.02 1 0-.17 9.523 5.394 4.762 1.02 1 0 .17-9.523z" stroke="#000" stroke-width=".628"/><path d="M10.974-40.7a4.832 4.762 1.02 1 0-.17 9.522 4.832 4.762 1.02 1 0 .17-9.523z" stroke="#000" stroke-width=".628"/><path d="M4.457-40.817a4.832 4.762 1.02 1 0-.17 9.523 4.832 4.762 1.02 1 0 .17-9.523z" stroke="#000" stroke-width=".628"/><path d="M5.888-45.458a5.057 4.47 1.02 1 0-.16 8.94 5.057 4.47 1.02 1 0 .16-8.94z" stroke="#000" stroke-width=".628"/><path d="M5.315-51.106a5.057 4.47 1.02 1 0-.16 8.94 5.057 4.47 1.02 1 0 .16-8.94z" stroke="#000" stroke-width=".628"/><path d="M-1.77-44.62a4.832 4.762 1.02 1 0-.17 9.522 4.832 4.762 1.02 1 0 .17-9.522z" stroke="#000" stroke-width=".628"/><path d="M-.313-50.622a4.832 4.665 1.02 1 0-.166 9.328 4.832 4.665 1.02 1 0 .166-9.328z" stroke="#000" stroke-width=".628"/><path d="M-8.294-50.57a5.394 4.762 1.02 1 0-.17 9.522 5.394 4.762 1.02 1 0 .17-9.522zm9.914-7.6a5.057 4.47 1.02 1 0-.16 8.94 5.057 4.47 1.02 1 0 .16-8.94z" stroke="#000" stroke-width=".628"/><path d="M-5.136-57.512a4.832 4.665 1.02 1 0-.166 9.328 4.832 4.665 1.02 1 0 .166-9.328zm-10.243 7.205a4.832 4.762 1.02 1 0-.17 9.522 4.832 4.762 1.02 1 0 .17-9.522z" stroke="#000" stroke-width=".628"/><path d="M-13.7-53.763a4.832 4.665 1.02 1 0-.166 9.328 4.832 4.665 1.02 1 0 .166-9.328z" stroke="#000" stroke-width=".628"/><path d="M-11.65-57.687a4.832 4.665 1.02 1 0-.167 9.328 4.832 4.665 1.02 1 0 .166-9.328z" stroke="#000" stroke-width=".628"/><path d="M593.633 170.483a15.685 45.22 0 1 0 0 90.438 15.685 45.22 0 1 0 0-90.438z" stroke="#000" stroke-width=".576" transform="matrix(.94296 -.3329 .39487 .91874 -625 0)"/><path d="M597.592 280.202a3.035 9.47 0 1 0 0 18.942 3.035 9.47 0 1 0 0-18.942z" stroke="#000" stroke-width=".575" transform="matrix(.90307 -.42995 .40797 .913 -625 0)"/><path d="M31.463 7.8c12.81 15.598 11.193 25.503 9.858 33.883-4.025-9.663-6.223-15.746-19.036-31.347-12.813-15.6-6.417-26.548-5.538-32.316C18.674-16.987 18.65-7.8 31.463 7.8z" stroke="#000" stroke-width=".575"/><path d="M32.617 20.398C45.427 36 43.81 45.9 42.474 54.28c-4.025-9.663-6.222-15.746-19.035-31.347C10.626 7.334 17.02-3.613 17.9-9.382c1.927 4.993 1.903 14.18 14.716 29.78z" stroke="#000" stroke-width=".575"/><path d="M33 30.545c13.12 15.323 11.7 25.26 10.533 33.667-4.217-9.576-6.536-15.61-19.658-30.936-13.123-15.325-6.948-26.405-6.183-32.19C19.718 6.036 19.878 15.22 33 30.546z" stroke="#000" stroke-width=".575"/><path d="M604.708 138.67a5.606 16.846 0 1 0 0 33.692 5.606 16.846 0 1 0 0-33.692z" stroke="#000" stroke-width=".58" transform="matrix(.96991 -.24664 .40429 .91463 -625 0)"/><path d="M609.043 99.876a4.96 13.81 0 1 0 0 27.62 4.96 13.81 0 1 0 0-27.62z" stroke="#000" stroke-width=".582" transform="matrix(.98553 -.16995 .38339 .92359 -625 0)"/><path d="M606.27 91.122a4.96 13.81 0 1 0 0 27.622 4.96 13.81 0 1 0 0-27.622z" stroke="#000" stroke-width=".582" transform="matrix(.9889 -.14859 .36408 .93014 -625 0)"/><path d="M606.932 95.502a4.016 10.54 0 1 0 0 21.082 4.016 10.54 0 1 0 0-21.082z" stroke="#000" stroke-width=".585" transform="matrix(.98364 -.18013 .43016 .90207 -625 0)"/><path d="M615.063 62.54a4.022 10.51 0 1 0 0 21.018 4.022 10.51 0 1 0 0-21.018z" stroke="#000" stroke-width=".585" transform="matrix(.99205 -.12587 .3758 .9267 -625 0)"/><path d="M8.62-15.768C12.408-6.513 13.94 1.81 12.04 2.81c-1.898 1-6.513-5.7-10.3-14.956" stroke="#000" stroke-width=".575"/><path d="M618.692 51.3a4.022 10.51 0 1 0 0 21.018 4.022 10.51 0 1 0 0-21.018z" stroke="#000" stroke-width=".585" transform="matrix(.99205 -.12587 .3758 .9267 -625 0)"/><path d="M615.93 40.776a4.023 10.5 0 1 0 0 21 4.023 10.5 0 1 0 0-20.998z" stroke="#000" stroke-width=".585" transform="matrix(.99433 -.1063 .3553 .93475 -625 0)"/><path d="M2.026-28.338c3.678 6.254 5.658 12.094 4.42 13.037-1.238.942-5.228-3.368-8.906-9.622" stroke="#000" stroke-width=".575"/><path d="M4.573-32.485c3.678 6.254 5.658 12.094 4.42 13.037-1.238.942-5.228-3.368-8.906-9.622m15.928-2.537c5.125 8.543 7.883 16.52 6.153 17.81-1.727 1.29-7.287-4.598-12.412-13.14" stroke="#000" stroke-width=".575"/><path d="M8.453-36.082c3.693 6.904 5.687 13.348 4.45 14.385-1.236 1.036-5.236-3.727-8.928-10.632" stroke="#000" stroke-width=".575"/><path d="M8.125-46.086c-2.465 2.482-.05 7.123 2.206 8.8 2.53 2.295 16.742 17.287 26.768 4.673-8.033-.146-23.026-19-28.974-13.473z" fill="#9461c9" stroke="#000" stroke-width=".59"/><path d="M6.37-53.486c-2.466 2.483-.05 7.124 2.205 8.802 2.53 2.294 16.742 17.286 26.77 4.672-8.034-.146-23.027-19.005-28.974-13.474z" fill="#9461c9" stroke="#000" stroke-width=".59"/><path d="M4.123-60.576c-2.465 2.482-.05 7.124 2.206 8.8 2.53 2.294 16.742 17.286 26.77 4.672-8.034-.146-23.027-19-28.975-13.473z" fill="#9461c9" stroke="#000" stroke-width=".59"/><path d="M-.758-68.687c-2.465 2.483-.05 7.124 2.206 8.8 2.53 2.295 16.742 17.287 26.768 4.673C20.183-55.36 5.19-74.218-.758-68.687z" fill="#9461c9" stroke="#000" stroke-width=".59"/><path d="M-18.27-76.448c5.08-3.78 14.41-4.884 21.68-1.183 6.055 2.966 16.147 15.073 23.734 17.935-5.34.952-8.588.147-12-1.492-6.74 4.88-9.14 5.61-16.008 6.57-9.552 1.378-17.48-1.108-20.266-6.09-2.84-4.7-1.616-12.238 2.86-15.74z" fill="#9461c9" stroke="#000" stroke-width=".628"/><path d="M-7.452-71.448a4.376 2.538 1.02 1 0-.09 5.076 4.376 2.538 1.02 1 0 .09-5.076z" fill="#d41c30" stroke="#000" stroke-width=".572"/><path d="M586.843 151.972a6.098 3.717 0 1 0 0 7.434 6.098 3.717 0 1 0 0-7.434z" fill="#fcd116" stroke="#000" stroke-width=".62" transform="rotate(-20.406 -312.5 1736.3101) skewX(-.055)"/><path d="M-7.694-70.44a1.573 1.36 1.02 1 0-.05 2.722 1.573 1.36 1.02 1 0 .05-2.722z" fill="#000"/><path d="M-17.127-65.515c.402 1.95-1.044 4.583-4.18 5.515-3.196 1.323-5.62 4.322-7.016 9.227-4.856-11.184-1.77-15.916 3.387-17.066 4.437-1.415 7.11-1.236 7.81 2.324z" fill="#fcd116" stroke="#000" stroke-width=".732"/></g></svg>