<svg xmlns="http://www.w3.org/2000/svg" viewBox="0 0 640 480" height="16" width="22"><path d="M320 0h320v480H320z" fill="#f5f5f5"/><path d="M0 0h320v480H0z" fill="#006233"/><path d="M423.923 180.01c-27.156-47.035-82.52-69.967-134.981-55.91C236.48 138.157 200 185.698 200 240.01c0 54.314 36.48 101.855 88.942 115.912 52.462 14.057 107.825-8.875 134.981-55.911-25.477 31.82-68.272 44.082-106.734 30.582-38.463-13.5-64.206-49.819-64.206-90.582 0-40.763 25.743-77.082 64.206-90.582 38.462-13.5 81.257-1.239 106.734 30.582zm4 60l-108-35.2 67.2 92v-113.6l-67.2 92z" fill="#d21034"/></svg>