<svg xmlns="http://www.w3.org/2000/svg" viewBox="0 0 640 480" height="16" width="22"><path d="M0 320h640v160H0z" fill="#da000c"/><path d="M0 0h640v320H0z" fill="#f5f5f5"/><path d="M208.569 218.068h120v82.487h-120z" fill="#000001"/><path d="M270.913 288.497h-73.257l-16.237 10.687v11.325h89.493v-22.012zm-30.657-47.383c10.545 0 19.159 8.793 19.159 19.631v27.713h13.768v-105h-75.525v105h23.438v-27.713c0-10.416 8.465-19.631 19.162-19.631z" fill="#da000c" stroke="#000001" stroke-width="1.875"/><path d="M223.49 112.429h34.731v63.675h-34.727z" fill="#000001"/><path d="M258.125 166.23h-30.394v-10.781H205.45v10.781h-15.117v-10.781h-9.024v19.571h76.817v-8.79zm-67.793 8.719h65.57v8.508h-65.57zm26.018-85.652v66.15h11.381v-18.16c0-6.806 4.806-12.374 11.528-12.716.215-.011.424 0 .643 0a12.712 12.712 0 0 1 12.716 12.713v18.165h10.841v-66.15zm-4.106-8.964v8.962h54.843v-8.962zm-7.032-17.168v17.168h65.804v-17.17h-10.137v8.732h-12.247v-8.732h-18.694v8.732h-12.244v-8.732zM181.42 299.183h89.831zm147.956-5.159h-60.821l-18.338 8.847v13.185h79.159zm-79.182 8.826h81.056" fill="#da000c" stroke="#000001" stroke-width="1.875"/><path d="M431.431 218.068h-120v82.487h120z" fill="#000001"/><path d="M369.087 288.497h73.257l16.237 10.687v11.325h-89.493v-22.012zm30.657-47.383c-10.545 0-19.159 8.793-19.159 19.631v27.713h-13.768v-105h75.525v105h-23.438v-27.713c0-10.416-8.465-19.631-19.162-19.631z" fill="#da000c" stroke="#000001" stroke-width="1.875"/><path d="M416.51 112.429h-34.731v63.675h34.727z" fill="#000001"/><path d="M381.875 166.23h30.394v-10.781h22.282v10.781h15.117v-10.781h9.024v19.571h-76.817zm67.793 8.719h-65.57v8.508h65.57zM423.65 89.297v66.15h-11.381v-18.16c0-6.806-4.806-12.374-11.528-12.716-.215-.011-.423 0-.643 0a12.712 12.712 0 0 0-12.716 12.713v18.165H376.54v-66.15l47.109-.002zm4.106-8.964v8.962h-54.843v-8.962zm7.032-17.168v17.168h-65.804v-17.17h10.137v8.732h12.247v-8.732h18.694v8.732h12.244v-8.732l12.481.002zm23.793 236.018H368.75zm-147.956-5.159h60.821l18.338 8.847v13.185h-79.159zm79.181 8.826H308.75" fill="#da000c" stroke="#000001" stroke-width="1.875"/><g fill="#f8d80e" stroke="#000001"><path d="M352.432 281.306c-4.976 1.658-9.475 4.444-14.006 7.039-5.813 3.431-11.45 7.176-16.694 11.437-1.846 1.215-3.618 2.55-5.043 4.26-1.922 1.647-3.87 3.854-3.503 6.587.094 1.204 1.637-1.417 2.651-1.545a8.231 8.231 0 0 1 5.892-.88c2.381-2.513 5.456-4.195 8.11-6.389 5.632-4.208 11.692-7.819 17.858-11.179 2.153-1.106 4.313-2.224 6.61-3.004l-1.875-6.328z" stroke-width="1.44"/><path d="M328.25 295.106v7.337m4.532-10.534v7.281m4.53-10.103v7.234m4.532-10.02v7.463" stroke-width="1.875"/><path d="M287.919 281.543l-2.224 6.211c10.38 3.938 20.265 9.145 29.62 15.113 3.172 2.156 6.502 4.247 8.994 7.21.55 1.518-.964 2.793-2.464 2.332-1.373-.469-2.724-1-4.174-.01-2.075.944-3.949 4.013-.799 5.044 4.343 2.918 11.406 1.65 13.493-3.457 1.087-2.625 1.159-5.991-.953-8.145-3.868-4.433-8.994-7.515-13.912-10.635-8.794-5.288-17.951-10.077-27.576-13.665z" stroke-width="1.44"/><path d="M316.344 296.316l-.587 6.262m5.803-3.065l-1.616 6.13m7.189-1.87l-3.39 4.756m5.098 6.809l-4.894-2.625m6.418-2.532l-5.616.525m-1.627 7.603l-.385-4.937m-1.672-.705l-4.637 3.417m-17.659-29.327v5.84m11.787.36v6.627m-5.894-9.722v6.225M282.087 426.68v15.057h9.435v-7.556h12.833v7.556h10.136V426.68zm0 20.742v15.118h32.404v-15.118h-10.136v7.556h-12.833v-7.556z" stroke-width="1.875"/><path d="M314.472 363.094h9.357v108.967h-9.357z" stroke-width="1.875"/><path d="M314.472 372.525h9.357v93.862h-9.357z" stroke-width="1.875"/><path d="M319.15 336.386l19.923 11.603-19.922 11.542-19.922-11.542 19.922-11.603zm-26.662 7.444h-5.212v8.318h5.212l26.663 15.468 26.662-15.468h5.213v-8.32h-5.213l-26.662-15.469z" stroke-width="1.92"/><path d="M318.77 308.025c-4.538.638-7.924 5.119-7.676 9.628.019 7.009-.034 14.018.026 21.026.244 4.514 4.187 8.56 8.766 8.601 3.72.352 7.458-1.823 9.018-5.212l-3.22-1.932c-.833 2.218-3.233 3.595-5.57 3.338-3.063.086-5.546-2.895-5.272-5.877.019-6.961-.038-13.927.028-20.887.169-2.843 2.878-5.166 5.715-4.875 1.174-.338 2.788 1.267 3.516-.118 1.093-1.556-.778-2.77-1.82-3.632-1.148-.16-2.348-.015-3.513-.06zm10.837 7.326c-.74 1.398-2.278 2.23-3.513 2.962v14.089l3.75 2.17c-.015-6.008.03-12.016-.019-18.02-.062-.37-.019-.937-.216-1.2z" stroke-width="1.92"/></g><path d="M291.506 71.906h54.993v99.855h-54.993z" fill="#000001"/><path d="M287.656 71.953v83.556h17.462V130.72c0-5.715 3.66-13.65 14.882-13.65s14.884 7.935 14.884 13.65v24.788h17.46V71.95l-64.688.002zm29.65 9.375h5.39v28.594h-5.39zm-15.47 5.625h5.45v20.916h-5.451l.002-20.916zm30.878 0h5.453v20.916h-5.45zm-50.975-27.01v11.894h76.522V59.942l-76.522.002zm-7.208-13.83v13.829h90.938v-13.83h-11.426v7.616h-12.891v-7.616h-14.704v7.616h-12.89v-7.616H298.85v7.616h-12.892v-7.616l-11.427.002zm-16.875 137.344v8.614h124.688v-8.614z" fill="#da000c" stroke="#000001" stroke-width="1.875"/><path d="M252.556 155.449v28.009h134.888v-28.009h-12.776v10.781h-16.992v-10.781h-22.792v10.781h-29.766v-10.781h-22.794v10.781h-16.992v-10.781zm16.234 36.622v101.893h24.08v-38.143c0-17.966 11.997-26.424 27.132-26.424 14.55 0 27.131 8.456 27.131 26.426v38.143h24.079V192.073z" fill="#da000c" stroke="#000001" stroke-width="1.875"/></svg>