<svg xmlns="http://www.w3.org/2000/svg" xmlns:xlink="http://www.w3.org/1999/xlink" viewBox="0 0 640 480" height="16" width="22"><path d="M0 0h640v480H0z" fill="#171796"/><path d="M0 0h640v320H0z" fill="#fff"/><path d="M0 0h640v160H0z" fill="red"/><path d="M320.03 364.149c51.322 0 93.309-41.99 93.309-93.309V159.964h-186.62V270.84c0 51.322 41.99 93.309 93.31 93.309z" fill="red"/><path d="M320.03 362.654c50.343 0 91.53-41.189 91.53-91.53V161.76H228.5v109.365c0 50.342 41.188 91.529 91.53 91.529z" fill="#fff"/><g fill="red"><path d="M267.133 165.2H231.91v38.701h35.224z"/><path d="M267.133 242.6h35.225v-38.7h-35.225zm-35.223 28.31c0 3.513.217 6.98.622 10.39h34.601v-38.7H231.91zm105.675-28.31h-35.227v38.7h35.227zm0 77.398h35.224V281.3h-35.224zm35.225 21.17a89.19 89.19 0 0 0 20.11-21.167h-20.11zm-105.674-21.17h35.224V281.3h-35.224zm-20.144 0a89.168 89.168 0 0 0 20.144 21.194v-21.194zm79.114 38.701a87.568 87.568 0 0 0 11.476-1.566v-37.135h-35.224v37.14a87.06 87.06 0 0 0 11.443 1.558c4.102.254 8.203.24 12.303 0z"/><path d="M407.375 281.3c.407-3.422.625-6.9.625-10.426v-28.272h-35.193v38.7h34.568zm-69.79-38.7h35.224v-38.7h-35.224z"/><path d="M337.585 165.2H302.36v38.701h35.225zM408 203.901v-38.7h-35.19v38.7z"/></g><path d="M409.972 158.829l21.84-49.509-16.639-26.87-27.568 10.207-19.355-22.125-25.504 14.616-22.742-18.626-22.74 18.626-25.505-14.616-19.357 22.123-27.569-10.206-16.644 26.876 21.813 49.518c27.485-12.44 57.96-19.372 90.005-19.372 32.03 0 62.491 6.926 89.97 19.358z" fill="#fff"/><path d="M253.008 94.842l-.04.047-27.338-10.123-15.299 24.701 5.86 13.324 14.846 33.701a219.671 219.671 0 0 1 34.582-11.962l-12.608-49.686z" fill="#0093dd"/><path d="M251.435 119.268a13.258 13.258 0 0 1 1.533 6.201c0 7.36-6.002 13.362-13.362 13.362-6.486 0-11.917-4.663-13.116-10.808 2.308 4.08 6.69 6.844 11.694 6.844 7.395 0 13.428-6.03 13.428-13.429 0-.739-.061-1.464-.177-2.173z" fill="#fff" stroke="#000001" stroke-width=".28"/><path d="M227.76 114.064l-.216.073.045-.222.932-4.794-3.678-3.216-.17-.149.213-.073 4.618-1.59.945-4.794.045-.22.169.146 3.687 3.207 4.623-1.579.216-.073-.045.22-.932 4.796 3.68 3.216.169.147-.214.073-4.618 1.593-.946 4.793-.045.22-.168-.148-3.687-3.204z" fill="#000001"/><path d="M233.639 107.59l3.448 3.007 4.315-1.485zm.028-.151l7.766 1.518-3.436-3.004zm-8.336-1.633l7.763 1.519-3.448-3.005zm7.734 1.673l-7.765-1.52 3.436 3.003zm.435-.292l5.198-5.964-4.32 1.474zm-5.584 6.405l5.2-5.964-4.328 1.484zm5.318-5.862l-5.2 5.964 4.32-1.474zm5.583-6.405l-5.2 5.964 4.328-1.483zm-5.619 5.881l-2.566-7.483-.884 4.479zm2.756 8.038l-2.566-7.483-.88 4.488zm-2.419-7.535l2.566 7.485.884-4.478zm-2.756-8.038l2.566 7.486.88-4.49z" fill="#f7db17"/><path d="M297.5 87.406l-.047.038-25.291-14.493-19.154 21.89 12.609 49.687a219.78 219.78 0 0 1 36.118-6.033l-4.237-51.09z" fill="#171796"/><path d="M262.489 132.196a232.251 232.251 0 0 1 38.196-6.379l-1.071-12.914a245.548 245.548 0 0 0-40.314 6.732l3.187 12.561zm-6.339-24.971a257.957 257.957 0 0 1 42.405-7.082l-1.052-12.678a270.721 270.721 0 0 0-44.483 7.429z" fill="red"/><g transform="translate(-160) scale(.00237)"><path d="M212105 36890l-23 13-9517-7794-9497 7778 1788 21560c2543-210 5113-322 7709-322 2608 0 5190 113 7744 325l1795-21560z" fill="#0093dd"/><g id="flag-hr-a"><path d="M202545 46585c-18-2-44 10-69 45-186 250-359 469-545 720-195 61-242 180-167 348-261-26-291 193-302 432-250-379-522-482-814-307-11-230-187-338-439-392-180-10-319-65-436-145-60-42-110-64-170-106-126-88-226-5-172 74 267 434 535 868 802 1302-14 80 6 151 88 204 47 133 93 265 140 397-11 38-21 75-32 113-221-105-443-118-664-133-170-8-287-50-361-137-54-63-91-26-92 82-3 534 162 1014 599 1492-231 4-462 11-694 21-79 6-95 39-73 104 126 304 339 579 822 766-208 112-327 285-357 520-9 224-75 382-212 455-60 32-81 65-24 106 253 185 565 193 895 112-157 270-226 553-198 850 208 56 412 15 614-52-29 61-44 175-52 309-7 115-41 229-104 343-32 33-65 84 4 102 336 91 648 52 915-47 0 243 2 487 76 727 18 58 70 102 125 26 155-214 322-396 527-517 31 90 75 168 156 215 96 55 147 170 153 343 0 30-2 60 35 90 149 7 514-380 589-597 206 121 284 246 439 461 55 76 99 29 128-25 62-243 67-481 66-724 267 99 579 138 915 47 69-19 36-70 4-102-62-114-105-250-113-365-9-133-14-226-43-287 202 68 405 108 614 52 29-297-53-579-211-850 330 80 655 73 908-112 57-41 35-74-24-106-136-73-203-231-212-455-30-235-149-409-357-520 483-187 696-463 822-766 22-66 6-99-73-104-231-10-480-24-711-27 437-478 606-961 604-1495-1-108-38-146-92-82-74 87-179 137-348 146-222 15-435 24-656 128-11-38-21-75-32-113 46-132 106-260 153-393 82-53 102-123 88-204 267-434 513-868 781-1302 54-79-46-162-171-74-60 42-110 64-170 106-117 80-257 134-437 145-251 54-417 167-428 397-293-175-564-73-814 307-11-239-41-457-302-432 75-168 17-291-178-352-186-250-458-470-644-720-31-35-51-47-69-45z" fill="#000001"/><g fill="#f7db17"><path d="M205075 47978c-51-26-124 17-162 95s-33 170 19 196c40 20 84-6 119-56l22-36c2-3 4-6 5-9 38-78 49-163-2-188zm-5008 0c52-26 124 17 162 95s39 165-13 191-103-24-141-102-60-158-9-184zm4539 905c-32 0-59 27-59 59s26 59 59 59 59-26 59-59c0-32-26-59-59-59zm-4032 0c-32 0-59 26-59 59 0 32 26 59 59 59s59-26 59-59-26-59-59-59zm4294-304c-754-91-1506-133-2260-133s-1509 41-2269 115c-26 8-21 90 14 86 756-73 1507-113 2256-113 743 0 1485 40 2228 129 39 4 54-80 32-84z"/><path d="M200319 48495c768-75 1530-117 2289-116 754 0 1507 42 2261 133l111-184c-32 10-62 9-90-5-76-38-92-161-36-274 56-114 164-175 240-138 39 19 62 62 68 114l446-739c-204 130-328 214-581 252-281 41-409 139-368 307 38 156-57 133-201 54-314-171-541 71-652 353-73 186-159 181-168-13-4-70 0-131-7-200-21-223-89-286-216-224-161 78-175 25-137-58 28-60 86-128 66-221-9-67-66-92-151-98-182-244-467-483-649-727-182 244-374 483-556 727-86 5-142 30-152 98-20 93 52 157 80 217 38 82 23 135-137 57-127-61-186-3-207 220-7 69-10 139-13 209-9 194-95 199-168 13-111-282-352-524-667-353-145 79-203 102-182-54 23-172-107-266-388-307-253-37-377-122-581-252l419 682c12-25 29-45 53-57 76-38 184 24 240 138 56 113 40 237-36 274-10 5-21 8-32 10l100 163zm4389 911c-7 3-7 4-24 11-46 19-80 66-134 124-57 60-128 125-211 188-12 10-25 19-44-6s-7-35 6-44c80-62 149-124 204-182 30-32 56-63 77-92-95-11-190-21-284-30-79 24-157 55-222 95-59 35-107 77-137 125-8 14-16 27-44 11-27-16-19-30-11-44 35-58 91-107 158-147 33-20 69-38 106-54-107-9-214-18-321-25-22 13-42 29-61 47-20 19-39 42-56 67-9 13-18 26-44 8s-18-31-8-44c19-29 41-54 64-77l9-9c-80-5-161-10-241-14-2 2-5 5-8 7-21 18-40 38-55 59s-28 43-38 67c-6 15-12 29-41 18-29-12-23-26-17-41 12-29 27-55 45-81 8-11 18-22 27-33-115-5-230-9-344-12-4 5-9 8-14 11-25 15-47 32-66 51s-35 40-48 63c-8 14-16 28-43 12-28-16-20-29-12-43 16-28 35-54 59-77 7-7 14-13 21-19-122-2-244-4-365-4-120 0-240 1-360 3 8 7 15 13 22 20 23 23 42 49 59 77 8 14 16 27-12 43s-35 2-44-12c-13-23-29-44-48-63s-41-36-66-51c-6-3-12-7-15-12-115 2-230 6-345 11 11 11 20 23 29 35 19 25 33 52 45 81 6 15 12 29-17 41s-35-3-41-18c-9-24-22-46-38-67-15-21-34-41-55-59-4-3-7-6-10-10-81 4-162 8-243 13 4 4 9 8 13 12 24 23 45 48 64 77 9 13 18 26-8 44s-35 5-44-8c-18-26-36-48-56-67s-41-35-64-49c-1-1-3-2-5-3-110 7-220 14-330 23 43 18 85 38 122 61 67 40 124 89 158 147 8 14 16 27-11 44-27 16-35 3-44-11-29-48-78-90-137-125-72-44-159-77-246-102h-2c-90 7-179 15-268 24 22 33 51 68 86 106 55 58 124 120 204 182 13 9 25 19 6 44s-32 15-44 6c-83-64-155-128-211-188-37-38-99-111-135-140-196-90-354-127-575-147-153-14-318-9-458-79 36 85 75 164 126 229 53 68 120 121 209 147 8 2 21 16 22 25 28 157 84 286 169 386 52 60 114 110 188 149-75-81-132-166-172-251-67-142-90-286-77-420 1-16 3-32 34-29 32 3 30 19 29 35-11 123 9 256 72 387 56 118 159 237 291 346 24 19 0 63-29 55-154-44-290-123-383-231-89-104-149-237-180-397-94-32-165-90-222-164-47-60-85-131-118-205 28 428 182 801 456 1137 61 75 165 182 255 216 92 35 95 100-20 101-34 1-69 1-105 1 84 31 164 66 233 105 127 73 217 162 224 273 1 16 2 32-29 34-32 2-33-14-34-29-6-86-82-160-192-223-113-65-259-117-402-160-154 0-312-1-459 3 39 28 80 57 131 84 82 44 188 86 343 122 89 21 166 52 233 91 71 42 130 93 177 150 10 12 20 25-5 45s-34 8-45-5c-42-52-95-98-159-135-61-36-133-64-216-84-161-38-272-81-358-128-75-40-131-82-184-123 180 393 450 573 835 689 23 7 43 13 61 19 3 1 6 1 9 2 86 21 175 40 266 55 92 15 166 28 261 37 16 1 32 3 29 34-3 32-19 30-34 29-99-9-174-22-266-38-58-10-115-21-171-33-26 6-64 9-107 12-232 14-420 225-435 494 0 5 0 11-1 16 88-80 179-157 273-212 117-68 239-103 364-69 15 4 31 8 22 39-8 31-23 27-39 22-106-28-212 3-316 63-108 63-213 158-315 253-24 147-82 285-205 377 61 34 104 65 163 45 86-39 172-78 261-108 91-31 184-52 282-57 16-1 32-1 33 31s-14 32-31 33c-91 4-179 24-264 53-75 26-149 58-222 91 221 47 460-1 667-79 60-22 105-42 133-41 51-30 112-53 172-79 66-28 132-51 182-57 16-2 32-4 35 28 4 32-12 33-28 35-112 13-127 21-222 79 0 21-66 57-126 96-36 24-70 52-87 67-95 86-144 181-188 287-29 70-52 145-68 224 55-108 121-211 201-303 94-108 208-201 345-265 14-7 29-13 42 15 13 29-1 35-15 42-129 60-236 147-324 250-90 103-161 222-219 345-31 64-8 1-42 86 110-122 212-224 323-307 132-100 283-157 418-133 15 3 31 6 26 37s-21 28-37 26c-116-21-250 32-369 121-121 92-244 223-366 361 184 26 366-26 542-85 91-30 183-135 239-152 19-24 38-46 57-67 33-37 67-71 102-100 12-10 24-20 45 4s8 34-4 45c-33 28-65 60-96 94-32 35-62 73-92 113-6 8-13 17-24 16-60 70-151 162-172 240-57 210-25 370-122 576 71-38 128-81 175-134 53-60 94-135 128-230 37-104 95-195 167-270 75-77 165-136 261-172 15-5 30-11 41 19s-4 35-19 41c-87 32-169 86-238 157-66 68-119 151-153 247-37 102-81 183-141 250-44 50-95 91-156 127 52-3 78-10 121-7 79-6 211-66 279-119 66-51 116-120 154-206 6-15 13-29 42-16s23 27 16 42c-42 96-99 174-173 231-56 43-121 75-196 93 161-5 311-42 467-100 65-24 87-168 127-208 32-58 66-112 105-158 47-56 101-101 164-127 15-6 29-12 41 18 12 29-3 35-17 41-52 21-98 60-139 108-36 42-68 93-98 147 10 73-51 228-53 305-7 205-2 409 53 612 53-71 107-134 162-192 0-5 0-10 1-15 18-106 33-219 40-332 7-112 7-223-6-329-2-16-4-32 27-35 32-4 34 12 35 28 14 111 14 226 7 340-6 90-16 180-30 269 54-51 53-51 77-103 37-80 59-159 67-237 9-80 5-157-13-230-4-15-7-31 24-38s35 8 38 24c19 80 25 165 14 252-8 65-24 132-49 199 56-42 114-82 178-122-4-75-5-153-3-227 2-68 7-134 18-190 4-20 7-40 47-33s37 27 33 48c-9 50-14 111-16 177-2 78 0 162 4 243 5 82 49 185 125 230 103 62 158 163 186 274 16-145 17-280 3-400-17-143-55-267-114-368-8-14-16-27 12-44 27-16 35-2 43 12 63 110 104 241 122 393 17 146 13 310-13 488 102-82 381-258 352-594-7-27-16-52-28-75-7-14-14-28 14-42s35 0 42 14c17 33 30 69 39 110 5 24 8 49 11 76 13-7 45-43 51-39 24 16 58 38 80 54-21-60-35-120-42-178-10-87-5-172 14-252 4-15 7-31 38-24s27 23 24 38c-18 73-22 151-13 230 9 77 31 157 67 237 4 8 8 16 5 25 24 21 47 42 70 65-13-84-22-170-28-255-8-115-7-230 7-341 2-16 4-32 35-28s29 20 27 35c-13 106-13 217-6 329 7 113 22 225 40 332 1 2 1 5 1 7 54 59 95 120 152 196 55-203 73-407 66-612-2-76-69-227-65-302-30-55-63-107-100-151-41-49-87-87-139-108-15-6-29-12-18-41 12-29 27-24 41-18 62 26 117 71 164 127 38 45 72 98 103 154 57 7 78 179 143 212 154 57 298 94 453 100-75-19-140-50-195-93-74-57-131-135-173-231-6-15-13-29 16-42s35 2 42 16c38 86 88 156 154 206 85 66 289 124 400 127-61-37-113-78-157-128-59-67-104-148-141-250-34-95-87-179-153-247-68-71-150-124-238-157-15-6-29-11-19-41 11-29 26-24 41-19 96 36 186 94 261 172 72 74 130 166 167 270 34 95 75 169 128 230 47 54 105 98 177 135-98-207-66-367-122-577-35-129-232-277-193-320 45-51 133 88 248 127 175 59 357 111 540 85-122-138-244-269-366-361-119-90-237-140-352-120-16 3-31 6-37-26-5-31 10-34 26-37 135-24 269 32 401 132 111 84 201 175 311 298-18-47 0-14-30-77-59-123-130-241-220-345-89-102-196-189-324-250-14-7-28-13-15-42 13-28 28-22 42-15 137 65 251 157 345 265 81 93 147 198 203 307-15-81-39-157-68-227-44-106-93-201-188-287-62-56-209-140-208-179-29-15-33-11-63-24-61-26-121-46-164-52-16-2-32-4-28-35 4-32 19-30 35-28 50 6 115 28 182 56 33 14 66 43 98 60 53 4 139 47 208 74 206 78 446 126 666 79-73-33-147-65-223-91-85-29-172-49-264-53-16-1-32-1-31-33s17-31 33-31c98 4 191 26 282 57 89 30 175 69 261 108 59 27 101-7 163-45-123-92-181-230-205-376l-2-2c-102-95-207-190-315-253-104-60-210-91-316-63-15 4-31 8-39-22-8-31 7-35 22-39 125-33 247 1 364 69 94 55 186 132 274 213 0-6-1-11-1-17-15-270-203-480-435-494-78-5-189 21-186-32 4-59 97-44 234-86 385-116 655-296 836-690-54 41-110 83-186 124-86 47-198 91-358 128-82 19-154 48-216 84-64 38-117 84-159 135-10 12-20 25-45 5s-14-32-5-45c47-57 106-108 177-150 67-39 145-70 233-91 155-36 261-78 343-122 51-27 92-55 131-84-148-4-305-3-459-3-143 44-289 96-402 160-110 63-186 136-192 223-1 16-2 32-34 29-32-2-31-18-29-34 8-111 97-200 224-273 69-39 149-74 233-105-35 0-70 0-104-1-116-2-112-66-20-101 90-34 190-141 251-216 271-334 412-714 456-1130-33 72-69 140-115 198-57 73-128 131-222 164-31 160-91 293-180 397-92 108-216 185-369 230-29 8-52-35-29-55 132-109 221-226 278-344 62-131 83-264 72-387-1-16-3-32 29-35 31-3 33 13 34 29 12 134-10 278-78 420-40 85-97 170-172 251 73-39 136-89 187-149 85-100 141-229 170-386 1-8 14-22 22-25 89-27 155-79 209-147 51-65 90-143 126-228-140 69-304 64-457 78-213 19-369 68-554 152z"/><path d="M204649 49231c-680-88-1359-113-2041-114-684 0-1369 40-2058 112-20 6-15 33-14 46 2 28 37 35 121 27 643-60 1285-93 1932-93 674 0 1351 21 2038 102 33 9 77-85 22-81z"/><path d="M200570 49160c683-71 1362-110 2038-110 675 0 1349 40 2025 127l31-127c-17 9-37 15-58 15-67 0-123-55-123-123s55-123 123-123c51 0 94 31 113 75l60-170c-724-84-1446-122-2171-122-729 0-1459 38-2193 107l58 164c22-32 59-54 101-54 68 0 123 55 123 123s-55 123-123 123c-12 0-25-2-36-6l33 94-2 7zm3067-416c-68 0-123 55-123 123s55 123 123 123 123-55 123-123-55-123-123-123zm0 64c-33 0-59 27-59 59s26 59 59 59c32 0 59-27 59-59s-26-59-59-59zm-1082-91c-67 0-123 55-123 123s55 123 123 123 123-55 123-123-55-123-123-123zm0 64c-32 0-59 26-59 59s26 59 59 59 59-26 59-59c0-32-26-59-59-59zm-1064-40c-68 0-123 55-123 123s55 123 123 123c67 0 123-55 123-123s-55-123-123-123zm0 64c-33 0-59 26-59 59s26 59 59 59c32 0 59-26 59-59 0-32-26-59-59-59z"/></g><g fill="#000001"><path d="M202601 47974c-14-68-49-129-100-175-51-47-116-78-187-88-33-4-39-58-7-68 60-20 114-67 157-133 45-69 79-157 95-256 5-34 64-35 69-1 15 84 51 153 97 208 55 66 125 112 193 138 31 12 25 63-8 68-59 9-105 42-141 87-50 62-81 145-100 221-8 33-62 31-69-2zm33-118c20-52 47-103 81-146 28-34 60-64 99-84-51-30-100-70-143-120-28-34-53-73-73-116-19 59-45 112-75 158-31 47-67 86-108 116 50 19 95 47 134 82 34 31 63 68 85 110zm799 5115l-515 206c-17 7-35 14-48-21-14-34 4-41 21-48l515-206c17-7 35-14 48 21 14 34-4 41-21 48zm59-326l-604 328c-16 9-33 18-51-15s-1-42 15-51l604-328c16-9 33-18 51 15s1 42-15 51zm-1826-65l604 328c16 9 33 18 15 51s-34 24-51 15l-604-328c-16-9-33-18-15-51s34-24 51-15zm51 322l515 206c18 7 35 14 21 48-14 35-31 28-49 21l-515-206c-17-7-34-14-21-48 14-35 31-28 48-21zm224 434c137 33 261 48 358 31 88-16 155-60 191-146v-493c-107-1-212-15-303-41-109-31-170-98-201-178-41-107-27-235-4-329 5-18 9-36 45-27s32 27 27 45c-20 82-33 194 1 284 23 60 69 110 152 133 91 25 198 38 307 38 107 0 214-13 304-40 82-24 148-69 192-123s65-117 57-176c-5-36-24-62-49-80-34-24-82-35-128-37-47-2-94 7-142 16-25 5-50 9-77 13-19 2-37 5-42-32s14-40 32-42c23-3 48-8 73-12 52-10 105-20 159-18 60 2 121 18 168 51 42 29 72 72 80 131 11 80-16 163-73 233-53 65-131 119-229 147-83 24-178 38-274 42v483c3 5 3 11 2 16 37 82 102 125 188 141 97 18 221 2 358-31 18-5 36-9 45 27 8 37-9 41-28 45-146 35-279 51-388 32-92-17-165-58-215-132-49 74-124 115-215 132-109 20-242 4-388-32-18-4-37-8-28-45 8-36 27-32 45-27zm356 210l402-9c19 0 38-1 38 37 1 38-18 38-37 38l-402 9c-19 0-37 1-38-37s18-38 37-38zm593-3082c151-125 293-227 423-297 133-72 254-111 359-106 19 1 37 1 36 39-1 37-20 37-39 36-92-4-200 32-322 97-125 67-263 166-410 289-14 12-29 24-53-5s-9-41 5-53zm-605 56c-141-130-298-240-445-314-139-71-268-108-363-100-19 2-37 4-40-34-4-37 15-39 34-40 110-10 252 31 404 107 152 77 315 191 461 325 14 13 28 25 2 53-25 27-39 15-53 2zm-213 1004c37-83 83-155 136-219 53-63 112-119 174-170 14-12 29-24 52 5 24 29 9 41-5 53-59 48-114 101-164 160-49 59-91 125-125 201-8 17-15 34-49 19s-27-32-19-49zm371-1734c49 66 88 139 114 223 26 82 40 175 39 279 5 80 6 165-7 249-13 86-42 170-97 246-43 60-101 97-165 113-53 13-109 10-164-7 29 100 51 208 6 308-8 18-33 27-51 18-43-22-86-43-128-62s-84-36-127-51l-1-1c-95-37-173-73-236-112-65-39-115-80-150-124l1 2c-44-49-72-106-88-170-14-55-20-114-22-174-72-39-138-78-194-116-64-43-118-87-161-131-13-14-26-27 1-53s40-12 53 1c39 40 89 80 150 121 60 40 128 81 204 121 124 13 247 51 370 109 106 50 211 115 317 192 13 7 19 16 27 20 8 6 16 13 25 19 51 22 104 28 152 16 47-11 90-39 122-84 48-66 72-139 84-214 12-77 11-157 6-234v-2c1-97-12-183-35-258-24-76-58-142-102-201-11-15-22-30 7-52s41-7 52 7zm-375 1047c-104-77-207-141-311-190-105-49-210-83-314-98 2 48 8 93 18 135 13 52 35 99 71 138l1 1c30 37 73 72 130 107 60 36 134 71 225 106l-1-1c45 16 89 34 133 54 31 14 61 28 93 44 19-83-10-179-37-267-2-8-5-15-9-29zm776-1003c-44 59-79 125-102 201-24 76-36 161-35 258v2c-5 77-6 158 6 234 12 75 37 148 84 214 32 45 75 72 122 84 48 12 101 6 152-16 8-6 17-13 25-19 6-4 13-12 27-20 105-77 211-143 317-192 123-58 246-95 370-109 75-40 144-80 204-121s111-81 149-121c13-13 26-27 53-1s14 39 0 53c-43 44-97 88-161 131-57 38-122 77-194 116-2 61-8 119-22 174-16 63-44 121-88 170l1-2c-35 44-85 85-150 124-63 38-141 75-237 112l-1 1c-43 15-85 32-127 51-43 19-85 40-128 62-18 9-43 0-51-18-45-100-23-208 6-308-55 18-111 20-164 7-64-15-122-53-165-113-55-76-84-160-97-246-13-85-12-169-7-249-1-104 13-196 39-279 26-84 65-158 114-223 11-15 22-30 52-7 30 22 19 37 7 52zm940 715c-105 15-209 49-314 98-104 49-207 113-311 190-4 13-6 21-8 29-27 88-56 184-37 267 31-15 62-30 93-44 44-20 87-38 133-54l-1 1c91-35 165-70 225-106 58-34 100-70 131-107l1-1c35-39 57-86 71-138 11-42 16-87 19-135z"/><path d="M203459 50602c-119 0-216 97-216 216s97 217 216 217 216-97 216-217c0-119-97-216-216-216zm0 69c-81 0-147 66-147 147s66 147 147 147 147-66 147-147-66-147-147-147zm0 60c-48 0-87 39-87 87s39 87 87 87 87-39 87-87-39-87-87-87zm-1697-124c119 0 217 97 217 216s-97 217-217 217c-119 0-216-97-216-217 0-119 97-216 216-216zm0 69c81 0 147 66 147 147s-66 147-147 147-147-66-147-147 66-147 147-147zm0 60c48 0 87 39 87 87s-39 87-87 87-87-39-87-87 39-87 87-87z"/></g></g><use transform="rotate(-2.173 -55532.79 156275.84)" xlink:href="#flag-hr-a"/><use transform="rotate(2.18 459865.85 156275.76)" xlink:href="#flag-hr-a"/></g><path d="M387.098 94.868l-.06.021-19.193-21.938-25.237 14.464-4.256 51.09a219.68 219.68 0 0 1 36.116 6.044l12.627-49.679z" fill="#171796"/><path d="M347.587 98.015c.877-.214 1.741-.259 2.58.256.368.151.645.345.815.594.39-.3.785-.583 1.195-.824.576-.427 1.163-.804 1.796-1.015.905-.46 1.808-.732 2.713-.815.957-.163 1.92-.173 2.877-.116a5.181 5.181 0 0 1 2.308.692l2.002.998c.706.393 1.413.749 2.119 1.047.895.353 1.902.472 2.976.512.526.019 1.043.019 1.55-.116.41-.11.665.151.213.429-3.318 2.035-5.917.225-8.135-.586a16.12 16.12 0 0 1 2.133 1.7c.843.812 1.786 1.637 3.455 2.398 1.011.46 2.113.822 3.528.834a8.96 8.96 0 0 0 1.554-.107c.282-.045.403-.019.408.128.005.1-.021.299-.19.41-.855.573-1.66.725-2.559.782-1.71.109-3.54-.453-5.213-1.35-1.339-.721-2.242-1.598-3.308-2.385-1.064-.784-1.983-1.22-2.971-1.429-.974-.208-2.029-.184-2.917.09.265.053.49.178.627.337.458.27 1.046.389 1.896.486.443.052.306.358-.377.725-.41.528-.943.813-1.651.744-.976.647-1.325.256-1.652-.168a2.93 2.93 0 0 1-.234.784.602.602 0 0 1-.015.427c.157.241.233.476.18.734.027.138.072.27.218.394.204.184.335.398.36.658.003.173.098.315.235.443.2.164.4.308.6.553.59.213.862.665.96 1.25.445.145.63.467.717.851.254.107.486.235.619.46.91.002 1.798.002 2.63.09.78.083 1.415.569 1.984 1.2.383.058.772.077 1.17-.013.41-.18.844-.317 1.315-.358.78-.066 1.562-.106 2.306.072.505.12.898.388 1.22.753.465.529 1.18.457 1.792.197.83-.353 1.519-.341 2.367.03.363-.14.725-.206 1.088-.168.31-.336.64-.42.978-.429.552-.019.953.067.849.775-.029.192-.143.377-.287.443-.254.548-.737.709-1.35.657-.067.377-.221.656-.468.836.282.87.012 1.218-.632 1.206-.135.252-.337.408-.68.358a1.38 1.38 0 0 1-.872.514c.038.228.135.335.296.579.438.663-.22.93-.822.94.154.439.173.877.118 1.316.614.372.697.763.13 1.149.415.725.254 1.258-.523 1.647-.012.405-.052.812-.323 1.04-.184.156-.45.185-.274.479.315.52.246 1.18-.22 1.199-.1-.01-.19.004-.198.163 0 .055-.047.11-.14.164-.559.3-1.082.644-1.563 1.04-.071.047-.142.08-.214.016-.35.763-1.004 1.538-1.727 2.318-.111.573-.436.962-.974 1.163a.41.41 0 0 1-.32.327c.301.335.415.657.123.974-.357.391-.829.773-1.3.894-1.003.256-1.63.208-2.034-.176-.355-.338-.215-.594.01-.701-.619.05-.744-.277-.728-.713.036-.218.11-.19.327-.183.337.01.64-.173.958-.277.123-.209.284-.389.483-.54.111-.702.555-1.09 1.156-1.32.486-.185.95-.654 1.4-1.26.278-.48.558-.956.835-1.434a1.236 1.236 0 0 1-.254-.761 1.478 1.478 0 0 1-.556-.517c-.436-.03-.617-.227-.68-.5-.1.003-.209-.007-.327-.042-.214.137-.43.258-.697.246a6.895 6.895 0 0 1-1.09.91c-.13.36-.389.505-.704.55-.896.106-1.431 1.223-1.924 1.678-.2.146-.322.407-.41.72-.043.588-.145 1.047-.467 1.057-.289-.012-.334-.043-.343-.074a1.186 1.186 0 0 0-.377.017c.241.265.28.6.057.893-.223.29-.543.38-.851.4-.637.043-1.154-.014-1.633-.208-.457-.187-.512-.46-.497-.725-.33-.156-.396-.313-.36-.467.045-.199.227-.3.457-.237a2.44 2.44 0 0 1 .597-.196c.578-.624 1.173-1.16 1.827-1.408.192-.232.412-.44.68-.614.076-.559.443-1 .893-1.41a2.03 2.03 0 0 1 .22-.606c-.025-.121.008-.178.01-.292-.182-.339-.291-.746-.156-1.085a1.314 1.314 0 0 1-.05-.54c-1.076.64-1.407.422-1.53-.097-.394.329-.761.483-1.024.01-.382.113-.766.24-1.147.09-.25.096-.5.184-.787.203-.116.23-.272.46-.483.69-.012.483-.18.966-.49 1.45a9.27 9.27 0 0 1-.698 1.547.985.985 0 0 1-.106.5c.083.595-.116.884-.443 1.03-.088.24-.218.482-.417.721-.01.078-.017.159-.026.237.13.35.151.7-.204 1.05-.287.18-.593.37-.896.519-.358.175-.69.092-.99-.017-.529-.19-.489-.374-.42-.554a.644.644 0 0 1-.521-.007c-.128-.08-.209-.164-.337-.247-.113-.206-.154-.393.124-.54.348-.154.585-.268.86-.55.095-.213.215-.374.386-.417.166-.389.37-.652.647-.723.204-.48.422-1.011.68-1.471.09-.14.156-.285.114-.443-.005-.13.004-.254.113-.327.062-.052.171-.1.034-.173a1.36 1.36 0 0 1 .163-1.154c.28-.422.593-1.441.296-1.941-.054-.28-.109-.6-.073-.863-.102-.004-.178.01-.28-.061-.227-.14-.417-.007-.59.246-.125.318-.251.597-.377.597-.118.82-.52 1.458-.94 1.621-.097.377-.16.754-.107 1.13.043.41 0 .69-.19.738-.208.052-.402.173-.523.507a1.024 1.024 0 0 0-.074.336c.29.299.202.67-.075.946-.626.616-1.403.526-2.226.284-.594-.235-.739-.483-.68-.737-.843-.071-.675-.718.024-.912.751-.211 1.36-.692 1.86-1.38.045-.815.232-1.37.67-1.457.043-.5.2-.95.41-1.376.221-.387.356-.81.278-1.327-.467-.292-.486-.593-.057-.9.142-.084.126-.17-.05-.254-.284-.029-.248-.301-.23-.557-.011-.133-.08-.202-.206-.204-.63-.093-.474-.35-.203-.63.113-.128.19-.318.07-.394-.096-.061-.163-.277-.184-.467-.386-.291-.22-.59 0-.876-.218-.185-.32-.455-.35-.77-.719-.031-.987-.396-.598-.927.163-.225.374-.44.63-.647.166-.268.325-.535.247-.803-.206-.524.452-.92 1.016-1.327a.88.88 0 0 1-.123-.41c-.317-.306-.237-.59.114-.86a1.064 1.064 0 0 1-.13-.417c-.79.156-.785-.316-.418-1.074-.457-.263-.329-.73.5-1.44a.953.953 0 0 1 .09-.377 1.92 1.92 0 0 0-1 .303c-.315.206-.627.18-.943.05a1.496 1.496 0 0 0-.417-.41.622.622 0 0 1-.22-.63c-.929.052-1.107-.636-.55-1.04.31-.247.538-.506.623-.788.252-.637.785-1.07 1.304-1.516 0-.183.04-.365.097-.55-.23-.154-.472-.265-.737-.287a1.176 1.176 0 0 0-.574-.637c-.172-.104-.23-.201-.123-.436-.493-.44-.37-.708-.244-.962z" fill="#000001"/><g fill="#f7db17"><path d="M364.44 121.943a1.37 1.37 0 0 1-.176.007 8.45 8.45 0 0 1-.791.697c-.23-.266-.571.026-.237.187l-.17.118c-.11.29-.21.413-.532.463-.05.007-.1.016-.149.028a2.952 2.952 0 0 1 .014-.358 3.64 3.64 0 0 1 .069-.422c.005-.026.012-.05-.038-.061-.05-.012-.057.014-.061.04a4.416 4.416 0 0 0-.074.434c-.014.13-.019.263-.014.395-.813.261-1.282 1.107-1.837 1.709-.239.206-.36.49-.447.789-.048.159-.064.886-.228.898-.078.002-.161 0-.249 0-.087-.133-.206-.135-.355-.01-.34-.007-.7-.009-1 .039-.206.222.36.14.66.324.138.083.198.247.143.474-.277.661-1.825.448-2.339.175-.239-.125-.249-.27-.239-.476.107 0 .216-.007.325-.024.184-.026.367-.08.547-.182.05-.028.102-.057.045-.159-.057-.102-.109-.073-.159-.045a1.25 1.25 0 0 1-.464.154 2.57 2.57 0 0 1-.486.017c-.014 0-.028-.003-.04 0-.09-.052-.159-.114-.121-.168.038-.053.187.004.216.014a2.87 2.87 0 0 1 .706-.232c.545-.583 1.1-1.13 1.85-1.432.225-.27.47-.483.763-.677.105-.65.42-.996.891-1.427.057-.268.124-.46.256-.694-.028-.15-.007-.244 0-.396-.18-.341-.286-.637-.144-1.019-.088-.277-.076-.464-.043-.72a.349.349 0 0 0-.002-.145 6.222 6.222 0 0 1 .848-.573c-.021.256-.012.523.038.803l-.002.002a1.27 1.27 0 0 0-.197.263.53.53 0 0 0-.074.278c0 .026 0 .052.053.05.052 0 .052-.027.05-.053a.431.431 0 0 1 .06-.225 1.33 1.33 0 0 1 .183-.24.105.105 0 0 0 .02-.025c.248-.007.492-.14.736-.337.22-.18.441-.412.659-.656-.002.355-.005.71-.01 1.066-.213.19-.395.422-.537.704-.012.024-.024.045.021.069.047.023.06 0 .069-.024a2.27 2.27 0 0 1 .488-.65h.01c.051 0 .051-.025.051-.051v-.003a3.17 3.17 0 0 1 .917-.526c-.045.313-.066.619-.011.913.059.322.21.625.519.89a.048.048 0 0 0 .019.01z"/><path d="M348.961 112.929c.04-.073.142-.168.176-.161.007-.003.011-.003.019-.005.11-.208.227-.403.348-.578a3.98 3.98 0 0 1 .497-.6c.02-.019.038-.035.074 0 .035.038.017.055 0 .074a3.91 3.91 0 0 0-.486.583 5.82 5.82 0 0 0-.341.568c.035.048.052.121.033.173.036.325.078.508.223.695a.202.202 0 0 1 .05-.033 1.38 1.38 0 0 1 .239-.387 1.65 1.65 0 0 1 .453-.35 1.82 1.82 0 0 0 .303-.316c.08-.106.144-.215.19-.327.009-.023.018-.047.068-.028.048.019.038.045.029.069-.05.12-.117.237-.202.35a2.055 2.055 0 0 1-.327.335s-.007.004-.01.004a1.586 1.586 0 0 0-.426.33 1.247 1.247 0 0 0-.21.327c.075.054.108.204.037.298-.215.31-.471.493-.069.759a.635.635 0 0 0 .19.511c.092.098.083.436-.145.68-.213.216-.05.16.171.185l.05.017v-.002a2.44 2.44 0 0 1 .28-.427 4.34 4.34 0 0 1 .326-.363c.16-.156.285-.327.375-.5.088-.168.14-.34.15-.507.002-.026.002-.052.056-.047.052.002.05.028.047.054a1.41 1.41 0 0 1-.16.55c-.096.183-.228.36-.394.524a3.78 3.78 0 0 0-.318.353c-.1.126-.19.26-.267.41.265.161.18.45.22.716a.467.467 0 0 1 .137.037.05.05 0 0 1 .01-.014c.052-.08.104-.163.156-.246l.247-.391c.014-.022.028-.045.07-.017.046.029.032.05.017.071l-.246.391-.156.247c-.003.004-.005.01-.008.012.164.132.176.374-.026.559-.395.298-.284.39.086.628.047.348.05.628-.026.924l.004.026c.01.097.017.197.024.294l.024.296c.002.026.005.052-.048.057-.052.005-.054-.021-.056-.047l-.024-.297a.647.647 0 0 1-.005-.076c-.019.045-.038.093-.062.143-.265.58-.54 1.054-.599 1.706-.637.151-.543.78-.578 1.334-.503.678-1.086 1.22-1.894 1.49-.151.05-.519.14-.554.332-.005.069.246.218.408.13.445-.426.668-.19.156.247-.04.083-.007.175.08.253.463.415 1.607.55 2.128.22.387-.24.588-.506.252-.874.02-.52.225-1.03.774-1.177.064-.119.045-.34.017-.46-.052-.453.019-.855.13-1.291.02-.055.06-.1.15-.124.208-.042.609-.647.734-1.227.031-.126.05-.256.074-.386.033-.202.111-.237.213-.119.097-.13.095-.208.154-.358.213-.31.521-.559.881-.384a3.036 3.036 0 0 1-.175-.831 2.7 2.7 0 0 1 .114-1.031c.014-.05.03-.097.109-.085l.31-.737.313-.742c.01-.024.019-.047.066-.028.048.019.038.045.029.068l-.313.742-.31.735c.045.033.03.075.016.118a2.515 2.515 0 0 0-.102.943c.024.346.11.68.237.953.012.026.026.052.022.078.17.1.168.123.16.35-.004.178.02.354.062.567.34.626-.014 1.673-.343 2.197a1.085 1.085 0 0 0-.135.834c.204.196.07.4-.11.538-.013.047 0 .102.003.149.02.204-.054.374-.161.543-.277.5-.49 1.033-.713 1.556-.403.112-.486.346-.647.723-.235.066-.258.135-.358.35-.27.273-.528.437-.874.593-.287.13-.01.256.192.394.182.135.421-.16.57-.382.164-.246.33-.173.223.019-.118.21-.203.514-.215.673-.062.17.587.3.699.306.395.019.893-.368 1.204-.564.258-.263.218-.493.104-.813l.002-.021a1.97 1.97 0 0 1-.476-.048 3.432 3.432 0 0 1-.56-.185c-.023-.01-.047-.019-.028-.068.02-.048.045-.038.069-.029.185.076.362.14.543.178.149.033.303.05.466.045l.026-.249a2.7 2.7 0 0 0 .46-.806c.439-.206.44-.419.382-.888a.89.89 0 0 0 .111-.517c.29-.514.526-1.04.723-1.597.346-.46.512-.893.471-1.44.031-.214.11-.335.266-.328a3.82 3.82 0 0 0 .308-.504c.019.002.038.004.057.004-.005-.011-.003-.026 0-.037.028-.126.061-.237.104-.33a.798.798 0 0 1 .142-.225.918.918 0 0 0 .071-.455 1.103 1.103 0 0 0-.154-.443.492.492 0 0 1-.116-.185c-.021-.073-.007-.147.066-.22.02-.02.038-.036.074 0 .035.038.019.057 0 .073-.043.04-.05.078-.038.116a.456.456 0 0 0 .097.15l.005.01c.092.158.154.321.17.49a1.01 1.01 0 0 1-.083.514l-.009.016a.721.721 0 0 0-.13.202c-.038.087-.071.19-.097.308-.003.007-.003.014-.005.019.244 0 .46-.076.694-.192l.014-.014a1.44 1.44 0 0 0 .349-.43 1.89 1.89 0 0 0 .199-.575c.004-.026.01-.05.061-.043.05.01.045.036.043.06a2.021 2.021 0 0 1-.21.609c-.082.149-.176.27-.271.364.38.114.708.003 1.069-.109-.053-.507-.045-.893.01-1.196.058-.33.17-.562.31-.737.016-.021.03-.04.073-.01.04.034.026.052.01.074-.13.163-.235.381-.29.692-.052.289-.061.659-.011 1.147.004-.003.011-.003.018-.005.152.258.233.445.543.244.114-.076.232-.152.327-.251.036-.038.024-.06.052-.09.296-.315.595-.61.891-.87.299-.263.597-.488.896-.67.021-.015.045-.029.071.016.026.045.005.057-.017.071a6.45 6.45 0 0 0-.881.659c-.254.223-.507.47-.76.735a1.3 1.3 0 0 1 .028.241c.026.35.09.562.59.37.28-.107.308-.119.566-.273.126-.075.232-.14.306-.156.163-.128.324-.249.488-.358.159-.106.32-.204.479-.289.026-.19.068-.374.13-.552.154-.455.412-.877.737-1.275l.016-.014c.27-.147.491-.32.666-.517a2.26 2.26 0 0 0 .41-.656c.01-.024.02-.047.069-.029.047.02.038.045.028.07a2.457 2.457 0 0 1-.426.684 2.524 2.524 0 0 1-.687.536c-.315.388-.567.796-.714 1.234a2.69 2.69 0 0 0-.116.474c.01.002.02.012.029.03.023.048 0 .06-.022.07-.007.002-.014.007-.02.011-.032.256-.025.526.023.806.22-.007.443-.13.668-.313.24-.194.483-.462.725-.734.003-.007.003-.012.01-.017a1.7 1.7 0 0 1 .234-.502.949.949 0 0 1 .398-.327c.024-.01.048-.022.069.028.019.048-.002.057-.028.069a.862.862 0 0 0-.356.291 1.66 1.66 0 0 0-.225.489c-.002.37-.007.739-.01 1.109.012-.01.027-.02.038-.031.273-.211.586-.368.925-.49.035-.015.075.018.068.056-.052.332-.08.661-.026.964.052.285.18.55.436.787a2.78 2.78 0 0 1 .467-.616 4.056 4.056 0 0 1 .313-.284 9.47 9.47 0 0 0 .225-.211l.228-.211c.018-.019.037-.036.073.002s.017.057-.002.074l-.228.21c-.076.07-.152.14-.227.212l-.003.002a3.112 3.112 0 0 0-.28.251c.003.097.008.192.012.29.003.051.003.103.005.156.218.059.349.061.571.056.074.439.112.508.493.517a3.244 3.244 0 0 1 .014-.457c.02-.17.055-.337.114-.493.01-.024.02-.048.066-.031.05.019.04.043.031.066a1.89 1.89 0 0 0-.109.467 3.1 3.1 0 0 0-.014.448h.03c.153.313.333.467.655.607.09-.142.156-.285.199-.427.047-.159.066-.317.057-.476-.003-.026-.003-.052.047-.055.052-.002.055.022.057.048.012.17-.01.341-.062.512a1.93 1.93 0 0 1-.248.507c-.01.014-.02.028-.036.028.014.183.045.318.11.455.047-.102.096-.204.153-.298.078-.138.168-.261.277-.37.02-.02.036-.036.074 0 .035.035.019.054 0 .073-.102.1-.185.22-.26.349a3.983 3.983 0 0 0-.183.362c.035.062.08.123.132.195-.606 1.04-1.255 2.48-2.452 2.954-.619.245-.889.56-1.012 1.22-.232.18-.398.363-.55.615-.403.135-.763.336-1.199.317 0 .282.093.405.375.408.538-.27.658-.32.706-.282.066.057-.076.443-.522.756-.068.042-.066.068-.026.14.377.59 1.365.378 1.896.239.38-.1 1.064-.55 1.254-.93.073-.175-.093-.4-.259-.585-.758.117-.613-.61.038-.308.22-.066.25-.068.31-.312.581-.225.823-.47.956-1.093.585-.63 1.173-1.28 1.594-2.035.117-.142.185-.394.152-.524a1.1 1.1 0 0 0 .2-.422c.037-.151.06-.3.056-.452 0-.026-.002-.052.05-.055.052-.002.052.024.054.05a1.76 1.76 0 0 1-.059.481 4.479 4.479 0 0 1-.12.37c.037.094.056.158.139.135.507-.408 1.019-.695 1.566-1.033.038-.233.187-.346.417-.356.093.002.126-.026.16-.111.127-.32-.034-.54-.188-.806-.142-.396.111-.49.365-.68.265-.197.246-.718.256-1.019h.002l-.03-.154a2.623 2.623 0 0 0-.09-.32c-.01-.024-.017-.05.03-.066.05-.017.057.007.066.033.04.116.072.225.095.332.01.042.017.085.026.125.254-.13.52-.282.619-.564.087-.312-.083-.609-.235-.874-.064.03-.13.062-.199.09a9.565 9.565 0 0 1-.396.166c-.023.01-.047.019-.066-.029-.019-.047.005-.059.028-.066a10.22 10.22 0 0 0 .688-.303 1.29 1.29 0 0 0 .312-.263c.183-.263-.308-.5-.478-.607l.002-.021c-.246-.225-.49-.453-.737-.678-.019-.017-.038-.035-.002-.073.035-.038.054-.022.073-.003l.683.626c.038-.386.042-.756-.078-1.14-.038-.123-.083-.244-.126-.365a1.116 1.116 0 0 1-.479-.398 1.037 1.037 0 0 1-.158-.495c-.003-.026-.003-.052.05-.057.051-.002.051.024.056.05a.914.914 0 0 0 .14.445c.088.135.22.254.412.35.206.107.64.053.891-.068.349-.197-.106-.595-.213-.83-.076-.167-.095-.34-.128-.52l.095-.017a1.043 1.043 0 0 0-.14-.147.602.602 0 0 0-.187-.114c-.024-.01-.05-.016-.031-.066.017-.05.043-.04.066-.031a.71.71 0 0 1 .22.133c.067.057.129.125.188.206.033-.005.069-.012.102-.02.343-.068.533-.26.742-.506a3.596 3.596 0 0 0-.375-.386c-.14-.126-.282-.244-.426-.36-.02-.017-.04-.034-.008-.074.034-.04.053-.024.074-.007.147.118.294.24.431.365.14.128.273.263.394.41.011.014.023.028.014.047.315.029.367-.035.526-.317a1.53 1.53 0 0 0-.19-.41 2.501 2.501 0 0 0-.315-.387c-.019-.019-.035-.038 0-.073.038-.036.057-.017.074 0 .123.128.237.263.327.403.09.137.158.28.201.433.147.003.306.01.431-.066.275-.163.043-.751-.028-.979a.042.042 0 0 0 .012-.01 2.761 2.761 0 0 0-.11-.068c-.063-.04-.13-.08-.194-.123-.021-.014-.042-.028-.016-.071.028-.045.05-.03.07-.017.065.04.131.083.195.124.048.03.095.059.142.09l.064-.05c.202-.161.273-.375.334-.597.095-.342.114-.19.512-.25.43-.066.661-.113.915-.615.133-.067.201-.123.225-.287.043-.296.019-.448-.32-.474-.474-.038-.763.057-1.083.37l.128.194c.014.021.029.043-.014.074-.043.028-.057.007-.071-.015l-.121-.185c-.431-.042-.777.027-1.18.178l-.12-.05c.084.114.15.223.2.33.07.151.105.296.11.433 0 .027.002.053-.05.055-.052.002-.052-.024-.055-.05a1.036 1.036 0 0 0-.1-.396 1.841 1.841 0 0 0-.298-.443l-.002-.002a2.62 2.62 0 0 0-.96-.175c.052.052.107.104.159.154.069.066.137.132.204.199.019.019.038.035 0 .073-.036.038-.055.02-.074 0l-.204-.199-.203-.199a.153.153 0 0 1-.02-.021 2.756 2.756 0 0 0-.85.22c-.192.08-.389.142-.58.178.142.137.262.291.357.467.1.18.176.379.225.6.005.025.012.049-.038.06-.05.013-.056-.013-.061-.037a2.147 2.147 0 0 0-.216-.574 1.89 1.89 0 0 0-.353-.455c-.014-.011-.026-.026-.021-.045a1.78 1.78 0 0 1-.526.003l.21.348c.012.024.022.048-.023.069-.047.021-.06 0-.069-.024l-.194-.407a1.446 1.446 0 0 1-.474-.188c.05.188.088.389.116.602.038.282.062.583.069.9 0 .027.002.053-.05.053-.052 0-.052-.026-.052-.05a7.848 7.848 0 0 0-.066-.889 4.7 4.7 0 0 0-.15-.71 1.662 1.662 0 0 1-.213-.2 2.1 2.1 0 0 0-.569-.443.949.949 0 0 1-.209.727c-.016.022-.03.041-.073.01-.04-.033-.026-.052-.01-.073a.846.846 0 0 0 .176-.72 3.128 3.128 0 0 0-1.052-.254 5.312 5.312 0 0 1 .55.872c.147.12.225.268.27.429.043.159.052.33.06.502 0 .026.002.052-.05.055-.053.002-.053-.024-.055-.05a2.086 2.086 0 0 0-.055-.479.714.714 0 0 0-.241-.381.089.089 0 0 1-.014-.017 6.257 6.257 0 0 0-.268-.476 4.61 4.61 0 0 0-.33-.455l-.004-.005a4.997 4.997 0 0 0-.377-.007c.021.029.043.057.061.088a.577.577 0 0 1 .086.246c.002.026.005.052-.048.057-.052.005-.054-.021-.056-.047a.498.498 0 0 0-.072-.204.675.675 0 0 0-.11-.137c-.262.007-.52.028-.769.05.261.333.47.68.63 1.035.18.396.302.803.37 1.225.005.026.01.052-.042.06-.05.009-.055-.017-.06-.044a4.792 4.792 0 0 0-.362-1.199 5.12 5.12 0 0 0-.661-1.068l-.038.002a3.436 3.436 0 0 0-.6.116c.088.055.164.11.23.164.09.073.161.147.223.22.016.021.033.04-.007.074-.04.033-.057.014-.074-.008a1.573 1.573 0 0 0-.208-.208 2.403 2.403 0 0 0-.299-.204 4.776 4.776 0 0 0-.308.112c-.057.02-.111.042-.168.059.175.125.344.263.505.417.194.187.376.398.54.642.014.021.028.043-.014.071-.043.029-.057.007-.074-.014a3.795 3.795 0 0 0-.523-.626 4.668 4.668 0 0 0-.564-.457c-.214.047-.43.06-.645.052.133.263.249.528.337.796.094.29.16.58.182.877.002.026.005.052-.047.057-.053.005-.055-.021-.057-.047a3.576 3.576 0 0 0-.178-.854 6.223 6.223 0 0 0-.358-.834 7.75 7.75 0 0 1-.396-.042c.076.241.143.49.2.744.066.298.12.604.16.914.003.026.005.053-.044.06-.052.007-.055-.02-.06-.045a9.247 9.247 0 0 0-.158-.906 9.278 9.278 0 0 0-.22-.81c-.375-.405-.79-.8-1.297-1.012a1.704 1.704 0 0 1 .374 1.123c0 .026-.002.053-.052.05-.052 0-.052-.028-.05-.052a1.633 1.633 0 0 0-.12-.668 1.675 1.675 0 0 0-.351-.526 1.953 1.953 0 0 0-.358-.071 15.622 15.622 0 0 0-1-.067c.256.233.458.446.439.704-.003.026-.005.052-.057.047-.052-.004-.05-.03-.048-.056.017-.24-.22-.455-.497-.702-.2-.007-.4-.01-.6-.012.11.112.204.223.28.334.104.152.178.304.213.455v.008c.021.234.078.44.183.61a.99.99 0 0 0 .45.392c.024.012.047.021.026.069-.021.047-.045.038-.069.026a1.1 1.1 0 0 1-.495-.432 1.504 1.504 0 0 1-.197-.649 1.254 1.254 0 0 0-.196-.417 2.675 2.675 0 0 0-.344-.396l-.666-.002c.093.263.156.533.202.808.052.337.075.68.082 1.028 0 .026 0 .053-.052.053s-.052-.027-.052-.05a7.142 7.142 0 0 0-.08-1.014 4.474 4.474 0 0 0-.209-.825h-.062a1.003 1.003 0 0 0-.488-.438c-.002.023-.004.047-.012.068a.603.603 0 0 1-.094.214c-.015.02-.031.042-.074.014-.042-.029-.028-.05-.014-.071a.495.495 0 0 0 .09-.27c-.033-.015-.069-.029-.107-.045-.106-.446-.206-.63-.561-.782-.003.123-.01.25-.033.381-.029.161-.08.325-.178.481-.014.021-.028.045-.071.017-.045-.029-.031-.05-.017-.071a1.22 1.22 0 0 0 .164-.444c.023-.135.03-.272.03-.405l-.061-.021c-.095-.623-.209-.972-.855-1.218.007.08.009.163.004.246-.007.14-.033.282-.09.43-.01.023-.019.05-.066.03-.048-.019-.038-.043-.03-.066.051-.135.075-.268.082-.398a1.9 1.9 0 0 0-.019-.368c-.137-.156-.334-.305-.502-.471.004.23-.026.457-.09.687a3.06 3.06 0 0 1-.387.834c-.014.021-.028.045-.07.017-.046-.029-.031-.05-.017-.071a3 3 0 0 0 .374-.806c.074-.256.1-.514.08-.773a1.038 1.038 0 0 1-.177-.26l-.014.033-.076.17c-.012.024-.021.048-.069.029-.047-.021-.038-.045-.028-.069l.076-.17.059-.138a.793.793 0 0 1-.012-.087c-.021-.2-.128-.353-.273-.484l-.002-.002a1.482 1.482 0 0 1-.251.476c-.017.021-.03.04-.074.01-.04-.034-.023-.053-.009-.074.071-.09.126-.18.168-.268.036-.075.062-.151.08-.23a.962.962 0 0 1-.15-.246.796.796 0 0 1-.1.17c-.05.067-.114.131-.195.197-.019.017-.04.034-.073-.007-.033-.04-.012-.057.007-.073.073-.06.13-.119.175-.178a.649.649 0 0 0 .097-.175c.034-.093.045-.033.015-.183.054-.294-.055-.469-.211-.713a.07.07 0 0 1 .01-.019.891.891 0 0 0-.316.083c-.14.062-.294.154-.455.265-.021.015-.043.029-.07-.014-.032-.042-.01-.057.013-.07a3.16 3.16 0 0 1 .472-.273.9.9 0 0 1 .398-.093.37.37 0 0 0 .012-.227c-.474.175-.849.258-1.15.277a1.64 1.64 0 0 1-.758-.116c-.023-.012-.047-.022-.026-.069.02-.047.045-.038.069-.028.187.08.412.128.71.109.297-.02.662-.1 1.131-.275-.002-.005-.002-.01-.005-.014.086-.19.154-.375.202-.56a1.704 1.704 0 0 1-.5.038h-.033c-.026 0-.053-.002-.053-.052 0-.052.029-.052.053-.052h.033c.175.002.35.007.523-.05.012-.061.022-.123.031-.185.026-.206.268-.256.439-.07.142.151.272.312.412.378.284.136.604.015.834-.17l-.21-.069c-.027-.007-.05-.016-.034-.064.017-.05.04-.043.064-.033.09.028.18.057.27.088a1.54 1.54 0 0 0 .062-.064c.587.05.969-.074 1.346-.453a6.926 6.926 0 0 1-.891-.03c-.285-.034-.52-.09-.692-.176-.024-.012-.048-.024-.024-.069.024-.047.047-.035.069-.024.16.081.386.136.659.166.277.031.604.04.976.029h.005l.101-.121c.162-.066.323-.14.441-.273-.685-.073-1.336-.208-1.95-.528-.159-.178-.41-.277-.678-.346-.497-.062-.938.062-1.343.273-.107-.1-.19-.19-.294-.287-.157-.02-.303-.102-.46-.121-.208-.024-.426.017-.635-.007-.026-.003-.052-.005-.045-.057.005-.052.03-.05.057-.045.208.024.426-.017.635.007.201.024.393.111.595.135.673-.253 1.23-.393 1.71-.372a5.68 5.68 0 0 1 1.728-.218.153.153 0 0 1-.021-.019c-.069-.069-.036-.104 0-.137.315-.32.388-.614.287-.88-.105-.274-.39-.533-.785-.77-.422.048-.827-.066-1.275-.016-.28.03-.554.092-.824.182.225.08.421.214.583.403.199.235.34.555.417.957.01.048.016.098-.079.114-.094.02-.104-.03-.113-.078-.069-.367-.197-.656-.375-.867-.187-.268-.616-.372-.75-.427-.449.045-.89.095-1.273.195-.29.073-.543.175-.737.327.289-.062.59-.05.85.08.25.123.46.356.593.732.016.045.03.093-.062.124-.092.03-.109-.015-.123-.062-.111-.325-.287-.519-.493-.62-.41-.205-1.256-.027-1.614.238a4.229 4.229 0 0 0-.623.593c-.038.045-.078.088-.166.012-.087-.079-.05-.121-.01-.164.216-.244.434-.46.66-.625.218-.162.443-.278.675-.332.237-.263.588-.422.993-.526.396-.102.848-.154 1.308-.2-.135-.272-.308-.435-.507-.523-.214-.095-.458-.109-.723-.083-.552.19-1.043.486-1.514.82.042 0 .085 0 .125.002.14.01.266-.011.382.034.045.016.092.033.06.125-.041.112-.347.043-.453.036a1.352 1.352 0 0 0-.4.038c-.022.004-.046.011-.067.004-.576.356-.988.716-1.467 1.121l-.08.029c-.427-.017-.721.042-.896.175-.16.12-.171.31-.14.566-.074.24-.166.503-.19.782-.5.43-1.057.858-1.315 1.484a1.42 1.42 0 0 1-.275.488.538.538 0 0 1 .25.097.394.394 0 0 1 .063.062c.012-.107.028-.214.055-.316.035-.147.087-.282.156-.39.014-.022.028-.043.071-.015.045.029.03.05.017.071a1.157 1.157 0 0 0-.145.36c-.04.164-.062.344-.066.51-.003.052-.097.057-.105.005a.287.287 0 0 0-.11-.202.52.52 0 0 0-.271-.085c-.107.116-.228.22-.348.317-.1.081-.195.169-.216.299-.014.228.265.268.53.284.605.036.124.38.456.68.16.112.31.242.424.401.23.083.372.064.528-.007.031-.41-.004-.619.176-.619h.019a.768.768 0 0 1 .18-.386c.016-.019.033-.04.073-.007.04.033.024.052.007.073a.807.807 0 0 0-.12.204.75.75 0 0 0-.043.17c.03.062.023.183.021.399.344-.168.657-.21 1.007-.228.657-.767.936-.573.36-.014l-.092.176c-.1.192-.164.34-.185.602-.168.146-.993.824-.685 1.075.216-.03.351-.021.268.14-.102.216-.41.664-.308.91.038.09.17.08.301.05l.028-.026c.216-.176.444-.377.657-.612a3.8 3.8 0 0 0 .566-.793c.021-.043.043-.083.104-.07.064-.236.14-.47.226-.708.087-.244.187-.49.293-.737.017-.035.067-.042.09-.01.09.131.178.226.266.288a.393.393 0 0 0 .232.083.42.42 0 0 0 .232-.079c.086-.059.17-.149.259-.272.014-.021.03-.043.073-.012.043.03.028.05.012.073a1.18 1.18 0 0 1-.285.297.488.488 0 0 1-.291.097.504.504 0 0 1-.291-.104 1.134 1.134 0 0 1-.237-.24c-.093.216-.178.431-.256.647-.088.24-.164.481-.23.72.054.046.03.088.01.13-.171.32-.38.598-.603.842-.18.2-.372.374-.559.533.026.176.071.341.152.512.358-.308.692-.62.986-.943.293-.325.55-.659.75-1.007.015-.021.027-.045.072-.02.045.027.03.05.019.072a5.81 5.81 0 0 1-.35.528c.023.036.004.05-.015.067-.038.03-.06.154-.069.313-.014.215 0 .483.024.675.002.026.007.052-.045.06-.052.006-.055-.02-.06-.046a4.185 4.185 0 0 1-.025-.694c.002-.057.009-.11.016-.157-.078.093-.159.185-.242.278-.298.329-.64.647-1.004.96l-.01.006c.01.02.022.038.033.057-.317.23-.575.31-.22.619l.355-.256.38-.273c.02-.014.042-.03.073.012.03.043.01.057-.012.074l-.381.272c-.123.088-.244.176-.368.263a.623.623 0 0 0 .09.363.528.528 0 0 1 .079-.007c.265-.192.53-.387.796-.579.021-.016.043-.03.073.012.031.043.01.057-.012.074-.255.187-.514.374-.772.561a.714.714 0 0 1-.092.119c-.261.187-1.171.749-1.074 1.137v.003c.218-.062.436-.138.645-.244.215-.112.426-.261.625-.465.02-.019.036-.035.074 0 .035.036.019.055 0 .074-.206.21-.424.362-.65.48v.01l-.004.107c-.003.035-.003.07-.005.106-.002.026-.002.052-.055.05-.052-.002-.05-.028-.05-.054.003-.036.003-.071.005-.107.003-.019.003-.04.003-.06a3.62 3.62 0 0 1-.562.202c.078.367-.114.683-.31.998-.112.09-1.022.827-.642 1.047a.98.98 0 0 0 .329.085z"/><path d="M349.374 100.112c-.19-.114-.434-.254-.671-.301a1.441 1.441 0 0 0-.505-.562c-.175-.114-.175-.104-.109-.23.2-.021.282-.076.285-.13a.897.897 0 0 1 .27.043c.087.03.154.075.201.14.017.02.03.042.074.009.042-.03.026-.052.009-.074a.542.542 0 0 0-.251-.175 1.023 1.023 0 0 0-.37-.047c-.012 0-.021 0-.03.004a.743.743 0 0 0-.332-.054c-.135-.128-.25-.277-.195-.462.007.007.02.01.031.012.107.03.206.061.292.102.083.035.151.08.199.132.016.02.035.038.073.003.038-.036.021-.055.005-.074a.744.744 0 0 0-.232-.159 1.783 1.783 0 0 0-.225-.082c.781-.16 1.48-.147 2.18.267.367.152.54.327.739.597l-.2.169c-.457-.012-.793.052-1.004.213-.19.142-.227.398-.234.654z"/></g><g fill="#000001"><path d="M364.918 121.751c-.154.095-.28.161-.438.187a.072.072 0 0 0 .019-.019c.102-.192.22-.36.353-.512l.052-.059.007.19.007.215zm1.96 4.194a2.297 2.297 0 0 1-.377.43 3.989 3.989 0 0 1-.476.362c-.021.014-.045.028-.074-.014-.028-.043-.007-.057.015-.072.165-.109.322-.227.464-.353.14-.125.263-.26.36-.41.014-.02.029-.042.074-.014.042.029.028.05.014.071zm1.296-1.545l-.197.301c-.014.022-.028.043-.073.014-.043-.028-.028-.05-.014-.07l.196-.302c.015-.02.029-.042.074-.014.043.029.028.05.014.074zm-.706-.1a1.11 1.11 0 0 1-.183.423c-.094.13-.234.246-.436.338-.023.012-.047.022-.068-.026-.022-.047.002-.059.026-.068a.986.986 0 0 0 .396-.306.972.972 0 0 0 .165-.384c.005-.026.012-.05.062-.038.05.012.045.036.038.062zm1.27-1.549a.934.934 0 0 0-.137.178 1.15 1.15 0 0 0-.1.218c-.01.023-.016.05-.066.033s-.043-.043-.033-.066a1.136 1.136 0 0 1 .26-.434c.02-.019.036-.036.074 0 .035.036.019.054 0 .073zm1.038.102c-.045.147-.088.296-.142.443a2.867 2.867 0 0 1-.206.45c-.015.022-.026.045-.071.02-.046-.027-.034-.05-.02-.072.084-.144.145-.289.2-.431.052-.145.094-.292.14-.438.007-.027.014-.05.063-.036.05.014.043.038.036.064zm-.472-6.073c.323.474.394.962.406 1.452.035-.178.075-.358.125-.535 0-.003.007-.017.007-.017a1.6 1.6 0 0 0 .263-.566 1.41 1.41 0 0 0 .01-.564c-.005-.026-.01-.05.042-.06.05-.009.057.017.062.043.036.202.036.405-.01.607a1.678 1.678 0 0 1-.272.597c-.088.33-.152.661-.213.993l-.012.061c-.01.05-.104.043-.104-.01 0-.037 0-.073.002-.11.007-.619.014-1.24-.386-1.827-.014-.022-.031-.043.014-.074.043-.028.06-.007.073.014zm-.789 1.016c-.004.04-.007.08-.012.119l-.009.12c-.002.027-.005.053-.057.048-.052-.005-.05-.03-.047-.057.002-.04.007-.08.01-.118.002-.04.006-.081.011-.121.002-.026.005-.052.057-.048.052.005.05.031.047.057zm-.22 1.379c.08.263.142.531.187.806.03.187.05.377.06.571a.982.982 0 0 1 .07-.102 1.18 1.18 0 0 1 .335-.277c.02-.014.045-.026.07.019.027.045.005.06-.018.071a1.047 1.047 0 0 0-.304.254.704.704 0 0 0-.147.322c-.009.052-.104.042-.104-.01a5.053 5.053 0 0 0-.064-.831 5.903 5.903 0 0 0-.182-.792c-.007-.026-.017-.05.033-.064.05-.014.057.01.064.033zm1.099.493a3.563 3.563 0 0 1 .064 1.19c-.002.026-.007.052-.059.045-.052-.007-.047-.033-.045-.06.021-.177.029-.362.02-.556a3.602 3.602 0 0 0-.081-.597c-.005-.027-.012-.05.04-.062.05-.012.057.014.061.04zm.944-.175c.035.194.054.384.045.566-.01.185-.045.36-.121.531a1.19 1.19 0 0 0-.036.583c.033.199.11.398.2.6.011.023.02.047-.027.068-.047.021-.06-.002-.069-.026a2.538 2.538 0 0 1-.208-.623 1.298 1.298 0 0 1 .04-.638l.003-.004a1.36 1.36 0 0 0 .11-.496 2.25 2.25 0 0 0-.044-.542c-.005-.026-.01-.05.043-.06.052-.009.056.017.061.043zm.455-1.564c-.024.097-.048.197-.074.296-.024.097-.047.197-.073.296-.005.026-.012.05-.062.038-.05-.012-.045-.038-.038-.064.024-.097.047-.196.074-.296.023-.097.047-.197.073-.296.007-.026.012-.05.064-.038.05.012.045.038.038.064zm-.467-2.597c.028.09.054.18.083.27.007.026.014.05-.036.064-.05.016-.057-.01-.064-.033-.028-.09-.054-.18-.083-.27-.01-.026-.016-.05.033-.064.05-.015.057.01.064.033zm.239-1.974c.002.123.002.246-.007.775a.773.773 0 0 0-.235.381 1.367 1.367 0 0 0-.007.586c.005.026.01.052-.042.061-.053.01-.057-.016-.062-.042a1.423 1.423 0 0 1 .01-.63.862.862 0 0 1 .265-.432l-.021-.33c-.003-.123-.003-.246-.005-.367 0-.026 0-.052.052-.052s.052.026.052.052zm-1.96-.688c.304.2.564.42.744.68.183.264.287.565.275.92a.053.053 0 0 1-.073.045l-.514-.22c.113.737.085 1.324-.076 1.775-.17.476-.486.8-.936.985a.052.052 0 0 1-.069-.064c.088-.28.14-.559.161-.838.022-.28.01-.56-.038-.837-.004-.026-.01-.052.043-.06.052-.009.057.017.06.044.047.286.06.575.037.862a3.84 3.84 0 0 1-.133.754c.368-.18.628-.47.775-.88.161-.452.185-1.054.057-1.817-.007-.04.036-.073.071-.057l.529.228a1.375 1.375 0 0 0-.256-.78c-.173-.249-.422-.46-.716-.652-.021-.014-.043-.028-.014-.073.028-.043.05-.029.071-.014zm5.131-1.009c-.015.033-.029.069-.043.102l-.04.102c-.01.024-.02.047-.067.028s-.038-.042-.028-.066c.014-.033.028-.069.043-.102l.04-.102c.01-.023.019-.047.066-.028.048.019.038.043.029.066zm-1.206-.026a.73.73 0 0 1 .246.161c.066.064.116.14.159.223.011.024.023.047-.022.069-.047.023-.059 0-.068-.022a.78.78 0 0 0-.14-.196.592.592 0 0 0-.213-.138c-.024-.01-.048-.019-.029-.066s.043-.038.066-.028zm-1.792.515c.13.144.216.312.26.504.046.187.053.396.03.619-.003.026-.006.052-.058.047-.052-.005-.05-.03-.045-.057.022-.213.017-.41-.026-.585a1.033 1.033 0 0 0-.237-.458c-.016-.018-.035-.037.005-.073.038-.036.057-.014.073.005zm-6.054.582l-.022.204a8.167 8.167 0 0 0-.019.204c-.002.026-.004.052-.057.047-.052-.004-.05-.03-.045-.057.008-.068.015-.137.02-.203l.02-.204c.003-.026.005-.052.058-.048.052.005.05.031.047.057zm1.123-.592c.028.097.057.194.088.291l.026.088c.007.026.014.05-.036.064-.05.014-.057-.01-.064-.036l-.026-.087a13.609 13.609 0 0 0-.088-.292c-.007-.023-.014-.05.036-.064.05-.014.057.01.064.036zm2.303 1.547a.606.606 0 0 1 .021.126 1.11 1.11 0 0 1 0 .125c-.002.027-.004.053-.056.048-.053-.005-.05-.031-.048-.057a.837.837 0 0 0 0-.109.552.552 0 0 0-.019-.109c-.007-.026-.014-.05.036-.064.05-.014.057.012.064.038zm.794-1.753c.05.05.083.104.095.156a.234.234 0 0 1-.024.168c-.012.024-.026.048-.071.022-.045-.024-.033-.048-.021-.071a.141.141 0 0 0 .014-.098.25.25 0 0 0-.067-.109c-.018-.018-.035-.035 0-.073.036-.036.055-.019.074 0zm-5.498.277c0 .123.02.242.06.35.04.112.104.216.194.313.12.138.182.273.216.41.033.135.035.268.042.399 0 .026.003.052-.05.054-.052.002-.052-.024-.054-.05-.005-.128-.01-.256-.038-.379a.861.861 0 0 0-.192-.367 1.054 1.054 0 0 1-.216-.346 1.126 1.126 0 0 1-.066-.389c0-.026 0-.052.052-.052s.052.026.052.052zm2.225 1.498c.124.23.192.455.218.682.029.225.015.455-.026.694-.045.278.015.548.166.801.14.237.36.462.645.67a2.858 2.858 0 0 1-.128-.897c.014-.341.118-.67.358-.981.102-.133.17-.27.218-.41.05-.14.076-.282.094-.42.003-.026.008-.052.057-.045.052.005.048.031.045.057a2.262 2.262 0 0 1-.097.441 1.52 1.52 0 0 1-.234.438 1.587 1.587 0 0 0-.337.922c-.014.325.057.661.166 1.007.014.045-.04.083-.078.06-.358-.242-.63-.508-.799-.79a1.256 1.256 0 0 1-.177-.87c.037-.23.05-.45.023-.665a1.809 1.809 0 0 0-.206-.645c-.012-.021-.026-.045.021-.068.045-.026.06-.003.071.021zm-.893 1.367c0 .246-.069.493-.192.74a3.387 3.387 0 0 1-.377.577c.079-.03.16-.061.237-.1a2.212 2.212 0 0 0 .7-.497c.097-.1.194-.215.293-.353.014-.021.031-.043.074-.012.042.031.026.052.012.074-.102.14-.204.26-.304.365a2.48 2.48 0 0 1-.27.241 24.477 24.477 0 0 1 .069.341c.005.027.012.05-.04.062-.05.012-.057-.014-.062-.04-.017-.074-.026-.128-.038-.183-.007-.037-.014-.075-.024-.113a2.363 2.363 0 0 1-.37.21c-.142.067-.281.117-.421.169-.045.016-.088-.045-.057-.083.2-.237.367-.472.483-.706.117-.232.183-.462.183-.692 0-.026 0-.052.052-.052s.052.026.052.052zm-1.088-.088v.235c0 .026 0 .052-.052.052s-.052-.026-.052-.052v-.235c0-.026 0-.052.052-.052s.052.026.052.052z"/><path d="M362.968 113.656c.142.349.18.673.126.977a1.85 1.85 0 0 1-.413.85l-.007.008a1.89 1.89 0 0 0-.474.63 2.613 2.613 0 0 0-.182.516c.057-.078.114-.151.182-.22a1.11 1.11 0 0 1 .51-.303c.218-.121.424-.254.616-.403.194-.152.374-.318.54-.505.017-.019.036-.038.074-.005.037.034.02.053.004.074-.17.192-.355.362-.554.516-.2.155-.41.292-.635.415l-.012.005a1.026 1.026 0 0 0-.47.277 2.287 2.287 0 0 0-.322.443c-.026.043-.104.014-.094-.035.052-.294.13-.571.248-.823.119-.25.28-.473.498-.66.204-.252.339-.517.389-.802.05-.284.014-.59-.121-.919-.01-.024-.02-.047.028-.069.048-.019.06.005.069.029zm2.211 3.545c-.033.095.035.183.175.363l.095.123c.187.249.256.531.26.827.005.29-.05.59-.106.882-.01.05-.095.047-.102-.003a1.789 1.789 0 0 0-.386-.86 3.431 3.431 0 0 0-.79-.692c-.02-.014-.042-.028-.013-.073.028-.043.05-.029.07-.014a3.5 3.5 0 0 1 .813.715c.162.202.282.42.354.659a3.4 3.4 0 0 0 .059-.611 1.28 1.28 0 0 0-.24-.766c-.035-.05-.066-.088-.092-.12-.163-.212-.242-.313-.192-.46.01-.024.017-.05.066-.034.05.017.04.043.034.067zm.943-.061c.038.04.078.08.116.123.038.04.078.08.116.123.02.02.036.038-.002.074-.038.035-.057.016-.074-.003-.038-.04-.078-.08-.116-.123-.038-.04-.078-.08-.116-.123-.016-.02-.035-.038.003-.074.037-.035.056-.016.073.003zm1.156.372c-.073.232-.144.462-.215.694-.074.232-.145.462-.218.694-.007.026-.014.05-.064.034-.05-.015-.043-.04-.033-.064.073-.233.144-.462.215-.695.074-.232.145-.462.218-.694.007-.026.014-.05.064-.036.05.017.043.04.033.067zm.654 3.878a.242.242 0 0 0 0 .174c.01.024.02.05-.03.066-.048.02-.057-.005-.067-.03a.346.346 0 0 1 0-.25c.01-.025.02-.05.067-.03.05.019.04.042.03.066zm-.687-1.139c-.03.121-.064.244-.095.365-.03.123-.061.244-.094.367-.007.026-.015.05-.064.038-.05-.014-.045-.038-.038-.064.03-.123.064-.244.095-.367l.094-.365c.007-.026.012-.05.064-.038.05.012.045.038.038.064zm-.99-.005l.09.09c.019.02.035.036 0 .074-.038.035-.057.019-.074 0l-.09-.09c-.019-.02-.035-.036 0-.074.038-.035.057-.019.074 0zm-1.164-.556a7.153 7.153 0 0 1-.073.206 7.153 7.153 0 0 1-.074.206c-.01.024-.016.05-.066.03-.047-.016-.04-.042-.03-.066.023-.068.047-.137.073-.206.023-.069.047-.137.073-.206.01-.026.017-.05.066-.033.05.016.04.042.034.066zm-1.666 1.76a.693.693 0 0 0-.137.223c-.03.08-.047.163-.062.251-.004.026-.01.052-.059.043-.052-.01-.047-.033-.043-.06.017-.092.036-.182.07-.27a.77.77 0 0 1 .156-.256c.016-.019.035-.037.073-.002.038.036.021.055.002.074zm-4.767 4.67a.663.663 0 0 1-.102.16 1.098 1.098 0 0 1-.159.153c-.019.017-.04.034-.073-.009-.034-.04-.012-.057.007-.073a.816.816 0 0 0 .23-.273c.011-.024.02-.047.068-.028.048.02.036.045.026.068zm.746-.395a.352.352 0 0 1-.102.135.612.612 0 0 1-.16.092c-.027.01-.05.02-.067-.03-.02-.05.007-.06.03-.067a.427.427 0 0 0 .13-.073.285.285 0 0 0 .074-.097c.01-.024.022-.048.07-.026.046.02.035.045.025.068zm.991-.605a.481.481 0 0 1-.062.086.524.524 0 0 1-.107.085c-.021.015-.045.029-.07-.016-.027-.045-.005-.06.018-.071a.381.381 0 0 0 .135-.133c.015-.021.026-.045.071-.017.045.026.031.048.02.071zm1.49-3.876c-.047.14-.08.277-.092.415a1.4 1.4 0 0 0 .023.41c.005.026.012.05-.038.061-.05.012-.056-.014-.061-.04a1.397 1.397 0 0 1-.026-.443 1.9 1.9 0 0 1 .097-.439c.01-.026.017-.05.066-.033.05.017.04.043.033.067zm1.015-10.315a.872.872 0 0 1-.09.344 1.399 1.399 0 0 1-.235.336c-.017.02-.036.038-.074.002-.038-.035-.021-.054-.002-.073.095-.104.168-.209.218-.31a.768.768 0 0 0 .078-.304c0-.026.002-.052.055-.05.052.003.05.029.05.055zm-1.036-.915c.09.157.144.316.175.474.03.157.038.315.029.472 0 .026-.003.052-.055.05-.052-.003-.05-.029-.05-.055a1.76 1.76 0 0 0-.026-.445 1.463 1.463 0 0 0-.163-.444c-.012-.02-.026-.045.019-.07.045-.027.059-.003.07.018zm-1.372 1.702a1.51 1.51 0 0 1-.405-.417.653.653 0 0 1-.095-.436c.005-.026.01-.05.059-.043.052.01.047.033.043.06a.552.552 0 0 0 .08.367c.076.128.202.255.377.386.021.014.043.03.012.073-.03.043-.052.026-.074.012zm1.518 2.58v.225c0 .026 0 .052-.051.052-.053 0-.053-.026-.053-.052v-.225c0-.026 0-.052.053-.052.052 0 .052.026.052.052zm-1.94-1.955c.306.29.488.638.585 1.024.062.24.088.493.093.758l.012-.002c.137-.047.244-.17.317-.367.078-.209.119-.498.126-.865 0-.003.004-.024.007-.026a1.9 1.9 0 0 0 .22-.536 3.49 3.49 0 0 0 .083-.543c.005-.045.066-.064.095-.026a4.4 4.4 0 0 1 .455.792c.12.28.201.576.232.898.002.026.005.052-.047.057-.052.005-.055-.022-.057-.048a2.905 2.905 0 0 0-.223-.865 3.867 3.867 0 0 0-.363-.656 2.896 2.896 0 0 1-.07.417 1.938 1.938 0 0 1-.226.552c-.007.375-.05.67-.13.887-.085.23-.213.372-.382.428-.016.005-.03.01-.045.003a6.52 6.52 0 0 1-.019.39c-.002.027-.004.053-.056.048-.053-.005-.05-.03-.048-.057.036-.431.026-.84-.069-1.21a1.977 1.977 0 0 0-.556-.974c-.02-.017-.038-.036-.003-.074.036-.038.055-.019.074-.002zm1.137 4.865c-.02.138-.042.273-.064.41-.02.135-.042.273-.064.408-.002.026-.007.052-.059.042-.05-.007-.047-.033-.042-.059.02-.137.042-.272.064-.407.02-.138.042-.273.064-.41.004-.027.007-.05.059-.043.05.01.047.033.042.06zm-2.184.927l.056.31c.005.026.01.05-.042.06-.05.009-.057-.017-.062-.043l-.057-.31c-.004-.027-.01-.05.043-.06.05-.01.057.017.06.043zm1.888-2.507a2.27 2.27 0 0 1-.159.597 2.24 2.24 0 0 1-.346.557l-.002.002a1.127 1.127 0 0 0-.306.635 1.8 1.8 0 0 0 .064.685c.008.026.012.05-.038.064-.05.012-.056-.012-.063-.038a1.89 1.89 0 0 1-.067-.723c.031-.24.13-.471.332-.692a2.1 2.1 0 0 0 .33-.528 2.1 2.1 0 0 0 .15-.571c.003-.026.008-.052.058-.045.052.007.047.033.045.059zm-.493-.735c.036.2.005.396-.078.595a2.218 2.218 0 0 1-.386.578l-.005.005a1.83 1.83 0 0 0-.403.48c-.1.171-.173.35-.246.53-.01.023-.02.047-.069.028-.047-.02-.038-.043-.028-.067.073-.182.149-.365.253-.542.105-.178.237-.349.422-.505.161-.183.287-.365.365-.547a.915.915 0 0 0 .071-.534c-.005-.026-.01-.05.043-.061.05-.01.057.016.061.042zm-2.41 1.145c.057.398-.004.739-.154 1.037-.147.299-.381.555-.668.785-.019.016-.04.033-.073-.01-.033-.04-.012-.057.01-.073.274-.22.5-.467.639-.749.14-.282.199-.602.145-.979-.003-.026-.008-.052.045-.059.052-.007.054.02.059.045zm-3.078 1.704c.031.06.06.123.088.184.033.066.064.13.095.197.012.024.021.047-.024.069-.047.02-.06 0-.069-.024-.03-.067-.064-.13-.094-.197l-.088-.182c-.012-.024-.021-.048.024-.069.047-.021.059 0 .068.024zm-1.22.023c-.002.235.017.467.073.69.06.222.154.438.31.644l.006.01c.078.158.123.317.154.478.02.119.035.237.042.356.15-.16.263-.32.346-.488.095-.195.145-.396.15-.605 0-.026 0-.052.052-.05.052 0 .052.027.05.053a1.57 1.57 0 0 1-.16.647 2.186 2.186 0 0 1-.447.6c-.031.03-.086.009-.088-.036a3.251 3.251 0 0 0-.047-.458 1.817 1.817 0 0 0-.143-.448 1.939 1.939 0 0 1-.324-.677 2.702 2.702 0 0 1-.078-.718c0-.026 0-.052.052-.052s.052.026.052.052zm.166 4.168a2.63 2.63 0 0 1 .18-.765c.01-.024.019-.048.066-.029.05.02.038.043.031.067a2.524 2.524 0 0 0-.173.732c-.002.026-.002.052-.057.047-.052-.002-.05-.028-.047-.054zm-.142 1.161c.02-.154.042-.308.064-.462.002-.026.007-.052.059-.045.052.007.047.033.045.06l-.064.461c-.002.027-.007.053-.06.046-.051-.008-.047-.034-.044-.06zm-.799 1.946c.076-.076.15-.166.218-.266.071-.102.137-.213.204-.329.012-.024.026-.045.07-.021.046.026.034.047.02.07a4.034 4.034 0 0 1-.209.34 1.973 1.973 0 0 1-.232.28c-.019.018-.038.035-.073 0-.036-.036-.017-.055 0-.074zm-1.154-6.528v.191c0 .026 0 .053-.052.053s-.052-.027-.052-.053v-.192c0-.026 0-.052.052-.052s.052.026.052.052zm-1.953 4.497c-.002-.047-.004-.095-.009-.142l-.01-.145c0-.026-.002-.052.05-.054.052-.003.055.021.055.05l.01.142c.002.047.004.094.009.142 0 .026.002.052-.05.054-.052.003-.055-.021-.055-.05zm4.903-8c-.1.344-.177.702-.17 1.007.004.296.087.543.3.68.25.161.358.403.463.638.007.014.011.028.019.042.03-.116.056-.239.068-.362a1.632 1.632 0 0 0-.004-.431c-.005-.027-.01-.053.042-.062.05-.01.057.017.06.043.023.142.023.3.007.46-.02.177-.06.357-.112.514-.014.042-.076.047-.095.007a5.945 5.945 0 0 1-.078-.171c-.097-.22-.199-.448-.424-.592-.246-.16-.344-.436-.35-.766-.005-.317.073-.685.175-1.038.007-.026.014-.05.064-.035.05.014.042.038.035.064zm-.343-1.31c.033.268.023.514-.022.763a4.006 4.006 0 0 1-.232.76 2.41 2.41 0 0 0-.166 1c.017.34.104.676.26.996.013.023.025.047-.023.068-.047.024-.06 0-.069-.023a2.536 2.536 0 0 1-.1-2.078 3.8 3.8 0 0 0 .226-.742 2.25 2.25 0 0 0 .021-.73c-.002-.026-.007-.052.045-.06.05-.006.055.02.06.046zm-2.278 3.241a.791.791 0 0 0-.059.47c.029.158.097.32.194.48.015.022.027.046-.016.072-.045.026-.06.004-.071-.02a1.503 1.503 0 0 1-.206-.516.876.876 0 0 1 .066-.528c.012-.024.021-.048.069-.026.047.021.035.045.026.068zm-.992-.355c.016.092.02.201.011.31a.858.858 0 0 1-.07.27v.003a.397.397 0 0 0-.039.263.802.802 0 0 0 .13.28c.015.02.03.042-.013.073-.043.03-.057.01-.074-.014a.852.852 0 0 1-.147-.318.484.484 0 0 1 .048-.332.761.761 0 0 0 .061-.234c.01-.097.005-.197-.01-.282-.004-.026-.009-.052.043-.06.052-.009.057.017.06.043zm5.805-8.599a2.318 2.318 0 0 0 .313 1.466c.014.022.026.045-.019.071-.045.027-.057.003-.071-.018-.13-.228-.23-.47-.287-.723a2.329 2.329 0 0 1-.038-.806c.003-.026.005-.052.057-.045.052.005.05.03.045.057zm-.727.703c.135.24.25.498.339.78.087.282.146.592.168.936.002.026.002.052-.05.054-.052.003-.052-.023-.055-.05a3.768 3.768 0 0 0-.492-1.668c-.012-.023-.026-.045.019-.07.045-.027.059-.003.07.018zm-3.606.112c-.35.495-.5.898-.53 1.246-.028.346.065.635.202.903l.002.007c.095.275.138.547.13.822a2.579 2.579 0 0 1-.158.82c-.01.026-.017.05-.066.031-.05-.017-.04-.043-.031-.066.095-.263.147-.524.154-.787a2.248 2.248 0 0 0-.123-.782c-.145-.282-.242-.59-.211-.955.03-.365.187-.787.547-1.299.014-.02.031-.042.074-.014.042.031.028.052.011.074zm3.362-1.427a.74.74 0 0 1-.053.458c-.061.14-.168.272-.327.398a.81.81 0 0 0-.298.485c-.045.202-.036.436.014.7.005.026.01.052-.043.061-.05.01-.056-.017-.061-.043-.05-.277-.06-.523-.012-.739a.913.913 0 0 1 .336-.545.985.985 0 0 0 .297-.358.634.634 0 0 0 .045-.393c-.005-.026-.012-.05.04-.062.05-.01.057.017.062.04zm-3.562.306c.069.22.071.436.007.652-.061.213-.19.424-.384.63l-.004.005a1.21 1.21 0 0 0-.372.575c-.074.226-.1.477-.114.737-.003.026-.003.053-.055.05-.052-.002-.05-.028-.05-.054a3.04 3.04 0 0 1 .119-.763c.076-.237.199-.45.4-.621.183-.195.301-.391.36-.588a1.01 1.01 0 0 0-.006-.592c-.008-.026-.017-.05.033-.064.05-.014.057.01.064.035zm2.038.107a.763.763 0 0 0 0 .232c.012.073.04.144.088.213.014.021.028.043-.015.073-.042.029-.056.01-.073-.014a.628.628 0 0 1-.104-.253.816.816 0 0 1 0-.263c.002-.026.007-.052.059-.045.052.007.047.033.045.059zm-.098-.536a.853.853 0 0 0-.43.4c-.1.188-.16.43-.178.726.012.014.019.026.019.035.1.135.168.296.21.476.048.197.065.42.057.662 0 .026-.002.052-.054.05-.052-.003-.05-.03-.05-.053a2.423 2.423 0 0 0-.054-.635 1.222 1.222 0 0 0-.18-.42c-.387.36-.576.759-.588 1.193-.014.452.163.945.505 1.471.014.021.028.045-.015.074-.042.028-.056.004-.07-.017-.354-.545-.536-1.057-.522-1.53.014-.468.218-.894.638-1.278v-.002c.016-.325.08-.59.191-.799a.955.955 0 0 1 .484-.448c.024-.01.047-.019.069.029.019.047-.005.059-.029.068zm-.577-.749c-.005.043-.01.076-.012.112-.026.246-.052.523-.24.692a.83.83 0 0 0-.218.317 1.6 1.6 0 0 0-.087.389c-.003.026-.005.052-.057.045-.052-.005-.048-.031-.045-.06.016-.144.045-.284.095-.414a.92.92 0 0 1 .244-.358c.156-.14.185-.398.206-.623.005-.043.01-.083.012-.114.002-.026.007-.052.059-.045.052.007.047.033.045.06zm5.661 6.04c.061.128.111.261.144.396.033.135.05.275.043.42 0 .026-.003.052-.055.05-.052-.003-.05-.03-.05-.055a1.433 1.433 0 0 0-.037-.391 1.943 1.943 0 0 0-.14-.375c-.012-.023-.022-.047.026-.068.047-.022.057 0 .069.023zm.016 1.858c.045.213.048.431.01.65-.038.217-.119.44-.237.665l-.24.562c-.011.024-.021.047-.068.028-.048-.019-.038-.045-.029-.068.08-.188.159-.377.24-.564l.002-.005c.116-.216.192-.427.23-.635a1.606 1.606 0 0 0-.01-.612c-.004-.026-.01-.052.04-.061.05-.012.057.014.062.04zm-1.18-1.73c.339.377.56.775.664 1.195.106.419.094.86-.034 1.32-.007.026-.014.05-.064.035-.05-.014-.042-.038-.035-.064.123-.443.135-.865.033-1.268-.102-.403-.315-.786-.642-1.151-.017-.02-.033-.038.005-.074.038-.035.057-.014.073.005zm-.104 2.086a5.327 5.327 0 0 1-.867 1.322 2.519 2.519 0 0 0-.538.938c-.015.048-.105.031-.1-.019.01-.156-.01-.313-.052-.469a1.866 1.866 0 0 0-.209-.471v.002c-.19-.28-.27-.562-.255-.841.016-.28.128-.557.327-.834.113-.195.194-.391.25-.586.058-.194.086-.39.093-.587 0-.026.003-.053.055-.05.052.002.05.028.05.054a2.608 2.608 0 0 1-.36 1.223l-.003.005c-.187.263-.294.523-.308.782-.014.26.064.519.24.78l.002.002c.1.166.173.331.22.5.021.078.038.156.047.234a2.65 2.65 0 0 1 .47-.727 4.92 4.92 0 0 0 .495-.65c.14-.217.256-.433.355-.649.012-.023.021-.047.069-.026.047.022.035.045.026.069zm-3.093-.996c-.007.259.017.5.07.728.051.225.137.436.255.63.014.021.026.045-.016.071-.045.029-.057.005-.072-.016a2.254 2.254 0 0 1-.267-.66 2.994 2.994 0 0 1-.071-.753c0-.026.002-.052.052-.05.052.003.052.029.05.053zm-1.76.943v.304c0 .026 0 .052-.052.052s-.052-.026-.052-.052v-.304c0-.026 0-.052.052-.052s.052.026.052.052zm.583-1.609c.005.178-.02.351-.074.517a1.437 1.437 0 0 1-.272.474c-.017.019-.033.04-.074.005-.04-.033-.021-.052-.004-.074.118-.14.201-.286.25-.44.053-.155.074-.316.07-.482 0-.026-.003-.052.05-.052.051 0 .051.026.051.05zm-1.586 3.124c-.284-.709-.353-1.27-.281-1.728.07-.462.284-.813.564-1.1.187-.191.35-.38.457-.618.106-.237.156-.521.118-.905-.002-.026-.004-.052.048-.057.052-.005.052.021.057.048.037.402-.015.703-.128.957-.112.251-.282.45-.477.65-.265.27-.466.606-.535 1.042-.069.44 0 .986.277 1.675.01.024.019.047-.028.066-.048.02-.06-.004-.07-.028zm-.914-1.164a.72.72 0 0 0-.045.344c.012.113.054.23.125.346.015.021.029.045-.016.07-.045.03-.057.006-.071-.016a.942.942 0 0 1-.14-.388.83.83 0 0 1 .052-.391c.01-.024.019-.048.066-.031.05.019.038.042.031.066zm4.497-3.194c.188.263.297.535.318.82a1.62 1.62 0 0 1-.204.884c-.012.021-.024.045-.069.021-.047-.024-.033-.047-.02-.069.15-.286.212-.561.191-.827a1.509 1.509 0 0 0-.299-.767c-.016-.022-.03-.043.012-.074.043-.03.057-.01.074.012zm1.406-1.1a2.401 2.401 0 0 1 .07 1.671c-.014.047-.099.038-.101-.014a1.784 1.784 0 0 0-.161-.702 1.523 1.523 0 0 0-.43-.535c-.018-.017-.04-.033-.006-.074.033-.04.052-.023.073-.007.201.161.353.351.457.571.064.135.112.282.14.439.031-.173.045-.346.038-.52a2.249 2.249 0 0 0-.175-.79c-.01-.024-.02-.048.028-.07.048-.018.06.005.069.029zm.834-1.139c.185.182.315.424.395.722.079.294.107.64.093 1.036v.002a2.074 2.074 0 0 0-.007.484.946.946 0 0 0 .137.41c.014.02.029.045-.014.073-.045.028-.06.005-.074-.017a1.06 1.06 0 0 1-.154-.455 2.28 2.28 0 0 1 .008-.507v.003a3.517 3.517 0 0 0-.088-1.005 1.477 1.477 0 0 0-.367-.675c-.02-.02-.038-.036 0-.074.035-.038.054-.019.073 0zm-2.213-.221c-.121.147-.195.32-.23.512-.036.194-.031.408.004.64.005.026.01.05-.042.06-.05.009-.055-.017-.06-.044a2.023 2.023 0 0 1-.004-.675c.038-.208.12-.396.25-.56.017-.018.034-.04.074-.006.04.033.024.052.007.073zm-4.34 2.922a1.979 1.979 0 0 1-.345 1.071 2.484 2.484 0 0 1-.801.704c-.022.014-.045.026-.071-.02-.026-.044-.005-.056.019-.07.31-.183.575-.4.767-.676.192-.272.31-.604.33-1.014 0-.026.002-.052.054-.05.052.003.05.029.05.055zm-.11-1.493a1.28 1.28 0 0 1-.022.474 2.172 2.172 0 0 1-.175.467c-.012.024-.024.045-.07.024-.046-.024-.035-.048-.023-.07a2.01 2.01 0 0 0 .168-.442c.034-.145.043-.287.022-.436-.003-.026-.007-.052.045-.06.052-.007.057.02.059.045zm2.938-.216v.147l.05.763.004.07c.003.025.003.051-.047.056h-.017c-.007.01-.019.014-.043.014-.052 0-.052-.026-.052-.052v-.843l-.014-.207c-.002-.026-.005-.052.048-.057.052-.002.054.022.056.048v.016c.012.01.012.027.012.043zm.708-1.31c-.208.254-.291.498-.296.737-.005.24.069.479.178.716.246.395.327.789.3 1.184-.023.394-.153.785-.326 1.176-.012.024-.022.047-.07.026-.047-.021-.035-.045-.025-.069.17-.379.294-.76.317-1.14a1.848 1.848 0 0 0-.286-1.128l-.003-.004c-.116-.251-.194-.505-.19-.766.005-.263.098-.528.32-.8.017-.02.034-.04.074-.008.04.033.024.052.007.074zm-4.556-8.125c.343-.263.68-.413 1.033-.45.35-.036.713.04 1.106.225.13-.003.26-.003.391-.005.133-.003.268-.005.4-.005.027 0 .053 0 .053.052s-.026.052-.052.052c-.135.003-.268.005-.4.005-.122.002-.24.002-.361.005l-.007.007c-.422.372-.782.576-1.102.642a1.059 1.059 0 0 1-.872-.19c-.026-.018-.052-.037-.017-.09.036-.052.064-.035.09-.016a.959.959 0 0 0 .773.168c.28-.06.597-.232.97-.547-.342-.15-.655-.209-.956-.178-.327.033-.644.175-.97.424-.025.02-.051.038-.09-.012-.037-.052-.013-.07.013-.09z"/><path d="M351.558 100.977a.26.26 0 0 1 .261.26.26.26 0 0 1-.26.26.261.261 0 0 1-.261-.26.26.26 0 0 1 .26-.26zm1.794 1.575a2.21 2.21 0 0 0 .453-.308c.118-.106.213-.215.294-.324.014-.022.03-.043.073-.012.043.03.026.052.012.073a2.264 2.264 0 0 1-.308.344 2.286 2.286 0 0 1-.474.32c-.024.012-.048.024-.069-.021-.024-.046-.002-.06.021-.07zm3.699-1.53a.521.521 0 0 1 .29.002.766.766 0 0 1 .279.154c.019.017.04.033.007.073-.033.04-.052.024-.074.008a.666.666 0 0 0-.241-.133.463.463 0 0 0-.235-.002c-.026.007-.05.014-.064-.038-.014-.05.012-.057.036-.064zm-2.116.085a.852.852 0 0 1 .382-.427c.17-.09.386-.128.649-.104.026.003.052.005.047.057-.005.052-.03.05-.057.047-.244-.02-.44.012-.592.093a.727.727 0 0 0-.334.377c-.01.023-.022.047-.069.026-.047-.022-.038-.045-.026-.07zm.242.346a.423.423 0 0 1 .116-.24.558.558 0 0 1 .268-.146c.026-.007.05-.015.064.035.014.05-.012.057-.036.064a.445.445 0 0 0-.218.119.346.346 0 0 0-.088.184c-.004.027-.01.05-.059.043-.05-.007-.047-.033-.043-.06zm-3.522 1.171c-.056.09-.109.182-.146.281a.822.822 0 0 0-.048.332c.003.026.005.052-.047.055-.052.002-.055-.022-.057-.048a.944.944 0 0 1 .052-.374 1.4 1.4 0 0 1 .156-.303c.015-.022.029-.045.072-.017.045.028.03.05.016.071zm1.01.452v.156c0 .027 0 .053-.052.053s-.052-.026-.052-.053v-.156c0-.026 0-.052.052-.052s.052.026.052.052zm-.656-1.128a.96.96 0 0 0 .31.06c.104 0 .21-.015.315-.039.026-.004.05-.011.062.038.012.05-.014.057-.038.064a1.399 1.399 0 0 1-.341.04.995.995 0 0 1-.346-.066c-.026-.01-.05-.019-.031-.066.019-.05.042-.038.066-.03zm.649-1.893a.318.318 0 0 0-.209.064.377.377 0 0 0-.13.19c-.007.025-.014.05-.064.035-.05-.014-.043-.04-.036-.064a.491.491 0 0 1 .169-.242.43.43 0 0 1 .272-.085c.026 0 .052.002.052.052 0 .052-.026.052-.052.052zm-1.05.106a.796.796 0 0 0-.187.11.254.254 0 0 0-.083.113c-.01.026-.017.05-.066.033-.05-.016-.04-.04-.034-.066a.368.368 0 0 1 .117-.161.863.863 0 0 1 .215-.126c.024-.01.048-.019.067.029.02.047-.003.059-.029.068zm-.647.019a.82.82 0 0 0-.163.147.67.67 0 0 0-.107.183c-.01.023-.017.05-.066.03-.048-.016-.04-.042-.031-.066a.737.737 0 0 1 .123-.213.899.899 0 0 1 .185-.168c.021-.014.043-.029.073.014.031.043.01.057-.014.073zm-.831.666a1.702 1.702 0 0 0-.38.391c-.014.022-.03.043-.073.012-.043-.03-.026-.052-.012-.073a2.01 2.01 0 0 1 .19-.228c.066-.069.137-.13.21-.185.022-.016.043-.03.074.01.03.042.01.057-.012.073zm.082.917c-.05.055-.1.11-.149.161l-.152.162c-.016.019-.035.038-.073.002-.038-.036-.021-.055-.002-.073l.149-.162.152-.16c.016-.02.035-.039.073-.003.038.035.021.054.002.073zm-.841.244v.323c0 .026 0 .052-.052.052s-.052-.026-.052-.052v-.323c0-.026 0-.052.052-.052s.052.026.052.052zm1.079 1.417l-.05.529c-.003.016-.003.033-.005.05-.003.026-.005.052-.057.047-.052-.005-.05-.03-.047-.057l.004-.05.05-.528c.002-.026.005-.052.057-.047.052.004.05.03.047.056zm-.633-.469c-.003.114-.007.23-.012.344 0 .026-.003.052-.055.05-.052-.003-.05-.029-.05-.053.003-.116.008-.23.012-.345 0-.027.003-.053.055-.05.052.002.05.028.05.054zm-.588-4.488a.729.729 0 0 1 .467.467c.01.026.016.05-.033.066-.05.017-.057-.01-.067-.033a.649.649 0 0 0-.156-.253.696.696 0 0 0-.249-.152c-.024-.01-.047-.019-.03-.066.018-.05.042-.04.066-.031zm5.161 6.73a1.638 1.638 0 0 1 .021 1.348c-.01.024-.019.048-.066.029-.047-.02-.038-.045-.028-.07a1.546 1.546 0 0 0-.022-1.264c-.012-.024-.021-.048.026-.07.048-.02.06.003.069.027zm-1.682 1.945c.073-.253.18-.474.303-.675.123-.201.263-.384.403-.564a1.8 1.8 0 0 0 .324-.668 1.83 1.83 0 0 0 .02-.758c-.005-.027-.01-.05.042-.06.05-.01.057.017.06.043.047.26.044.533-.02.8-.059.247-.17.489-.343.71a6.315 6.315 0 0 0-.396.554 2.616 2.616 0 0 0-.292.65c-.007.025-.014.049-.064.035-.05-.015-.042-.038-.035-.064zm-2.164-.571a.718.718 0 0 1 .159-.25.902.902 0 0 1 .263-.186c.024-.012.047-.021.069.024.02.047 0 .06-.026.069a.795.795 0 0 0-.235.163.572.572 0 0 0-.135.216c-.01.024-.02.05-.066.03-.048-.016-.04-.042-.031-.066zm-.419-.151c.08-.105.16-.202.253-.287.095-.088.202-.161.325-.211.024-.01.047-.019.066.028.02.05-.005.06-.03.067a.967.967 0 0 0-.292.19c-.088.08-.166.177-.242.274-.016.022-.03.043-.073.01-.043-.031-.026-.052-.01-.074zm2.241-2.223c.09.04.176.06.259.062a.825.825 0 0 0 .241-.031c.026-.007.05-.014.064.035.015.05-.012.057-.035.064a.793.793 0 0 1-.569-.036c-.024-.011-.047-.02-.026-.068.021-.047.045-.036.069-.026zm-1.116-.145l.078-.09.01-.012c.017-.018.035-.037.073-.004.038.035.022.054.005.073l-.01.012c-.025.03-.051.06-.08.09-.017.02-.033.038-.073.005-.038-.033-.022-.055-.005-.074zm24.132 6.962c.05.055.093.112.13.173.036.062.065.126.088.195.01.026.017.05-.033.064-.05.016-.057-.01-.066-.034a.76.76 0 0 0-.078-.173.796.796 0 0 0-.116-.154c-.017-.019-.036-.037.002-.073s.057-.017.073.002zm-26.79 12.574c.113.104.232.199.362.265a.95.95 0 0 0 .431.104c.026 0 .052 0 .052.052s-.026.052-.052.052c-.177 0-.334-.045-.478-.116a1.762 1.762 0 0 1-.387-.28c-.019-.016-.037-.035-.002-.073.036-.038.055-.021.074-.002z"/></g><g fill="red"><path d="M368.814 99.583a8.22 8.22 0 0 0 1.656-.078c-.521.377-1.187.63-1.905.749a.77.77 0 0 0 .27-.339.426.426 0 0 0-.021-.332zm-1.42-.147c.387.064.787.11 1.183.135.005.01.012.017.017.026.063.088.082.173.054.256-.033.095-.123.195-.27.297-.04.028-.08.056-.024.135a5.63 5.63 0 0 1-1.213.021.176.176 0 0 0 .04-.033c.145-.152.237-.308.263-.472a.627.627 0 0 0-.05-.362zm-10.487-3.014a13.232 13.232 0 0 1 2.04-.092.985.985 0 0 1 .5.405c.114.199.154.46.106.784-.007.048-.014.097.083.11.097.014.105-.036.11-.084.051-.37.004-.67-.131-.907a1.046 1.046 0 0 0-.256-.294c.062.002.123.005.185.01.796.042 1.415.27 2.107.613.004.005.011.012.016.02.147.153.197.312.173.475-.026.173-.13.36-.296.553-.03.038-.064.073.012.137.073.064.106.026.137-.012.187-.22.31-.438.341-.651a.696.696 0 0 0-.035-.349c.583.29 1.175.567 1.751.87l.036.019c0 .012.004.026.009.038a.484.484 0 0 1-.052.424c-.088.125-.247.234-.476.32-.045.016-.09.033-.057.125.033.09.08.074.125.057.27-.102.46-.232.569-.393a.631.631 0 0 0 .107-.453c.381.206.763.42 1.154.607l.002.002c.069.138.08.26.026.375-.057.12-.19.234-.4.339-.043.02-.088.042-.045.13.042.088.087.066.13.045.253-.126.415-.27.49-.431a.544.544 0 0 0 .043-.346c.135.059.273.116.412.168.377.14.832.26 1.32.35l.012.015c.09.125.121.246.1.362a.736.736 0 0 1-.214.368c-.033.035-.066.068.003.137a.258.258 0 0 0 .03.026c-1.48-.151-2.798-.86-4.177-1.393-.164-.064-.33-.126-.493-.19-.51-.192-1.024-.452-1.535-.66a.16.16 0 0 0-.067-.034c-.035-.012-.069-.024-.104-.033-.021-.01-.045-.017-.066-.026l.01.007a8.475 8.475 0 0 0-1.418-.332 6.11 6.11 0 0 0-1.626-.017l-.09-.014c.048-.291.01-.547-.135-.77a1.25 1.25 0 0 0-.469-.415z"/><path d="M354.482 97.074a8.686 8.686 0 0 1 2.074-.602c.322.128.535.284.656.47.116.182.145.395.104.641a4.197 4.197 0 0 0-1.839.225c-.156-.329-.367-.528-.613-.637a1.243 1.243 0 0 0-.382-.1zm7.458 3.772a9.413 9.413 0 0 0-.56-.334 6.92 6.92 0 0 0-3.037-.86c.009-.007.016-.017.026-.024.376-.384.46-.746.331-1.085-.1-.263-.329-.507-.647-.727.356-.02.685.002 1.055.054a8.182 8.182 0 0 1 1.813.498c.151.331.194.623.128.87-.07.258-.263.473-.576.651-.043.024-.085.047-.038.133.047.085.09.061.133.035.362-.204.585-.46.668-.772.064-.242.045-.512-.062-.813.417.187.794.41 1.057.654.344.237.683.476 1.014.727.003.422-.12.662-.324.787-.216.13-.524.147-.875.112-.047-.005-.097-.01-.106.087v.005z"/><path d="M363.968 102.372c-.616-.48-1.218-.983-1.865-1.417.358.029.678 0 .92-.144.234-.145.388-.396.414-.806.386.299.758.614 1.112.953.177.168.355.334.537.497 0 .003.003.005.003.01.042.151.057.282.045.39a.46.46 0 0 1-.112.264.547.547 0 0 1-.272.154c-.173.05-.398.059-.675.028-.045-.005-.093-.01-.105.074z"/><path d="M366.094 103.773a11.505 11.505 0 0 1-.614-.34 13.3 13.3 0 0 1-1.348-.933c.265.022.488.007.668-.042a.75.75 0 0 0 .365-.211c.09-.1.144-.223.16-.375a.922.922 0 0 0-.002-.213c.425.363.87.7 1.351.993.251.154.505.299.756.434-.002.016 0 .033.002.052.031.194-.078.317-.277.395-.232.093-.578.13-.974.154-.045.003-.087.005-.092.081z"/><path d="M368.364 104.664a11.884 11.884 0 0 1-2.055-.782c.365-.026.687-.069.92-.161.263-.105.414-.266.405-.524.422.213.843.398 1.272.55.076.168.08.305.01.421-.086.143-.273.261-.505.363-.045.019-.09.04-.05.128v.002z"/><path d="M373.093 104.183c.062-.01.441-.11.244.035-1.393.913-3.16.91-4.826.481.258-.116.469-.256.575-.431a.566.566 0 0 0 .057-.443 8.846 8.846 0 0 0 1.623.367.376.376 0 0 1-.087.254c-.088.109-.237.215-.481.322-.045.019-.09.038-.05.128.038.09.083.069.128.05.275-.121.453-.25.557-.38a.55.55 0 0 0 .13-.352 8.962 8.962 0 0 0 2.133-.034zm-9.634 24.002a2.06 2.06 0 0 0-.278.372c-.405.135-.763.336-1.199.317 0 .282.093.405.375.408.538-.27.658-.32.706-.282.066.057-.076.443-.522.756-.068.042-.066.068-.026.14.377.59 1.365.379 1.896.239.38-.1 1.064-.55 1.254-.93.073-.172-.093-.4-.259-.584-.42.064-.564-.13-.497-.266-.443-.156-.936-.19-1.45-.17zm-15.149-4.775c-.308.251-.652.45-1.053.583-.151.05-.519.14-.554.331-.005.07.246.218.408.13.445-.426.668-.189.156.247-.04.083-.007.176.08.254.463.414 1.607.55 2.128.22.387-.242.588-.507.252-.874a1.74 1.74 0 0 1 .026-.247l-.638-.064-.39-.227zm9.97 3.469c-.037.005-.077.01-.115.017-.206.222.36.14.66.324.138.083.198.247.143.474-.277.661-1.825.448-2.339.175-.239-.125-.249-.27-.239-.476.107 0 .216-.007.325-.024.184-.026.367-.08.547-.182.05-.028.102-.06.045-.159-.057-.102-.109-.073-.159-.045a1.294 1.294 0 0 1-.464.154 2.57 2.57 0 0 1-.486.017h-.04c-.09-.052-.159-.114-.121-.168.038-.053.187.004.216.014a2.87 2.87 0 0 1 .706-.232c.035-.036.068-.074.104-.11.471.04.922.112 1.22.22zm-7.153-.405c-.095.057-.128.137-.197.286-.27.273-.528.436-.874.593-.287.13-.01.256.192.393.182.135.422-.159.571-.381.163-.247.33-.173.223.019-.119.21-.204.514-.216.673-.062.17.588.3.7.305.395.02.892-.367 1.203-.564.258-.263.218-.493.104-.812l.003-.022a1.97 1.97 0 0 1-.477-.047 3.432 3.432 0 0 1-.559-.185c-.024-.01-.047-.019-.028-.069.011-.03.026-.038.042-.035l-.682-.157zm2.77-26.374c.11-.005.218-.01.325.002.201.024.393.112.595.135.673-.253 1.23-.393 1.71-.372a5.68 5.68 0 0 1 1.728-.218.153.153 0 0 1-.021-.019c-.07-.068-.036-.104 0-.137.315-.32.388-.614.286-.88-.104-.274-.388-.532-.784-.77-.422.048-.827-.066-1.275-.016-.28.03-.554.092-.825.182.226.081.422.214.583.403.2.235.342.555.417.958.01.047.017.094-.078.113-.095.02-.104-.03-.114-.078-.068-.367-.196-.656-.374-.867-.187-.268-.616-.372-.751-.427-.448.045-.889.095-1.273.195-.289.073-.542.175-.737.327.29-.062.59-.05.851.08.249.123.46.356.593.732.016.045.03.093-.062.124-.092.03-.11-.015-.123-.062-.112-.325-.287-.519-.493-.62-.41-.205-1.256-.027-1.614.239a4.229 4.229 0 0 0-.623.592c-.021.026-.045.05-.074.052.768.052 1.54.093 2.138.332zm-2.277-.434c-.017-.042.012-.073.038-.104a4.3 4.3 0 0 1 .659-.626c.218-.16.443-.277.675-.331.237-.263.588-.422.995-.526.396-.102.848-.154 1.306-.2-.135-.272-.308-.435-.507-.523-.214-.095-.46-.11-.723-.083-.552.19-1.043.486-1.514.82.042 0 .085 0 .125.002.14.01.266-.012.382.033.047.017.092.034.06.126-.041.111-.347.043-.453.035a1.352 1.352 0 0 0-.4.038c-.025.005-.046.012-.067.005-.496.306-.87.616-1.27.955.303.107.54.232.694.38z"/></g><path d="M408.936 156.475l20.74-47.006-15.3-24.7-27.28 10.101-12.628 49.68a219.353 219.353 0 0 1 34.466 11.928z" fill="#0093dd"/><path d="M382.489 112.995a251.676 251.676 0 0 1 39.584 13.701l-8.002 18.145a231.915 231.915 0 0 0-36.468-12.62z" fill="#fff"/><path d="M415.358 141.926l5.346-12.116a248.517 248.517 0 0 0-39.05-13.516l-3.15 12.395a235.857 235.857 0 0 1 37.039 12.82z" fill="red"/><path d="M385.503 125.734c.358-.225.74-.17 1.123-.109.31-.116.669-.156 1.057-.142.166-.09.358-.154.576-.194.116-.09.12-.187.017-.292a.62.62 0 0 1-.16-.353c-.615-.357-.843-.902-1.077-1.443-.351-.092-.515-.21-.552-.343-.171-.017-.34-.033-.508-.052-.798.087-1.004-.171-1.289-.382-.237-.078-.443-.208-.575-.457l-.264-.332c-.218-.277-.151-.645.178-.623.232.026.462.026.676-.067.248-.111.62-.109.902-.085.334-.019.545-.234.87-.538-.002-.13-.002-.258-.005-.388-.052-.14.015-.202.2-.183a.98.98 0 0 1 .867.507c.504.088.902.33 1.17.754.67.002 1.123.256 1.178.504.04.183-.156.391-.46.614.003.045.005.093.005.138.18.156.299.312.36.466.377.145.737.34 1.074.624.96-.112 2.578.585 4.765 1.98 1.42.254 2.796.648 4.118 1.219.28.01.56.016.837.026 2.372-.351 4.67-.08 6.803 1.55.806.097 1.528.35 2.227.64.52.213 1.048.295 1.58.345a7.929 7.929 0 0 1 2.605.7c.974.217 1.884.523 2.448 1.205.4.484.303.93-.206 1.114-.308.65-.922.678-1.841.358-.633.116-1.33-.391-1.962-.867-.88-.282-1.688-.79-2.486-1.33-.415-.31-.834-.507-1.242-.594-.32-.07-.607-.114-.798 0-.095.056-.083.09 0 .158.222.187.379.467.428.804.045.296-.002.637.015 1 .019.381.248.658.632.895.263.161.576.332 1.029.396.215.043.277.168.27.332.12.578.232 1.16.443 1.685.06.149.173.22.344.346.585.421.282.893-.252.995-.466.412-.87.69-1.348.798-.381.128-.538-.028-.666-.215a.483.483 0 0 1-.443-.247c-.467-.343-.069-.94 1.048-.685.023-.13.118-.17.213-.168-.067-.289-.104-.611.021-.912-.1-.064-.185-.145-.33-.192-.402-.128-.784-.313-1.085-.595-.57-.538-1.464-.988-2.324-1.44-.711-.036-1.24-.363-1.796-.64l-.754-.01c-.22-.073-.4.003-.533.161-.223.27-.481.225-.787.19-.35-.04-.706-.014-1.057-.02-.173.044-.343.098-.53.1-.396-.02-.782-.026-1.045.195-.218.23-.436.213-.654.128a.978.978 0 0 1-.351-.242c-.275-.057-.453-.126-.512-.209-.462-.13-.592-.26-.571-.39-.614-.147-.322-.63.076-.647.469-.02.898.07 1.358.135.386.109.862.045 1.177-.24.204-.185.28-.343.529-.48-.794-.053-1.38-.193-1.81-.465-1.162-.732-2.09-.91-2.83-.29-.197.112-.35.157-.562.077a1.063 1.063 0 0 0-.583-.029c-.419.095-.834.043-1.253-.109a4.09 4.09 0 0 1-1.839.062c-.519.272-.898.303-1.14.095a8.547 8.547 0 0 1-.647-.399c-.329-.05-.471-.132-.485-.241-.422-.048-.474-.202-.472-.37-.175-.201-.109-.355.066-.486.313-.13.638-.177.998.007.216.102.374.202.505.304.24-.029.445 0 .625.066.133-.208.51-.218.922-.194.206-.138.453-.235.768-.263-.01-.05-.019-.1-.026-.147-.415-.11-.628-.41-.834-.713-.638-.012-1.095-.28-1.55-.56-.374.031-.675-.092-.967-.267-.237.019-.5.028-.749-.036a2.55 2.55 0 0 1-1.4 0c-.31.028-.56-.002-.815-.026-.292.334-.619.393-.976.223-.197-.25-.477-.413-.83-.505-.268-.088-.35-.204-.398-.33-.327-.2-.26-.4.055-.552.237-.113.533-.135.983.088.147.055.31.093.495.107z" fill="#000001"/><path d="M401.128 130.497c-.03-.054-.097-.192-.336-.054-.742-.04-1.571-.031-2.194-.398-.65-.382-1.318-.78-2.036-.751.213-.202.479-.34.787-.422.412-.11.9-.116 1.44-.029.759.124 1.427.27 1.944.465.497.187.848.42 1.002.718a.406.406 0 0 0 .043.047c.199.128.372.258.516.396.11.102.204.208.285.322a2.499 2.499 0 0 1-.714-.042 2.874 2.874 0 0 1-.739-.256z" fill="#fff"/><path d="M402.835 94.695l.042.222.934 4.835-3.713 3.236-.171.15.216.076 4.654 1.609.945 4.834.045.222.17-.149 3.721-3.225 4.661 1.597.216.074-.043-.223-.934-4.837 3.714-3.237.17-.149-.215-.073-4.654-1.612-.946-4.834-.045-.222-.17.149-3.723 3.227-4.659-1.6z" fill="#000001"/><path d="M400.56 102.934l3.469-3.024 4.362 1.503zm8.41-1.633l3.48-3.026 4.349 1.505zm7.86-1.367l-3.47 3.024-4.362-1.503zm-8.41 1.635l-3.481 3.024-4.349-1.503zm-5.093-6.429l4.353 1.493.882 4.528zm5.621 6.465l4.36 1.502.872 4.519zm5.114 6.123l-4.353-1.49-.882-4.53zm-5.621-6.465l-4.36-1.5-.872-4.518zm3.021-7.625l.884 4.516-3.48 3.026zm-2.789 8.099l.88 4.529-3.477 3.016zm-2.746 7.493l-.884-4.516 3.481-3.026zm2.789-8.1l-.88-4.528 3.477-3.014z" fill="#f7db17"/></svg>