<svg xmlns="http://www.w3.org/2000/svg" xmlns:xlink="http://www.w3.org/1999/xlink" viewBox="0 0 640 480" height="16" width="22"><path d="M640 480H0V0h640z" fill="#ba0000"/><use transform="rotate(120 311.06793 208.70627)" xlink:href="#flag-im-a"/><use transform="rotate(-120 314.9709 205.97276)" xlink:href="#flag-im-a"/><g id="flag-im-a"><path d="M336.929 353.45c.188-.57.567-6.434.378-6.434-.19 0-8.893-10.215-8.703-10.215.19 0 11.162 2.46 11.162 2.08 0-.378 4.352-10.782 4.352-10.971 0-.188 5.296 12.675 5.296 12.675l10.782 4.73-7.567 6.242s1.704 12.107 1.704 12.298c0 .188-7.567-7.19-7.567-7.19l-8.326.947s-1.133-3.784-1.511-4.162z" fill="#ffef00" stroke="#000001" stroke-width="2.072"/><path d="M278.31 194.477c-7.188 3.701-34.78 35.236-38.558 40.155-3.171 7.14-9.372 16.172-15.758 21.986-6.816 5.159-10.605 12.204-9.667 18.875-.075 8.3 4.578 13.952 8.286 19.793 2.194 2.668 5.146 4.393 8.286 4.602 6.439.85 7.01 2.833 10.233 4.061 12.695 17.287 31.634 30.033 45.274 40.129 8.695 4.583 14.739 9.165 16.812 11.667 3.993 7.625 3.258 15.06 2.71 18.713-3.374 12.737-6.75 25.472-10.126 38.208-1.704 10.405 7.338 8.065 7.824 5.984 4.08-5.297 10.171-1.578 18.873-32.224l11.969-16.111s4.604-1.84 4.604-2.3c7.001-8.406 1.671-13.217-2.303-14.73l-8.744-3.224s-10.126-10.126-10.587-10.126c-4.813-14-28.433-43.886-33.92-48.047-3.798-3.958-5.605-5.645-9.21-7.846-5.543-2.651-7.332-3.514-10.726-4.87-2.827-1.133-.814-4.236.983-5.655 18.709-10.184 33.539-21.502 51.491-33.01l2.762-1.843-6.445-36.824-29.92-10.589c-1.57 1.075-2.76 2.15-4.143 3.225z" fill="#fff" stroke="#000001" stroke-width="2.478"/><path d="M303.343 388.361c.094-.378 18.727-3.784 18.727-3.784s-2.175 6.906-2.27 6.906l-18.537 5.58 2.08-8.701z" fill="#ffec00" stroke-width=".94"/><path d="M254.792 318.2c3.594-9.554 13.571-17.118 20.274-19.205" fill="none" stroke="#000001" stroke-width="2.072"/><path d="M302.675 388.52c1.203-.338 6.543-1.896 8.1-2.139a62.544 62.544 0 0 0 4.906-1.338c1.842-.376 2.995-.722 4.907-1.072 1.5-.57 2.98-.962 4.581-1.336M299.3 400.041c.158-.206 1.427-1.33 2.338-1.872 1.075-.338 4.747-1.897 6.136-2.14a50.699 50.699 0 0 0 4.382-1.338c1.645-.376 2.674-.722 4.383-1.072 1.337-.57 2.66-.961 4.09-1.336" fill="none" stroke="#000001" stroke-width="2.291"/><path d="M306.868 320.897h-.267c.836 0 .323-.07-.804 1.338-.4 1.08-3.835 3.478-6.42 3.478-1.248.133-3.165.267-4.415.267-.357 0-.846-.267-1.203-.267m12.845 50.306h1.337c1.388 0 2.78.247 4.014.267 1.338 0 2.675.38 4.014.38 1.35.19 2.977.128 4.374.327 1.566.053 2.82.362 4.453.362 1.314.05 2.023.27 3.478.27l-3.478-.27c1.314.05 2.023.27 3.478.27m-30.769 31.031c.143-.21 1.307-1.33 2.14-1.873.984-.338 4.346-1.897 5.619-2.14a43.916 43.916 0 0 0 4.012-1.338c1.508-.376 2.45-.722 4.014-1.071 1.225-.571 2.436-.963 3.745-1.337m5.521-38.743c-.756 2.197.224 2.748.63 3.697.705.918 2.506 2.318 5.351 3.21 1.097.295 1.94.585 3.21 1.072.84.077 1.254.286 1.873.533m-116.908-89.089h.267c-.838 0-.335.054 1.072-1.072.867-.97 1.593-1.41 2.406-2.406m13.57 22.531c.179 0 15.564-7.754 17.207-9.409 1.163-.846 2.045-1.735 3.459-2.694.909-.473 1.56-1.08 2.41-1.604.705-1.025 1.63-1.643 2.139-2.58.944-.818.54-1.707 1.306-2.693.361-1.01 1.039-2.712 1.26-3.637m19.595 11.507c.085.555-.244 2.258-.222 3.555-.053 1.504-1.988 6.15-4.327 7.539" fill="none" stroke="#000001" stroke-width="2.072"/><path d="M253.767 289.35c.09 0 2.432.762 6.345 1.965 4.712 1.695 14.512 7.87 15.484 8.72.993.781 2.769 1.48 3.45 2.407 1.065.921 1.844 1.982 2.676 2.942.977 1.194 1.81 2.202 2.406 3.212 2.975 2.413 10.98 19.123 11.236 20.066a41.31 41.31 0 0 1 1.338 2.942c.593.684.997 1.65 1.605 2.676.56 1.33 1.186 1.936 1.874 2.942.886.617 2.08 1.786 3.21 2.408 1.206 1.03 2.337 1.45 3.21 2.14 1.263.537 15.362 9.45 16.016 9.896 1.288 1.034 5.222 5.111 2.46 8.075-1.171 1.003-2.228 2.331-3.227 2.897-1.02 1.02-2.438 1.478-3.61 2.006-6.352 1.88-9.587 1.205-10.838 1.205h-1.337m-83.44-108.016c1.805.706 1.077.185 2.702.925 1.093.479 1.812.49 2.886.883 1.137.364 4.321.94 5.85 2.472 1.122 1.014 1.978 1.871 3.21 2.61 1.458 1.006 2.51 1.452 4.317 2.206 1.525.57 3.23 1.203 4.77 1.258 1.603.094 1.988.013 3.526.013h3.745-3.746 3.745" fill="none" stroke="#000001" stroke-width="2.072"/><path d="M222.192 275.683c4.012-.267 10.7.94 10.834.94l8.83-.133c4.637-.448 5.662-2.23 6.42-3.48 1.739-2.674 2.944-3.61 4.281-5.618 2.14-1.604 5.086 2.14 5.217 2.14 7.492 7.091 1.471 15.785 1.07 16.052-3.744 3.434-4.547 3.657-6.82 1.471-2.276-2.675-2.943-3.878-4.816-4.815-3.61-1.74-11.102-.4-11.237-.4-.134 0-3.879 1.47-3.879 1.47-1.829.67-2.989 2.275-6.153 2.81-3.21.223-4.28-.09-5.886-2.675-2.14-3.344-1.072-7.358 2.141-7.758z" fill="#ffe606" stroke="#000001" stroke-width="2.072"/><path d="M308.531 217.422c.467-.338-5.26 2.66-6.73 3.412-26.495 14.134-40.129 34.692-40.978 35.468-.458.876-1.301 2.044-2.072 3.189-.62.959-1.514 1.951-2.1 2.921-.812 1.125-2.52 3.345-3.45 4.33-.116.635.442-.216.26.207" fill="none" stroke="#000001" stroke-width="2.072"/></g><path d="M280.783 187.671c-1.472-1.337 27.69 10.566 31.702 10.702 5.486-2.006 28.093-21.135 28.093-21.135.223 1.873 1.024 6.733 3.209 7.76-8.738 7.09-16.676 13.912-25.415 21 .623 11.237-1.429 23.142 4.28 35.72 0 0-6.821.13-6.821 0-6.02-6.02-8.162-35.048-8.162-35.048-9.586-4.281-19.174-8.428-28.76-12.709 1.382-.893 2.497-3.656 1.873-6.288z" fill="#ffef00" fill-opacity=".987" stroke="#000001" stroke-width="2.072"/></svg>