<svg xmlns="http://www.w3.org/2000/svg" xmlns:xlink="http://www.w3.org/1999/xlink" viewBox="0 0 640 480" height="16" width="22"><path d="M0 0h640v160H0z" fill="#f93"/><path d="M0 160h640v160H0z" fill="#f5f5f5"/><path d="M0 320h640v160H0z" fill="#128807"/><g transform="matrix(3.2 0 0 3.2 320 240)"><path d="M0-20a20 20 0 1 0 0 40 20 20 0 1 0 0-40z" fill="#008"/><path d="M0-17.5a17.5 17.5 0 1 0 0 35 17.5 17.5 0 1 0 0-35z" fill="#fff"/><path d="M0-3.5a3.5 3.5 0 1 0 0 7 3.5 3.5 0 1 0 0-7z" fill="#008"/><g id="flag-in-d"><g id="flag-in-c"><g id="flag-in-b"><g fill="#008" id="flag-in-a"><path d="M0-.875a.875.875 0 1 0 0 1.75.875.875 0 1 0 0-1.75z" transform="rotate(7.5 -8.75 133.5)"/><path d="M0 17.5L.6 7 0 2l-.6 5L0 17.5z"/></g><use transform="rotate(15)" xlink:href="#flag-in-a"/></g><use transform="rotate(30)" xlink:href="#flag-in-b"/></g><use transform="rotate(60)" xlink:href="#flag-in-c"/></g><use transform="rotate(120)" xlink:href="#flag-in-d"/><use transform="rotate(-120)" xlink:href="#flag-in-d"/></g></svg>