<svg xmlns="http://www.w3.org/2000/svg" viewBox="0 0 640 480" height="16" width="22"><path d="M0 480V0h640v480H320z" fill="#f5f5f5"/><path d="M.501 66.689L273.111 240-.197 413.749-.501 475l322.028-204.809L639.963 475l-.276-61.251L369.94 240 639.797 66.689 640.313 5 321.527 209.809-.501 5z" fill="#df112d" fill-rule="evenodd"/><g fill="none" fill-rule="evenodd" stroke="#000001" stroke-width=".5"><path d="M359.551 85.431c9.634 40.15 4.35 89.737-39.162 117.25-43.515-27.514-48.8-77.1-39.162-117.25 10.257-9.598 56.876-15.516 78.324 0z" fill="#e8112d" fill-rule="nonzero"/><path d="M320.325 77.369c15.953 0 30.81 4.346 39.568 9.98 1.719-13.843 7.818-27.687 15.013-38.15-7.507-.162-10.87 3.943-10.947 8.209-1.877-5.473-9.228-5.152-11.496-2.174 8.211 5.715 1.877 15.856-5.55 13.764-3.489-.983-5.333-3.487-5.986-7.123a3.957 3.957 0 0 0 2.271-.919c1.731-1.445 1.997-4.062.592-5.843-1.404-1.782-3.944-2.055-5.677-.61-1.731 1.445-1.997 4.062-.59 5.844a4.01 4.01 0 0 0 1.682 1.253c-2.347 3.944-6.557 5.127-9.573 4.258-3.91-1.126-5.552-4.748-5.552-7.968 0-8.37 7.817-9.658 10.165-8.209-.156-5.634-8.758-10.141-11.417-5.473 2.97-5.473 2.815-13.2-2.503-18.35-5.315 5.15-5.473 12.877-2.5 18.35-2.659-4.668-11.261-.16-11.417 5.473 2.344-1.449 10.165-.161 10.165 8.21 0 3.219-1.642 6.84-5.552 7.967-3.016.87-7.226-.314-9.577-4.258a4.01 4.01 0 0 0 1.686-1.253c1.404-1.782 1.138-4.399-.593-5.844-1.73-1.445-4.273-1.172-5.678.61-1.404 1.781-1.138 4.398.593 5.843a3.974 3.974 0 0 0 2.274.92c-.653 3.635-2.5 6.14-5.986 7.122-7.427 2.092-13.762-8.05-5.553-13.764-2.265-2.978-9.616-3.3-11.493 2.174-.08-4.266-3.44-8.37-10.947-8.21 7.192 10.463 13.291 24.307 15.013 38.151 8.758-5.634 23.615-9.98 39.565-9.98z" fill="#f9dd16" fill-rule="nonzero"/><g fill="#f9dd16" fill-rule="nonzero"><path d="M353.415 116.748c-.961.236-.961 1.511-1.465 1.511 2.5-.07 3.715-.779 4.472-2.078-.55.52-.07 1.512-.253 1.748 1.834-.661 2.707-2.267 2.066-3.353.412.613 1.606.944 1.972.991-1.285-1.039-.366-3.4-2.433-4.628.69-.047 2.021.756 2.388 1.7-.32-2.125-.645-3.494-2.342-4.675.183.213 1.148.401 1.56 0-1.099-.708-1.422-1.889-1.328-2.644.128-1.058-.552-1.276-1.837-.945-1.157.298-3.807.472-5.367.472-3.211 0-6.01 0-8.672-1.889 3.992 1.7 9.084-1.889 9.084-4.864 0-3.306-3.947-5.998-11.93-4.203-7.982 1.794-17.708 1.039-17.708-1.7 0-2.74 6.972-3.117 10.553-2.55 3.578.566 6.145.944 12.846-1.512-1.652.661-6.976.85-11.194-.377-4.222-1.228-14.592-1.228-14.683 4.533-.092 5.762 11.04 5.237 20.647 3.778 5.596-.85 8.533-.283 8.533 1.606 0 1.794-5.138 2.55-9.085 2.078-3.944-.472-7.983-.378-12.662 1.039-3.908 1.183-6.606 0-10.92.756-2.09.365-7.158 0-9.658-4.251-1.539 1.134-6.172 3.506-6.95 5.82-1.103 2.126-.367 4.24 1.098 6.317 1.85 2.615-.916 2.22-2.888 2.314-2.704.13-6.325-.295-8.214-2.503-1.673-1.956-3.902-3.523-5.681-2.074-.916.747-.037 1.729.687 1.454.717-.272 1.566.275 2.332.62-1.224-.541-2.57-.121-3.096.362-.723.668.156 1.943 1.032 1.492.687-.353 2.097-.589 3.013.275-.992-.196-2.024-.155-2.518.393-.495.548-.113 1.345.955 1.296 1.716-.078 2.155 1.159 3.874.905-1.056.141-1.654.708-1.93 1.133 1.606-.756 3.38 1.281 5.462.803-.812.344-2.122 1.166-2.11 1.795 1.237-1.465 9.543 1.133 9.726-2.078.23.66.183 1.653-.458 2.503 1.063-.662 4.497-.898 5.55-3.448.092.756-.046 1.748-.687 1.984 1.102.37 2.552-.474 4.036-2.74.589-.898.73-1.495.629-2.17 1.47.056 2.536-.324 3.684-1.324 1.194-1.04 2.479.85 4.497-.473 2.02-1.322 3.763-.188 4.862-.85 1.102-.66 2.616.236 3.81-.519 1.194-.756 3.044.37 5.019-1.236 3.107 1.172 6.734 3.343 15.629 1.661 5.098-.964 6.697.803 6.697 3.211 0 1.653-.94 1.797-1.651 1.842-2.836.18-4.054-1.092-5.174-.685-.751.276-1.21 1.532-.122 1.964-.898.472-.782 1.356-.324 1.68.458.324 1.64.03 2.442-.354-1.032.481-2.1 1.345-1.49 2.249.37.548 1.304 1.013 2.177-.157.876-1.179 2.479-2.16 3.498-2.005zm-56.484-24.951c-2.587-1.062-3.46-1.092-2.864 1.016.255.901.876 2.172 1.5 2.75.025-.878.347-3.304 1.364-3.766z"/><path d="M304.94 91.797c2.587-1.062 3.46-1.092 2.863 1.016-.255.901-.878 2.172-1.502 2.75-.022-.878-.344-3.304-1.361-3.766z"/><path d="M300.94 90.361c4.864 0 5.471 2.35 5.447 5.277-.022 3.164-1.673 2.078-2.613 6.14-.367 1.587-1.597 1.676-2.833 1.676-1.24 0-2.467-.089-2.836-1.677-.937-4.061-2.592-2.975-2.613-6.139-.025-2.928.583-5.277 5.449-5.277z"/><path d="M288.425 101.965c-1.24-.756-2.04-.233-2.543-.091 1.606.425 1.67 2.547 5.342 3.538-.827-.236-1.285.236-2.066-.189 1.514 1.228 3.211 2.65 6.792 2.692 1.996.024.616 1.086-.69.472 1.355 1.44 4.038.26 5.736 2.881.32-2.03-3.166-5.242-1.56-7.556-4.951-.217-5.357-3.041-8.212-5.289-2.323-1.827-2.53-3.685-3.556-7.163-.467-1.575-2.259-2.557-3.251-2.184-.867.326-1.184 1.1-.44 1.68.745.579 1.698.657 1.902 2.125-.968-1.193-2.418-1.625-3.114-.878-.424.454-.253 1.514.66 1.61 1.486.157.418 1.65 2.11 3.11-1.5-1.735-2.797-1.892-3.6-.95-.48.565 0 1.571 1.032 1.464 1.493-.157 3.224 3.74 5.458 4.728zm39.898 14.591c-.782.142-.55 1.465-1.606 1.56 2.525 0 3.807-.615 5-1.607-.55.33-.778 1.181-.824 1.653 1.331-1.18 4.497-1.275 6.148-.944 1.652.33 1.926-.472 2.522-1.559.598-1.086-.23-1.7-1.054-2.55-.827-.85-1.01-2.03-.827-4.014-4.405-6.045-12.296-3.117-12.387-.472 2.845 3.4 3.21 3.022 5.598 3.494 2.384.473 3.846.471 2.247 1.842-.55.472-2.845.25-4.634.33-4.002.18-5.834-2.845-7.015-1.274-.974 1.292.03 1.863 2.015 1.794-1.374.01-3.196-.066-2.885 1.25.525 2.22 2.586-.412 3.388.501-.686-.167-1.755.265-1.795.933-.036.668 1.527 1.532 3.245.128.94-.77 2.14-1.058 2.864-1.065z"/></g><path d="M331.77 107.326c-1.44-.527-2.762-.85-4.452-.5m-17.154-.186c-1.186 2.55-.467 3.808-.292 4.99m-12.259-17.344c.815.408 1.273-.743 2.468.479-.329-.357-.738.947-1.653.082m5.795-.561c-.814.408-1.272-.743-2.467.479.329-.357.737.947 1.653.082"/><path d="M301.778 94.776c-.28.23-.307-.184-.095.906.393 2.002.857 2.938-.762 2.938-1.653 0-1.152-.936-.762-2.938.215-1.09.187-.675-.092-.906"/><path d="M300.957 102.536c1.315 0 2.077-.023 1.871-1.87-.086-.742.9-1.038.553-2.241.37 1.478-2.424 1.337-2.424.667 0 .67-2.793.81-2.424-.667-.347 1.203.636 1.499.553 2.24-.206 1.848.556 1.871 1.871 1.871z" fill="#ff0016" fill-rule="nonzero"/><path d="M297.604 98.158l-.992-.27m.871 1.028l-1.237-.01m1.465.212l-.919.246m5.308-1.206l.993-.27m-.993 1.028l1.238-.01m-1.268.212l.919.246" fill="#000001" fill-rule="nonzero"/><path d="M284.692 89.13c-.92-1.144-3.22-.177-3.267 1.243.778-.92 2.047.405 2.738.126.48-.193.9-.903.529-1.368zm-1.16 2.769c-.92-1.144-3.217-.178-3.264 1.242.775-.92 2.044.405 2.738.126.48-.192.9-.902.526-1.368zm-.612 3.723c-1.042-1.034-3.217.185-3.103 1.6.67-1 2.077.174 2.734-.181.455-.246.793-.998.37-1.42zm1.098 11.53c-1.155-.906-3.174.555-2.9 1.948.55-1.072 2.083-.067 2.694-.495.424-.297.676-1.083.206-1.453zm-.065 2.528c-1.377-.508-2.851 1.504-2.16 2.746.19-1.19 1.96-.705 2.412-1.302.313-.412.307-1.237-.252-1.444zm1.74 1.885c-1.377-.508-2.851 1.504-2.163 2.746.193-1.19 1.963-.706 2.415-1.302.313-.412.307-1.237-.252-1.444zm35.837 3.655c-1.376-.508-2.85 1.504-2.16 2.745.194-1.189 1.961-.705 2.413-1.301.313-.413.307-1.238-.252-1.445zm1.861 1.71c-1.425-.348-2.66 1.819-1.834 2.973.055-1.203 1.868-.924 2.25-1.568.263-.445.165-1.264-.416-1.405zm-1.309-4.138c-1.272-.735-3.066.997-2.596 2.338.393-1.14 2.053-.361 2.6-.872.377-.353.513-1.167-.004-1.466zm25.486 2.959c-1.426-.347-2.661 1.82-1.834 2.974.058-1.203 1.87-.924 2.249-1.567.264-.446.166-1.265-.415-1.407zm.064-2.318c-1.293-.69-3.026 1.103-2.513 2.426.353-1.151 2.04-.431 2.569-.96.365-.367.473-1.185-.056-1.466zm.973 4.389c-1.438-.285-2.578 1.934-1.702 3.051.006-1.204 1.828-1.005 2.179-1.664.245-.457.11-1.271-.477-1.387zm-47.565-16.329c.904 0 1.27.264 1.27 1.897 0 3.458-.04 4.945-1.153 4.945-1.115 0-1.039-1.413-1.039-3.952 0-1.325 0-1.987-.267-1.877 0-.864.384-1.013 1.19-1.013z" fill="#0051ba" fill-rule="nonzero"/><g fill="#f9dd16" fill-rule="nonzero"><path d="M348.943 149.677c-.865.212-.865 1.36-1.319 1.36 2.25-.064 3.344-.701 4.025-1.87-.494.467-.063 1.36-.228 1.572 1.651-.595 2.437-2.04 1.86-3.017.371.552 1.445.85 1.775.892-1.157-.935-.33-3.06-2.19-4.165.621-.043 1.82.68 2.149 1.53-.289-1.913-.58-3.145-2.107-4.208.164.192 1.033.361 1.404 0-.99-.637-1.28-1.7-1.196-2.38.116-.951-.497-1.148-1.653-.85-1.042.268-3.426.425-4.83.425-2.89 0-5.41 0-7.806-1.7 3.594 1.53 8.177-1.7 8.177-4.378 0-2.975-3.553-5.398-10.737-3.783-7.184 1.615-15.938.935-15.938-1.53s6.275-2.805 9.498-2.295c3.22.51 5.53.85 11.561-1.36-1.486.595-6.278.765-10.075-.34-3.8-1.105-13.132-1.105-13.214 4.08-.083 5.186 9.937 4.713 18.583 3.4 5.036-.765 7.679-.254 7.679 1.446 0 1.615-4.624 2.295-8.177 1.87-3.55-.425-7.184-.34-11.396.935-3.516 1.064-5.945 0-9.827.68-1.882.33-6.442 0-8.692-3.826-1.385 1.02-5.556 3.156-6.256 5.239-.992 1.913-.33 3.815.989 5.685 1.665 2.353-.824 1.997-2.6 2.083-2.433.116-5.692-.267-7.392-2.253-1.506-1.76-3.511-3.171-5.113-1.866-.824.671-.033 1.555.618 1.308.646-.245 1.41.247 2.099.558-1.102-.488-2.313-.11-2.786.325-.65.601.14 1.75.929 1.344.618-.319 1.887-.53 2.711.247-.892-.177-1.821-.14-2.266.354-.445.492-.102 1.21.86 1.166 1.544-.07 1.94 1.043 3.486.814-.95.128-1.489.638-1.736 1.02 1.445-.68 3.041 1.153 4.915.723-.73.31-1.91 1.049-1.899 1.615 1.113-1.318 8.589 1.02 8.754-1.87.206.595.164 1.487-.413 2.253.957-.596 4.047-.808 4.995-3.103.083.68-.041 1.572-.618 1.785.992.333 2.297-.427 3.632-2.465.53-.809.657-1.347.566-1.955 1.324.052 2.283-.29 3.316-1.19 1.074-.936 2.23.765 4.047-.426 1.819-1.19 3.387-.17 4.376-.765.992-.595 2.355.213 3.43-.467 1.073-.68 2.738.333 4.516-1.112 2.797 1.054 6.06 3.008 14.066 1.494 4.588-.868 6.028.723 6.028 2.89 0 1.488-.846 1.618-1.486 1.658-2.553.162-3.649-.983-4.657-.616-.676.248-1.088 1.379-.11 1.768-.808.424-.703 1.22-.291 1.51.412.292 1.475.027 2.198-.317-.929.433-1.89 1.21-1.341 2.023.332.494 1.173.912 1.959-.14.788-1.062 2.23-1.945 3.148-1.805zm-50.835-22.457c-2.329-.955-3.114-.981-2.578.916.23.81.788 1.954 1.35 2.474.022-.79.312-2.973 1.228-3.39z"/><path d="M305.315 127.22c2.329-.955 3.114-.981 2.578.916-.23.81-.791 1.954-1.353 2.474-.02-.79-.31-2.973-1.225-3.39z"/><path d="M301.748 125.929c4.406 0 4.956 2.114 4.934 4.749-.02 2.848-1.516 1.87-2.367 5.525-.332 1.43-1.447 1.51-2.567 1.51-1.122 0-2.234-.08-2.569-1.51-.849-3.655-2.348-2.677-2.367-5.525-.022-2.635.528-4.75 4.936-4.75z"/><path d="M290.452 136.372c-1.115-.68-1.835-.21-2.289-.082 1.446.382 1.503 2.292 4.808 3.185-.744-.213-1.156.212-1.86-.17 1.363 1.105 2.89 2.384 6.113 2.422 1.797.021.555.978-.62.425 1.22 1.297 3.634.234 5.162 2.593.288-1.828-2.85-4.718-1.404-6.8-4.457-.196-4.822-2.738-7.39-4.76-2.091-1.645-2.278-3.317-3.201-6.447-.42-1.418-2.033-2.301-2.926-1.966-.78.294-1.066.99-.396 1.511.67.522 1.528.593 1.712 1.914-.871-1.074-2.176-1.463-2.803-.791-.381.409-.228 1.363.594 1.45 1.338.14.376 1.484 1.898 2.798-1.349-1.561-2.516-1.703-3.239-.854-.431.508 0 1.414.929 1.317 1.343-.141 2.9 3.367 4.912 4.255zm35.908 13.132c-.703.128-.495 1.318-1.445 1.403 2.272 0 3.426-.553 4.5-1.445-.495.297-.7 1.063-.742 1.487 1.198-1.062 4.047-1.147 5.533-.85 1.487.298 1.734-.424 2.27-1.402.538-.978-.206-1.53-.948-2.295-.745-.765-.91-1.828-.745-3.613-3.964-5.44-11.066-2.805-11.148-.425 2.56 3.06 2.89 2.72 5.038 3.145 2.146.425 3.462.424 2.022 1.658-.494.425-2.56.225-4.17.297-3.602.162-5.25-2.56-6.314-1.147-.876 1.163.028 1.677 1.814 1.615-1.237.009-2.877-.06-2.597 1.125.473 1.997 2.327-.371 3.05.45-.618-.15-1.58.24-1.616.84-.032.602 1.374 1.379 2.92.115.847-.693 1.927-.952 2.578-.958z"/></g><path d="M329.463 141.197c-1.297-.474-2.486-.765-4.007-.45m-15.439-.167c-1.067 2.294-.42 3.427-.263 4.491m-11.032-15.61c.732.367 1.144-.67 2.22.43-.296-.32-.664.854-1.488.075m5.216-.505c-.732.367-1.145-.67-2.22.43.296-.32.663.854 1.488.075"/><path d="M302.47 129.902c-.252.207-.277-.166-.086.815.354 1.802.772 2.645-.686 2.645-1.488 0-1.037-.843-.686-2.645.194-.981.17-.608-.083-.815"/><path d="M301.73 136.886c1.184 0 1.87-.02 1.685-1.684-.077-.667.81-.933.498-2.016.332 1.33-2.182 1.203-2.182.6 0 .603-2.514.73-2.182-.6-.313 1.083.572 1.349.498 2.016-.186 1.664.5 1.684 1.684 1.684z" fill="#ff0016" fill-rule="nonzero"/><path d="M298.624 132.922l-.804-.218m.673.923l-1.002-.007m1.236.19l-.745.199m4.778-1.087l.803-.218m-.803.923l1.002-.007m-1.029.19l.744.199" fill="#000001" fill-rule="nonzero"/><path d="M287.092 124.821c-.827-1.03-2.898-.16-2.94 1.118.7-.828 1.842.365 2.464.114.432-.174.81-.813.476-1.232zm-1.044 2.492c-.827-1.03-2.895-.16-2.937 1.117.697-.828 1.84.365 2.464.114.431-.173.81-.812.473-1.231zm-.55 3.35c-.938-.93-2.896.167-2.794 1.441.603-.901 1.87.156 2.462-.164.409-.22.713-.898.332-1.277zm.988 10.377c-1.04-.815-2.857.5-2.611 1.754.495-.965 1.875-.06 2.425-.446.382-.267.609-.975.186-1.307zm-.059 2.275c-1.239-.457-2.566 1.354-1.944 2.472.171-1.07 1.764-.635 2.17-1.172.283-.37.277-1.113-.226-1.3zm1.566 1.697c-1.239-.457-2.566 1.354-1.947 2.471.174-1.07 1.767-.635 2.174-1.171.282-.371.276-1.114-.227-1.3zm32.254 3.289c-1.239-.457-2.566 1.354-1.944 2.471.174-1.07 1.764-.634 2.17-1.171.283-.371.277-1.114-.226-1.3zm1.675 1.539c-1.284-.313-2.395 1.637-1.651 2.677.05-1.083 1.681-.832 2.024-1.411.238-.401.15-1.139-.373-1.266zm-1.178-3.724c-1.145-.661-2.76.898-2.337 2.104.354-1.025 1.847-.325 2.34-.784.34-.318.461-1.05-.003-1.32zm22.936 2.664c-1.283-.313-2.394 1.637-1.65 2.676.052-1.083 1.684-.831 2.024-1.41.238-.401.15-1.139-.373-1.266zm.059-2.087c-1.165-.621-2.724.993-2.263 2.184.318-1.036 1.837-.388 2.312-.865.33-.33.426-1.066-.05-1.319zm.875 3.951c-1.294-.257-2.32 1.74-1.532 2.746.006-1.084 1.646-.905 1.96-1.499.222-.41.1-1.143-.428-1.247zm-42.808-14.696c.813 0 1.142.237 1.142 1.706 0 3.113-.036 4.451-1.037 4.451-1.004 0-.935-1.271-.935-3.557 0-1.192 0-1.788-.24-1.689 0-.778.345-.911 1.07-.911z" fill="#0051ba" fill-rule="nonzero"/><g fill="#f9dd16" fill-rule="nonzero"><path d="M341.466 177.861c-.644.177-.644 1.134-.982 1.134 1.675-.054 2.49-.585 2.996-1.559-.368.39-.047 1.134-.17 1.31 1.23-.495 1.815-1.7 1.385-2.514.276.46 1.076.708 1.322.744-.862-.78-.246-2.55-1.63-3.471.462-.036 1.353.566 1.599 1.275-.215-1.594-.432-2.621-1.569-3.507.123.16.77.301 1.045 0-.736-.531-.953-1.417-.89-1.983.086-.793-.37-.957-1.23-.709-.776.224-2.551.355-3.596.355-2.152 0-4.027 0-5.81-1.417 2.674 1.275 6.086-1.417 6.086-3.648 0-2.48-2.645-4.499-7.993-3.153-5.348 1.346-11.864.78-11.864-1.275 0-2.054 4.67-2.338 7.07-1.912 2.397.424 4.117.708 8.606-1.134-1.106.496-4.673.638-7.5-.283-2.828-.921-9.776-.921-9.837 3.4-.062 4.321 7.397 3.927 13.834 2.834 3.749-.638 5.716-.213 5.716 1.204 0 1.346-3.442 1.912-6.086 1.558-2.643-.354-5.349-.283-8.484.78-2.618.886-4.426 0-7.316.566-1.4.275-4.796 0-6.471-3.188-1.03.85-4.136 2.63-4.657 4.366-.738 1.594-.246 3.179.736 4.737 1.24 1.961-.613 1.665-1.935 1.736-1.812.097-4.237-.222-5.503-1.877-1.121-1.467-2.614-2.643-3.807-1.556-.613.56-.024 1.297.46 1.09.481-.204 1.05.207 1.563.466-.82-.407-1.722-.091-2.074.27-.485.502.105 1.458.691 1.12.46-.265 1.406-.442 2.02.206-.666-.147-1.357-.116-1.688.295-.332.41-.076 1.009.64.972 1.15-.059 1.444.869 2.595.678a1.765 1.765 0 0 0-1.292.85c1.076-.566 2.264.961 3.659.603-.544.258-1.422.874-1.413 1.346.828-1.099 6.393.85 6.516-1.559.153.496.122 1.24-.307 1.877.712-.496 3.013-.673 3.718-2.585.062.566-.03 1.31-.46 1.487.738.278 1.71-.355 2.704-2.054.395-.674.489-1.122.421-1.629.986.043 1.7-.242 2.469-.992.8-.78 1.66.638 3.012-.354 1.354-.992 2.522-.142 3.259-.638.738-.496 1.752.177 2.552-.39.8-.566 2.04.278 3.362-.926 2.082.879 4.512 2.507 10.472 1.245 3.416-.723 4.487.602 4.487 2.409 0 1.24-.63 1.347-1.106 1.381-1.9.135-2.716-.82-3.467-.513-.503.206-.81 1.149-.082 1.473-.6.353-.523 1.016-.216 1.259.306.243 1.098.022 1.636-.265-.692.36-1.407 1.009-.998 1.686.247.411.873.76 1.458-.117.587-.884 1.66-1.62 2.344-1.504zm-37.845-18.713c-1.733-.797-2.318-.819-1.918.762.17.676.587 1.629 1.004 2.062.017-.658.233-2.477.914-2.824z"/><path d="M308.987 159.148c1.734-.797 2.318-.819 1.919.762-.171.676-.589 1.629-1.007 2.062-.014-.658-.23-2.477-.912-2.824z"/><path d="M306.332 158.07c3.28 0 3.69 1.725 3.673 3.873-.015 2.321-1.129 1.524-1.763 4.504-.247 1.165-1.076 1.23-1.91 1.23-.836 0-1.664-.065-1.913-1.23-.632-2.98-1.747-2.183-1.762-4.504-.016-2.148.393-3.872 3.675-3.872zm-8.41 8.704c-.83-.567-1.366-.175-1.703-.068 1.075.318 1.118 1.91 3.579 2.653-.554-.177-.861.177-1.385-.141 1.015.92 2.152 1.987 4.55 2.018 1.339.018.414.815-.461.355.908 1.08 2.706.195 3.843 2.16.214-1.523-2.121-3.931-1.045-5.667-3.318-.162-3.59-2.281-5.502-3.967-1.557-1.37-1.696-2.763-2.383-5.372-.313-1.181-1.513-1.917-2.178-1.638-.58.245-.794.825-.295 1.26.5.434 1.138.493 1.275 1.594-.649-.895-1.62-1.219-2.087-.659-.284.34-.17 1.136.442 1.208.996.118.28 1.237 1.414 2.332-1.005-1.301-1.874-1.419-2.412-.712-.321.424 0 1.178.691 1.098 1-.118 2.16 2.805 3.657 3.546zm26.732 10.764c-.524.104-.368 1.074-1.076 1.143 1.691 0 2.55-.45 3.35-1.178-.368.243-.521.867-.552 1.213.892-.866 3.013-.935 4.12-.693 1.106.243 1.29-.346 1.688-1.143.401-.797-.153-1.248-.705-1.871-.554-.624-.677-1.49-.554-2.946-2.952-4.435-8.239-2.287-8.3-.346 1.906 2.494 2.152 2.217 3.75 2.564 1.598.346 2.578.345 1.506 1.351-.368.347-1.906.184-3.104.243-2.682.131-3.909-2.088-4.7-.935-.653.948.02 1.366 1.35 1.316-.92.007-2.142-.049-1.933.917.351 1.628 1.732-.302 2.27.368-.46-.123-1.176.194-1.203.684-.024.49 1.023 1.124 2.174.094.63-.565 1.434-.777 1.919-.781z"/></g><path d="M326.964 170.795c-.966-.396-1.85-.638-2.983-.376m-11.494-.139c-.794 1.912-.312 2.856-.195 3.743m-8.213-13.008c.545.305.852-.558 1.653.359-.22-.268-.494.71-1.108.061m3.883-.42c-.545.305-.852-.558-1.653.359.22-.268.494.71 1.108.061"/><path d="M306.869 161.382c-.187.173-.206-.138-.064.68.264 1.5.574 2.203-.51 2.203-1.108 0-.772-.702-.511-2.204.144-.817.126-.506-.062-.68"/><path d="M306.319 167.202c.881 0 1.392-.017 1.254-1.403-.058-.556.603-.778.37-1.68.247 1.108-1.624 1.002-1.624.5 0 .502-1.872.608-1.624-.5-.233.902.426 1.124.37 1.68-.138 1.386.373 1.403 1.254 1.403z" fill="#ff0016" fill-rule="nonzero"/><path d="M303.847 163.868l-.425-.151m.308.768l-.555-.005m.762.158l-.394.139m3.58-.909l.425-.151m-.425.768l.556-.005m-.576.158l.393.139" fill="#000001" fill-rule="nonzero"/><path d="M295.421 157.148c-.616-.858-2.158-.133-2.188.932.52-.69 1.37.304 1.834.094.321-.144.603-.677.354-1.026zm-.777 2.076c-.616-.858-2.156-.133-2.187.932.52-.69 1.37.304 1.835.095.32-.145.603-.677.352-1.027zm-.41 2.792c-.698-.775-2.155.14-2.08 1.201.45-.751 1.392.13 1.833-.136.305-.185.531-.749.247-1.065zm.736 8.648c-.775-.68-2.127.416-1.944 1.461.369-.804 1.396-.05 1.806-.371.284-.223.453-.813.138-1.09zm-.044 1.896c-.922-.38-1.91 1.128-1.447 2.06.127-.892 1.313-.53 1.616-.977.21-.31.206-.928-.169-1.083zm1.166 1.414c-.922-.381-1.91 1.128-1.45 2.06.13-.893 1.316-.53 1.619-.977.21-.31.206-.928-.17-1.083zm24.011 2.741c-.922-.381-1.91 1.128-1.447 2.059.13-.892 1.313-.529 1.616-.976.21-.31.206-.928-.169-1.083zm1.247 1.282c-.956-.26-1.783 1.365-1.23 2.23.038-.902 1.252-.692 1.508-1.175.177-.334.11-.949-.278-1.055zm-.877-3.103c-.853-.551-2.055.748-1.74 1.753.264-.854 1.375-.27 1.742-.653.253-.266.344-.876-.002-1.1zm17.075 2.22c-.955-.261-1.783 1.364-1.229 2.23.04-.902 1.254-.693 1.507-1.176.177-.334.111-.948-.278-1.054zm.043-1.739c-.866-.518-2.028.827-1.684 1.82.237-.864 1.367-.324 1.721-.721.245-.275.317-.888-.037-1.1zm.652 3.292c-.963-.214-1.727 1.45-1.14 2.288.004-.903 1.225-.754 1.46-1.248.164-.343.073-.953-.32-1.04zm-31.869-12.247c.606 0 .85.198.85 1.422 0 2.594-.026 3.71-.771 3.71-.748 0-.696-1.06-.696-2.965 0-.993 0-1.49-.18-1.407 0-.648.258-.76.797-.76z" fill="#0051ba" fill-rule="nonzero"/></g></svg>