<svg xmlns="http://www.w3.org/2000/svg" xmlns:xlink="http://www.w3.org/1999/xlink" viewBox="0 0 640 480" height="16" width="22"><defs><path d="M-28.58 47.5l1.733 1 46.713-80.91c2.732-.73 4.232-3.33 5.732-5.927 1-1.732 5-8.66 6.734-17.663-6.93 6.003-10.93 12.93-11.93 14.663-1.5 2.598-3 5.196-2.268 7.928z" id="flag-ke-a" stroke-miterlimit="10"/></defs><path d="M0 144h640v192H0z" fill="#f5f5f5"/><path d="M0 0h640v144H0z" fill="#000001"/><path d="M0 336h640v144H0z" fill="#060"/><g id="flag-ke-b" transform="matrix(3 0 0 3 320 240)"><use stroke="#000001" xlink:href="#flag-ke-a"/><use fill="#fff" xlink:href="#flag-ke-a"/></g><use transform="matrix(-1 0 0 1 640 0)" xlink:href="#flag-ke-b"/><path d="M640.5 168H377c-9-24-39-72-57-72s-48 48-57 72H-.227v144H263c9 24 39 72 57 72s48-48 57-72h263.5V168z" fill="#b00"/><path d="M377 312c9-24 15-48 15-72s-6-48-15-72c-9 24-15 48-15 72s6 48 15 72" fill="#000001" id="flag-ke-c"/><use fill="#000001" transform="matrix(-1 0 0 1 640 0)" xlink:href="#flag-ke-c"/><g fill="#fff" transform="matrix(3 0 0 3 320 240)"><path d="M0-6A4 6 0 1 0 0 6 4 6 0 1 0 0-6z"/><path d="M1 5.85s4 8 4 21-4 21-4 21z" id="flag-ke-d"/><use transform="scale(-1)" xlink:href="#flag-ke-d"/><use transform="scale(-1 1)" xlink:href="#flag-ke-d"/><use transform="scale(1 -1)" xlink:href="#flag-ke-d"/></g></svg>