<svg xmlns="http://www.w3.org/2000/svg" viewBox="0 0 640 480" height="16" width="22"><path d="M0 0v287.334h640V0H0z" fill="#e73e2d"/><path d="M272.461 264.478c-18.22-14.226-52.156-9.413-57.746-48.08 25.985 20.127 21.268-1.15 60.077 18.027z" fill="#fec74a" stroke="#d8aa3f" stroke-width="1.561"/><path d="M277.308 246.89c-12.986-19.122-46.764-24.939-40.24-63.459 18.57 27.12 20.599 5.42 51.665 35.565z" fill="#fec74a" stroke="#d8aa3f" stroke-width="1.561"/><path d="M283.214 234.384c-4.687-22.636-33.676-40.924-12.92-74.023 6.79 32.16 16.96 12.884 34.142 52.616l-21.223 21.407z" fill="#fec74a" stroke="#d8aa3f" stroke-width="1.561"/><path d="M296.855 222.76c2.487-22.983-19.487-49.287 10.428-74.416-3.41 32.691 12.185 17.469 16.341 60.557l-26.768 13.858z" fill="#fec74a" stroke="#d8aa3f" stroke-width="1.561"/><path d="M308.986 213.44c11.679-19.948 2.4-52.944 39.98-63.622-16.495 28.429 3.966 20.926-9.883 61.939z" fill="#fec74a" stroke="#d8aa3f" stroke-width="1.561"/><path d="M326.62 215.897c17.4-15.22 19.057-49.454 58.085-47.671-24.656 21.734-2.87 21.104-29.006 55.613l-29.078-7.941z" fill="#fec74a" stroke="#d8aa3f" stroke-width="1.561"/><path d="M342.09 224.878c21.099-9.442 32.731-41.684 69.517-28.524-29.95 13.541-8.938 19.332-44.05 44.651z" fill="#fec74a" stroke="#d8aa3f" stroke-width="1.561"/><path d="M355.14 238.997c22.903-3.122 43.141-30.785 74.735-7.803-32.55 4.563-14.018 16.035-54.838 30.446z" fill="#fec74a" stroke="#d8aa3f" stroke-width="1.561"/><path d="M436.674 243.375l-105.056 2.306 4.41 28.307 100.65-30.613z" fill="#fec74a" stroke="#d8aa3f" stroke-width="1.561"/><path d="M421.243 204.76l-97.35 37.367 16.299 31.287 81.054-68.655z" fill="#fec74a" stroke="#d8aa3f" stroke-width="1.561"/><path d="M343.974 263.128l50.364-91.444-77.256 71.911 26.89 19.533z" fill="#fec74a" stroke="#d8aa3f" stroke-width="1.561"/><path d="M342.924 255.59l16.189-102.627-50.448 91.204 34.259 11.425z" fill="#fec74a" stroke="#d8aa3f" stroke-width="1.561"/><path d="M336.877 247.256l-16.908-103.36-18.74 103.81 35.649-.452z" fill="#fec74a" stroke="#d8aa3f" stroke-width="1.561"/><path d="M328.13 238.397l-49.024-86.318 18.84 104.925L328.13 238.4z" fill="#fec74a" stroke="#d8aa3f" stroke-width="1.561"/><path d="M320.517 237.75l-76.032-64.2 54.063 91.879 21.97-27.679z" fill="#fec74a" stroke="#d8aa3f" stroke-width="1.561"/><path d="M217.758 205.21l81.627 67.397 12.55-35.255-94.18-32.143z" fill="#fec74a" stroke="#d8aa3f" stroke-width="1.561"/><path d="M298.524 244.547l-95.916-1.348 95.513 31.884.402-30.536z" fill="#fec74a" stroke="#d8aa3f" stroke-width="1.561"/><path d="M376.356 261.772c0 31.778-25.76 57.539-57.538 57.539-31.778 0-57.537-25.761-57.537-57.538 0-31.778 25.76-57.539 57.537-57.539 31.776 0 57.538 25.761 57.538 57.538z" fill="#fec74a" stroke="#d8aa3f" stroke-width="1.561"/><path d="M209.19 71.209c57.232-3.919 46.8-8.807 69.837-12.484 29.028 3.99 32.348 21.566 48.523 32.348 0 0-6.08 20.556-25.975 17.646-2.674-8.246 9.631-10.795-25.778-32.381-20.586-1.225-57.422 3.613-66.608-5.13zm177.43 31.813l-41.23 1.697v10.187c27.81.89 32.823-2.83 41.23-11.884z" fill="#ffc84b" stroke="#d8aa3f" stroke-width="1.665"/><path d="M244.843 101.316c7.185-3.675 10.76-2.175 16.985-2.418 4.285 7.76 8.327 8.488 17.705 9.46 14.309 20.128 34.439 20.371 37.349 20.371 28.053-.73 36.946-20.372 55.782-22.556h19.888c-3.314-5.659-5.901-8.893-13.097-9.216-14.794-.809-33.953-.404-50.687 3.395l-23.526 5.822c-6.872-3.315-23.687-20.94-34.44-20.616-6.305 1.697-6.305 3.88-9.458 6.306-6.062 2.587-12.127 1.347-16.5 9.45z" fill="#ffc84b" stroke="#d8aa3f" stroke-linejoin="round" stroke-width="1.561"/><path d="M273.215 92.732a2.976 2.976 0 1 1-5.951 0 2.976 2.976 0 0 1 5.951 0z" fill="#ffc84b" stroke="#d8aa3f" stroke-width="1.561"/><path d="M292.392 101.081c42.12-50.77 78.903-44.544 126.844-48.02 1.617 5.901 1.052 14.714-21.827 22.555-31.286 4.608-87.31 37.59-87.553 37.59-10.43-.484-17.705-11.397-17.463-12.126z" fill="#ffc84b" stroke="#d8aa3f" stroke-width="1.665"/><path d="M378.933 68.002l31.063 1.347M375.55 73.07l22.642 1.846" fill="none" stroke="#d9a43e" stroke-linecap="round" stroke-width="1.665"/><path d="M0 284.438V480h640V284.437H0z" fill="#005989"/><path d="M400.55 252.398c-27.828.214-36.354 31.9-84.532 31.313-39.301-.474-54.615-30.245-82.446-30.031-29.503 0-60.01 28.95-92.68 27.552-45.088-1.906-54.83-27.552-84.333-27.552-17.571 0-36.254 15.248-56.559 21.65v35.932c22.577-6.08 28.647-23.433 60.172-22.428 38.09.97 31.2 27.782 82.633 27.648 42.494-.111 56.221-32.499 92.851-28.619 27.128-1.397 38.23 30.67 79.926 31.076 43.246.926 59.126-34.948 86.254-31.978 28.9 0 38.367 28.893 78.912 29.101 51.642.261 60.722-30.073 93.03-28.132 20.956-.443 37.88 18.38 66.222 22.15v-35.85c-28.229-3.135-47.383-22.023-68.615-21.832-28.471.256-39.818 29.329-88.115 29.329-44.124 0-54.247-29.329-82.72-29.329zm.444 67.641c-27.855.214-36.388 31.9-84.611 31.313-39.338-.474-54.666-30.245-82.522-30.032-29.53 0-60.068 28.95-92.767 27.553-45.131-1.907-54.883-27.553-84.414-27.553-17.608 0-36.329 15.285-56.68 21.674v35.928c22.655-6.062 28.71-23.454 60.297-22.447 38.125.97 31.228 27.782 82.709 27.648 42.533-.112 56.276-32.5 92.94-28.62 27.152-1.396 38.265 30.67 80 31.077 43.286.925 59.18-34.948 86.333-31.978 28.928 0 38.405 28.893 78.989 29.101 51.69.26 60.777-30.073 93.115-28.133 20.812-.439 37.647 18.093 65.617 22.065v-35.84c-27.891-3.356-46.93-21.945-68.014-21.756-28.497.256-39.852 29.328-88.195 29.328-44.166 0-54.299-29.328-82.797-29.328zm0 68.371c-27.855.214-36.388 31.9-84.611 31.313-39.338-.474-54.666-30.245-82.522-30.032-29.53 0-60.068 28.951-92.767 27.553-45.131-1.907-54.883-27.553-84.414-27.553-17.608 0-36.329 15.287-56.68 21.676v35.926c22.655-6.062 28.71-23.451 60.297-22.445 38.125.97 31.228 27.78 82.709 27.646 42.533-.111 56.276-32.497 92.94-28.617 27.152-1.397 38.265 30.67 80 31.076 43.286.925 59.18-34.95 86.333-31.98 28.928 0 38.405 28.895 78.989 29.103 51.69.26 60.777-30.073 93.115-28.133 20.812-.439 37.647 18.092 65.617 22.063v-35.84c-27.891-3.356-46.93-21.945-68.014-21.756-28.497.256-39.852 29.33-88.195 29.33-44.166 0-54.299-29.33-82.797-29.33z" fill="#f5f5f5"/></svg>