<svg xmlns="http://www.w3.org/2000/svg" viewBox="0 0 640 480" height="16" width="22"><path d="M0 0h640v120H0z" fill="#ff0"/><path d="M0 120h640v120H0z" fill="#f5f5f5"/><path d="M0 240h640v120H0z" fill="#be0027"/><path d="M0 360h640v120H0z" fill="#3b5aa3"/><path d="M0 0v480l358-239.325z" fill="#239e46"/><path d="M147.384 132.59c-79.778-4.04-116.128 59.505-116.043 108.63-.182 58.096 54.869 106.01 105.759 103.114-27.44-12.975-60.945-49.368-61.253-103.359-.282-48.919 27.653-91.453 71.537-108.384z" fill="#fff"/><path d="M146.182 184.742l-11.243-8.799-13.63 4.29 4.889-13.422-8.28-11.634 14.276.495 8.498-11.473 3.933 13.733 13.55 4.543-11.855 7.992zm-.24 48.809l-11.243-8.798-13.63 4.29 4.89-13.423-8.28-11.634 14.276.495 8.498-11.473 3.932 13.733 13.55 4.543-11.855 7.992zm.24 49.29l-11.243-8.798-13.63 4.29 4.889-13.422-8.28-11.634 14.276.495 8.498-11.474 3.933 13.734 13.55 4.543-11.855 7.992zm-.24 49.763l-11.243-8.798-13.63 4.29 4.89-13.422-8.28-11.635 14.276.495 8.498-11.474 3.932 13.735 13.55 4.543-11.855 7.991z" fill="#fff"/></svg>