<svg xmlns="http://www.w3.org/2000/svg" viewBox="0 0 640 480" height="16" width="22"><path d="M640 480H0V0h640z" fill="#f5f5f5"/><path d="M458.268 245.553c0 76.011-60.97 137.627-136.182 137.627-75.213 0-136.184-61.615-136.184-137.627 0-76.013 60.97-137.63 136.184-137.63 75.213 0 136.18 61.618 136.18 137.63z" fill="#c70000"/><path d="M43.492 117.95l78.43-90.722 18.583 16.064-78.431 90.722-18.582-16.065zm25.686 22.206l78.431-90.722 18.582 16.064-78.432 90.722-18.58-16.064z" fill="#000001"/><path d="M43.492 117.95l78.431-90.722 18.582 16.064-78.431 90.722z" fill="#000001"/><path d="M43.492 117.95l78.43-90.722 18.583 16.064-78.431 90.722-18.582-16.065zm51.922 44.887l78.431-90.722 18.582 16.065-78.432 90.722-18.58-16.065z" fill="#000001"/><path d="M43.492 117.95l78.431-90.722 18.582 16.064-78.431 90.722z" fill="#000001"/><path d="M43.492 117.95l78.43-90.722 18.583 16.064-78.431 90.722-18.582-16.065zM520.52 27.198l77.814 91.251-18.69 15.938-77.815-91.25 18.69-15.94zm-52.225 44.534l77.815 91.251-18.69 15.938-77.815-91.25 18.69-15.94zm103.614 276.442l-75.39 89.84-18.484-15.375 75.39-89.839zM494.682 49.231l77.815 91.25-18.69 15.939-77.815-91.25 18.69-15.94zm102.77 320.19l-75.39 89.84-18.483-15.375 75.391-89.84 18.483 15.375zm-51.641-42.956l-75.391 89.841-18.483-15.375 75.39-89.84z" fill="#000001"/><path d="M187.882 221.3c4.305 34.663 10.591 73.289 63.937 77.301 19.995 1.198 58.891-4.757 72.245-59.24 17.52-52.34 70.289-67.388 106.2-39.013 20.36 13.28 25.994 34.375 27.453 50.21-1.63 50.853-30.82 94.875-68.272 114.506-43.06 25.594-102.712 26.128-154.969-12.647-23.55-22.097-56.455-62.83-46.594-131.118z" fill="#3d5897"/><path d="M88.051 334.284l77.814 91.251-18.691 15.938-77.814-91.25zm25.836-22.032l77.816 91.25-18.691 15.938-77.815-91.25zm-52.223 44.534l77.814 91.25-18.69 15.938-77.815-91.25z" fill="#000001"/><path d="M74.644 409.333l73.689-63.575 13.726 15.894-78.746 70.798-8.669-23.118zm423.842-62.493l73.813 63.433-13.679 15.934-81.709-67.36zm-17.213-222.562l73.69-63.577 13.725 15.895-78.746 70.798-8.669-23.117z" fill="#f5f5f5"/></svg>