<svg xmlns="http://www.w3.org/2000/svg" viewBox="0 0 640 480" height="16" width="22"><path d="M0 44h640v392H0z" fill="#f5f5f5"/><path d="M0 .203h218v218H0z" fill="#006"/><path d="M0 435.807h640v44.186H0z" fill="#c00"/><path d="M218 0v44h422V0H218zm0 87v44h422V87H218zm0 87v44h422v-44H218zM0 262v44h640v-44H0zm0 87v44h640v-44H0zm0 87v44h640v-44H0z" fill="#c00"/><path d="M155.953 166.378l-47.54-29.044-47.311 29.335 17.596-47.672-47.225-29.432 58.426-.41 18.12-47.523 18.51 47.413 58.426.062-46.983 29.713 17.985 47.56z" fill="#fff"/></svg>