<svg xmlns="http://www.w3.org/2000/svg" xmlns:xlink="http://www.w3.org/1999/xlink" viewBox="0 0 640 480" height="16" width="22"><path d="M0 0h640v480H0z" fill="#d3ae3b"/><path d="M16 16h604v448H16z" fill="#c40308"/><path d="M424.46 236.1c2.811-.793 12.585-3.65 19.471-9.237 6.887-5.589 8.231-10.066 8.787-12.485.552-2.417.791-4.32-.99-2.932-1.78 1.385-7.123 5.588-10.764 7.61-3.643 2.02-7.008 2.972-8.986 3.529-1.979.552-3.563.909-1.66.156 1.897-.751 8.113-2.934 12.902-7.728 4.788-4.795 8.571-11.982 8.652-16.395.08-4.412-.235-4.098-1.654-2.994-1.419 1.103-6.462 7.329-9.297 9.691-2.837 2.366-7.407 5.517-9.692 6.855-2.286 1.341-5.515 2.838-1.024-.235 4.491-3.07 12.999-10.322 16.468-19.698 3.467-9.377 2.835-14.89 2.757-15.837-.078-.945-.867-2.837-1.654-1.101-.788 1.731-6.464 13.078-11.031 17.962-4.572 4.886-3.468 3.941-4.493 4.728-1.023.788-2.758 2.207-.549-.553 2.207-2.756 6.776-9.14 9.141-15.441 2.361-6.305 2.993-12.609 3.071-16.233.08-3.624-1.496-8.666-2.207-10.161-.708-1.5-1.417-2.601-1.656-.87-.234 1.734-3.859 12.922-5.83 18.358-1.97 5.438-5.907 11.585-6.697 12.767-.786 1.182-2.835 3.624-.63-.473 2.206-4.098 6.46-16.153 7.014-27.577.55-11.426-1.025-17.729-2.601-20.88-1.575-3.153-2.94-4.27-2.94-4.27s.27 7.8-2.058 19.004c-2.33 11.207-5.729 17.123-5.729 17.123s-1.431 1.614-.45-1.075c.665-1.81 2.031-5.79 2.657-12.538.658-7.078.736-15.132-1.331-21.988-2.25-7.467-6.156-11.284-6.156-11.284-1.089 10.712-.873 24.515-4.798 35.704-.735-.657-1.707-1.872-2.094.602-.717 3.676-2.15 10.579-6.981 19.364-4.836 8.786-6.803 9.951-6.803 9.951s-.895-2.152-1.524-3.316c-.625-1.165-.984-1.794-1.791-.18-.802 1.614-3.489 7.8-9.399 14.613-5.907 6.813-9.219 10.13-9.039 15.239.18 5.11 2.864 7.711 6.444 10.04 3.582 2.333 4.21 3.585 3.67 6.365-.536 2.781-3.76 3.765-6.532 3.855-2.778.09-6.268-.18-7.521.537-1.254.718-1.342 2.51-2.596 3.763-1.251 1.257-1.788 1.971-2.954 2.154-.41.063-.742.101-1 .13-.258-13.478 4.965-19.487 4.965-19.487l-14.597-17.15a50.82 50.82 0 0 1-2.264 1.045 4.084 4.084 0 0 0-.427-.648c-1.943-2.481-2.579-4.584-2.579-7.764.726.072 2.183.597 3.506.331 1.323-.264.33-1.591-.066-2.851-.398-1.263-.795-5.64-.531-7.3.265-1.658.396-2.323.396-2.323s2.12 2.324 3.441 2.324c1.326 0 1.191-1.326 1.39-2.787.299-2.201 1.334-4.979 3.042-6.503 0 0 2.315 1.595 4.964 1.595 2.644 0 6.216-.731 9.06-3.45 2.845-2.72 2.78-3.384 2.78-3.384s5.29 1.857 9.326 2.058c4.035.198 8.336-.467 10.386-4.712 2.051-4.246-.597-8.16-1.057-8.824-.465-.665-1.787-1.196-1.787 0 0 1.195.068 4.378-2.382 5.971-2.448 1.592-4.365 1.524-6.68.795-2.315-.729-5.557-1.659-9.262-1.128-3.322.476-3.772.738-3.829.788.172-.177 3.189-3.27 6.144-4.172 3.043-.928 4.831.332 5.823 1.526.991 1.194 1.851 3.12 2.646.331.793-2.785.331-5.97-.992-8.028-1.324-2.056-4.167-3.384-7.144-3.051-2.978.332-4.034.795-4.034.795s-1.524-4.311-5.359-5.107c-4.68-.972-9.843.787-13.892 3.05 0 0-3.175.733-6.415-.197-2.123-.61-4.245-1.901-5.459-2.717.37-1.24 1.095-3.531 1.095-3.531s.927-.282 1.896-.646c.97-.363.768-.687.89-1.494.12-.807-1.821-2.213-1.821-2.213s-.28-2.425 2.91-4.089c3.189-1.663 2.842-1.386 2.842-1.386s1.871.347 2.634-.208c.762-.555.762-.902.762-.902s1.413-.463 1.932-1.315c.518-.851.614-2.081.234-3.074-.375-.994-.85-1.183-.328-1.657.517-.473.99-1.608 1.036-2.412.048-.807.048-.993.048-.993s1.085-.381 1.035-2.036c-.048-1.657-.943-2.32-1.464-2.463-.517-.141-.846-.141-.846-.141s-.094-.994-.943-2.317c-.852-1.326-1.416-1.893-1.416-1.893s.612-.47.282-1.559-1.086-1.75-1.84-1.99c-.755-.236-1.556 0-1.556 0s-2.5-1.514-3.68-2.129c-1.18-.615-1.464-.756-1.464-.756s-.046-1.041-.47-1.61c-.425-.568-1.417-.805-1.936-.805-.519 0-1.084.285-1.084.285s-4.248-1.09-5.993-1.374c-1.746-.283-1.842-.426-1.842-.426s-3.772-1.798-5.233-2.082c-1.464-.283-1.887-.424-1.887-.424s1.527-1.848 1.62-3.977c.096-2.13-1.319-4.138-2.828-5.037-.852-.505-1.309-.59-1.587-.763l-.031-1.466 2.835.285.234-4.563-2.76.35.423-2.747-5.784-.066.423 2.745-2.783-.19.236 4.497 2.926-.378-.283 1.7s-1.071.182-1.979.851c-1.509.9-2.785 2.652-2.69 4.782.092 2.129 1.366 4.023 1.366 4.023s-.377.095-1.839.377c-1.463.283-5.238 2.082-5.238 2.082s-.095.14-1.84.426c-1.745.283-5.992 1.374-5.992 1.374s-.565-.285-1.086-.285c-.519 0-1.509.237-1.933.805-.425.567-.471 1.61-.471 1.61s-.284.142-1.464.756c-1.18.615-3.68 2.128-3.68 2.128s-.804-.235-1.558 0c-.755.239-1.509.902-1.839 1.99-.33 1.09.282 1.559.282 1.559s-.567.567-1.416 1.893c-.848 1.323-.942 2.318-.942 2.318s-.332 0-.849.14c-.519.143-1.416.806-1.463 2.464-.048 1.654 1.038 2.035 1.038 2.035s0 .188.047.993c.048.806.52 1.94 1.038 2.412.519.474.048.663-.33 1.658-.377.993-.284 2.223.235 3.073.52.852 1.931 1.316 1.931 1.316s0 .346.762.901 2.634.209 2.634.209-.345-.278 2.842 1.386c3.188 1.663 2.91 4.089 2.91 4.089s-1.94 1.406-1.819 2.212c.121.807-.081 1.131.888 1.494.969.364 1.897.646 1.897.646s.725 2.29 1.094 3.532c-1.214.816-3.335 2.107-5.456 2.716-3.241.93-6.418.198-6.418.198-4.046-2.263-9.209-4.023-13.89-3.051-3.837.797-5.36 5.108-5.36 5.108s-1.057-.464-4.033-.795c-2.976-.333-5.822.994-7.146 3.05-1.323 2.059-1.785 5.243-.992 8.029.794 2.788 1.655.862 2.646-.332.993-1.194 2.78-2.454 5.822-1.526 2.955.902 5.971 3.995 6.144 4.172-.059-.05-.506-.312-3.83-.787-3.703-.531-6.945.399-9.259 1.128-2.315.729-4.233.796-6.681-.795-2.448-1.595-2.382-4.778-2.382-5.972 0-1.194-1.323-.664-1.785 0-.462.665-3.11 4.58-1.059 8.825 2.05 4.245 6.35 4.909 10.384 4.711 4.035-.201 9.327-2.058 9.327-2.058s-.064.665 2.78 3.384c2.844 2.72 6.415 3.45 9.063 3.45 2.647 0 4.96-1.595 4.96-1.595 1.709 1.526 2.747 4.304 3.044 6.503.198 1.461.067 2.787 1.39 2.787 1.322 0 3.44-2.324 3.44-2.324s.132.665.396 2.324c.264 1.659-.132 6.036-.53 7.299-.396 1.26-1.389 2.587-.064 2.852 1.323.265 2.778-.26 3.505-.332 0 3.18-.637 5.283-2.58 7.764a4.405 4.405 0 0 0-.408.61 53.879 53.879 0 0 1-2.169-1.006l-14.596 17.15s5.247 6.037 4.963 19.588v-.094a20.624 20.624 0 0 1-1.062-.135c-1.165-.182-1.7-.897-2.955-2.154-1.252-1.254-1.342-3.045-2.595-3.764-1.252-.718-4.744-.448-7.519-.537-2.777-.091-5.997-1.075-6.536-3.855-.535-2.781.092-4.032 3.671-6.364 3.58-2.331 6.265-4.931 6.445-10.041.179-5.11-3.132-8.427-9.04-15.239-5.909-6.813-8.594-12.999-9.399-14.613-.806-1.614-1.164-.985-1.791.18-.627 1.164-1.521 3.317-1.521 3.317s-1.97-1.166-6.803-9.951c-4.834-8.786-6.267-15.687-6.982-19.365-.389-2.474-1.362-1.257-2.094-.602-3.93-11.188-3.713-24.993-4.8-35.704 0 0-3.906 3.817-6.156 11.284-2.066 6.855-1.988 14.91-1.329 21.989.625 6.747 1.99 10.729 2.653 12.537.984 2.689-.447 1.075-.447 1.075s-3.402-5.916-5.728-17.122c-2.328-11.205-2.06-19.005-2.06-19.005s-1.363 1.117-2.94 4.27c-1.575 3.152-3.15 9.455-2.599 20.88.552 11.426 4.807 23.48 7.014 27.578 2.206 4.096.157 1.654-.632.472-.787-1.182-4.726-7.327-6.697-12.766-1.97-5.436-5.594-16.625-5.83-18.359-.238-1.732-.946-.63-1.657.87-.709 1.497-2.284 6.539-2.206 10.161.08 3.624.71 9.929 3.073 16.233 2.364 6.303 6.933 12.686 9.14 15.441 2.206 2.76.472 1.341-.552.554-1.025-.788.08.156-4.491-4.728-4.57-4.884-10.244-16.232-11.031-17.963-.789-1.735-1.577.156-1.656 1.101-.078.947-.71 6.46 2.758 15.837 3.467 9.377 11.976 16.628 16.469 19.698 4.491 3.074 1.26 1.577-1.025.236-2.284-1.338-6.855-4.49-9.691-6.855-2.837-2.363-7.88-8.59-9.297-9.692-1.419-1.104-1.733-1.419-1.655 2.994.078 4.413 3.863 11.598 8.652 16.395 4.788 4.794 11.001 6.977 12.903 7.728 1.901.753.317.396-1.663-.156-1.977-.555-5.342-1.509-8.984-3.53-3.642-2.023-8.983-6.224-10.765-7.609-1.782-1.387-1.544.515-.99 2.933.555 2.418 1.9 6.897 8.785 12.484 6.887 5.589 16.662 8.444 19.472 9.237 2.811.79.831.79.831.79s-1.109-.155-6.807-1.427c-5.699-1.268-14.328-5.784-16.664-7.251-2.335-1.469-2.689-2.022-2.374 1.069.318 3.09 3.603 9.711 8.866 12.803 5.264 3.091 14.763 4.678 17.217 4.795 2.454.12 1.821.476.713.554-1.109.079-3.84.079-8.312-.434-3.666-.423-9.11-2.203-10.957-2.833-.207-.79-.398-1.554-.485-2.025-.217-1.178-.826-1.004-1.219-.74-.393.258-.61.477-1.914 1.133-1.308.657-1.352-.13-1.395-.522-.044-.396-.305-2.099-.348-2.969-.044-.876-.524-.92-1.131-.657-.61.264-3.528 1.485-4.616 1.968-1.089.479-.087 1.352.479 2.399a147.271 147.271 0 0 0 1.437 2.578s-2.744.743-3.615.962c-.87.219-.609.83-.392 1.443.22.609 1.568 3.667 1.916 4.54.348.873 1.132.35 1.132.35l2.742-1.616.957 3.666c-.046.059-1.267.291-2.655 1.265-1.386.972-1.039 2.224.624 2.712 1.662.486 3.605 1.321 5.753 5.214 2.148 3.895 2.703 10.914 4.02 21.97 1.317 11.05 8.386 16.683 9.357 17.379.97.696.415 1.251.415 1.251s-.97 1.394-.553 3.548c.415 2.152 2.286 3.406 3.256 3.753.97.345.693 1.32.693 1.32s-.486 2.362 0 6.675c.485 4.309 4.02 9.175 4.991 10.01.969.833 1.04 1.252.901 1.6-.138.346-.763.07-1.94.972-1.18.904-2.497 2.155-3.326 3.684-.833 1.531-.555 2.434-.279 4.52.277 2.087 3.327 3.964 3.327 3.964s-.555.139-.692 1.668c-.138 1.53.97 3.267 2.357 4.378 1.386 1.113 4.02 1.67 4.02 1.67s.208 1.32.346 2.223c.138.906 1.872 1.806 2.981 2.433 1.108.625 3.256.279 4.158-.14.9-.415 1.524.07 2.077.972.557.906.348 4.38.348 5.772 0 1.39-.832 2.85-.348 3.546.486.695 1.803.207 3.12-.556 1.317-.767 1.664-.209 2.843.556 1.179.764 3.05 1.461 3.535 1.39.485-.07.278-1.321.278-2.363 0-1.043.187-3.402.672-3.75.23-.165 2.27-.317 3.832-.978.728-.306 1.664-.624 1.733-1.32.069-.695-.97-.695-3.257-1.877-2.287-1.18-2.703-1.88-4.158-2.851-1.456-.972-.762-1.32-.762-1.737 0-.414.692-.903.97-1.46.277-.556.137-1.806.137-1.806s1.18-1.182 1.733-1.809c.555-.624 1.248-1.6 2.01-2.224.762-.624 1.94-3.614 2.703-4.589.762-.972 2.496-2.016 3.534-3.337 1.04-1.322 3.813-3.476 5.407-4.52 1.595-1.042 5.891-3.06 5.891-3.06s-.069 2.573 1.04 3.824c1.108 1.254 2.563-.971 7.484-4.45 4.922-3.475 8.664-4.726 8.664-4.726s1.04 1.598 2.355 3.267c1.317 1.67 2.496-.07 8.526-8.41 4.757-6.582 11.022-12.599 13.455-14.847.449.199.893.399 1.335.603-.114.32-.24.684-.366 1.081-.553 1.728-1.45 2.835-2.625 5.25-1.174 2.417-2.968 2.969-5.041 6.218-2.072 3.246-2.348 5.454-2.556 8.77-.207 3.315 1.657 4.007 1.657 4.007s-3.039 2.968-3.937 5.179c-.897 2.21-1.382 6.7-1.382 6.7s-.484.206-1.588 2.486c-1.106 2.282-3.11 2.624-6.009 5.526-2.903 2.901-6.147 4.145-7.667 5.039-1.519.901-1.105 1.797-.69 2.971.413 1.173 2.486 2.348 4.904 3.246 2.418.897 3.246.552 4.905.483 1.657-.067.345 1.244-.345 1.932-.69.693-1.589 3.108-1.45 5.802.137 2.696 2.141 2.072 4.628 1.658 2.486-.413 5.387-1.658 5.387-1.658l-.276.762c-.276.759-.414 1.31-.414 3.455 0 2.14.345 3.175.967 3.726.623.553 1.866-.62 2.763-.896.899-.28 2.418-1.174 4.628-1.657 2.21-.485 3.037-1.451 3.037-1.451s-.552.689-.69 2.21c-.139 1.52-.069 3.798.278 5.112.343 1.309 1.311 2.899 2.83 4.28 1.52 1.384 1.865.761 2.969-.965 1.105-1.728 3.384-3.94 3.384-3.94s.138.554 1.657 5.458c1.52 4.905 6.492 8.979 6.492 8.979s4.973-4.076 6.492-8.98c1.52-4.903 1.656-5.456 1.656-5.456s2.282 2.21 3.386 3.939c1.105 1.725 1.452 2.347 2.97.966 1.52-1.382 2.485-2.97 2.832-4.281.345-1.314.414-3.593.279-5.112-.141-1.521-.693-2.21-.693-2.21s.83.966 3.039 1.45c2.21.484 3.729 1.379 4.626 1.658.898.276 2.143 1.449 2.764.896.621-.551.968-1.587.968-3.726 0-2.145-.138-2.696-.414-3.455l-.278-.762s2.903 1.245 5.388 1.658c2.486.412 4.488 1.036 4.63-1.658.136-2.694-.763-5.109-1.453-5.802-.691-.688-2.002-2-.345-1.932 1.656.069 2.486.413 4.904-.483 2.416-.898 4.49-2.073 4.905-3.246.414-1.174.83-2.071-.69-2.971-1.52-.896-4.767-2.14-7.667-5.039-2.899-2.902-4.905-3.244-6.01-5.526-1.103-2.281-1.586-2.485-1.586-2.485s-.486-4.491-1.383-6.701c-.898-2.212-3.937-5.18-3.937-5.18s1.866-.691 1.657-4.006c-.207-3.316-.481-5.524-2.554-8.77-2.073-3.248-3.87-3.8-5.045-6.218-1.173-2.415-2.071-3.522-2.623-5.25-.11-.348-.23-.696-.353-1.044a145.97 145.97 0 0 1 1.782-.781c2.417 2.227 8.71 8.265 13.481 14.866 6.031 8.345 7.21 10.083 8.527 8.412 1.316-1.666 2.355-3.265 2.355-3.265s3.743 1.249 8.664 4.725c4.92 3.477 6.377 5.701 7.484 4.45.586-.658.717-1.752.787-2.59 0 0 2.828.826 6.066 1.96 1.943.681 4.1 1.539 5.702 2.216 4.263 1.804 4.725 2.733 8.116 5.412 3.392 2.679 8.22 2.42 12.794 1.029 4.57-1.39 16.75-5.408 21.63-7.521 4.881-2.117 8.376-3.97 8.89-4.95.513-.978 1.077-3.711 1.077-4.688 0-.98-1.077-2.421-1.438-2.68-.357-.26-.203-1.032-.102-1.649.102-.62-.204-2.473-.974-3.3-.77-.825-.667-1.131-.565-3.505.217-5.027-3.37-11.364-8.454-13.382 0 0-.137-.585-.549-.93-.408-.343-1.095-.652-1.095-.652s.1-2.891.067-3.512c-.033-.62.24-.547.587-.378.342.171.89.861 1.713 1.068.823.206 1.338-.381 1.51-1.308.17-.928.857-2.787 1.166-3.717.31-.927-.07-1.066-.447-1.168-.377-.105-1.611-.24-2.196-.381-.582-.137-.582-.171-.446-.48.14-.308.344-.79 1.097-1.962.756-1.17.07-1.205-.653-1.443-.72-.242-3.976-1.24-4.869-1.379-.894-.138-1.099.62-1.099.998 0 .38.034 2.03.069 2.65.034.62-.548.447-.891.276-.345-.171-1.133-.655-1.749-1.137-.618-.48-1.064-.033-1.305.656-.24.687-.993 3.511-1.233 4.336-.24.827-.173 1.479.171 1.616.343.139 1.954 0 2.916 0 .958 0 .41.552.41.552s-1.03 1.686-1.373 2.338c-.342.656-.926.759-1.715.759s-2.112-.01-2.112-.01-5.27.198-9.151 3.084c-3.879 2.884-4.973 5.27-5.57 6.661-.597 1.395-1.291 1.094-1.891 1.593-.596.498-2.286 2.289-2.286 3.384 0 1.094.397 1.689-1.292 2.783-1.693 1.095-3.085 5.869-.796 8.356 2.287 2.484 3.183 4.97 3.88 6.165.693 1.194 0 1.69-.598 1.69-.596 0-1.842-1.013-2.883-1.79-1.041-.776-6.296-4.88-8.553-6.563-2.26-1.686-.597-1.492-.597-1.492s.574.052 1.893-.503c1.315-.556 1.525-1.25.205-1.668-1.315-.415-3.88-1.876-4.572-2.572-.694-.695-1.039-1.46.278-2.156 1.315-.694 4.227-2.572 1.941-3.198-2.289-.628-4.992-1.111-7.21-1.738-2.219-.626-2.428-1.251-2.428-1.251l1.458-2.087s1.178-1.666-.208-1.876c-1.386-.21-4.713-.626-7.763-1.949-6.091-2.638-9.907-7.113-11.322-12.574l.101-.132c1.138 2.251 3.787 6.459 7.782 6.589 5.46.18 6.085-1.525 4.833-3.318-1.253-1.792-2.685-3.406-3.042-3.943-.36-.539-.45-1.257.982.09 1.433 1.347 4.16 5.916 12.396 5.379 8.234-.537 8.193-2.153 8.193-2.6 0-1.581-1.677-1.831-2.665-2.823-.516-.517-.83-1.269.832-.634 1.662.634 5.736 1.386 11.28.196 2.187-.466 7.986-2.998 8.547-5.943 0 0-3.68-.201-6.252-1.31-2.574-1.111-4.117-2.02-1.386-1.465 2.732.554 8.036 1.662 12.705.08 2.729-.927 6.255-3.135 6.254-7.175 0 0-5.066-1.07-6.926-1.744-1.86-.674-2.454-1.188-2.454-1.188s7.24 2.296 13.812-1.032c6.57-3.329 6.846-7.886 6.846-8.957 0-1.071-.157-1.389-.157-1.389s-5.976 1.469-10.448 1.428c-4.473-.039-5.859-.436-5.859-.436s12.509-.357 18.8-4.202c6.292-3.844 6.651-11.416 6.651-11.416s-7.127 2.536-11.597 3.054c-4.471.513-7.204.513-8.311.433-1.109-.078-1.74-.433.712-.553 2.457-.117 11.952-1.706 17.217-4.796 5.265-3.093 8.549-9.714 8.867-12.802.316-3.092-.039-2.537-2.376-1.07-2.336 1.467-10.962 5.984-16.66 7.251-5.699 1.272-6.808 1.428-6.808 1.428s-2.19-.105.63-.885zm-225.15 14.37c-.609.35-2.525 1.44-2.525 1.44s-1.002-2.052-1.263-2.663c-.26-.612-.13-.874.216-.874.35 0 1.395-.304 2.222-.392.118-.013.226-.031.322-.054.276.788.64 1.641 1.116 2.498-.03.03-.06.045-.09.06zm76.77 44.955c-1.526 2.853-5.684 5.843-8.733 7.162-3.05 1.32-6.377 1.739-7.763 1.946-1.386.208-.208 1.878-.208 1.878l1.455 2.088s-.207.624-2.426 1.251c-2.218.624-4.92 1.11-7.207 1.737-2.288.624.624 2.502 1.94 3.2 1.316.693.97 1.459.277 2.154-.693.696-3.257 2.155-4.574 2.572-1.317.417-1.11 1.115.207 1.67 1.317.553 4.922 1.249 4.922 1.249s-.069.14-2.286 1.809c-2.219 1.668-6.1 2.781-8.664 2.919-2.565.138-6.62.306-11.762.069-5.14-.234-5.731-.352-5.731-.352s-.177-1.716-.533-4.257c-.354-2.54-1.89-6.146-3.072-7.799-1.183-1.656-3.663-4.965-3.663-4.965s.059-.71.236-1.536c.177-.826.058-1.714-.542-3.276-.601-1.563-3.604-3.844-3.604-3.844s-.122-1.682-.122-3.245c0-1.561-1.08-7.689-2.043-10.572-.96-2.883-5.646-10.452-7.809-14.056-2.163-3.603-3.447-8.946-4.1-13.094-.655-4.149-.392-5.502-.175-6.594.096-.478.3-.913.492-1.3a12.887 12.887 0 0 0 3.477 3.123c6.293 3.844 18.8 4.201 18.8 4.201s-1.386.398-5.858.437c-4.471.039-10.447-1.428-10.447-1.428s-.159.318-.159 1.389c0 1.07.279 5.628 6.847 8.956 6.569 3.33 13.812 1.032 13.812 1.032s-.594.515-2.454 1.188c-1.86.675-6.925 1.745-6.925 1.745 0 4.039 3.526 6.247 6.252 7.174 4.671 1.584 9.973.474 12.706-.08 2.73-.554 1.188.353-1.386 1.466-2.57 1.109-6.252 1.31-6.252 1.31.564 2.944 6.363 5.476 8.549 5.943 5.541 1.189 9.616.438 11.28-.197 1.663-.634 1.345.117.831.635-.989.991-2.666 1.242-2.666 2.823 0 .448-.042 2.062 8.193 2.599 8.235.537 10.962-4.032 12.395-5.379 1.432-1.345 1.342-.628.984-.09-.357.536-1.79 2.151-3.042 3.944-1.254 1.792-.627 3.498 4.833 3.318 4.021-.132 6.682-4.398 7.806-6.636l.075.103c.073.1.148.2.22.294-.51 1.32-1.395 3.48-2.37 5.31zm66.42-178.14c-.744-1.417-1.139-2.085-1.139-2.085s3.102 1.455 4.949 3.542c1.845 2.089 1.804 3.19 2.08 4.216.276 1.025 0 2.913-.274 4.686-.276 1.772-.276 2.837.08 3.467.352.63.667.945.667.945s-1.377.354-2.671.867c-1.296.513-2.984.984-3.926.196-.944-.787-1.177-1.34-.588-1.851.588-.513 2.785-1.143 3.062-4.923.27-3.781-1.485-7.641-2.235-9.06zm-16.92 10.286c.708-1.796.999-3.51.458-7.188-.455-3.092-1.055-5.74-1.208-9.071 0 0 2.292.503 5.585 3.512 3.289 3.009 4.042 6.102 4.042 7.608 0 1.503-.793 3.343-.918 4.807-.124 1.463.415 2.759.415 2.759s-1.209.499-2.29 1.25c-1.083.754-1.833 1.214-3.5 1.13-1.668-.084-2.668-.835-3.627-1.338-.958-.502-1.58-.585-1.58-.585s1.904-1.086 2.61-2.884zm-16.05-12.747c3.292-3.008 5.583-3.512 5.583-3.512-.151 3.332-.751 5.979-1.209 9.07-.54 3.679-.249 5.393.459 7.189.71 1.798 2.625 2.884 2.625 2.884s-.624.084-1.584.585c-.957.501-1.958 1.254-3.626 1.338-1.666.083-2.416-.376-3.499-1.13a13.957 13.957 0 0 0-2.292-1.25s.541-1.296.415-2.759c-.124-1.462-.914-3.303-.914-4.808.015-1.505.765-4.598 4.05-7.607zm-11.865 18.295c-.944.788-2.631.317-3.929-.196-1.296-.513-2.67-.867-2.67-.867s.314-.314.668-.945c.354-.629.354-1.694.078-3.467-.275-1.773-.55-3.661-.275-4.686.275-1.026.236-2.127 2.081-4.216 1.846-2.087 4.948-3.542 4.948-3.542s-.393.668-1.138 2.085c-.747 1.419-2.514 5.279-2.238 9.062.276 3.78 2.475 4.408 3.063 4.923.585.51.345 1.062-.6 1.849zm43.86 31.617c-3.243 1.793-5.094 1.394-4.962 2.72.134 1.327 3.04 2.323 3.04 2.323s-2.976 3.185-5.292 4.646c-2.312 1.459-5.029 2.388-5.029 2.388s-.924.133-.396 1.593c.531 1.459 1.456 2.454 2.183 2.853.727.397 1.126.53 1.126.53s-4.035 4.313-5.821 5.707c-1.787 1.393-2.78 1.857-4.233 2.455-1.457.597-.726 2.985-.398 4.049.33 1.059 1.587 2.52 2.316 2.719.725.2.992.729.066 2.19-.693 1.089-3.002 3.986-4.103 5.583l-.067.035c-1.093-1.587-3.433-4.521-4.13-5.618-.925-1.461-.661-1.99.066-2.19.728-.2 1.986-1.659 2.316-2.72.329-1.063 1.058-3.451-.4-4.048-1.454-.598-2.447-1.062-4.232-2.455-1.786-1.394-5.821-5.706-5.821-5.706s.397-.134 1.125-.531c.729-.4 1.654-1.394 2.184-2.853.528-1.46-.398-1.593-.398-1.593s-2.712-.929-5.028-2.388c-2.313-1.461-5.292-4.646-5.292-4.646s2.91-.996 3.044-2.323c.132-1.328-1.72-.929-4.962-2.72-3.242-1.791-4.3-4.047-4.3-4.047s3.77-1.261 5.623-5.043c.655-1.34.813-2.562.744-3.585l.142.048c6.021 1.96 13.06 2.745 19.35 2.745 6.281 0 13.316-.789 19.325-2.745l.142-.048c-.07 1.023.087 2.245.743 3.585 1.852 3.782 5.625 5.043 5.625 5.043s-1.05 2.265-4.29 4.065z" fill="#b96b29"/><path d="M361.205 237.75c0-10.178 4.683-16.614 4.683-16.614l-12.74-14.595c-12.133 4.69-23.25 4.976-33.147-.06-9.896 5.036-21.013 4.75-33.143.06l-12.744 14.595s4.684 6.437 4.684 16.614c0 10.179-1.968 17.73-3.118 22.654-1.15 4.925-2.133 14.117.493 20.685 2.625 6.564 5.417 12.311 16.743 17.072 11.327 4.761 17.237 7.221 21.176 10.506 3.94 3.28 5.91 5.907 5.91 5.907s1.969-2.628 5.91-5.907c3.937-3.283 9.847-5.745 21.175-10.506 11.325-4.761 14.117-10.507 16.743-17.071 2.625-6.569 1.641-15.761.492-20.685-1.14-4.92-3.105-12.465-3.105-22.65z" fill="#d4af3a"/><path d="M357.2 241.95c-1.597-9.721 4.007-18.283 4.007-18.283L350.3 210.915c-8.403 4.72-20.097 4.086-30.261-.59-10.161 4.675-21.86 5.31-30.26.59l-10.906 12.752s5.604 8.562 4.004 18.283c-1.601 9.72-5.045 25.104-4.184 31.379.861 6.276 5.292 13.536 9.845 17.35 4.552 3.815 11.32 7.016 16.117 8.738 4.8 1.722 9.477 5.044 11.693 6.768 2.214 1.722 3.69 3.2 3.69 3.2s1.477-1.477 3.693-3.2c2.215-1.724 6.89-5.045 11.688-6.768 4.8-1.722 11.569-4.923 16.12-8.738 4.554-3.814 8.983-11.076 9.845-17.35.854-6.3-2.596-21.675-4.2-31.395z" fill="#b96b29"/><path d="M356.15 243.105c-1.58-10.497 3.156-18.953 3.156-18.953l-9.844-10.962c-8.321 4.274-18.434 3.17-29.451-.65-11.016 3.82-21.128 4.922-29.45.65l-9.846 10.962s4.739 8.456 3.159 18.953-3.994 22.386-3.531 29.355c.032.479.083.966.152 1.458h8.967s.519-.605 1.518-1.03c.996-.431 1.28-.717 1.28-.717s.191-1.811 1.283-2.192c1.092-.383 1.568-.383 1.995-.383.428 0 .76-.094 1.283-.619.523-.523 1.945-1.809 2.563-3.62.618-1.81.999-2.526.999-3.717 0-1.189.428-3.094.428-3.094s-.239-.572-1.14-.237c-.903.333-1.046-.572-1.139-1.478-.096-.906-.048-2.761.474-3.619.522-.858.713-1.145.713-1.145l-.381-1.426s-5.699 1.141-6.695-3.288c-.997-4.43-1.188-6.576-1.33-7.049-.143-.478-.285-.718-1.046-.667-.76.046-2.374-.476-3.514-2.765-1.14-2.286-1.235-3.238-.903-4.143.333-.906.95-.571 1.14-.286.189.286 1.71 2.478 2.328 1.857.616-.62.285-.62-.57-2.334-.855-1.715-.57-2.285-.476-3.146.095-.856-.283-2-.283-2.476 0-.474.522-.856 1.044-.62.523.239.997.62 1.234.907.237.285.333.717.809.43.475-.286.189-1.86.189-2.382 0-.525.618-.906 1.378-.477.759.429 1.139 1.237 1.139 1.809 0 .573.048 1.097.333 1.097.285 0 .618-.859.664-1.432.047-.568.38-1.428.903-.712.524.712.713 1.764.524 2.857-.191 1.094.189.525-.191 2.43-.378 1.907-.568 2.763-.522 4.193.048 1.428.095 2.238.807 4.002.713 1.762 1.281 3.808 2.612 3.856 1.33.047 1.71.047 1.71.047s1.471-2.857 2.613-3.525c1.14-.666 2.754-.764 3.894-.906 1.14-.144 1.614-.477 1.614-.764 0-.286-.38-.379-1.757-.571-1.375-.189-2.515-.525-2.562-1.572-.048-1.047.236-1.953-.666-2-.901-.048-3.133-.766-3.94-2.239-.807-1.478-.618-1.812-.522-2.619.094-.81 1.138-2.431 1.804-.906.666 1.525 1.094 1.714 1.662 2.047.57.336 1.329.431.951-.619-.381-1.047-.618-1.713-.523-2.474.094-.764.618-1.094 1.236-1.238.616-.144 2.469-.717 3.418-.906.948-.19.998-.284.998-.284s.094-.667 1.329-1.048c1.234-.381 2.041-.428 2.944-.428.902 0 1.566.143 2.754-.43 1.188-.57 2.136-.665 2.897-.618.759.048 1.33.334 1.9.714.57.382.38.906.38 1.429 0 .525.094.81.901.81.81 0 1.523 0 2.282.285.762.286 1.806.714 1.14 1.524-.663.812-.71 1.716-1.14 1.668-.425-.048-.378.429-.57.716-.19.283-.332.523.145.81.471.284.52.571 1.187 1.189.663.62 1.66 1.287.663 2.287-.995 1-2.753 1.811-2.753 1.811s-.999.474.141 1.145c1.14.664 1.664 2.047 2.091 2.284.426.238.855.62 1.14.762.284.144.237 1.095.237 1.095s-.616.43-1.471.764c-.855.334-1.758.715-2.564.715-.808 0-1.236 0-.903.762.332.76.903 1.573 1.044 2 .143.428.333 1.192.333 1.192s1.328.283 2.517.283c1.187 0 1.71.048 4.322-.237 2.611-.283 3.373-.38 5.89-.096 2.519.285 2.895.192 3.561.43.665.238 1.329.574 1.329.574s3.563-.05 5.51-.477c1.947-.429 2.424-1.67 2.14-2.334-.285-.668-.24-1.667-3.658-2.145-3.417-.479-4.796-.287-7.505-.812-2.706-.523-6.934-1.905-7.692-5.286-.762-3.382 1.994-4.81 3.372-5.476 1.377-.669 4.368-1.716 5.747-2.286 1.375-.573 3.895-1.143 6.553-.764 2.658.383 4.178 1.095 5.223.477 1.044-.619 1.9-.144 1.71.809-.187.953-1.234 2.907-4.227 3.811-2.991.907-6.598 1.001-8.547.478-1.948-.527-3.418-1.287-4.606-.86-1.187.429-2.517 1.906-1.236 3.667 1.285 1.766 7.839 2.288 9.594 2.477 1.758.194 8.263-.285 10.116 2.954 1.85 3.241.378 6.859-1.805 7.67-2.184.809-4.036 1.335-5.698 1.572l-1.662.237s.759 1.716.759 2.432c0 .714-.095 2.047.714 2.57.807.526 1.948.905 3.325.763 1.377-.141 3.039.81 3.135 2.049.093 1.237.474 2.952.615 5.43.144 2.477 0 4.526 0 4.526s-.094.954-.426 1.857c-.333.906-2.043 4.414-2.043 4.414h9.563c.069-.492.12-.978.153-1.458.39-7.065-2.025-18.945-3.6-29.445z" fill="#1d5e91"/><path d="M281.63 278.58c1.875 5.357 5.739 10.78 11.622 14.323 8.175 4.923 11.706 4.274 19.416 9.29 7.712 5.016 7.247 5.853 7.34 5.853.093 0-.372-.839 7.34-5.853 7.71-5.018 11.24-4.367 19.415-9.29 5.885-3.543 9.747-8.967 11.62-14.323h-76.737z" fill="#6d8c3e"/><path d="M288.32 237.195c.877.922 1.525 1.203 2.865 1.065 1.341-.143 1.663.833 1.894 1.894.231 1.064.231 3.558 1.202 5.868.969 2.31 4.204 2.45 4.204 2.45.09-1.115.479-2.613.971-3.836.087-.219.507-1.249-.648-1.249s-1.109-.462-1.802-1.57c-.691-1.109-2.032-4.066-2.354-5.962-.323-1.894.277-4.713.6-5.728.324-1.017.37-1.71 0-1.895-.371-.186-1.109 0-1.109 0s.278.878-.048 1.016c-.323.141-.6-.462-.83-1.107-.232-.648-.508-.555-.97-.51-.462.046-.462.463-.138.925.323.461.138 1.292.138 1.292s-1.017-.738-1.432-.924c-.416-.183-1.386.186-1.48.741-.091.552.371 1.984 1.249 2.724.877.741.877 2.265.6 2.96-.276.691-1.571.598-1.848.277a.788.788 0 0 0-1.202 0c-.375.42-.75.66.135 1.575zm-.51-2.445s-.508-.414-.693-.645a35.123 35.123 0 0 1-.555-.742s-.093.23-.093.785.6 1.157.6 1.157l.735-.555zm1.935-6.42c.417-.185.74-.279.417-.74-.324-.462-.602-.97-.925-1.063-.325-.091-.6-.045-.6-.045s.368.833.46 1.341c.09.51.24.69.645.51zm2.415-1.95c-.047.416.046.602.415.416.371-.186.509-.693.323-1.064-.185-.369-.6-.645-.6-.645l-.278-.188c-.03 0 .165 1.065.12 1.47zm3.45.555c.045-.462-.14-.969-.14-.969s0 .553-.23.879c-.231.323-.185.231.046.509.225.284.27.044.315-.42zm5.43 23.49c.68 1.575 2.406-.893 3.975-2.888 1.568-1.993 1.517-.469 1.307 1.155-.209 1.628.418 3.36 1.047 4.463.627 1.098 1.15.47 1.41-.318.262-.783.47-2.41.994-3.198.524-.788 1.046-.105 1.098.576.053.681.888 2.205 1.673 3.094.783.894 1.15-.313 1.411-1.414.261-1.101.575-2.781.785-3.465.208-.681.94-.104.94-.104s.525.525 1.57 1.521c1.043 1 1.15-.577 1.255-1.36.103-.789-.158-2.52.156-2.784.313-.261 1.201.369 2.563 1.053 1.359.68 1.308-.632 1.152-1.367-.159-.732-.94-2.412-2.04-3.355-1.098-.945-1.254-2.046-.888-2.52.365-.47 1.673-.053 2.508-.156.839-.105 1.257-.209 1.884-.312.627-.107.627-.737.627-.737s-.47-.786-1.359-1.572c-.891-.789-1.41-1.416-2.51-1.68-1.099-.262-2.614 0-2.614 0l-.157-.315c-.156-.313-.47-.313-.68 0-.21.315-.732.735-1.152 1.101-.417.368-.68.578-.94.419-.263-.156.208-.525.208-.525s.576-.417 1.1-1.469c.522-1.05.679-2.047.26-2.518-.418-.474-1.568 0-2.195 0-.629 0-.995.103-1.046-.21-.054-.315.627-.156 1.412-.264.786-.104 1.255-1.049 1.516-1.836.261-.788.471-.683.942-.21.47.472.891.367.993.051.102-.315.524-1.1 1.046-1.889.523-.786.837-1.887.26-2.62-.575-.735-1.987-.633-2.561-.156-.575.47-.941.942-1.097 2.095-.157 1.155-.471.524-.471.156 0-.367-.471-.945-.262-1.416.21-.469 0-.997 0-.997s-.104-.995-1.203-1.206c-1.1-.212-2.354.052-3.452.315-1.098.262-.89 1.209-.89 1.209s-.836.05-1.726.156c-.888.103-1.935.47-2.772.68-.835.211-1.15.314-1.15.733 0 .421.157 1.104.157 1.104s.68 0 1.046.208c.366.212.156.578-.263.735-.417.16-.574.21-.574.734 0 .526.21.631.627.631.417 0 1.308 0 2.353.47 1.047.471 1.308 1.414 1.203 1.94-.105.526-1.57 1.207-2.302 1.207s-.941.159-.941.63c0 .472.89.421.89.421s.888.051 2.614.26c1.727.211 1.988.579 2.774 1.26.783.682.208.84-.158 1.048-.366.212-.942.683-1.516.894-.576.209-.942.63-1.466.732-.523.105-1.831.054-4.236 1-2.406.943-3.243 4.093-3.243 4.093s.314-.107 1.412-.686c1.098-.576 2.458-1.206 3.714-1.992 1.254-.784 1.254.37.627 1.469-.627 1.101.576.891.942.577.366-.316.837-.63 2.038-1.26 1.205-.628.785.368.785.368s-.366.733-.47 2.467c-.105 1.731 1.725.104 2.562-.997.837-1.101 1.203 0 .575 1.26-.627 1.26-1.83 2.254-2.51 2.254-.681 0-1.203-.733-1.255-1.153-.053-.42.21-1.68-.209-1.994-.42-.313-1.623.053-2.511.576-.89.525-1.1.107-1.308-.366-.21-.472.314-.63.105-.943-.21-.317-.68 0-1.047.156-.366.156-1.203.63-2.823 1.468-1.623.839-1.516 1.31-1.516 2.517 0 1.208.3 1.485.975 3.06z" fill="#d4af3a"/><path d="M316.73 224.16c.34-.216.959-.464.959-.464s.772-.184 1.482-.279c.709-.093.586-.495.43-.832-.153-.344-.43-.465-1.354-.465-.929 0-1.517.465-2.04.678-.527.217-1.143.372-1.143.372s.124.154.463.65c.33.524.855.584 1.185.36zm3.78 3.75c.37 0 .772-.217.772-.217s.677-.341 1.298-.556c.616-.217.864-.31 1.233-1.051.37-.741-.402-.741-1.48-1.017-1.082-.282-1.607.09-1.729.492-.126.402-.094.864-.526 1.638-.435.765.06.705.435.705zm-.345.945c-1.048 0-2.222 1.575-2.655 1.853-.433.277-.186.554-.186.554s.309.65.43 1.266c.127.62.157 1.67.157 1.67s.154.063.77.063c.62 0 .989-.31 1.577-.743.588-.432 1.05-.588 1.884-.742.836-.153 1.235-.308 2.16-.801.929-.494-.493-1.359-1.48-2.162-.99-.765-1.605-.93-2.655-.93zm-13.965 3.63c.831-.093 1.202-.507 1.202-.969 0-.462-.42-.97-1.48-.877-2.602.23-5.125-.702-5.59-3.281 0 0-.877 1.614.74 3.419 1.635 1.8 4.305 1.8 5.145 1.71zm-8.865 40.98c.132.23.294.372.459.458h3.987c.68-.191.684-.816.717-1.248.039-.515.433-1.976.986-4.626.552-2.648 1.498-4.542 1.891-5.61.393-1.068-.395-1.422-.67-2.096-.276-.67-.71-1.856-.828-2.448-.119-.594-1.064-.514-1.577-.475-.513.039-.593.87-.67 1.66-.078.788-.434 3.122-.827 5.138-.395 2.016-2.68 4.704-3.31 5.295-.632.594-1.143.83-1.577.83-.433 0-1.379 0-1.853.278-.47.278-.943 1.029-.984 1.619-.039.594.908.91.908.91s.748-.435 1.025-.79c.276-.356.906-.435 1.536-.552.63-.119.709.117.472.432-.24.3-.165.375.315 1.215zm-6.105-.21c-.301.106-.522.407-.658.655h2.605c-.032-.213-.102-.466-.252-.655-.315-.39-1.155-.195-1.695 0z" fill="#d4af3a"/><path d="M294.77 273.18c-.318.173-.702.455-.897.734h2.805c.099-.261.13-.611-.213-.891-.63-.526-1.26-.09-1.695.15zm24.33-1.155c-.306 0-.578.273-1.019.578-.439.305-.574.781-.642 1.156a.256.256 0 0 0 .017.162h1.191a.217.217 0 0 0 .08-.162c0-.342.134-.648.644-1.089.525-.45.045-.645-.255-.645zm2.34 1.29c0-.372-.137-.712-.407-.678-.27.035-.71.51-1.083.782a2.367 2.367 0 0 0-.475.504h1.761c.105-.21.21-.435.21-.615z" fill="#d4af3a"/><path d="M332.27 260.37c.844-.612.711-.782.742-1.426.033-.647.033-.85-.304-1.086-.339-.24-1.59-.782-2.775-.782-1.185 0-3.421.271-4.268.847-.847.58-1.254 2.651-1.254 3.736 0 1.084.17 1.257.474 1.257.305 0 .813-.782.813-.782s1.116 1.461 1.794 2.481c.678 1.019.372 1.425.071 2.205-.306.782-1.422 2.853-2.303 3.296-.883.442-1.56.031-2.608-.135-1.049-.171-1.626.135-2.235.745s-.032 1.089.339 1.089c.373 0 .88-.034 1.287.474.282.353.091 1.158-.051 1.623h5.188c.885-.393 1.496-1.608 1.734-2.271.273-.746 1.39-1.73 1.932-2.238.54-.512.61-.85.61-1.971 0-1.12-.305-1.766-.715-2.546-.406-.781-.71-1.903-.576-2.547.09-.69 1.215-1.395 2.055-2.01z" fill="#d4af3a"/><path d="M323.735 247.425c.519.843.261 1.003-.485 1.164a8.541 8.541 0 0 1-2.716.195c-1.163-.098-1.133.064-1.163.648-.031.582-.132 1.812-.81 2.716-.679.906-1.52.551-2.038.195-.518-.355-.809-.26-1.002.387-.194.648-.55 1.101-1.1 2.07-.55.971-.906 1.004-1.294.906-.389-.097-.744-.679-1.133-.712-.388-.033-1.003-.807-1.585-1.748-.582-.936-.873.096-1.26.908-.39.807-.776 1.392-1.521 1.291-.744-.094-1.584-1.486-2.004-2.328-.422-.843-.68-1.65-1.326-1.618-.647.033-1.715 1.392-2.427 1.746-.713.357-.906.228-1.229-.224-.322-.453-.744.162-1.164 1.229-.42 1.068.033 1.971.615 2.263.582.291 1.746-.55 2.523-1.068.776-.516 1.131-.387 1.941-.387.809 0 .744 1.328 1.1 3.266.355 1.941 1.488 2.2 1.488 2.2s.388.324 1.261-1.162c.873-1.488.97-2.945 1.812-2.945.84 0 .906.194 1.746 1.358.842 1.164 1.553 2.037 2.037 1.164.485-.875.906-2.168 1.457-2.619.549-.455 1.066-.584.484.258-.583.841-.841 1.746.356 1.392 1.197-.354 5.757-2.2 7.6-2.555 0 0 2.166-.355 4.658-.484 2.49-.132 3.103-.293 4.075-.293.97 0 1.002-.097 1.068-.744.063-.648-.453-.517-2.265-.517-1.81 0-3.073.226-4.335.421-1.261.194-1.842.161-1.618-.162.228-.324.583-.55 2.04-.775 1.453-.227 4.431-.39 5.983-.422 1.551-.031 1.067.453.936 1.488-.13 1.034.131 2.556.228 3.527.095.969.128 1.261.97 2.619.841 1.357 3.75 2.2 4.592 2.653.842.453.713 0 .68-.81-.033-.807.646-.775 1.39-.355.743.423 1.973.778 2.846 1.005.873.223 1.002.387 1.002.84 0 .453.097 1.456.196 2.395.095.938.063 1.227-.325 1.811-.389.583-2.037 2.262-2.037 2.262s-.744 0-2.33.391c-1.585.389-2.071 1.133-2.231 1.78-.161.646.292.841.357 1.099.034.142.02.492.001.777h.366c.134-.227.323-.524.569-.843.552-.711 1.944-.873 2.847-.453.594.277.601.898.538 1.294h3.623c.489-.943 1.648-3.199 1.953-3.883.386-.872.613-1.422.646-2.619.033-1.197.16-5.822-.065-6.081-.226-.26.065-1.035 0-2.33-.066-1.293 0-2.265-2.394-2.49-2.395-.226-3.138-1.227-3.946-2.038-.812-.807-.615-2.684-1.26-4.947-.648-2.264-2.232-2.62-5.046-3.171-2.816-.548-4.886-.614-6.987-.419-2.102.195-4.72.486-6.177.354-1.425-.18-1.2.24-.675 1.08z" fill="#d4af3a"/><path d="M337.325 273.405c-.246.159-.41.348-.519.513h2.445a.954.954 0 0 0-.24-.708c-.36-.45-1.08-.195-1.68.195zm4.38-.165a2.222 2.222 0 0 0-.811.678h2.479a.966.966 0 0 0-.013-.286c-.076-.39-.826-.81-1.65-.39zm-61.08 1.545a24.1 24.1 0 0 0 .541 2.33h77.678c.223-.782.405-1.562.54-2.33zm52.35-37.11c2.454 1.633 10.245 1.72 13.903 2.454 3.659.73 3.404 3.53 2.282 4.992-1.119 1.465-6.266 1.641-7.188 1.764.498.345 1.248 1.42 1.248 1.42s.561-.04 2.109-.172c1.548-.128 4.261-.515 6.112-2.066 1.851-1.548 1.721-4.044.087-5.722-1.636-1.68-4.348-1.851-7.104-2.152-2.754-.302-4.906-.518-8.005-1.034-3.098-.516-4.605-1.764-4.605-3.573 0-1.808 1.68-2.754 2.884-3.099 1.205-.344 3.141-.858 4.863-.216 1.722.646 3.746.73 7.146.303 3.402-.432 4.176-2.799 4.176-2.799s-.432.216-2.152.258c-1.722.042-2.972-.73-6.111-.777-3.146-.042-4.264 1.08-5.727 1.595-1.464.517-5.379.906-6.541 3.444-1.155 2.55.18 3.75 2.64 5.385z" fill="#d4af3a"/><path d="M312.56 224.517a1.466 1.443 0 1 0 0 2.886 1.466 1.443 0 1 0 0-2.886zm31.47 3.903c-1.94-.171-4.479.344-4.479.344s.473.388 1.119.345c.645-.044 1.809-.087 3.702.256 1.894.347 3.272-.56 3.272-.56s-1.68-.21-3.615-.39z" fill="#b96b29"/><path d="M325.61 264.57c-.474-.747-.61-.678-1.155-.203-.541.474-1.087-1.156-1.155-2.173-.067-1.016.407-4.138.407-4.138s-2.648.543-4.071 1.017c-1.424.475-2.781.612-3.935.885-1.153.272-1.764.54-2.374.406-.611-.135-1.901-.204-2.918-.204-1.017 0-.948.204-1.968 1.221-1.017 1.016-1.288 1.558-2.103 3.46-.815 1.898-1.086 3.662-1.356 5.969-.179 1.51-.471 2.553-.654 3.096h12.162c.145-.39.334-.88.5-1.244.317-.701.986-1.147 1.465-1.37.479-.224.894-.224 1.115-.762.222-.543.829-.99 1.467-1.277.637-.286 1.752-.127 2.773.159 1.018.285 1.37-.414 1.655-.796.286-.383.415-.924.958-1.623.541-.704.135-1.341.135-1.341s-.495-.33-.975-1.08zm19.515.33c-.158-.702-.095-.795-.51-.894-.414-.096-1.115-.222-1.719-.476-.605-.255-.541 1.37-.541 1.37s-1.436.156-3.059-.032c-1.624-.192-3.535-1.656-4.206-2.136-.667-.477-1.402-1.56-1.402-1.56s-.51.477-1.02.765c-.51.288-.797 1.307-.891 2.327-.096 1.02 1.179 2.26 1.273 3.28.096 1.022-1.114 3.06-1.72 3.888-.413.569-.948 1.78-1.244 2.486h5.871c.123-.302.324-.683.63-.987.603-.606 1.626-.734 1.626-.734s0-.255.222-.795c.22-.541.828-1.179 2.292-1.753 1.467-.573 3.219-.669 3.219-.669s.699-.573 1.21-1.37c.51-.795.135-1.995-.03-2.7z" fill="#1d5e91"/><path d="M296.225 329.655c1.093.365 3.136-.436 4.158-1.677 1.02-1.24 1.386-3.14 2.115-4.232a274.392 274.392 0 0 0 1.258-1.906s-.155 1.803-1.123 4.22c-.922 2.304-1.083 5.455-.864 6.805.438 2.699 2.189 3.137 3.21 2.77.776-.275 1.95-1.471 3.029-3.265.34-.568.579-1.354.912-1.986.693-1.312 1.312-3.463 1.618-3.403.675.132.243 1.651-.012 2.673-.512 2.041-1.531 5.034-1.605 6.858-.074 1.824.147 5.106 1.97 5.253 1.823.145 2.771-1.461 3.791-5.181 1.022-3.719 1.242-4.889 1.679-4.889.438 0 .438 2.553.438 3.648 0 .377.015 1.413.163 2.456.284 1.993.866 4.387 1.442 4.914.874.802 1.605.655 1.605.655s.727.149 1.605-.655c.874-.803 1.603-6.276 1.603-7.37 0-1.093 0-3.648.437-3.648.441 0 .657 1.169 1.679 4.888 1.022 3.72 1.969 5.327 3.793 5.181 1.824-.147 2.045-3.429 1.971-5.253-.074-1.824-1.093-4.816-1.607-6.858-.511-2.043.22-1.897 1.607.73.432.82.88 1.825 1.32 2.527.972 1.546 1.917 2.473 2.619 2.724 1.02.366 2.772-.072 3.21-2.77.438-2.702-1.605-10.435-1.605-10.435l.876 1.314c.729 1.094 1.093 2.991 2.116 4.232 1.02 1.24 3.065 2.041 4.158 1.677 1.094-.365 1.241-2.409.437-6.057-.803-3.648-4.086-5.69-6.42-8.609-2.148-2.682-3.803-7.404-4.052-8.143-2.938 1.455-5.515 3.106-7.843 5.538-4.829 5.037-5.877 6.295-5.877 6.295s-1.05-1.258-5.877-6.295c-2.345-2.447-4.937-4.101-7.898-5.564-.273.623-2.28 5.132-4.449 7.845-1.078 1.349-2.565 2.367-3.62 3.662-1.228 1.504-1.975 3.309-2.407 5.27-.78 3.63-.63 5.67.465 6.044z" fill="#d4af3a"/><path d="M296.09 342.015c1.413-1.244 2.14-1.929 2.14-1.929s1.028-.855.771.772c-.257 1.626-.814 4.967-.47 6.42.342 1.457.513 2.697 2.311 1.626 1.799-1.069 2.226-1.713 3.083-2.61.855-.9 1.755-1.282 1.54.13-.216 1.411-.856 3.552-.556 6.42.3 2.866 1.713 3.294 3.552.855a32.263 32.263 0 0 0 3.51-5.864c.556-1.198 1.669-2.224 1.669 0 0 4.788 1.098 11.753 6.377 13.611 5.281-1.859 6.379-8.823 6.379-13.611 0-2.224 1.11-1.198 1.665 0 .558 1.2 1.67 3.425 3.512 5.864 1.84 2.439 3.253 2.011 3.552-.855.298-2.868-.344-5.009-.557-6.42-.213-1.412.686-1.03 1.542-.13.855.899 1.281 1.541 3.081 2.61 1.799 1.071 1.97-.169 2.312-1.626.342-1.455-.215-4.794-.47-6.42-.258-1.627.77-.772.77-.772s.727.685 2.142 1.929c1.41 1.24 3.349 1.316 3.349 1.316s.908-5.027-1.186-8.029c-2.094-3.001-2.864-3.978-2.864-3.978s-1.185-.069-2.092-.417c-.906-.349-1.788-1.005-1.788-1.005v2.782s2.566 2.438 3.166 3.166c.597.724 1.797 1.968.044.77-1.755-1.199-3.212-2.398-3.212-2.398s-.343 2.526-1.071 3.168c-.726.641-1.755.725-2.181.555l-.427-.172-.13.987s1.583 2.954 1.796 4.152c.216 1.199-.129 1.068-.855-.473-.728-1.537-2.139-3.508-2.781-4.578-.642-1.069-1.584-1.798-1.498-.427.087 1.37-.47 3.85-.942 4.749-.47.9-.77 1.199-.77 1.199s.983 3.469 1.112 4.11c.13.642.042 1.369-.513.555-.557-.813-2.142-4.236-2.142-4.236s-2.097-.086-2.696-.686c-.598-.6-1.54-2.907-1.54-2.907s-.858 2.946-1.57 3.893c-.709.945-2.362 1.888-2.362 1.888s-.118 5.124-.234 6.03c-.12.906-.157 1.299-.541 1.299-.383 0-.423-.394-.542-1.299-.115-.906-.234-6.03-.234-6.03s-1.656-.943-2.365-1.888c-.708-.947-1.568-3.893-1.568-3.893s-.94 2.307-1.54 2.907c-.599.6-2.696.686-2.696.686s-1.584 3.423-2.14 4.236c-.557.814-.642.087-.513-.555s1.113-4.11 1.113-4.11-.3-.299-.771-1.199c-.471-.898-1.028-3.38-.941-4.749.084-1.371-.858-.642-1.5.427-.642 1.07-2.053 3.04-2.781 4.578-.727 1.541-1.07 1.671-.855.473.215-1.199 1.797-4.152 1.797-4.152l-.127-.987-.428.172c-.429.17-1.455.086-2.184-.555-.727-.643-1.07-3.168-1.07-3.168s-1.454 1.199-3.21 2.397c-1.754 1.199-.556-.043.044-.769.599-.728 3.165-3.167 3.165-3.167v-2.781s-.879.656-1.786 1.005c-.908.348-2.094.417-2.094.417s-.768.977-2.862 3.978c-2.094 3.002-1.187 8.028-1.187 8.028s1.95-.06 3.36-1.29zm25.755 33.465c-1.353-1.583-1.804-2.37-1.804-2.37s-.452.788-1.803 2.37c-1.356 1.58-4.515 4.062-4.515 4.062s.282 4.176 1.806 6.43c1.284 1.906 2.512 3.646 4.512 4.967 1.999-1.321 3.229-3.061 4.513-4.966 1.526-2.255 1.806-6.431 1.806-6.431s-3.165-2.49-4.515-4.065z" fill="#d4af3a"/><path d="M319.355 380.595c.124.969.042 3.418.631 3.418.59 0 .505-2.45.632-3.418.125-.969.167-3.293.167-3.293h-1.601c.015-.015.06 2.31.18 3.285z" fill="#b96b29"/><path d="M319.97 151.305c-5.649.096-12.276-.684-15.922-2.042-1.296.287-2.592.572-3.888.857 6.01 2.263 11.032 3.141 19.81 3.23 8.78-.089 13.8-.966 19.809-3.23l-3.89-.856c-3.645 1.351-10.275 2.131-15.93 2.041zm20.55-4.715c-.449-.373-3.02-2.206-3.69-2.54-.67-.338-.149-1.233-.036-1.607.111-.375 3.018-1.197 4.622-1.608 1.6-.411 1.34-.748 1.34-.748s-.932-1.085-6.746-1.72c-5.811-.634-16.02-.485-16.02-.485s-10.211-.15-16.025.486c-5.812.634-6.744 1.719-6.744 1.719s-.261.337 1.343.748c1.601.411 4.507 1.233 4.62 1.608.112.373.634 1.27-.037 1.607-.67.334-3.243 2.167-3.688 2.54-.447.376-.485.973.223 1.01.708.036.72.026 2.72-.375 5.982-1.19 11.613-1.522 17.59-1.605 5.975.083 11.604.416 17.59 1.605 1.998.399 2.01.411 2.719.375.705-.037.675-.634.225-1.01z" fill="#d4af3a"/><path d="M333.905 149.06c-3.988-.473-6.52-.989-13.905-.923-7.383.065-9.913.45-13.905.922 2.513 1.009 6.576 1.516 13.905 1.516 7.335 0 11.4-.51 13.905-1.511zM322.1 86.734l-3.78-.034.66 2.871-3.33-.316v2.626l3.3-.384-.18 2.837 3.045-.246-.285-2.661 3.27.454.135-2.626-3.435.316zm3.315 11.906h-4.089v-3.487a6.027 6.027 0 0 0-1.208-.119c-.365 0-.721.032-1.067.095v3.513h-4.23a4.573 4.573 0 0 0-.18 1.996h10.951c.027-.196.039-.394.039-.594a5.396 5.396 0 0 0-.24-1.404z" fill="#d4af3a"/><path d="M320.12 105.048c2.431 0 4.495-1.431 5.228-3.414H314.89c.735 1.984 2.805 3.414 5.235 3.414zm2.25-9.576v2.397h2.712c-.555-1.059-1.515-1.912-2.715-2.397zm-4.515 0c-1.187.485-2.151 1.338-2.713 2.397h2.713z" fill="#1d5e91"/><path d="M323.255 139.968c-1.032-.488-3.282-1.449-3.282-1.449s-2.139 1.054-3.301 1.638c-1.163.582-1.013.412-1.37 1.26-.357.847.036 1.147.543 1.372.507.227 4.185 2.11 4.185 2.11s3.639-1.694 4.52-2.11c.883-.412.717-.826.47-1.468-.24-.638-.734-.863-1.754-1.353z" fill="#b96b29"/><path d="M323.615 141.04l-3.645-1.706-3.51 1.707 3.6 1.833zm-3.645-14.068s-.303 1.27-.71 1.809c-.406.54-.713 1.022-.596 1.679.117.655.867 1.093 1.306 1.093.438 0 1.19-.438 1.305-1.093.119-.657-.189-1.139-.595-1.679-.39-.538-.705-1.809-.705-1.809zm.03 5.191a.676.676 0 1 0 0 1.353.676.676 0 1 0 0-1.352z" fill="#d4af3a"/><path d="M317.585 129.36s1.17-1.299 1.602-2.123c.433-.822.786-1.558.786-1.558s.351.736.784 1.558c.434.822 1.602 2.123 1.602 2.123s1.646-.867 2.597-4.026c.954-3.16-.219-6.494-.651-10.086-.432-3.593-.78-9.782-.78-9.782-1.247.715-2.424 1.018-3.555 1.037-1.131-.021-2.31-.324-3.557-1.036 0 0-.345 6.188-.778 9.781-.434 3.594-1.602 6.925-.65 10.086.96 3.159 2.595 4.026 2.595 4.026z" fill="#d4af3a"/><path d="M319.97 119.517a2.841 2.742 0 1 0 0 5.484 2.841 2.742 0 1 0 0-5.484zm0-6.326a2.733 2.639 0 1 0 0 5.277 2.733 2.639 0 1 0 0-5.277zm0-6.025a2.607 2.516 0 1 0 0 5.031 2.607 2.516 0 1 0 0-5.031z" fill="#b96b29"/><path d="M319.97 120.315a1.506 1.452 0 1 0 0 2.904 1.506 1.452 0 1 0 0-2.904zm0-6.354a1.449 1.397 0 1 0 0 2.793 1.449 1.397 0 1 0 0-2.793zm0-5.956a1.27 1.225 0 1 0 0 2.45 1.27 1.225 0 1 0 0-2.45z" fill="#d4af3a"/><path d="M319.895 336.06c.176.036.21-.416.244-1.252.033-.834.141-2.85.347-4.032.209-1.184-.314-1.113-.627-1.043-.312.069-.485.972-.485 1.496 0 .52.138 3.511.138 4.137 0 .625.209.66.383.694z" fill="#b96b29"/><g id="flag-me-a"><path d="M300.28 239.41c.841-.534 1.571-1.126 3.478-2.392 1.907-1.267 2.608-2.673 2.608-2.673h-.673c-.365 0-.673-.507-.701-1.013-.029-.507 0-1.547.14-2.757.14-1.209-.196-2.194-.196-2.194s-.813.758-2.047 1.406c-1.234.647-1.74.337-1.74.337l-.309-1.236s-.532 1.126-1.29 2.446c-.758 1.322-2.805 2.786-4.263 3.882-1.459 1.098-3.058 2.252-4.264 2.674-1.206.421-.504.985-.504.985s1.206 1.208 4.319 1.771 4.601-.702 5.442-1.236z" fill="#d4af3a" transform="translate(-160) scale(1.5)"/><path d="M311.17 238.2c-1.112-.117-1.777-.537-1.992-1.745-.141-.787.057-3.798.057-3.798s-.365.309-.786.817c-.421.505-1.375.618-1.375.618s-.14.422-.561 1.096c-.421.677-.954 1.493-2.02 2.167-1.065.676-2.299 1.464-3.113 2.139-.814.676-1.767 1.464-2.833 2.054-1.066.591-2.02 1.548-2.385 3.122-.364 1.575-.083 2.082 1.15 1.998 1.234-.085 1.375.028 3.366-.479 1.992-.506 4.824-2.728 6.899-4.05 2.079-1.323 3.593-3.939 3.593-3.939z" fill="#d4af3a" transform="translate(-160) scale(1.5)"/><path d="M316.69 240.02s-.842-1.067-1.15-2.279c-.309-1.209-.897-3.6-.897-3.6s-.281.76-.954 2.192c-.674 1.436-1.823 1.774-1.823 1.774s-.057.618-1.01 1.828c-.954 1.209-2.355 2.334-3.787 3.18-1.431.842-3.282 1.998-4.292 3.432-1.009 1.435-1.094 2.925-.616 3.572.477.646 1.149-.085 2.103-.563.954-.478 3.675-.9 7.433-2.926 3.758-2.025 4.993-6.61 4.993-6.61z" fill="#d4af3a" transform="translate(-160) scale(1.5)"/><path d="M318.32 248.44c1.038-1.547 1.207-5.315 1.207-5.315s-.364-.253-.87-.677c-.504-.422-1.486-1.912-1.486-1.912s-.617 1.293-1.29 2.503c-.673 1.211-1.011 1.632-2.413 2.926-1.402 1.295-3.31 2.561-4.124 3.939-.813 1.378-.364 4.135.169 5.063.533.93 1.29.618 2.075-.14.786-.759 1.038-.956 2.412-2.138 1.374-1.182 3.283-2.702 4.32-4.249z" fill="#d4af3a" transform="translate(-160) scale(1.5)"/><path d="M305.98 216.89c.552-1.128 1.176-2.496 1.68-3.19.503-.697.863-1.489.863-1.489s-1.344 1.224-1.872 2.088a9.388 9.388 0 0 0-1.104 2.64c-.238.935-.119 1.078.433-.049zm5.33.96c.216-.745.337-1.24.337-1.24s.217-.72.097-.768c-.12-.049-.673.447-1.057 1.67-.385 1.225-.96 2.999-.84 3.071.119.073 1.247-1.989 1.463-2.733zm4.2 3.38c.24-.527.24-.551.24-.551s.432-1.392.432-1.68c0-.287-.144-.623-.503.096-.361.721-.384 1.415-.457 1.728-.071.312-.479 1.392-.36 1.488.12.096.408-.551.648-1.081zm-13.04 12.8l-.562-.338s-.336.451-.813.957c-.477.505-1.011.703-1.375 1.182a5.297 5.297 0 0 1-1.795 1.519c-.869.45-1.206.591-1.037.732.168.141.757-.197.757-.197s.252-.029 1.29-.647 1.29-.956 1.963-1.547 1.572-1.661 1.572-1.661zm4.55 5.38c.393-.422.813-.704.589-.93-.225-.224-.505-.196-.87.113-.364.31-1.402 1.293-1.879 1.716-.477.422-.869.676-1.346 1.041-.477.366-1.515.928-2.019 1.209-.505.282-.028.312-.028.312s.393-.199.813-.34c.42-.14 1.626-.675 1.626-.675s.477-.225 1.122-.675c.645-.449 1.599-1.35 1.992-1.771zm5.24 3.63c.336-.674-.028-.479-.589-.252-.561.225-1.823 1.604-2.552 2.109-.729.505-1.347.703-1.963 1.014-.617.309-.617.477-.588.618.027.141.279.141.532.028.253-.112 1.122-.619 1.122-.619s.365-.111.702-.141c.337-.028.813-.396 1.571-1.041.755-.647 1.428-1.039 1.765-1.716zm2.44 4.81c-.926.563-2.524 1.828-2.945 2.673-.422.845-.702 1.435-.562 1.575.14.141.589-.141.786-.479.196-.337.617-.844.617-.844s1.598-1.574 2.187-1.94c.589-.366 1.543-1.406 1.768-2.025.224-.62.056-.956.056-.956s-.982 1.433-1.907 1.996z" fill="#b96b29" transform="translate(-160) scale(1.5)"/><path d="M289.99 113.28c-.848-.498-3.128-1.473-5.556-1.679-2.426-.205-4.302.16-6.316.704-1.443.39-2.612.45-3.768.14-1.737-.463-3.084-2.031-3.542-3.952 0 0-1.602 2.054.036 4.283.787 1.072 1.812 1.742 2.856 1.953 3.399.685 6.733-1.39 9.564-1.571 2.719-.177 4.854 1.547 4.854 1.547s.643.534 1.549.007c.908-.53 1.171-.934.323-1.432z" fill="#c52126" transform="translate(-160) scale(1.5)"/><path d="M280.2 211.66s-.334-.033-.802-.101c-.468-.067-1.471-.402-1.772-.537-.301-.133-.769-.167-1.07.168-.301.336-2.742 1.777-2.742 1.777h4.046c1.404 0 2.34-1.307 2.34-1.307z" fill="#d4af3a" transform="translate(-160) scale(1.5)"/><path d="M291.59 210.97v-.404l-.539-1.161s-.629.395-1.242 1.029c-.789.819-1.638 1.97-2.017 2.456-.674.863-1.616 1.675-.808.296.808-1.378 1.077-1.972 1.723-2.891.647-.918 1.132-1.323 1.052-1.378-.081-.054-.594-.134-2.291-.35-1.696-.218-2.747-.865-3.528-1.325-.781-.459-2.182-1.215-2.182-1.215s-2.882 1.215-3.96 1.485c-1.078.27-1.724.432-.674.946 1.051.513 1.939.675 2.451.998.511.326 2.101.838 3.071.838.969 0 2.612.026 1.966.702-.646.677-1.374 1.974-2.074 3.944-.7 1.974-.727 3.729-.727 4.594 0 .865.107 1.728.107 1.728s1.185-1.322 4.364-3.321c3.178-2 4.363-2.675 4.956-2.946.592-.269.89-.269.781-1.025-.106-.757-.429-2.621-.429-3z" fill="#d4af3a" transform="translate(-160) scale(1.5)"/><path d="M303.73 201.31c-.192-.086-.39-.175-.59-.268a.698.698 0 0 0-.146.052c-.373.187-2.312 1.492-3.095 2.761-.783 1.267-1.566 1.38-.709 0 .858-1.382 1.492-2.164 2.163-2.761a15.6 15.6 0 0 1 .677-.569c-1.56-.752-3.254-1.663-4.893-2.804-.212.423-.619 1.173-1.08 1.659-.671.708-2.163 1.306-2.163 1.306s1.193-1.231 1.604-2.164a9.612 9.612 0 0 0 .521-1.621 21.093 21.093 0 0 1-3.21-3.065c-.199.807-.844 2.771-2.755 4.91-2.498 2.798-7.496 4.214-7.496 4.214s-1.752.187-.335.56c1.417.373 2.424 1.007 5.184.521 2.759-.483 2.945-.596 3.318-.706.373-.113 1.38-.038 0 .484-1.379.521-4.587 1.005-5.817.895-1.231-.111-2.909-.373-1.156.56s2.499 1.305 3.58 1.305c1.082 0 1.529.336 2.574.336 1.044 0 1.341-.187 2.088-.336.746-.148 1.23.111 1.23.41 0 .298-1.006 1.118-.969 3.17.037 2.051.186 3.394.372 3.988.188.599.635 1.567.933 2.128.298.559.411 1.117.708-.075.298-1.194.969-2.909 1.231-4.064.261-1.156.41-1.193.522-1.79.111-.597.746-1.044.447.037a88.954 88.954 0 0 0-.857 3.431c-.225.97-.746 2.759.148 1.342.895-1.416 4.251-5.183 4.81-5.854.559-.671 1.007-1.306 1.417-1.864.41-.56 1.566-1.306 2.126-2.126.506-.742 1.988-2.187 2.624-2.704-.949-.403-1.95-.825-3.006-1.298zm-46.36-86.08c.089 2.055 2.364 5.987 3.658 8.087 1.294 2.101 1.65 2.947 1.428 3.082-.224.134-.759-.938-1.473-1.875-.714-.938-2.096-3.127-3.256-4.78-1.16-1.653-2.855-5.584-3.078-5.942-.223-.357-.313-.581-.892-.135-.58.447-1.695 4.781-.356 7.73 1.338 2.948 3.345 5.091 4.192 6.119.848 1.028 1.963 2.636 1.784 2.771-.178.133-.49-.269-1.516-1.341s-2.722-2.904-3.836-4.244c-.906-1.088-2.135-3.298-2.566-4.088-.162-.299-.371-.218-.527-.062-.367.369-.955 1.226-.699 3.569.357 3.262 2.052 5.138 3.568 6.791 1.517 1.653 3.034 3.037 2.811 3.261-.223.224-1.784-1.162-2.855-2.189-1.07-1.027-3.703-3.573-4.282-4.289-.581-.714-1.427-.358-1.383 2.457.044 2.815 3.167 5.674 4.46 7.238 1.295 1.563 2.9 2.5 2.767 2.813-.134.313-1.428-.49-2.275-1.072-.847-.581-4.015-2.636-4.639-3.083-.624-.446-.937.402-.134 3.083.803 2.679 3.123 4.824 4.505 5.806 1.383.983 3.613 2.188 3.479 2.503-.133.312-1.07-.09-2.364-.716-1.293-.625-2.854-1.206-3.97-1.518-1.116-.313-1.115.49-1.115.49s-.224 2.278 1.427 4.11c1.651 1.832 3.524 2.547 5.308 2.858 1.784.313 2.052.403 2.007.672-.044.268-.223.312-.624.312s-2.052.179-3.569.179-2.319.356-2.319 1.027c0 .671-.045 1.564 2.23 3.082 2.274 1.52 4.817 1.743 5.888 1.967 1.07.223 1.114.313.892.626-.223.312-.713.268-2.409.446-1.695.178-2.721.849-2.944 1.295-.223.447.134 1.788 1.518 2.725 1.382.939 3.166 1.252 5.843 1.073 2.677-.18 3.346-.224 3.435.224.09.446-.802.581-2.141.805-1.338.222-2.365.222-3.123.848-.759.626-.178 1.921 1.115 2.859s4.506.938 5.844.849c1.338-.089 3.39-.581 3.524-.224.134.357-.981.895-2.363 1.385-1.384.493-1.786.804-2.052 1.386-.269.58-.045 1.116 1.605 1.741 1.65.626 4.059.626 5.308.045 1.25-.58 1.918-.805 2.142-.58.222.225 0 .447-.268.76-.267.313-1.338 1.161-2.721 1.519-1.383.358-1.517.358-2.008 1.474-.49 1.117.758 2.012 3.256 2.102 2.499.088 5.844-.894 6.915-1.521 1.071-.626 1.472-.759 1.65-.535.178.223.134.357-.401.758-.536.404-2.231 1.609-3.078 1.833-.847.223-.937.848-.937 1.429 0 .58-.223 1.742 2.007 2.279 2.231.536 4.862.135 7.271-1.564.776-.546 1.227-.997 1.481-1.388-.195-2.281-.092-3.849.182-5.295a8.813 8.813 0 0 1-2.288-.555c-1.338-.535-1.873-1.786-2.186-2.457-.313-.67-.758-.67-1.294-.492-.536.181-1.071.403-1.829.359-.758-.044-2.364-.447-3.524-1.833-1.16-1.385-.938-2.724-.982-3.396-.045-.67-1.115-.178-1.65-.178-.536 0-2.097-.224-3.523-1.206-1.428-.983-1.428-2.323-1.562-2.86-.134-.535-.714-.892-1.16-1.072-.445-.178-1.16-.356-2.142-1.161-.981-.804-1.337-2.367-1.382-2.903-.044-.536-.625-.581-2.632-1.608-2.007-1.027-1.829-3.172-1.739-4.02.089-.85 1.025-1.563 1.025-1.878 0-.313-.669-.401-1.338-.804-.669-.401-2.364-1.072-2.408-3.573-.045-2.502 1.606-2.77 1.606-2.77s-.313-.135-.982-.536c-.669-.403-2.497-1.653-2.497-3.128 0-1.474.668-2.144 1.159-2.502.491-.357 1.829-.714 1.829-.714s-.848-.537-1.205-1.698c-.357-1.162-.491-2.59.356-3.618.848-1.028 2.275-1.028 3.034-1.028.759 0 1.427.402 1.695.18.268-.224.312-.402.044-.983-.267-.58-.312-2.011-.089-2.501.224-.492.268-1.474 2.187-2.1 1.917-.625 3.924.67 4.549 1.028.625.358.357-.493.357-1.117 0-.625-1.293-2.189-2.766-4.423-1.472-2.234-2.141-3.396-3.792-6.791-1.651-3.395-2.722-7.773-2.944-8.89-.223-1.117-.669-.582-.669-.582s-.446.18-1.472 2.77c-1.024 2.592-1.202 4.96-1.113 7.013z" fill="#d4af3a" transform="translate(-160) scale(1.5)"/><path d="M291.02 160.92c-1.15-.058-2.643-.689-3.792-2.358-1.148-1.669-2.873-2.073-5.861-2.016-2.988.058-4.367-1.38-5.114-3.451-.747-2.073.115-4.433 3.16-5.929 3.045-1.496 4.425-3.165 4.539-5.753.115-2.59-3.044-5.813-6.205-9.438-3.161-3.625-5.631-8.748-5.631-8.748s-.919 1.209-.919 2.417c0 1.208.459 2.474 0 2.819-.46.346-.632-.517-2.47-1.323-1.839-.806-3.333-.92-4.482.403s0 3.625 1.034 4.719c1.035 1.093 1.896 1.9 1.609 2.303-.287.403-1.839-.633-2.356-.979-.517-.346-1.724-1.668-3.505-1.496-1.781.172-2.414.69-2.586 2.187-.172 1.496 1.609 2.818 2.758 3.395 1.149.574 1.609 1.093 1.321 1.322-.287.231-.575 0-1.092-.171-.516-.173-1.953-.345-2.872 0-.92.345-2.414 1.61-1.035 3.165 1.379 1.554 4.252 2.129 4.827 2.243.574.115.862-.058.919.402.057.462-1.207.462-2.758.52-1.551.058-2.011 1.553-1.781 2.704.23 1.151 2.815 2.416 4.251 2.647 1.438.23 1.954 0 2.069.402.116.402-.172.575-.977.806-.804.229-2.356.403-2.644 1.669-.287 1.266-.344 1.841.863 2.936 1.207 1.093 3.161.92 3.735.805.575-.114 1.265-.749 1.839-.172.574.574-.518 1.035-1.495 1.726-.977.692-.919 2.015.747 2.936 1.666.922 3.333.574 4.022.345.689-.229 1.609-1.323 2.068-.633.46.69-1.436.921-2.241 1.899-.804.977-.517 2.588 1.092 3.566 1.609.979 4.252.288 4.712-.114.459-.402 1.033-.574 1.378-.229.344.343-.172 1.264-.517 2.07-.344.806-.977 3.165 1.437 4.086 2.414.92 4.597-1.151 4.999-1.555.402-.402.804-.46 1.149-.287.344.174.173.518-.115.921-.287.402-.919 2.128.804 3.338 1.177.825 2.461.764 3.157.644.359-1.348.826-2.788 1.302-4.805h-.36c-.23 0-.276.345-.276.483s.069.253-.139.253c-.207 0-.23.115-.529.323-.299.207-.575.459-.737.345-.161-.115.622-.53.829-.783.208-.254.622-.645.645-.92.023-.277.161-.438.575-.783.129-.107.23-.235.31-.359.277-1.342.548-2.913.795-4.815a38.08 38.08 0 0 0 .299-3.643zm-49.11-35.87c2.567 5.193 6.192 8.117 6.192 8.117s-.476-1.29-.687-2.177c-.209-.888-.046-1.892-.046-1.892s-.91-1.167-2.591-3.758-2.568-6.419-2.568-6.419 1.564 3.828 2.778 5.86c1.215 2.031 2.616 3.688 2.616 3.688s.489-1.796.84-1.89c.35-.093.607.187.91.583.304.397.562.36.562.36s-.415-.857-1.053-1.885c-.29-.467-.713-.971-1.012-1.443-.957-1.512-3.02-4.385-4.078-7.259-1.058-2.875-3.373-10.083-3.776-12.202-.402-2.117-.805-.958-1.208.606-.402 1.563-.956 3.781-.604 7.108.352 3.327 1.157 7.41 3.725 12.603zm3.32 14.02a90.575 90.575 0 0 0 2.366 1.663s-.223-.521-.364-1.146c-.141-.625-.201-1.912-.201-1.912s-1.126-.988-1.91-1.672c-.784-.685-1.77-1.571-3.72-3.987-1.95-2.417-.382-.966 1.206.766s4.625 4.248 4.625 4.248 0-.04.02-.563c.021-.523.182-.906.463-1.268.282-.363.133-.414-1.579-1.724-1.711-1.311-6.142-6.302-7.954-9.278-1.813-2.975-3.776-7.008-3.776-7.008s-.956 5.95 2.669 12.504c3.624 6.553 7.199 8.671 8.155 9.377zm19.02 37.53c1.986-.77 1.442-2.729 1.442-2.761 0-.032-1.218.386-2.338.802-1.122.419-3.877 1.22-4.966 1.251-1.088.032-1.088-.127-1.121-.288-.032-.159.833 0 2.402-.288 1.57-.289 4.325-1.733 4.805-2.053.48-.322.416-.387-.288-.451-.705-.063-1.313-.385-1.57-.608-.255-.225-.992.097-2.786.515-1.795.416-5.511 1.058-8.362 1.058s-5.509-.481-5.958-.578c-.449-.096-.929.161.449 2.472 1.377 2.309 6.215 3.561 9.578 3.528 3.363-.034 6.727-1.83 8.713-2.599zm-8.94-4.77c3.47.029 4.764-1.002 4.764-1.002s0-.177-.47-.883c-.471-.706-.382-1.914-.382-1.914s-.824.147-2.265.354c-1.441.206-3.117.412-4.97.088-1.853-.324-1.058-.53.412-.354 1.471.177 4.293-.354 5.205-.677.911-.324.529-.618-.088-.826-.617-.204-2.293-1.266-2.293-1.266s-4.205.53-8.116.09c-3.911-.444-6.382-1.444-7.176-1.562-.794-.118-.765.207-.765.207s-.206.352 1.146 2.471c1.353 2.123 4 3.507 6.235 4.154 2.235.649 5.293 1.091 8.763 1.12zm-.89-8.13s-.147-.206-.353-.914c-.206-.707.382-1.236.382-1.236s-.794-.235-3.382-.56c-2.588-.324-2.734-.53-4.323-.884-1.588-.353-2.646-.824-2.617-1.001.029-.177.529.089 1.47.441.94.354 4.911.766 6.587 1.002 1.676.235 2.617.413 2.911.235.294-.177 1.323-.442 1.323-.442s-.706-.204-1.588-.353a5.607 5.607 0 0 1-2.146-.854c-.471-.324-.618-.414-2.735-.647-2.118-.235-3.823-.914-7.617-2.298-3.792-1.385-6.646-3.033-7.41-3.651-.765-.618-.706-.176-.5.618.206.796.176 1.796 2.088 4.034 1.911 2.239 2.852 3.21 7.674 4.979 4.825 1.766 10.236 1.531 10.236 1.531zm-14.26-11.75c4.264 3.004 9.261 4.107 10.321 4.24.238-.278-.258-1.276-.03-1.885.276-.729.736-.736 1.765-.795 1.029-.061.353-.266.118-.266s-.294-.029-2-.471c-1.706-.44-3.44-.707-5.792-1.591-2.353-.883-3.058-1.531-3-1.708.059-.176 1.088.561 3.265 1.385 2.176.824 4.705 1.148 6.087 1.444 1.382.292.176-.296-.471-.679-.647-.384-1.559-1.797-1.559-1.797s-1.529-.265-4.028-1.03c-2.5-.766-4.587-1.621-6.675-2.798-.717-.406-1.411-.929-2.159-1.466-1.431-1.026-2.869-2.075-3.428-2.48-.854-.618-.588-.118-.5.265.088.383.676 2.151 2.028 4.094 1.353 1.944 1.794 2.533 6.058 5.538zm-.7-8.45c4.205 3.329 7.821 4.357 8.439 4.623.617.266.559-.088.441-.441-.118-.354-.207-1.501-.207-1.501s-1.5-.855-3.176-1.827c-1.676-.973-3.528-2.297-4.763-3.15-1.235-.854-.5-.795-.118-.473.382.324 2.088 1.326 3.793 2.386a287.722 287.722 0 0 0 4.293 2.592s.059-.559.412-.913 1.234-.264 1.234-.264-.441-.442-.706-.854c-.264-.414-1.647-.854-3.205-1.592-1.559-.735-4.353-2.796-6.411-4.534-2.058-1.737-6.058-6.096-6.322-6.45-.265-.354-.441-.294-.471.147-.029.441-.176.736.265 2.739.444 2.002 2.296 6.184 6.502 9.512zm14.88-31.47c.477.99.999 1.738 1.375 2.383.568.974.888 1.605.888 1.605s.114-.343.024-.928-.18-1.396-.022-2.363c.083-.518.195-1.034.167-1.494-.033-.523-.208-.975-.279-1.273-.135-.564-.741-3.016-1.034-4.748-.292-1.733-.606-4.208-.584-6.392.022-2.183.337-1.081.337-.022s.112 2.679.449 5.176c.337 2.498 1.393 6.301 1.393 6.301s.067-.585.382-1.418.832-1.777 1.236-2.813c.404-1.035.262-1.208.262-1.208s-1.476-7.066-1.864-10.406c-.389-3.339-1.01-12.116-1.01-12.116-2.16 2.173-3.766 7.892-4.052 13.301-.214 4.075.444 7.847.635 9.376.378 3.028.904 5.392 1.697 7.039zm-4.79 11.15c.067-1.6.435-2.811 1.467-3.166 0 0-.913-1.601-1.711-3.883-.545-1.563-.996-3.567-1.225-5.105-.564-3.787-1.016-7.688.113-1.3 1.128 6.387 2.483 8.648 2.483 8.648l1.637 2.657c-.242-1.167-.28-1.987-.218-3.262.062-1.275.225-3.002.613-4.369 0 0-1.976-3.956-3.217-8.706s-1.951-9.069-1.976-11.644c-.113-2.488-.169-3.449-.169-3.449s-2.031 1.526-2.708 9.27c-.678 7.745 1.355 15.151 2.37 17.978 1.016 2.825 2.541 6.331 2.541 6.331zm22.16 59.06s-.32-.224-1.281-.834c-.961-.608-.672-2.438-.672-2.438s-.256.192-.962.674c-.705.481-1.505 1.025-2.466 1.411-.961.386-1.442.642-2.05.834-.609.193-.448-.063.064-.353.512-.288.673-.449 1.955-.962 1.28-.514 3.843-2.76 3.843-2.76s-.609-.064-1.666-.096-2.403-.577-2.403-.577-1.056.962-5.317 2.79c-4.261 1.83-7.881 2.31-7.881 2.31s.449 2.183 2.499 2.921c1.698.738 4.037 1.187 8.618.097 4.58-1.09 7.719-3.017 7.719-3.017zm5.61 4.37c.353-1.799-.673-3.05-.673-3.05s-.224.128-.864.706c-.641.578-1.571 1.669-3.364 2.566-1.793.897-2.435.834-.705-.097 1.73-.931 4.261-3.561 4.261-3.561l-.672-.257c-.674-.257-1.827.192-6.632 3.079-4.805 2.888-7.625 2.985-7.625 2.985s2.146 2.599 7.977 2.406c5.831-.19 7.945-2.982 8.297-4.777zm11.02-2.09s-.641.897-1.506 1.475c-.865.578-3.171.931-3.171.931s-.096.257-.544.834c-.449.578-1.442 1.958-2.467 2.696-1.024.738-2.627 1.218-2.723 1.025-.096-.193.929-.577 1.922-1.187.993-.608 1.89-1.733 2.563-2.502.673-.771-.288-.642-.288-.642s-1.217.031-2.339-.064c-1.121-.098-.897 0-1.217.546-.32.546-.769 1.026-1.602 1.989-1.016 1.174-1.981 2.238-2.947 3.399-.64.771-.16.995-.16.995s.289.482 2.883.77c1.602.179 3.337-.023 5.163-1.076 1.131-.656 2.298-1.695 3.488-2.998 3.105-3.399 2.945-6.191 2.945-6.191zm1.38 7.02c-.641.835-.994 1.188-.994 1.188s.449-1.38.833-2.022c.205-.342.427-.667.592-.894-.429-.964-.781-2-1.041-3.117-.285.923-1.172 3.631-2.274 5.392-1.344 2.148-2.531 2.919-1.762 3.495.769.578 2.274.707 3.973-.128 1.64-.805 2.114-2.211 2.347-3.346a16.513 16.513 0 0 1-.808-1.394c-.212.131-.52.376-.866.826zm-.38-86.882a1.192 1.092 0 1 0 0 2.184 1.192 1.092 0 1 0 0-2.184zm-2.51-.968c1.088-.026 1.673-.541 2.874-.425 1.417.138 3.337.964 5.669 2.202 1.823.824 4.23 1.236 6.548.571.649-.187 1.291-.542 1.912-.892 2.835-1.606 2.149-4.771 2.149-4.771-2.092 1.509-4.678 2.32-7.087 2.156 0 0 .183.138.594.551.412.413 1.165.893.915 1.102-.249.207-1.28-.781-2.149-1.423-.869-.643-2.149-1.514-4.344-2.154-2.195-.644-4.664-.688-6.31.227-1.646.919-1.783 2.066-1.554 2.524.126.257.429.341.783.332z" fill="#d4af3a" transform="translate(-160) scale(1.5)"/><path d="M317.64 126.8c-.503-.138-1.371-.275-2.514-1.33-1.144-1.054-3.887-4.082-4.208-4.632-.32-.551-.183-1.055.595-1.377.777-.32 1.326-1.33 1.326-1.33s-1.691-.643-2.834-1.469c-1.144-.824-3.796-3.21-4.162-3.806-.366-.596-.183-.688.366-.871.55-.184.687-.551.687-.551s-1.235-.779-2.377-1.696c-1.144-.917-2.698-2.431-2.698-2.431-1.713.688-4.401.398-5.853.138-2.561-.458-4.435-1.514-4.435-1.514s-.092.413-.412 1.193c-.32.779-1.509 1.239-2.698.458-1.189-.779-.915-2.476-.915-2.476s-.96-.596-2.926-1.33c-1.966-.734-3.566-.826-5.167-.092-1.601.733-2.378 2.935-2.378 4.587 0 1.65.87.963 1.052.732.183-.229.549-1.422 2.561-1.742 2.012-.322 3.841.642 6.127 2.521 2.286 1.882 2.789 2.019 3.932 3.211 1.143 1.193.229 1.834-1.737 2.477-1.966.643-4.481-.642-4.573-.595-.378.189.848 1.938 2.544 2.599 1.696.66 3.864.232 5.55-.444 1.143-.458 1.356.015 1.691.367 1.857 1.952 2.34 3.781 2.652 6.009.949-.292 1.606-1.24 1.738-2.018.063-.373.183-1.193.823-.597.64.597 1.143 3.898 1.143 5.412 0 1.514-.458 3.532-.458 3.532l.458-.046c.275-.046.823-.367 1.555-.779.731-.414.777.046.777.871s.274 2.385 1.372 5.183 2.698 3.714 2.698 3.714.321-.55.641-1.65c.319-1.101.549-3.256.549-5.137 0-1.881-.503-5.917-.503-5.917s2.287 2.798 4.664 3.487c2.378.688 4.756.275 5.762-.872 1.003-1.146.088-1.65-.415-1.789z" fill="#d4af3a" transform="translate(-160) scale(1.5)"/><path d="M302 134.04s-.722 1.597-1.116 2.166c-.394.569-.569.658-.569.658s.722.612 1.773.94a23.63 23.63 0 0 0 1.992.525s-1.183-1.621-1.598-2.758c-.416-1.138-.482-1.531-.482-1.531zm14.28-.94c-.351-.897-.569-1.401-.569-1.401-1.459.292-4.227-.393-5.429-1.116 0 0 1.095 2.231 2.189 2.998 1.095.766 1.248.81 1.248.81s-1.094.176-2.561-1.269c-1.466-1.445-2.123-3.109-2.123-3.109s.328 3.853-.263 6.216-.722 2.67-.722 2.67 3.107.547 6.566-.416c3.458-.964 3.72-1.27 3.72-1.27s.415-.109-.131-.831c-.547-.721-1.575-2.385-1.925-3.282z" fill="#d4af3a" transform="translate(-160) scale(1.5)"/><path d="M310 124.64c-1.064-1.223-1.17-1.516-1.17-1.516s-.372.372-.054.905c.319.531 1.835 1.86 2.872 2.445a7.4 7.4 0 0 0 2.074.771l-.053-.213c0 .001-2.606-1.169-3.669-2.392zm-4.22 8.03s-.266-4.84-.266-5.558-.452-.532-.452-.532l-.531.239 1.04 7.077c.113.762.488.697.68.663-.38-.197-.455-1.668-.471-1.889zm-6.53-20.95c-.395-.394-1.283-.689-.427.264.855.954 1.975 2.14 2.303 3.128.33.987.527 2.204-.032 1.941-.56-.264-.955-.264-1.547-.757-.593-.494-1.711-1.318-2.172-1.448-.461-.132-1.283 0-.625.723.658.725 1.383 1.417 2.633 2.337 1.251.922 1.975 1.316 2.633 1.777.658.462 1.316.856 1.316.856s-.593-3.949-1.679-5.693c-1.086-1.744-2.008-2.732-2.403-3.128zm-21.34 66.15c-.802.608-1.853.857-1.853.857s-.498-.026-.498.167.581 0 1.189-.11c.608-.111 1.438-.72 1.742-.941.304-.222.747-.499.608-.887-.138-.388-.387.305-1.188.914zm6.89 3.69c-.166.192-1.493 1.19-1.493 1.19s-.415.276-.858.442c-.442.167-.552.417-.552.417s.083.109.552-.027c.47-.14 1.854-1.109 2.295-1.497.442-.389.637-.498.471-.664-.165-.166-.248-.055-.415.139zm-27.93-49.63c.248.302.55.715.688.577.138-.137-.028-.275-.358-.661-.33-.385-.522-.578-.522-.578s-.467-.744-.743-1.02c-.275-.275-.688-.413-.165.22.523.635.853 1.158 1.1 1.462zm-2.12 4.65c.302.277.577.523.907.881.33.358.578.743.77.551.193-.193-.495-.605-.797-.992a4.998 4.998 0 0 0-.936-.936c-.386-.303-.853-.551-.853-.551s.606.772.909 1.047zm.79 7.51c.525.553 1.299.719 1.41.499.111-.222-.055-.4-.496-.62-.439-.22-1.155-.688-1.513-.936a7.612 7.612 0 0 1-.963-.771c-.247-.248-.54-.471-.632-.387-.092.085.729.968.977 1.107.249.138.692.554 1.217 1.108zm1.52 6.01c0-.221.054-.331-.388-.36-.442-.027-1.051-.109-1.051-.109s-.857-.333-.913-.167c-.055.167.719.5 1.051.555.332.056.746.166.939.275.195.11.362.026.362-.194zm.66 6.53c-.939 0-1.742-.223-1.797-.084-.055.139.442.361.913.526.471.167 1.356.222 1.964.249.608.027.719-.11.691-.414-.028-.306-.83-.277-1.771-.277zm7.36 7.15c-.138-.138-.47-.027-.996.083-.524.112-1.382.278-1.88.251a84.137 84.137 0 0 0-1.576-.056l-.608.138c0 .139.801.111 1.963.249 1.161.139 1.935-.11 2.488-.194.554-.083.748-.331.609-.471zm3.04 5.09a3.728 3.728 0 0 1-1.438.276c-.442 0-1.493.194-1.493.194s-.498.056-.415.25c.083.193.249 0 .69-.056.443-.056.775 0 1.549-.027.774-.028 1.217-.223 1.687-.305.47-.084.995-.333.747-.638-.249-.303-.746.084-1.327.306zm5.92 3.85c-.332.333-1.604 1.191-1.604 1.191s-.249.194-.747.443-.47.361-.387.499c.083.138.387-.194.663-.305.276-.111 1.189-.722 1.659-1.107.47-.39 1.078-.694.967-.97-.109-.277-.219-.082-.551.249zm-9.85-49.85s.11.253 1.131 1.531c1.022 1.277.475.072.219-.254-.256-.33-1.751-2.444-2.262-3.029-.51-.584-.583-.292-.328.072.256.365 1.24 1.68 1.24 1.68zm-2.15 6.56c.146-.146-.183-.292-.766-1.021a335.48 335.48 0 0 1-1.751-2.225s-.329-.693-.438-.621c-.109.073.401 1.167.875 1.643.475.474 1.094 1.386 1.423 1.787.329.401.511.583.657.437zm2.83 12.3c0-.357-1.155-.303-1.677-.413-.523-.11-1.458-.303-1.458-.303s-1.101-.193-1.128-.055c-.028.136.22.274.825.386.605.109 1.513.385 2.201.495.688.11 1.237.249 1.237-.11zm-2.83-6.64c.766.62 1.276.912 1.678 1.131.401.218.729.548.949.292.219-.257-.183-.438-.839-.73-.657-.292-.985-.547-.985-.547s-.365-.182-.694-.365c-.329-.182-.876-.401-.109.219zm6.6-4.38c-.475-.401-.876-.622-.876-.622s-.583-.547-.693-.365c-.109.184.656.73 1.021 1.058.365.329 1.022 1.278 1.35 1.095.328-.182-.329-.765-.802-1.166zm-4.31 17.14s-.637.165-1.051.276c-.414.111-.442.306.305.306s1.051-.194 1.797-.334c.747-.138.997-.221.885-.47-.11-.25-.498-.166-.802-.083-.304.083-1.134.305-1.134.305zm1.16 6.21c-.055.14.525 0 .912-.138.387-.139 1.189-.553 1.659-.692.471-.138.471-.222.471-.499 0-.276-.499-.056-1.106.139-.608.194-1.383.804-1.383.804s-.498.248-.553.386zm7.99 3.76c.554-.334.665-.582.47-.749-.193-.165-.359-.138-.801.222-.443.36-1.3.969-1.3.969s-.442.167-.774.333-.747.443-.636.609c.11.166.802 0 1.161-.305.36-.304 1.328-.748 1.88-1.079zm3.77 4.99c.221-.195.884-.414 1.189-.637.304-.222.498-.886.249-.969-.249-.083-.387.276-.912.663-.526.389-2.323 1.579-2.323 1.579l-.471.194c-.498.193-.276.333.139.277.415-.057.691-.057 1.189-.442.497-.388.718-.471.94-.665zm5.58 4.73c.471-.193 1.162-.803 1.494-1.106.331-.306.746-.693.498-.887-.25-.193-.525.056-.913.414-.387.361-1.411 1.441-1.411 1.441s-.138.027-.691.471c-.553.442.028.359.221.166.194-.193.333-.305.802-.499z" fill="#b96b29" transform="translate(-160) scale(1.5)"/><path d="M305.18 94.311l-1.7 1.357 2.1.92 2.25-1.598z" fill="#d4af3a" transform="translate(-160) scale(1.5)"/><path d="M312.78 92.647a2.146 2.069 0 1 0 0 4.138 2.146 2.069 0 1 0 0-4.138z" fill="#b96b29" transform="translate(-160) scale(1.5)"/><path d="M312.78 93.041a1.295 1.237 0 1 0 0 2.474 1.295 1.237 0 1 0 0-2.474zm-4.48-5.433c.552.205 1.27.115 1.27.115s.217-.952-.308-1.416c-.525-.462-1-.796-1.308-1.105a4.858 4.858 0 0 1-.384-.413s0 .823-.04 1.338c-.037.516.219 1.274.77 1.481zm1.14.669a.394.373 0 1 0 0 .746.394.373 0 1 0 0-.746zm-2.93-.027c-.167.232-.525.604-.525.604s.436.013.795.27c.359.258.821.476 1.244.425a.586.586 0 0 0 .513-.734c-.089-.283-.294-.577-.987-.836-.693-.256-.873.039-1.04.271z" fill="#d4af3a" transform="translate(-160) scale(1.5)"/><path d="M308.01 90.756c-1.348.121-3.129-1.369-3.129-1.369-.166 1.197-.906 1.818-2.04 2.045l.104.053s1.054.539 2.299.728c.563.086 1.064-.011 1.669-.132.73-.148 1.551-.356 1.995-.63.813-.502.57-1.803.57-1.803s-.119.986-1.468 1.108zm-5.25-1.352c-.553-.208-1.383-.607-1.729-.625-.346-.017-.848-.104-.761.538.086.642.743.954 1.382.971.64.018.969-.225 1.349-.417.381-.19.312-.259-.241-.467zm-4.22-2.29c-.604-.433-1.142-.554-1.142-.554s-.397 1.041-.173 1.683c.225.642.692.814 1.262.796.571-.016 1.418-.312 1.176-.745-.241-.432-.518-.746-1.123-1.18zm.55 2.591a.466.336 0 1 0 0 .672.466.336 0 1 0 0-.672zm1.29-4.84c-.374-1.774-.311-3.704 1.37-6.163 1.682-2.46 4.607-3.456 4.607-3.456s.093-.187 1.027-1.182c.934-.997 2.833-2.241 2.833-2.241s-2.204.544-3.457.945l.001.066c0 .851-.676 1.541-1.51 1.541-.318 0-.615-.102-.859-.274-.68.132-2.944 1.485-3.523 1.968.144.236.228.514.228.812 0 .849-.677 1.54-1.511 1.54-.25 0-.485-.061-.693-.172a6.392 6.392 0 0 0-.193.328 15.577 15.577 0 0 0-1.083 2.478c.387.267.646.766.646 1.336 0 .846-.573 1.534-1.281 1.541-.049.498-.045.846-.026.995.062.499.249.81 1.12 1.059.872.249 2.055 1.774 2.055 1.774.084 0 .706-1.12.249-2.895z" fill="#d4af3a" transform="translate(-160) scale(1.5)"/><path d="M305.74 73.506c.318-.258.374-.653.121-.879-.25-.227-.711-.2-1.029.06-.317.26-.373.655-.121.881.251.226.712.2 1.029-.062zm-5.64 3.811c.357-.326.42-.819.136-1.104-.283-.284-.803-.25-1.162.076-.358.324-.419.818-.136 1.102.283.285.803.251 1.162-.074zm-3.36 3.936a.871.856 0 1 0 0 1.712.871.856 0 1 0 0-1.712zm18.8-11.236c-.452.099-1.288.371-2.539 1.026h.023c.87 0 1.546.556 1.546 1.276 0 .721-.791 1.504-1.66 1.504-.869 0-1.461-.755-1.461-1.476 0-.169.04-.333.111-.482-.371.229-.767.482-1.189.767-2.771 1.868-3.424 2.771-4.793 5.324-1.37 2.551-1.868 5.353-1.277 7.003.592 1.649 2.771 1.992 2.802 1.992.031 0-.249-.249-.281-.559-.031-.313.063-.468.156-1.091.093-.621.031-1.368.031-1.368s.498-.063.778.28c.281.342.686.747.965 1.088.28.342 1.027.997 1.027.997s.437-.624.437-1.371c0-.746-.498-1.555-.592-2.863-.094-1.308.592-3.643 1.867-5.354 1.277-1.712 3.673-3.268 4.389-3.611.716-.341.84-.872.872-1.183.031-.311.093-.528.155-1.307.064-.778-.652-.747-1.367-.592z" fill="#d4af3a" transform="translate(-160) scale(1.5)"/><path d="M312.79 72.973c.49 0 .936-.441.936-.845 0-.405-.381-.717-.872-.717-.49 0-.888.329-.888.732 0 .403.333.83.824.83zm4.12 16.276c.668.272 1.422.119 1.777-.118.355-.238.475-.843.054-1.189-.419-.345-1.044-.333-1.432-.118-.388.216-1.261.831-1.261.831s.194.324.862.594z" fill="#d4af3a" transform="translate(-160) scale(1.5)"/><path d="M319.05 89.999c-.241.372-.419.598-1.161.63-.742.032-1.547-.016-2.031-.501-.484-.484-.822-1.164-.822-1.164l-.838-.016s-.273 1.165-.644 1.486c-.371.324-1.661.373-2.225-.048-.564-.421-1.08-.938-1.176-.873-.096.065 0 .485.58.986.58.5.982.809 1.918.809h5.318s1.08.063 1.387-.583c.306-.646.32-1.051.177-1.212-.144-.161-.241.113-.483.486z" fill="#d4af3a" transform="translate(-160) scale(1.5)"/><path d="M310.96 89.098c.798.443 1.239.173 1.529-.184.292-.356.345-.518.345-.518s-.754-.271-1.12-.487c-.367-.215-.614-.421-.98-.378-.367.044-.42.098-.42.098s-.151 1.025.646 1.469z" fill="#d4af3a" transform="translate(-160) scale(1.5)"/><path d="M307.11 79.481a1.775 1.759 0 1 0 0 3.518 1.775 1.759 0 1 0 0-3.518zm3.08-4.337c-.71-.478-1.753-.287-2.331.426-.576.715-.467 1.683.245 2.16.71.479 1.755.287 2.332-.426.576-.712.466-1.68-.246-2.16z" fill="#b96b29" transform="translate(-160) scale(1.5)"/><path d="M307.04 80.029a1.031.983 0 1 0 0 1.966 1.031.983 0 1 0 0-1.966zm2.41-4.691c-.457-.125-1.022.1-1.26.502-.238.403.014.832.623.956 1.121.229 1.655-1.179.637-1.458z" fill="#d4af3a" transform="translate(-160) scale(1.5)"/></g><path d="M263.51 319.005s-4.113 1.965-5.417 2.314c-1.303.356-1.605.356-1.605.356s-2.809 2.564-4.866 3.77c-2.16 1.272-4.639 2.194-7.122 2.469-3.211.349-12.037.249-16 .099-3.963-.15-6.418.804-8.125 2.716-1.706 1.912-2.106 4.679.05 6.792 2.157 2.113 4.563 1.057 5.367-.25.801-1.31.401-2.97.05-3.724-.35-.756.703-1.008 1.806-1.057 1.104-.05 2.96.1 4.665.352 1.706.251 4.716 1.257 6.02 1.962 1.304.705.551.806-.352.654-.903-.151-1.905-.502-3.511-1.104-1.605-.603-2.96-.906-3.962-.958-1.002-.05-.654.504-.451.855.2.352.751 1.208.901 1.611.152.403-.3 1.908-.3 1.908l.501.959s.602-.959.803-1.458c.2-.506-.051-1.46.15-1.913.201-.453 1.053-.453 1.705.303.653.753 1.406 1.66 1.755 3.568.351 1.913-.301 3.272-.301 3.272s.804.657.954 1.105c.151.455-.201 2.267-.201 2.267s.552.351 1.054-.707c.501-1.054 1.103-2.916 1.253-3.571.15-.654.601-1.86 1.404-.956.802.905 1.354 2.013 1.506 2.567.148.552.148 1.006.148 1.006s1.806-1.762 2.408-2.769c.601-1.006 1.855-2.515 3.562-3.922 1.706-1.409 4.664-4.226 6.119-5.183 1.453-.955 5.166-2.968 6.32-3.672 1.153-.703 1.354-.753 1.555-2.718.201-1.963 1.155-3.72 1.605-5.08.435-1.365.54-1.86.54-1.86zm-65.775-73.725c-.033-.334-.702-1.509-.868-2.112-.168-.601-.77-.235-.77-.235s-1.305.738-2.274 1.006c-.969.269-1.104-.099-1.205-.601-.098-.507-.334-2.081-.5-3.188-.168-1.104-.402-1.036-.803-.873-.4.17-1.605.605-2.44.975-.836.368-.569.771-.302 1.239.267.471 1.237 2.448 1.671 3.153.435.704.033 1.007-.47 1.242-.5.234-1.236.335-2.239.669-1.004.335-.936.57-.837.906.1.338.77 1.712 1.137 2.346.367.638.702.203.702.203s1.071-.971 1.972-1.409c.904-.433.97-.301 1.204.37.234.671 1.272 4.193 1.471 4.864.201.667.535.601 1.004.403.468-.201 1.102-.303 1.638-.471.535-.166.736-1.24.736-1.24s-1.972-3.554-2.508-4.461c-.535-.906 0-1.107.402-1.173.4-.066 1.57-.234 2.574-.47.99-.255.72-.825.69-1.17zm22.29 96.57c-.15-.856 0-1.713-.653-2.365-.652-.656-1.455-1.962-1.755-3.018-.3-1.058.251-1.56.15-2.165-.099-.603-.903-.603-1.704.053-.804.654-1.857 1.257-1.857 3.168 0 1.909.704 4.176 3.362 4.978 2.655.81 2.61.21 2.46-.645zm2.7-.915s-.552-.351-.802.152c-.251.502-.201.756.5 1.861.703 1.105 1.156 1.359 1.957 1.86.802.504.25-.501.15-.804-.1-.303 0-.704-.2-.957-.201-.252-.303-.553-.303-1.356 0-.795-1.305-.75-1.305-.75z" fill="#d4af3a"/><path d="M225.98 349.995c.501-.758.954-.957 2.157-1.509 1.203-.552 3.41-.855 4.161-.906.753-.051 2.459-1.509 2.207-3.021-.251-1.509-1.355-2.112-2.307-2.313-.953-.201-1.806-.201-2.106.25-.302.455-.854 1.058-1.907 1.409s-1.204.705-1.855.906c-.653.203-.152.605-.702 1.057-.552.452-1.304 0-2.157-.252-.852-.252-.903-.402-1.856-.454-.952-.05-3.46-.2-3.46-.2s-.101-.05-.651-.05c-.552 0-.603.1-.852.705-.251.602.049 2.113.652 2.867.602.753 2.558 1.106 3.861 1.51 1.305.4 1.958.553 3.062.752 1.14.195 1.29-.015 1.785-.765zm12.195 1.2c1.053-.705.45-1.912.201-2.665-.25-.756-1.706-.906-2.459-.906-.753 0-1.153 0-1.555.35-.402.351-.953.855-2.057 1.21-1.1.35-1.956.752-3.46 1.357-1.505.602-1.958 1.608-2.609 2.014-.652.401-1.905 0-1.905 0s-.904-.253-1.204 0c-.302.248 0 .752.601 1.406.603.657 1.755.605 3.059 1.008 1.305.402 1.555.099 2.058-.252.501-.351.903-1.105 1.806-1.66.903-.553 2.859-.655 3.811-.754.975-.105 2.685-.405 3.735-1.11zm0-4.575c.45.405.952.959 1.354.301.402-.652 1.053-2.011.602-2.815-.453-.804-1.002-1.51-1.002-1.51s-.753 2.314-1.104 2.919c-.33.615-.285.705.165 1.11zm-4.065-6.945c0-1.31-.903-2.919-.903-2.919s-.301 1.208-.852 2.265c-.552 1.054-1.104 1.61-1.104 1.61s1.305.35 1.806.35c.501 0 1.065.015 1.065-1.29zm-7.515 2.775c1.404-.301 2.157-.855 2.759-1.357.601-.503.954-1.863.552-2.565-.401-.708-1.404-1.46-1.805-1.46h-.753s-.402 1.308-.952 1.962c-.552.656-1.203 1.106-1.154 1.962.045.84-.06 1.74 1.35 1.44zm2.85-6.39a2.392 2.392 0 0 0-.652-1.81c-.452-.453-.754-.753-.754-.753s-.1 1.005-.199 1.558c-.1.553-.15.654-.15.654s.402.405.753.555c.345.135.945.45.99-.21zm-17.34-35.685l.948-5.928c-.712-5.926-3.795-11.537-6.243-15.411-2.451-3.872-4.98-9.957-6.087-13.198-1.105-3.242-1.848-7.679-1.848-10.001 0-2.325.992-3.52.992-3.52s.43-.63.033-1.03c-.398-.397-1.025-.031-1.655.597-.63.629-1.29 1.792-1.555 2.621-.266.833-.266 1.13-.266 1.13s-1.257-.297-3.276-.131c-2.019.164-2.978.332-3.045.762-.066.432.265.765 1.72 1.395 1.457.63 2.384.895 3.111 1.76.73.862 2.591 5.197 3.16 7.29.568 2.093 1.784 7.77 2.278 12.224.493 4.455 1.996 9.852 4.098 14.36.69 1.485 4.455 8.505 7.635 7.095zm3.675 10.44c-1.372.766-1.321 6.375-.712 9.282.61 2.909 3.457 6.53 4.321 7.498.865.97 1.068.97 1.527.714.459-.253.66-.253.66-.253s1.221-.408 2.138-1.122c.913-.716.557-2.5.404-4.082-.153-1.584-1.372-4.746-3.609-8.415-2.22-3.675-3.345-4.395-4.71-3.63zm1.515-4.545c0-1.83-1.587-3.213-3.411-3.213-.862 0-1.623.217-2.094.642-1.851 1.67-.735 5.836 1.94 5.836.969 0 2.101-.162 2.802-.832.63-.585.765-1.56.765-2.43zm26.52 52.71c-.73-.129-1.161-.427-2.238-1.16-1.076-.73-2.798-2.237-3.099-2.97-.303-.732-.303-.775-1.335-.429-1.034.344-2.498.3-3.615.344-1.119.044.127 1.29.903 2.456.775 1.16.516 5.077.516 5.077s0 .345-.173.906c-.172.558-.042.947.258 1.075.302.13.473-.129 1.248-1.035.776-.903 2.196-3.268 2.196-3.268s.216.04 1.421.343c1.204.303 3.142.13 4.132-.172 1.02-.3.54-1.035-.195-1.17z" fill="#d4af3a"/><path d="M239.21 362.01c-.516-.087-.73-.13-.99.211-.257.347-.473.995-.602 1.337-.129.345-.087.648.216.906.302.26.732.56.732.56s.431.474.863.687c.43.217.515-.428.515-.903 0-.473.258-1.335.258-1.895s-.45-.825-.975-.9z" fill="#d4af3a"/><path d="M434.93 324.165c-1.258-.298-1.792-.777-1.792-.777s-.539-.06-.962.719c-.414.775-2.031 1.792-2.031 1.792s-2.272.6-2.572 2.157c-.299 1.554.778 2.093 1.854 1.913 1.08-.18 3.71-.719 4.843-2.093 1.137-1.377 1.317-2.155 1.556-2.695.21-.525.345-.705-.915-1.005zm3.525-12.39c-.817-3.459-3.051-7.732-7.357-9.873 0 0-1.616 5.685-2.094 7.48-.48 1.793-.48 1.734.897 2.094 1.374.357 5.8 1.314 6.699 1.554.898.24 2.4 1.005 1.86-1.275zm-20.52-3.225c1.016.18.897-.24 1.256-1.616.358-1.374 2.152-8.194 2.152-8.194s-4.543-.18-8.493 1.732c-3.95 1.914-5.684 5.444-5.684 5.444s1.019.418 3.712 1.018c2.7.585 6.045 1.425 7.065 1.605zm-10.53 9.39c-1.612-.298-2.213-.479-2.213-.479s1.017 3.887 2.693 6.042c1.674 2.154 3.53 3.233 6.999 3.291 3.47.06 6.1-1.854 6.52-3.349.419-1.497 1.138-2.631 1.138-2.631s-6.282-.842-8.855-1.439c-2.61-.6-4.695-1.14-6.315-1.44z" fill="#1d5e91"/><path d="M406.325 315.48c1.557.358 14.358 2.811 15.435 3.051 1.079.237 1.974.477 2.274.177.302-.297.479-.477 1.616-.898 1.137-.416 1.078-1.554 1.078-1.554s.299-1.079.416-2.154c.121-1.076.72-1.436 1.975-.119 1.257 1.314 1.496 3.228 1.734 5.085.24 1.854 3.173 2.333 4.307 2.513 1.138.18 1.674-.18 2.334-1.256.658-1.077 1.018-3.231 1.197-4.608.178-1.374.061-1.255-1.376-1.614-1.435-.357-8.076-1.852-9.274-2.155-1.194-.299-.956-1.076-.777-1.913.178-.837 2.81-9.274 2.81-9.274-1.873-1.158-4.505-1.848-7.655-2.213 0 0-1.914 8.613-2.276 9.932-.357 1.314-1.197 1.314-2.571 1.074-1.377-.237-11.308-2.568-11.308-2.568l-.776 1.85c-.778 1.855-1.137 4.07-1.137 5.206 0 1.135.405 1.11 1.95 1.455z" fill="#d4af3a"/><path d="M440.3 323.265c-1.32-.862-2.29-1.09-2.978.516-.688 1.607-.744 3.96-2.463 5.622-1.719 1.663-4.125 3.384-6.53 3.213-2.405-.172-3.78-.747-3.209-3.5.574-2.752 4.24-3.613 5.098-5.047.858-1.434.63-3.098-.631-4.186-1.26-1.092-3.093-1.32-3.608-.975-.514.343-2.005 1.606-2.748 3.668-.745 2.066-1.203 3.73-2.808 5.05-1.6 1.318-5.725 2.638-8.932 1.891-3.207-.746-4.352-1.72-5.556-4.875-1.203-3.155-2.634-8.373-3.266-8.948-.628-.573-1.43-1.032-2.805-.058-1.375.973-1.489 2.409-1.66 3.558-.173 1.146 0 2.469 1.372 4.131 1.376 1.662 2.808 3.325 3.324 5.044.516 1.721 2.061 4.361-.115 4.475-2.175.114-3.149.171-4.81-1.433-1.661-1.606-8.135-6.024-9.908-7.459-1.776-1.434-2.52-1.892-2.52-1.892-2.996-.052-5.996-1.284-8.991-3.325 0 0 1.719 4.414 2.061 6.078.343 1.663.286 2.58.286 2.58s6.528 3.327 9.107 4.59c2.577 1.261 7.788 4.245 10.306 5.791 2.523 1.551 4.641 3.96 9.108 3.042 4.469-.918 13.515-3.67 16.436-4.531 2.922-.861 10.998-2.868 13.975-4.932 2.978-2.064 3.266-1.95 3.779-4.016.51-2.025 0-3.165-1.32-4.035zm-17.235-30.885c.496-.066.696-.134 2.218-.332 1.526-.2.96 1.26.695 1.824-.264.563-.728 1.691-1.355 2.751-.633 1.065.197 1.23.627 1.395.431.168 1.06.233 2.285.566 1.227.33.993-.566 1.027-1.029.033-.467.098-2.888.233-3.749.132-.86.925-.63 1.224-.465.298.165 1.059.594 1.69.926.627.336.926-.032 1.06-.396.133-.364.428-1.028.695-1.99.266-.962-.331-.764-.93-.764-.594 0-1.456 0-2.449-.032-.993-.033-.364-.996-.364-.996s.728-1.192 1.291-2.089c.564-.895.366-1.028-.2-1.196-.56-.166-2.317-.563-2.814-.695-.496-.131-.727-.066-.727.267s-.068 2.055-.068 2.719c0 .661-.064 1.06-.927 1.093-.86.032-1.392-.468-2.086-1.228-.696-.76-.993-.464-1.06-.164-.067.299-.63 2.487-.763 3.084-.165.585.165.555.66.48zm4.8 21.735s-.061 1.736-.24 2.333c-.18.6-.597 1.497.12 1.735.718.24 1.376.537 1.791.419.422-.119.24-.957 0-1.674-.237-.719-.596-1.617-1.135-2.214l-.525-.585zm10.53 6.93c.24.537.718.657 1.079.778.358.119.838.119.838-.538s.118-1.496-.417-2.214c-.538-.718-.825-1.242-1.137-.18-.315 1.08-.6 1.635-.36 2.16zm-36.675-6.99c.298.06 1.435.419 1.435.419s0-1.676.239-2.813c.238-1.134.718-1.912.3-1.912-.419 0-.657.358-.96.836-.297.477-1.137.599-1.434 1.974-.3 1.365.12 1.425.42 1.485z" fill="#d4af3a"/><path d="M408.905 308.841a2.334 2.334 0 1 0 0 4.668 2.334 2.334 0 1 0 0-4.668zm6.57 1.562a2.393 2.393 0 1 0 0 4.785 2.393 2.393 0 1 0 0-4.785zm19.155 4.063a2.394 2.394 0 1 0 0 4.788 2.394 2.394 0 1 0 0-4.788zm-12.57-2.505a2.394 2.394 0 1 0 0 4.788 2.394 2.394 0 1 0 0-4.788zm1.74-5.745a2.394 2.394 0 1 0 0 4.788 2.394 2.394 0 1 0 0-4.788zm1.68-5.745a2.394 2.394 0 1 0 0 4.788 2.394 2.394 0 1 0 0-4.788z" fill="#b96b29"/><path d="M409.07 309.785a1.165 1.165 0 1 0 0 2.33 1.165 1.165 0 1 0 0-2.33zm6.585 1.573a1.197 1.197 0 1 0 0 2.394 1.197 1.197 0 1 0 0-2.394zm19.155 4.067a1.196 1.196 0 1 0 0 2.39 1.196 1.196 0 1 0 0-2.39zm-12.57-2.505a1.196 1.196 0 1 0 0 2.39 1.196 1.196 0 1 0 0-2.39zm1.74-5.745a1.196 1.196 0 1 0 0 2.39 1.196 1.196 0 1 0 0-2.39zm1.68-5.747a1.197 1.197 0 1 0 0 2.394 1.197 1.197 0 1 0 0-2.394z" fill="#d4af3a"/><use height="320" transform="matrix(-1 0 0 1 639.94848 0)" width="640" xlink:href="#flag-me-a"/></svg>