<svg xmlns="http://www.w3.org/2000/svg" xmlns:xlink="http://www.w3.org/1999/xlink" viewBox="0 0 640 480" height="16" width="22"><defs><linearGradient gradientUnits="userSpaceOnUse" id="flag-ni-e" x1="498.738" x2="500.626" y1="289.055" y2="283.42"><stop offset="0" stop-color="#510000"/><stop offset=".3" stop-color="#8a0000"/><stop offset="1" stop-color="#a00"/></linearGradient><linearGradient gradientUnits="userSpaceOnUse" id="flag-ni-f" x1="501.444" x2="502.927" y1="291.373" y2="287.449"><stop offset="0" stop-color="#ff2a2a"/><stop offset="1" stop-color="red"/></linearGradient><linearGradient gradientUnits="userSpaceOnUse" id="flag-ni-j" x1="484.764" x2="484.764" y1="311.709" y2="317.647"><stop offset="0" stop-color="#F5F549"/><stop offset="1" stop-color="#97C924"/></linearGradient><linearGradient id="flag-ni-a"><stop offset="0" stop-color="#025"/><stop offset=".5" stop-color="#04a"/><stop offset="1" stop-color="#025"/></linearGradient><linearGradient gradientUnits="userSpaceOnUse" id="flag-ni-g" x1="444.509" x2="634.411" y1="317.486" y2="317.486" xlink:href="#flag-ni-a"/><linearGradient gradientUnits="userSpaceOnUse" id="flag-ni-1009" x1="444.509" x2="634.411" y1="317.486" y2="317.486" xlink:href="#flag-ni-a"/><linearGradient gradientUnits="userSpaceOnUse" id="flag-ni-1011" x1="444.509" x2="634.411" y1="317.486" y2="317.486" xlink:href="#flag-ni-a"/><linearGradient gradientUnits="userSpaceOnUse" id="flag-ni-1013" x1="444.509" x2="634.411" y1="317.486" y2="317.486" xlink:href="#flag-ni-a"/><linearGradient gradientUnits="userSpaceOnUse" id="flag-ni-1017" x1="484.764" x2="484.764" y1="311.709" y2="317.647" xlink:href="#flag-ni-j"/><linearGradient gradientTransform="scale(4.45714 .22436)" gradientUnits="userSpaceOnUse" id="flag-ni-1021" x1="98.901" x2="124.971" y1="1440.152" y2="1440.152" xlink:href="#flag-ni-a"/><linearGradient gradientUnits="userSpaceOnUse" id="flag-ni-1061" x1="444.509" x2="634.411" y1="317.486" y2="317.486" xlink:href="#flag-ni-a"/><linearGradient gradientUnits="userSpaceOnUse" id="flag-ni-1063" x1="444.509" x2="634.411" y1="317.486" y2="317.486" xlink:href="#flag-ni-a"/><linearGradient gradientUnits="userSpaceOnUse" id="flag-ni-1065" x1="444.509" x2="634.411" y1="317.486" y2="317.486" xlink:href="#flag-ni-a"/><linearGradient gradientUnits="userSpaceOnUse" id="flag-ni-1067" x1="444.509" x2="634.411" y1="317.486" y2="317.486" xlink:href="#flag-ni-a"/><linearGradient gradientUnits="userSpaceOnUse" id="flag-ni-1069" x1="484.764" x2="484.764" y1="311.709" y2="317.647" xlink:href="#flag-ni-j"/><linearGradient gradientUnits="userSpaceOnUse" id="flag-ni-1071" x1="484.764" x2="484.764" y1="311.709" y2="317.647" xlink:href="#flag-ni-j"/><linearGradient gradientTransform="scale(9.12488 .10959)" gradientUnits="userSpaceOnUse" id="flag-ni-1073" x1="47.851" x2="61.739" y1="3054.491" y2="3054.491" xlink:href="#flag-ni-a"/><clipPath id="flag-ni-b"><path d="M500 226.375l-63.702 110.332H563.7z"/></clipPath></defs><path d="M0 0v480h640V0z" fill="#0067c6"/><path d="M0 160v160h640V160z" fill="#f5f5f5"/><path d="M248 239.463l7.983.534c.027-.389.051-.778.079-1.167l-3.14-.21c.079-1.282.186-2.563.243-3.847 1.11-.803 2.222-1.605 3.329-2.414l.099-1.478-3.51 2.549c-.119-.83-.578-1.686-1.413-1.975-.73-.264-1.625-.31-2.258.212-.802.59-.947 1.647-1.051 2.566-.14 1.741-.238 3.488-.361 5.23zm1.216-1.09c.096-1.31.155-2.623.28-3.93.1-.647.218-1.394.784-1.806.512-.34 1.267-.087 1.477.491.417 1 .232 2.098.178 3.144l-.152 2.273-2.568-.171zm-.177-11.168l7.79 1.819 1.771-7.582-1.106-.26-1.507 6.45-2.371-.553 1.357-5.813-1.102-.256-1.357 5.812-2.098-.49 1.45-6.208-1.112-.26zm2.807-10.462l7.556 2.628.384-1.104-2.972-1.033c.388-1.144.812-2.274 1.17-3.428.255-.941.453-2.041-.102-2.917-.45-.647-1.25-1.062-2.04-1.037-.87.037-1.58.678-1.966 1.42-.571 1.074-.89 2.254-1.307 3.392zm1.46-.73c.404-1.133.77-2.281 1.208-3.403.272-.599.604-1.31 1.293-1.5.567-.13 1.161.306 1.21.887.139 1.069-.328 2.077-.656 3.07l-.624 1.792zm2.713-8.947c1.424.827 2.838 1.675 4.27 2.486.809.434 1.833.683 2.678.197 1.152-.639 1.875-1.817 2.44-2.967.447-.968.77-2.17.202-3.16-.612-.988-1.725-1.442-2.675-2.032l-2.765-1.617-.587 1c1.355.798 2.72 1.58 4.068 2.39.646.392 1.18 1.103 1.07 1.894-.129.942-.667 1.77-1.203 2.531-.443.616-1.187 1.115-1.976.948-.823-.157-1.492-.696-2.215-1.085l-2.72-1.592zm5.763-9.416l6.353 4.861c.986-1.288 1.968-2.578 2.961-3.859.57-.818 1.094-1.88.709-2.883-.351-.799-1.173-1.416-2.055-1.456-.397-.056-.916.245-1.13.378.226-.853-.473-1.654-1.258-1.88-.946-.336-1.904.27-2.53.943-.737.8-1.351 1.703-2.025 2.556zm1.61-.239c.745-.952 1.449-1.937 2.227-2.86.363-.404.944-.86 1.506-.565.512.222.638.868.393 1.333-.388.832-1.028 1.507-1.563 2.244l-.872 1.141zm2.59 1.981c.772-.986 1.498-2.01 2.312-2.962.416-.436.938-.984 1.597-.858.564.13.974.74.78 1.309-.318 1.047-1.101 1.849-1.733 2.717l-.992 1.297zm3-10.228l5.493 5.815 4.707-4.446-.78-.827-3.765 3.557-.096.091-.07-.073-4.644-4.915zm7.043-6.162l4.876 6.342.952-.732-4.877-6.342zm7.165-4.866c-.79.492-1.427 1.068-1.919 1.74-.488.67-.752 1.369-.79 2.098-.038.73.156 1.436.586 2.126a4.116 4.116 0 0 0 1.58 1.475c.656.351 1.365.481 2.141.395.772-.087 1.644-.428 2.616-1.034.932-.58 1.592-1.25 2-2.02.39-.738.5-1.522.333-2.358l-1.106.435c.29 1.598-.742 2.366-1.896 3.099-1.808 1.1-3.568 1.02-4.647-.632-1.118-1.862.104-3.4 1.641-4.4 1.091-.68 2.166-1.146 3.19-.494l.866-.772c-.596-.41-1.274-.601-2.044-.56-.81.045-1.655.344-2.55.902zm9.453-4.718l-.837 8.965 1.245-.502.252-2.78h.005l4.047-1.632 2.11 1.827 1.245-.501-6.82-5.877-1.247.502zm1.095.92l2.66 2.301-2.979 1.202.32-3.504zm16.44-5.865l.5 7.984c1.443-.097 2.89-.165 4.33-.284 1.135-.13 2.351-.425 3.127-1.328 1-1.11 1.143-2.769.704-4.15-.368-1.217-1.46-2.137-2.7-2.371-1.22-.234-2.463-.049-3.69.006zm1.232 1.061c1.15-.06 2.296-.172 3.447-.179a2.94 2.94 0 0 1 1.83.561c.8.547 1.27 1.533 1.166 2.5-.058 1.112-.875 2.135-1.956 2.416-.618.16-1.26.206-1.894.275l-2.236.14-.358-5.712zm9.92-1.534l-.456 7.987 7.774.444.064-1.134c-2.204-.127-4.408-.253-6.613-.378l.14-2.432 5.958.341.064-1.129c-1.985-.113-3.972-.228-5.959-.34l.123-2.152c2.122.12 4.244.243 6.365.363l.066-1.14zm20.888 3.333l-2.893 7.458 1.03.4 2.293-5.914.119-.307.128.341 2.758 7.935 1.348.522 2.892-7.458-1.032-.4-2.292 5.91-.116.302-.127-.337-2.763-7.93zm10.747 4.617l-3.636 7.125-1.07-.545 3.638-7.126zm6.035 3.535c-.777-.512-1.567-.852-2.383-1.017-.812-.166-1.557-.114-2.236.156-.679.27-1.24.74-1.688 1.42a4.116 4.116 0 0 0-.68 2.052c-.045.742.132 1.44.535 2.11.4.665 1.075 1.316 2.03 1.945.917.606 1.8.927 2.67.976a3.446 3.446 0 0 0 2.281-.681l-.856-.824c-1.332.93-2.46.313-3.608-.43-1.752-1.185-2.415-2.818-1.364-4.487 1.226-1.794 3.134-1.324 4.684-.344 1.074.708 1.945 1.49 1.78 2.693l1.063.464c.125-.713.016-1.408-.345-2.09-.378-.718-1-1.362-1.883-1.943zm7.617 5.745l-8.364 3.336 1.016.88 2.588-1.04 3.296 2.86-.667 2.71 1.015.88 2.126-8.749-1.014-.88zm-.32 1.393l-.839 3.416-2.425-2.105zm6.362 4.166l-6.173 5.09.743.902 2.428-2c.823.988 1.624 1.994 2.464 2.966-.257 1.346-.515 2.693-.765 4.04l.942 1.144.805-4.264c.691.566 1.702.85 2.528.402.71-.336 1.336-.982 1.373-1.805.086-1.103-.7-2-1.33-2.815l-3.015-3.657zm-.136 1.627c.864 1.067 1.771 2.1 2.597 3.198.38.567.854 1.362.418 2.023-.36.565-1.148.516-1.632.15-.979-.66-1.626-1.67-2.391-2.548l-.978-1.186zm9.494 11.105l-8.994.412.67 1.165 2.788-.136 2.176 3.782-1.517 2.342.67 1.164 4.875-7.57zm-.758 1.211l-1.912 2.953-1.602-2.784 3.514-.168zm5.891 9.378c-.5-1.357-1.289-2.747-2.624-3.425-1.485-.747-3.462-.384-4.515.924-.918 1.088-.965 2.625-.72 3.961.29 1.535.994 3 2.05 4.15l-.597.214.383 1.064 3.747-1.346-1.457-4.047-.866.312 1.072 2.982-1.27.456c-1.12-.962-1.744-2.384-2.068-3.798-.241-1.062-.25-2.334.554-3.168.924-.962 2.562-1.26 3.67-.44 1.093.8 1.71 2.097 2.023 3.386.213.848.178 1.856-.465 2.518-.18.134.105.322.154.484l.305.505a2.823 2.823 0 0 0 1.075-2.237c.023-.851-.164-1.696-.45-2.495zm2.298 6.248l-4.475.87c-.83.162-1.452.424-1.867.774-.414.35-.68.842-.807 1.497-.126.648-.109 1.443.078 2.408a.197.197 0 0 1 0 .023c.19.966.47 1.708.83 2.262.365.56.795.917 1.31 1.085.516.169 1.192.18 2.022.018l4.474-.87-.222-1.142-4.366.85c-1.96.38-2.62-.65-2.957-2.415v-.023c-.35-1.761-.124-2.965 1.836-3.347l4.366-.849zm2.454 13.616l-8.278-3.54.097 1.34 2.57 1.09v.005l.314 4.352-2.384 1.449.096 1.34 7.682-4.696zm-1.21.76l-3.005 1.828-.232-3.203 3.238 1.376zm-136.491 19.934l-1.161.306 1.283 4.873 1.16-.305zm131.624 0l1.16.306-1.282 4.873-1.16-.305zm-119.252 20.523l-8.944 1.029.748 1.116 2.77-.327v.005l2.431 3.624-1.353 2.44.748 1.116 4.344-7.887zm-.674 1.261l-1.704 3.077-1.79-2.667zm4.098 3.626l-5.702 5.332.762.815 4.804-4.494-2.52 6.936.872.934 6.89-2.091-4.718 4.412.76.814 5.702-5.331-1.156-1.237-7 2.091 2.62-6.775zm8.304 8.473l-4.812 6.39 6.22 4.685.684-.908-5.292-3.984 1.465-1.946 4.768 3.59.681-.903-4.768-3.59 1.296-1.722 5.093 3.835.688-.912zm7.828 5.729l-3.768 7.058 1.03.55 1.482-2.775c1.136.599 2.26 1.224 3.408 1.803.276 1.342.55 2.686.832 4.027l1.307.698-.88-4.248c.855.26 1.897.137 2.49-.592.504-.564.847-1.355.605-2.112-.28-1.043-1.307-1.588-2.174-2.094-1.442-.775-2.89-1.542-4.332-2.315zm.493 1.556c1.206.658 2.439 1.268 3.62 1.968.547.37 1.243.876 1.174 1.622-.061.654-.767 1-1.363.864-1.168-.193-2.152-.89-3.192-1.408l-1.45-.776zm8.543 3.169l-3.024 7.407 1.112.453 3.023-7.407zm7.214 2.492c-.884-.294-1.734-.416-2.565-.364-.827.052-1.533.295-2.119.732-.586.437-1.005 1.037-1.26 1.809a4.116 4.116 0 0 0-.126 2.159c.15.728.502 1.357 1.064 1.898.56.539 1.38.992 2.466 1.352 1.043.346 1.98.427 2.832.248a3.446 3.446 0 0 0 2.027-1.25l-1.04-.574c-1.045 1.245-2.295.943-3.597.522-2-.688-3.064-2.093-2.482-3.979.718-2.05 2.682-2.092 4.434-1.548 1.22.405 2.265.935 2.418 2.139l1.146.173c-.064-.722-.35-1.364-.875-1.93-.552-.594-1.32-1.054-2.323-1.387zm8.043 1.8l-5.232 7.329 1.33.192 1.615-2.276h.006l4.318.625.904 2.64 1.33.192-2.941-8.51zm.484 1.345l1.141 3.328-3.178-.46 2.037-2.868zm18.269-1.288c-.914.176-1.715.486-2.414.938-.696.45-1.194 1.008-1.49 1.675-.297.667-.369 1.397-.214 2.195a4.116 4.116 0 0 0 .947 1.944c.487.563 1.101.938 1.857 1.135.752.196 1.688.189 2.812-.028 1.079-.208 1.935-.596 2.59-1.169a3.446 3.446 0 0 0 1.157-2.082l-1.188.008c-.303 1.597-1.54 1.944-2.881 2.216-2.08.378-3.696-.327-4.112-2.256-.378-2.139 1.315-3.137 3.109-3.52 1.262-.244 2.433-.293 3.155.682l1.085-.41a3.187 3.187 0 0 0-1.708-1.255c-.772-.248-1.668-.273-2.705-.073zm5.342-.946l2.276 7.67 7.464-2.216-.323-1.09-6.35 1.885-.692-2.335 5.722-1.697-.321-1.084-5.723 1.697-.613-2.065 6.112-1.814-.325-1.096zm8.655-2.72l3.358 7.26 1-.463-2.8-6.055c2.59 1.174 5.163 2.384 7.746 3.57.172.15.344.05.517-.042l1.007-.465-3.358-7.261-1 .464 2.797 6.048c-2.659-1.206-5.304-2.443-7.956-3.662zm8.785-4.126l.626.952 2.858-1.88.108-.072.054.082 3.718 5.648.97-.64-3.717-5.647-.053-.083.11-.072 2.872-1.89-.627-.952zm8.05-5.512l5.42 5.884.86-.792-2.132-2.314c.94-.876 1.9-1.73 2.826-2.623 1.358.182 2.716.365 4.076.542l1.09-1-4.302-.57c.528-.721.756-1.746.263-2.546-.375-.69-1.055-1.28-1.879-1.272-1.105-.025-1.955.81-2.737 1.483-1.162 1.07-2.324 2.143-3.486 3.212zm1.631.046c1.019-.92 2-1.884 3.051-2.768.544-.411 1.312-.928 2-.53.584.328.579 1.119.239 1.621-.605 1.016-1.58 1.718-2.415 2.53l-1.128 1.04zm7.675-9.362l3.579 8.262.851-1.04-1.117-2.558 2.763-3.376 2.728.587.851-1.04-8.808-1.87-.85 1.04zm1.402.28l3.44.738-2.034 2.486zm2.082-4.812l6.712 4.352 3.523-5.432-.954-.617-2.817 4.345-.072.112-.085-.056-5.674-3.679z" fill="#c8a400"/><g clip-path="url(#flag-ni-b)" transform="matrix(.8 0 0 .8 -80 0)"><path d="M500 226.408l-31.479 54.535-15.42 26.702H546.9l-14.714-25.484-32.184-55.753z" fill="#fff"/><g id="flag-ni-d"><g id="flag-ni-c"><path d="M500 226.408l-2.357 4.082L500 285.467l2.357-54.977z" fill="#17c0eb" opacity=".62" stroke="#17c0eb" stroke-width=".129"/><path d="M500 277.475h-.134l.134 3.111.134-3.11z" fill="#fff"/></g><use transform="rotate(72 500 285.467)" xlink:href="#flag-ni-c"/><use transform="rotate(144 500 285.467)" xlink:href="#flag-ni-c"/><use transform="rotate(-144 500 285.467)" xlink:href="#flag-ni-c"/><use transform="rotate(-72 500 285.467)" xlink:href="#flag-ni-c"/></g><use transform="rotate(8 500 285.467)" xlink:href="#flag-ni-d"/><use transform="rotate(16 500 285.467)" xlink:href="#flag-ni-d"/><use transform="rotate(24 500 285.467)" xlink:href="#flag-ni-d"/><use transform="rotate(32 500 285.467)" xlink:href="#flag-ni-d"/><use transform="rotate(40 500 285.467)" xlink:href="#flag-ni-d"/><use transform="rotate(48 500 285.467)" xlink:href="#flag-ni-d"/><use transform="rotate(56 500 285.467)" xlink:href="#flag-ni-d"/><use transform="rotate(64 500 285.467)" xlink:href="#flag-ni-d"/><path d="M500 265.844a44.236 44.236 0 0 0-28.969 10.75L456.375 302a44.728 44.728 0 0 0-.75 8.25h5.031c0-21.726 17.618-39.344 39.344-39.344 21.727 0 39.344 17.618 39.344 39.344h5.031c0-2.813-.25-5.582-.75-8.25l-14.656-25.406A44.249 44.249 0 0 0 500 265.844z" fill="red"/><path d="M500 266.656c-11.764 0-22.44 4.675-30.281 12.25l-12.031 20.844a43.596 43.596 0 0 0-1.281 10.5h4.25c0-21.726 17.617-39.344 39.343-39.344 21.727 0 39.344 17.618 39.344 39.344h4.25c0-3.625-.447-7.164-1.281-10.531l-12.031-20.813c-7.841-7.574-18.518-12.25-30.282-12.25z" fill="#f60"/><path d="M500 267.469c-12.702 0-24.1 5.522-31.938 14.313l-8.718 15.093a42.733 42.733 0 0 0-2.125 13.375h3.437c0-21.726 17.618-39.344 39.344-39.344 21.726 0 39.344 17.618 39.344 39.344h3.437c0-4.673-.74-9.165-2.125-13.375l-8.719-15.095c-7.836-8.788-19.237-14.312-31.938-14.312z" fill="#ff0"/><path d="M500 268.25c-14.55 0-27.372 7.414-34.906 18.656l-2.813 4.875a41.818 41.818 0 0 0-4.282 18.47h2.657c0-21.727 17.617-39.345 39.343-39.345 21.727 0 39.344 17.618 39.344 39.344H542a41.824 41.824 0 0 0-4.28-18.437l-2.845-4.937c-7.536-11.227-20.337-18.625-34.875-18.625z" fill="#0f0"/><path d="M500 269.062c-22.747 0-41.188 18.44-41.188 41.188h1.844c0-21.727 17.618-39.344 39.344-39.344 21.726 0 39.344 17.617 39.344 39.344h1.844c0-22.748-18.44-41.188-41.188-41.188z" fill="#0cf"/><path d="M500 269.844c-22.306 0-40.375 18.1-40.375 40.406h1.344c0-21.56 17.472-39.031 39.031-39.031 21.559 0 39.031 17.472 39.031 39.031h1.375c0-22.306-18.1-40.406-40.406-40.406z" fill="#00f"/><path d="M500 270.657c-21.864 0-39.589 17.725-39.589 39.589 0 .245 0 .49.007.733h.801a35.827 35.827 0 0 1-.007-.733c0-21.422 17.366-38.788 38.788-38.788 21.422 0 38.788 17.366 38.788 38.788 0 .245 0 .49-.007.733h.797c0-.243.007-.488.007-.733 0-21.864-17.72-39.589-39.585-39.589z" fill="purple"/><path d="M500.395 288.134c-.644-.124-1.226-.484-1.775-.61-.756.725-.835 1.457-.731 2.08.262.14.31.353.878.86.568.507.496.773.462 1.965-.015.503.07 1.581.579 1.682.548.11.932-.346 1.09-1.16.152-.79.417-1.216.698-1.702.306-1.852-.193-2.508-1.201-3.115z" fill="#510000"/><path d="M497.168 283.524c-.595.015-1.528 1.012-1.943.475-.239-.308-.279-.902-.037-1.4.559-1.151 1.124-1.716 2.167-2.33 2.378-1.401 3.89-.95 5.074 1.063 1.098 1.772 2.152 3.73 2.246 5.371.03.501.283 1.408-.156 1.86-1.348 1.39-4.596-1.435-6.497-.988-.64.15-1.377.617-1.98.218-.47-.31-.078-1 .272-1.294.612-.52 1.501-2.365 1.38-3.165-.067-.446-.08.179-.526.19z" fill="red"/><path d="M496.927 282.548c-1.083.445-.966 1.076-1.51 1.59.154.058.766.31 1.364-.301.258-.214.548-.293.677-.362-.305.221-.523.554-.684.684-.404.329-1.034 1.083-1.34 1.846-.307.764-.43 1.673-.376 1.782.056.11.426.78 1.566 1.232 2.03.807 2.417 2.439 4.477 2.439 1.614 0 1.355-1.056 2.646-.832 1.12.194 1.714-.696.636-1.232-1.371-.468-4.092-.192-5.372.033-.414-4.083-.056-2.65-.152-4.405-.097-1.755-.623-1.86.072-3.281-.578.872-1.277.734-2 .807z" fill="url(#flag-ni-e)"/><path d="M500.938 279.795c-.04.223-.077.516-.056.6.087.339.175.693.278.994.115.336.162.58.24.928.082.36.401.5.694.722.37.28.084 1.037.315 1.069.184.025.488-1.072.49-1.247a3.8 3.8 0 0 0-.037-.647 15.3 15.3 0 0 0-.426-.872s-.007-.006-.009-.01a3.652 3.652 0 0 0-.194-.327 4.204 4.204 0 0 0-.786-.863l-.056-.047c-.084-.064-.17-.13-.259-.187-.062-.04-.129-.076-.194-.113z" fill="#ff2a2a"/><path d="M501.249 287.398c-.718-.188-1.426-.543-2.037-.725-1.2-.359-2.48-1.134-3.366-.814-.317.14-.289.456-.39.91-.042.533-.596 1.32-.136 1.062.685-.383 2.49.733 3.095 1.106.287.177.892.524 1.082 1.022.19.498.092 1.756.041 2.296-.053.566.119 1.835.686 1.987.611.163 1.078-.323 1.316-1.23.23-.881.405-1.387.757-1.915s.756-.756 1.32-.863c.564-.106 1.382.462 1.382-.203 0-.437-.384-.855-.22-1.454.128-.472-.402-.378-.842-.572-1.036-.319-1.97-.42-2.688-.607z" fill="url(#flag-ni-f)"/><path d="M498.363 288.902c-.327-.178-2.315-1.478-3.043-1.071-.23.128-.317-.016-.32-.257 0-.241.109-.594.184-.866.074-.273.195-.792.516-1.062.687-.58 2.269.575 3.108.886-.072.436-.47 2.356-.445 2.37z" fill="#910000"/><path d="M501.763 291.361c.916-1.603 1.508-1.397 2.613-1.374.369.008.477-.329.393-.667-.278.624-1.662-.07-2.415.263-1.573.692-1.28 3.77-2.027 4.07.776.651 1.124-1.746 1.436-2.292z" fill="#ff3a3a"/><g fill="url(#flag-ni-g)"><path d="M453.103 307.645l-9.955 17.237h113.708l-9.956-17.237z" fill="#fff"/><g fill="url(#flag-ni-1067)" id="flag-ni-i"><path d="M449.705 321.364c-1.658 0-3.197.167-4.71.353l-.486.846c2.433-.216 4.697-.649 7.14-.709 3.293.08 6.283.83 9.786.83 1.518.014 3.027-.03 4.526 0 3.5 0 6.489-.75 9.783-.83 3.295.08 6.304.83 9.803.83 1.518 0 3.178-.024 4.53 0 3.5 0 6.474-.75 9.765-.83 3.293.08 6.27.83 9.769.83 1.53.014 3.033-.03 4.543 0 3.5 0 6.49-.75 9.787-.83 3.296.08 6.28.83 9.782.83 1.516.014 3.031-.03 4.53 0 3.499 0 6.475-.75 9.765-.83 2.55.062 4.92.518 7.486.724l-.515-.893c-1.403-.168-2.835-.321-4.368-.321-1.529-.02-3.036.03-4.547 0-3.5 0-6.474.748-9.765.829-3.296-.08-6.283-.829-9.786-.829-1.513-.02-3.03.031-4.526 0-3.5 0-6.493.749-9.786.829-3.294-.08-6.284-.829-9.783-.829-1.522-.02-3.042.03-4.547 0-3.5 0-6.476.749-9.765.829-3.294-.08-6.27-.829-9.769-.829-1.522-.021-3.026.031-4.526 0-3.502 0-6.49.749-9.786.829-3.294-.08-6.283-.829-9.783-.829-1.52-.02-3.043.031-4.547 0z" fill="url(#flag-ni-1061)" id="flag-ni-h"/><use fill="url(#flag-ni-1063)" y="-1.113" xlink:href="#flag-ni-h"/><use fill="url(#flag-ni-1065)" y="-2.23" xlink:href="#flag-ni-h"/></g><use fill="url(#flag-ni-1009)" y="-3.344" xlink:href="#flag-ni-i"/><use fill="url(#flag-ni-1011)" y="-6.691" xlink:href="#flag-ni-i"/><path d="M453.23 307.458l-.123.215h93.79l-.124-.215zm-.219.377l-.127.22h94.235l-.127-.22h-93.98zm-.2.346l-.205.356h94.792l-.205-.356H452.81zm-.318.55l-.25.434h95.518l-.25-.433h-95.018zm-.399.692l-.25.434h96.316l-.25-.434zm-.399.691l-.247.43h97.107l-.247-.43zm-.398.692l-.25.43h97.91l-.25-.43zm-.43.744l-.304.53h98.877l-.303-.53zm6.49.737c3.45.662 3.782 0 3.782 0zm81.503 0s.331.662 3.782 0z" fill="url(#flag-ni-1013)"/></g><g fill="#ccd11e"><g id="flag-ni-k"><path d="M530.631 297.043c-1.709 0-2.232.862-2.232.862-2.736 10.576-11.807 21.333-22.6 21.333h-8.08v10.768h61.514l-6.187-10.954c-9.707-1.449-17.64-11.373-20.166-21.147 0 0-.54-.862-2.25-.862z" fill="url(#flag-ni-1069)"/><path d="M530.631 297.465c-.784 0-1.26.18-1.538.355-.264.165-.315.276-.321.288 0 .007-.015.01-.018.016-1.4 5.323-4.352 10.669-8.334 14.707-4.012 4.07-9.07 6.83-14.605 6.83h-7.674v9.922h60.855l-5.68-10.058c-4.687-.612-8.973-3.163-12.458-6.694-3.986-4.038-6.932-9.384-8.334-14.707l-.017-.016c-.007-.012-.07-.105-.338-.271-.283-.176-.754-.372-1.538-.372z" fill="#97c924"/><path d="M530.63 297.465c.147 0 .28.021.406.034.024 3.017 0 8.11 0 10.801-.029 2.34-.83 4.223-2.012 6.441-.547 1.554-.986.963-2.35 2.857-1.83.654-3.186.909-5.138 1.216-2.517.398-8.121.75-10.887.136 3.641-1.068 6.961-3.27 9.771-6.12a30.57 30.57 0 0 0 2.13-2.4 33.663 33.663 0 0 0 3.01-4.48c.352-.626.686-1.248 1-1.893.467-.966.883-1.95 1.25-2.94a29.147 29.147 0 0 0 .948-2.995c0-.006.015-.01.016-.017.006-.012.058-.122.32-.287.137-.085.333-.17.576-.237h.017c.252-.067.554-.118.946-.118z" fill="#ede71f"/><path d="M529.938 298.902c-.412 6.034-2.277 13.192-6.644 17.81-1.607 1.337-3.66 2.55-5.646 2.255 6.77-5.51 10.885-13.947 12.29-20.065z" fill="#c6cb24"/><path d="M524.494 309.281c-1 2.721-4.788 6.746-8.84 10.045-1.15.035-1.76.101-2.804.038 2.468-.225 8.221-5.083 11.644-10.083z" fill="#9ecb34"/></g><use x="-15.341" xlink:href="#flag-ni-k"/><g fill="#c6cb24"><path d="M502.218 297.911c2.735 10.575 11.79 21.333 22.583 21.333h8.089v10.768h-65.829v-10.768h8.072c10.792 0 19.863-10.758 22.6-21.333 0 0 .534-.866 2.243-.866 1.709 0 2.243.866 2.243.866z" fill="url(#flag-ni-1017)"/><path d="M499.975 297.465c.784 0 1.255.196 1.538.372.269.166.332.259.339.27l.017.017c1.401 5.323 4.348 10.669 8.333 14.707 4.017 4.07 9.087 6.83 14.623 6.83h7.64v9.922h-64.98v-9.923h7.675c5.535 0 10.593-2.76 14.605-6.83 3.982-4.037 6.934-9.383 8.334-14.706 0-.007.015-.01.017-.016.006-.012.057-.123.32-.288.28-.174.755-.355 1.539-.355z" fill="#97c924"/><path d="M499.263 297.53a3.4 3.4 0 0 0-.242.055h-.018a2.184 2.184 0 0 0-.572.236c-.264.165-.314.274-.32.286 0 .006-.017.01-.018.017-.175.666-.37 1.333-.593 2a29.6 29.6 0 0 1-.356.995 34.21 34.21 0 0 1-1.249 2.942 34.21 34.21 0 0 1-1 1.894 33.634 33.634 0 0 1-3.01 4.477 30.73 30.73 0 0 1-2.13 2.403c-2.81 2.85-6.128 5.05-9.769 6.117 2.765.615 4.032-.056 6.55-.454 1.951-.308 4.21-.563 6.042-1.217 1.364-1.894.9-1.3 1.446-2.854 1.181-2.218 2.906-4.222 3.334-6.681 1.62-3.022 1.903-8.614 1.903-10.213z" fill="#ede71f"/><path d="M499.275 298.902c-.412 6.034-2.277 13.192-6.644 17.81-1.606 1.337-3.66 2.55-5.646 2.255 6.77-5.51 10.885-13.947 12.29-20.065z"/><path d="M493.832 309.281c-1 2.721-4.788 6.747-8.84 10.045-1.15.035-1.76.101-2.804.038 2.467-.225 8.222-5.083 11.644-10.083z" fill="#9ecb34"/><path d="M500.951 297.584h.018c.242.067.435.151.571.236.264.165.315.274.321.286 0 .006.016.011.018.018.175.665.37 1.333.592 2 .111.332.234.665.357.995.368.99.782 1.976 1.249 2.942.311.645.645 1.268 1 1.895a33.634 33.634 0 0 0 3.01 4.477 30.73 30.73 0 0 0 2.13 2.402c2.81 2.85 6.128 5.445 9.768 6.512-7.245.028-10.39-.63-13.022-4.016-2.633-3.387-3.606-4.868-4.14-6.937-.535-2.068-2.026-6.57-1.87-10.806z" fill="#ede71f"/><path d="M501.476 298.902c.412 6.034 2.22 12.006 6.587 16.625 1.607 1.337 3.66 2.55 5.646 2.255-7.335-5-10.829-12.762-12.233-18.88z"/></g><g id="flag-ni-l"><path d="M484.749 297.043c-1.71 0-2.248.862-2.248.862-2.523 9.747-11.825 22.318-21.497 23.811l-4.79 8.29h49.015v-11.348c-8.825-2.371-15.89-11.63-18.248-20.753 0 0-.523-.862-2.232-.862z" fill="url(#flag-ni-1071)"/><path d="M484.749 297.465c-.784 0-1.255.196-1.538.372-.269.166-.332.259-.338.27l-.017.017c-1.402 5.323-4.678 10.705-8.08 14.99-3.402 4.283-9.72 8.617-14.042 9.076l-4.282 7.393h48.06V318.89c-3.554-1.091-6.8-3.267-9.552-6.06-3.982-4.037-6.934-9.383-8.334-14.706 0-.007-.015-.01-.017-.016-.006-.012-.058-.123-.321-.288-.28-.174-.755-.355-1.539-.355z" fill="#97c924"/><path d="M483.445 298.903c-.617 9.043-5.653 20.454-11.34 22.42-1.855.64-5.099.864-6.227 1.008 9.948-4.731 15.828-15.853 17.567-23.428z" fill="#93bc30"/><path d="M484.746 297.465c-.147 0-.28.021-.406.034-.023 3.017 0 8.11 0 10.801.03 2.34.831 4.223 2.012 6.441.069.194.136.354.203.49.41 1.086.713 1.463 2.282 2.654 4.987 3.787 11.17 4.353 14.808 4.04-1.14-.898-2.358-1.715-3.431-2.467 1.711-.056 3.35-.25 4.513-.508-3.64-1.067-6.96-3.27-9.77-6.12a30.523 30.523 0 0 1-1.403-1.554 34.487 34.487 0 0 0-.592-.812c-1.118-1.4-2.263-2.947-3.145-4.513a34.164 34.164 0 0 1-1-1.894 34.023 34.023 0 0 1-1.606-3.938 31.676 31.676 0 0 1-.592-1.995c0-.006-.015-.01-.017-.017-.006-.012-.057-.122-.32-.287a2.207 2.207 0 0 0-.576-.237h-.017a3.614 3.614 0 0 0-.946-.118z" fill="#ede71f"/><path d="M485.446 298.902c.412 6.034 2.277 13.192 6.644 17.81 1.606 1.337 3.66 2.55 5.646 2.255-6.77-5.51-10.886-13.947-12.29-20.065z"/><path d="M489.613 307.247c2.369 5.837 8.37 11.29 14.543 14.954 1.15.035 1.492 0 2.537-.06-4.419-2.371-11.539-5.754-17.08-14.894z" fill="#9ecb34"/></g><use fill="#c6cb24" x="-15.43" xlink:href="#flag-ni-l"/></g><path d="M556.5 324.692c-.574.203-4.421-.19-6.433-.044l-1.28.336c-1.123-.008-2.238.024-3.33 0-3.602 0-6.649.948-10.075.948-3.433 0-6.47-.948-10.075-.948-1.12-.008-2.234.025-3.33 0-3.602 0-6.647.948-10.076.948-3.43 0-6.473-.948-10.075-.948-1.131-.007-2.242.023-3.348 0-3.602 0-6.632.948-10.058.948-3.429 0-6.456-.948-10.058-.948-.267 0-.516.009-.776.017-.178 0-.377-.017-.557-.017h-.695c-.181 0-.345.013-.523.017-.26-.008-.511-.017-.78-.017-3.605 0-6.642.949-10.075.948-3.429 0-6.473-.948-10.075-.948-.262 0-.522.01-.776.017-.18 0-.339-.017-.522-.017h-.73c-.181 0-.362.013-.54.017-.26-.008-.509-.017-.776-.017-2.88 0-6.218.607-8.936.85l-6.273 10.858 62.972-.007 64.375.007z" fill="#fff"/><path d="M547.993 323.111c-.2 0-.398 0-.596.007-3.24.095-5.564 1.115-11.2 1.115-5.638 0-6.219-1.019-12.584-.879-5.947.131-8.443 1.262-11.67 1.217-3.228-.044-8.473-.697-12.51-.275-4.037.423-8.828 1.284-11.973 1.291-3.909-.017-7.82-.73-11.906-.324-4.087.406-6 1.5-11.063 1.485-4.356-.013-9.083-.698-12.746-.695-3.435 0-7.267.957-10.086 1.443l-.843 1.464c2.247-.26 8.551-1.218 10.802-1.277 2.344-.061 10.717.483 15.335.325 4.618-.159 5.158-1.172 10.618-1.172 3.801 0 6.666.399 10.566.399 2.434 0 4.643-1.242 8.343-1.242.936-.027 1.865-.06 2.794-.091 3.119-.515 8.384.045 12.048.232 3.315.173 5.457-.615 8.914-.73 1.496-.068 3-.066 4.474-.148 3.46-.115 6.422.64 9.68.624 3.25-.2 6.403-.922 9.86-1.037 1.511-.071 3-.072 4.49-.148 2.287-.076 5.837.078 8.273.501l-.84-1.45c-2.379-.076-5.311-.635-8.18-.635z" fill="url(#flag-ni-1021)"/><g id="flag-ni-n"><path d="M450.312 334.748c-3.457 0-6.402.853-9.652.945-1.21-.033-2.367-.183-3.535-.345l-.49.85c.486.032.975.063 1.488.063 1.502.018 2.99-.036 4.474 0 3.457 0 6.382-.852 9.634-.945 3.254.092 6.206.945 9.666.945 1.501.019 2.993-.036 4.474 0 3.457 0 6.412-.853 9.666-.945 3.256.092 6.23.945 9.687.945 1.495.018 2.993-.036 4.47 0 3.457 0 6.401-.853 9.652-.945 3.253.092 6.191.945 9.649.945 1.512.019 3-.036 4.49 0 3.458 0 6.41-.853 9.667-.945 3.257.092 6.21.945 9.67.945 1.495.018 2.991-.036 4.47 0 3.456 0 6.4-.853 9.651-.945 3.253.092 6.21.945 9.666.945 1.5.018 3-.036 4.474 0 .605 0 1.196-.034 1.778-.077l-.463-.797c-1.064.144-2.133.276-3.235.306-3.254-.092-6.195-.945-9.652-.945-1.51-.02-3 .03-4.49 0-3.458 0-6.397.853-9.649.945-3.257-.091-6.206-.945-9.666-.945-1.496-.02-2.993.03-4.473 0-3.458 0-6.413.853-9.667.945-3.254-.092-6.209-.945-9.666-.945-1.503-.02-3 .03-4.49 0-3.458 0-6.4.853-9.65.945-3.253-.092-6.194-.945-9.651-.945-1.506-.02-2.99.03-4.474 0-3.46 0-6.409.854-9.666.945-3.254-.092-6.208-.945-9.666-.945-1.502-.02-3.006.03-4.49 0z" fill="url(#flag-ni-1073)" id="flag-ni-m"/><use y="-1.289" xlink:href="#flag-ni-m"/><use y="-2.575" xlink:href="#flag-ni-m"/></g><use y="-3.867" xlink:href="#flag-ni-n"/><use y="-7.729" xlink:href="#flag-ni-n"/><path d="M443.846 324.705l-2.427 4.191c2.839-.47 7.102-1.703 10.634-1.706 3.663 0 8.082.903 12.438.916 5.066.014 6.976-1.079 11.063-1.485 4.086-.407 8 .527 11.906.545 3.145-.007 7.936-1.09 11.973-1.512 4.037-.422 7.737.293 12.603.369 4.866.075 5.63-1.18 11.576-1.31 6.366-.141 6.947.877 12.584.877 4.242.229 7.883-.854 11.666-1.121 3.784-.268 5.539.043 8.305.109l-1.838-3.253h-.092l-101.246 2.226z" fill="#97c924"/><path d="M550.067 324.648s2.71.148 3.847.276a91.39 91.39 0 0 0 2.955.253l-.37-.485c-.573.203-4.42-.19-6.432-.044z" fill="#fff"/></g><path d="M320 179.9l-25.714 44.548L268 269.968l51.438-.007 52.562.006-25.722-44.546zm0 2.4l25.24 43.722 24.68 42.743h-99.842l25.248-43.716z" fill="#c8a400"/></svg>