<svg xmlns="http://www.w3.org/2000/svg" viewBox="0 0 640 480" height="16" width="22"><path d="M0 0h640v480H0z" fill="#f5f5f5"/><path d="M6.444 473.556l355.287-.009L129.185 240.88l241.302.28L6.464 11.762z" fill="#ce0000" stroke="#000063" stroke-width="12.888"/><path d="M169.44 348.525l-25.298 8.378 19.79 18.62-26.66-1.712 10.983 24.592-23.952-11.522.493 26.81-17.612-19.594-10.07 24.968-8.577-24.675-19.093 19.3 1.745-26-25.204 10.713 11.815-23.36-27.502.48 20.09-17.176-25.588-9.822 25.3-8.365-19.802-18.62 26.659 1.7-10.972-24.58 23.953 11.522-.494-26.822 17.613 19.594 10.058-24.956 8.59 24.675 19.091-19.312-1.756 26 25.215-10.7-11.813 23.36 27.49-.482-20.091 17.178zM139.05 175.39l-10.622 7.863 5.235 4.325c12.714-9.827 21.76-18.808 28.831-33.712 1.659 19.893-16.578 64.551-64.434 65.044-51.219-.043-68.99-47.425-67.015-65.883 9.41 17.07 15.151 25.395 29.922 34.282l4.518-4.147-10.004-8.336 12.879-3.349-6.928-11.662 13.491.984-1.695-13.58 11.828 6.921 3.7-12.64 8.5 10.18 7.96-9.652 4.335 13.115 11.053-7.69-1.418 13.339 13.25-1.555-6.212 12.33 12.827 3.823z" fill="#fff"/></svg>