<svg xmlns="http://www.w3.org/2000/svg" viewBox="0 0 640 480" height="16" width="22"><path d="M174 0h466v480H174z" fill="#0c590b"/><path d="M468.486 210.254l-29.217-6.146-15.365 25.599-3.183-29.687-29.096-6.703 27.25-12.201-2.616-29.741 20.025 22.146 27.477-11.68-14.874 25.888z" fill="#fff"/><path d="M480.301 286.042c-25.936 57.15-94.01 82.113-151.322 55.565-57.32-26.555-82.29-94.622-55.735-151.941 13.544-29.235 35.708-49.326 66.996-60.291-3.6 3.043-7.16 6.2-11.063 10.226-40.415 41.71-39.365 108.368 2.344 148.78 41.71 40.416 108.367 39.367 148.78-2.343z" fill="#fff"/><path d="M0 0h174v480H0z" fill="#f5f5f5"/></svg>