<svg xmlns="http://www.w3.org/2000/svg" viewBox="0 0 640 480" height="16" width="22"><path d="M0 240v240h640V240z" fill="#f5f5f5"/><path d="M0 0v240h640V0H0z" fill="#df0000"/><path d="M122.75 37c-7.689.016-15.375 1.165-23.379 3.447C53.768 53.45 27.313 101.01 40.31 146.61c13.004 45.6 60.562 72.057 106.593 58.932-45.563-9.499-75.175-54.018-65.687-99.488 6.983-33.463 31.685-58.08 64.928-65.701-8.014-2.25-15.705-3.367-23.393-3.352zm49.215 14l-4.934 15.105-15.875.137 12.832 9.356-4.783 15.142 12.871-9.316 12.932 9.228-4.895-15.117 12.772-9.441-15.889-.026L171.965 51zm-47.156 34.209l-4.932 15.105-15.877.137 12.832 9.356-4.781 15.142 12.869-9.316 12.932 9.23-4.895-15.119 12.772-9.441-15.89-.026-5.03-15.068zm93.412.047l-4.932 15.105-15.877.137 12.832 9.356-4.781 15.142 12.869-9.316 12.932 9.228-4.895-15.117 12.772-9.441-15.889-.026-5.031-15.068zm-17.428 51.637l-4.932 15.105-15.877.139 12.832 9.353-4.783 15.145 12.871-9.319 12.932 9.23-4.895-15.118 12.772-9.442-15.889-.023-5.031-15.07zm-58.426.375l-4.931 15.105-15.877.139 12.834 9.353-4.784 15.145 12.87-9.319 12.931 9.23-4.892-15.118 12.77-9.442-15.89-.023-5.03-15.07z" fill="#fff"/></svg>