<svg xmlns="http://www.w3.org/2000/svg" viewBox="0 0 640 480" height="16" width="22"><path d="M0 0v160h640V0z" fill="#f5f5f5"/><path d="M0 320v160h640V320z" fill="#de2918"/><path d="M0 160v160h640V160z" fill="#08399c"/><path d="M243.263 85.554c-3.768 57.798-5.926 89.472-14.727 104.129-9.515 15.74-18.773 27.263-55.903 41.139-37.134-13.885-46.387-25.406-55.906-41.147-8.8-14.653-10.96-46.322-14.727-104.119l5.487-1.848c11.047-3.369 19.288-6.078 25.385-7.281 8.73-1.848 16.151-3.938 39.616-4.427 23.464.403 30.921 2.622 39.652 4.47 6.047 1.29 14.641 3.826 25.605 7.26l5.517 1.826z" fill="#de2918"/><path d="M238.369 83.716c-3.565 57.673-6.547 84.084-11.197 96.787-9.024 21.744-23.312 33.665-54.06 45.036-30.75-11.381-45.038-23.306-54.06-45.047-4.652-12.694-7.59-39.037-11.052-96.844 10.813-3.376 19.29-6.016 25.387-7.218 8.731-1.85 16.152-4.026 39.616-4.43 23.465.404 30.973 2.58 39.704 4.429 6.096 1.203 14.748 3.842 25.662 7.278z" fill="#08399c"/><path d="M172.641 101l1.474 3.49 6.478.888-4.198 2.531 4.06 2.714-5.905.989-1.796 3.163-2.021-3.257-5.62-.797 3.825-2.773-3.938-2.523 6.22-.953z" fill="#fc0"/><path d="M224.643 166.967l-3.591-2.839-2.596-4.269-5.083-4.41-2.65-4.456-5.084-4.549-2.487-4.456-2.703-2.181-1.784-1.718-4.593 4.027-2.503 4.373-3.118 2.828-3.426-2.676-2.59-4.563L172.816 125l-9.618 17.078-2.59 4.563-3.426 2.676-3.12-2.828-2.502-4.373-4.592-4.027-1.785 1.718-2.703 2.182-2.487 4.455-5.084 4.55-2.649 4.455-5.084 4.41-2.595 4.27-3.582 2.905c1.86 15.83 11.951 28.234 17.45 33.907 6.136 5.958 18.786 13.93 34.256 19.206 15.514-5.164 28.34-13.248 34.476-19.206 5.498-5.673 15.59-18.077 17.46-33.974z" fill="#fff"/><path d="M216.061 188.596l-7.001.022-6.461-.481-7.826-3.839-8.821.053-7.64 3.732-6.025.534-6.027-.534-7.638-3.731-8.822-.054-7.826 3.839-6.46.48-7.09-.097-3.424-5.8.127-.133 10.474 1.732 6.46-.48 7.827-3.839 8.822.053 7.638 3.733 6.026.532 6.026-.532 7.639-3.733 8.822-.053 7.825 3.84 6.461.48 10.195-1.788.135.268zm-81.065 8.916l6.93-.481 7.827-3.839 8.82.054 7.64 3.731 6.026.534 6.025-.533 7.64-3.732 8.822-.054 7.825 3.839 7.025.48 4.532-5.587-.152-.126-4.857 1.415-6.46-.48-7.826-3.838-8.822.052-7.639 3.733-6.026.533-6.025-.533-7.64-3.732-8.821-.053-7.825 3.838-6.462.481-4.76-1.2-.056.234z" fill="#08399c"/></svg>