<svg xmlns="http://www.w3.org/2000/svg" viewBox="0 0 640 480" height="16" width="22"><path d="M0 0h640v160H0z" fill="#f5f5f5"/><path d="M0 320h640v160H0z" fill="#ee1c25"/><path d="M0 160h640v160H0z" fill="#0b4ea2"/><path d="M232.568 370.6C189.543 349.876 128 308.742 128 227.374c0-81.37 3.89-118.374 3.89-118.374h201.358s3.891 37.005 3.891 118.374c0 81.368-61.543 122.502-104.571 143.226z" fill="#fff"/><path d="M232.934 360C193.462 340.987 137 303.25 137 228.6c0-74.651 3.57-108.6 3.57-108.6H325.3s3.57 33.95 3.57 108.6c0 74.65-56.462 112.387-95.936 131.4z" fill="#ee1c25"/><path d="M240.99 208.349c10.688.173 31.54.591 50.109-5.622 0 0-.49 6.645-.49 14.385 0 7.742.49 14.386.49 14.386-17.032-5.7-38.064-5.819-50.108-5.666v41.231h-16.883v-41.231c-12.044-.153-33.076-.034-50.108 5.665 0 0 .49-6.644.49-14.386 0-7.74-.49-14.384-.49-14.384 18.568 6.213 39.42 5.795 50.108 5.622v-25.894c-9.741-.087-23.779.378-39.65 5.69 0 0 .49-6.645.49-14.386 0-7.74-.49-14.385-.49-14.385 15.848 5.303 29.868 5.776 39.607 5.691-.501-16.398-5.278-37.065-5.278-37.065s9.831.767 13.761.767c3.934 0 13.763-.767 13.763-.767s-4.776 20.667-5.277 37.064c9.739.084 23.759-.388 39.606-5.691 0 0-.49 6.644-.49 14.385 0 7.74.49 14.385.49 14.385-15.87-5.311-29.909-5.776-39.65-5.69z" fill="#fff"/><path d="M232.85 263c-19.878 0-30.525 27.575-30.525 27.575S196.418 277.5 180.2 277.5c-10.973 0-19.06 9.761-24.2 18.8 19.963 31.765 51.814 51.366 76.85 63.425 25.039-12.06 56.91-31.657 76.875-63.425-5.14-9.039-13.227-18.8-24.2-18.8-16.219 0-22.15 13.075-22.15 13.075S252.729 263 232.85 263z" fill="#0b4ea2"/></svg>