<svg xmlns="http://www.w3.org/2000/svg" viewBox="0 0 640 480" height="16" width="22"><path d="M0 160h640v160H0z" fill="#f5f5f5"/><path d="M0 320h640v160H0z" fill="#000001"/><path d="M0 0h640v160H0z" fill="red"/><path d="M201.9 281l-28.822-20.867-28.68 21.072 10.667-34.242-28.628-21.145 35.418-.295 10.985-34.138 11.221 34.06 35.418.045-28.481 21.344L201.9 281zm307.64 0l-28.822-20.867-28.68 21.072 10.667-34.242-28.628-21.145 35.418-.295 10.985-34.138 11.221 34.06 35.418.045-28.481 21.344L509.54 281z" fill="#090"/></svg>