<svg xmlns="http://www.w3.org/2000/svg" viewBox="0 0 640 480" height="16" width="22"><path d="M0 0h640v480H0z" fill="#3e5eb9"/><path d="M0 86h640v308H0z" fill="#ffd900"/><path d="M0 120h640v240H0z" fill="#b10c0c"/><rect fill="#ffd900" height="10.285" rx="5.407" ry="5.485" stroke="#000001" stroke-width="1.382" width="582.853" x="31.776" y="234.853"/><g stroke="#000001" transform="translate(-629.71562 -24) scale(.9676)"><path d="M-106.3 265.75l-88.583 35.433 88.583 35.433 88.582-35.433z" fill="#fff" stroke-width="4.175" transform="matrix(.34 0 0 .3 1256.8 136.42)"/><rect fill="#ffd900" height="7.087" rx="4.108" ry="3.78" stroke-width="1.333" width="442.91" x="761.81" y="223.23"/><path d="M1224.4 279.92c-3.54 0-7.09-3.544-7.09-7.087 0-3.543 3.55-7.087 7.09-7.087" fill="none" stroke-width="2.667" transform="matrix(-.50001 0 0 .5 1806.3 90.354)"/><path d="M1224.4 279.92c-3.54 0-7.09-3.544-7.09-7.087 0-3.543 3.55-7.087 7.09-7.087" fill="none" stroke-width="2.667" transform="matrix(-.50001 0 0 .5 1802.8 90.354)"/><path d="M1224.4 279.92c-3.54 0-7.09-3.544-7.09-7.087 0-3.543 3.55-7.087 7.09-7.087" fill="none" stroke-width="2.667" transform="matrix(-.50001 0 0 .5 1799.2 90.355)"/></g><g stroke="#000001" transform="translate(-657.14687 -3.42844) scale(.9676)"><path d="M-106.3 265.75l-88.583 35.433 88.583 35.433 88.582-35.433z" fill="#fff" stroke-width="4.175" transform="matrix(.34 0 0 .3 1256.8 136.42)"/><rect fill="#ffd900" height="7.087" rx="4.108" ry="3.78" stroke-width="1.333" width="442.91" x="761.81" y="223.23"/><path d="M1224.4 279.92c-3.54 0-7.09-3.544-7.09-7.087 0-3.543 3.55-7.087 7.09-7.087" fill="none" stroke-width="2.667" transform="matrix(-.50001 0 0 .5 1806.3 90.354)"/><path d="M1224.4 279.92c-3.54 0-7.09-3.544-7.09-7.087 0-3.543 3.55-7.087 7.09-7.087" fill="none" stroke-width="2.667" transform="matrix(-.50001 0 0 .5 1802.8 90.354)"/><path d="M1224.4 279.92c-3.54 0-7.09-3.544-7.09-7.087 0-3.543 3.55-7.087 7.09-7.087" fill="none" stroke-width="2.667" transform="matrix(-.50001 0 0 .5 1799.2 90.355)"/></g><path d="M338.07-.416c-5.571 12.442 4.275-4.138 28.299 16.69 4.452 3.87 8.342 14.09 8.342 21.178-1.13-.975-1.969-3.145-3.214-4.553-1.743 2.253 1.664 12.577 2.162 17.457-3.756-2.71-3.394-3.993-4.642-7.324.249 4.026-.645 15.116.849 19.386-2.96-1.09-2.764-4.163-4.31-4.78 1.052 4.834-.916 10.094-.394 15.528-1.73-2.208-3.573-3.937-4.376-4.829-.135 2.588-3.327 9.388-3.4 11.835-1.468-1.143-1.866-2.926-2.111-4.126-1.824 2.955-8.308 13.872-8.724 17.202-4.996-5.69-17.793-19.545-19.459-26.9-1.473 4.176-3.604 5.584-7.817 8.632-1.665-11.656-7.891-24.756-4.561-34.747-2.359 1.804-4.302 3.608-6.66 5.828 2.234-16.88 13.628-36.674 30.016-46.477z" fill="#3d5da7" stroke="#000001" stroke-width="1.422" transform="matrix(.93225 0 0 .72298 258.47 236.21531)"/><path d="M554.26 280.466c2.157-4.31 4.143-5.677 5.537-8.452 2.461-4.878 2.812-8.76 4.957-8.19 2.145.569 2.142 2.566-.636 7.363-2.778 4.796-4.098 5.82-9.857 9.28zm14.588 10.267c-.276-3.281.675-4.653.5-6.766-.295-3.72-1.816-6.272.161-6.453 1.978-.182 2.903 1.087 2.908 4.834.006 3.748-.574 4.732-3.569 8.385zm11.067 6.435c-.864-4.582-.218-6.614-.77-9.565-.963-5.194-2.867-8.613-1.034-9.088 1.832-.475 2.938 1.204 3.632 6.47.693 5.268.328 6.715-1.829 12.183zm11.505-32.105c-2.702-2.051-4.28-2.188-6.022-3.506-3.07-2.314-4.623-4.789-5.61-3.56-.987 1.23-.287 2.574 2.93 4.706 3.216 2.134 4.305 2.303 8.702 2.36zm-1.904 15.214c-1.425-2.958-2.924-3.708-3.844-5.612-1.63-3.344-1.632-6.237-3.399-5.496-1.766.742-1.909 2.257-.019 5.494 1.89 3.236 2.879 3.822 7.262 5.614z" fill="#a70000"/><path d="M329.6 20.703c-.272-2.662.253-2.98-1.258-4.989 2.2.997 2.284 3.649 4.959 1.767.983-.551 1.411-.569.217-3.526 2.79.14 11.927 3.535 13.39 3.614 3.842.191 10.855-4.373 15.723 1.24 4.672 5.117 3.112 10.428 3.112 17.515-1.877-.975-.973-1.455-2.965-3.989 1.494 6.195-.08 17.364-.08 23.934-.767-1.584-.654-.896-1.404-2.537-1.992 5.997-4.38 7.231-4.38 14.318-.719-2.78-.025-2.191-.825-3.653-1.936 4.552-14.925 8.443-9.92 13.033-4.518-2.87-6.499-2.57-8.548-5.15-.882.617-1.584 1.785-2.404 3.386-7.943-3.96-5.103-12.5-11.326-18.206-1.077 2.393-.586 2.045-1.75 5.939-1.26-5.408-1.604-8.844-3.021-12.82-1.223 2.204-1.113 1.36-3.333 4.69-.918-6.587-2.413-8.142-1.822-12.501-2.359 1.804-.815 1.073-3.173 3.293 2.234-16.88 11.884-29.352 18.808-25.358z" fill="#3d5da7" stroke="#000001" stroke-width="1.422" transform="matrix(1.0661 0 0 .984 -294.45438 224.2125)"/><path d="M46.525 271.69c2.181-5.348 4.148-7.027 5.558-10.47 2.49-6.05 2.895-10.887 4.988-10.15 2.09.739 2.056 3.23-.741 9.175-2.798 5.946-4.11 7.206-9.805 11.444zm8.263 13.378c.874-4.795 2.255-6.54 2.822-9.629 1.008-5.428.446-9.47 2.39-9.257 1.943.212 2.383 2.26 1.09 7.662-1.294 5.4-2.187 6.68-6.302 11.224zm9.88 9.3c.247-4.647 1.335-6.462 1.498-9.455.296-5.265-.719-9.035 1.136-9.056 1.854-.022 2.514 1.872 1.946 7.143-.568 5.27-1.255 6.586-4.58 11.368zm21.22-30.392c-4.058-4.043-6.511-4.797-9.128-7.397-4.61-4.566-6.838-8.85-8.479-7.331-1.64 1.518-.654 3.796 4.2 8.14 4.854 4.345 6.542 4.978 13.407 6.588zM83.419 279.6c-2.643-4.06-4.582-5.11-6.288-7.722-3.01-4.59-4.042-8.531-5.749-7.556-1.706.976-1.324 3.037 1.936 7.486 3.261 4.447 4.574 5.265 10.101 7.791z" fill="#a70000"/><path d="M491.427 239.995c-34.286 34.282-80.002 102.852-171.428 102.852-80.001 0-137.142-68.57-171.427-102.852 34.285-34.288 91.426-102.858 171.427-102.858 91.426 0 137.142 68.57 171.428 102.858z" fill="#fff" stroke="#000001" stroke-width="1.29"/><path d="M308.032 172.917c9.122 10.26 1.505 14.395 11.159 15.069 10.181.747 4.41 10.839 12.975 11.19 5.988.262-.598 24.181 5.167 32.074 5.871 8.229 10.788 2.41 10.891 8.356.103 6.148-15.98 5.528-16.261 24.468-.472 10.914-13.572 11.614-14.197 18.637-.778 6.605 25.807 10.314 25.453 16.228-.364 5.895-28.706 4.971-29.94 11.695-.633 6.04 38.935 10.988 42.117 28.455-5.904 1.931-22.702 3.748-35.4 3.758-79.994.064-137.14-68.568-171.425-102.85 34.285-34.289 91.425-102.858 171.426-102.858 0 0-23.747 21.698-11.965 35.778z" fill="#000001"/><path d="M212.57 203.427h8.312v27.428h-8.312zm0 45.714h8.312v27.427h-8.312zm16.622-45.714h8.312v27.428h-8.312zm0 45.714h8.312v27.427h-8.312zm16.622-45.714h8.312v27.428h-8.312zm0 45.714h8.312v27.427h-8.312zm16.625-45.714h8.312v27.428h-8.312zm0 45.714h8.312v27.427h-8.312zm16.622-45.714h8.312v27.428h-8.312zm0 45.714h8.312v27.427h-8.312zm16.622-45.714h8.311v27.428h-8.31zm0 45.714h8.311v27.427h-8.31z" fill="#fff"/><path d="M338.28 203.427h8.312v27.428h-8.312zm0 45.714h8.312v27.427h-8.312zm16.621-45.714h8.312v27.428h-8.312zm0 45.714h8.312v27.427h-8.312zm16.622-45.714h8.312v27.428h-8.312zm0 45.714h8.312v27.427h-8.312zm16.627-45.714h8.312v27.428h-8.312zm0 45.714h8.312v27.427h-8.312zm16.62-45.714h8.313v27.428h-8.312zm0 45.714h8.313v27.427h-8.312zm16.623-45.714h8.311v27.428h-8.311zm0 45.714h8.311v27.427h-8.311z" fill="#000001"/><path d="M338.07-.416c-5.571 12.442 9.754-4.138 33.778 16.69 4.452 3.87 10.833 19.16 10.833 26.246-5.115-1.257-14.173-7.087-14.173-7.087s10.63 12.295 10.63 26.468c-3.756-2.71-5.635-2.304-6.883-5.634 0 4.588 3.34 7.512 3.34 14.599-2.711-2.498-5.006-4.163-7.3-5.625 3.543 7.086-6.457 20.834-1.452 25.423-8.752-1.462-17.707-7.92-21.25-15.006-1.878 1.462-2.082 3.756-2.155 6.203.276.264-13.322-11.656-12.073-16.235-1.824 2.955-2.081 4.579-2.497 7.909-4.996-5.69-9.574-11.378-11.24-18.733-2.22 3.33-2.359 3.33-4.579 6.66-1.665-11.655-1.665-11.24 1.665-21.23-2.359 1.804-4.302 3.608-6.66 5.828 2.234-16.88 13.628-36.674 30.016-46.477z" fill="#3d5da7" stroke="#000001" stroke-width="1.422" transform="matrix(.85256 0 0 .73827 -23.66875 155.715)"/><path d="M252.852 200.291c.759-6.33 2.415-8.714 2.909-12.79.88-7.17-.164-12.41 2.375-12.277 2.54.133 3.272 2.777 2.017 9.931-1.256 7.153-2.314 8.892-7.301 15.136zm13.26 11.59c-.515-5.34.472-7.614.145-11.053-.564-6.054-2.434-10.154-.22-10.531 2.215-.377 3.334 1.653 3.572 7.765.24 6.111-.351 7.74-3.496 13.819zm20.702 9.455c-2.25-4.62-4.185-6-5.639-8.974-2.567-5.227-3.103-9.495-5.083-8.722-1.98.773-1.871 2.981.988 8.1 2.86 5.116 4.153 6.158 9.734 9.596zm7.156-41.387c-5.733-3.018-8.678-3.056-12.374-4.996-6.506-3.4-10.293-7.242-11.638-5.128-1.344 2.115.45 4.218 7.158 7.31 6.708 3.09 8.77 3.237 16.854 2.814zm2.105 17.284c-4.177-3.473-6.645-3.984-9.337-6.218-4.744-3.92-7.105-7.77-8.69-6.21-1.584 1.56-.524 3.622 4.454 7.316s6.681 4.153 13.572 5.112z" fill="#a70000"/></svg>