<svg xmlns="http://www.w3.org/2000/svg" xmlns:xlink="http://www.w3.org/1999/xlink" viewBox="0 0 640 480" height="16" width="22"><path d="M0 0h640v480H0z" fill="#bd3d44"/><path d="M0 36v38h640V36H0zm0 74v38h640v-38H0zm0 74v38h640v-38H0zm0 74v38h640v-38H0zm0 74v38h640v-38H0zm0 74v38h640v-38H0z" fill="#f5f5f5"/><path d="M0 0h364v258H0z" fill="#192f5d"/><path d="M30.4 217.834l3.32 10.215h10.74l-8.69 6.314 3.32 10.215-8.69-6.313-8.69 6.313 3.32-10.215-8.69-6.314h10.74z" fill="#fff" id="flag-us-s"/><use transform="translate(0 -103.386)" xlink:href="#flag-us-s"/><use transform="translate(0 -155.078)" xlink:href="#flag-us-s"/><use transform="translate(0 -206.772)" xlink:href="#flag-us-s"/><use transform="translate(0 -51.693)" xlink:href="#flag-us-s"/><use transform="translate(30.4 -180.925)" xlink:href="#flag-us-s"/><use transform="translate(30.4 -25.845)" xlink:href="#flag-us-s"/><use transform="translate(30.4 -77.54)" xlink:href="#flag-us-s"/><use transform="translate(30.4 -129.232)" xlink:href="#flag-us-s"/><use transform="translate(60.8 -103.386)" xlink:href="#flag-us-s"/><use transform="translate(60.8 -155.079)" xlink:href="#flag-us-s"/><use transform="translate(60.8 -206.772)" xlink:href="#flag-us-s"/><use transform="translate(60.8 -51.693)" xlink:href="#flag-us-s"/><use transform="translate(60.8)" xlink:href="#flag-us-s"/><use transform="translate(91.2 -129.232)" xlink:href="#flag-us-s"/><use transform="translate(91.2 -77.539)" xlink:href="#flag-us-s"/><use transform="translate(91.2 -180.925)" xlink:href="#flag-us-s"/><use transform="translate(91.2 -25.845)" xlink:href="#flag-us-s"/><use transform="translate(121.6 -103.386)" xlink:href="#flag-us-s"/><use transform="translate(121.6 -155.079)" xlink:href="#flag-us-s"/><use transform="translate(121.6 -51.693)" xlink:href="#flag-us-s"/><use transform="translate(121.6)" xlink:href="#flag-us-s"/><use transform="translate(121.6 -206.772)" xlink:href="#flag-us-s"/><use transform="translate(152 -129.232)" xlink:href="#flag-us-s"/><use transform="translate(152 -180.925)" xlink:href="#flag-us-s"/><use transform="translate(152 -25.846)" xlink:href="#flag-us-s"/><use transform="translate(152 -77.54)" xlink:href="#flag-us-s"/><use transform="translate(182.4 -206.772)" xlink:href="#flag-us-s"/><use transform="translate(182.4 -51.693)" xlink:href="#flag-us-s"/><use transform="translate(182.4)" xlink:href="#flag-us-s"/><use transform="translate(182.4 -103.386)" xlink:href="#flag-us-s"/><use transform="translate(182.4 -155.078)" xlink:href="#flag-us-s"/><use transform="translate(212.8 -129.233)" xlink:href="#flag-us-s"/><use transform="translate(212.8 -180.926)" xlink:href="#flag-us-s"/><use transform="translate(212.8 -25.845)" xlink:href="#flag-us-s"/><use transform="translate(212.8 -77.539)" xlink:href="#flag-us-s"/><use transform="translate(243.2 -103.386)" xlink:href="#flag-us-s"/><use transform="translate(243.2 -155.079)" xlink:href="#flag-us-s"/><use transform="translate(243.2 -51.693)" xlink:href="#flag-us-s"/><use transform="translate(243.2 -206.771)" xlink:href="#flag-us-s"/><use transform="translate(243.2)" xlink:href="#flag-us-s"/><use transform="translate(273.6 -180.925)" xlink:href="#flag-us-s"/><use transform="translate(273.6 -77.539)" xlink:href="#flag-us-s"/><use transform="translate(273.6 -129.232)" xlink:href="#flag-us-s"/><use transform="translate(273.6 -25.846)" xlink:href="#flag-us-s"/><use transform="translate(304 -155.079)" xlink:href="#flag-us-s"/><use transform="translate(304 -206.771)" xlink:href="#flag-us-s"/><use transform="translate(304 -51.693)" xlink:href="#flag-us-s"/><use transform="translate(304)" xlink:href="#flag-us-s"/><use transform="translate(304 -103.386)" xlink:href="#flag-us-s"/></svg>