<svg xmlns="http://www.w3.org/2000/svg" xmlns:xlink="http://www.w3.org/1999/xlink" viewBox="0 0 640 480" height="16" width="22"><path d="M0 0h640v480H0z" fill="#f5f5f5"/><path d="M0 0h320v480H0z" fill="#ffe000"/><g fill="#ffe000" id="flag-va-a" stroke="#000" stroke-linecap="round" stroke-linejoin="round" stroke-width=".82"><path d="M455.954 186.078l4.123.983 6.57 1.067 3.01.331-.531 12.779s-.72 8.493-1.968 12.534c-.927 2.995-4.04 8.494-4.04 8.494l-1.969 3.004-11.602-10.048s1.978-2.803 2.694-4.35c.898-1.944 1.968-6.113 1.968-6.113l1.14-6.63.621-8.39zm-14.59 38.778l10.566 9.219s-2.136 1.902-3.418 2.486c-2.515 1.147-5.317 1.924-8.08 1.865-1.979-.043-3.922-.761-5.722-1.584-4.025-1.839-8.456-3.771-11.051-7.355-.918-1.269-1.28-2.962-1.252-4.528.033-1.775 1.608-5.077 1.608-5.077s.612 2.211 1.314 3.078c1.156 1.427 2.846 2.381 4.505 3.168 1.241.589 2.597 1.03 3.968 1.11 1.78.105 3.626-.172 5.283-.829.855-.338 2.279-1.553 2.279-1.553z" fill="#fff"/><path d="M424.614 157.246s.844 1.69 1.1 2.593c.44 1.544.745 3.155.733 4.761-.012 1.61-.376 3.21-.806 4.761-.644 2.325-1.618 4.553-2.637 6.739-.646 1.386-1.55 2.643-2.197 4.029-1.045 2.234-1.79 4.596-2.71 6.885-.768 1.91-1.758 3.74-2.345 5.713-.779 2.621-1.167 5.349-1.538 8.058-.318 2.33-.57 4.68-.586 7.031-.018 2.79.066 5.61.586 8.35.516 2.717 1.274 5.429 2.49 7.911a22.748 22.748 0 0 0 3.81 5.494c1.258 1.345 2.74 2.498 4.321 3.443 1.437.858 3.06 1.36 4.615 1.977 2.148.854 6.51 2.39 6.51 2.39s-6.022-2.967-8.122-5.466c-1.736-2.067-2.693-4.766-3.296-7.398-.698-3.048-.61-6.265-.293-9.376.341-3.346 1.326-6.609 2.344-9.815 1.075-3.384 2.585-6.614 3.956-9.888.988-2.36 2.118-4.66 3.076-7.032 1.13-2.801 2.244-5.615 3.15-8.497.552-1.757 1.241-3.513 1.39-5.349.161-1.995-.098-4.03-.556-5.978-.64-2.73-1.433-5.542-3.03-7.847-.96-1.387-2.278-2.6-3.78-3.367-1.468-.75-3.212-1.383-4.828-1.063-.54.106-1.357.941-1.357.941z" fill="#fff"/><path d="M438.167 174.635s1.14-4.606 1.333-6.96c.165-2.014.058-4.05-.155-6.06-.237-2.236-.376-4.555-1.243-6.63-.9-2.152-2.31-4.129-3.988-5.749a17.696 17.696 0 0 0-5.801-3.729c-2.253-.878-4.734-1.095-7.148-1.243-2.07-.127-4.157.049-6.215.31-1.19.152-2.387.341-3.522.726-1.053.356-3.004 1.45-3.004 1.45l7.665 12.534s2.4-1.412 3.73-1.76c1.406-.37 2.899-.396 4.35-.312 1.474.087 3.002.23 4.35.83 1.718.763 3.198 2.043 4.493 3.405 1.562 1.644 2.956 3.53 3.83 5.622.81 1.943.916 4.114 1.208 6.2.063.452.117 1.366.117 1.366z" fill="#fff"/><path d="M439.565 164.672s-1.366-4.24-2.655-6.01c-1.498-2.055-3.422-3.94-5.697-5.075-2.414-1.205-7.935-1.592-7.935-1.592l2.922 5.409-5.111-.125-2.67-4.463-4.923 2.229-2.45-4.005 5.231-2.426-2.41-3.887 5.228-.497 2.277 3.763s4.063.012 6.038.427a14.91 14.91 0 0 1 3.871 1.383c1.16.612 2.227 1.414 3.186 2.308 1.154 1.075 2.236 2.269 3.04 3.626.782 1.318 1.675 4.282 1.675 4.282z"/><path d="M404.902 148.906l8.166 11.928m-4.6-14.013l-3.848 2.25-3.662 2.784 7.91 12.086 3.516-2.71 3.615-2.096zm14.902 50.924l4.578-9.449 4.9 1.95 1.985-4.88-4.87-2.27 2.526-5.457-3.589-1.612-2.71 5.238-4.913-2.055-2.158 5.111 4.764 1.998-4.395 9.376zm36.641-2.825l4.662-.104v5.386l4.488.213-.763 5.468-4.188-.264s-.69 3.22-1.31 4.735c-.644 1.572-2.474 4.454-2.474 4.454l-4.973-1.243s1.8-2.828 2.487-4.35c.615-1.364 1.45-4.248 1.45-4.248l-5.105-.644.889-5.17 4.63.324z"/></g><use fill="#ffe000" stroke="#000" stroke-linecap="round" stroke-linejoin="round" stroke-width="3.205" transform="matrix(-1 0 0 1 951.74358 0)" xlink:href="#flag-va-a"/><path d="M449.705 120.877l-7.02 7.538 4.322 13.038 2.475 9.164-7.099 6.611 12.987 18.045 41.277-3.967 13.264-14.213-5.061-4.566-.113-11.074 4.321-13.038-6.505-6.585-5.872-15.682s-1.229-4.373-2.271-6.373c-.622-1.196-1.492-2.25-2.345-3.296-1.019-1.253-2.048-2.527-3.295-3.553-1.131-.93-2.442-1.624-3.735-2.307-1.392-.734-2.79-1.525-4.313-1.913-1.572-.4-4.849-.394-4.849-.394s-3.274-.007-4.851.394c-1.523.388-2.921 1.18-4.311 1.913-1.296.683-2.606 1.378-3.735 2.307-1.25 1.026-2.279 2.3-3.297 3.553-.85 1.046-1.72 2.1-2.343 3.296-1.042 2-2.27 6.373-2.27 6.373z" fill="#fff" stroke="#000" stroke-linecap="round" stroke-linejoin="round" stroke-width=".82"/><path d="M475.919 173.987a24.983 7.416 0 1 0 0 14.832 24.983 7.416 0 1 0 0-14.832z" fill="red" stroke="#000" stroke-linecap="round" stroke-linejoin="round" stroke-width="1.024"/><path d="M502.597 171.444s-.813-.729-1.27-1.024a16.506 16.506 0 0 0-3.056-1.554c-1.435-.55-2.957-.842-4.454-1.191-1.715-.4-3.434-.804-5.18-1.036a50.626 50.626 0 0 0-6.163-.415c-2.203-.022-6.603.311-6.603.311s-4.395-.333-6.603-.31c-2.06.02-4.122.142-6.164.414-1.745.232-3.465.635-5.18 1.036-1.496.349-3.018.64-4.453 1.19a16.506 16.506 0 0 0-3.056 1.555c-.457.295-1.27 1.024-1.27 1.024m55.99-10.93s-1.327-1.349-2.202-1.515c-.566-.108-1.214.055-1.683.388-.608.432-1.013 1.168-1.192 1.89-.16.648-.09 1.375.156 1.995.208.525.537 1.11 1.061 1.32 1.23.494 3.939-.517 3.939-.517zm1.32-.92c1.485.044 2.026.796 2.42 1.658m-62.267-.738l-.079 3.56s2.71 1.012 3.939.519c.524-.21.853-.796 1.061-1.321.246-.62.316-1.347.156-1.994-.179-.723-.584-1.46-1.191-1.89-.47-.334-1.119-.5-1.684-.389-.882.173-2.202 1.515-2.202 1.515zm-1.32-.92c-1.485.044-2.026.796-2.42 1.658m50.73.345l-2.162-.243m-33.29.243l2.162-.243m19.453.209c-.733-.108-1.945-1.078-1.945-1.078m-5.833 1.078c.733-.108 1.945-1.078 1.945-1.078m36.08-4.952s-1.08.857-1.865.987l-.31.165s-.499 1.467-.938 2.093c-.44.627-1.655 1.6-1.655 1.6s-1.225-1.061-1.982-1.268c-.497-.135-1.066-.139-1.543.055-.505.206-.908.65-1.212 1.103-.36.535-.693 1.173-.663 1.817.036.772.993 2.095.993 2.095l-.66 1.155-.938.608c-1.616-.49-3.233-1.008-4.85-1.93-.443-.484-.86-1.102-1.157-2.313 0 0 1.163-.69 1.432-1.267.303-.65.427-1.538.055-2.15-.413-.681-1.35-1.035-2.147-1.048-.584-.009-1.2.292-1.6.718-.43.457-.762 1.143-.66 1.762.103.632 1.212 1.488 1.212 1.488s-.46 1.166-.982 1.39c-1.54.658-2.555 1.034-3.903 1.242-1.333.206-2.834.375-4.172-.005-.864-.245-1.752-.699-2.295-1.415-.162-.213-.22-.77-.22-.77s1.655-.43 2.315-.937c.655-.504 1.352-1.17 1.487-1.985.136-.82-.3-1.687-.772-2.37-.469-.677-1.173-1.213-1.928-1.543-.34-.149-1.102-.165-1.102-.165s-.161.146-.24.22c-.319.41-.756.733-1.22.975l-.028.018c-.01.006-.032.01-.045.017-.097.049-.191.105-.29.145-.05.021-.13.024-.19.04-.324.11-.632.2-.632.2s.989.306 1.267.7c.172.243.247.54.278.848.038.182.06.367.052.545a3.016 3.016 0 0 1-.18.852c-.089.327-.214.642-.427.895a1.99 1.99 0 0 1-.408.355c-.007.006-.012.014-.02.02s-.022.01-.03.015a3.14 3.14 0 0 1-.865.383c-.35.097-1.071.02-1.097.017.026 0 1.41-.003 1.962-.4.017-.01.034-.023.05-.035.387-.308.666-.762.835-1.25a3.45 3.45 0 0 0 .125-.592c.025-.26.03-.536.003-.805-.084-.406-.271-.8-.567-1.063-.619-.55-2.387-.616-2.41-.617-.028 0-1.79.068-2.408.617-.296.263-.483.657-.567 1.063a4.16 4.16 0 0 0 .003.805c.019.197.071.396.125.592.17.488.448.942.835 1.25l.05.035c.552.398 1.936.4 1.962.4-.026.003-.746.08-1.097-.017a3.17 3.17 0 0 1-.865-.383c-.008-.006-.022-.009-.03-.015l-.02-.02a1.989 1.989 0 0 1-.408-.355c-.212-.253-.338-.568-.427-.895a3.016 3.016 0 0 1-.18-.852 2.266 2.266 0 0 1 .052-.545c.031-.308.108-.605.28-.848.279-.394 1.265-.7 1.265-.7s-.307-.09-.632-.2c-.059-.016-.137-.02-.188-.04-.1-.04-.196-.098-.295-.147-.01-.006-.03-.01-.04-.015l-.022-.015c-.466-.243-.908-.567-1.228-.978-.079-.074-.24-.22-.24-.22s-.76.016-1.1.165c-.754.33-1.461.866-1.93 1.543-.472.683-.908 1.55-.772 2.37.135.815.835 1.48 1.49 1.985.66.507 2.312.937 2.312.937s-.058.557-.22.77c-.542.716-1.43 1.17-2.295 1.415-1.338.38-2.838.211-4.172.005-1.348-.208-2.364-.584-3.903-1.242-.521-.223-.982-1.39-.982-1.39s1.109-.856 1.212-1.488c.102-.62-.23-1.305-.66-1.762-.4-.426-1.013-.727-1.597-.718-.797.013-1.736.367-2.15 1.048-.372.612-.248 1.5.055 2.15.27.578 1.432 1.267 1.432 1.267-.297 1.211-.714 1.83-1.157 2.313-1.617.922-3.234 1.44-4.85 1.93l-.935-.608-.663-1.155s.957-1.323.993-2.095c.03-.644-.303-1.282-.663-1.817-.304-.454-.706-.897-1.212-1.103-.477-.194-1.046-.19-1.543-.055-.757.207-1.982 1.268-1.982 1.268s-1.215-.973-1.655-1.6c-.44-.626-.935-2.093-.935-2.093l-.31-.165c-.786-.129-1.868-.987-1.868-.987l-1.137.24s-1.05.562-1.063 1.062c-.017.691.954 1.003 1.393 1.538.376.458.727.939 1.06 1.43.313.463.728.89.88 1.427.166.588-.25 1.273 0 1.83.314.703.966 1.387 1.72 1.54.67.137 1.942-.66 1.942-.66l-.037 5.09 2.637 2.383 2.49 5.2-.987 1.317.292 2.56c1.916-2.453 5.249-3.53 8.24-4.39 4.028-1.157 11.41-1.24 14.85-1.207 1.147.01 1.858.035 1.858.035s11.34-.37 16.705 1.172c2.991.86 6.325 1.937 8.24 4.39l.292-2.56-.987-1.317 2.49-5.2 2.637-2.383-.037-5.09s1.273.797 1.942.66c.754-.153 1.406-.837 1.72-1.54.25-.557-.166-1.242 0-1.83.153-.538.567-.965.88-1.427.333-.491.686-.972 1.063-1.43.439-.535 1.407-.847 1.39-1.538-.013-.5-1.063-1.062-1.063-1.062l-1.137-.24zm-37.973-.668c.269.252.795.729 1.228.978l.062.03c.13.067.308.128.483.187.746.203 2.031.068 2.06.065h.008c.028.003 1.314.137 2.06-.065a3.69 3.69 0 0 0 .48-.185c.024-.012.048-.022.072-.035.434-.25.953-.724 1.22-.975.134-.172.248-.356.333-.552.296-.681.282-1.565-.053-2.228-.393-.78-1.325-1.151-2.07-1.607-.641-.393-2.025-.954-2.047-.963-.026.01-1.402.57-2.043.963-.745.456-1.678.827-2.072 1.607-.335.663-.348 1.547-.053 2.228.086.196.2.38.333.552z" fill="#ffe000" stroke="#000" stroke-linecap="round" stroke-linejoin="round" stroke-width=".82"/><path d="M507.077 144.989s-2.787-1.296-4.247-1.761c-2.666-.85-5.436-1.336-8.184-1.865-3.191-.615-6.466-.781-9.631-1.521-.996-.233-1.928-.71-2.93-.916-1.382-.285-2.832-.736-4.212-.44-.76.164-2.001 1.173-2.001 1.173s-1.246-1.01-2.002-1.172c-1.38-.299-2.83.154-4.212.44-1.002.206-1.934.682-2.93.915-3.165.74-6.44.906-9.631 1.521-2.747.53-5.518 1.015-8.184 1.865-1.46.465-4.247 1.76-4.247 1.76m50.55-11.55s1.369-.723 1.864-1.295c.329-.38.642-.844.675-1.345.039-.583-.159-1.243-.57-1.658-.4-.403-1.04-.568-1.607-.57-.475-.002-.984.157-1.345.465a2.336 2.336 0 0 0-.778 1.45c-.056.465.13.947.35 1.36.333.627 1.41 1.593 1.41 1.593zm-38.688 0s1.077-.966 1.41-1.593c.22-.413.406-.895.35-1.36a2.336 2.336 0 0 0-.778-1.45c-.361-.308-.87-.466-1.345-.465-.568.002-1.205.167-1.605.57-.41.415-.608 1.075-.57 1.658.033.5.344.965.673 1.345.495.572 1.865 1.295 1.865 1.295zm-10.515 4.61l-3.055 3.987s-.022 1.052.207 1.503c.315.62 1.5 1.45 1.5 1.45l.218 5.475-2.895 5.017-.253.053 1.868.987c.087.015.174.029.252.023 1.121-.088 1.81-1.346 2.785-1.905 1.242-.712 2.563-1.277 3.883-1.83 1.824-.765 3.676-1.468 5.565-2.053 2.381-.737 4.785-1.474 7.252-1.83a36.299 36.299 0 0 1 7.545-.295c1.682.114 4.96.872 4.985.878.022-.005 3.305-.764 4.988-.878a36.006 36.006 0 0 1 7.545.295c2.467.356 4.87 1.093 7.252 1.83 1.89.585 3.741 1.288 5.565 2.053 1.32.553 2.641 1.118 3.883 1.83.975.559 1.664 1.817 2.785 1.905.079.006.166-.008.255-.023l1.865-.987-.253-.053-2.895-5.017.218-5.475s1.187-.83 1.502-1.45c.23-.45.205-1.503.205-1.503l-3.055-3.987s-1.54 1.538-2.537 1.865a2.789 2.789 0 0 1-1.658 0c-.64-.2-1.135-.72-1.657-1.14-1.18-.95-2.362-1.93-3.315-3.108-.546-.674-1.348-2.227-1.348-2.227s-3.304 2.596-5.282 3.107c-1.94.502-4.086.411-6.008-.155-.482-.142-1.287-.785-1.287-.785-2.26-1.439-4.52-2.226-6.765-2.01-2.246-.216-4.506.571-6.765 2.01 0 0-.808.643-1.29.785-1.922.566-4.068.657-6.008.155-1.978-.511-5.282-3.107-5.282-3.107s-.802 1.553-1.348 2.227c-.953 1.177-2.135 2.158-3.315 3.108-.522.42-1.017.94-1.657 1.14a2.789 2.789 0 0 1-1.658 0c-.997-.327-2.537-1.865-2.537-1.865z" fill="#ffe000" stroke="#000" stroke-linecap="round" stroke-linejoin="round" stroke-width=".82"/><path d="M508.388 136.432s.114-1.46-.042-2.165a5.37 5.37 0 0 0-.803-1.812c-.387-.575-1.445-1.496-1.445-1.496m-.367 7.089s.868.031 1.242-.155c.666-.333 1.555-1.605 1.555-1.605s1.705 1.18 2.64 1.035c.461-.071.843-.483 1.088-.88.258-.421.422-.968.312-1.45-.088-.384-.424-.678-.725-.933-.584-.493-1.637-.425-2.02-1.087-.303-.523-.117-1.232.05-1.813.348-1.212 1.216-2.214 1.918-3.262.445-.666 1.355-1.122 1.45-1.918.05-.43-.518-1.192-.518-1.192s-1.337-.03-1.967.157c-1.044.311-2.127.767-2.868 1.565-.616.664-.799 1.63-1.122 2.475-.246.643-.62 1.968-.62 1.968s-1.547-.003-2.228.31c-.9.414-1.82 1.064-2.227 1.967-.32.709-.275 1.606 0 2.333.276.732.894 1.34 1.555 1.76.728.463 2.485.725 2.485.725zm-60.086-7.089s-1.059.92-1.446 1.496a5.37 5.37 0 0 0-.803 1.812c-.156.705-.041 2.165-.041 2.165m-4.336-11.644s-.569.762-.517 1.192c.095.796 1.004 1.252 1.45 1.918.7 1.048 1.569 2.05 1.917 3.262.167.581.353 1.29.05 1.813-.383.662-1.436.594-2.02 1.087-.3.255-.637.55-.725.933-.11.482.054 1.029.313 1.45.244.397.626.809 1.087.88.935.144 2.64-1.035 2.64-1.035s.889 1.272 1.555 1.605c.374.186 1.243.155 1.243.155s1.758-.262 2.487-.725c.661-.42 1.276-1.028 1.553-1.76.274-.727.319-1.624 0-2.333-.408-.903-1.328-1.553-2.228-1.967-.68-.313-2.227-.31-2.227-.31s-.374-1.325-.62-1.968c-.324-.845-.507-1.811-1.123-2.475-.74-.798-1.824-1.254-2.867-1.565-.631-.187-1.968-.157-1.968-.157zm34.72 3.665l2.131-.624 2.132.624m-3.71 5.141s-1.66-1.513-1.969-2.538c-.135-.447-.115-.985.104-1.398.299-.565 1.502-1.191 1.502-1.191s-1.814-.882-2.279-1.71c-.263-.468-.296-1.086-.155-1.605.223-.823.844-1.529 1.502-2.072.815-.674 2.873-1.347 2.873-1.347s2.055.671 2.874 1.347c.658.543 1.279 1.249 1.502 2.072.141.519.108 1.137-.155 1.605-.465.828-2.279 1.71-2.279 1.71s1.203.626 1.502 1.19c.219.414.239.952.104 1.4-.31 1.024-1.969 2.537-1.969 2.537l-1.579.104zm5.803-6.883s3.44 1.466 4.606 2.843c.325.384.602.896.57 1.399-.115 1.782-2.642 4.661-2.642 4.661l-5.102-2.12h-3.313l-5.102 2.12s-2.527-2.88-2.641-4.661c-.033-.503.244-1.015.57-1.399 1.165-1.377 4.604-2.843 4.604-2.843" fill="#ffe000" stroke="#000" stroke-linecap="round" stroke-linejoin="round" stroke-width=".82"/><path d="M472.156 103.89l2.062-1.587 1.666.036-1.704-.037s-.92-.626-1.172-1.099c-.245-.458-.362-1.029-.256-1.538.141-.68.534-1.397 1.133-1.747.573-.334 1.986-.12 1.986-.12s1.408-.216 1.985.12c.6.35.992 1.068 1.133 1.747.106.51-.01 1.08-.256 1.538-.253.473-1.172 1.1-1.172 1.1l-1.704.036 1.666-.036 2.062 1.587m13.462 1.298l-.686 1.191m8.354-5.12l-1.924.25m2.18 2.254l-2.949.155m-.383-3.52c.375.24 1.063.733 1.176 1.187.198.801-.173 1.81-.804 2.342-.611.516-2.368.385-2.368.385m-46.513 8.598s2.891-.722 4.34-1.07c2.07-.496 4.122-1.074 6.216-1.45a67.946 67.946 0 0 1 7.17-.91c2.997-.214 9.015-.146 9.015-.146s6.013-.068 9.015.146c2.403.172 4.799.484 7.17.91 2.094.376 4.146.954 6.215 1.45 1.449.348 4.34 1.07 4.34 1.07m-43.917-7.722l.686 1.191m-8.354-5.12l1.924.25m-2.18 2.254l2.95.155m-1.659 4.116s3.211-.816 4.833-1.154c1.772-.369 3.551-.722 5.347-.952 2.065-.265 4.147-.398 6.227-.494 2.465-.113 7.403-.094 7.403-.094s4.933-.02 7.402.094c2.08.096 4.162.229 6.227.494 1.796.23 3.575.583 5.348.952 1.62.338 4.832 1.154 4.832 1.154m-43.582-3.722s-1.757.13-2.368-.385c-.631-.532-1.002-1.54-.804-2.342.157-.63 1.421-1.334 1.421-1.334m16.163 18.944c-3.066.185-6.146.378-9.167.933-3.147.578-6.268 1.381-9.271 2.486-2.845 1.046-5.855 5.796-8.217 3.897-.507-.409.193-1.302.44-1.905.477-1.166 1.134-2.287 1.977-3.223.618-.685 2.042-.775 2.198-1.684.113-.661-.89-1.048-1.099-1.685-.267-.813-.394-1.744-.146-2.564.317-1.052 1.67-1.582 1.977-2.637.267-.917-.652-2.005-.22-2.856.547-1.076 2.903-.712 3.077-1.905.085-.582-.98-.763-1.172-1.318-.136-.393.08-.83.073-1.246-.008-.563.1-1.178-.146-1.684-.22-.45-.948-.548-1.099-1.026-.143-.452-.044-1.058.293-1.392.266-.262.93.114 1.099-.22.34-.671-.65-1.36-.952-2.05-.36-.823-.821-1.616-1.026-2.49-.162-.692-.757-1.764-.146-2.125.7-.414 1.402.83 2.05 1.319.857.645 1.82 1.233 2.418 2.124.43.643.19 1.666.755 2.196.677.635 1.986.125 2.687.734.604.523 1.137 1.42.953 2.197-.177.742-1.928.722-1.758 1.465.202.883 1.744.814 2.637.66.52-.09.886-.576 1.318-.88.336-.236.612-.571.989-.732.433-.185 1.392-.238 1.392-.238l-.55-.128s-.812-.647-.897-1.117c-.08-.443.112-.956.421-1.282.347-.366.906-.553 1.41-.55.422.003.882.17 1.172.477.297.314.467.797.421 1.226-.04.376-.288.738-.586.971-.322.253-1.172.366-1.172.366l.586.165 1.575 2.16 6.794-.371s.838-.855.673-1.321c-.176-.5-.64-.683-1.45-.648-2.197.097-2.647-1.748-2.564-3.081.07-1.11 1.404-1.863 2.435-2.28.992-.4 2.761.92 3.21-.051.395-.852-1.488-1.285-1.786-2.175-.129-.386-.13-.854.052-1.218.464-.927 1.462-1.543 2.408-1.968.399-.179 1.294-.207 1.294-.207s.892.027 1.295.207c.946.424 1.944 1.041 2.408 1.968.182.364.18.832.052 1.218-.298.89-2.181 1.323-1.787 2.175.45.971 2.219-.35 3.211.052 1.03.416 2.365 1.17 2.434 2.279.084 1.333-.367 3.178-2.563 3.081-.81-.035-1.274.149-1.45.648-.165.466.673 1.32.673 1.32l6.794.373 1.574-2.161.586-.165s-.85-.113-1.172-.366c-.297-.233-.545-.595-.585-.97-.046-.43.123-.913.42-1.227.29-.307.751-.474 1.173-.477.504-.004 1.063.184 1.41.55.309.326.501.84.42 1.282-.084.47-.896 1.117-.896 1.117l-.55.128s.96.053 1.392.238c.377.161.653.496.989.732.432.304.798.79 1.318.88.893.154 2.435.223 2.637-.66.17-.743-1.581-.723-1.758-1.465-.185-.776.35-1.674.952-2.197.702-.609 2.01-.1 2.688-.734.565-.53.324-1.553.755-2.196.597-.891 1.56-1.479 2.417-2.124.65-.49 1.352-1.733 2.051-1.319.611.361.015 1.433-.146 2.124-.205.875-.666 1.668-1.026 2.49-.302.691-1.293 1.38-.952 2.052.169.333.833-.043 1.099.22.337.333.436.94.293 1.391-.151.478-.88.575-1.099 1.026-.247.506-.139 1.12-.146 1.684-.006.416.21.853.073 1.246-.193.555-1.257.736-1.172 1.318.174 1.193 2.53.83 3.076 1.905.433.851-.486 1.94-.22 2.856.308 1.055 1.66 1.585 1.978 2.637.248.82.121 1.75-.146 2.564-.21.637-1.212 1.024-1.099 1.685.156.91 1.58.999 2.197 1.684.844.936 1.5 2.057 1.978 3.223.247.603.947 1.496.44 1.905-2.362 1.9-5.372-2.851-8.217-3.897-3.003-1.105-6.124-1.908-9.271-2.486-3.021-.555-6.101-.748-9.168-.933-1.783-.107-5.36-.103-5.36-.103s-3.571-.004-5.36.103zm7.97-34.21l-2.608.03-2.607-.03m4.335-8.673c.676-1.434-.506-2.496-1.728-3.547-1.222 1.051-2.404 2.113-1.727 3.547m3.6 11.963c.998.073 2.21 1.093 2.967.44.342-.296.173-.938 0-1.356-.403-.973-2.153-1.184-2.234-2.234-.07-.905 1.329-1.334 1.612-2.197.14-.43.174-.938 0-1.355-.705-1.684-3.71-1.78-4.231-3.502-.23-.764 1.518-1.663 1.74-1.759 1.111-.48 2.485.68 3.581.205.743-.322 1.568-1.056 1.554-1.865-.015-.88-.954-1.617-1.76-1.968-1.564-.68-4.153 1.512-5.115.104-.886-1.296 2.212-2.837 1.8-4.351-.197-.72-1.787-1.347-1.787-1.347s-1.588.624-1.786 1.347c-.416 1.513 2.685 3.055 1.8 4.35-.962 1.409-3.551-.783-5.115-.103-.807.351-1.745 1.088-1.76 1.968-.015.81.81 1.543 1.553 1.865 1.097.476 2.47-.686 3.58-.205.223.096 1.972.995 1.742 1.759-.521 1.722-3.527 1.818-4.231 3.502-.175.417-.14.926 0 1.355.282.863 1.68 1.292 1.611 2.197-.08 1.05-1.83 1.261-2.234 2.234-.173.418-.342 1.06 0 1.356.757.653 1.97-.367 2.967-.44.622-.046 1.873 0 1.873 0s1.246-.046 1.874 0z" fill="#ffe000" stroke="#000" stroke-linecap="round" stroke-linejoin="round" stroke-width=".82"/><path d="M500.157 176.659s-1.831-.773-2.765-1.112c-1.69-.611-3.395-1.185-5.128-1.657-1.69-.46-3.388-.944-5.128-1.14-3.731-.418-11.264-.051-11.264-.051s-7.529-.367-11.265.052c-1.74.195-3.438.68-5.127 1.139-1.734.472-3.44 1.046-5.128 1.657-.934.339-2.766 1.111-2.766 1.111m51.686-56.96s-3.06-1.217-4.614-1.757c-1.306-.454-2.613-.917-3.956-1.246-1.637-.4-3.31-.65-4.98-.879a96.412 96.412 0 0 0-7.247-.712c-2.198-.134-6.603-.156-6.603-.156s-4.401.022-6.603.156a96.386 96.386 0 0 0-7.247.712c-1.67.23-3.343.479-4.98.88-1.343.328-2.65.79-3.956 1.245-1.555.54-4.615 1.757-4.615 1.757m-3.624 30.825s4.495-1.515 6.76-2.22c2.337-.726 4.652-1.551 7.044-2.071 2.863-.622 5.788-.93 8.701-1.243 2.831-.305 8.52-.622 8.52-.622s5.684.316 8.52.622c2.912.314 5.838.62 8.7 1.243 2.392.52 4.708 1.345 7.045 2.072 2.264.704 6.76 2.22 6.76 2.22" fill="none" stroke="#000" stroke-linecap="round" stroke-linejoin="round" stroke-width=".82"/><g fill="#ccc" stroke="#000" stroke-linejoin="round" stroke-width="3.205" transform="matrix(.256 0 0 .256 -.0002 -67.43724)"><g id="flag-va-g"><path d="M1533.28 904.042l101.171 86.713s-5.133 11.214-7.279 16.99c-1.979 5.326-3.817 10.726-5.146 16.251-1.958 8.145-4.135 24.789-4.135 24.789L1499.95 940.75c1.673-24.69 15.567-33.488 33.331-36.708zm-14.29 54.155l-24.283 27.167 15.164 14.593-23.462 22.89-15.165-15.165-25.514 27.202-.237 33.743 58.084 45.494 20.029-14.879-1.145-32.332 15.45 8.584 15.452-9.443.858 29.185-12.59-9.156-13.734 18.026-1.43 32.046 43.777 38.913 53.05-47.079-4.009-14.112-2.305-12.678-1.247-25.129 1.98-27.44z"/><path d="M1494.71 985.364l-.621 29.993 15.643-15.261z"/><path d="M1571.935 1140.425l-1.82 34.263m-18.61-139.676l.644 31.785m-14.81-17.34l.83 25.884m-14.426-36.34l.542 28.925m-21.435 15.224l.312 30.648m24.737-9.675l44.063 36.897 45.056-39.54M1446 1034.605l57.579 49.193 18.884-16.881-14.879-12.59 16.596-15.737 12.875 11.16 14.593-14.88 18.884 18.313-17.15 13.447 16.005 14.593-15.164 14.02" fill="none"/><path d="M1901.35 1229.35l48.602 44.58 10.763 31.428-62.642-6.673-35.663-35.277-37.97-35.175-164.039-142.138s3.479-13.101 5.635-19.522c3.124-9.3 6.867-18.384 10.565-27.472.928-2.28 2.915-6.785 2.915-6.785l183.014 162.24z"/><path d="M1942.67 1236.04c27.095 37.868 72.691 73.638 86.537 90.842 13.845 17.203 22.764 33.54 2.583 55.538-20.182 21.998-43.064 9.515-61.136-2.583-18.07-12.099-49.602-51.303-94.716-81.37z"/><path d="M1926.7 1299.75l-35.17-15.874m40.929-38.287c2.423 7.965.574 16.774 3.624 24.416 3.015 7.555 14.022 19.973 14.022 19.973s-6.998.978-10.262 2.245c-4.73 1.838-11.956 2.71-13.172 7.638-1.063 4.309 4.062 8.026 7.09 11.27 2.905 3.112 6.645 5.372 10.316 7.526 6.137 3.6 12.391 7.654 19.393 8.917 8.765 1.58 25.13-10.756 26.647-1.98.631 3.65-7.39 1.313-10.713 2.946-7.758 3.813-11.65 12.118-4.82 17.894 4.384 3.71 11.274 2.347 16.998 2.821 5.49.455 11.758-2.745 16.523.016 5.61 3.25 12.668 11.106 9.692 16.867-3.063 5.928-14.484 5.77-19.927 1.91-4.025-2.854-2.947-9.474-3.542-14.371-.177-1.458 0-2.937 0-4.406m160.337 1.189a129.687 129.687 0 1 0 0 259.374 129.687 129.687 0 1 0 0-259.374z"/><path d="M2106.13 1485.65c-22.355 0-40.478 18.123-40.478 40.478 0 22.356 18.123 40.478 40.478 40.478s40.478-18.122 40.478-40.478l14.026-.609c0 22.356 18.123 40.478 40.478 40.478 22.356 0 40.478-18.122 40.478-40.478 0-22.355-18.122-40.478-40.478-40.478l.61-7.937c22.355 0 40.477-18.123 40.477-40.478 0-22.356-18.122-40.479-40.478-40.479-22.355 0-40.478 18.123-40.478 40.479l-14.026-1.218c0-22.356-18.123-40.478-40.478-40.478-22.356 0-40.478 18.122-40.478 40.478 0 22.355 18.122 40.478 40.478 40.478z" fill="#fff"/><path d="M2154.667 1431.439a14.613 14.613 0 1 0 0 29.226 14.613 14.613 0 1 0 0-29.226zm34.7 34.096a14.613 14.613 0 1 0 0 29.226 14.613 14.613 0 1 0 0-29.226zm-34.09 31.052a14.613 14.613 0 1 0 0 29.226 14.613 14.613 0 1 0 0-29.226zm-35.93-31.052a14.613 14.613 0 1 0 0 29.226 14.613 14.613 0 1 0 0-29.226z"/><path d="M2152.23 1558.42c-5.338 10.957-12.62 15.941-21.919 21.919 13.247 5.754 29.4 4.697 43.838 0-9.299-4.65-16.041-11.996-21.919-21.919zm-76.579-80.232c-10.956-5.338-15.94-12.62-21.919-21.919-5.753 13.248-4.696 29.4 0 43.838 4.65-9.299 11.996-16.041 21.92-21.919zm159.246 3.653c10.957-5.337 15.941-12.62 21.92-21.919 5.753 13.248 4.696 29.4 0 43.838-4.65-9.298-11.996-16.041-21.92-21.919zm-78.405-80.84c-5.338-10.957-12.62-15.941-21.919-21.92 13.248-5.753 29.4-4.696 43.838 0-9.299 4.65-16.041 11.997-21.919 21.92z" fill="#fff"/></g><g fill="#ffe000"><g id="flag-va-h"><path d="M1533.48 903.819s.703-5.061 0-7.44c-1.144-3.868-3.574-7.467-6.58-10.157-2.544-2.275-5.808-3.923-9.157-4.578-3.615-.706-7.464-.115-11.016.859-2.42.663-6.753 3.322-6.753 3.322l-14.85 6.12-5.51 17.667s-3.174 5.58-3.931 8.656c-.81 3.293-1.41 6.871-.573 10.158.983 3.86 3.232 7.611 6.295 10.157 2.833 2.355 6.627 3.73 10.3 4.006 2.827.213 8.298-1.86 8.298-1.86 1.58-18.611 9.856-32.813 33.477-36.91z"/><path d="M1500.27 885.645l-38.753-17.02-3.147 3.005 21.118 38.201s5.925-8.738 9.354-12.736c3.51-4.093 11.428-11.45 11.428-11.45z"/><path d="M1457.292 849.312a15.951 15.951 0 1 0 0 31.902 15.951 15.951 0 1 0 0-31.902zm108.898 82.944c3.39 27.952 7.322 55.904 16.025 83.856l31.069 28.46c-6.625-29.232-18.443-58.464-18.369-87.695z"/><path d="M1613.05 972.415l-85.487-6.369 27.2 24.916 78.068 3.38 1.147-3.99zm105.31 94.505c-22.445 8.46-31.418 22.309-37.857 37.171-6.353.56-12.306.618-14.41-4.133 5.347-34.7 30.21-45.552 35.753-47.747 14.95-2.825 12.178 8.85 16.514 14.709zm27.52 25.9c-22.445 8.46-31.418 22.309-37.857 37.171-6.353.559-12.306.618-14.41-4.134 5.347-34.7 30.21-45.55 35.753-47.746 14.95-2.825 12.179 8.85 16.514 14.709zm312.78 261.87c-7.337-.202-15.078 1.504-15.078 1.504.303 8.02-2.946 16.583-11.797 26.23-7.64 8.327-15.666 11.704-23.672 12.041l-.01.01s-2.84 17.652 2.588 23.252c6.356 6.558 27.12 3.877 27.12 3.877l1.767-1.132a129.688 129.688 0 0 1 31.914-39.795l.332-1.26s3.038-16.523-2.149-21.5c-2.35-2.27-6.613-3.072-11.015 0zm195.857 3.077a17.657 17.657 0 1 0 0 35.314 17.657 17.657 0 1 0 0-35.314zm6.09 204.577a17.657 17.657 0 1 0 0 35.314 17.657 17.657 0 1 0 0-35.314zm-198.49 11.569a17.657 17.657 0 1 0 0 35.314 17.657 17.657 0 1 0 0-35.314z"/></g></g></g><g fill="#ffe000" stroke="#000" stroke-linejoin="round" stroke-width="3.205" transform="matrix(-.256 0 0 .256 951.87333 -67.43724)"><use xlink:href="#flag-va-g"/><use fill="#ccc" xlink:href="#flag-va-h"/></g><g fill="#fa0204" stroke="#000" stroke-linejoin="round" stroke-width="3.205" transform="matrix(.256 0 0 .256 -.0002 -67.43724)"><path d="M1869.19 1175.78c0 5.38-4.5 7.458-13.243 7.458s-12.786-2.534-12.786-7.915c0-5.38 4.043-6.697 12.786-6.697 8.743 0 13.243 1.774 13.243 7.154z" id="flag-va-1"/><use x="6.391" y="14.309" xlink:href="#flag-va-1"/><path d="M1877.34 1208.69c-1.772 5.08-6.705 5.56-14.96 2.681-8.255-2.88-11.238-6.605-9.466-11.685 1.772-5.08 6.023-4.992 14.278-2.112 8.255 2.879 11.92 6.036 10.148 11.116z"/><path d="M1877.51 1222.51c-1.065 5.274-5.887 6.42-14.457 4.69-8.57-1.731-12.031-5.016-10.966-10.29 1.065-5.274 5.289-5.765 13.858-4.034 8.57 1.73 12.63 4.36 11.565 9.634z" id="flag-va-2"/><use x="3.96" y="16.142" xlink:href="#flag-va-2"/><path d="M1921.73 1216.2c-2.59-.691-2.303-5.303-1.583-7.886 1.107-3.968 8.354-9.11 8.354-9.11s1.767 5.563.95 8.185c-1.162 3.729-3.948 9.818-7.721 8.811z"/><path d="M1912.29 1224.42c-2.822-.622-3.182-5.523-2.444-8.316 1.142-4.324 9.645-9.325 9.645-9.325s1.477 6.041.52 8.83c-1.267 3.694-3.907 9.651-7.721 8.811zm-10.77 15.59c-4.292-1.138-3.805-8.762-2.66-13.052.947-3.543 3.716-9.12 7.278-8.249 4.167 1.018 4.115 8.321 3.103 12.49-.92 3.795-3.947 9.812-7.721 8.811z"/><path d="M1888.73 1252.19c-4.214-.926-6.007-7.638-5.164-11.87.885-4.442 5.36-10.41 9.782-9.431 4.463.988 6.005 8.353 4.93 12.795-1.004 4.143-5.385 9.421-9.548 8.506zm-2.22 7.39c-1.077 5.087-7.504 6.86-11.461 5.57-4.154-1.356-9.579-7.187-8.442-12.525 1.147-5.385 8.179-6.813 12.324-5.225 3.866 1.48 8.643 7.155 7.579 12.18zm-85.04-49.29s5.138 2.531 7.349 4.792c2.32 2.373 5.11 3.322 3.709 6.923-1.415 3.634-5.843 2.388-8.127-.156-2.13-2.372-2.931-11.559-2.931-11.559zm25.37 8.77c5.212 1.047 5.108 7.12 2.443 10.847-2.797 3.91-10.883 8.992-16.349 7.887-5.515-1.116-4.844-7.758-1.795-11.658 2.843-3.638 10.553-8.11 15.701-7.076z"/><path d="M1844.26 1230.55c4.853 2.169 3.415 8.07 0 11.118-3.59 3.199-12.597 6.375-17.685 4.093-5.134-2.302-3.016-8.633.816-11.767 3.575-2.922 12.08-5.586 16.874-3.444z" id="flag-va-3"/><use x="13.998" y="10.661" xlink:href="#flag-va-3"/><path d="M1862.97 1250.68c4.787.754 6.069 7.415 4.585 11.696-1.56 4.494-7.474 10.67-12.496 9.87-5.068-.806-5.982-8.132-4.2-12.634 1.66-4.199 7.383-9.678 12.112-8.932z"/><path d="M1875.1 1265.33c3.965 2.308 3.033 9.59.41 13.533-2.754 4.14-9.845 8.622-14.002 6.194-4.195-2.451-2.735-10.302.216-14.38 2.752-3.8 9.46-7.626 13.377-5.347zm-86.08-39.89c4.244-.376 7.182 5.965 7.127 10.585-.06 4.85-3.317 12.403-7.771 12.79-4.495.39-7.309-6.7-7.065-11.611.227-4.58 3.518-11.393 7.71-11.765z"/><path d="M1802.91 1237.65c4.157.932 5.027 7.867 3.57 12.251-1.532 4.602-6.933 10.806-11.294 9.82-4.4-.995-4.924-8.606-3.198-13.21 1.609-4.293 6.817-9.782 10.923-8.861z"/><path d="M1815.79 1246.24c4.921 1.158 5.952 9.77 4.226 15.215-1.814 5.716-8.208 13.42-13.37 12.196-5.21-1.236-5.83-10.689-3.787-16.406 1.905-5.332 8.07-12.15 12.932-11.005z"/><path d="M1826.22 1256.8c5.014-.644 9.005 7.057 9.301 12.761.31 5.988-2.97 15.448-8.234 16.115-5.312.673-9.213-7.96-9.309-14.03-.089-5.661 3.29-14.21 8.243-14.847z"/><path d="M1838.59 1265.66c4.556-.534 8.182 5.85 8.451 10.578.282 4.964-2.699 12.805-7.482 13.358-4.826.558-8.371-6.598-8.458-11.63-.08-4.693 2.989-11.779 7.49-12.307z" id="flag-va-4"/><use x="12.788" y="10.35" xlink:href="#flag-va-4"/><path d="M1929.28 1250.88c-3.243 2.846-9.712.313-12.621-2.874-3.054-3.345-5.21-10.486-1.801-13.468 3.44-3.01 10.287.112 13.228 3.61 2.742 3.264 4.398 9.92 1.194 12.732z" id="flag-va-5"/><use x="-6.999" y="12.792" xlink:href="#flag-va-5"/><use x="-19.479" y="23.452" xlink:href="#flag-va-5"/><path d="M1905.19 1281.18c-1.138 4.162-7.933 5.613-12.116 4.557-4.392-1.11-10.126-5.88-8.924-10.247 1.213-4.407 8.646-5.575 13.028-4.276 4.086 1.212 9.137 5.855 8.012 9.966z"/><path d="M1887.18 1278.19c3.641 2.539 2.786 10.55.377 14.889-2.53 4.554-9.042 9.485-12.86 6.813-3.853-2.696-2.512-11.334.198-15.819 2.528-4.182 8.689-8.39 12.286-5.883z"/><path d="M1869.62 1287.55c3.965 2.308 3.033 9.59.41 13.533-2.754 4.14-9.844 8.622-14.002 6.194-4.195-2.451-2.735-10.302.216-14.38 2.752-3.8 9.46-7.626 13.377-5.347z"/><path d="M1831.34 1312.91c-3.392 3.235-.755 11.272 2.773 15.282 3.706 4.209 11.795 8.104 15.349 4.703 3.586-3.433.292-12.024-3.594-16.132-3.624-3.83-11.179-7.048-14.53-3.853z" id="flag-va-6"/><use x="-7.319" y="13.781" xlink:href="#flag-va-6"/><path d="M1820.83 1339.55c-4.348 1.749-4.876 10.19-3.083 15.222 1.883 5.282 7.954 11.896 12.516 10.053 4.602-1.861 4.724-11.061 2.635-16.315-1.948-4.9-7.774-10.687-12.069-8.96z" id="flag-va-7"/><use x="-10.548" y="14.852" xlink:href="#flag-va-7"/><path d="M1802.66 1371.04c-4.57 1.037-6.43 9.289-5.458 14.54 1.022 5.515 5.967 13.008 10.763 11.91 4.84-1.107 6.419-10.171 5.19-15.69-1.147-5.147-5.981-11.785-10.496-10.76z" id="flag-va-8"/><use x="-10.121" y="15.932" xlink:href="#flag-va-8"/><path d="M1784.06 1403.3c-4.684.171-8.042 7.935-8.06 13.276-.02 5.608 3.451 13.888 8.367 13.7 4.961-.19 8.194-8.805 8.01-14.456-.172-5.27-3.692-12.69-8.318-12.52z" id="flag-va-9"/><use x="-10.33" y="19.16" xlink:href="#flag-va-9"/><use x="-22.39" y="37.02" xlink:href="#flag-va-9"/><use x="-34.87" y="52.31" xlink:href="#flag-va-9"/><use x="-47.79" y="66.51" xlink:href="#flag-va-9"/><use x="-61.99" y="78.14" xlink:href="#flag-va-9"/><use x="-75.56" y="90.62" xlink:href="#flag-va-9"/><path d="M1692.79 1500.17l-5.262 20.595s2.935 7.335 6 7.026c5.48-.552 6.964-9.047 8.01-14.455.947-8.424-8.748-13.166-8.748-13.166zm324.42 13.08c1.61 6.124 15.26 11.314 15.26 11.314l-6.651-27.758c-5.717.154-9.495 12.436-8.609 16.444z"/><path d="M2016.01 1490.95c-4.359-1.722-10.549 4.043-12.709 8.928-2.266 5.13-2.409 14.107 2.17 15.906 4.62 1.815 11.038-4.779 13.136-10.03 1.956-4.896 1.708-13.104-2.597-14.805z"/><path d="M2000.82 1478.67c-4.68-.243-8.711 7.193-9.202 12.512-.514 5.584 2.21 14.139 7.124 14.385 4.958.249 8.94-8.046 9.256-13.691.295-5.265-2.556-12.966-7.179-13.207z" id="flag-va-10"/><use x="-13.4" y="-13.7" xlink:href="#flag-va-10"/><use x="-25.88" y="-29.23" xlink:href="#flag-va-10"/><use x="-38.66" y="-42.32" xlink:href="#flag-va-10"/><use x="-49.01" y="-60.28" xlink:href="#flag-va-10"/><use x="-60.28" y="-76.41" xlink:href="#flag-va-10"/><use x="-70.63" y="-93.46" xlink:href="#flag-va-10"/><use x="-79.76" y="-113.25" xlink:href="#flag-va-10"/><use x="-89.81" y="-131.21" xlink:href="#flag-va-10"/><use x="-98.03" y="-152.52" xlink:href="#flag-va-10"/><path d="M1883.85 1304.56s-1.647 26.676 8.037 28.389c6.039 1.068 10.779-14.91 10.779-14.91z"/><path d="M1862.02 1610.75c-2.878 3.699.914 11.26 4.995 14.706 4.285 3.617 12.86 6.278 15.874 2.39 3.041-3.924-1.483-11.936-5.931-15.426-4.15-3.254-12.096-5.324-14.939-1.67z" id="flag-va-11"/><use x="18.3" y="-2.15" xlink:href="#flag-va-11"/><use x="36.81" y="-5.81" xlink:href="#flag-va-11"/><path d="M1916.18 1603.8c-2.29 4.09 2.594 10.995 7.147 13.79 4.78 2.932 13.656 4.275 16.052-.021 2.418-4.336-3.258-11.578-8.18-14.36-4.59-2.595-12.758-3.448-15.02.591z" id="flag-va-12"/><use x="20.02" y="-3.22" xlink:href="#flag-va-12"/><path d="M1953.48 1595.43c-1.903 4.283 3.598 10.709 8.389 13.071 5.03 2.479 13.993 2.997 15.982-1.503 2.007-4.54-4.313-11.228-9.47-13.544-4.811-2.159-13.023-2.254-14.902 1.976z" id="flag-va-13"/><use x="18.94" y="-5.59" xlink:href="#flag-va-13"/><path d="M1991.26 1583.89c-1.646 4.388 4.225 10.477 9.147 12.553 5.167 2.177 14.145 2.164 15.865-2.445 1.735-4.651-4.968-10.953-10.255-12.96-4.93-1.872-13.132-1.482-14.758 2.852z" id="flag-va-14"/><use x="19.16" y="-6.24" xlink:href="#flag-va-14"/><use x="37.67" y="-13.99" xlink:href="#flag-va-14"/><use x="57.48" y="-22.17" xlink:href="#flag-va-14"/><use x="77.5" y="-28.63" xlink:href="#flag-va-14"/><use x="79.87" y="-44.34" xlink:href="#flag-va-14"/><path d="M2066.71 1534.88s13.55 1.992 14.79-2.875c1.645-6.462-15.422-12.745-15.422-12.745z"/><path d="M1701.62 1575.59c-3.986 2.465-3.066 10.873-.44 15.525 2.756 4.883 9.866 10.365 14.046 7.77 4.218-2.619 2.768-11.705-.186-16.526-2.756-4.495-9.483-9.204-13.421-6.77z" id="flag-va-15"/><use x="18.94" y="7.75" xlink:href="#flag-va-15"/><use x="37.03" y="10.55" xlink:href="#flag-va-15"/><use x="56.83" y="15.5" xlink:href="#flag-va-15"/><use x="74.7" y="18.08" xlink:href="#flag-va-15"/><use x="92.35" y="21.74" xlink:href="#flag-va-15"/><use x="110.43" y="26.69" xlink:href="#flag-va-15"/><use x="128.3" y="29.92" xlink:href="#flag-va-15"/><use x="146.6" y="32.72" xlink:href="#flag-va-15"/><path d="M1648.16 1517.51c-4.167-2.145-10.898 2.977-13.531 7.625-2.764 4.879-3.796 13.797.582 16.041 4.418 2.265 11.457-3.66 14.065-8.677 2.433-4.678 3-12.87-1.116-14.99z"/><path d="M1642.01 1534.4c-4.415-1.572-10.405 4.4-12.396 9.357-2.09 5.204-1.926 14.18 2.711 15.822 4.68 1.657 10.868-5.153 12.786-10.472 1.788-4.96 1.26-13.155-3.102-14.708z"/><path d="M1647.74 1549.94c-4.54-1.165-9.963 5.326-11.496 10.443-1.61 5.372-.632 14.297 4.135 15.51 4.811 1.226 10.356-6.117 11.783-11.588 1.33-5.102.061-13.215-4.423-14.366z"/><path d="M1662.37 1556.31c-4.499-1.313-10.132 4.998-11.832 10.062-1.784 5.316-1.099 14.268 3.626 15.637 4.769 1.382 10.55-5.775 12.156-11.197 1.497-5.056.493-13.206-3.95-14.503z"/><path d="M1671.91 1558.81c-4.547 1.134-6.232 9.423-5.148 14.653 1.138 5.491 6.242 12.878 11.013 11.68 4.815-1.21 6.202-10.306 4.856-15.798-1.256-5.121-6.23-11.655-10.722-10.535z" id="flag-va-16"/><use x="16.79" y="6.24" xlink:href="#flag-va-16"/><use x="8.611" y="-11.189" xlink:href="#flag-va-6"/><use x="4.66" y="6.47" xlink:href="#flag-va-6"/><use x="4.911" y="26.679" xlink:href="#flag-va-6"/><use x="4.66" y="47.87" xlink:href="#flag-va-6"/><use x="5.57" y="68.57" xlink:href="#flag-va-6"/><use x="2.22" y="87.75" xlink:href="#flag-va-6"/><use x="4.66" y="109.06" xlink:href="#flag-va-6"/><use x="2.22" y="126.41" xlink:href="#flag-va-6"/><use x="4.66" y="143.46" xlink:href="#flag-va-6"/><use x="4.66" y="163.86" xlink:href="#flag-va-6"/><use x="3.44" y="183.95" xlink:href="#flag-va-6"/><use x="3.74" y="203.13" xlink:href="#flag-va-6"/><use x="4.35" y="223.52" xlink:href="#flag-va-6"/><use x="4.35" y="243.31" xlink:href="#flag-va-6"/><use x="3.74" y="263.1" xlink:href="#flag-va-6"/><use x="2.52" y="283.19" xlink:href="#flag-va-6"/><use x="2.52" y="305.11" xlink:href="#flag-va-6"/><use x="1.92" y="327.94" xlink:href="#flag-va-6"/><use x="1.92" y="349.25" xlink:href="#flag-va-6"/><use x="1.92" y="369.04" xlink:href="#flag-va-6"/><use x="1.31" y="391.27" xlink:href="#flag-va-6"/><path d="M1882.24 1303.18c2.442 3.707-1.32 10.832-5.164 13.97-4.036 3.293-11.911 5.463-14.468 1.566-2.58-3.931 1.863-11.458 6.042-14.62 3.896-2.95 11.178-4.577 13.59-.916z" id="flag-va-17"/><use x="2.74" y="16.13" xlink:href="#flag-va-17"/><use x="2.43" y="34.1" xlink:href="#flag-va-17"/><use x="2.13" y="52.36" xlink:href="#flag-va-17"/><use x="1.82" y="69.11" xlink:href="#flag-va-17"/><use x="2.74" y="87.07" xlink:href="#flag-va-17"/><use x="1.52" y="104.42" xlink:href="#flag-va-17"/><path d="M1883.25 1426.06c2.696 3.834-1.456 11.203-5.7 14.448-4.454 3.406-13.147 5.65-15.97 1.62-2.848-4.066 2.057-11.85 6.67-15.12 4.3-3.05 12.338-4.735 15.001-.948z"/><path d="M1882.09 1443.58c3.392 3.235.755 11.272-2.773 15.282-3.706 4.209-11.795 8.104-15.349 4.702-3.586-3.432-.292-12.024 3.594-16.13 3.624-3.83 11.179-7.049 14.529-3.854z" id="flag-va-18"/><use x=".61" y="20.4" xlink:href="#flag-va-18"/><use x=".92" y="40.49" xlink:href="#flag-va-18"/><use x=".31" y="62.11" xlink:href="#flag-va-18"/><use x=".92" y="82.2" xlink:href="#flag-va-18"/><use x=".31" y="102.6" xlink:href="#flag-va-18"/><use x=".61" y="122.99" xlink:href="#flag-va-18"/><use x=".61" y="143.69" xlink:href="#flag-va-18"/><use x="-.3" y="164.4" xlink:href="#flag-va-18"/><use x=".92" y="183.27" xlink:href="#flag-va-18"/><use x=".92" y="203.06" xlink:href="#flag-va-18"/><use x=".31" y="224.37" xlink:href="#flag-va-18"/><use x=".31" y="245.37" xlink:href="#flag-va-18"/></g><g stroke="#000" stroke-linejoin="round" stroke-width=".82"><path d="M473.508 405.717c5.095 1.414 8.13 1.34 12.344.11l-4.464-7.163" fill="#fa0204"/><path d="M483.407 387.26l-8.117-2.084s.094-9.007 5.22-8.222c4.254.652 3.068 10.327 2.897 10.306z" fill="#ffe000"/><path d="M479.459 370.337a3.306 3.306 0 1 0 0 6.613 3.306 3.306 0 1 0 0-6.613z" fill="#ffe000"/><path d="M482.655 391.279c1.804 4.573 2.91 8.51 1.212 13.667m1.945.873c-2.618-2.113-9.365-1.493-12.283-.089-1.14 0-4.21-21.31 6.584-20.782 9.913.483 6.387 20.97 5.699 20.871z" fill="#fa0204"/></g><g stroke="#000" stroke-linejoin="round" stroke-width=".82"><path d="M464.691 410.346c4.939 3.133 9.536 2.852 13.887.11l-10.305-10.746" fill="#fa0204"/><path d="M471.91 374.25a3.306 3.306 0 1 0 0 6.613 3.306 3.306 0 1 0 0-6.613zm4.078 13.998l-8.376-.165s-1.087-6.813 4.133-7.11c4.333-.245 4.416 7.262 4.243 7.275z" fill="#ffe000"/><path d="M471.964 408.912c-1.603-3.56-1.77-7.943-1.323-12.675m-2.424 12.896c-1.967-3.375-2.332-7.684-.772-13.116m11.112 14.499c-1.262-1.585-10.299-2.26-13.849-.1-1.285 0-4.747-24.026 7.424-23.432 11.176.545 7.2 23.643 6.425 23.532z" fill="#fa0204"/></g></svg>