<svg xmlns="http://www.w3.org/2000/svg" xmlns:xlink="http://www.w3.org/1999/xlink" viewBox="0 0 640 480" height="16" width="22"><path d="M204.267 315.21s-.518-3.508 6.145-6.081c6.664-2.573 7.182-12.164 5.85-18.558 0 0-3.48 6.082-7.7 8.11 0 0-6.886 3.586-7.201 10.438 0 0-.055 2.505-.573 4.454-.284 1.067-3.332-8.577 2.443-15.75 5.959-7.403 7.625-13.411 2.887-25.107 0 0-.444 7.095-5.108 11.15-4.665 4.054-5.258 4.367-5.183 14.035 0 0 .074 3.353-1.703 4.444 0 0-3.628-5.302-4.59-8.81-.963-3.51-1.407-4.99 2.739-9.045 0 0 13.282-8.584 3.702-27.368 0 0-.296 6.471-4.887 10.292-4.59 3.82-4.22 6.393-4.442 13.021-.222 6.628-.667 6.16-1.185 7.095 0 0-8.44-15.516-1.925-23.781 6.515-8.265 10.143-9.98 2.962-25.34 0 0 .319 7.875-5.43 11.774-5.75 3.898-4.417 13.02-4.417 13.02s.37 3.432-.814 5.927c0 0-8.133-15.863-.37-24.406 6.59-7.251 7.034-12.32 3.48-22.612 0 0-.444 4.757-4.072 7.33-3.628 2.573-6.515 5.146-5.849 15.048 0 0 .296 6.94-.592 8.888 0 0-3.406-6.315-4.368-10.448-.963-4.132-1.333-6.55 1.184-10.682 2.518-4.133 12.513-15.984.593-33.06 0 0-.37 5.536-3.406 10.526s-1.629 10.917-.962 15.439c.666 4.522-1.555 8.888-1.555 8.888s-5.183-9.512-4.072-20.428c1.11-10.916-3.331-19.882-13.4-26.354 0 0-7.33 16.998 2.665 25.652 0 0 8.514 8.421 10.66 18.636 0 0-6.44-.624-12.29-12.008-5.848-11.384-17.99-9.59-18.805-9.668 0 0 2 17.621 20.657 22.612 0 0 11.92 2.027 14.14 10.76 0 0 2 6.004 2.814 9.2 0 0-3.775-1.48-7.256-6.627-3.48-5.146-3.035-5.77-14.807-6.94 0 0-4.738-.546-7.256-3.898 0 0 4.96 18.635 17.695 18.479 0 0 11.624-1.248 18.139 14.035 0 0-1.259-.78-2.962-1.95-1.703-1.17-5.997-3.353-14.511-2.34-8.514 1.014-10.884-.39-13.03-1.09 0 0 8.588 15.75 20.73 11.07 12.142-4.677 18.006 12.382 18.139 12.71 0 0-1.629-1.248-3.776-3.353-2.147-2.105-6.604-4.701-15.03-2.028 0 0-6.07 2.34-12.216.468 0 0 5.923 11.462 19.768 9.513 13.844-1.95 17.325 10.214 17.325 10.214s-1.851-1.091-3.11-2.105c-1.258-1.013-5.923-3.665-15.918-.702s-13.622-.467-13.622-.467 5.552 10.136 16.213 11.305c0 0 5.924-.078 8.44-1.013 2.518-.936 9.18-2.417 13.771 4.21 0 0-1.258.234-3.183-.624 0 0-7.108-2.573-12.513 1.95 0 0-4.812 4.912-11.624 3.976 0 0 8.81 8.577 22.804 1.326 0 0 4.738-3.431 8.218-.78 3.48 2.653 11.55-2.571 11.55-2.571z" fill="#369443" stroke="#010002" stroke-miterlimit="10" stroke-width="1.506"/><g fill="#0081c6" stroke="#010002" stroke-miterlimit="10" stroke-width="1.506"><path d="M466.04 256.2l-14.323 61.83-5.91-4.245 13.943-59.237-9.722.179 23.077-42.26 1.538 48.724zm36.979 13.053l-42.99 50.797-4.654-5.21 42.826-50.155-8.663-4.649 39.214-25.903-20.362 43.78z"/><path d="M492.607 242.312l-38.476 73.984-5.93-3.461 38.735-73.833-9.434-2.477 32.677-34.53-10.489 47.483z"/></g><use transform="matrix(-1 0 0 1 649.50147 0)" xlink:href="#flag-vi-a"/><g id="flag-vi-a" stroke="#010002" stroke-width="1.506"><path d="M228.587 298.628s-7.503 12.892-16.585 13.1c0 0-15.622-1.902-20.039 2.183-3.08 2.848-6.22 5.198-7.502 12.475-1.283 7.278 2.467 8.837 3.356 9.15 0 0 .691 5.197 5.824 3.846 0 0 .296 5.406 9.378 2.807 9.082-2.6 12.833-1.768 14.61-10.813 1.777-9.044 3.418-8.896 5.035-9.98 2.172-1.456 6.252-2.831 9.28-4.574 2.719-1.567 13.129-6.862 16.682-7.278 3.554-.415 2.764-12.371 2.764-12.371h-9.18l-4.443-6.55zm28.913-64.664s-9.18 7.486-16.88 0c0 0-3.11 3.743-9.328 2.651-6.219-1.092-7.256-4.366-7.848-6.238 0 0-5.38 3.14-9.921.66-4.541-2.48-4.541-6.222-4.541-6.222s-7.898 1.557-11.945-3.796c-4.047-5.352-1.58-10.654.592-11.278 0 0-8.538 2.237-10.859-5.094-1.974-6.238 2.469-9.46 2.469-9.46s-17.991-.087-25.37-5.718c0 0-6.121-3.847-2.468-7.901 0 0-16.19-2.6-20.237-9.045 0 0-1.777-1.768-1.184-4.886 0 0 .099-1.768 1.875-1.871 0 0-18.462-2.852-23.79-8.941 0 0-2.567-2.807-1.284-6.55 0 0 .272-.988.716-1.65 0 0-16.806-3.548-25.099-11.034 0 0-4.786-4.264-2.319-9.982 0 0-28.086-7.691-21.57-20.062 0 0-13.13-4.263-8.983-16.114 0 0-10.86-5.51-6.12-14.243 4.534-8.358 18.46 1.455 34.948 6.018 0 0 44.616 14.047 66.588 17.785l62.43 92.947 36.426 14.034z" fill="#f4c53d"/><path d="M257.945 165.505s-5.851-4.392-16.288.78c0 0-3.514 2.42-6.278-.231-2.31-2.216-2.526-6.3.651-8.658 7.774-5.77 10.661-23.08-1.184-30.252 0 0-17.177-10.189-80.161-26.217 0 0-5.278-1.463-8.091-.762-3.098.773-5.232 3.431-5.67 5.706 0 0-2.818 8.009 6.657 12.592 0 0 4.278 1.957 8.687 3.223 0 0-4.843-1.047-6.91 3.742-1.974 4.575.889 9.253 9.773 12.268 0 0 2.403.935 5.824 1.767 0 0-7.601 2.183-3.948 8.317 0 0 3.257 6.446 14.758 7.59 0 0-8.588.935-2.517 9.096 0 0 2.665 4.47 11.056 6.134 0 0-6.368.208-3.16 5.926 3.209 5.717 10.759 8.94 18.188 9.46 0 0 4.024.208 6.838-.416 0 0-7.058 3.535-2.912 9.46 0 0 3.06 4.211 10.71 4.003 0 0-1.985 6.618 3.628 9.123 4.368 1.95 7.996-1.17 7.996-1.17s-1.48 7.096 4.887 9.591c0 0 3.183 1.637 7.922 0 0 0 3.627 8.11 16.51 2.417 12.88-5.692 3.034-53.489 3.034-53.489zm.765 73.697s-1.891 10.149-16.88 22.922c0 0-11.565 10.202-11.27 21.95.303 11.962-2.072 13.307-6.613 17.361 0 0 9.378.728 13.919-5.51 0 0-.197 10.397-1.58 11.332 0 0 2.941.188 7.206-4.47 0 0 2.567-2.703 4.936-3.743 0 0-2.764 7.174-.592 13.827 0 0 .691-2.599 4.343-3.742 0 0 6.614-1.352 9.181-10.917 0 0 1.678-6.341 12.043-11.955 0 0 11.747-4.431 11.452-10.22-.296-5.79-26.146-36.835-26.146-36.835z" fill="#f4c53d"/><path d="M313.158 370.05s-2.691 11.875-12.043 10.917c0 0-6.614-.624-6.12-11.644 0 0-9.774 5.198-11.353-7.693 0 0-8.884 2.079-8.786-9.98 0 0-8.292 1.455-7.305-9.254 0 0-8.983 2.392-8.983-7.693 0 0-21.026-3.487 22.803-43.456l39.091 23.288z" fill="#f4c53d" stroke-miterlimit="10"/><path d="M317.502 316.76s-6.515 5.78-11.156-2.849c0 0-6.317-.312-7.304-5.094 0 0-5.134-.52-6.12-5.406 0 0-7.01-.728-6.812-6.653 0 0-12.742-.984-.005-15.41 12.738-14.427 34.357 23.934 34.357 23.934z" fill="#f4c53d"/><path d="M258.568 334.703s1.777-15.074 27.541-37.946c0 0-.888-5.925 7.7-11.956m-26.258 57.595s.938-13.203 25.37-38.985c0 0-1.222-7.901 7.533-12.788m-25.598 61.026s-.79-13.047 24.185-42.832c0 0-2.206-7.693 6.844-13.827m-22.243 66.64s-2.814-12.06 22.704-47.719c0 0-2.961-8.525 6.12-13.982m-17.472 69.394s.987-20.897 19.098-50.838m-73.472-84.521s-1.718-1.482-.542-7.927m-16.634 4.34s4.59-4.106 4.887-8.68m-19.349 3.119s5.923-2.287 8.786-8.525m-20.138-6.55s7.7-2.079 12.24-4.99m-20.631-9.565s9.06-.425 13.414-1.148m-41.252-12.47s22.409 3.405 31.327 3.222m-50.873-19.024s30.707 6.404 38.487 7.174m-62.845-24.315s36.303 8.72 53.634 10.167m-81.05-31.183s32.13 10.086 69.757 16.451M68.51 107.547s54.771 17.866 80.279 20.062M59.527 91.433s20.236 11.716 83.26 23.433m61.358 54.487s-1.382 13.877 15.597 13.878c0 0-3.258 12.372 13.13 11.956 0 0 1.875 9.877 13.721 7.9m-46.495-68.822s-9.28 8.629 1.875 16.634c0 0-4.64 7.277 4.64 14.867m-.592-41.482s10.365 4.159 13.82 9.877c3.455 5.717 1.18 11.275 0 14.463-.593 1.602-7.898 15.685.69 25.874m17.869 42.078s-.889-1.845-.593-4.756m-81.539-90.135s12.905 3.684 22.508 4.99m-13.82 12.788s10.463 2.079 16.09 2.183m-5.282 13.723s7.256.728 14.067.624m-5.528 14.606s6.178 1.244 12.241 1.3m9.625 13.67s.049-.051 3.702-1.195" fill="none" stroke-miterlimit="10"/><path d="M255.078 288.518s-3.103.635-5.257 3.086c-2.155 2.45-6.292 1.996-6.292 1.996s2.24-1.815 3.016-6.354c.776-4.539 3.276-5.9 3.276-5.9m7.7-13.007s-3.553.728-6.02 3.535c-2.468 2.807-7.207 2.287-7.207 2.287s2.567-2.08 3.455-7.277c.889-5.199 3.751-6.758 3.751-6.758m20.521 21.348s-3.553.728-6.021 3.535c-2.468 2.807-7.206 2.287-7.206 2.287s2.566-2.079 3.455-7.277c.888-5.198 3.75-6.758 3.75-6.758m-65.472 49.798s-7.404-.935-6.91 16.322m1.974-20.376s-8.193-1.247-7.798 16.53m32.7-23.807s-2.687.598-8.515 0" fill="none"/><path d="M324.726 313.183c-6.316 0-13.472 39.454-11.615 63.224.675 8.633 5.3 15.684 11.615 15.684s10.94-7.051 11.615-15.684c1.857-23.77-5.3-63.224-11.615-63.224" fill="#f4c53d"/><path d="M324.726 299.928a8.739 12.943 0 1 1 0 25.886 8.739 12.943 0 1 1 0-25.886z" fill="#f4c53d"/></g><path d="M403.065 383.52l-6.885 8.42m-8.536-9.356l18.975 17.543" fill="none"/><path d="M65.41 289.171c3.602-1.47 6.196-2.89 6.184-6.732 0-.916-.511-2.943-1.533-6.081l-24.183-73.909c-1.432-4.39-2.515-7-3.017-7.962-1.087-2.082-3.22-2.93-6.095-4.126h30.736c-3.34 1.577-6.383 2.83-6.354 6.37.01 1.352.39 3.258 1.175 5.719l18.526 57.997 18.507-57.997c.784-2.461 1.19-4.367 1.177-5.72-.036-3.637-3.206-4.948-6.32-6.37H124c-2.723 1.092-4.943 1.947-6.084 4.127-.503.961-1.584 3.572-3.016 7.962l-24.183 73.909c-1.023 3.137-1.393 5.199-1.534 6.153 0 0-1.113 4.674 6.184 6.66zm515.353-7.601v-83.68c0-1.448-.239-2.558-.715-3.33-.477-.772-2.555-2.996-5.519-4.199h27.696c-2.965.982-5.043 3.367-5.52 4.163-.477.796-.715 1.918-.715 3.366v83.681c0 1.497.247 2.643.741 3.439.494.796 2.53 2.74 5.494 4.162h-27.696c2.965-1.349 5.042-3.426 5.52-4.198.475-.771.714-1.906.714-3.403z" fill="#0081c6" stroke="#010002" stroke-miterlimit="10" stroke-width="1.506"/><path d="M324.77 310.044s74.12-32.844 74.306-108.827h-148.61c.185 75.983 74.305 108.827 74.305 108.827z" fill="#fff" stroke="#010002" stroke-width="1.506"/><path d="M261.898 201.216v48.55s5.677 11.26 11.431 18.321v-66.87zm22.863 0v80.03s7.149 7.01 11.431 10.39v-90.42zm22.863 0v98.925s8.156 5.267 11.432 6.996v-105.92zm34.294 0v98.925s-8.156 5.267-11.432 6.996v-105.92zm22.863 0v80.03s-7.15 7.01-11.432 10.39v-90.42zm22.863 0v48.55s-5.677 11.26-11.431 18.321v-66.87z" fill="#a60032" stroke="#010002" stroke-width="1.506"/><path d="M363.742 139.827c-1.728 2.235-8.638 3.015-8.638 3.015s7.108 5.458 10.168 13.255c3.06 7.797-82.378.052-82.378.052s3.702-2.651 6.22-7.642c0 0-3.777 1.404-7.552-2.339 0 0 2.813.936 6.515-4.678 0 0 5.479-7.017 9.328-8.889 0 0-1.777 1.092-6.07-1.247 0 0 7.403-.936 10.068-13.567 0 0 .444-2.807 3.258-6.861 2.813-4.055 2.221.78 7.404-5.459 0 0 2.37-4.418.296-7.121-2.073-2.703-4.294-1.715-8.638-4.314-4.343-2.6-6.268-4.055-4.787-8.057 1.48-4.003 5.33-3.38 5.873-3.38.543 0 .84-3.482 5.578-5.873s17.324-1.352 19.2-.312c1.876 1.04 9.476 3.275 13.919 14.503 4.442 11.228-1.185 15.438 10.908 32.384 0 0-4.837 1.04-7.947.104 0 0 6.268 11.124 17.275 16.426z" fill="#f4c53d" stroke="#010002" stroke-miterlimit="10" stroke-width="1.506"/><path d="M282.154 103.908s-1.625-14.51 9.97-15.906c12.093-1.456 18.065 1.092 18.065 1.092l5.43 10.656-1.876 7.173-7.502 3.431s1.283-11.02-8.819-11.25c-2.56-.058-4.064.957-8.112.315-4.071-.647-6.249 3.827-7.156 4.489z" fill="#f4c53d" stroke="#010002" stroke-miterlimit="10" stroke-width="1.506"/><path d="M310.88 92.446c-9.847-.468-6.07-9.85-6.07-9.85" fill="none" stroke="#010002" stroke-miterlimit="10" stroke-width="1.506"/><path d="M327.982 93.733s-1.74-.819-3.211-2.768c-2.066-2.735-6.672-4.054-9.152-1.481 0 0-2.518 2.807-4.739 2.963 0 0 2.518.78 4.257 2.378 1.74 1.598 3.554 2.768 6.145 2.417 2.591-.351 2.999-1.715 4.22-2.534a6.354 6.354 0 0 1 2.48-.975z" fill="#f4c53d" stroke="#010002" stroke-miterlimit="10" stroke-width="1.506"/><path d="M399.076 146.013s-36.37 19.025-74.305-1.56c-37.935 20.585-74.305 1.56-74.305 1.56v55.203h148.61z" fill="#162667" stroke="#010002" stroke-miterlimit="10" stroke-width="1.506"/><path d="M202.732 336.74s-.222-6.316 7.774-6.783l23.542 32.746s-.888 2.105-11.55 1.871c0 0-1.128-.008-1.72 1.24-.91 1.915-18.046-29.074-18.046-29.074z" fill="#369443" stroke="#010002" stroke-miterlimit="10" stroke-width="1.506"/><path d="M444.601 338.856l-2.882 11.783v0l7.89 7.86v0l-11.151 47.104-9.92-13.323-14.696 6.86 11.151-47.104v0l10.34-2.883v0l2.684-11.763s3.127-1.224 6.584 1.466z" fill="#0081c6" stroke="#010002" stroke-miterlimit="10" stroke-width="1.506"/><path d="M447.243 331.085l-5.68 10.597v0l5.69 9.743v0l-22.348 42.459-6.307-15.573-15.882 2.62 22.348-42.459v0l10.695.034v0l5.483-10.63s3.99-.01 6 3.21z" fill="#0081c6" stroke="#010002" stroke-miterlimit="10" stroke-width="1.506"/><path d="M448.202 334.167l-15.107 19.192v0l3.462 10.842v0l-30.844 36.076-2.818-16.668-16.035-1.21 30.844-36.076v0l10.414 2.566v0l16.025-20.374s4.297 2.135 4.059 5.652z" fill="#0081c6" stroke="#010002" stroke-miterlimit="10" stroke-width="1.506"/></svg>