<svg xmlns="http://www.w3.org/2000/svg" viewBox="0 0 640 480" height="16" width="22"><path d="M0 0l325.702 205.71H640v68.57H325.702L0 479.982V-.003z" fill="#000001"/><path d="M0 462.848l332.562-212.56H640v-20.57H332.562L0 17.147V48l311.99 191.99L0 431.99v30.854z" fill="#ff0"/><path d="M0 479.985l332.562-212.561H640v212.561z" fill="#40aa40"/><path d="M0 0l332.562 212.561H640V0z" fill="#ce0000"/><path d="M89.818 249.96c1.15.252 1.453.58 2.593-1.09.245-.841.96-2.018 1.58-3.06.832-1.365 1.197-1.913 1.979-.875.506.593 2.522-.5 3.358.073 1.293.86.516.735 1.575-.194.813-1.732.097-1.528-1.05-2.316-.805-.553-2.861.587-3.665.035.28-1.73.832-1.916 1.828-2.253.753.518 2.949-.393 3.628-.378.958.2 1.811.306 2.113-1.101.473-.997.267-.31-.113-1.034-.804-.552-2.86.588-3.665.035-1.046-.792-.873-1.086-.263-2.413.818-.449 1.426-.231 2.437.397 1.04.714 2.677-.673 3.59-.724.82-.933 1.787-1.244 1.176-2.381-.342-.863-.599-.961-1.725-1.184-1.15-.79-2.65.656-3.087-.525.913-1.308 1.253-1.029 2.36-.293.713.244 2.864-1.03 3.554-1.068 1.023-.297.527.856 1.25-1.693-.25-1.104-2.103.678-3.148.39-1.003.135-1.802-.22-1.896-1.302.015-1.453.735-1.552 1.769-1.337.909.164 2.961-.966 3.724-.95 1.087.577 1.43.362 2.286-.982.63-1.586-.068-.93-1.147-1.744-.804-.553-2.86.587-3.665.035.14-.586.395-1.298.944-1.584.793.156 1.475.12 2.474.741.981.43 2.599-1.467 3.44-2.102-.16-.904-1.767.382-2.744-.29-.618-.424-1.395-.87-1.589-1.41.554-1.582.284-1.503 1.806-.991.81-.211 2.182-.199 1.252-1.692-.149-.241-.95-.156-1.65-.494-.843-.58-1.654-1.163-2.548-1.432-.645-.1-1.581-.307-2.091-.16-.055.941.183 1.538.127 2.639.42.686 1.214.703 1.38.947-.843.74-1.3.362-2.189.41-1.06-.726-.452-2.98-1.701-2.443.287.662.183 3.164.72 3.683.566.389 1.287.768 1.416 1.292-.9 1.385-1.241 1.307-2.323.637-.904-.62-.619-2.656-1.394-2.552-.952.72-.968.686-.772 1.703.051 1.328-.48 3.178.585 3.91 1.282.908 1.444.8.435 2.53-.694.842-1.084.688-1.881.303-.857-.589-.671-2.758-1.334-3.469-1.256-.75-.529-.721-1.575.196-.323 1.178-.088 1.488.436 2.532.425.646.398 2.86 1.125 3.003 1.172.672 1.214.537-.12 1.832-1.047.041-1.497.328-2.3-.623-.976-.735-.366-3.002-1.606-3.015-1.147.093-1.397.124-1.25 1.692.197 1.38-.315 3.551.795 4.372 1.038.475 1.666.444 2.031 1.076-.323.284-.933 1.162-1.289 1.348-.727.051-1.477-.452-2.302-.624-.978-.45-.536-1.324-1.319-1.862-.905.293-.921-.973-1.401.313.185 1.055-.172 2.434.817 3.112.805.553 1.513 1.677 2.316 2.229.923 1.092.562 1.282-.007 2.865-.77.021-1.672-.511-2.51-1.087-.805-.552-.666-2.689-1.47-3.24-.696-.685-.494-1.27-1.574.194-.102 1.038.093 1.113.36 1.841.03 1.06-.253 3.015.72 3.685.985.198 2.046.712 2.819.978.74.868.096.698-.734 2.046-.522 1.35-.528 1.59-1.35 2.263-.712.95-.993 1.367-.35 2.63z" fill="#ff0"/><path d="M113.36 251.108c.69-1.12 1.113-1.31.033-3.189-.675-.596-1.47-1.824-2.18-2.902-.923-1.428-1.28-2.035-.015-2.45.746-.301.544-2.878 1.403-3.537 1.303-1.03.88-.253.447-1.75-1.265-1.556-1.363-.714-2.542.19-.828.633-.6 3.272-1.427 3.906-1.477-.99-1.428-1.65-1.34-2.842.775-.594.811-3.289 1.095-4.003.566-.939 1.004-1.802-.168-2.685-.727-.9-.178-.407-.994-.294-.828.634-.6 3.272-1.427 3.907-1.144.794-1.345.493-2.32-.686-.086-1.048.356-1.606 1.334-2.428 1.07-.82.448-3.112.764-4.102-.53-1.244-.431-2.395-1.718-2.2-.929.016-1.12.25-1.772 1.357-1.184.907-.452 3.076-1.712 3.07-.838-1.493-.446-1.743.67-2.626.508-.657.195-3.451.434-4.199.135-1.206.996-.218-1.056-2.005-1.113-.175-.215 2.504-.895 3.499-.276 1.12-.92 1.826-1.95 1.494-1.327-.597-1.132-1.402-.523-2.413.512-.9.29-3.532.61-4.335.962-.923.901-1.375.009-2.82-1.206-1.304-.882-.3-2.058.52-.828.634-.6 3.273-1.427 3.907-.482-.384-1.035-.939-1.078-1.636.46-.78.697-1.519 1.665-2.33.785-.872-.312-3.348-.562-4.494-.893-.191-.352 2.029-1.356 2.798-.638.488-1.355 1.134-1.928 1.124-1.232-1.221-1.267-.903-.192-2.315.13-.943.686-2.397-1.055-2.005-.28.061-.52.947-1.11 1.554-.868.664-1.726 1.294-2.328 2.134-.347.645-.913 1.557-.98 2.157.843.434 1.485.422 2.474.918.797-.17 1.128-1.006 1.418-1.085.345 1.192-.185 1.524-.494 2.488-1.089.834-2.915-.712-2.92.83.722-.04 2.978 1.071 3.668.708.58-.445 1.216-1.06 1.749-.989.914 1.512.706 1.843-.34 2.723-.93.712-2.684-.403-2.897.461.281 1.299.244 1.303 1.256 1.5 1.24.477 2.726 1.78 3.821.94 1.345-.997 1.31-1.213 2.497.55.497 1.075.2 1.428-.47 2.119-.882.676-2.8-.389-3.715.031-1.189 1.035-.874.272-.447 1.75.952.815 1.33.689 2.496.55.764-.194 2.785.72 3.206.006 1.083-.977.975-1.074 1.634.859-.38 1.13-.295 1.722-1.488 2.195-1.063.74-2.902-.811-3.407.498-.37 1.257-.442 1.533 1.056 2.007 1.346.34 3.135 1.753 4.33.902.85-.914 1.07-1.593 1.796-1.727.132.456.696 1.455.724 1.907-.241.794-1.002 1.389-1.488 2.194-.803.86-1.43.04-2.235.657-.09 1.079-1.259.591-.27 1.614 1.043.225 2.166 1.155 3.183.375.827-.633 2.14-.935 2.967-1.569 1.37-.543 1.4-.082 2.628 1.154-.287.825-1.135 1.57-1.997 2.23-.827.635-2.733-.367-3.56.267-.906.465-1.36.019-.448 1.75.912.522 1.06.346 1.834.353.986.39 2.667 1.474 3.668.707.574-.966 1.47-1.887 2.02-2.602 1.092-.44.68.177 1.587 1.598 1.031 1.093 1.249 1.195 1.541 2.337.588 1.134.859 1.601 2.273 1.424z" fill="#ff0"/><path d="M91.882 294.848c0-4.988-.774-9.975 0-9.975 43.884 0 54.854-29.92 54.854-49.87 0-19.947-15.244-39.894-43.884-39.894-32.914 0-43.884 19.488-43.884 39.894 0 19.948 16.458 34.91 32.914 34.91 21.943 0 27.428-4.988 43.884-24.935-5.485 24.935-32.914 34.91-43.884 34.91-21.943 0-43.884-14.96-43.884-44.883 0-24.934 16.457-49.867 54.857-49.867 32.914 0 54.854 24.934 54.854 49.867 0 34.91-27.427 59.843-65.827 59.843z" fill="#ff0"/></svg>