<svg xmlns="http://www.w3.org/2000/svg" viewBox="0 0 640 480" height="16" width="22"><path d="M0 0h640v480H0z" fill="#198a00" fill-rule="evenodd"/><path d="M555.503 172.444h84.493v307.528h-84.493z" fill="#ef7d00" fill-rule="evenodd"/><path d="M471.11 172.294h84.402v307.593h-84.403z" fill="#000001" fill-rule="evenodd"/><path d="M384.953 172.481h86.19V480h-86.19z" fill="#de2010" fill-rule="evenodd"/><g fill="#ef7d00" fill-rule="evenodd" stroke="#000001"><path d="M583.384 61.49s31.798-13.588 34.88-16.389c1.4 1.681-12.748 18.77-40.202 25.074 24.933-5.884 46.225-24.373 50.566-23.813 1.261.28.98 18.07-56.17 33.478 39.501-10.367 62.473-29.416 62.194-27.315.279.42-3.923 14.987-38.52 26.335 9.665-2.243 35.859-18.21 35.578-15.129.84 1.261-25.353 34.878-72.694 23.953 37.819 9.805 62.331-13.868 65.833-13.447.7.14-7.003 20.73-54.628 21.99 22.833-2.38 16.248-.14 16.248-.14s-13.447 10.506-29.696 3.363c12.748 3.503 14.147 3.642 14.429 4.763-.841 1.4-11.347 3.501-21.432-1.962 8.124 3.361 15.408 3.923 15.548 5.183-.14.42-5.322 3.362-9.944 1.26-4.622-2.101-47.205-28.294-47.205-28.294l72.555-19.89 2.661.98zm-85.3 70.856c-6.381 0-6.558 5.677-6.558 5.677s-.526.41-.175 3.163c1.054-1.875 1.58-2.46 1.58-2.46.704.118 3.63.995 8.254-2.634-4.215 4.39-1.697 6.03-1.697 6.03s-.995 3.453 2.224 4.156c-.994-1.406-.41-2.634-.41-2.634s4.508-.469 4.216-5.971c.175 4.975 2.868 6.204 2.868 6.204s0 2.752 2.926 2.986c-1.58-1.406-1.229-3.572-1.229-3.572s3.805-2.75.585-7.434c1.931-1.112 3.513-4.214 3.513-4.214s-2.634-1.113-3.863-2.049c-.586-1.23-.059-7.96-.059-7.96l-1.58-8.723-4.509 13.581c.176-1.931.294 5.854-6.087 5.854z" stroke-linejoin="round" stroke-width=".931"/><path d="M529.597 112.754c.14.14 4.763 5.324 9.244 5.044 1.68-1.402-3.502-4.483-3.502-5.184 1.822 1.681 9.525 8.264 14.428 5.883 1.96-2.801-3.501-2.381-9.525-9.945 4.202 2.801 14.708 8.965 19.61 6.584 2.102-2.241-10.925-9.245-15.268-14.708l-11.205-5.742-15.268 12.466z" stroke-linejoin="round" stroke-width=".931"/><path d="M512.366 70.175s5.182-3.082 25.913-1.542c2.241.28 14.147-4.062 17.93-5.322 6.023-1.121 25.212-5.323 30.396-9.244 3.642-.421-.982 6.722-5.603 8.403-4.903 2.242-22.692 8.405-28.997 7.565 7.566.14 3.363 6.303-9.243 3.362 6.023 3.362 3.781 3.921 3.781 3.921s-10.645.561-13.446-1.82c7.144 2.661 4.202 3.642 4.202 3.642s-7.284.7-10.646-.84c5.183 1.54 2.522 2.52 2.522 2.52s-4.203.701-7.704-.56c-3.502-1.26-8.825-10.084-9.105-10.084z" stroke-linecap="round" stroke-linejoin="round" stroke-width=".931"/><path d="M520.678 115.66l.761 13.698s-.41.703-.761 1.112c-.352.41-9.717-1.463-8.43 5.678 0 2.927.059 3.688 2.05 5.327-.528-1.93-.351-3.278-.351-3.278s2.633 1.58 5.21-2.75c-1.757 4.272-.529 5.794-.119 5.911.41.761-.701 4.215 2.81 4.156-1.345-1.288-.702-3.161-.702-3.161s3.689-.584 2.4-7.258c1.347-1.347 1.874-.058 1.874-.058s.41 3.98 3.629 3.16c1.464.82-.235 2.986-.235 2.986s2.342.058 3.044-1.932c.704-1.99 1.523-5.562-2.341-7.025-.468-1.404 1.522-1.522 1.522-1.522s2.46.82 3.161 2.049c.703 1.229.47-3.22-2.575-3.688-3.747-.117-3.98-.878-3.98-1.053 0-.176-.645-9.952-.938-12.761z" stroke-linejoin="round" stroke-width=".931"/><path d="M533.71 127.331c.048-.628-6.39-9.295-4.757-10.415 1.632.335 4.31 4.277 6.478 2.998-.657-1.537-2.595-.671-4.795-4.605-2.2-4.447-2.52-11.123-10.224-18.405 4.987 7.706 16.302 12.223 16.78 9.977.48-2.247-9.962-10.744-9.427-12.793 2.077 4.206 12.56 13.576 20.286 12.8.53-1.804-6.326-5.445-8.09-8.844-4.935-3.315-18.141-14.7-18.405-17.338-4.805-7.008-7.805-9.129-9.202-9.937-.54-.636-.675-1.243-.781-1.63-2.983-7.032.968-9.316 3.281-9.654 1.903-.212 2.455.073 3.825-.59-1.622-.634-3.244-1.227-4.864-1.862 2.114 1.55 7.514.185 6.343 4.653 2.369-.901 7.407-6.895-5.709-8.248-4.268-4.896-21.817-7.71-26.21 13.66.351.3.535.546 1.65 1.38-5.545-2.68-20.492-4.751-25.877-5.622-14.555-4.2-29.67-14.318-31.123-13.074-1.943.863 8.794 10.852 8.235 11.072-9.309-5.428-17.814-9.273-25.727-12.773-5.567-2.082-11.143-6.926-11.758-6.004-2.049 4.244 8.925 14.914 10.967 16.168 2.041 1.2 18.097 8.648 17.86 8.741-24.181-10.976-28.236-12.965-29.45-14.231-2.131-.48-7.323-7.49-8.77-7.04-.792.778.797 11.855 12.336 16.827 1.88 1.371 24.735 9.57 24.511 10.213-.056.16-26.176-10.782-27.191-11.172-5.035-1.976-11.215-8.897-12.37-8.12-1.103.708 2.849 8.2 7.937 10.55 2.668 1.177 12.898 6.243 22.116 9.47.589.212-16.568-6.507-24.818-9.954-3.74-2.076-5.5-4.663-6.07-4.106-.844.555 1.36 11.624 27.87 17.868.698.297 9.33-2.045 8.904-1.734-.107.078-8.573 1.92-9.397 1.857-.733-.112-5.372.55-5.455.79-.28.749 1.68 4.711 15.367 3.885 1.75-.106 11.246-3.458 10.448-2.737-.399.36-12.93 4.433-13.885 4.513-.828.117-5.23.578-5.394 1.046-.199.639 3.259 3.46 10.609 3.91 6.508.347 18.874-3.975 18.626-3.695-.248.28-11.92 4.28-12.227 4.523-.422.24-4.697.471-4.847.8-.348.816 6.166 6.909 25.433.407-1.936 2.615-11.275 4.402-11.26 4.873-.045.341 2.056 2.372 5.322 3.098 1.63.362 3.867.288 5.909-.034 3.665-.734 7.53-2.185 12.44-6.722.587 1.424-12.265 7.927-11.662 8.548 2.788 2.584 12.045-.334 12.651-.672.607-.34 17.827-10.05 17.767-11.173.268 1.44-22.2 13.648-21.957 14.15 1.442 2.3 9.117-.122 9.483-.333.366-.211 9.795-5.305 10.054-5.456.258-.15-11.081 6.638-10.071 7.67-.489 4.407 17.71-3.041 19.134-3.97.714-.463-8.741 4.158-8.766 6.353 3.044 5.148 12.794 3.516 14.297 2.383.752-.567-.885 3.824-.357 3.425.183-.083 2.12-2.372 2.865-4.03-.238 1.438-1.307 3.704-1.93 6.303-.625 2.6-.804 5.533-1.66 8.65-.196 1.369 6.007-2.676 5.106-12.347.53 5.03-1.96 14.436-1.308 14.925 1.303.978 4.907-4.685 5.27-8.513 1.071 1.934 3.317 5.97 5.249 6.9-.21-2.926.037-2.792-.833-5.668.501-3.817.571-9.101.693-15.067 5.25 10.056 7.344 14.302 5.877 22.004 1.56.65 4.054-5.376 3.853-8.477 2.005 8.618 10.657 9.911 10.795 9.66z" stroke-linecap="round" stroke-linejoin="round" stroke-width=".993"/><path d="M446.271 63.487s-3.573 2.7-8.02 2.541c1.112 4.446 10.323 1.031 10.323 1.031s-4.447 4.924-7.623 5.718c1.906 1.587 9.925 1.031 11.275.238 1.35-.794 3.731-3.89 3.731-3.89s-8.257 9.527-9.448 9.447c-.159 1.112 8.655.714 10.482-.953 1.826-1.667 6.43-4.128 6.43-4.128s-12.068 8.416-12.624 8.416c4.526 1.19 13.578-1.43 19.375-5.003-8.576 5.717-9.37 6.75-13.736 8.655 3.89.873 5.875 3.493 19.056-2.224 7.543-3.572 11.83-10.083 11.83-10.083-4.684 6.271-12.069 11.593-20.247 16.832-.477.954 8.734 4.844 20.485-7.384" stroke-linecap="round" stroke-linejoin="round" stroke-width=".993"/><path d="M510.11 90.006s.794 3.73 3.97 6.59c3.177 2.859 3.415 5.637 3.415 5.637m-8.97-36.524s1.11 3.336 4.367 5.48c3.335 2.143 8.338 8.892 8.735 10.084.384 1.442 2.301 11.831 2.143 12.942M488.277 70.87c.238 1.272-4.686 7.703 2.063 15.246-6.114 7.462-6.112 8.416-6.112 8.416s3.412 1.906 9.528-3.335c10.082 12.387 6.722 18.056 6.722 18.056" stroke-linecap="round" stroke-width=".993"/><path d="M499.675 100.51s-.928-1.33.728-6.3c1.49 1.798 3.15 2.18 3.876 2.908.727.727 8.34 1.83 8.824 6.918" stroke-linecap="round" stroke-linejoin="round" stroke-width=".993"/><path d="M508.623 53.87c0-.373-1.533-3.663-7.253.449 3.066.187 6.094 1.944 7.252-.448z" stroke-width=".993"/><path d="M563.213 68.914c.281.14 17.09 3.782 22.692 1.961-7.143 9.525-21.43 3.082-21.43 3.082 7.002 2.1 7.283 1.96 9.524 3.921.7 1.822-12.887.98-17.369-1.54 12.467 3.921 12.746 3.641 13.167 5.182.56 2.101-20.45-.56-22.271-3.362 5.602 4.343 8.684 5.183 11.766 7.144-3.782 1.681-10.785 3.362-23.672-5.743 16.948 15.408 32.216 14.428 34.597 17.23-5.883 8.683-28.715-5.183-39.22-12.188-10.506-7.003 22.971 16.95 26.054 16.528-1.541 2.381-12.607.281-13.308-.84" stroke-linejoin="round" stroke-width=".993"/><path d="M567.558 85.022c-1.96.281-7.844.281-8.684.14" stroke-linecap="round" stroke-width=".993"/><path d="M441.348 60.946s12.784 6.749 18.183 6.272c-1.428 1.35-3.573 1.906-3.573 1.906 1.35.556 5.082 2.54 10.72 1.271-1.35 1.35-3.097 2.858-3.097 2.858s4.843 1.827 10.322-1.032c-1.667 2.065-2.62 3.572-2.62 3.572l3.81.24" stroke-linecap="round" stroke-linejoin="round" stroke-width=".993"/></g></svg>