<svg xmlns="http://www.w3.org/2000/svg" viewBox="0 0 640 480" height="16" width="22"><path d="M0 0h640v480H0z" fill="#319208"/><path d="M0 70h640v342H0z" fill="#ffd200"/><path d="M0 136h640v206H0z" fill="#de2010"/><path d="M0 0v480h28.17v-.254L303.999 274H640v-68H304.002L28.171.254V0h-.342z" fill="#000001"/><path d="M0 0v480l322.284-240z" fill="#f5f5f5"/><path d="M123.71 107.496l25.566 84.718 91.317.8-72.677 50.497 27.465 87.08-70.48-53.512-74.34 53.03 29.113-83.57L6.26 192.23l88.487 1.86z" fill="#d62419"/><path d="M46.914 155.837c1.554-2.799 1.864-4.353 9.95-7.774 10.57-30.78 37.62-18.654 52.544 23.941 13.68 5.907 95.45 66.847 94.208 70.267-.622 3.11-10.883.622-10.883.622s-16.167 69.024-16.477 69.024c-30.16-4.042-77.109-4.664-109.136-4.042.31-5.287-8.705-39.798-8.705-39.798s-7.774-2.487 5.285-28.915c13.992-33.267 16.79-87.368-16.788-83.325z" fill="#f7df00" stroke="#000001" stroke-width="1.376"/><path d="M74.578 143.393a3.42 3.42 0 1 1-6.84 0 3.42 3.42 0 0 1 6.84 0zm33.894 28.612s-26.739 15.234-34.512 14.923m118.771 55.963c-1.865-1.555-99.179-6.218-95.141-39.176m15.547 39.796s10.57 6.218 19.586-9.95m-7.773 9.64s7.463 6.84 18.345-8.083m-84.566 32.96s6.839.933 8.084-3.11m24.243 43.216c0-.31-6.84-44.15-6.84-44.15 33.786 3.005 68.816 3.214 101.356 9.018" fill="none" stroke="#000001" stroke-width="1.376"/><path d="M87.64 264.652l9.327 10.882 9.639-9.328 8.083 8.706m2.492.316l8.083-7.15 8.707 8.394m1.546-.005l9.016-8.084 6.84 8.084m3.737.318l8.084-5.597 7.15 6.841m5.598-.314l5.908-5.597" fill="none" stroke="#000001" stroke-width="1.376"/><path d="M86.082 274.6l9.95 11.504 9.949-9.017 8.705 9.328 9.95-8.706 8.395 9.949 10.26-8.706s7.772 9.639 8.706 9.639c.934 0 10.26-8.083 10.26-8.083l9.017 9.948 12.436-9.948m-96.07 5.286s80.217 3.11 93.274 6.22m-79.902-42.592s76.174 4.042 88.3 8.706" fill="none" stroke="#000001" stroke-width="1.376"/><path d="M85.463 217.704c.622 4.664-4.975 20.832-10.881 26.429-8.085 6.53-7.152 20.21-7.152 20.21.933 5.596 13.06 4.974 14.613 2.176 1.244-12.748 14.924-15.546 14.924-15.546s18.966-5.285 27.05-21.142m-.314 28.29a4.043 4.043 0 1 1-8.085 0 4.042 4.042 0 0 1 8.084 0zm18.035 1.557a4.042 4.042 0 1 1-8.083.001 4.042 4.042 0 0 1 8.083 0z" fill="none" stroke="#000001" stroke-width="1.376"/></svg>